<?xml version="1.0" encoding="utf-8"?>
<!-- Generator: Adobe Illustrator 24.0.2, SVG Export Plug-In . SVG Version: 6.00 Build 0)  -->
<svg version="1.1" id="Layer_1" xmlns="http://www.w3.org/2000/svg" xmlns:xlink="http://www.w3.org/1999/xlink" x="0px" y="0px"
	 viewBox="0 0 30 30" style="enable-background:new 0 0 30 30;" xml:space="preserve">
<style type="text/css">
	.st0{opacity:0;fill:#FFFFFF;}
	.st1{fill:#808285;}
	.st2{fill:#6D6E71;stroke:#FFFFFF;stroke-width:0.25;stroke-miterlimit:10;}
</style>
<path class="st0" d="M1.25,0h27.5C29.44,0,30,0.56,30,1.25v27.5c0,0.69-0.56,1.25-1.25,1.25H1.25C0.56,30,0,29.44,0,28.75V1.25
	C0,0.56,0.56,0,1.25,0z"/>
<g>
	<g>
		<g>
			<path class="st2" d="M23.79,7.5h-1.87V6.87c0-1.03-0.84-1.87-1.87-1.87H6.21C5.17,5,4.33,5.84,4.33,6.87v10
				c0,1.03,0.84,1.87,1.87,1.87h1.87v3.12c0,0.56,0.68,0.83,1.07,0.44l1.07-1.07h7.07l3.57,3.57c0.39,0.39,1.07,0.12,1.07-0.44
				v-3.12h1.87c1.03,0,1.87-0.84,1.87-1.87v-10C25.67,8.34,24.83,7.5,23.79,7.5z M9.33,20.37v-2.24c0-0.35-0.28-0.62-0.62-0.62h-2.5
				c-0.34,0-0.62-0.28-0.62-0.62v-10c0-0.34,0.28-0.62,0.62-0.62h13.83c0.34,0,0.62,0.28,0.62,0.62v10c0,0.34-0.28,0.62-0.62,0.62
				h-7.58c-0.17,0-0.32,0.07-0.44,0.18L9.33,20.37z M24.42,19.37c0,0.34-0.28,0.62-0.62,0.62h-2.5c-0.35,0-0.62,0.28-0.62,0.62v2.24
				l-2.68-2.68C17.87,20.07,17.71,20,17.54,20h-6.07l1.25-1.25h7.32c1.03,0,1.87-0.84,1.87-1.87V8.75h1.87
				c0.34,0,0.62,0.28,0.62,0.62V19.37z"/>
		</g>
	</g>
	<g>
		<g>
			<path class="st2" d="M16.29,8.75H7.46c-0.35,0-0.62,0.28-0.62,0.62C6.83,9.72,7.11,10,7.46,10h8.83c0.35,0,0.62-0.28,0.62-0.62
				C16.92,9.03,16.64,8.75,16.29,8.75z"/>
		</g>
	</g>
	<g>
		<g>
			<path class="st2" d="M18.79,11.25H7.46c-0.35,0-0.62,0.28-0.62,0.62c0,0.35,0.28,0.62,0.62,0.62h11.33
				c0.35,0,0.62-0.28,0.62-0.62C19.42,11.53,19.14,11.25,18.79,11.25z"/>
		</g>
	</g>
	<g>
		<g>
			<path class="st2" d="M13.79,13.75H7.46c-0.35,0-0.62,0.28-0.62,0.62c0,0.35,0.28,0.62,0.62,0.62h6.33c0.35,0,0.62-0.28,0.62-0.62
				C14.42,14.03,14.14,13.75,13.79,13.75z"/>
		</g>
	</g>
</g>
</svg>
