<?xml version="1.0" encoding="utf-8"?>
<!-- Generator: Adobe Illustrator 24.0.2, SVG Export Plug-In . SVG Version: 6.00 Build 0)  -->
<svg version="1.1" id="Layer_1" xmlns="http://www.w3.org/2000/svg" xmlns:xlink="http://www.w3.org/1999/xlink" x="0px" y="0px"
	 viewBox="0 0 30 30" style="enable-background:new 0 0 30 30;" xml:space="preserve">
<style type="text/css">
	.st0{opacity:0;fill:#FFFFFF;}
	.st1{fill:#808285;}
	.st2{fill:#6D6E71;stroke:#FFFFFF;stroke-width:0.25;stroke-miterlimit:10;}
</style>
<path class="st0" d="M1.25,0h27.5C29.44,0,30,0.56,30,1.25v27.5c0,0.69-0.56,1.25-1.25,1.25H1.25C0.56,30,0,29.44,0,28.75V1.25
	C0,0.56,0.56,0,1.25,0z"/>
<g>
	<path class="st1" d="M22.22,5H8.48c-0.61,0-1.1,0.49-1.1,1.1v1.19h-0.3c-0.22,0-0.39,0.17-0.39,0.39v1.91
		c0,0.22,0.17,0.39,0.39,0.39h0.3v1.55h-0.3c-0.22,0-0.39,0.17-0.39,0.39v1.91c0,0.22,0.17,0.39,0.39,0.39h0.3v1.55h-0.3
		c-0.22,0-0.39,0.17-0.39,0.39v1.91c0,0.22,0.17,0.39,0.39,0.39h0.3v1.55h-0.3c-0.22,0-0.39,0.17-0.39,0.39v1.91
		c0,0.22,0.17,0.39,0.39,0.39h0.3v1.19c0,0.61,0.49,1.1,1.1,1.1h13.74c0.61,0,1.1-0.49,1.1-1.1V6.1C23.32,5.49,22.82,5,22.22,5
		L22.22,5z M7.46,9.2V8.07h1.39V9.2H7.46z M7.46,13.44v-1.13h1.39v1.13H7.46z M7.46,17.69v-1.13h1.39v1.13H7.46z M7.46,21.93V20.8
		h1.39v1.13H7.46z M10.46,24.22H8.48c-0.18,0-0.32-0.14-0.32-0.32v-1.19h1.09c0.22,0,0.39-0.17,0.39-0.39v-1.91
		c0-0.22-0.17-0.39-0.39-0.39H8.16v-1.55h1.09c0.22,0,0.39-0.17,0.39-0.39v-1.91c0-0.22-0.17-0.39-0.39-0.39H8.16v-1.55h1.09
		c0.22,0,0.39-0.17,0.39-0.39v-1.91c0-0.22-0.17-0.39-0.39-0.39H8.16V9.98h1.09c0.22,0,0.39-0.17,0.39-0.39V7.68
		c0-0.22-0.17-0.39-0.39-0.39H8.16V6.1c0-0.18,0.14-0.32,0.32-0.32h1.98L10.46,24.22L10.46,24.22z M22.54,23.9
		c0,0.18-0.14,0.32-0.32,0.32H11.24V5.78h10.97c0.18,0,0.32,0.14,0.32,0.32V23.9z"/>
	<path class="st1" d="M16.8,9.6c-2.46,0-4.46,2-4.46,4.46c0,1.56,0.8,2.99,2.13,3.81c0,0,0,0,0,0c0.7,0.43,1.5,0.65,2.32,0.65
		c0.82,0,1.63-0.23,2.32-0.65c0,0,0,0,0.01,0c1.33-0.82,2.13-2.24,2.13-3.8C21.26,11.6,19.26,9.6,16.8,9.6L16.8,9.6z M15.07,17.31
		V15.2c0-0.14,0.12-0.26,0.26-0.26h1.46c0,0,0,0,0.01,0s0,0,0.01,0h1.46c0.14,0,0.26,0.12,0.26,0.26v2.11
		c-0.53,0.28-1.12,0.43-1.73,0.43C16.19,17.74,15.6,17.59,15.07,17.31L15.07,17.31z M15.65,13c0-0.64,0.52-1.15,1.15-1.15
		s1.15,0.52,1.15,1.15c0,0.63-0.51,1.15-1.14,1.15h-0.01C16.16,14.15,15.65,13.64,15.65,13L15.65,13z M19.31,16.75V15.2
		c0-0.55-0.43-1-0.97-1.04c0.24-0.32,0.38-0.72,0.38-1.16c0-1.07-0.87-1.93-1.93-1.93s-1.93,0.87-1.93,1.93
		c0,0.43,0.14,0.83,0.38,1.16c-0.54,0.04-0.97,0.49-0.97,1.04v1.55c-0.74-0.69-1.17-1.65-1.17-2.69c0-2.03,1.65-3.68,3.68-3.68
		s3.68,1.65,3.68,3.68C20.48,15.1,20.05,16.06,19.31,16.75L19.31,16.75z"/>
	<path class="st1" d="M20.87,19.69h-8.14c-0.22,0-0.39,0.17-0.39,0.39c0,0.22,0.17,0.39,0.39,0.39h8.14c0.22,0,0.39-0.17,0.39-0.39
		C21.26,19.87,21.08,19.69,20.87,19.69z"/>
	<path class="st1" d="M19.31,21.52h-5.01c-0.22,0-0.39,0.17-0.39,0.39c0,0.22,0.17,0.39,0.39,0.39h5.01c0.22,0,0.39-0.17,0.39-0.39
		C19.7,21.69,19.52,21.52,19.31,21.52z"/>
</g>
</svg>
