<?xml version="1.0" encoding="utf-8"?>
<!-- Generator: Adobe Illustrator 24.0.2, SVG Export Plug-In . SVG Version: 6.00 Build 0)  -->
<svg version="1.1" id="Layer_1" xmlns="http://www.w3.org/2000/svg" xmlns:xlink="http://www.w3.org/1999/xlink" x="0px" y="0px"
	 viewBox="0 0 30 30" style="enable-background:new 0 0 30 30;" xml:space="preserve">
<style type="text/css">
	.st0{opacity:0;fill:#FFFFFF;}
	.st1{fill:#808285;}
	.st2{fill:#6D6E71;stroke:#FFFFFF;stroke-width:0.25;stroke-miterlimit:10;}
</style>
<path class="st0" d="M1.04,0.19l27.5-0.38c0.69-0.01,1.26,0.54,1.27,1.23l0.38,27.5c0.01,0.69-0.54,1.26-1.23,1.27l-27.5,0.38
	c-0.69,0.01-1.26-0.54-1.27-1.23l-0.38-27.5C-0.2,0.77,0.35,0.2,1.04,0.19z"/>
<g>
	<g>
		<path class="st1" d="M22.55,18.29l-4.17,0.06c-0.17,0-0.32,0.11-0.38,0.26c-0.06,0.16-0.02,0.34,0.1,0.45L20.09,21l0.02,1.49
			L19.7,22.5c-0.23,0-0.41,0.19-0.41,0.42c0,0.23,0.19,0.41,0.42,0.41l1.67-0.02c0.23,0,0.41-0.19,0.41-0.42
			c0-0.23-0.19-0.41-0.42-0.41l-0.42,0.01l-0.02-1.49L22.86,19c0.12-0.12,0.15-0.3,0.08-0.46C22.88,18.39,22.72,18.29,22.55,18.29z
			 M20.5,20.23l-1.09-1.06l2.15-0.03L20.5,20.23z"/>
		<path class="st1" d="M23.37,16.83l-0.12-8.55c-0.01-0.92-0.77-1.66-1.69-1.64l-2.5,0.03l-0.02-1.25c0-0.23-0.19-0.41-0.42-0.41
			c-0.23,0-0.41,0.19-0.41,0.42l0.02,1.25l-7.5,0.1l-0.02-1.25c0-0.23-0.19-0.41-0.42-0.41S9.87,5.32,9.88,5.55L9.89,6.8L6.56,6.85
			C5.64,6.86,4.9,7.62,4.92,8.54L5.1,21.87c0.01,0.92,0.77,1.66,1.69,1.64l10.22-0.14c0.86,1.01,2.14,1.64,3.56,1.62
			c2.53-0.04,4.55-2.12,4.52-4.65C25.06,18.92,24.4,17.66,23.37,16.83z M5.75,8.52C5.74,8.07,6.11,7.69,6.57,7.68L9.9,7.63
			l0.01,0.83C9.46,8.47,9.09,8.85,9.09,9.31s0.39,0.83,0.84,0.82c0.46-0.01,0.83-0.39,0.82-0.84l-0.02-1.67l7.5-0.1l0.01,0.83
			c-0.46,0.01-0.83,0.39-0.82,0.84c0.01,0.46,0.39,0.83,0.84,0.82s0.83-0.39,0.82-0.84l-0.02-1.67l2.5-0.03
			c0.46-0.01,0.84,0.36,0.84,0.82l0.03,2.5L5.78,11.02L5.75,8.52z M6.78,22.68c-0.46,0.01-0.84-0.36-0.84-0.82l-0.14-10l16.67-0.23
			l0.06,4.67c-0.63-0.31-1.34-0.49-2.09-0.48c-2.53,0.04-4.55,2.12-4.52,4.65c0.01,0.75,0.21,1.45,0.53,2.08L6.78,22.68z
			 M20.55,24.15c-2.07,0.03-3.77-1.63-3.8-3.7c-0.03-2.07,1.63-3.77,3.7-3.8c2.07-0.03,3.77,1.63,3.8,3.7
			C24.28,22.42,22.62,24.13,20.55,24.15z"/>
	</g>
</g>
</svg>
