<?xml version="1.0" encoding="utf-8"?>
<!-- Generator: Adobe Illustrator 24.0.2, SVG Export Plug-In . SVG Version: 6.00 Build 0)  -->
<svg version="1.1" id="Layer_1" xmlns="http://www.w3.org/2000/svg" xmlns:xlink="http://www.w3.org/1999/xlink" x="0px" y="0px"
	 viewBox="0 0 30 30" style="enable-background:new 0 0 30 30;" xml:space="preserve">
<style type="text/css">
	.st0{opacity:0;fill:#FFFFFF;}
	.st1{fill:#808285;}
	.st2{fill:#6D6E71;stroke:#FFFFFF;stroke-width:0.25;stroke-miterlimit:10;}
</style>
<path class="st0" d="M1.25,0h27.5C29.44,0,30,0.56,30,1.25v27.5c0,0.69-0.56,1.25-1.25,1.25H1.25C0.56,30,0,29.44,0,28.75V1.25
	C0,0.56,0.56,0,1.25,0z"/>
<g>
	<path class="st1" d="M22,6.67C22,5.73,21.27,5,20.33,5H8C7.07,5,6.33,5.73,6.33,6.67v2.67H9v14C9,24.27,9.73,25,10.67,25H22
		c0.93,0,1.67-0.73,1.67-1.67v-1.67H22V6.67z M9,8.67H7v-2c0-0.57,0.43-1,1-1s1,0.43,1,1V8.67z M9.67,23.33V6.67
		c0-0.37-0.13-0.7-0.33-1h11c0.57,0,1,0.43,1,1v15h-9.67v1.67c0,0.57-0.43,1-1,1C10.1,24.33,9.67,23.9,9.67,23.33z M23,22.33v1
		c0,0.57-0.43,1-1,1H12c0.23-0.3,0.33-0.63,0.33-1v-1H23z"/>
	<path class="st1" d="M18,15.67h2.67v0.67H18V15.67z"/>
	<path class="st1" d="M10.33,15.67h7v0.67h-7V15.67z"/>
	<path class="st1" d="M14,17h6.67v0.67H14V17z"/>
	<path class="st1" d="M10.33,17h3v0.67h-3V17z"/>
	<path class="st1" d="M16.33,19.67h4.33v0.67h-4.33V19.67z"/>
	<path class="st1" d="M10.33,19.67h5.33v0.67h-5.33V19.67z"/>
	<path class="st1" d="M14.93,11.8l0.4,0.27l0.4-0.27c1.2-0.8,1.93-2.17,1.93-3.6V7.1l-2.33-0.77L13,7.1v1.1
		C13,9.63,13.73,11,14.93,11.8z M13.67,7.57L15.33,7L17,7.57V8.2c0,1.23-0.6,2.37-1.63,3.07h-0.03l-0.03-0.03
		c-1.03-0.67-1.63-1.83-1.63-3.07V7.57z"/>
	<path class="st1" d="M16.33,8.37L15.67,8.3c-0.07,0.57-0.37,1.1-0.83,1.43l0.37,0.57C15.83,9.83,16.27,9.13,16.33,8.37z"/>
	<path class="st1" d="M12.33,18.33h8.33V19h-8.33V18.33z"/>
	<path class="st1" d="M10.33,18.33h1.33V19h-1.33V18.33z"/>
	<path class="st1" d="M14,14.33h6.67V15H14V14.33z"/>
	<path class="st1" d="M10.33,14.33h3V15h-3V14.33z"/>
	<path class="st1" d="M13,12.67h4.67v0.67H13V12.67z"/>
</g>
</svg>
