<?xml version="1.0" encoding="utf-8"?>
<!-- Generator: Adobe Illustrator 24.0.2, SVG Export Plug-In . SVG Version: 6.00 Build 0)  -->
<svg version="1.1" id="Layer_1" xmlns="http://www.w3.org/2000/svg" xmlns:xlink="http://www.w3.org/1999/xlink" x="0px" y="0px"
	 viewBox="0 0 30 30" style="enable-background:new 0 0 30 30;" xml:space="preserve">
<style type="text/css">
	.st0{opacity:0;fill:#FFFFFF;}
	.st1{fill:#6D6E71;}
	.st2{fill:#5D6EBE;}
	.st3{fill:#A7D5A8;}
	.st4{fill:#BCBEC0;}
</style>
<path class="st0" d="M1.25,0h27.5C29.44,0,30,0.56,30,1.25v27.5c0,0.69-0.56,1.25-1.25,1.25H1.25C0.56,30,0,29.44,0,28.75V1.25
	C0,0.56,0.56,0,1.25,0z"/>
<g>
	<path class="st4" d="M15,5L15,5c1.1,0,2,0.9,2,2v0c0,1.1-0.9,2-2,2h0c-1.1,0-2-0.9-2-2v0C13,5.9,13.9,5,15,5z"/>
	<path class="st4" d="M15,13L15,13c1.1,0,2,0.9,2,2v0c0,1.1-0.9,2-2,2h0c-1.1,0-2-0.9-2-2v0C13,13.9,13.9,13,15,13z"/>
	<path class="st4" d="M15,21L15,21c1.1,0,2,0.9,2,2v0c0,1.1-0.9,2-2,2h0c-1.1,0-2-0.9-2-2v0C13,21.9,13.9,21,15,21z"/>
</g>
</svg>
