<?xml version="1.0" encoding="utf-8"?>
<!-- Generator: Adobe Illustrator 24.0.2, SVG Export Plug-In . SVG Version: 6.00 Build 0)  -->
<svg version="1.1" id="Layer_1" xmlns="http://www.w3.org/2000/svg" xmlns:xlink="http://www.w3.org/1999/xlink" x="0px" y="0px"
	 viewBox="0 0 30 30" style="enable-background:new 0 0 30 30;" xml:space="preserve">
<style type="text/css">
	.st0{opacity:0;fill:#FFFFFF;}
	.st1{fill:#6D6E71;}
	.st2{fill:#5D6EBE;}
	.st3{fill:#A7D5A8;}
</style>
<path class="st0" d="M1.25,0h27.5C29.44,0,30,0.56,30,1.25v27.5c0,0.69-0.56,1.25-1.25,1.25H1.25C0.56,30,0,29.44,0,28.75V1.25
	C0,0.56,0.56,0,1.25,0z"/>
<g>
	<g>
		<g>
			<path class="st3" d="M15,6c-4.96,0-9,4.04-9,9s4.04,9,9,9s9-4.04,9-9S19.96,6,15,6z M15,22.61c-4.19,0-7.61-3.41-7.61-7.61
				S10.81,7.39,15,7.39c4.19,0,7.61,3.41,7.61,7.61S19.19,22.61,15,22.61z"/>
		</g>
	</g>
	<g>
		<g>
			<path class="st3" d="M19.13,11.87c-0.28-0.26-0.73-0.24-0.98,0.05l-4.25,4.68l-2.05-2.09c-0.27-0.27-0.71-0.28-0.99-0.01
				c-0.27,0.27-0.28,0.71-0.01,0.99l2.57,2.61c0.13,0.13,0.31,0.21,0.5,0.21c0,0,0.01,0,0.01,0c0.19,0,0.37-0.09,0.5-0.23l4.75-5.23
				C19.44,12.57,19.41,12.13,19.13,11.87z"/>
		</g>
	</g>
</g>
</svg>
