<?xml version="1.0" encoding="utf-8"?>
<!-- Generator: Adobe Illustrator 24.0.2, SVG Export Plug-In . SVG Version: 6.00 Build 0)  -->
<svg version="1.1" id="Layer_1" xmlns="http://www.w3.org/2000/svg" xmlns:xlink="http://www.w3.org/1999/xlink" x="0px" y="0px"
	 viewBox="0 0 30 30" style="enable-background:new 0 0 30 30;" xml:space="preserve">
<style type="text/css">
	.st0{opacity:0;fill:#FFFFFF;}
	.st1{fill:#3099f1;}
	.st2{fill:#3099f1;}
	.st3{fill:#3099f1;}
</style>
<path class="st0" d="M1.25,0h27.5C29.44,0,30,0.56,30,1.25v27.5c0,0.69-0.56,1.25-1.25,1.25H1.25C0.56,30,0,29.44,0,28.75V1.25
	C0,0.56,0.56,0,1.25,0z"/>
<g>
	<g>
		<g>
			<path class="st1" d="M24.47,15.95c-0.28,0-0.47,0.19-0.47,0.47v6.16c0,0.28-0.19,0.47-0.47,0.47H6.47C6.19,23.05,6,22.86,6,22.58
				v-6.16c0-0.28-0.19-0.47-0.47-0.47c-0.28,0-0.47,0.19-0.47,0.47v6.16c0,0.81,0.62,1.42,1.42,1.42h17.05
				c0.81,0,1.42-0.62,1.42-1.42v-6.16C24.95,16.14,24.76,15.95,24.47,15.95z"/>
		</g>
	</g>
	<g>
		<g>
			<path class="st1" d="M24,9.32H6c-0.81,0-1.42,0.62-1.42,1.42v3.03c0,0.66,0.47,1.23,1.09,1.37l7.44,1.66v1.52
				c0,0.28,0.19,0.47,0.47,0.47h2.84c0.28,0,0.47-0.19,0.47-0.47V16.8l7.44-1.66c0.62-0.14,1.09-0.71,1.09-1.37v-3.03
				C25.42,9.93,24.81,9.32,24,9.32z M15.95,17.84h-1.89v-1.89h1.89V17.84z M24.47,13.77c0,0.24-0.14,0.43-0.38,0.47l-7.2,1.61v-0.38
				c0-0.28-0.19-0.47-0.47-0.47h-2.84c-0.28,0-0.47,0.19-0.47,0.47v0.38l-7.2-1.61c-0.24-0.05-0.38-0.24-0.38-0.47v-3.03
				c0-0.28,0.19-0.47,0.47-0.47h18c0.28,0,0.47,0.19,0.47,0.47V13.77z"/>
		</g>
	</g>
	<g>
		<g>
			<path class="st1" d="M17.37,6h-4.74c-0.81,0-1.42,0.62-1.42,1.42v0.47c0,0.28,0.19,0.47,0.47,0.47c0.28,0,0.47-0.19,0.47-0.47
				V7.42c0-0.28,0.19-0.47,0.47-0.47h4.74c0.28,0,0.47,0.19,0.47,0.47v0.47c0,0.28,0.19,0.47,0.47,0.47c0.28,0,0.47-0.19,0.47-0.47
				V7.42C18.79,6.62,18.17,6,17.37,6z"/>
		</g>
	</g>
</g>
</svg>
