<?xml version="1.0" encoding="utf-8"?>
<!-- Generator: Adobe Illustrator 24.0.2, SVG Export Plug-In . SVG Version: 6.00 Build 0)  -->
<svg version="1.1" id="Layer_1" xmlns="http://www.w3.org/2000/svg" xmlns:xlink="http://www.w3.org/1999/xlink" x="0px" y="0px"
	 viewBox="0 0 30 30" style="enable-background:new 0 0 30 30;" xml:space="preserve">
<style type="text/css">
	.st0{opacity:0;fill:#FFFFFF;}
	.st1{fill:#6D6E71;}
	.st2{fill:#5D6EBE;}
	.st3{fill:#A7D5A8;}
	.st4{fill:#BCBEC0;}
</style>
<path class="st0" d="M1.25,0h27.5C29.44,0,30,0.56,30,1.25v27.5c0,0.69-0.56,1.25-1.25,1.25H1.25C0.56,30,0,29.44,0,28.75V1.25
	C0,0.56,0.56,0,1.25,0z"/>
<g>
	<g>
		<g>
			<path class="st1" d="M23.02,6.98C22.39,6.35,21.54,6,20.65,6L9.35,6C7.5,6,6,7.5,6,9.35l0,11.3C6,22.5,7.5,24,9.35,24h11.3
				C22.5,24,24,22.5,24,20.65V9.35C24,8.46,23.65,7.61,23.02,6.98z M22.95,20.65c0,1.27-1.03,2.3-2.3,2.3H9.35
				c-1.27,0-2.3-1.03-2.3-2.3l0-11.3c0-1.27,1.03-2.3,2.3-2.3l11.3,0c0.61,0,1.19,0.24,1.62,0.67c0.43,0.43,0.67,1.01,0.67,1.62
				V20.65z"/>
		</g>
	</g>
	<g>
		<g>
			<path class="st1" d="M18.17,13.65c-0.21-0.21-0.54-0.21-0.75,0l-1.9,1.9l0-5.63c0-0.29-0.24-0.53-0.53-0.53s-0.53,0.24-0.53,0.53
				l0,5.63l-1.9-1.9c-0.21-0.21-0.54-0.21-0.75,0c-0.21,0.21-0.21,0.54,0,0.75l2.8,2.8c0.1,0.1,0.23,0.15,0.37,0.15
				c0.14,0,0.27-0.06,0.37-0.15l2.8-2.8C18.37,14.19,18.37,13.85,18.17,13.65z"/>
		</g>
	</g>
	<g>
		<g>
			<path class="st1" d="M20.08,19.56H9.92c-0.29,0-0.53,0.24-0.53,0.53c0,0.29,0.24,0.53,0.53,0.53h10.17
				c0.29,0,0.53-0.24,0.53-0.53C20.61,19.79,20.37,19.56,20.08,19.56z"/>
		</g>
	</g>
</g>
</svg>
