<?xml version="1.0" encoding="utf-8"?>
<!-- Generator: Adobe Illustrator 24.0.2, SVG Export Plug-In . SVG Version: 6.00 Build 0)  -->
<svg version="1.1" id="Layer_1" xmlns="http://www.w3.org/2000/svg" xmlns:xlink="http://www.w3.org/1999/xlink" x="0px" y="0px"
	 viewBox="0 0 30 30" style="enable-background:new 0 0 30 30;" xml:space="preserve">
<style type="text/css">
	.st0{opacity:0;fill:#FFFFFF;}
	.st1{fill:#4155b3;}
	.st2{fill:#4155b3;}
	.st3{fill:#4155b3;}
</style>
<path class="st0" d="M1.25,0h27.5C29.44,0,30,0.56,30,1.25v27.5c0,0.69-0.56,1.25-1.25,1.25H1.25C0.56,30,0,29.44,0,28.75V1.25
	C0,0.56,0.56,0,1.25,0z"/>
<g>
	<g>
		<g>
			<path class="st2" d="M22.45,21.18l-1.29-2.15c-0.59-0.99-0.91-2.12-0.91-3.28v-1.88c0-2.89-2.36-5.25-5.25-5.25
				s-5.25,2.36-5.25,5.25v1.88c0,1.16-0.31,2.29-0.91,3.28l-1.29,2.15c-0.07,0.12-0.07,0.26-0.01,0.38
				c0.07,0.12,0.19,0.19,0.33,0.19h14.25c0.14,0,0.26-0.07,0.33-0.19C22.52,21.44,22.52,21.3,22.45,21.18z M8.54,21l0.95-1.58
				c0.66-1.11,1.02-2.37,1.02-3.67v-1.88c0-2.48,2.02-4.5,4.5-4.5s4.5,2.02,4.5,4.5v1.88c0,1.29,0.35,2.56,1.01,3.67L21.46,21
				L8.54,21L8.54,21z"/>
		</g>
	</g>
	<g>
		<g>
			<path class="st2" d="M15,6c-0.83,0-1.5,0.67-1.5,1.5V9c0,0.21,0.17,0.37,0.38,0.37c0.21,0,0.38-0.17,0.38-0.38V7.5
				c0-0.41,0.34-0.75,0.75-0.75c0.41,0,0.75,0.34,0.75,0.75V9c0,0.21,0.17,0.37,0.38,0.37c0.21,0,0.38-0.17,0.38-0.38V7.5
				C16.5,6.67,15.83,6,15,6z"/>
		</g>
	</g>
	<g>
		<g>
			<path class="st2" d="M16.62,21.19c-0.11-0.18-0.33-0.24-0.51-0.13c-0.18,0.11-0.24,0.34-0.13,0.51c0.1,0.17,0.15,0.36,0.15,0.56
				c0,0.62-0.5,1.12-1.13,1.12c-0.62,0-1.12-0.5-1.12-1.12c0-0.2,0.05-0.39,0.15-0.56c0.1-0.18,0.04-0.41-0.13-0.51
				c-0.18-0.1-0.41-0.04-0.51,0.13c-0.17,0.28-0.25,0.61-0.25,0.94c0,1.03,0.84,1.87,1.88,1.87s1.87-0.84,1.88-1.87
				C16.88,21.79,16.79,21.47,16.62,21.19z"/>
		</g>
	</g>
</g>
</svg>
