<?xml version="1.0" encoding="utf-8"?>
<!-- Generator: Adobe Illustrator 24.0.2, SVG Export Plug-In . SVG Version: 6.00 Build 0)  -->
<svg version="1.1" id="Layer_1" xmlns="http://www.w3.org/2000/svg" xmlns:xlink="http://www.w3.org/1999/xlink" x="0px" y="0px"
	 viewBox="0 0 30 30" style="enable-background:new 0 0 30 30;" xml:space="preserve">
<style type="text/css">
	.st0{opacity:0;fill:#FFFFFF;}
	.st1{fill:#3099f1;}
	.st2{fill:#3099f1;}
	.st3{fill:#3099f1;}
</style>
<path class="st0" d="M1.25,0h27.5C29.44,0,30,0.56,30,1.25v27.5c0,0.69-0.56,1.25-1.25,1.25H1.25C0.56,30,0,29.44,0,28.75V1.25
	C0,0.56,0.56,0,1.25,0z"/>
<g>
	<path class="st1" d="M23.49,24c-0.18,0-0.34-0.11-0.4-0.28c-0.06-0.16-0.01-0.35,0.12-0.46c0.14-0.12,0.34-0.13,0.49-0.04
		c0.14,0.09,0.22,0.26,0.19,0.43C23.87,23.85,23.69,24,23.49,24z"/>
	<path class="st1" d="M15,21.6c-0.23,0-0.42-0.19-0.42-0.42v-3.16c0-0.23,0.19-0.42,0.42-0.42s0.42,0.19,0.42,0.42v3.16
		C15.42,21.41,15.23,21.6,15,21.6z"/>
	<path class="st1" d="M25.35,16.21h-6.06v-1.12c0-0.23-0.19-0.42-0.42-0.42h-7.74c-0.23,0-0.42,0.19-0.42,0.42v2.24H4.65
		c-0.23,0-0.42,0.19-0.42,0.42v5.82c0,0.23,0.19,0.42,0.42,0.42h16.95c0.23,0,0.42-0.19,0.42-0.42s-0.19-0.42-0.42-0.42h-2.3v-6.1
		h5.64v6.52c0,0.23,0.19,0.42,0.42,0.42c0.23,0,0.42-0.19,0.42-0.42v-6.94C25.77,16.4,25.58,16.21,25.35,16.21z M5.07,18.18h5.64
		v4.98H5.07V18.18z M11.55,15.51h6.9v7.65h-6.9V15.51z"/>
	<path class="st1" d="M8.85,15.15c-0.09,0-0.18-0.02-0.27-0.05l-0.69-0.29L7.2,15.1c-0.23,0.09-0.48,0.06-0.68-0.08
		c-0.2-0.14-0.3-0.37-0.29-0.62l0.06-0.74l-0.49-0.57c-0.16-0.19-0.21-0.44-0.13-0.67c0.08-0.23,0.26-0.41,0.5-0.46l0.73-0.17
		l0.39-0.64c0.13-0.21,0.35-0.33,0.59-0.33c0.24,0,0.47,0.12,0.59,0.33l0.39,0.64l0.73,0.17c0.24,0.06,0.42,0.23,0.5,0.46
		c0.08,0.23,0.03,0.48-0.13,0.67l-0.49,0.57l0.06,0.74c0.02,0.24-0.09,0.47-0.29,0.62C9.13,15.1,8.99,15.15,8.85,15.15z M6.6,12.72
		l0.44,0.52c0.07,0.08,0.11,0.2,0.1,0.31L7.1,14.23l0.63-0.26c0.1-0.04,0.22-0.04,0.32,0l0.63,0.26l-0.05-0.68
		c-0.01-0.11,0.03-0.22,0.1-0.31l0.44-0.52l-0.67-0.16c-0.11-0.03-0.2-0.09-0.26-0.19l-0.36-0.58l-0.36,0.58
		c-0.06,0.1-0.15,0.16-0.26,0.19L6.6,12.72z M9.4,12.77L9.4,12.77L9.4,12.77z"/>
	<path class="st1" d="M21.15,15.15c-0.14,0-0.29-0.05-0.41-0.13c-0.2-0.14-0.3-0.37-0.28-0.62l0.06-0.74l-0.49-0.57
		c-0.16-0.19-0.21-0.44-0.13-0.67c0.08-0.23,0.26-0.41,0.5-0.46l0.73-0.17l0.39-0.64c0.13-0.21,0.35-0.33,0.59-0.33
		c0.24,0,0.47,0.12,0.59,0.33v0l0.39,0.64l0.73,0.17c0.24,0.06,0.42,0.23,0.5,0.46c0.08,0.23,0.03,0.48-0.13,0.67l-0.49,0.57
		l0.06,0.74c0.02,0.24-0.09,0.47-0.28,0.62c-0.2,0.14-0.45,0.17-0.68,0.08l-0.69-0.29l-0.69,0.29
		C21.33,15.13,21.24,15.15,21.15,15.15z M22.11,13.93c0.05,0,0.11,0.01,0.16,0.03l0.63,0.26l-0.05-0.68
		c-0.01-0.11,0.03-0.22,0.1-0.31l0.44-0.52l-0.67-0.16c-0.11-0.03-0.2-0.09-0.26-0.19l-0.36-0.58l-0.36,0.58
		c-0.06,0.1-0.15,0.16-0.26,0.19l-0.67,0.16l0.44,0.52c0.07,0.08,0.11,0.2,0.1,0.31l-0.05,0.68l0.63-0.26
		C22,13.94,22.06,13.93,22.11,13.93z"/>
	<path class="st1" d="M13.32,12.97c-0.19,0-0.37-0.06-0.53-0.17c-0.26-0.19-0.39-0.49-0.37-0.8l0.11-1.44L11.6,9.46
		c-0.21-0.24-0.27-0.56-0.17-0.87c0.1-0.3,0.34-0.53,0.65-0.6l1.4-0.34l0.75-1.23C14.39,6.16,14.68,6,15,6
		c0.32,0,0.61,0.16,0.77,0.43l0.75,1.23L17.92,8c0.31,0.07,0.55,0.3,0.65,0.6c0.1,0.3,0.03,0.63-0.17,0.87l-0.94,1.09l0.11,1.44
		c0.02,0.32-0.11,0.62-0.37,0.8c-0.26,0.19-0.58,0.23-0.88,0.1L15,12.35l-1.33,0.55C13.56,12.95,13.44,12.97,13.32,12.97z M15,6.84
		c-0.03,0-0.05,0.02-0.05,0.03L14.1,8.25c-0.06,0.1-0.15,0.16-0.26,0.19l-1.57,0.38c-0.01,0-0.03,0.01-0.04,0.04
		c-0.01,0.03,0.01,0.05,0.01,0.06l1.05,1.23c0.07,0.08,0.11,0.2,0.1,0.31l-0.13,1.61c0,0.01,0,0.03,0.03,0.06
		c0.03,0.02,0.05,0.01,0.06,0.01l1.49-0.62c0.1-0.04,0.22-0.04,0.32,0l1.49,0.62c0.01,0,0.03,0.01,0.06-0.01
		c0.03-0.02,0.03-0.05,0.03-0.06l-0.13-1.61c-0.01-0.11,0.03-0.22,0.1-0.31l1.05-1.23c0.01-0.01,0.02-0.03,0.01-0.06
		c-0.01-0.03-0.04-0.04-0.04-0.04l-1.57-0.38c-0.11-0.03-0.2-0.09-0.26-0.19l-0.84-1.38C15.05,6.86,15.03,6.84,15,6.84z"/>
</g>
</svg>
