<?xml version="1.0" encoding="utf-8"?>
<!-- Generator: Adobe Illustrator 24.0.2, SVG Export Plug-In . SVG Version: 6.00 Build 0)  -->
<svg version="1.1" id="Layer_1" xmlns="http://www.w3.org/2000/svg" xmlns:xlink="http://www.w3.org/1999/xlink" x="0px" y="0px"
	 viewBox="0 0 30 30" style="enable-background:new 0 0 30 30;" xml:space="preserve">
<style type="text/css">
	.st0{opacity:0;fill:#FFFFFF;}
	.st1{fill:#6D6E71;}
	.st2{fill:#5D6EBE;}
	.st3{fill:#A7D5A8;}
	.st4{fill:#BCBEC0;}
</style>
<path class="st0" d="M1.25,0h27.5C29.44,0,30,0.56,30,1.25v27.5c0,0.69-0.56,1.25-1.25,1.25H1.25C0.56,30,0,29.44,0,28.75V1.25
	C0,0.56,0.56,0,1.25,0z"/>
<path class="st1" d="M22.85,11.98l-4.83-4.83c-0.49-0.49-1.16-0.77-1.85-0.77H9C7.55,6.38,6.38,7.55,6.38,9v12
	c0,1.45,1.18,2.62,2.62,2.62h12c1.45,0,2.62-1.18,2.62-2.62v-7.17C23.62,13.13,23.35,12.47,22.85,11.98L22.85,11.98z M17.38,22.38
	h-4.75v-2.75h4.75V22.38z M22.38,21c0,0.76-0.62,1.38-1.38,1.38h-2.38V19c0-0.34-0.28-0.62-0.62-0.62h-6
	c-0.34,0-0.62,0.28-0.62,0.62v3.38H9c-0.76,0-1.38-0.62-1.38-1.38V9c0-0.76,0.62-1.38,1.38-1.38h2.38V13c0,0.34,0.28,0.62,0.62,0.62
	h4c0.34,0,0.62-0.28,0.62-0.62s-0.28-0.62-0.62-0.62h-3.38V7.62h3.54c0.36,0,0.71,0.14,0.97,0.39l4.84,4.84
	c0.26,0.26,0.4,0.61,0.4,0.98V21z"/>
</svg>
