<?xml version="1.0" encoding="UTF-8"?>
<svg width="80px" height="94px" viewBox="0 0 80 94" version="1.1" xmlns="http://www.w3.org/2000/svg" xmlns:xlink="http://www.w3.org/1999/xlink">
    <!-- Generator: Sketch 50.2 (55047) - http://www.bohemiancoding.com/sketch -->
    <title>shield (1)</title>
    <desc>Created with Sketch.</desc>
    <defs></defs>
    <g id="Page-1" stroke="none" stroke-width="1" fill="none" fill-rule="evenodd">
        <g id="Email-confimed" transform="translate(-1145.000000, -968.000000)" fill-rule="nonzero">
            <g id="Group-4" transform="translate(1117.000000, 931.000000)">
                <g id="shield-(1)" transform="translate(28.000000, 37.000000)">
                    <path d="M75.7741807,62.772551 C73.2491384,69.6200278 69.4303971,75.573919 64.4225994,80.4671253 C58.7224399,86.0366168 51.2584059,90.4622327 42.237633,93.6191862 C41.9416232,93.7224577 41.6327123,93.8070831 41.3223679,93.8694762 C40.9123977,93.9505158 40.4952605,93.9942627 40.0817069,94 L40.0007162,94 C39.559927,94 39.1169873,93.9555358 38.6776314,93.8694762 C38.367287,93.8070831 38.0626763,93.7224577 37.7681001,93.6213377 C28.7365762,90.4694042 21.2632248,86.0459399 15.5573312,80.4764485 C10.5473835,75.5832421 6.72935882,69.6329369 4.20790019,62.7854601 C-0.377026462,50.3355022 -0.116136291,36.6204681 0.0938657685,25.5990999 L0.0974493763,25.4298493 C0.139736536,24.5197689 0.166972212,23.5637899 0.182023695,22.5081252 C0.258713746,17.325185 4.37704864,13.0372646 9.55757839,12.7482476 C20.3587105,12.1451132 28.7143575,8.62025471 35.8537123,1.65731464 L35.9160679,1.59994156 C37.1015405,0.51200444 38.5952073,-0.0215651804 40.0817069,0.000666978898 C41.5151684,0.019313275 42.942896,0.552165595 44.0860816,1.59994156 L44.1470037,1.65731464 C51.287792,8.62025471 59.6434388,12.1451132 70.4445711,12.7482476 C75.6251007,13.0372646 79.7434356,17.325185 79.8201258,22.5081252 C79.8351771,23.5709616 79.8624128,24.5255062 79.9047,25.4298493 L79.9068502,25.5015656 C80.1161356,36.5437315 80.3755922,50.286018 75.7741807,62.772551 Z" id="Shape" fill="#00DD80"></path>
                    <path d="M63,47.4996402 C63,60.4292623 52.501921,70.9539589 39.5830898,71 L39.5003598,71 C26.5434007,71 16,60.4573186 16,47.4996402 C16,34.5426812 26.5434007,24 39.5003598,24 L39.5830898,24 C52.501921,24.0460411 63,34.5707375 63,47.4996402 Z" id="Shape" fill="#FFFFFF"></path>
                    <g id="check-mark-(3)" transform="translate(31.000000, 38.000000)" fill="#00DD80">
                        <path d="M6.32798483,19 C5.77361522,19 5.24930793,18.7236838 4.91225324,18.2497662 L0.360104235,11.8448215 C-0.231970664,11.0118014 -0.0778375683,9.82565023 0.704037588,9.19457439 C1.48718657,8.56322713 2.59974728,8.72852828 3.19207694,9.56100552 L6.18608047,13.7730635 L13.7161828,0.89151642 C14.2346305,0.00529594639 15.3293576,-0.26586309 16.1629501,0.285683618 C16.9955236,0.837773187 17.2497795,2.00492419 16.7310771,2.89195896 L7.83568674,18.1083509 C7.52665626,18.6373689 6.99317741,18.9701426 6.40900024,18.9983714 C6.38174034,18.9994571 6.35498997,19 6.32798483,19 Z" id="Shape"></path>
                    </g>
                </g>
            </g>
        </g>
    </g>
</svg>