<?xml version="1.0" encoding="UTF-8"?><svg width="51" height="51" xmlns="http://www.w3.org/2000/svg"><!--Generator: Sketch 52.6 (67491) - http://www.bohemiancoding.com/sketch--><g fill="none" fill-rule="evenodd"><path d="M28 7h7a4 4 0 0 1 4 4v35a4 4 0 0 1-4 4H5a4 4 0 0 1-4-4V10c0-2.2 1.8-3 4-3h23z" fill="#FFF"/><path d="M24.4 5c-.5-1.7-2.2-3-4.3-3h-.2c-2 0-3.8 1.3-4.3 3h-2.7c-1 0-1.9.7-1.9 1.7V10h18V6.7c0-1-.9-1.8-2-1.8h-2.6z" fill="#FFB954"/><path d="M50 18v29.6c0 .8-.7 1.4-1.5 1.4h-4c-.8 0-1.5-.6-1.5-1.4V18h7z" fill="#4DBAF6"/><path d="M43 45v3.5c0 .8.7 1.5 1.5 1.5h4c.8 0 1.5-.7 1.5-1.5V45h-7z" fill="#FFB954"/><path fill="#D8D8E4" d="M46.5 11l3.5 8h-7z"/><g fill="#4DBAF6"><path d="M11.5 21.3c-1.9 0-3.4-1.4-3.4-3.1 0-1.8 1.5-3.2 3.4-3.2 2 0 3.5 1.4 3.5 3.2 0 1.7-1.6 3.1-3.5 3.1zM11.5 33.2c-1.9 0-3.4-1.5-3.4-3.2 0-1.7 1.5-3.2 3.4-3.2 2 0 3.5 1.5 3.5 3.2 0 1.7-1.6 3.2-3.5 3.2zM11.5 45c-1.9 0-3.4-1.4-3.4-3.2 0-1.7 1.5-3.1 3.4-3.1 2 0 3.5 1.4 3.5 3.1 0 1.8-1.6 3.2-3.5 3.2z"/></g><path d="M35 6.4h-5.3V6c0-1.6-1.3-2.9-2.9-2.9H25C24.2 1.3 22.2 0 20.1 0h-.2c-2.1 0-4 1.3-4.9 3.2h-1.8a2.9 2.9 0 0 0-2.9 3v.2H5c-3.1 0-5 1.5-5 4V46a5 5 0 0 0 5 5h30a5 5 0 0 0 5-5V23.5c0-.6-.4-1-1-1a1 1 0 0 0-1 1V46a3 3 0 0 1-3 3H5a3 3 0 0 1-3-3V10.4c0-.5 0-2 3-2h5.3v1.4c0 .5.4 1 1 1h17.4c.6 0 1-.5 1-1V8.4H35a3 3 0 0 1 3 3v3.3a1 1 0 1 0 2 0v-3.3a5 5 0 0 0-5-5zm-7.3 2.4H12.3V6c0-.5.4-.9.9-.9h2.5a1 1 0 0 0 1-.7A3.4 3.4 0 0 1 19.9 2h.2c1.5 0 2.8 1 3.2 2.5.2.4.6.7 1 .7h2.5c.5 0 1 .4 1 1v2.6z" fill="#000" fill-rule="nonzero"/><path d="M39 18a1 1 0 0 0-1 1 1 1 0 0 0 1 1 1 1 0 0 0 1-1 1 1 0 0 0-1-1zM50 32a1 1 0 0 0-1 1 1 1 0 0 0 1 1 1 1 0 0 0 1-1 1 1 0 0 0-1-1z" fill="#000"/><path d="M51 18.7l-3.1-7.1a1 1 0 0 0-.9-.6 1 1 0 0 0-.9.6l-3 7-.1.5v29.5c0 1.3 1 2.4 2.3 2.4h3.4c1.3 0 2.3-1 2.3-2.4V37.5c0-.5-.4-1-1-1a1 1 0 0 0-.9 1v7h-4.2V20h4.2v9.1c0 .5.4 1 1 1 .5 0 .9-.5.9-1V19.1v-.4zm-4-4.3l1.6 3.7h-3.2l1.6-3.7zm2.1 32v2.2c0 .2-.2.4-.4.4h-3.4a.4.4 0 0 1-.4-.4v-2.2h4.2zM12 14a4 4 0 1 0 0 8 4 4 0 0 0 0-8zm0 6.1a2.1 2.1 0 1 1 0-4.2 2.1 2.1 0 0 1 0 4.2zM12 27a4 4 0 1 0 0 8 4 4 0 0 0 0-8zm0 6.1a2.1 2.1 0 1 1 0-4.2 2.1 2.1 0 0 1 0 4.2zM12 39a4 4 0 1 0 0 8 4 4 0 0 0 0-8zm0 6.1a2.1 2.1 0 1 1 0-4.2 2.1 2.1 0 0 1 0 4.2z" fill="#000" fill-rule="nonzero"/><path d="M31 21H20a1 1 0 0 0-1 1c0 .6.4 1 1 1h11c.6 0 1-.4 1-1s-.4-1-1-1zM31 16H20a1 1 0 0 0-1 1c0 .6.4 1 1 1h11c.6 0 1-.4 1-1s-.4-1-1-1zM31 32H20a1 1 0 0 0-1 1c0 .6.4 1 1 1h11c.6 0 1-.4 1-1s-.4-1-1-1zM31 27H20a1 1 0 0 0-1 1c0 .6.4 1 1 1h11c.6 0 1-.4 1-1s-.4-1-1-1zM31 44H20a1 1 0 0 0-1 1c0 .6.4 1 1 1h11c.6 0 1-.4 1-1s-.4-1-1-1zM31 40H20a1 1 0 0 0-1 1c0 .6.4 1 1 1h11c.6 0 1-.4 1-1s-.4-1-1-1z" fill="#000"/></g></svg>