<?xml version="1.0" encoding="UTF-8"?>
<svg width="476px" height="512px" viewBox="0 0 476 512" version="1.1" xmlns="http://www.w3.org/2000/svg" xmlns:xlink="http://www.w3.org/1999/xlink">
    <!-- Generator: Sketch 50.2 (55047) - http://www.bohemiancoding.com/sketch -->
    <title>denied</title>
    <desc>Created with Sketch.</desc>
    <defs></defs>
    <g id="Page-1" stroke="none" stroke-width="1" fill="none" fill-rule="evenodd">
        <g id="edit-experience-copy-4" transform="translate(-781.000000, -748.000000)" fill-rule="nonzero">
            <g id="denied" transform="translate(781.000000, 748.000000)">
                <path d="M208.160156,512 L1.87583282e-12,512 L1.87583282e-12,0 L208.160156,5.68434189e-14 L416.320312,0 L416.320312,512 L208.160156,512 Z M208.160156,463.214844 L208.160156,433.210938 L198.152344,448.207031 L208.160156,463.214844 Z M208.160156,399.425781 L208.160156,369.429688 L198.152344,384.433594 L208.160156,399.425781 Z" id="Combined-Shape" fill-opacity="0.0316179801" fill="#000000"></path>
                <polygon id="Shape" fill="#A2A9AC" points="48 433 208.320312 433 208.320312 463 48 463"></polygon>
                <polygon id="Shape-Copy" fill="#A2A9AC" points="228 242 388.320312 242 388.320312 272 228 272"></polygon>
                <polygon id="Shape" fill="#A2A9AC" points="48 369 208.320312 369 208.320312 399 48 399"></polygon>
                <polygon id="Shape-Copy-2" fill="#A2A9AC" points="228 178 388.320312 178 388.320312 208 228 208"></polygon>
                <path d="M132.925781,123.929688 C142.128906,116.316406 148.007812,104.816406 148.007812,91.964844 C148.007812,69.101562 129.402344,50.5 106.539062,50.5 C83.679688,50.5 65.074219,69.101562 65.074219,91.96875 C65.074219,104.816406 70.953125,116.320312 80.15625,123.929688 C61.007812,133.609375 47.839844,153.464844 47.839844,176.34375 L47.839844,200.574219 L165.242188,200.574219 L165.242188,176.34375 C165.242188,153.460938 152.074219,133.609375 132.925781,123.929688 Z" id="Shape" fill="#000000" opacity="0.251618304"></path>
                <polygon id="Shape" fill="#A2A9AC" points="48 306 208.320312 306 208.320312 336 48 336"></polygon>
                <polygon id="Shape-Copy-3" fill="#A2A9AC" points="228 114 388.320312 114 388.320312 144 228 144"></polygon>
                <polygon id="Shape" fill="#A2A9AC" points="48 242 208.320312 242 208.320312 272 48 272"></polygon>
                <polygon id="Shape-Copy-4" fill="#A2A9AC" points="228 51 388.320312 51 388.320312 81 228 81"></polygon>
                <g id="Group-19" transform="translate(290.000000, 300.000000)">
                    <path d="M92.8125554,183.029449 L92.8125554,183.405278 C41.5523135,183.405278 0,142.346938 0,91.7026387 C4.32676737e-14,41.0554018 41.5523135,0 92.8125554,0 L92.8125554,0.375829341 L92.8749952,0 C144.132264,2.13751247e-14 185.687551,41.0554018 185.687551,91.7026387 C185.687551,142.346938 144.132264,183.405278 92.8749952,183.405278 L92.8125554,183.029449 Z" id="Combined-Shape" fill="#000000"></path>
                    <path d="M92.8631019,107.692247 L92.8631019,107.704699 L61.0573707,139.133013 L44.909205,123.177959 L76.7179101,91.7525814 L44.909205,60.3242674 L61.0573707,44.37215 L92.8631019,75.7975273 L92.8631019,75.8099816 L92.8690482,75.7975273 L124.674779,44.37215 L140.822945,60.3242674 L109.014241,91.7525814 L140.822945,123.177959 L124.674779,139.133013 L92.8690482,107.704699 L92.8631019,107.692247 Z" id="Combined-Shape" fill="#FFF5F5"></path>
                </g>
            </g>
        </g>
    </g>
</svg>