<?xml version="1.0" encoding="UTF-8"?>
<svg width="2342px" height="1132px" viewBox="0 0 2342 1132" version="1.1" xmlns="http://www.w3.org/2000/svg" xmlns:xlink="http://www.w3.org/1999/xlink">
    <!-- Generator: Sketch 50.2 (55047) - http://www.bohemiancoding.com/sketch -->
    <title>Path 3</title>
    <desc>Created with Sketch.</desc>
    <defs>
        <linearGradient x1="98.9184429%" y1="50%" x2="0.878341763%" y2="50%" id="linearGradient-1">
            <stop stop-color="#54BEEF" stop-opacity="0.0942312047" offset="0%"></stop>
            <stop stop-color="#383566" stop-opacity="0.0352128623" offset="100%"></stop>
        </linearGradient>
    </defs>
    <g id="Page-1" stroke="none" stroke-width="1" fill="none" fill-rule="evenodd">
        <path d="M1993.11689,62.3471222 C1909.75237,55.6914862 1851.73569,65.2664835 1819.42757,69.0027582 C1787.11946,72.7390329 1740.35619,82.8037575 1691.31318,104.927007 C1668.25112,115.330278 1620.40194,173.381956 1540.01775,228.897553 C1506.44039,252.087031 1458.23322,287.288379 1366.37263,280.731052 C1305.13224,276.3595 1248.50595,241.813061 1196.49375,177.091735 C1163.65488,132.013002 1114.25332,109.473635 1048.28908,109.473635 C949.342713,109.473635 926.906019,146.545897 902.142844,183.199263 C877.379669,219.85263 877.379669,261.606856 804.492204,338.573289 C731.604739,415.539722 642.585946,446.94094 610.654491,450.625029 C578.723036,454.309119 545.369678,448.460141 521.598734,439.737382 C477.128902,423.419157 207.392077,249.635923 86.3470763,450.625029 C-34.6979244,651.614135 -18.7110604,1015.46488 73.9244318,1090.2758 C166.559924,1165.08672 1676.85534,1131.66833 1947.68343,1043.48697 C2218.51153,955.305622 2346.0232,157.598676 2341.36371,118.719979 C2336.70423,79.8412807 2241.98799,-14.8396516 2164.49037,1.98203536 C2086.99275,18.8037223 2076.4814,69.0027582 1993.11689,62.3471222 Z" id="Path-3" fill="url(#linearGradient-1)"></path>
    </g>
</svg>