<?xml version="1.0" encoding="UTF-8"?>
<svg width="991px" height="669px" viewBox="0 0 991 669" version="1.1" xmlns="http://www.w3.org/2000/svg" xmlns:xlink="http://www.w3.org/1999/xlink">
    <!-- Generator: Sketch 50.2 (55047) - http://www.bohemiancoding.com/sketch -->
    <title>Group 5</title>
    <desc>Created with Sketch.</desc>
    <defs>
        <path d="M69.6066667,5.13833333 C69.6066667,7.82333333 54.025,10 34.8033333,10 C15.5816667,10 0,7.82333333 0,5.13833333 C0,2.45333333 15.5816667,0.276666667 34.8033333,0.276666667 L69.6066667,5.13833333 Z" id="path-1"></path>
    </defs>
    <g id="Page-1" stroke="none" stroke-width="1" fill="none" fill-rule="evenodd">
        <g id="Desktop-HD-Copy" transform="translate(-294.000000, -41.000000)">
            <g id="bg" transform="translate(-309.000000, -131.000000)">
                <g id="Group-5" transform="translate(603.000000, 171.000000)">
                    <g id="undraw_designer_life_w96d-(1)" fill="#5B13BF" fill-rule="nonzero" opacity="0.1">
                        <ellipse id="Oval" cx="801.58" cy="665.83" rx="34.58" ry="3.83"></ellipse>
                        <path d="M2.08,307.39 L94.01,307.39 L94.01,432.72 L8.8,432.72 C8.58,434.01 8.36,435.3 8.12,436.59 L94.01,436.59 L94.01,537.64 C93.8661963,537.597243 93.7258024,537.54376 93.59,537.48 C91.15,536.48 88.74,535.48 86.36,534.43 L84.81,533.72 C82.37,532.58 79.96,531.37 77.58,530.09 C76.74,529.65 75.9,529.19 75.07,528.72 C61.6483607,521.227905 49.4508247,511.728193 38.9,500.55 C38.59,500.25 38.3,499.93 38.01,499.63 C36.55,498.04 35.1,496.42 33.71,494.78 L32.16,492.93 C30.51,490.93 28.92,488.84 27.38,486.74 C27.15,486.43 26.93,486.11 26.7,485.81 C20.3897411,477.082601 15.1584077,467.623893 11.12,457.64 C10.99,457.34 10.87,457.02 10.76,456.72 C9.5,453.546667 8.37666667,450.323333 7.39,447.05 C6.98,445.68 6.57,444.3 6.23,442.91 C6.1,442.5 6,442.08 5.89,441.68 C0.79,421.61 0.21,400.75 0.21,380 C0.21,377.58 0.21,375.163333 0.21,372.75 C0.21,364.356667 0.29,355.94 0.45,347.5 C0.5,345.32 0.54,343.14 0.59,340.95 C0.72,335.39 0.89,329.82 1.13,324.26 C1.19,322.72 1.26,321.17 1.34,319.64 C1.34,318.75 1.42,317.86 1.48,316.98 C1.67,313.78 1.86,310.59 2.08,307.39 Z" id="Shape"></path>
                        <path d="M94.01,167.86 L43.58,167.86 C51.7789485,155.026023 60.7382834,142.693997 70.41,130.93 C77.9,121.73 85.78,112.75 94.01,104.12 L94.01,167.86 Z" id="Shape"></path>
                        <path d="M94.01,171.73 L94.01,303.52 L2.33,303.52 C2.33,303.14 2.39,302.74 2.43,302.36 C2.51,301.36 2.59,300.29 2.68,299.25 C2.77,298.04 2.89,296.82 3,295.59 C3.11,294.36 3.24,292.95 3.38,291.64 C3.52,290.33 3.65,289 3.8,287.64 C3.95,286.28 4.09,285.01 4.25,283.71 C4.41,282.41 4.56,281.08 4.73,279.78 C4.87,278.69 5.01,277.61 5.16,276.52 C5.36666667,274.986667 5.58666667,273.456667 5.82,271.93 C5.82,271.7 5.89,271.47 5.92,271.25 C7.57256353,260.109809 9.82584793,249.067046 12.67,238.17 C15.6436147,226.732917 19.4436019,215.526798 24.04,204.64 C28.9183901,193.249411 34.634036,182.23593 41.14,171.69 L94.01,171.73 Z" id="Shape"></path>
                        <path d="M115.97,307.39 L115.97,432.72 L312.33,432.72 L312.33,307.39 L115.97,307.39 Z M115.97,436.59 L115.97,544.27 C117.09,544.5 118.2,544.73 119.31,544.92 C120.81,545.21 122.31,545.47 123.82,545.7 C124.11,545.7 124.41,545.79 124.71,545.82 C125.31,545.92 125.92,546 126.52,546.08 C128.03,546.29 129.52,546.46 131.07,546.6 L133.23,546.79 L134.98,546.92 C135.93,546.99 136.87,547.05 137.81,547.08 C138.39,547.08 138.97,547.08 139.56,547.15 L140.94,547.15 L142.65,547.15 C143.43,547.15 144.21,547.15 144.98,547.15 L145.98,547.15 C146.76,547.15 147.54,547.15 148.31,547.08 C148.31,547.08 148.31,547.08 148.31,547.08 C148.31,547.08 148.31,547.08 148.31,547.08 C148.85,547.08 149.39,547.08 149.93,547.01 C150.083172,547.019945 150.236828,547.019945 150.39,547.01 C150.84,547.01 151.29,547.01 151.73,546.95 L152.04,546.95 L155.04,546.71 C156.04,546.62 157.04,546.51 158.04,546.4 L160.1,546.15 C168.504131,544.973967 176.814779,543.206242 184.97,540.86 C203.29,535.75 221.17,528.6 239.52,523.37 C263.33,516.56 289.49,513.27 312.33,521.46 L312.33,436.59 L115.97,436.59 Z M312.33,167.86 L312.33,1.01 C290.831432,0.773580143 269.390878,3.28730026 248.53,8.49 C198.8,20.98 154.15,48.08 115.95,82.69 L115.95,167.86 L125.8,167.86 L125.8,171.73 L115.95,171.73 L115.95,303.52 L312.33,303.52 L312.33,171.73 L166.33,171.73 L166.33,167.86 L312.33,167.86 Z M564.62,111.5 C552.32,111.06 540.09,107.17 529.02,101.15 C507.87,89.65 490.94,71.88 472.09,56.89 C432.88,25.66 384.22,6.81 334.33,2.14 L334.33,167.86 L614.64,167.86 L615.33,167.12 L564.62,111.5 Z M590.16,106.93 L617.24,136.65 L617.24,99.15 C608.15,100.27 600.21,102.97 590.18,106.93 L590.16,106.93 Z M617.24,570.93 L617.24,436.59 L559.52,436.59 C559.37,436.02 559.21,435.44 559.03,434.86 C559.2,435.44 559.35,436.02 559.51,436.59 L334.33,436.59 L334.33,533.75 C336.47,535.34 338.58,537.01 340.67,538.7 C342.93,540.54 345.16,542.42 347.4,544.3 L349.65,546.16 C350.73,547.06 351.82,547.94 352.91,548.83 C355.09,550.59 357.286667,552.33 359.5,554.05 C360.6,554.92 361.72,555.77 362.83,556.62 C380.52478,570.143101 399.188249,582.349224 418.67,593.14 C423.036667,595.566667 427.443333,597.923333 431.89,600.21 C434.85,601.73 437.826667,603.223333 440.82,604.69 C445.313333,606.883333 449.84,609.006667 454.4,611.06 C496.50617,629.959225 541.030501,642.926137 586.7,649.59 C596.84,651.083333 607.02,652.26 617.24,653.12 L617.24,570.93 L618.14,570.93 L617.24,570.93 Z M334.33,171.73 L334.33,303.52 L617.26,303.52 L617.26,171.73 L334.33,171.73 Z M334.33,307.39 L334.33,432.72 L617.26,432.72 L617.26,307.39 L334.33,307.39 Z M639.22,98.97 L639.22,140.89 L673.78,102.96 C662.333333,101.093333 650.813333,99.7633333 639.22,98.97 Z M639.22,307.39 L639.22,432.72 L914.41,432.72 L914.41,307.39 L639.22,307.39 Z M913.44,580.89 L914.44,436.59 L639.22,436.59 L639.22,654.59 C656.945296,655.33193 674.697693,655.118287 692.4,653.95 L692.71,653.95 C701.15,653.41 709.566667,652.636667 717.96,651.63 L718.15,651.63 C762.841067,646.430022 806.540288,634.768363 847.88,617.01 L913.44,580.89 Z M967.49,328.07 C966.45,325.63 965.38,323.21 964.28,320.81 C962.28,316.32 960.07,311.88 957.84,307.48 L936.37,307.48 L936.37,432.72 L990.65,432.72 C990.61,397.27 981.63,360.98 967.5,327.98 L967.49,328.07 Z M936.37,436.68 L936.37,560.72 C951.66,546.07 964.58,529.3 973.88,510.13 C985.07,487.04 990.17,462.05 990.61,436.59 L936.37,436.68 Z M936.37,270.96 L936.37,303.61 L955.83,303.61 C949.938891,292.355539 943.446163,281.426391 936.38,270.87 L936.37,270.96 Z M749.75,123.56 C748.32,123.01 746.88,122.46 745.44,121.93 C730.251494,116.305429 714.728269,111.629759 698.96,107.93 L646.07,165.93 L645.07,167.04 L645.75,167.78 L833.95,167.78 C807.729563,149.764172 779.465632,134.920573 749.75,123.56 Z M839.49,171.73 L643.08,171.73 L639.22,175.27 L639.22,303.52 L673.05,303.52 L914.39,303.52 L914.39,241.37 C892.573481,214.983654 867.392313,191.570883 839.49,171.73 Z" id="Shape"></path>
                        <path d="M94.01,238.21 L94.01,303.52 L2.33,303.52 C2.33,303.14 2.39,302.74 2.43,302.36 C2.51,301.36 2.59,300.29 2.68,299.25 C2.77,298.04 2.89,296.82 3,295.59 C3.11,294.36 3.24,292.95 3.38,291.64 C3.52,290.33 3.65,289 3.8,287.64 C3.95,286.28 4.09,285.01 4.25,283.71 C4.41,282.41 4.56,281.08 4.73,279.78 C4.87,278.69 5.01,277.61 5.16,276.52 C5.36666667,274.986667 5.58666667,273.456667 5.82,271.93 C5.82,271.7 5.89,271.47 5.92,271.25 C7.57256353,260.109809 9.82584793,249.067046 12.67,238.17 L94.01,238.21 Z" id="Shape"></path>
                        <polygon id="Shape" points="185.1 190.6 185.1 303.52 115.97 303.52 115.97 190.6 125.82 190.6 125.82 152.37 166.29 152.37 166.29 190.6"></polygon>
                        <rect id="Rectangle-path" x="115.98" y="307.39" width="69.13" height="125.33"></rect>
                        <path d="M115.97,436.59 L185.1,436.59 L185.1,540.8 C176.945997,543.148734 168.634933,544.913206 160.23,546.08 C159.54,546.18 158.86,546.26 158.17,546.34 C157.17,546.45 156.17,546.56 155.17,546.65 L152.17,546.89 L151.85,546.89 C151.42,546.89 150.97,546.94 150.52,546.95 C150.366828,546.959945 150.213172,546.959945 150.06,546.95 C149.51,546.95 148.97,547.01 148.43,547.02 C148.43,547.02 148.43,547.02 148.43,547.02 C147.66,547.02 146.89,547.07 146.1,547.09 L145.1,547.09 C144.33,547.09 143.56,547.09 142.77,547.09 L141.07,547.09 C140.6,547.09 140.14,547.09 139.68,547.09 C139.22,547.09 138.52,547.09 137.93,547.02 C136.99,547.02 136.05,546.93 135.1,546.86 L133.36,546.73 L131.19,546.54 C129.67,546.4 128.19,546.22 126.64,546.02 C126.05,545.94 125.43,545.86 124.83,545.76 C124.53,545.76 124.23,545.68 123.95,545.64 C122.44,545.41 120.95,545.15 119.44,544.86 C118.32,544.67 117.21,544.44 116.09,544.21 L115.97,436.59 Z" id="Shape"></path>
                        <rect id="Rectangle-path" x="560.26" y="177.27" width="57.01" height="126.25"></rect>
                        <polygon id="Shape" points="617.27 307.39 617.27 432.72 334.32 432.72 334.32 378.67 485.03 378.67 485.03 410.55 560.26 410.55 560.26 307.39"></polygon>
                        <path d="M618.17,570.97 L617.27,570.97 L617.27,653.18 C607.05,652.32 596.87,651.143333 586.73,649.65 C541.047123,642.976055 496.511999,629.992113 454.4,611.07 C442.24,605.59 430.33,599.616667 418.67,593.15 C399.189659,582.356885 380.526357,570.150872 362.83,556.63 C358.383333,553.223333 353.993333,549.74 349.66,546.18 C346.66,543.7 343.66,541.18 340.66,538.7 C338.58,537.01 336.47,535.34 334.32,533.7 L334.32,436.59 L559.51,436.59 C559.35,436.02 559.2,435.44 559.04,434.86 C559.21,435.44 559.37,436.02 559.52,436.59 L617.27,436.59 L617.27,570.91 L618.17,570.97 Z" id="Shape"></path>
                        <path d="M765.93,167.86 L728.8,167.86 L728.8,156.27 L745.44,156.27 L745.44,121.93 C746.88,122.46 748.32,123.01 749.75,123.56 L749.75,156.27 L765.93,156.27 L765.93,167.86 Z" id="Shape"></path>
                        <polygon id="Shape" points="855.44 303.52 673.07 303.52 673.13 303.52 673.05 303.52 639.22 303.52 639.22 177.27 648.81 177.27 648.81 270.59 692.61 270.59 692.61 215.36 728.8 215.36 728.8 171.73 765.93 171.73 765.93 215.36 802.11 215.36 802.11 270.59 855.44 270.59"></polygon>
                        <path d="M639.22,307.39 L639.22,432.72 L855.44,432.72 L855.44,307.39 L639.22,307.39 Z M914.11,580.27 L914.41,481.07 L855.41,481.07 L855.41,436.59 L639.22,436.59 L639.22,654.59 C656.945296,655.33193 674.697693,655.118287 692.4,653.95 L692.71,653.95 C701.15,653.41 709.566667,652.636667 717.96,651.63 L718.15,651.63 C762.841067,646.430022 806.540288,634.768363 847.88,617.01 L914.11,580.27 Z" id="Shape"></path>
                        <path d="M940.19,436.59 L990.63,436.59 C990.19,462.05 985.08,487.04 973.89,510.13 C964.6,529.3 951.67,546.07 936.39,560.72 L936.39,481.02 L940.19,481.02 L940.19,436.59 Z" id="Shape"></path>
                        <path d="M990.66,432.72 L940.19,432.72 L940.19,327.98 L967.5,327.98 C981.63,360.98 990.61,397.27 990.66,432.72 Z" id="Shape"></path>
                        <rect id="Rectangle-path" x="586.73" y="212.36" width="30.54" height="39.58"></rect>
                        <rect id="Rectangle-path" x="586.73" y="294.41" width="30.54" height="9.11"></rect>
                        <rect id="Rectangle-path" x="586.73" y="307.39" width="30.54" height="26.59"></rect>
                        <rect id="Rectangle-path" x="586.73" y="376.45" width="30.54" height="39.58"></rect>
                        <rect id="Rectangle-path" x="586.73" y="458.5" width="30.54" height="39.58"></rect>
                        <polygon id="Shape" points="617.27 570.91 618.17 570.97 617.27 570.97 617.27 580.16 586.73 580.16 586.73 540.54 617.27 540.54"></polygon>
                        <path d="M617.27,622.57 L617.27,653.14 C607.05,652.28 596.87,651.103333 586.73,649.61 L586.73,622.61 L617.27,622.57 Z" id="Shape"></path>
                        <rect id="Rectangle-path" x="334.32" y="429.81" width="130.88" height="2.91"></rect>
                        <rect id="Rectangle-path" x="334.32" y="436.59" width="130.88" height="11.14"></rect>
                        <rect id="Rectangle-path" x="334.32" y="484.26" width="130.88" height="17.92"></rect>
                        <path d="M465.2,538.71 L465.2,556.63 L362.83,556.63 C358.383333,553.23 353.993333,549.743333 349.66,546.17 C346.66,543.7 343.66,541.17 340.66,538.71 L465.2,538.71 Z" id="Shape"></path>
                        <path d="M465.2,593.15 L465.2,611.08 L454.4,611.08 C442.24,605.6 430.33,599.623333 418.67,593.15 L465.2,593.15 Z" id="Shape"></path>
                        <rect id="Rectangle-path" x="692.41" y="319.54" width="25.76" height="25.76"></rect>
                        <rect id="Rectangle-path" x="134.54" y="199.49" width="25.76" height="25.76"></rect>
                        <rect id="Rectangle-path" x="134.54" y="259.33" width="25.76" height="25.76"></rect>
                        <rect id="Rectangle-path" x="134.54" y="319.18" width="25.76" height="25.76"></rect>
                        <rect id="Rectangle-path" x="134.54" y="379.03" width="25.76" height="25.76"></rect>
                        <rect id="Rectangle-path" x="134.54" y="438.88" width="25.76" height="25.76"></rect>
                        <rect id="Rectangle-path" x="134.54" y="498.73" width="25.76" height="25.76"></rect>
                        <rect id="Rectangle-path" x="790.77" y="319.54" width="25.76" height="25.76"></rect>
                        <rect id="Rectangle-path" x="692.41" y="383.09" width="25.76" height="25.76"></rect>
                        <rect id="Rectangle-path" x="790.77" y="383.09" width="25.76" height="25.76"></rect>
                        <rect id="Rectangle-path" x="692.41" y="446.64" width="25.76" height="25.76"></rect>
                        <rect id="Rectangle-path" x="790.77" y="446.64" width="25.76" height="25.76"></rect>
                        <rect id="Rectangle-path" x="692.41" y="510.19" width="25.76" height="25.76"></rect>
                        <rect id="Rectangle-path" x="790.77" y="510.19" width="25.76" height="25.76"></rect>
                        <rect id="Rectangle-path" x="692.41" y="573.74" width="25.76" height="25.76"></rect>
                        <rect id="Rectangle-path" x="790.77" y="573.74" width="25.76" height="25.76"></rect>
                        <polygon id="Shape" points="692.41 653.9 692.41 637.29 718.17 637.29 718.17 651.54"></polygon>
                        <path d="M5.84,271.27 L5.84,286.01 L94.01,286.01 L94.01,271.27 L5.84,271.27 Z M14.62,285.09 L7.39,285.09 L7.39,272.27 L14.62,272.27 L14.62,285.09 Z M23.4,285.09 L16.17,285.09 L16.17,272.27 L23.4,272.27 L23.4,285.09 Z M32.16,285.09 L24.93,285.09 L24.93,272.27 L32.16,272.27 L32.16,285.09 Z M40.94,285.09 L33.71,285.09 L33.71,272.27 L40.94,272.27 L40.94,285.09 Z M49.71,285.09 L42.48,285.09 L42.48,272.27 L49.71,272.27 L49.71,285.09 Z M58.49,285.09 L51.26,285.09 L51.26,272.27 L58.49,272.27 L58.49,285.09 Z M67.27,285.09 L60.04,285.09 L60.04,272.27 L67.27,272.27 L67.27,285.09 Z M76.04,285.09 L68.81,285.09 L68.81,272.27 L76.04,272.27 L76.04,285.09 Z M84.81,285.09 L77.58,285.09 L77.58,272.27 L84.81,272.27 L84.81,285.09 Z M93.58,285.09 L86.33,285.09 L86.33,272.27 L93.56,272.27 L93.58,285.09 Z" id="Shape"></path>
                        <path d="M5.84,314.2 L5.84,328.94 L94.01,328.94 L94.01,314.2 L5.84,314.2 Z M14.62,328.01 L7.39,328.01 L7.39,315.13 L14.62,315.13 L14.62,328.01 Z M23.4,328.01 L16.17,328.01 L16.17,315.13 L23.4,315.13 L23.4,328.01 Z M32.16,328.01 L24.93,328.01 L24.93,315.13 L32.16,315.13 L32.16,328.01 Z M40.94,328.01 L33.71,328.01 L33.71,315.13 L40.94,315.13 L40.94,328.01 Z M49.71,328.01 L42.48,328.01 L42.48,315.13 L49.71,315.13 L49.71,328.01 Z M58.49,328.01 L51.26,328.01 L51.26,315.13 L58.49,315.13 L58.49,328.01 Z M67.27,328.01 L60.04,328.01 L60.04,315.13 L67.27,315.13 L67.27,328.01 Z M76.04,328.01 L68.81,328.01 L68.81,315.13 L76.04,315.13 L76.04,328.01 Z M84.81,328.01 L77.58,328.01 L77.58,315.13 L84.81,315.13 L84.81,328.01 Z M93.58,328.01 L86.33,328.01 L86.33,315.13 L93.56,315.13 L93.58,328.01 Z" id="Shape"></path>
                        <path d="M5.84,357.11 L5.84,371.84 L94.01,371.84 L94.01,357.11 L5.84,357.11 Z M14.62,370.91 L7.39,370.91 L7.39,358.03 L14.62,358.03 L14.62,370.91 Z M23.4,370.91 L16.17,370.91 L16.17,358.03 L23.4,358.03 L23.4,370.91 Z M32.16,370.91 L24.93,370.91 L24.93,358.03 L32.16,358.03 L32.16,370.91 Z M40.94,370.91 L33.71,370.91 L33.71,358.03 L40.94,358.03 L40.94,370.91 Z M49.71,370.91 L42.48,370.91 L42.48,358.03 L49.71,358.03 L49.71,370.91 Z M58.49,370.91 L51.26,370.91 L51.26,358.03 L58.49,358.03 L58.49,370.91 Z M67.27,370.91 L60.04,370.91 L60.04,358.03 L67.27,358.03 L67.27,370.91 Z M76.04,370.91 L68.81,370.91 L68.81,358.03 L76.04,358.03 L76.04,370.91 Z M84.81,370.91 L77.58,370.91 L77.58,358.03 L84.81,358.03 L84.81,370.91 Z M93.58,370.91 L86.33,370.91 L86.33,358.03 L93.56,358.03 L93.58,370.91 Z" id="Shape"></path>
                        <path d="M5.84,400.01 L5.84,414.74 L94.01,414.74 L94.01,400.01 L5.84,400.01 Z M14.62,413.82 L7.39,413.82 L7.39,400.93 L14.62,400.93 L14.62,413.82 Z M23.4,413.82 L16.17,413.82 L16.17,400.93 L23.4,400.93 L23.4,413.82 Z M32.16,413.82 L24.93,413.82 L24.93,400.93 L32.16,400.93 L32.16,413.82 Z M40.94,413.82 L33.71,413.82 L33.71,400.93 L40.94,400.93 L40.94,413.82 Z M49.71,413.82 L42.48,413.82 L42.48,400.93 L49.71,400.93 L49.71,413.82 Z M58.49,413.82 L51.26,413.82 L51.26,400.93 L58.49,400.93 L58.49,413.82 Z M67.27,413.82 L60.04,413.82 L60.04,400.93 L67.27,400.93 L67.27,413.82 Z M76.04,413.82 L68.81,413.82 L68.81,400.93 L76.04,400.93 L76.04,413.82 Z M84.81,413.82 L77.58,413.82 L77.58,400.93 L84.81,400.93 L84.81,413.82 Z M93.58,413.82 L86.33,413.82 L86.33,400.93 L93.56,400.93 L93.58,413.82 Z" id="Shape"></path>
                        <path d="M6.22,442.91 C6.57,444.3 6.97,445.68 7.39,447.05 L7.39,443.84 L14.62,443.84 L14.62,456.72 L10.76,456.72 C10.87,457.02 10.99,457.34 11.11,457.64 L94.01,457.64 L94.01,442.91 L6.22,442.91 Z M23.4,456.72 L16.17,456.72 L16.17,443.84 L23.4,443.84 L23.4,456.72 Z M32.16,456.72 L24.93,456.72 L24.93,443.84 L32.16,443.84 L32.16,456.72 Z M40.94,456.72 L33.71,456.72 L33.71,443.84 L40.94,443.84 L40.94,456.72 Z M49.71,456.72 L42.48,456.72 L42.48,443.84 L49.71,443.84 L49.71,456.72 Z M58.49,456.72 L51.26,456.72 L51.26,443.84 L58.49,443.84 L58.49,456.72 Z M67.27,456.72 L60.04,456.72 L60.04,443.84 L67.27,443.84 L67.27,456.72 Z M76.04,456.72 L68.81,456.72 L68.81,443.84 L76.04,443.84 L76.04,456.72 Z M84.81,456.72 L77.58,456.72 L77.58,443.84 L84.81,443.84 L84.81,456.72 Z M93.58,456.72 L86.33,456.72 L86.33,443.84 L93.56,443.84 L93.58,456.72 Z" id="Shape"></path>
                        <path d="M26.69,485.82 C26.92,486.11 27.14,486.43 27.37,486.74 L32.16,486.74 L32.16,492.93 L33.71,494.78 L33.71,486.78 L40.94,486.78 L40.94,499.67 L38.01,499.67 C38.3,499.97 38.58,500.29 38.9,500.59 L94.01,500.59 L94.01,485.82 L26.69,485.82 Z M49.69,499.63 L42.46,499.63 L42.46,486.74 L49.69,486.74 L49.69,499.63 Z M58.47,499.63 L51.24,499.63 L51.24,486.74 L58.47,486.74 L58.47,499.63 Z M67.25,499.63 L60.02,499.63 L60.02,486.74 L67.25,486.74 L67.25,499.63 Z M76.02,499.63 L68.79,499.63 L68.79,486.74 L76.02,486.74 L76.02,499.63 Z M84.79,499.63 L77.56,499.63 L77.56,486.74 L84.79,486.74 L84.79,499.63 Z M93.56,499.63 L86.33,499.63 L86.33,486.74 L93.56,486.74 L93.56,499.63 Z" id="Shape"></path>
                        <path d="M75.06,528.72 C75.89,529.19 76.73,529.65 77.58,530.09 L77.58,529.64 L84.81,529.64 L84.81,533.72 L86.35,534.43 L86.35,529.64 L93.58,529.64 L93.58,537.48 C93.7192671,537.543682 93.8629791,537.597156 94.01,537.64 L94.01,528.72 L75.06,528.72 Z" id="Shape"></path>
                        <path d="M617.26,570.91 L618.16,570.91 L617.26,570.91 Z M559.03,434.91 C559.2,435.49 559.35,436.07 559.51,436.64 C559.33,436.02 559.21,435.44 559.03,434.86 L559.03,434.91 Z M125.82,167.86 L125.82,171.73 L166.33,171.73 L166.33,167.86 L125.82,167.86 Z M617.26,570.86 L618.16,570.86 L617.26,570.86 Z M559.03,434.86 C559.2,435.44 559.35,436.02 559.51,436.59 C559.33,436.02 559.21,435.44 559.03,434.86 Z M617.26,570.91 L618.16,570.91 L617.26,570.91 Z M559.03,434.91 C559.2,435.49 559.35,436.07 559.51,436.64 C559.33,436.02 559.21,435.44 559.03,434.86 L559.03,434.91 Z" id="Shape"></path>
                    </g>
                    <g id="undraw_co-working_825n" transform="translate(154.000000, 28.000000)" fill-rule="nonzero">
                        <rect id="Rectangle-path" fill="#5B13BF" opacity="0.1" x="0.62" y="58.32" width="191.95" height="5.11"></rect>
                        <rect id="Rectangle-path" fill="#5B13BF" opacity="0.1" x="0.62" y="83.31" width="191.95" height="5.11"></rect>
                        <rect id="Rectangle-path" fill="#34315D" x="324.43" y="389.63" width="19.61" height="219.14"></rect>
                        <path d="M128.5,419.46 L128.5,217.32 C128.500032,205.603448 119.01652,196.097568 107.3,196.07 C95.5639491,196.07 86.05,205.583949 86.05,217.32 L86.05,461.96 C86.0367188,467.604509 88.2696871,473.022383 92.2562756,477.018352 C96.242864,481.014321 101.655476,483.260016 107.3,483.26 L238.9,483.26 C250.636051,483.26 260.15,473.746051 260.15,462.01 C260.15,450.273949 250.636051,440.76 238.9,440.76 L149.76,440.76 C144.113743,440.762673 138.698559,438.51815 134.709807,434.521893 C130.721054,430.525635 128.486714,425.106242 128.5,419.46 Z" id="Shape" fill="#AEBEE1"></path>
                        <path d="M128.5,419.46 L128.5,217.32 C128.500032,205.603448 119.01652,196.097568 107.3,196.07 C95.5639491,196.07 86.05,205.583949 86.05,217.32 L86.05,461.96 C86.0367188,467.604509 88.2696871,473.022383 92.2562756,477.018352 C96.242864,481.014321 101.655476,483.260016 107.3,483.26 L238.9,483.26 C250.636051,483.26 260.15,473.746051 260.15,462.01 C260.15,450.273949 250.636051,440.76 238.9,440.76 L149.76,440.76 C144.113743,440.762673 138.698559,438.51815 134.709807,434.521893 C130.721054,430.525635 128.486714,425.106242 128.5,419.46 Z" id="Shape" fill="#3A3768"></path>
                        <rect id="Rectangle-path" fill="#34315D" x="712.4" y="389.63" width="19.61" height="224.25"></rect>
                        <rect id="Rectangle-path" fill="#000000" opacity="0.1" x="324.43" y="389.63" width="19.61" height="16.2"></rect>
                        <path d="M394.47,256.18 C394.156667,259.633333 393.76,263.133333 393.28,266.68 L390.51,266.68 L390.51,256.18 L394.47,256.18 Z" id="Shape" fill="#000000" opacity="0.1"></path>
                        <path d="M474.82,365.26 C474.88,368.81 472.32,371.72 469.15,371.72 L409.3,371.72 L409.3,365.48 L459.1,365.48 C461.25,365.48 462.59,362.88 461.51,360.8 L416.35,268.95 C415.698704,267.600594 414.34787,266.728341 412.85,266.69 L390.51,266.69 L390.51,256.19 L418.72,256.19 C419.768062,256.216461 420.713533,256.826193 421.17,257.77 L472.94,357.77 C474.132939,360.089392 474.776201,362.652173 474.82,365.26 Z" id="Shape" fill="#3A3768"></path>
                        <path d="M364.9,348.6 L364.08,349.98 L356.41,344.86 L380.14,162.39 L386.25,162.39 C386.25,162.39 386.5,163.23 386.91,164.83 C391,180.6 411.09,269.91 364.9,348.6 Z" id="Shape" fill="#3A3768"></path>
                        <path d="M386.9,164.83 L364.9,348.6 L364.08,349.98 L356.41,344.86 L380.14,162.39 L386.25,162.39 C386.25,162.39 386.49,163.26 386.9,164.83 Z" id="Shape" fill="#000000" opacity="0.1"></path>
                        <rect id="Rectangle-path" fill="#37346B" transform="translate(367.924221, 255.337542) rotate(-83.170000) translate(-367.924221, -255.337542) " x="273.279221" y="248.087542" width="189.29" height="14.5"></rect>
                        <path d="M300.13,365.33 C300.124538,366.272135 299.362135,367.034538 298.42,367.04 L295.86,367.04 C294.915593,367.04 294.15,366.274407 294.15,365.33 C294.141939,365.263577 294.141939,365.196423 294.15,365.13 C294.25567,364.275997 294.979492,363.633552 295.84,363.63 L298.4,363.63 C299.181468,363.638159 299.859209,364.172136 300.05,364.93 C300.093839,365.059316 300.12073,365.19377 300.13,365.33 Z" id="Shape" fill="#E3EDF9"></path>
                        <path d="M307.8,365.33 C307.794538,366.272135 307.032135,367.034538 306.09,367.04 L303.53,367.04 C302.585593,367.04 301.82,366.274407 301.82,365.33 C301.820947,365.170808 301.844516,365.012559 301.89,364.86 C301.96559,364.582641 302.114064,364.33058 302.32,364.13 C302.636049,363.808095 303.068886,363.627747 303.52,363.63 L306.08,363.63 C306.754074,363.626888 307.367834,364.017818 307.65,364.63 C307.747428,364.850593 307.798484,365.088854 307.8,365.33 Z" id="Shape" fill="#E3EDF9"></path>
                        <path d="M314.62,365.33 C314.614538,366.272135 313.852135,367.034538 312.91,367.04 L310.35,367.04 C309.405593,367.04 308.64,366.274407 308.64,365.33 C308.635668,365.085036 308.686954,364.842279 308.79,364.62 C309.072939,364.017699 309.67462,363.629517 310.34,363.62 L312.9,363.62 C313.354337,363.617319 313.790841,363.796619 314.112111,364.117889 C314.433381,364.439159 314.612681,364.875663 314.61,365.33 L314.62,365.33 Z" id="Shape" fill="#E3EDF9"></path>
                        <path d="M322.3,365.33 C322.294538,366.272135 321.532135,367.034538 320.59,367.04 L318.03,367.04 C317.392756,367.039508 316.808649,366.684717 316.514457,366.119446 C316.220264,365.554176 316.264796,364.872212 316.63,364.35 L316.83,364.13 C317.146049,363.808095 317.578886,363.627747 318.03,363.63 L320.59,363.63 C321.061227,363.635718 321.509467,363.834535 321.83,364.18 C322.130507,364.487462 322.299139,364.900074 322.3,365.33 Z" id="Shape" fill="#E3EDF9"></path>
                        <path d="M300.08,364.92 C300.114535,365.05389 300.131346,365.191734 300.13,365.33 C300.124538,366.272135 299.362135,367.034538 298.42,367.04 L295.86,367.04 C294.915593,367.04 294.15,366.274407 294.15,365.33 C294.141939,365.263577 294.141939,365.196423 294.15,365.13 L300.08,364.92 Z" id="Shape" fill="#000000" opacity="0.1"></path>
                        <path d="M307.66,364.65 C307.750063,364.862019 307.797629,365.089657 307.8,365.32 C307.794538,366.262135 307.032135,367.024538 306.09,367.03 L303.53,367.03 C302.585593,367.03 301.82,366.264407 301.82,365.32 C301.820947,365.160808 301.844516,365.002559 301.89,364.85 L307.66,364.65 Z" id="Shape" fill="#000000" opacity="0.1"></path>
                        <path d="M314.37,364.42 C314.538269,364.690165 314.628274,365.001722 314.63,365.32 C314.624538,366.262135 313.862135,367.024538 312.92,367.03 L310.36,367.03 C309.415593,367.03 308.65,366.264407 308.65,365.32 C308.645668,365.075036 308.696954,364.832279 308.8,364.61 L314.37,364.42 Z" id="Shape" fill="#000000" opacity="0.1"></path>
                        <path d="M322.3,365.33 C322.294538,366.272135 321.532135,367.034538 320.59,367.04 L318.03,367.04 C317.392756,367.039508 316.808649,366.684717 316.514457,366.119446 C316.220264,365.554176 316.264796,364.872212 316.63,364.35 L321.83,364.17 C322.13293,364.479936 322.301756,364.896614 322.3,365.33 Z" id="Shape" fill="#000000" opacity="0.1"></path>
                        <path d="M337.64,372.15 L288.189999,372.15 L288.19,369.9 C288.188816,367.823454 289.834638,366.120117 291.91,366.05 L331.57,364.68 C333.162095,364.625815 334.708044,365.21993 335.854095,366.326397 C337.000147,367.432864 337.648213,368.956984 337.65,370.55 L337.64,372.15 Z" id="Shape" fill="#D6D6E3"></path>
                        <path d="M581.61,365.26 C581.55,368.81 584.11,371.72 587.28,371.72 L647.16,371.72 L647.16,365.48 L597.3,365.48 C595.15,365.48 593.81,362.88 594.89,360.8 L640.05,268.95 C640.701296,267.600594 642.05213,266.728341 643.55,266.69 L665.9,266.69 L665.9,256.19 L637.71,256.19 C636.678719,256.229202 635.752609,256.832518 635.3,257.76 L583.53,357.76 C582.321687,360.079058 581.664651,362.645605 581.61,365.26 Z" id="Shape" fill="#3A3768"></path>
                        <path d="M691.54,348.6 L692.36,349.98 L700.03,344.86 L676.3,162.39 L670.19,162.39 C670.19,162.39 669.94,163.23 669.53,164.83 C665.43,180.6 645.3,269.91 691.54,348.6 Z" id="Shape" fill="#3A3768"></path>
                        <path d="M669.53,164.83 L691.53,348.6 L692.35,349.98 L700.02,344.86 L676.3,162.39 L670.19,162.39 C670.19,162.39 669.94,163.26 669.53,164.83 Z" id="Shape" fill="#000000" opacity="0.1"></path>
                        <rect id="Rectangle-path" fill="#37346B" transform="translate(688.524175, 255.319039) rotate(-6.830000) translate(-688.524175, -255.319039) " x="681.274175" y="160.674039" width="14.5" height="189.29"></rect>
                        <rect id="Rectangle-path" fill="#D6D6E3" x="758.44" y="389.63" width="19.61" height="249.86"></rect>
                        <rect id="Rectangle-path" fill="#312E60" x="168.94" y="488.4" width="14.51" height="95.37"></rect>
                        <rect id="Rectangle-path" fill="#000000" opacity="0.1" x="168.94" y="488.4" width="14.51" height="7.07"></rect>
                        <path d="M212.47,487.91 L212.47,489.91 C212.47,492.500215 210.370215,494.6 207.78,494.6 L144.6,494.6 C143.356135,494.6 142.163215,494.105876 141.283669,493.226331 C140.404124,492.346785 139.91,491.153865 139.91,489.91 L139.91,487.91 C139.931959,485.335419 142.025325,483.259906 144.6,483.26 L207.78,483.26 C209.023865,483.26 210.216785,483.754124 211.096331,484.633669 C211.975876,485.513215 212.47,486.706135 212.47,487.95 L212.47,487.91 Z" id="Shape" fill="#37346B"></path>
                        <path d="M211.4,484.92 L140.98,484.92 C141.878426,483.854105 143.206054,483.245303 144.6,483.26 L207.78,483.26 C209.173946,483.245303 210.501574,483.854105 211.4,484.92 Z" id="Shape" fill="#000000" opacity="0.1"></path>
                        <rect id="Rectangle-path" fill="#37346B" x="116.59" y="578.58" width="119.21" height="11.4" rx="5.5"></rect>
                        <circle id="Oval" fill="#0A96D7" cx="123.33" cy="597.24" r="7.26"></circle>
                        <circle id="Oval" fill="#0A96D7" cx="229.06" cy="597.24" r="7.26"></circle>
                        <circle id="Oval" fill="#0A96D7" cx="176.19" cy="597.24" r="7.26"></circle>
                        <path d="M168.94,578.58 C168.94,578.58 174.64,584.21 183.45,578.58" id="Shape" fill="#000000" opacity="0.1"></path>
                        <rect id="Rectangle-path" fill="#5B13BF" opacity="0.1" x="19.6" y="0.42" width="14" height="58"></rect>
                        <rect id="Rectangle-path" fill="#5B13BF" opacity="0.1" x="37.6" y="0.42" width="14" height="58"></rect>
                        <rect id="Rectangle-path" fill="#5B13BF" opacity="0.1" x="55.6" y="0.42" width="14" height="58"></rect>
                        <rect id="Rectangle-path" fill="#5B13BF" opacity="0.1" x="73.6" y="0.42" width="14" height="58"></rect>
                        <rect id="Rectangle-path" fill="#5B13BF" opacity="0.1" x="109.6" y="0.42" width="14" height="58"></rect>
                        <rect id="Rectangle-path" fill="#5B13BF" opacity="0.1" x="127.6" y="0.42" width="14" height="58"></rect>
                        <rect id="Rectangle-path" fill="#5B13BF" opacity="0.1" x="19.6" y="11.42" width="14" height="3"></rect>
                        <rect id="Rectangle-path" fill="#5B13BF" opacity="0.1" x="19.6" y="47.42" width="14" height="3"></rect>
                        <rect id="Rectangle-path" fill="#5B13BF" opacity="0.1" x="37.6" y="11.42" width="14" height="3"></rect>
                        <rect id="Rectangle-path" fill="#5B13BF" opacity="0.1" x="37.6" y="47.42" width="14" height="3"></rect>
                        <rect id="Rectangle-path" fill="#5B13BF" opacity="0.1" x="55.6" y="11.42" width="14" height="3"></rect>
                        <rect id="Rectangle-path" fill="#5B13BF" opacity="0.1" x="55.6" y="47.42" width="14" height="3"></rect>
                        <rect id="Rectangle-path" fill="#5B13BF" opacity="0.1" x="73.6" y="11.42" width="14" height="3"></rect>
                        <rect id="Rectangle-path" fill="#5B13BF" opacity="0.1" x="73.6" y="47.42" width="14" height="3"></rect>
                        <rect id="Rectangle-path" fill="#5B13BF" opacity="0.1" x="91.6" y="11.42" width="14" height="3"></rect>
                        <rect id="Rectangle-path" fill="#5B13BF" opacity="0.1" x="91.6" y="47.42" width="14" height="3"></rect>
                        <rect id="Rectangle-path" fill="#5B13BF" opacity="0.1" x="109.6" y="11.42" width="14" height="3"></rect>
                        <rect id="Rectangle-path" fill="#5B13BF" opacity="0.1" x="109.6" y="47.42" width="14" height="3"></rect>
                        <rect id="Rectangle-path" fill="#5B13BF" opacity="0.1" x="127.6" y="11.42" width="14" height="3"></rect>
                        <rect id="Rectangle-path" fill="#5B13BF" opacity="0.1" x="127.6" y="47.42" width="14" height="3"></rect>
                        <rect id="Rectangle-path" fill="#5B13BF" opacity="0.1" x="91.6" y="0.42" width="14" height="58"></rect>
                        <rect id="Rectangle-path" fill="#5B13BF" opacity="0.1" transform="translate(160.595788, 29.411511) rotate(-24.840000) translate(-160.595788, -29.411511) " x="153.595788" y="0.41151147" width="14" height="58"></rect>
                        <rect id="Rectangle-path" fill="#5B13BF" opacity="0.1" transform="translate(153.668238, 14.447664) rotate(-24.840000) translate(-153.668238, -14.447664) " x="146.668238" y="12.9476637" width="14" height="3"></rect>
                        <rect id="Rectangle-path" fill="#5B13BF" opacity="0.1" transform="translate(168.783603, 47.113484) rotate(-24.840000) translate(-168.783603, -47.113484) " x="161.783603" y="45.6134837" width="14" height="3"></rect>
                        <path d="M189.3,173.26 C189.3,193.142251 173.182251,209.26 153.3,209.26 C133.417749,209.26 117.3,193.142251 117.3,173.26 C117.3,153.377749 133.417749,137.26 153.3,137.26 C162.847794,137.26 172.004534,141.052846 178.755844,147.804156 C185.507154,154.555466 189.3,163.712206 189.3,173.26 Z" id="Shape" fill="#0A96D7"></path>
                        <path d="M270.39,342.39 L274.04,360.61 C274.04,360.61 278.1,359.88 284.11,358.61 C304.64,354.26 348.02,343.52 331.22,333.5 C316.77,324.89 294.64,331.66 281.44,337.16 C276.6,339.16 272.96,341.02 271.33,341.89 C270.72,342.2 270.39,342.39 270.39,342.39 Z" id="Shape" fill="#F8B9BF"></path>
                        <path d="M271.42,347.53 L274.04,360.61 C274.04,360.61 278.1,359.88 284.11,358.61 L281.44,337.16 C276.6,339.16 272.96,341.02 271.33,341.89 L271.42,347.53 Z" id="Shape" fill="#000000" opacity="0.1"></path>
                        <polygon id="Shape" fill="#D9DFE8" points="270.79 361.74 283.33 359.23 280.49 336.32 270.45 338.33"></polygon>
                        <polygon id="Shape" fill="#000000" opacity="0.1" points="270.79 361.74 276.2 360.65 275.21 337.38 270.45 338.33"></polygon>
                        <path d="M155.21,262.26 C155.21,262.26 179.62,249.54 188.49,289.51 C197.36,329.48 197.49,347.7 197.49,347.7 L273.41,335.97 L274.59,363.56 C274.59,363.56 192.99,385.99 182.96,383.65 C172.93,381.31 142.48,324.8 142.48,324.8 C142.48,324.8 114.58,280.85 155.21,262.26 Z" id="Shape" fill="#48BAEE"></path>
                        <g id="Group" opacity="0.1" transform="translate(270.000000, 329.000000)" fill="#000000">
                            <path d="M0.39,13.39 L4.04,31.61 C4.04,31.61 8.1,30.88 14.11,29.61 C34.64,25.26 78.02,14.52 61.22,4.5 C46.77,-4.11 24.64,2.66 11.44,8.16 C6.6,10.16 2.96,12.02 1.33,12.89 C0.72,13.2 0.39,13.39 0.39,13.39 Z" id="Shape"></path>
                            <path d="M1.42,18.53 L4.04,31.61 C4.04,31.61 8.1,30.88 14.11,29.61 L11.44,8.16 C6.6,10.16 2.96,12.02 1.33,12.89 L1.42,18.53 Z" id="Shape"></path>
                            <polygon id="Shape" points="0.79 32.74 13.33 30.23 10.49 7.32 0.45 9.33"></polygon>
                            <polygon id="Shape" points="0.79 32.74 6.2 31.65 5.21 8.38 0.45 9.33"></polygon>
                        </g>
                        <path d="M293.3,574.97 L323.24,593.97 C323.24,593.97 362.83,600.6 335.9,608.73 C308.97,616.86 247.77,604.43 247.77,604.43 C247.77,604.43 252.42,576.89 257.37,573.24 C262.32,569.59 293.3,574.97 293.3,574.97 Z" id="Shape" fill="#45426F"></path>
                        <path d="M182.3,371.16 C182.3,371.16 197.23,379.83 224.08,387.93 C239.82,392.68 259.62,396.35 273.3,398.58 C287.653293,400.795633 299.24697,411.461025 302.65,425.58 C303.723978,429.639143 303.658237,433.915786 302.46,437.94 C297.24,453.56 298.3,582.41 298.3,582.41 L251.46,584.66 C251.46,584.66 258.87,561.25 249.74,548.89 C240.61,536.53 255.9,446.16 255.9,446.16 C255.9,446.16 239.31,438.42 188.81,435.73 C141.48,445.73 124.47,393.58 132.33,379.54 C140.19,365.5 182.3,371.16 182.3,371.16 Z" id="Shape" fill="#45426F"></path>
                        <path d="M278.38,585.08 L308.32,604.08 C308.32,604.08 347.91,610.71 320.98,618.84 C294.05,626.97 232.85,614.54 232.85,614.54 C232.85,614.54 237.5,587 242.45,583.35 C247.4,579.7 278.38,585.08 278.38,585.08 Z" id="Shape" fill="#45426F"></path>
                        <path d="M173.94,445.83 C224.44,448.52 241.03,456.26 241.03,456.26 C241.03,456.26 236.24,544.08 243.03,556.86 C250.28,570.42 236.55,594.76 236.55,594.76 L283.39,592.51 C283.39,592.51 283.39,590.99 283.39,588.27 C283.25,565.89 282.91,461.97 287.56,448.04 C288.758237,444.015786 288.823978,439.739143 287.75,435.68 C284.344522,421.562466 272.752062,410.898193 258.4,408.68 C244.71,406.46 224.92,402.79 209.18,398.04 L208.41,397.8 C182.04,389.8 167.41,381.27 167.41,381.27 C167.41,381.27 136.22,379.11 128.41,393.15 C127.41,394.97 123.1,398.55 122.92,401.44 C121.75,420.78 132.76,454.5 173.94,445.83 Z" id="Shape" fill="#4E4B78"></path>
                        <path d="M248.11,363.86 L249,382.42 C249,382.42 253.12,382.31 259.26,381.94 C280.21,380.69 324.71,376.55 309.59,364.14 C296.59,353.47 273.69,356.87 259.82,360.34 C254.73,361.62 250.82,362.9 249.12,363.51 C248.46,363.73 248.11,363.86 248.11,363.86 Z" id="Shape" fill="#F8B9BF"></path>
                        <path d="M129.3,237.55 C129.3,237.55 135.3,242.72 142.74,248.44 C151.04,250.7 160.74,252.71 167.67,254.04 C165.52,245.89 167.43,237.04 170.6,229.25 C174.040037,221.146881 178.604929,213.569025 184.16,206.74 L142.46,191.67 C145.41,200.22 143.46,209.77 140.29,217.94 C137.491658,224.925162 133.797387,231.517032 129.3,237.55 Z" id="Shape" fill="#F8B9BF"></path>
                        <path d="M248.36,369.09 L249,382.42 C249,382.42 253.12,382.31 259.26,381.94 L259.82,360.33 C254.73,361.61 250.82,362.89 249.12,363.5 L248.36,369.09 Z" id="Shape" fill="#000000" opacity="0.1"></path>
                        <polygon id="Shape" fill="#D9DFE8" points="245.62 383.05 258.39 382.44 258.99 359.36 248.77 359.85"></polygon>
                        <path d="M123.83,406.84 C150.83,434.91 201.18,401.55 214.72,391.67 C216.92,390.06 218.15,389.07 218.15,389.07 C213.15,383.98 205.15,379.27 202.08,366.52 C199.151058,353.506867 197.165893,340.299169 196.14,327 C195.31,316.45 206.21,296.36 203.06,286.34 C199.91,276.32 186.94,273.03 181.49,263.96 C180.06,261.6 178.64,259.38 177.24,257.44 C167.18,243.44 149.65,234.01 149.65,234.01 C112.3,221.26 109.37,274.6 110.3,276.26 C111.23,277.92 106.96,336.72 123.83,406.84 Z" id="Shape" fill="#0A96D7"></path>
                        <path d="M123.55,330.02 C123.55,330.02 145.24,390.44 154.81,394.25 C160.29,396.43 190.18,394.08 214.72,391.67 C216.92,390.06 218.15,389.07 218.15,389.07 C213.15,383.98 209.08,373.49 206.02,360.75 L174.53,360.86 C174.53,360.86 177.08,342.86 174.26,301.97 C171.44,261.08 145.41,270.07 145.41,270.07 C102.48,282.38 123.55,330.02 123.55,330.02 Z" id="Shape" fill="#000000" opacity="0.1"></path>
                        <polygon id="Shape" fill="#000000" opacity="0.1" points="245.62 383.05 251.13 382.79 253.62 359.62 248.77 359.85"></polygon>
                        <path d="M146.15,267.47 C146.15,267.47 172.15,258.54 175,299.37 C177.85,340.2 175.3,358.26 175.3,358.26 L252.12,357.98 L249.17,385.44 C249.17,385.44 165.17,395.44 155.57,391.65 C145.97,387.86 124.3,327.43 124.3,327.43 C124.3,327.43 103.21,279.78 146.15,267.47 Z" id="Shape" fill="#48BAEE"></path>
                        <path d="M147.1,207.26 C148.49,201.26 142.1,201.07 140.1,195.26 L181.82,210.26 C178.712286,214.069814 175.910245,218.119064 173.44,222.37 C171.218018,222.923636 168.947203,223.258564 166.66,223.37 C156.52,223.87 153.81,213.84 147.1,207.26 Z" id="Shape" fill="#000000" opacity="0.1"></path>
                        <circle id="Oval" fill="#F8B9BF" transform="translate(167.362160, 184.947468) rotate(-2.750000) translate(-167.362160, -184.947468) " cx="167.36216" cy="184.947468" r="34.96"></circle>
                        <path d="M149.3,293.4 C149.3,293.4 160.36,345.79 173.42,351.14 C186.48,356.49 180.56,357.63 180.56,357.63" id="Shape" fill="#000000" opacity="0.1"></path>
                        <path d="M194.88,322.99 C194.88,322.99 185.64,325.88 174.88,312.07" id="Shape" fill="#000000" opacity="0.1"></path>
                        <circle id="Oval" fill="#0A96D7" cx="125.3" cy="136.26" r="16"></circle>
                        <path d="M114.06,144.71 C108.287699,138.554932 108.287699,128.975068 114.06,122.82 C113.8,123.03 113.54,123.24 113.3,123.47 C106.86036,129.523041 106.54696,139.65036 112.6,146.09 C118.653041,152.52964 128.78036,152.843041 135.22,146.79 C135.47,146.56 135.69,146.31 135.91,146.07 C129.407828,151.45019 119.844817,150.854964 114.06,144.71 Z" id="Shape" fill="#0A96D7"></path>
                        <path d="M123.2,150.75 C114.772014,151.257584 107.400136,145.128944 106.36,136.75 C106.36,137.08 106.36,137.41 106.36,137.75 C106.717266,143.455531 110.091257,148.537061 115.211025,151.080426 C120.330793,153.62379 126.418523,153.242593 131.181025,150.080426 C135.943528,146.918259 138.657266,141.455531 138.3,135.75 C138.3,135.41 138.23,135.09 138.19,134.75 C138.206865,143.206697 131.639849,150.216187 123.2,150.75 Z" id="Shape" fill="#0A96D7"></path>
                        <path d="M179.25,149.17 C182.98,151.01 187.25,151.52 191.25,152.68 C195.25,153.84 199.33,155.96 201.09,159.74 C202.38,162.52 202.23,165.81 203.58,168.56 C205.52,172.56 210,174.4 214.12,175.97 C210.58,180.72 202.98,179.43 198.02,176.2 C193.06,172.97 188.79,168.2 183.02,166.95 C177.187126,165.799629 171.260269,168.4369 168.21,173.54 C166.63,176.31 166.07,179.54 165.29,182.62 C163.29,190.74 159.29,198.82 152.29,203.43 C145.29,208.04 134.86,208.01 129.37,201.7 C126.17,198.02 125.1,193.01 124.15,188.23 C123.609023,186.001227 123.350329,183.713295 123.38,181.42 C123.7,175.68 127.52,170.79 131.38,166.53 C135.93,161.53 140.77,156.73 145.61,151.96 C149.79,147.84 154.61,140.86 160.91,140.37 C168.17,139.79 173.3,146.26 179.25,149.17 Z" id="Shape" fill="#0A96D7"></path>
                        <rect id="Rectangle-path" fill="#37346B" x="77.58" y="371.26" width="114.03" height="17.62" rx="8.5"></rect>
                        <path d="M77.58,380.26 L77.58,381.65 C77.58,385.654064 80.8259356,388.9 84.83,388.9 L184.36,388.9 C188.364064,388.9 191.61,385.654064 191.61,381.65 L191.61,380.26 L77.58,380.26 Z" id="Shape" fill="#000000" opacity="0.1"></path>
                        <rect id="Rectangle-path" fill="#34315D" x="278.39" y="389.63" width="19.61" height="249.83"></rect>
                        <rect id="Rectangle-path" fill="#000000" opacity="0.1" x="278.39" y="389.63" width="19.61" height="16.2"></rect>
                        <rect id="Rectangle-path" fill="#3A3768" x="269.01" y="371.72" width="518.42" height="32.4"></rect>
                    </g>
                    <g id="Flower" transform="translate(761.000000, 501.000000)">
                        <g id="Group-3" transform="translate(0.000000, 157.000000)">
                            <g id="Fill-1-Clipped">
                                <mask id="mask-2" fill="white">
                                    <use xlink:href="#path-1"></use>
                                </mask>
                                <g id="path-9"></g>
                                <path d="M69.6066667,5.13833333 C69.6066667,7.82333333 54.025,10 34.8033333,10 C15.5816667,10 0,7.82333333 0,5.13833333 C0,2.45333333 15.5816667,0.276666667 34.8033333,0.276666667 C54.025,0.276666667 69.6066667,2.45333333 69.6066667,5.13833333" id="Fill-1" mask="url(#mask-2)"></path>
                            </g>
                        </g>
                        <path d="M20.6523465,91.7430709 L37.7326606,124 C37.7326606,124 42.227042,43.3593363 14.3602125,12 C14.3602125,12 3.57369703,59.4878009 20.6523465,91.7430709 Z" id="Fill-4" fill="#34CC62" fill-rule="nonzero"></path>
                        <path d="M20.9090779,152.450755 C23.8011373,157.604624 28.4747186,162.028376 34.2421877,163.417421 C36.8578615,164.048203 39.5817585,164.038269 42.2723561,163.967079 C45.2226896,163.88761 48.3078859,163.702183 50.8519658,162.212147 C54.1669286,160.270133 55.9068261,156.521865 57.2537899,152.9375 C59.5331389,146.871397 61.2630467,140.601656 62.4168735,134.227613 C63.082863,130.550535 63.5124262,126.560549 61.7841835,123.24108 C59.4448953,118.744482 53.9621368,116.93326 48.935581,116.118707 C40.5840727,114.762774 29.084099,114.06908 21.0822352,117.451462 C14.0943404,120.405044 14.5172437,129.280693 15.6494258,135.624936 C16.6883695,141.436077 18.0170185,147.296885 20.9090779,152.450755 Z" id="Fill-6" fill="#3A3768" fill-rule="nonzero"></path>
                        <path d="M34.5611358,123.924168 C41.2448347,124.289068 48.489427,123.329634 52.6978063,121.206295 C53.5391462,120.783201 54.2881236,120.237424 53.8901244,119.718386 C53.4199144,119.104977 51.6398338,118.850177 50.0881409,118.700756 C42.0525883,117.925345 33.1538645,117.573028 25.2879234,118.823438 C13.7644204,120.652655 28.4450475,123.589153 34.5611358,123.924168" id="Fill-8" fill="#524E64" fill-rule="nonzero"></path>
                        <path d="M31.0962188,0 C31.0962188,0 25.9500806,90.7541899 37.9577363,124 C37.9577363,124 45.6785318,43.1308688 31.0962188,0" id="Fill-10" fill="#29AE51" fill-rule="nonzero"></path>
                        <path d="M36.7720034,123 L39.6930605,123 C43.9913776,105.089985 56.8513563,47.0773281 50.0549858,20 C50.0549858,20 28.4701395,96.1399539 33.8659347,113.157619 C35.1832415,117.622683 36.1125174,120.769127 36.7720034,123" id="Fill-12" fill="#34CC62" fill-rule="nonzero"></path>
                    </g>
                </g>
            </g>
        </g>
    </g>
</svg>