<?xml version="1.0" encoding="UTF-8"?>
<svg width="80px" height="92px" viewBox="0 0 80 92" version="1.1" xmlns="http://www.w3.org/2000/svg" xmlns:xlink="http://www.w3.org/1999/xlink">
    <!-- Generator: Sketch 50.2 (55047) - http://www.bohemiancoding.com/sketch -->
    <title>Group 6</title>
    <desc>Created with Sketch.</desc>
    <defs></defs>
    <g id="Page-1" stroke="none" stroke-width="1" fill="none" fill-rule="evenodd">
        <g id="Business-page-loggedin" transform="translate(-603.000000, -618.000000)" fill="#FC6666">
            <g id="password" transform="translate(603.000000, 618.000000)">
                <g id="Group-6">
                    <path d="M20,58.578125 C21.9725,58.578125 23.5714286,60.1870469 23.5714286,62.171875 C23.5714286,64.1567031 21.9725,65.765625 20,65.765625 C18.0275,65.765625 16.4285714,64.1567031 16.4285714,62.171875 C16.4285714,60.1870469 18.0275,58.578125 20,58.578125 Z M29.8214286,62.171875 C29.8214286,64.1567031 31.4203571,65.765625 33.3928571,65.765625 C35.3653571,65.765625 36.9642857,64.1567031 36.9642857,62.171875 C36.9642857,60.1870469 35.3653571,58.578125 33.3928571,58.578125 C31.4203571,58.578125 29.8214286,60.1870469 29.8214286,62.171875 Z M43.2142857,62.171875 C43.2142857,64.1567031 44.8132143,65.765625 46.7857143,65.765625 C48.7582143,65.765625 50.3571429,64.1567031 50.3571429,62.171875 C50.3571429,60.1870469 48.7582143,58.578125 46.7857143,58.578125 C44.8132143,58.578125 43.2142857,60.1870469 43.2142857,62.171875 Z M72.8571429,61.453125 L72.8571429,48.15625 C72.8571429,44.1930625 69.6528571,40.96875 65.7142857,40.96875 L14.2857143,40.96875 C10.3471429,40.96875 7.14285714,44.1930625 7.14285714,48.15625 L7.14285714,77.625 C7.14285714,81.5881875 10.3471429,84.8125 14.2857143,84.8125 L65.7142857,84.8125 C69.6528571,84.8125 72.8571429,81.5881875 72.8571429,77.625 C72.8571429,75.6401719 74.4560714,74.03125 76.4285714,74.03125 C78.4010714,74.03125 80,75.6401719 80,77.625 C80,85.551375 73.5914286,92 65.7142857,92 L14.2857143,92 C6.40857143,92 0,85.551375 0,77.625 L0,48.15625 C0,40.229875 6.40857143,33.78125 14.2857143,33.78125 L18.5648214,33.78125 L18.5648214,21.1071719 C18.5648214,9.46863281 28.1776786,0 39.9933929,0 C51.8091071,0 61.4219643,9.46863281 61.4219643,21.1071719 L61.4219643,33.78125 L65.7142857,33.78125 C73.5914286,33.78125 80,40.229875 80,48.15625 L80,61.453125 C80,63.4379531 78.4010714,65.046875 76.4285714,65.046875 C74.4560714,65.046875 72.8571429,63.4379531 72.8571429,61.453125 Z M25.7076786,33.78125 L54.2791071,33.78125 L54.2791071,21.1071719 C54.2791071,13.4318203 47.8705357,7.1875 39.9933929,7.1875 C32.11625,7.1875 25.7076786,13.4318203 25.7076786,21.1071719 L25.7076786,33.78125 Z" id="Shape" fill-rule="nonzero"></path>
                    <path d="M63.8404712,64.7443317 C63.6277661,64.9570368 63.2829713,64.9570368 63.0702662,64.7443317 L61.0480697,62.7221352 L58.9297338,64.8404712 C58.7170287,65.0531763 58.3722339,65.0531763 58.1595288,64.8404712 C57.9468237,64.6277661 57.9468237,64.2829713 58.1595288,64.0702662 L60.2778648,61.9519303 L58.2556683,59.9297338 C58.0429632,59.7170287 58.0429632,59.3719616 58.2556683,59.1595288 C58.4683734,58.9468237 58.8131681,58.9468237 59.0258732,59.1595288 L61.0480697,61.1817253 L62.9738544,59.2559406 C63.1865595,59.0432355 63.5313543,59.0432355 63.7440594,59.2559406 C63.9567645,59.4686457 63.9567645,59.8134405 63.7440594,60.0261456 L61.8182747,61.9519303 L63.8404712,63.9741268 C64.0531763,64.1868319 64.0531763,64.5316266 63.8404712,64.7443317 Z" id="Path" stroke="#FC6666"></path>
                </g>
            </g>
        </g>
    </g>
</svg>