<?xml version="1.0" encoding="UTF-8"?><svg width="409" height="174" xmlns="http://www.w3.org/2000/svg"><!--Generator: Sketch 52.6 (67491) - http://www.bohemiancoding.com/sketch--><g fill="#FFF" fill-rule="evenodd"><path d="M396.1 118.8l-1.5 4.5h2.9zM346.1 118.8l-1.4 4.5h2.9l-1.4-4.5z"/><path d="M333.6 112.1v19h75v-19h-75zm15.6 16l-.8-2.3h-4.5l-.8 2.3h-3.5l4.9-13h3.4l4.9 13h-3.6zm14 0h-9.4v-13h3.4v10.1h6.1v2.9h-.1zm7.8-4.3h-2.8v4.3h-3.4v-13h6.2c2.4 0 4.7 1.1 4.7 4.2 0 3.3-1.8 4.5-4.7 4.5zm17.5 4.3h-3.4v-5.4h-4.5v5.4h-3.4v-13h3.4v4.7h4.5v-4.7h3.4v13zm10.6 0l-.8-2.3h-4.5l-.8 2.3h-3.5l4.9-13h3.4l4.9 13h-3.6z" fill-rule="nonzero"/><path d="M370.5 117.9h-2.3v3.3h2.3c1.1 0 1.8-.4 1.8-1.6.1-1.2-.7-1.7-1.8-1.7z"/><g><path d="M182.8 118a5.5 5.5 0 0 0-5.6-4.4c-4.8 0-6.9 4-6.9 8s2 8 6.9 8c3.4 0 5.5-2.6 5.8-5.8h1.7c-.5 4.5-3.3 7.3-7.6 7.3-5.7 0-8.6-4.5-8.6-9.5s2.9-9.5 8.6-9.5c3.4 0 6.9 2.1 7.3 5.9h-1.6zM187.5 112.5h1.7v16.8h10.2v1.5h-12v-18.3z"/><path d="M208.8 112.1c5.7 0 8.6 4.5 8.6 9.5s-2.9 9.5-8.6 9.5c-5.7 0-8.6-4.5-8.6-9.5s2.9-9.5 8.6-9.5zm0 17.6c4.8 0 6.8-4 6.8-8s-2-8-6.8-8-6.9 4-6.9 8 2.1 8 6.9 8z" fill-rule="nonzero"/><path d="M219.9 112.5h1.7v11.3c0 4.2 2 5.8 5.3 5.8 3.4 0 5.4-1.6 5.4-5.8v-11.3h1.7v11.7c0 3.8-2 6.9-7.1 6.9s-7.1-3.2-7.1-6.9v-11.7h.1z"/><path d="M237.6 112.5h6.3c5.5.1 8.4 3.1 8.4 9.1s-2.9 9-8.4 9.1h-6.3v-18.2zm1.8 16.8h3.7c5.2 0 7.5-2.2 7.5-7.6 0-5.4-2.3-7.7-7.5-7.6h-3.7v15.2zM262.2 112.5h7.7c3.1 0 5.8 1.1 5.8 4.5 0 1.9-1.3 3.7-3.2 4.1v.1c2.3.3 3.9 2.1 3.9 4.4 0 1.7-.6 5.2-6.5 5.2h-7.7v-18.3zm1.8 8h6c2.8 0 4.1-1.4 4.1-3.1 0-2.3-1.4-3.4-4.1-3.4h-6v6.5zm0 8.8h6c2.6 0 4.8-.8 4.8-3.8 0-2.3-1.8-3.5-4.8-3.5h-6v7.3zM284.6 112.5h1.9l7.2 18.2h-1.9l-2.2-5.7h-8.3l-2.2 5.7h-1.9l7.4-18.2zm-2.8 11.1h7.2l-3.5-9.3-3.7 9.3z" fill-rule="nonzero"/><path d="M296.2 124.8c-.1 3.8 2.6 4.9 5.9 4.9 1.9 0 4.8-1 4.8-3.7 0-2.1-2.1-2.9-3.8-3.3l-4.1-1c-2.1-.5-4.1-1.6-4.1-4.4 0-1.8 1.1-5.1 6.3-5.1 3.6 0 6.8 1.9 6.7 5.7h-1.7c-.1-2.8-2.4-4.2-5-4.2-2.4 0-4.6.9-4.6 3.6 0 1.7 1.3 2.4 2.8 2.8l4.4 1.1c2.6.7 4.7 1.8 4.7 4.8 0 1.3-.5 5.2-7 5.2-4.3 0-7.5-1.9-7.3-6.4h2zM311.4 112.5H324v1.5h-10.9v6.6h10.2v1.5h-10.2v7.2h11v1.5h-12.7z"/></g><g><path d="M310.3 62.3c3.1 1.8 5.6 4.3 7.5 7.6 1.8 3.3 2.8 7.1 2.8 11.4 0 4.3-.9 8.2-2.8 11.5a18.3 18.3 0 0 1-7.5 7.6A20.2 20.2 0 0 1 300 103c-5.2 0-9.1-1.4-11.7-4.2v4.2h-16.7V45.4h17.6v17.8c2.5-2.4 6.1-3.6 10.8-3.6 3.7.1 7.1 1 10.3 2.7zm-8.1 25.1a9 9 0 0 0 1.9-6.1c0-2.6-.6-4.6-1.9-6a6.6 6.6 0 0 0-5-2.1c-2 0-3.7.7-5 2.1-1.3 1.4-1.9 3.4-1.9 6a9 9 0 0 0 1.9 6.1c1.3 1.5 3 2.2 5 2.2s3.7-.7 5-2.2z" fill-rule="nonzero"/><path d="M363.6 85.5H334a6.9 6.9 0 0 0 3.1 3.6c1.5.8 3.3 1.3 5.5 1.3a13 13 0 0 0 4.7-.7c1.3-.5 2.7-1.3 4.2-2.4l9.2 9.1c-4.2 4.5-10.4 6.7-18.6 6.7-5.1 0-9.7-.9-13.6-2.8a20.4 20.4 0 0 1-12.2-19c0-4.2 1.1-7.9 3.2-11.2 2.1-3.3 5-5.9 8.6-7.7 3.7-1.8 7.8-2.8 12.3-2.8 4.3 0 8.2.8 11.8 2.5 3.6 1.7 6.4 4.2 8.5 7.4 2.1 3.3 3.2 7.2 3.2 11.7l-.3 4.3zM336.1 73c-1.2 1-2 2.3-2.3 4.1h13.7a7.3 7.3 0 0 0-2.3-4.1 6.8 6.8 0 0 0-4.5-1.5c-1.9.1-3.5.6-4.6 1.5z" fill-rule="nonzero"/><path d="M407.7 85.4h-29.6a6.9 6.9 0 0 0 3.1 3.6c1.5.8 3.3 1.3 5.5 1.3a13 13 0 0 0 4.7-.7c1.3-.5 2.7-1.3 4.2-2.4l9.2 9.1c-4.2 4.5-10.4 6.7-18.6 6.7-5.1 0-9.7-.9-13.6-2.8a20.4 20.4 0 0 1-12.2-19c0-4.2 1.1-7.9 3.2-11.2 2.1-3.3 5-5.9 8.6-7.7 3.7-1.8 7.8-2.8 12.3-2.8 4.3 0 8.2.8 11.8 2.5 3.6 1.7 6.4 4.2 8.5 7.4 2.1 3.3 3.2 7.2 3.2 11.7l-.3 4.3zm-27.6-12.5c-1.2 1-2 2.3-2.3 4.1h13.7a7.3 7.3 0 0 0-2.3-4.1 6.8 6.8 0 0 0-4.5-1.5c-1.9.1-3.4.6-4.6 1.5z" fill-rule="nonzero"/><path d="M253.9 85.3c3.6-1.8 6.3-4.2 8.2-7.3 1.9-3.1 2.8-6.6 2.8-10.7 0-4.4-1.1-8.2-3.3-11.5a20.5 20.5 0 0 0-9.3-7.5c-4-1.7-8.7-2.6-14.1-2.6H206V74h-18.2V45.6h-19.7V103h19.7V88.6H206V103h19.7V60.5H237c2.7 0 4.7.6 6 1.8 1.3 1.2 2 2.8 2 5 0 2.1-.7 3.8-2 5-1.3 1.2-3.3 1.8-6 1.8h-7.2v14.6h5.3l9.9 14.4h21l-12.1-17.8z"/></g><path d="M76.4.6H76l-.7.1h-.4l-.7.1-.4.1-.7.2-.3.1-.8.3-.2.1-.8.4-.1.1-.1.1-.1.1-65 37.5-.3.2-.5.3-.4.3-.4.3-.4.3-.4.4-.3.4-.3.4-.3.4-.3.4-.3.5-.3.5-.2.5-.2.5-.2.5-.2.5-.1.6-.1.5-.1.6-.1.5v77.4l.1.8.1.4.2.7.1.4.2.6.2.3.3.6.2.3.3.6.2.4.4.5.3.3.4.5.3.3.4.4.5.4.4.3.5.3.3.2L71 171.7l.3.2.5.3.5.2.5.2.5.2.5.1.6.1.4.1.6.1H78l.7-.1.4-.1.7-.2.3-.1.8-.3.2-.1.8-.4.1-.1.1-.1.1-.1 65-37.5.1-.1.4-.3.3-.2.2-.1.3-.3.3-.3.2-.2.3-.3.3-.3.3-.3.2-.2.2-.3.3-.3.2-.3.2-.3.2-.3.1-.1.1-.2.1-.2.3-.5.2-.5.1-.2.1-.3.2-.5.1-.2.1-.4.1-.4.1-.3.1-.5v-.4-.2-.5-75.7l-.1-.9v-.2l-.1-.8-.1-.4-.2-.7-.1-.4-.2-.6-.1-.3-.3-.6-.2-.3a2 2 0 0 0-.4-.6l-.2-.3-.4-.5-.3-.3-.4-.5-.3-.3-.4-.4-.5-.4-.4-.3-.5-.3-.3-.2L82.1 2l-.3-.2-.5-.3-.5-.2-.5-.2-.5-.2-.5-.1-.6-.1-.4-.1-.6-.1h-.4l-.9.1zM60.5 42.9h.7a3 3 0 0 1 1.8 1.3l7.2 12.4h12.9l7.2-12.4c.4-.7 1-1.2 1.8-1.3h6c1.5 0 2.7 1.2 2.7 2.7 0 1.5-1.2 2.7-2.7 2.7h-3.8l-6.4 11.2 6.4 11.2H109.5a3 3 0 0 1 1.8 1.3l7.9 13.8V88.6l-7.9 13.8c-.4.7-1 1.2-1.8 1.3h-.1-.1-.1-.1-.1-.1-.1H94l-7.2 12.4-.1.1-8 13.8c-.5.8-1.3 1.3-2.2 1.3h-.1-.1c-.9 0-1.7-.5-2.2-1.3l-8-13.8v-.1l-7.2-12.4H44.5h-.1-.1-.1-.1-.1-.1-.1-.1a3 3 0 0 1-1.8-1.3L34 88.6v-.1-.1-.1-.1-.1-.1-.1-.1-.1-.1-.1-.1-.1-.1V86.9v-.1-.1-.1-.1-.1-.1-.1-.1-.1-.1-.1-.1-.1-.1-.1l7.9-13.8c.4-.7 1-1.2 1.8-1.3H58.9l6.4-11.2-6.4-11.2h-3.8a2.7 2.7 0 0 1-2.7-2.7c0-1.5 1.2-2.7 2.7-2.7l5.4.4zM70 62l-6.4 11.2L70 84.4h12.9l6.4-11.2L82.9 62H70zM46.1 75.8L39.7 87l6.4 11.2H59L65.4 87 59 75.8H46.1zm47.9 0L87.6 87 94 98.2h12.9l6.4-11.2-6.4-11.2H94zM70 89.7l-6.4 11.2 12.9 22.3 12.9-22.3L83 89.7H70z" fill-rule="nonzero"/></g></svg>