<?xml version="1.0" encoding="UTF-8"?>
<svg width="330px" height="362px" viewBox="0 0 330 362" version="1.1" xmlns="http://www.w3.org/2000/svg" xmlns:xlink="http://www.w3.org/1999/xlink">
    <!-- Generator: Sketch 52.6 (67491) - http://www.bohemiancoding.com/sketch -->
    <title>Group 3</title>
    <desc>Created with Sketch.</desc>
    <g id="Page-1" stroke="none" stroke-width="1" fill="none" fill-rule="evenodd">
        <g id="Group-5" transform="translate(-1721.000000, -1112.000000)">
            <g id="Group-4" transform="translate(1274.000000, 0.000000)">
                <g id="Group-3" transform="translate(447.000000, 1112.000000)">
                    <g id="Group-Copy">
                        <g id="calendar-(2)" fill="#0055FF" fill-rule="nonzero">
                            <path d="M320.066,42.931 L319.586,42.411 C313.234,36.029 304.59,32.456 295.586,32.491 L282.506,32.491 L282.506,29.011 C282.531,21.56 279.663,14.39 274.506,9.011 L274.026,8.491 C273.989,8.454 273.952,8.417 273.915,8.38 C262.637,-2.836 244.402,-2.787 233.186,8.491 C227.804,13.913 224.797,21.251 224.826,28.891 L224.826,32.491 L104.946,32.491 L104.946,29.011 C104.971,21.56 102.103,14.39 96.946,9.011 L96.466,8.491 C96.429,8.454 96.392,8.417 96.355,8.38 C85.077,-2.836 66.842,-2.787 55.626,8.491 C50.215,13.9 47.178,21.24 47.186,28.891 L47.186,32.491 L34.106,32.491 L34.066,32.491 C25.315,32.455 16.894,35.826 10.586,41.891 L10.066,42.371 C3.684,48.723 0.111,57.367 0.146,66.371 L0.146,327.731 C0.111,336.735 3.684,345.379 10.066,351.731 C16.416,358.117 25.061,361.69 34.066,361.651 L295.586,361.651 C304.585,361.696 313.227,358.138 319.586,351.771 C325.968,345.419 329.541,336.775 329.506,327.771 L329.506,66.291 C329.504,57.575 326.12,49.201 320.066,42.931 Z M240.826,52.491 L240.826,40.491 L240.826,29.011 C240.886,25.68 242.251,22.506 244.626,20.171 C244.654,20.143 244.682,20.115 244.711,20.086 C249.67,15.173 257.674,15.211 262.586,20.171 L262.906,20.491 C265.06,22.809 266.272,25.847 266.306,29.011 L266.306,52.491 C266.221,59.434 260.648,65.061 253.706,65.211 C253.154,65.253 252.6,65.256 252.048,65.221 C245.434,64.805 240.409,59.105 240.826,52.491 Z M63.346,40.491 L63.386,29.171 C63.383,25.796 64.721,22.559 67.106,20.171 C67.134,20.143 67.162,20.115 67.191,20.086 C72.15,15.173 80.154,15.211 85.066,20.171 L85.386,20.491 C87.554,22.803 88.781,25.842 88.826,29.011 L88.826,52.491 C88.833,55.867 87.495,59.106 85.106,61.491 C82.712,63.872 79.482,65.222 76.106,65.251 C72.722,65.261 69.477,63.906 67.106,61.491 C64.703,59.112 63.349,55.872 63.346,52.491 L63.346,40.491 Z M313.146,328.051 C313.152,332.72 311.295,337.197 307.986,340.491 C304.676,343.731 300.218,345.529 295.586,345.491 L34.066,345.491 C29.398,345.493 24.922,343.636 21.626,340.331 C18.321,337.035 16.464,332.559 16.466,327.891 L16.4659984,132.731 L313.186,132.731 L313.146,328.051 Z M313.266,116.491 L16.5859984,116.491 L16.586,66.331 C16.584,61.663 18.441,57.187 21.746,53.891 L22.066,53.531 C25.308,50.46 29.6,48.743 34.066,48.731 L47.146,48.731 L47.146,52.331 C47.146,60.291 52.066,81.211 75.746,81.211 C99.466,81.211 104.826,60.491 104.826,52.491 L104.826,48.891 L224.826,48.891 L224.826,52.491 C224.826,60.491 229.906,81.411 253.626,81.411 C277.346,81.411 282.506,60.491 282.506,52.491 L282.506,48.891 L295.626,48.891 C300.294,48.889 304.77,50.746 308.066,54.051 L308.426,54.371 C311.508,57.609 313.239,61.901 313.266,66.371 L313.266,116.491 Z" id="Shape"></path>
                        </g>
                        <circle id="Oval" stroke="#0055FF" stroke-width="4" fill="#0055FF" cx="76.5" cy="191.5" r="15.5"></circle>
                        <circle id="Oval-Copy-5" stroke="#0055FF" stroke-width="4" cx="76.5" cy="236.5" r="15.5"></circle>
                        <circle id="Oval-Copy-10" stroke="#0055FF" stroke-width="4" cx="76.5" cy="281.5" r="15.5"></circle>
                        <circle id="Oval-Copy" stroke="#0055FF" stroke-width="4" cx="119.5" cy="191.5" r="15.5"></circle>
                        <circle id="Oval-Copy-6" stroke="#0055FF" stroke-width="4" cx="119.5" cy="236.5" r="15.5"></circle>
                        <circle id="Oval-Copy-11" stroke="#0055FF" stroke-width="4" cx="119.5" cy="281.5" r="15.5"></circle>
                        <circle id="Oval-Copy-2" stroke="#0055FF" stroke-width="4" cx="163.5" cy="191.5" r="15.5"></circle>
                        <circle id="Oval-Copy-7" stroke="#0055FF" stroke-width="4" cx="163.5" cy="236.5" r="15.5"></circle>
                        <circle id="Oval-Copy-3" stroke="#0055FF" stroke-width="4" cx="207.5" cy="191.5" r="15.5"></circle>
                        <circle id="Oval-Copy-8" stroke="#0055FF" stroke-width="4" cx="207.5" cy="236.5" r="15.5"></circle>
                        <circle id="Oval-Copy-4" stroke="#0055FF" stroke-width="4" cx="252.5" cy="191.5" r="15.5"></circle>
                        <circle id="Oval-Copy-9" stroke="#0055FF" stroke-width="4" cx="252.5" cy="236.5" r="15.5"></circle>
                    </g>
                    <path d="M161,81.84 C161,79.4933216 160.660003,77.6800064 159.98,76.4 C159.299997,75.1199936 158.33334,74.48 157.08,74.48 C155.82666,74.48 154.873337,75.1199936 154.22,76.4 C153.566663,77.6800064 153.24,79.4933216 153.24,81.84 C153.24,84.1866784 153.566663,86.0066602 154.22,87.3 C154.873337,88.5933398 155.82666,89.24 157.08,89.24 C158.33334,89.24 159.299997,88.5933398 159.98,87.3 C160.660003,86.0066602 161,84.1866784 161,81.84 Z M167.84,81.84 C167.84,83.8933436 167.573336,85.719992 167.04,87.32 C166.506664,88.920008 165.766671,90.2599946 164.82,91.34 C163.873329,92.4200054 162.740007,93.2399972 161.42,93.8 C160.099993,94.3600028 158.666674,94.64 157.12,94.64 C155.546659,94.64 154.100007,94.3600028 152.78,93.8 C151.459993,93.2399972 150.326671,92.4200054 149.38,91.34 C148.433329,90.2599946 147.700003,88.920008 147.18,87.32 C146.659997,85.719992 146.4,83.8933436 146.4,81.84 C146.4,79.7866564 146.659997,77.9666746 147.18,76.38 C147.700003,74.7933254 148.433329,73.4600054 149.38,72.38 C150.326671,71.2999946 151.459993,70.4800028 152.78,69.92 C154.100007,69.3599972 155.546659,69.08 157.12,69.08 C158.666674,69.08 160.099993,69.3599972 161.42,69.92 C162.740007,70.4800028 163.873329,71.2999946 164.82,72.38 C165.766671,73.4600054 166.506664,74.7933254 167.04,76.38 C167.573336,77.9666746 167.84,79.7866564 167.84,81.84 Z M175.04,76.16 L171.04,77.4 C170.639998,77.133332 170.240002,76.7600024 169.84,76.28 C169.439998,75.7999976 169.24,75.1333376 169.24,74.28 C169.24,72.679992 170.213324,71.5600032 172.16,70.92 L176.64,69.4 L178.12,69.4 C179.266672,69.4 180.17333,69.73333 180.84,70.4 C181.50667,71.06667 181.84,71.9733276 181.84,73.12 L181.84,93.96 C181.546665,94.0133336 181.113336,94.0866662 180.54,94.18 C179.966664,94.2733338 179.38667,94.32 178.8,94.32 C178.21333,94.32 177.686669,94.2800004 177.22,94.2 C176.753331,94.1199996 176.360002,93.9600012 176.04,93.72 C175.719998,93.4799988 175.473334,93.1533354 175.3,92.74 C175.126666,92.3266646 175.04,91.78667 175.04,91.12 L175.04,76.16 Z" id="01" fill="#0055FF"></path>
                </g>
            </g>
        </g>
    </g>
</svg>