<?xml version="1.0" encoding="UTF-8"?><svg width="649" height="649" xmlns="http://www.w3.org/2000/svg"><!--Generator: Sketch 50.2 (55047) - http://www.bohemiancoding.com/sketch--><g fill-rule="nonzero" fill="none"><path fill="#F2F6FF" d="M0 0h649v649H0z"/><g opacity=".2"><path d="M318.9 341H275a3.1 3.1 0 0 1-3.1-3.1V275c0-1.7 1.4-3.1 3.1-3.1H319c1.7 0 3.1 1.4 3.1 3.1V338c0 1.7-1.4 3.1-3.1 3.1z" fill="#ECEFF1"/><g fill="#388E3C"><path d="M287.8 290.3h-12.6a3.1 3.1 0 0 1-3.2-3.2c0-1.7 1.4-3.1 3.2-3.1h12.6c1.8 0 3.2 1.4 3.2 3.1 0 1.8-1.4 3.2-3.2 3.2zM287.8 302.8h-12.6a3.1 3.1 0 0 1-3.2-3.2c0-1.7 1.4-3 3.2-3h12.6c1.8 0 3.2 1.3 3.2 3 0 1.8-1.4 3.2-3.2 3.2zM287.8 315.3h-12.6a3.1 3.1 0 0 1-3.2-3.1c0-1.8 1.4-3.2 3.2-3.2h12.6c1.8 0 3.2 1.4 3.2 3.2 0 1.7-1.4 3-3.2 3zM287.8 327.8h-12.6a3.1 3.1 0 0 1-3.2-3.1c0-1.7 1.4-3.2 3.2-3.2h12.6c1.8 0 3.2 1.5 3.2 3.2 0 1.7-1.4 3.1-3.2 3.1zM306.8 290.3h-6.3a3.1 3.1 0 0 1-3.2-3.2c0-1.7 1.5-3.1 3.2-3.1h6.3c1.8 0 3.2 1.4 3.2 3.1 0 1.8-1.4 3.2-3.2 3.2zM306.8 302.8h-6.3a3.1 3.1 0 0 1-3.2-3.2c0-1.7 1.5-3 3.2-3h6.3c1.8 0 3.2 1.3 3.2 3 0 1.8-1.4 3.2-3.2 3.2zM306.8 315.3h-6.3a3.1 3.1 0 0 1-3.2-3.1c0-1.8 1.5-3.2 3.2-3.2h6.3c1.8 0 3.2 1.4 3.2 3.2 0 1.7-1.4 3-3.2 3zM306.8 327.8h-6.3a3.1 3.1 0 0 1-3.2-3.1c0-1.7 1.5-3.2 3.2-3.2h6.3c1.8 0 3.2 1.5 3.2 3.2 0 1.7-1.4 3.1-3.2 3.1z"/></g><path d="M276.9 259.7a3 3 0 0 0-2.6-.6l-49.8 9.4a3.1 3.1 0 0 0-2.5 3v69c0 1.5 1 2.8 2.5 3l49.8 9.4.6.1a3.1 3.1 0 0 0 3.1-3.1V262c0-.9-.4-1.8-1.1-2.4z" fill="#2E7D32"/><path d="M264.2 316.7l-9.8-11.5 10-13c1-1.4.8-3.4-.6-4.5a3 3 0 0 0-4.4.5l-9.2 12.1-7.7-9a3 3 0 0 0-4.4-.3 3.2 3.2 0 0 0-.3 4.5l8.5 10-8.6 11.4c-1.1 1.4-.9 3.3.5 4.4a3 3 0 0 0 4.4-.5l7.9-10.5 9 10.6a3 3 0 0 0 4.4.3 3.2 3.2 0 0 0 .3-4.5z" fill="#FAFAFA"/></g><g opacity=".2"><path d="M575.8 340h-45.5a3.2 3.2 0 0 1-3.3-3.2v-64.6c0-1.8 1.5-3.2 3.3-3.2h45.5c1.7 0 3.2 1.4 3.2 3.2v64.6c0 1.8-1.5 3.2-3.3 3.2z" fill="#ECEFF1"/><g fill="#1565C0"><path d="M543 291.5h-11.2a2.8 2.8 0 0 1-2.8-2.7c0-1.6 1.3-2.8 2.8-2.8H543c1.6 0 2.9 1.2 2.9 2.8 0 1.5-1.3 2.7-2.9 2.7zM543 302.7h-11.2a2.8 2.8 0 0 1-2.8-2.7c0-1.6 1.3-2.8 2.8-2.8H543c1.6 0 2.9 1.2 2.9 2.8 0 1.5-1.3 2.7-2.9 2.7zM543 314h-11.2a2.8 2.8 0 0 1-2.8-2.9c0-1.5 1.3-2.7 2.8-2.7H543c1.6 0 2.9 1.2 2.9 2.7 0 1.6-1.3 2.8-2.9 2.8zM543 324.8h-11.2a2.8 2.8 0 0 1-2.8-2.8c0-1.5 1.3-2.7 2.8-2.7H543c1.6 0 2.9 1.2 2.9 2.7 0 1.6-1.3 2.8-2.9 2.8zM560 291.5h-5.5a2.8 2.8 0 0 1-2.8-2.7c0-1.6 1.2-2.8 2.8-2.8h5.6a2.8 2.8 0 0 1 0 5.5zM560 302.7h-5.5a2.8 2.8 0 0 1-2.8-2.7c0-1.6 1.2-2.8 2.8-2.8h5.6a2.8 2.8 0 0 1 0 5.5zM560 314h-5.5a2.8 2.8 0 0 1-2.8-2.9c0-1.5 1.2-2.7 2.8-2.7h5.6c1.5 0 2.8 1.2 2.8 2.7 0 1.6-1.3 2.8-2.8 2.8zM560 324.8h-5.5a2.8 2.8 0 0 1-2.8-2.8c0-1.5 1.2-2.7 2.8-2.7h5.6c1.5 0 2.8 1.2 2.8 2.7 0 1.6-1.3 2.8-2.8 2.8z"/></g><path d="M531.8 256.8c-.7-.7-1.7-1-2.6-.7l-51.6 9.7a3.2 3.2 0 0 0-2.6 3.1v71.2c0 1.5 1.1 2.9 2.6 3.1l51.6 9.7.6.1c.7 0 1.5-.3 2-.7.8-.7 1.2-1.6 1.2-2.5v-90.6c0-1-.4-1.8-1.2-2.4z" fill="#1565C0"/><path d="M516.8 320.2a3.2 3.2 0 0 1-3.2 2.8c-1.3 0-2.5-.8-3-2l-6.6-17.6-6.6 17.5a3.2 3.2 0 0 1-3.3 2 3.2 3.2 0 0 1-2.9-2.6L488 298c-.2-1.7 1-3.4 2.7-3.6 1.8-.3 3.4 1 3.7 2.7l1.4 10 5.2-13.9c1-2.4 5-2.4 6 0l4.9 13 1.7-15.4c.2-1.7 1.8-3 3.6-2.8 1.7.2 3 1.8 2.8 3.5l-3.2 28.7z" fill="#FAFAFA"/></g><g opacity=".2"><path d="M370 259h51l27 27v63a6 6 0 0 1-6 6h-72a6 6 0 0 1-6-6v-84a6 6 0 0 1 6-6z" fill="#E2574C"/><path d="M448 286h-21a6 6 0 0 1-6-6v-21l27 27z" fill="#B53629"/><path d="M425.5 304.5c1 0 1.5-1 1.5-1.8s-.5-1.7-1.5-1.7h-5.7c-1.1 0-1.8 1-1.8 2v14c0 1.3.7 2 1.7 2s1.7-.7 1.7-2v-3.8h3.5c1 0 1.6-.9 1.6-1.8 0-.8-.6-1.7-1.6-1.7h-3.5v-5.2h4.1zm-19.4-3.5H402c-1 0-1.9.8-1.9 2v14c0 1.5 1.2 2 2 2h4.4c5.2 0 8.6-3.5 8.6-8.8 0-5.6-3.2-9.2-8.9-9.2zm.2 14.5h-2.5v-11h2.3c3.5 0 5 2.3 5 5.6 0 3-1.5 5.4-4.8 5.4zM391 301h-4.2c-1.1 0-1.8.8-1.8 2v14c0 1.3.8 2 1.8 2s1.7-.7 1.7-2v-4h2.6c3.2 0 5.9-2.3 5.9-6 0-3.6-2.6-6-6-6zm0 8.6h-2.5v-5.3h2.4c1.5 0 2.4 1.2 2.4 2.7 0 1.5-1 2.6-2.4 2.6z" fill="#FFF"/></g><g opacity=".2" transform="translate(78 258)" fill="#50D478"><circle cx="41.5" cy="31.5" r="7.5"/><path d="M104.4 59.8a23.5 23.5 0 0 0-13.1-6.3V15c0-4.1-1.7-7.8-4.3-10.6A14.8 14.8 0 0 0 76.4 0H14.9A14.7 14.7 0 0 0 0 14.9l.1 48.7v14.3c0 4.2 1.7 7.8 4.3 10.6 2.8 2.7 6.5 4.3 10.6 4.3h59.5a22.5 22.5 0 0 0 30-1.3 22.3 22.3 0 0 0 0-31.7zm-98.8-45c0-2.4 1-4.8 2.8-6.5 1.7-1.6 4-2.7 6.5-2.7h61.5a9.3 9.3 0 0 1 9.3 9.3v33L70 32.2c-1-1-2.8-1.1-4 0L42.4 56l-16-16c-1-1.1-2.9-1.2-4 0L5.5 56.7v-42zm9.2 72.5c-2.5 0-4.8-1.1-6.5-2.8a9.6 9.6 0 0 1-2.7-6.6V64.7L24.5 46l16 16c1 1 2.8 1 4 0L68 38.2l15.5 15.6a2666148.3 2666148.3 0 0 0-2.4.7l-1.2.4-.9.4-1 .6-1.6 1-.9.4-.5.4c-1 .6-1.8 1.3-2.5 2.2a22.3 22.3 0 0 0-6 20.5l.2 1.1 1 3.2v.1l1.5 2.5H14.8zm85.5.1a16.7 16.7 0 0 1-23.4.2l-1.3-1.3c-.3-.3-.6-.8-1-1l-1-1.9-.6-1.1-.6-1.8c0-.5-.3-1-.4-1.4a17 17 0 0 1 4.6-15.2c3-3 7.2-4.9 11.8-4.9a17 17 0 0 1 11.9 4.9c3 3 4.9 7.2 4.9 11.8 0 4.6-2 8.7-4.9 11.7z"/><path d="M98.2 73.2h-6.4v-6.4a2.8 2.8 0 1 0-5.6 0v6.4h-6.4A2.8 2.8 0 0 0 77 76c0 1.6 1.3 2.8 2.8 2.8h6.4v6.4a2.8 2.8 0 1 0 5.6 0v-6.4h6.4a2.8 2.8 0 1 0 0-5.6z"/></g></g></svg>