<?xml version="1.0" encoding="UTF-8"?>
<svg width="362px" height="363px" viewBox="0 0 362 363" version="1.1" xmlns="http://www.w3.org/2000/svg" xmlns:xlink="http://www.w3.org/1999/xlink">
    <!-- Generator: Sketch 50.2 (55047) - http://www.bohemiancoding.com/sketch -->
    <title>reason</title>
    <desc>Created with Sketch.</desc>
    <defs></defs>
    <g id="Page-1" stroke="none" stroke-width="1" fill="none" fill-rule="evenodd">
        <g id="edit-experience-copy-4" transform="translate(-1715.000000, -837.000000)" fill-rule="nonzero">
            <g id="reason" transform="translate(1725.000000, 847.000000)">
                <g id="Group-20">
                    <path d="M25.845,260.751 C-23.498,180.593 1.472,75.6 81.629,26.245 C161.786,-23.11 266.779,1.859 316.135,82.017 C333.118,109.592 341.884,141.441 341.421,173.825 C338.377,268.068 260.631,342.625 166.351,341.712 L9.045,341.712 L25.602,313.589 C35.463,297.372 35.549,277.052 25.845,260.751 Z" id="Shape" stroke="#1AA8FF" stroke-width="21" fill="#FFFFFF"></path>
                    <path d="M192.16,128.206138 C192.16,140.381138 180.716,148.172138 151.375,149.390138 L150.158,150.607138 L155.515,188.348138 L179.864,188.348138 L182.421,174.104138 C207.257,169.721138 227.345,157.547138 227.345,127.719138 C227.345,96.7961378 204.579,79.0211378 170.977,79.0211378 C149.172,78.4971378 128.281,87.7381378 114,104.222138 L135.427,127.719138 C144.327,117.724138 156.988,111.892138 170.368,111.649138 C184.246,111.649138 192.16,117.736138 192.16,128.206138 Z" id="Shape" fill="#1AA8FF"></path>
                    <rect id="Rectangle-path" fill="#1AA8FF" x="148" y="207" width="37.741" height="37.254"></rect>
                </g>
            </g>
        </g>
    </g>
</svg>