<?xml version="1.0" encoding="UTF-8"?>
<svg width="58px" height="58px" viewBox="0 0 58 58" version="1.1" xmlns="http://www.w3.org/2000/svg" xmlns:xlink="http://www.w3.org/1999/xlink">
    <!-- Generator: Sketch 52.6 (67491) - http://www.bohemiancoding.com/sketch -->
    <title>receipt</title>
    <desc>Created with Sketch.</desc>
    <g id="Page-1" stroke="none" stroke-width="1" fill="none" fill-rule="evenodd">
        <g id="Financat" transform="translate(-371.000000, -239.000000)">
            <g id="receipt" transform="translate(371.000000, 239.000000)">
                <path d="M55,0.5 L3,0.5 C1.35,0.5 0,1.85 0,3.5 C0,5.15 1.35,6.5 3,6.5 L3,3.5 L55,3.5 L55,6.5 C56.65,6.5 58,5.15 58,3.5 C58,1.85 56.65,0.5 55,0.5 Z" id="Path" fill="#3D465B"></path>
                <polygon id="Path" fill="#F0EDE0" points="5 51.5 11 57.5 17 51.5 23 57.5 29 51.5 35 57.5 41 51.5 47 57.5 53 51.5 55 53.5 55 3.5 3 3.5 3 53.5"></polygon>
                <path d="M43,41.5 L28,41.5 C27.448,41.5 27,41.053 27,40.5 C27,39.947 27.448,39.5 28,39.5 L43,39.5 C43.552,39.5 44,39.947 44,40.5 C44,41.053 43.552,41.5 43,41.5 Z" id="Path" fill="#D4C3A5"></path>
                <path d="M48,41.5 C47.74,41.5 47.48,41.39 47.29,41.21 C47.11,41.02 47,40.76 47,40.5 C47,40.229 47.11,39.979 47.29,39.79 C47.67,39.42 48.33,39.42 48.71,39.79 C48.89,39.979 49,40.229 49,40.5 C49,40.76 48.89,41.02 48.71,41.21 C48.52,41.39 48.26,41.5 48,41.5 Z" id="Path" fill="#D4C3A5"></path>
                <path d="M48,27.5 L33,27.5 C32.448,27.5 32,27.053 32,26.5 C32,25.947 32.448,25.5 33,25.5 L48,25.5 C48.552,25.5 49,25.947 49,26.5 C49,27.053 48.552,27.5 48,27.5 Z" id="Path" fill="#D4C3A5"></path>
                <path d="M48,34.5 L38,34.5 C37.448,34.5 37,34.053 37,33.5 C37,32.947 37.448,32.5 38,32.5 L48,32.5 C48.552,32.5 49,32.947 49,33.5 C49,34.053 48.552,34.5 48,34.5 Z" id="Path" fill="#D4C3A5"></path>
                <path d="M30,34.5 L28,34.5 C27.448,34.5 27,34.053 27,33.5 C27,32.947 27.448,32.5 28,32.5 L30,32.5 C30.552,32.5 31,32.947 31,33.5 C31,34.053 30.552,34.5 30,34.5 Z" id="Path" fill="#D4C3A5"></path>
                <path d="M43,20.5 L28,20.5 C27.448,20.5 27,20.053 27,19.5 C27,18.947 27.448,18.5 28,18.5 L43,18.5 C43.552,18.5 44,18.947 44,19.5 C44,20.053 43.552,20.5 43,20.5 Z" id="Path" fill="#D4C3A5"></path>
                <path d="M48,20.5 C47.74,20.5 47.48,20.39 47.29,20.21 C47.11,20.02 47,19.76 47,19.5 C47,19.229 47.11,18.979 47.29,18.79 C47.66,18.42 48.34,18.42 48.71,18.79 C48.89,18.979 49,19.24 49,19.5 C49,19.76 48.89,20.02 48.71,20.21 C48.52,20.39 48.27,20.5 48,20.5 Z" id="Path" fill="#D4C3A5"></path>
                <path d="M29,27.5 C28.74,27.5 28.48,27.39 28.29,27.21 C28.11,27.02 28,26.77 28,26.5 C28,26.229 28.11,25.979 28.29,25.79 C28.67,25.42 29.34,25.42 29.71,25.79 C29.89,25.979 30,26.229 30,26.5 C30,26.77 29.89,27.02 29.71,27.21 C29.52,27.39 29.26,27.5 29,27.5 Z" id="Path" fill="#D4C3A5"></path>
                <path d="M34,34.5 C33.74,34.5 33.48,34.39 33.29,34.21 C33.11,34.02 33,33.76 33,33.5 C33,33.24 33.11,32.979 33.29,32.79 C33.67,32.42 34.34,32.42 34.71,32.79 C34.89,32.97 35,33.229 35,33.5 C35,33.77 34.89,34.02 34.71,34.21 C34.52,34.39 34.26,34.5 34,34.5 Z" id="Path" fill="#D4C3A5"></path>
                <path d="M18,25.5 C18,26.053 18.448,26.5 19,26.5 C19.552,26.5 20,26.053 20,25.5 C20,23.086 18.279,21.066 16,20.601 L16,19.5 C16,18.947 15.552,18.5 15,18.5 C14.448,18.5 14,18.947 14,19.5 L14,20.604 C12.909,20.826 11.915,21.405 11.182,22.272 C10.571,22.994 10.288,23.918 10.388,24.875 C10.49,25.854 10.994,26.762 11.771,27.366 L14,29.1 L14,34.538 C12.839,34.124 12,33.024 12,31.722 C12,31.169 11.552,30.722 11,30.722 C10.448,30.722 10,31.169 10,31.722 C10,34.136 11.721,36.156 14,36.621 L14,37.5 C14,38.053 14.448,38.5 15,38.5 C15.552,38.5 16,38.053 16,37.5 L16,36.618 C17.091,36.396 18.085,35.817 18.819,34.95 C19.43,34.226 19.712,33.302 19.612,32.345 C19.509,31.367 19.006,30.46 18.229,29.857 L16,28.123 L16,22.685 C17.161,23.098 18,24.198 18,25.5 Z M17.001,31.435 C17.35,31.706 17.577,32.115 17.623,32.553 C17.666,32.963 17.548,33.356 17.292,33.658 C16.944,34.069 16.494,34.357 16,34.533 L16,30.655 L17.001,31.435 Z M12.999,25.788 C12.649,25.516 12.423,25.107 12.377,24.668 C12.335,24.259 12.452,23.867 12.708,23.564 C13.056,23.153 13.506,22.865 14,22.689 L14,26.566 L12.999,25.788 Z" id="Shape" fill="#24AE5F" fill-rule="nonzero"></path>
                <g id="Group" transform="translate(5.000000, 9.000000)" fill="#A5A5A4">
                    <path d="M1,2.5 C0.74,2.5 0.48,2.39 0.29,2.21 C0.11,2.02 0,1.76 0,1.5 C0,1.24 0.11,0.979 0.29,0.79 C0.67,0.42 1.34,0.42 1.71,0.79 C1.89,0.979 2,1.24 2,1.5 C2,1.76 1.89,2.02 1.71,2.21 C1.52,2.39 1.26,2.5 1,2.5 Z" id="Path"></path>
                    <path d="M42.17,1.5 C42.17,0.95 42.61,0.5 43.17,0.5 C43.72,0.5 44.17,0.95 44.17,1.5 C44.17,2.05 43.72,2.5 43.17,2.5 C42.61,2.5 42.17,2.05 42.17,1.5 Z M38.33,1.5 C38.33,0.95 38.78,0.5 39.33,0.5 C39.89,0.5 40.33,0.95 40.33,1.5 C40.33,2.05 39.89,2.5 39.33,2.5 C38.78,2.5 38.33,2.05 38.33,1.5 Z M34.5,1.5 C34.5,0.95 34.95,0.5 35.5,0.5 C36.05,0.5 36.5,0.95 36.5,1.5 C36.5,2.05 36.05,2.5 35.5,2.5 C34.95,2.5 34.5,2.05 34.5,1.5 Z M30.67,1.5 C30.67,0.95 31.11,0.5 31.67,0.5 C32.22,0.5 32.67,0.95 32.67,1.5 C32.67,2.05 32.22,2.5 31.67,2.5 C31.11,2.5 30.67,2.05 30.67,1.5 Z M26.83,1.5 C26.83,0.95 27.28,0.5 27.83,0.5 C28.39,0.5 28.83,0.95 28.83,1.5 C28.83,2.05 28.39,2.5 27.83,2.5 C27.28,2.5 26.83,2.05 26.83,1.5 Z M23,1.5 C23,0.95 23.45,0.5 24,0.5 C24.55,0.5 25,0.95 25,1.5 C25,2.05 24.55,2.5 24,2.5 C23.45,2.5 23,2.05 23,1.5 Z M19.17,1.5 C19.17,0.95 19.61,0.5 20.17,0.5 C20.72,0.5 21.17,0.95 21.17,1.5 C21.17,2.05 20.72,2.5 20.17,2.5 C19.61,2.5 19.17,2.05 19.17,1.5 Z M15.33,1.5 C15.33,0.95 15.78,0.5 16.33,0.5 C16.89,0.5 17.33,0.95 17.33,1.5 C17.33,2.05 16.89,2.5 16.33,2.5 C15.78,2.5 15.33,2.05 15.33,1.5 Z M11.5,1.5 C11.5,0.95 11.95,0.5 12.5,0.5 C13.05,0.5 13.5,0.95 13.5,1.5 C13.5,2.05 13.05,2.5 12.5,2.5 C11.95,2.5 11.5,2.05 11.5,1.5 Z M7.67,1.5 C7.67,0.95 8.11,0.5 8.67,0.5 C9.22,0.5 9.67,0.95 9.67,1.5 C9.67,2.05 9.22,2.5 8.67,2.5 C8.11,2.5 7.67,2.05 7.67,1.5 Z M3.83,1.5 C3.83,0.95 4.28,0.5 4.83,0.5 C5.39,0.5 5.83,0.95 5.83,1.5 C5.83,2.05 5.39,2.5 4.83,2.5 C4.28,2.5 3.83,2.05 3.83,1.5 Z" id="Shape" fill-rule="nonzero"></path>
                    <path d="M47,2.5 C46.73,2.5 46.48,2.39 46.29,2.2 C46.11,2.02 46,1.76 46,1.5 C46,1.24 46.11,0.979 46.29,0.79 C46.65,0.42 47.33,0.42 47.71,0.79 C47.89,0.979 48,1.24 48,1.5 C48,1.76 47.89,2.02 47.71,2.21 C47.52,2.39 47.26,2.5 47,2.5 Z" id="Path"></path>
                </g>
            </g>
        </g>
    </g>
</svg>