<?xml version="1.0" encoding="iso-8859-1"?><!--Generator: Adobe Illustrator 19.0.0, SVG Export Plug-In . SVG Version: 6.00 Build 0)--><svg xmlns="http://www.w3.org/2000/svg" viewBox="0 0 512 512"><path d="M485.6 208.6h-47.9A27.9 27.9 0 0 1 418 161l33.9-33.9a16.9 16.9 0 0 0 0-23.8L408.7 60a16.9 16.9 0 0 0-23.8 0l-34 33.9a27.9 27.9 0 0 1-47.5-19.7v-48c0-4.4-1.8-8.7-5-11.9s-7.4-5-11.9-5h-61c-9.3 0-17 7.6-17 17v47.9A27.9 27.9 0 0 1 161 94L127.1 60a16.9 16.9 0 0 0-23.8 0L60 103.3a16.9 16.9 0 0 0 0 23.8l33.9 34a27.9 27.9 0 0 1-19.7 47.5h-48c-9.3 0-16.8 7.6-16.8 16.9v61c0 9.3 7.5 17 16.9 17h47.9A27.9 27.9 0 0 1 94 351L60 384.9a16.9 16.9 0 0 0 0 23.8l43.2 43.2a16.9 16.9 0 0 0 23.8 0l34-33.9a27.9 27.9 0 0 1 47.5 19.7v48c0 9.3 7.6 16.8 16.9 16.8h61a16.9 16.9 0 0 0 17-16.9v-47.9A27.9 27.9 0 0 1 351 418l33.9 33.9a16.9 16.9 0 0 0 23.8 0l43.2-43.2a16.9 16.9 0 0 0 0-23.8l-33.9-34a27.9 27.9 0 0 1 19.7-47.5h48c9.3 0 16.8-7.6 16.8-16.9v-61c0-9.3-7.5-17-16.9-17z" fill="#a4c2f7"/><linearGradient id="a" gradientUnits="userSpaceOnUse" x1="-48.8" y1="652.6" x2="-48" y2="651.9" gradientTransform="matrix(464.5926 0 0 -493.037 22725.5 321823.7)"><stop offset="0" stop-color="#d4e1f4"/><stop offset=".2" stop-color="#d4e1f4"/><stop offset=".2" stop-color="#d4e1f4"/><stop offset=".2" stop-color="#dae4f4"/><stop offset=".2" stop-color="#ebebf4"/><stop offset=".2" stop-color="#f6f1f4"/><stop offset=".2" stop-color="#fdf4f4"/><stop offset=".2" stop-color="#fff5f4"/><stop offset=".3" stop-color="#fff5f4"/><stop offset=".3" stop-color="#fff5f4"/><stop offset=".3" stop-color="#d4e1f4"/><stop offset=".4" stop-color="#d4e1f4"/><stop offset=".4" stop-color="#d4e1f4"/><stop offset=".4" stop-color="#dae4f4"/><stop offset=".4" stop-color="#ebebf4"/><stop offset=".4" stop-color="#f6f1f4"/><stop offset=".4" stop-color="#fdf4f4"/><stop offset=".4" stop-color="#fff5f4"/><stop offset=".5" stop-color="#fff5f4"/><stop offset=".5" stop-color="#fff5f4"/><stop offset=".5" stop-color="#f9f2f4"/><stop offset=".5" stop-color="#e8ebf4"/><stop offset=".5" stop-color="#dde5f4"/><stop offset=".5" stop-color="#d6e2f4"/><stop offset=".5" stop-color="#d4e1f4"/><stop offset=".7" stop-color="#d4e1f4"/><stop offset=".7" stop-color="#d4e1f4"/><stop offset=".7" stop-color="#fff5f4"/><stop offset=".8" stop-color="#fff5f4"/><stop offset=".8" stop-color="#fff5f4"/><stop offset=".9" stop-color="#d4e1f4"/></linearGradient><path d="M457.2 208.6h-47.9a27.9 27.9 0 0 1-19.7-47.6l33.9-33.9a16.9 16.9 0 0 0 0-23.8l-38.7-38.6A113.5 113.5 0 0 0 335.5 98a9.8 9.8 0 0 1-15.4-1.7c-15.2 14-16.7 1.6-16.7-22v-48a16.9 16.9 0 0 0-16.9-16.8h-61a16.9 16.9 0 0 0-17 16.9v47.9A27.9 27.9 0 0 1 161 94L127.1 60a16.9 16.9 0 0 0-23.8 0L60 103.3a16.9 16.9 0 0 0 0 23.8l33.9 34a27.9 27.9 0 0 1-19.7 47.5h-48a16.9 16.9 0 0 0-16.8 16.9v61c0 9.3 7.5 17 16.9 17h47.9A27.9 27.9 0 0 1 94 351L60 384.9a16.9 16.9 0 0 0 0 23.8l43.2 43.2a16.9 16.9 0 0 0 23.8 0l34-33.9a27.9 27.9 0 0 1 47.5 19.7v48c0 9.3 7.6 16.8 16.9 16.8h61c9.3 0 17-7.5 17-16.9v-47.9c0-21.8 1.1-34 13.3-24.8 2.4-9.3 17.4-12 19.5-1a9.7 9.7 0 0 1 9.1 4.9c4.4 6.5 10.2 12 17.1 15.8 4 2.6 5.8 7.6 4.3 12.1 4.6 2.1 9.2 3.9 14 5.3.4 0 .7.2 1 .4l41.7-41.7a16.9 16.9 0 0 0 0-23.8l-34-34a27.9 27.9 0 0 1 19.8-47.5h47.9c9.3 0 16.9-7.6 16.9-16.9v-61a16.9 16.9 0 0 0-17-17z" fill="url(#a)"/><circle cx="256" cy="256" r="75.9" fill="#7facfa"/><ellipse cx="241.8" cy="256" rx="61.6" ry="75.9" fill="#a4c2f7"/><g fill="#fff"><path d="M129.4 446.4c-.8.2-1.5.5-2.2 1l-38.7-38.7a16.9 16.9 0 0 1 0-23.8l34-34a27.9 27.9 0 0 0-19.8-47.5H74.3A27.9 27.9 0 0 1 94 351L60 384.9a16.9 16.9 0 0 0 0 23.8l43.2 43.2a16.9 16.9 0 0 0 23.8 0l7.3-7.2-5 1.7zM94 161a27.9 27.9 0 0 1-19.7 47.6h28.4a27.9 27.9 0 0 0 19.7-47.6l-33.9-33.9a16.9 16.9 0 0 1 0-23.8l41-41-2.4-2.2a16.9 16.9 0 0 0-23.8 0L60 103.3a16.9 16.9 0 0 0 0 23.8l33.9 34zM26.4 303.4h28.4A16.9 16.9 0 0 1 38 286.5v-61c0-9.4 7.6-17 17-17H26.3c-9.4 0-17 7.6-17 17v61a16.9 16.9 0 0 0 17 16.9z"/></g><g fill="#428dff"><path d="M286.5 512h-61a26.4 26.4 0 0 1-26.4-26.4v-47.9a18.4 18.4 0 0 0-31.4-13L134 458.6a27 27 0 0 1-37.3 0l-43.2-43.2a26.4 26.4 0 0 1 0-37.3l33.9-33.8a18.4 18.4 0 0 0-13-31.4h-48A26.4 26.4 0 0 1 0 286.5v-61A26.4 26.4 0 0 1 26.4 199h47.9a18.4 18.4 0 0 0 13-31.4L53.4 134a26.4 26.4 0 0 1 0-37.3l43.2-43.2a27 27 0 0 1 37.3 0l33.8 33.9a18.4 18.4 0 0 0 31.4-13v-48A26.4 26.4 0 0 1 225.5 0h61A26.4 26.4 0 0 1 313 26.4v47.9a18.4 18.4 0 0 0 31.4 13L378 53.4a27 27 0 0 1 37.3 0l43.2 43.2a26.4 26.4 0 0 1 0 37.3l-33.9 33.8a18.4 18.4 0 0 0 13 31.4h48a26.4 26.4 0 0 1 26.3 26.4v61a26.4 26.4 0 0 1-26.4 26.4h-47.9a18.4 18.4 0 0 0-13 31.4l33.9 33.8a26.4 26.4 0 0 1 0 37.3l-43.2 43.2a27 27 0 0 1-37.3 0l-33.8-33.9a18.4 18.4 0 0 0-31.4 13v48a26.4 26.4 0 0 1-26.4 26.3zm-106-111.7a37.8 37.8 0 0 1 37.6 37.4v48c0 4 3.3 7.3 7.4 7.3h61c4.1 0 7.4-3.3 7.4-7.4v-47.9a37.4 37.4 0 0 1 63.8-26.4l33.9 33.9a7.4 7.4 0 0 0 10.4 0l43.2-43.2a7.4 7.4 0 0 0 0-10.4l-33.9-34a37.4 37.4 0 0 1 26.4-63.7h48c4 0 7.3-3.3 7.3-7.4v-61c0-4.1-3.3-7.4-7.4-7.4h-47.9a37.4 37.4 0 0 1-26.4-63.8l33.9-33.9a7.4 7.4 0 0 0 0-10.4L402 66.8a7.4 7.4 0 0 0-10.4 0l-34 33.9A37.4 37.4 0 0 1 294 74.3v-48c0-4-3.3-7.3-7.4-7.3h-61c-4.1 0-7.4 3.3-7.4 7.4v47.9a37.3 37.3 0 0 1-63.8 26.4l-33.9-33.9a7.4 7.4 0 0 0-10.4 0L66.8 110a7.4 7.4 0 0 0 0 10.4l33.9 33.9a37.4 37.4 0 0 1-26.4 63.8h-48c-4 0-7.3 3.3-7.3 7.4v61c0 4.1 3.3 7.4 7.4 7.4h47.9a37.4 37.4 0 0 1 26.4 63.8l-33.9 33.9a7.4 7.4 0 0 0 0 10.4l43.2 43.2a7.4 7.4 0 0 0 10.4 0l34-33.9c6.8-7 16.2-11 26-11z"/><path d="M256 341.3a85.3 85.3 0 1 1 0-170.6 85.3 85.3 0 0 1 0 170.6zm0-151.7a66.4 66.4 0 1 0 0 132.8 66.4 66.4 0 0 0 0-132.8z"/></g></svg>