<?xml version="1.0" encoding="UTF-8"?>
<svg width="366px" height="536px" viewBox="0 0 366 536" version="1.1" xmlns="http://www.w3.org/2000/svg" xmlns:xlink="http://www.w3.org/1999/xlink">
    <!-- Generator: Sketch 50.2 (55047) - http://www.bohemiancoding.com/sketch -->
    <title>bg copy</title>
    <desc>Created with Sketch.</desc>
    <defs></defs>
    <g id="Page-1" stroke="none" stroke-width="1" fill="none" fill-rule="evenodd">
        <g id="Desktop-HD" transform="translate(-1074.000000, -4043.000000)" fill="#2DAAE4">
            <g id="Footer" transform="translate(-31.000000, 4027.000000)">
                <g id="bg-copy" transform="translate(1339.000000, 289.500000) scale(1, -1) translate(-1339.000000, -289.500000) translate(1081.000000, 2.000000)">
                    <path d="M137.827571,72.5115002 L238.238732,82.7232498 C242.208142,83.1269361 246.208263,83.1269361 250.177673,82.7232498 L359.566931,71.5984336 C391.984519,68.3015861 420.936789,91.9086104 424.233637,124.326198 C424.528345,127.224042 424.608053,130.139731 424.472106,133.049348 L419.503014,239.400492 C419.420027,241.176616 419.417373,242.955583 419.495058,244.731946 L424.78619,365.719527 C426.209855,398.273212 400.973989,425.817296 368.420304,427.240962 C366.241152,427.336262 364.058391,427.310644 361.882076,427.164226 L248.527165,419.537926 C245.895088,419.360845 243.254099,419.360492 240.621975,419.53687 L135.172537,426.603024 C102.66065,428.781642 74.5384388,404.191668 72.3598212,371.67978 C72.0539588,367.115343 72.2799963,362.530819 73.0333782,358.018607 L89.9647634,256.611869 C91.0464573,250.133306 91.0387601,243.519592 89.9419892,237.043564 L73.6864515,141.060603 C68.2454153,108.933289 89.8789181,78.478123 122.006233,73.0370868 C127.232458,72.1519807 132.554126,71.9751943 137.827571,72.5115002 Z" id="Path" opacity="0.0705357143" transform="translate(248.535692, 249.294219) rotate(-322.000000) translate(-248.535692, -249.294219) "></path>
                    <path d="M131.698702,151.877541 C169.05615,157.345608 212.897977,160.079642 263.224184,160.079642 C316.786404,160.079642 363.003534,156.982703 401.875573,150.788825 L401.875573,150.788826 C421.510132,147.660252 439.963298,161.040996 443.091872,180.675555 C443.513154,183.319469 443.638188,186.002127 443.464655,188.673763 C438.947219,258.222106 437.257151,301.602631 438.394452,318.81534 C439.574791,336.67943 441.775557,385.70468 444.99675,465.891089 L444.996751,465.891089 C445.794803,485.757318 430.336992,502.509027 410.470763,503.30708 C408.717806,503.377498 406.962046,503.319684 405.217518,503.134098 C360.643376,498.392237 313.434399,496.021306 263.590587,496.021306 C216.49165,496.021306 171.619401,498.138295 128.973839,502.372272 L128.973839,502.372272 C109.188861,504.336583 91.5575779,489.890078 89.5932666,470.1051 C89.2364813,466.511479 89.422443,462.884629 90.1449069,459.346345 C103.79142,392.512224 110.614676,347.255143 110.614676,323.575103 C110.614676,300.527346 104.150932,257.586546 91.2234439,194.752704 L91.2234437,194.752704 C87.2167733,175.278349 99.7558091,156.243217 119.230164,152.236547 C123.33379,151.392263 127.553296,151.270771 131.698702,151.877541 Z" id="Rectangle-2" opacity="0.172154018" transform="translate(267.221726, 326.835564) rotate(37.000000) translate(-267.221726, -326.835564) "></path>
                </g>
            </g>
        </g>
    </g>
</svg>