<?xml version="1.0" encoding="UTF-8"?>
<svg width="52px" height="52px" viewBox="0 0 52 52" version="1.1" xmlns="http://www.w3.org/2000/svg" xmlns:xlink="http://www.w3.org/1999/xlink">
    <!-- Generator: Sketch 52.6 (67491) - http://www.bohemiancoding.com/sketch -->
    <title>success</title>
    <desc>Created with Sketch.</desc>
    <g id="Page-1" stroke="none" stroke-width="1" fill="none" fill-rule="evenodd">
        <g id="success" fill="#50D478" fill-rule="nonzero">
            <path d="M26,0 C11.664,0 0,11.663 0,26 C0,40.337 11.664,52 26,52 C40.336,52 52,40.337 52,26 C52,11.663 40.336,0 26,0 Z M40.495,17.329 L24.495,35.329 C24.101,35.772 23.552,36 22.999,36 C22.56,36 22.119,35.856 21.75,35.562 L11.75,27.562 C10.888,26.873 10.748,25.614 11.438,24.751 C12.127,23.888 13.387,23.748 14.249,24.438 L22.766,31.251 L37.505,14.67 C38.237,13.844 39.503,13.77 40.328,14.504 C41.154,15.239 41.229,16.503 40.495,17.329 Z" id="Shape"></path>
        </g>
    </g>
</svg>