<?xml version="1.0" encoding="UTF-8"?>
<svg width="226px" height="47px" viewBox="0 0 226 47" version="1.1" xmlns="http://www.w3.org/2000/svg" xmlns:xlink="http://www.w3.org/1999/xlink">
    <!-- Generator: Sketch 50.2 (55047) - http://www.bohemiancoding.com/sketch -->
    <title>tomplabs_color</title>
    <desc>Created with Sketch.</desc>
    <defs></defs>
    <g id="Page-1" stroke="none" stroke-width="1" fill="none" fill-rule="evenodd">
        <g id="tomplabs_color">
            <g id="fcb_cover-copy">
                <g id="icon-mobile-development">
                    <ellipse id="Oval" fill="#1A61FF" fill-rule="nonzero" opacity="0.06" cx="23.5162162" cy="23.5" rx="23.5162162" ry="23.5"></ellipse>
                    <g id="Group-2" transform="translate(14.964865, 7.019481)">
                        <path d="M7.23575884,3.18703428 C7.23575884,3.77331064 6.75749871,4.24937904 6.16683992,4.24937904 C5.57618112,4.24937904 5.097921,3.77406035 5.097921,3.18703428 C5.097921,2.6000082 5.57618112,2.12468952 6.16683992,2.12468952 C6.75674436,2.12468952 7.23575884,2.6000082 7.23575884,3.18703428 Z" id="Shape" fill="#0055FF" fill-rule="nonzero"></path>
                        <path d="M9.53804574,0.653750621 C9.53804574,1.01462096 9.24335301,1.30750124 8.88024948,1.30750124 C8.51714595,1.30750124 8.22245322,1.01462096 8.22245322,0.653750621 C8.22245322,0.292880278 8.51714595,0 8.88024948,0 C9.24335301,1.65899198e-16 9.53804574,0.292880278 9.53804574,0.653750621 Z" id="Shape" fill="#0055FF" fill-rule="nonzero"></path>
                        <path d="M10.195842,5.96547476 C10.195842,6.7324635 9.56976027,7.35469449 8.79802495,7.35469449 C8.02552704,7.35469449 7.4002079,6.7324635 7.4002079,5.96547476 C7.4002079,5.19772813 8.02628962,4.57625504 8.79802495,4.57625504 C9.56976027,4.57549714 10.195842,5.19772813 10.195842,5.96547476 Z" id="Shape" fill="#0055FF" fill-rule="nonzero"></path>
                        <path d="M1.70456912,29.9090909 C0.716881348,29.9090909 0,29.3529029 0,28.5861829 C0,27.8751511 0.308061317,27.411175 0.357453179,27.3411828 L5.9426367,17.9066794 L5.9426367,11.7911115 C5.43390491,11.2810295 5.25143915,10.9449559 5.35205658,10.7060936 C5.3876183,10.6217974 5.49105768,10.4804243 5.78627784,10.4804243 C5.80927949,10.4804243 5.83002432,10.4812575 5.8472408,10.4825074 C5.91977559,10.4673702 6.00670417,10.4600099 6.1063341,10.4600099 C6.2677732,10.4600099 6.42018134,10.4794522 6.46675051,10.4861182 L10.6359522,10.4861182 C10.6825214,10.4794522 10.83507,10.4600099 10.9965099,10.4600099 C11.0959985,10.4600099 11.1829271,10.4673702 11.2554619,10.4825074 C11.2728197,10.4812575 11.2934232,10.4804243 11.3165661,10.4804243 C11.611645,10.4804243 11.7152257,10.6217974 11.7506461,10.7060936 C11.8512636,10.9449559 11.6687978,11.2810295 11.160066,11.7911115 L11.160066,17.9066794 L16.7449677,27.3411828 C16.7946414,27.411175 17.1027027,27.8751511 17.1027027,28.5861829 C17.1027027,29.3529029 16.3856801,29.9090909 15.3979923,29.9090909 L1.70456912,29.9090909 Z" id="Fill-523" stroke="#33334F" stroke-width="2"></path>
                        <path d="M2.98658647,25.9304996 C2.98658647,25.9304996 2.69478966,26.4524485 2.8326162,26.8341488 C2.97044274,27.2159545 3.0596187,27.4574059 4.29226141,27.4574059 C5.52479443,27.4574059 13.1316207,27.4574059 13.1316207,27.4574059 C13.1316207,27.4574059 13.942657,27.4810446 14.0966273,26.8651744 C14.2507073,26.2496208 14.0073417,25.9536106 13.5208298,25.2209193 C13.0342083,24.4887556 11.986843,22.5524896 11.6917684,22.3013684 C11.3966946,22.0502473 10.7554008,22.3300442 10.1149179,22.3223405 C9.4742164,22.3144258 9.29994561,21.7452399 7.89339068,22.3223405 C6.4868365,22.8994412 5.52249931,22.103881 5.2956065,22.3611618 L2.98658647,25.9304996 Z" id="Fill-524" fill="#0055FF" fill-rule="nonzero"></path>
                    </g>
                </g>
                <g id="tomplabs_color" transform="translate(53.140541, 8.545455)" fill="#33334F" fill-rule="nonzero">
                    <path d="M14.417586,21.6358988 L15.7692347,26.8480131 C14.3424944,27.672952 12.1648382,28.160416 10.0998194,28.160416 C5.74450692,28.1979132 2.81593476,25.6855991 2.81593476,21.4484127 L2.81593476,13.3115149 L0,13.3115149 L0,8.47437285 L2.81593476,8.47437285 L2.81593476,2.81229187 L10.3626399,2.81229187 L10.3626399,8.47437285 L15.3937767,8.47437285 L15.3937767,13.3115149 L10.3626399,13.3115149 L10.3626399,20.2859987 C10.3626399,21.5984016 11.0384643,22.2358544 12.0897466,22.2358544 C12.6904793,22.2358544 13.5164869,21.9733738 14.417586,21.6358988 Z M26.6144078,7.16196997 C33.4852886,7.16196997 37.9532385,11.2866647 37.9532385,17.6236957 C37.9532385,23.9232295 33.4852886,28.0854215 26.6144078,28.0854215 C19.743527,28.0854215 15.2380314,23.9232295 15.2380314,17.6236957 C15.2380314,11.2866647 19.743527,7.16196997 26.6144078,7.16196997 Z M26.6144078,13.161526 C24.36166,13.161526 22.8973739,14.99889 22.8973739,17.6986902 C22.8973739,20.4359876 24.36166,22.2358544 26.6144078,22.2358544 C28.8296098,22.2358544 30.2938959,20.4359876 30.2938959,17.6986902 C30.2938959,14.99889 28.8296098,13.161526 26.6144078,13.161526 Z M66.7077567,7.12447275 C71.0255233,7.12447275 73.9540955,10.161748 73.9540955,14.8863983 L73.9540955,27.8229409 L66.3698445,27.8229409 L66.3698445,17.0612374 C66.3698445,15.0363872 65.2434706,13.7614816 63.5539098,13.7614816 C61.6015283,13.7989788 60.362517,15.4113595 60.362517,17.7361874 L60.362517,27.8229409 L52.7782661,27.8229409 L52.7782661,17.0612374 C52.7782661,15.0363872 51.6518922,13.7614816 49.9623313,13.7614816 C47.9724041,13.7989788 46.7333928,15.4113595 46.7333928,17.7361874 L46.7333928,27.8229409 L39.1491418,27.8229409 L39.1491418,7.42445055 L46.7333928,7.42445055 L46.7333928,10.5367202 C48.1225873,8.32438395 50.3002435,7.12447275 53.0786324,7.12447275 C56.2700252,7.12447275 58.710502,8.77435065 59.7993301,11.5491453 C61.113433,8.6993562 63.516364,7.12447275 66.7077567,7.12447275 Z M89.530039,7.16196997 C95.2370002,7.16196997 98.9915798,11.3616592 98.9915798,17.7361874 C98.9915798,23.998224 95.3496376,28.0854215 89.717768,28.0854215 C87.314837,28.0854215 85.3249098,27.1479909 83.9357153,25.4606158 L83.9357153,35.0974026 L76.3514643,35.0974026 L76.3514643,7.42445055 L83.9357153,7.42445055 L83.9357153,9.78677572 C85.287364,8.0994006 87.2397454,7.16196997 89.530039,7.16196997 Z M87.6152034,22.0858655 C89.8679512,22.0858655 91.3322373,20.2485015 91.3322373,17.5487013 C91.3322373,14.8489011 89.8679512,13.0115371 87.6152034,13.0115371 C85.4375472,13.0115371 83.9357153,14.8489011 83.9357153,17.5487013 C83.9357153,20.2485015 85.4375472,22.0858655 87.6152034,22.0858655 Z M107.959463,27.8229409 L100.375212,27.8229409 L100.375212,0 L107.959463,0 L107.959463,27.8229409 Z M120.569289,7.12447275 C126.313796,7.12447275 129.730463,9.86177017 129.730463,14.5864205 L129.730463,27.8229409 L122.296395,27.8229409 L122.296395,25.5731074 C121.057384,27.2229853 119.029911,28.160416 116.326614,28.160416 C111.971301,28.160416 109.418187,25.5731074 109.418187,21.7483905 C109.418187,17.8111819 112.15903,15.6363428 117.302804,15.5613484 L122.296395,15.5613484 L122.296395,15.4863539 C122.296395,13.7989788 121.09493,12.7865537 118.76709,12.7865537 C117.152621,12.7865537 114.862328,13.2740176 112.60958,14.2489455 L110.73229,9.22431735 C114.073866,7.87441725 117.377896,7.12447275 120.569289,7.12447275 Z M118.842182,23.2107823 C120.38156,23.2107823 121.733208,22.3858433 122.296395,21.1109377 L122.296395,19.2735736 L118.842182,19.2735736 C117.34035,19.2735736 116.551888,19.9110265 116.551888,21.1859321 C116.551888,22.4608378 117.377896,23.2107823 118.842182,23.2107823 Z M145.306407,7.16196997 C151.013368,7.16196997 154.767948,11.3616592 154.767948,17.7361874 C154.767948,23.998224 151.126005,28.0854215 145.494136,28.0854215 C143.091205,28.0854215 141.101277,27.1479909 139.712083,25.4606158 L139.712083,27.8229409 L132.127832,27.8229409 L132.127832,0 L139.712083,0 L139.712083,9.78677572 C141.063732,8.0994006 143.016113,7.16196997 145.306407,7.16196997 Z M143.391571,22.0858655 C145.644319,22.0858655 147.108605,20.2485015 147.108605,17.5487013 C147.108605,14.8489011 145.644319,13.0115371 143.391571,13.0115371 C141.213915,13.0115371 139.712083,14.8489011 139.712083,17.5487013 C139.712083,20.2485015 141.213915,22.0858655 143.391571,22.0858655 Z M163.886014,7.08697552 C166.964769,7.08697552 170.08107,7.9494117 172.859459,9.56179237 L170.343891,14.3239399 C167.565502,12.8990454 165.275208,12.1865981 163.660739,12.1865981 C162.722094,12.1865981 162.121362,12.5240731 162.121362,13.161526 C162.121362,15.4488567 172.784368,14.4364316 172.784368,21.4109155 C172.784368,25.6106047 169.142426,28.160416 163.810922,28.160416 C160.206526,28.160416 156.86495,27.1854881 154.199198,25.2731296 L156.527038,20.5109821 C159.080152,22.16086 161.670812,23.0232961 163.92356,23.0232961 C164.937296,23.0232961 165.613121,22.7233183 165.613121,22.0858655 C165.613121,19.7610376 155.175389,20.8859543 155.175389,13.9114705 C155.175389,9.63678682 158.74224,7.08697552 163.886014,7.08697552 Z" id="tomplabs"></path>
                </g>
            </g>
        </g>
    </g>
</svg>