<?xml version="1.0" encoding="UTF-8"?>
<svg width="649px" height="649px" viewBox="0 0 649 649" version="1.1" xmlns="http://www.w3.org/2000/svg" xmlns:xlink="http://www.w3.org/1999/xlink">
    <!-- Generator: Sketch 50.2 (55047) - http://www.bohemiancoding.com/sketch -->
    <title>upload_pdf_file_done copy</title>
    <desc>Created with Sketch.</desc>
    <defs></defs>
    <g id="Page-1" stroke="none" stroke-width="1" fill="none" fill-rule="evenodd">
        <g id="upload_pdf_file_done-copy" fill-rule="nonzero">
            <g id="Group-Copy" fill="#F2F6FF">
                <rect id="Rectangle" x="0" y="0" width="649" height="649"></rect>
            </g>
            <g id="excel-(1)" transform="translate(170.000000, 179.000000)">
                <path d="M300.3125,252 L164.6875,252 C159.34,252 155,247.662545 155,242.318182 C155,236.973818 155,54.0261818 155,48.6818182 C155,43.3374545 159.34,39 164.6875,39 L300.3125,39 C305.66,39 310,43.3374545 310,48.6818182 L310,242.318182 C310,247.662545 305.66,252 300.3125,252 Z" id="Shape" fill="#ECEFF1"></path>
                <g id="Group" transform="translate(155.000000, 77.000000)" fill="#388E3C">
                    <path d="M48.3333333,19.3488711 L9.66666667,19.3488711 C4.33066667,19.3488711 0,15.0162133 0,9.67776 C0,4.33930667 4.33066667,0.00664888889 9.66666667,0.00664888889 L48.3333333,0.00664888889 C53.6693333,0.00664888889 58,4.33930667 58,9.67776 C58,15.0162133 53.6693333,19.3488711 48.3333333,19.3488711 Z" id="Shape"></path>
                    <path d="M48.3333333,58.0333156 L9.66666667,58.0333156 C4.33066667,58.0333156 0,53.7006578 0,48.3622044 C0,43.0237511 4.33066667,38.6910933 9.66666667,38.6910933 L48.3333333,38.6910933 C53.6693333,38.6910933 58,43.0237511 58,48.3622044 C58,53.7006578 53.6693333,58.0333156 48.3333333,58.0333156 Z" id="Shape"></path>
                    <path d="M48.3333333,96.71776 L9.66666667,96.71776 C4.33066667,96.71776 0,92.3851022 0,87.0466489 C0,81.7081956 4.33066667,77.3755378 9.66666667,77.3755378 L48.3333333,77.3755378 C53.6693333,77.3755378 58,81.7081956 58,87.0466489 C58,92.3851022 53.6693333,96.71776 48.3333333,96.71776 Z" id="Shape"></path>
                    <path d="M48.3333333,135.402204 L9.66666667,135.402204 C4.33066667,135.402204 0,131.069547 0,125.731093 C0,120.39264 4.33066667,116.059982 9.66666667,116.059982 L48.3333333,116.059982 C53.6693333,116.059982 58,120.39264 58,125.731093 C58,131.069547 53.6693333,135.402204 48.3333333,135.402204 Z" id="Shape"></path>
                    <path d="M106.333333,19.3488711 L87,19.3488711 C81.664,19.3488711 77.3333333,15.0162133 77.3333333,9.67776 C77.3333333,4.33930667 81.664,0.00664888889 87,0.00664888889 L106.333333,0.00664888889 C111.669333,0.00664888889 116,4.33930667 116,9.67776 C116,15.0162133 111.669333,19.3488711 106.333333,19.3488711 Z" id="Shape"></path>
                    <path d="M106.333333,58.0333156 L87,58.0333156 C81.664,58.0333156 77.3333333,53.7006578 77.3333333,48.3622044 C77.3333333,43.0237511 81.664,38.6910933 87,38.6910933 L106.333333,38.6910933 C111.669333,38.6910933 116,43.0237511 116,48.3622044 C116,53.7006578 111.669333,58.0333156 106.333333,58.0333156 Z" id="Shape"></path>
                    <path d="M106.333333,96.71776 L87,96.71776 C81.664,96.71776 77.3333333,92.3851022 77.3333333,87.0466489 C77.3333333,81.7081956 81.664,77.3755378 87,77.3755378 L106.333333,77.3755378 C111.669333,77.3755378 116,81.7081956 116,87.0466489 C116,92.3851022 111.669333,96.71776 106.333333,96.71776 Z" id="Shape"></path>
                    <path d="M106.333333,135.402204 L87,135.402204 C81.664,135.402204 77.3333333,131.069547 77.3333333,125.731093 C77.3333333,120.39264 81.664,116.059982 87,116.059982 L106.333333,116.059982 C111.669333,116.059982 116,120.39264 116,125.731093 C116,131.069547 111.669333,135.402204 106.333333,135.402204 Z" id="Shape"></path>
                </g>
                <path d="M170.500667,2.24397008 C168.296667,0.401052859 165.338667,-0.394311416 162.554667,0.187662444 L7.888,29.2863554 C3.306,30.1399171 0,34.1361376 0,38.8113276 L0,252.201743 C0,256.857534 3.306,260.873153 7.888,261.726715 L162.554667,290.825408 C163.134667,290.941803 163.734,291 164.333333,291 C166.576,291 168.760667,290.224035 170.500667,288.7691 C172.724,286.926183 174,284.171507 174,281.300436 L174,9.71263461 C174,6.82216444 172.724,4.0868873 170.500667,2.24397008 Z" id="Shape" fill="#2E7D32"></path>
                <path d="M132.605568,177.870757 L102.042111,142.713288 L132.953539,102.711209 C136.239933,98.4697436 135.466664,92.3604767 131.271679,89.0529118 C127.076695,85.745347 121.006533,86.5235975 117.700808,90.7456068 L89.0705238,127.790334 L64.9445311,100.045701 C61.4068255,95.9598856 55.2980004,95.5902166 51.315665,99.1312566 C47.2946663,102.672297 46.8887,108.820476 50.407074,112.847923 L76.9881957,143.43317 L50.0397712,178.298795 C46.753378,182.54026 47.526647,188.649527 51.7216313,191.957092 C53.50015,193.338487 55.607308,194 57.6758025,194 C60.5562296,194 63.3979931,192.715887 65.3118339,190.244941 L89.9597832,158.336668 L118.068111,190.653523 C119.981952,192.871537 122.64973,194 125.33684,194 C127.598652,194 129.860463,193.202293 131.696977,191.587423 C135.717976,188.046383 136.123942,181.898204 132.605568,177.870757 Z" id="Shape" fill="#FAFAFA"></path>
            </g>
            <g id="success" transform="translate(510.000000, 64.000000)" fill="#50D478">
                <path d="M37.5,0 C16.8230769,0 0,16.8216346 0,37.5 C0,58.1783654 16.8230769,75 37.5,75 C58.1769231,75 75,58.1783654 75,37.5 C75,16.8216346 58.1769231,0 37.5,0 Z M58.40625,24.99375 L35.3293269,50.9552885 C34.7610577,51.5942308 33.9692308,51.9230769 33.1716346,51.9230769 C32.5384615,51.9230769 31.9024038,51.7153846 31.3701923,51.2913462 L16.9471154,39.7528846 C15.7038462,38.7591346 15.5019231,36.9432692 16.4971154,35.6985577 C17.4908654,34.4538462 19.3081731,34.2519231 20.5514423,35.2471154 L32.8355769,45.0735577 L54.09375,21.1586538 C55.1495192,19.9673077 56.9754808,19.8605769 58.1653846,20.9192308 C59.3567308,21.9793269 59.4649038,23.8024038 58.40625,24.99375 Z" id="Shape"></path>
            </g>
        </g>
    </g>
</svg>