<?xml version="1.0" encoding="UTF-8"?>
<svg width="649px" height="649px" viewBox="0 0 649 649" version="1.1" xmlns="http://www.w3.org/2000/svg" xmlns:xlink="http://www.w3.org/1999/xlink">
    <!-- Generator: Sketch 52.6 (67491) - http://www.bohemiancoding.com/sketch -->
    <title>Group</title>
    <desc>Created with Sketch.</desc>
    <g id="Page-1" stroke="none" stroke-width="1" fill="none" fill-rule="evenodd">
        <g id="Group">
            <rect id="Rectangle" fill="#F2F6FF" x="0" y="0" width="649" height="649"></rect>
            <g id="pdf" transform="translate(189.000000, 179.000000)">
                <path d="M19.658,0 L183.888,0 L270.937,86.711 L270.937,289.938 C270.937,300.617 262.278,309.267 251.608,309.267 L19.658,309.267 C8.988,309.267 0.329,300.617 0.329,289.938 L0.329,19.329 C0.329,8.65 8.989,0 19.658,0 Z" id="Path" fill="#E2574C"></path>
                <path d="M270.658,86.981 L203.286,86.981 C192.616,86.981 183.957,78.322 183.957,67.652 L183.957,0.193 L270.658,86.981 Z" id="Path" fill="#B53629"></path>
                <path d="M198.434,146.544 C201.672,146.544 203.257,143.722 203.257,140.987 C203.257,138.155 201.604,135.42 198.434,135.42 L179.994,135.42 C176.389,135.42 174.379,138.406 174.379,141.702 L174.379,187.019 C174.379,191.059 176.679,193.301 179.791,193.301 C182.884,193.301 185.194,191.059 185.194,187.019 L185.194,174.581 L196.347,174.581 C199.807,174.581 201.537,171.749 201.537,168.937 C201.537,166.183 199.807,163.447 196.347,163.447 L185.194,163.447 L185.194,146.544 C185.194,146.544 198.434,146.544 198.434,146.544 Z M136.107,135.42 L122.615,135.42 C118.952,135.42 116.352,137.933 116.352,141.663 L116.352,187.058 C116.352,191.687 120.092,193.137 122.769,193.137 L136.928,193.137 C153.686,193.137 164.752,182.11 164.752,165.09 C164.743,147.095 154.325,135.42 136.107,135.42 Z M136.755,181.946 L128.53,181.946 L128.53,146.612 L135.943,146.612 C147.164,146.612 152.044,154.141 152.044,164.53 C152.044,174.253 147.25,181.946 136.755,181.946 Z M87.33,135.42 L73.964,135.42 C70.185,135.42 68.078,137.913 68.078,141.702 L68.078,187.019 C68.078,191.059 70.494,193.301 73.741,193.301 C76.988,193.301 79.404,191.059 79.404,187.019 L79.404,173.788 L87.783,173.788 C98.124,173.788 106.658,166.462 106.658,154.681 C106.659,143.152 98.425,135.42 87.33,135.42 Z M87.108,163.158 L79.405,163.158 L79.405,146.061 L87.108,146.061 C91.863,146.061 94.888,149.772 94.888,154.614 C94.878,159.447 91.863,163.158 87.108,163.158 Z" id="Shape" fill="#FFFFFF" fill-rule="nonzero"></path>
            </g>
        </g>
    </g>
</svg>