<?xml version="1.0" encoding="UTF-8"?>
<svg width="88px" height="95px" viewBox="0 0 88 95" version="1.1" xmlns="http://www.w3.org/2000/svg" xmlns:xlink="http://www.w3.org/1999/xlink">
    <!-- Generator: Sketch 50.2 (55047) - http://www.bohemiancoding.com/sketch -->
    <title>envelope (1)</title>
    <desc>Created with Sketch.</desc>
    <defs></defs>
    <g id="Page-1" stroke="none" stroke-width="1" fill="none" fill-rule="evenodd">
        <g id="Business-page-loggedin" transform="translate(-1064.000000, -404.000000)" fill-rule="nonzero">
            <g id="envelope-(1)" transform="translate(1064.000000, 404.000000)">
                <path d="M88,38.5852277 L52.0927407,3.30449738 C47.6096296,-1.10149913 40.3903704,-1.10149913 35.9072593,3.30449738 L0,38.5852277 L0,95 L88,95 L88,38.5852277 Z" id="Shape" fill="#00DD80"></path>
                <path d="M55.5234836,32.8063932 L44.150464,21.4740044 C44.0009687,21.323424 43.8205994,21.2052265 43.6207306,21.1226502 C43.224243,20.9591166 42.777382,20.9591166 42.3792694,21.1226502 C42.1794006,21.2052265 41.9990313,21.3250432 41.849536,21.4740044 L30.4765164,32.8063932 C29.8411612,33.4394785 29.8411612,34.4627775 30.4765164,35.0958628 C30.7933815,35.4115959 31.2093685,35.570272 31.6253555,35.570272 C32.0413425,35.570272 32.4573295,35.4115959 32.7741946,35.0958628 L41.3750508,26.5257337 L41.3750508,53.380856 C41.3750508,54.2762426 42.1014031,55 43,55 C43.8985969,55 44.6249492,54.2762426 44.6249492,53.380856 L44.6249492,26.5257337 L53.2258054,35.0958628 C53.5426705,35.4115959 53.9586575,35.570272 54.3746445,35.570272 C54.7906315,35.570272 55.2066185,35.4115959 55.5234836,35.0958628 C56.1588388,34.4627775 56.1588388,33.4394785 55.5234836,32.8063932 Z" id="Shape" fill="#FFFFFF"></path>
                <path d="M88,95 L51.2453333,66.3434623 C46.7540741,63.2345061 40.8075556,63.2181 36.2983704,66.2991659 C23.6687407,74.9304159 0,95 0,95 L88,95 Z" id="Shape" fill="#04EC8A"></path>
                <path d="M37,65.8823529 L36.7475602,65.8823529 L0,40 L0,95 C0,95 21.3197339,76.8397662 33.7004663,68.329325 C34.1558165,68.0171192 36.5190863,66.1298529 37,65.8823529 Z" id="Shape" fill="#19D385"></path>
                <path d="M51.7128391,65.4390908 L50.6667191,65.955455 C51.1734289,66.2142785 51.2352691,66.3839629 51.7128391,66.7123452 L88,95 L88,40 L51.7128391,65.4390908 Z" id="Shape" fill="#19D385"></path>
            </g>
        </g>
    </g>
</svg>