<?xml version="1.0" encoding="UTF-8"?>
<svg width="55px" height="55px" viewBox="0 0 55 55" version="1.1" xmlns="http://www.w3.org/2000/svg" xmlns:xlink="http://www.w3.org/1999/xlink">
    <!-- Generator: Sketch 52.6 (67491) - http://www.bohemiancoding.com/sketch -->
    <title>Group</title>
    <desc>Created with Sketch.</desc>
    <g id="Page-1" stroke="none" stroke-width="1" fill="none" fill-rule="evenodd">
        <g id="Group">
            <g id="blank_image" fill="#ECECEC" stroke="#E7E6E6">
                <rect id="Rectangle-2" x="0.5" y="0.5" width="54" height="54" rx="8"></rect>
            </g>
            <g id="store-(1)" transform="translate(16.000000, 16.000000)" fill="#C6C6C6" fill-rule="nonzero">
                <path d="M0,9.75 C0,11.1459844 0.95803125,12.3090938 2.25,12.6445313 L2.25,22.5 L0.75,22.5 C0.336890625,22.5 0,22.8354375 0,23.25 C0,23.6645625 0.3369375,24 0.75,24 L23.25,24 C23.6660156,24 24,23.6645625 24,23.25 C24,22.8354375 23.6660156,22.5 23.25,22.5 L21.75,22.5 L21.75,12.6445313 C23.0419688,12.3090938 24,11.1459844 24,9.75 L24,9 L0,9 L0,9.75 Z M15,12.75 C16.6582031,12.75 18,11.40675 18,9.75 C18,11.1459844 18.9580313,12.3090937 20.25,12.6445312 L20.25,22.5 L9,22.5 L9,12.75 C10.6582031,12.75 12,11.40675 12,9.75 C12,11.40675 13.34475,12.75 15,12.75 Z M8.25,12.6445312 L8.25,22.5 L3.75,22.5 L3.75,12.6445312 C5.04201562,12.3090937 6,11.1459844 6,9.75 C6,11.1459844 6.95803125,12.3090937 8.25,12.6445312 Z M21,2.25 L3,2.25 L0,8.25 L24,8.25 L21,2.25 Z M6.3369375,3.91701562 L4.8369375,6.91701562 C4.76953125,7.048875 4.63771875,7.12504687 4.5,7.12504687 C4.4443125,7.12504687 4.38721875,7.11332812 4.33298438,7.08548437 C4.14839063,6.9931875 4.07221875,6.767625 4.16596875,6.58303125 L5.66596875,3.58303125 C5.75971875,3.3984375 5.98382813,3.32376562 6.16842188,3.4145625 C6.35451563,3.50685937 6.42773438,3.73242187 6.3369375,3.91701562 Z M9.3369375,3.91701562 L7.8369375,6.91701562 C7.76953125,7.048875 7.63771875,7.12504687 7.5,7.12504687 C7.4443125,7.12504687 7.38721875,7.11332812 7.33298437,7.08548437 C7.14839062,6.9931875 7.07221875,6.767625 7.16596875,6.58303125 L8.66596875,3.58303125 C8.75971875,3.3984375 8.98532813,3.32376562 9.16842188,3.4145625 C9.35451563,3.50685937 9.42773438,3.73242187 9.3369375,3.91701562 Z M12.375,6.75 C12.375,6.95803125 12.2080313,7.125 12,7.125 C11.7934688,7.125 11.625,6.95798438 11.625,6.75 L11.625,3.75 C11.625,3.54196875 11.7934688,3.375 12,3.375 C12.2080313,3.375 12.375,3.54201563 12.375,3.75 L12.375,6.75 Z M16.6816406,7.078125 C16.6230469,7.110375 16.5615469,7.125 16.5,7.125 C16.3681875,7.125 16.2392813,7.0546875 16.171875,6.9301875 L14.53125,3.9301875 C14.4316406,3.74854687 14.499,3.52003125 14.6806875,3.421875 C14.8594219,3.32226562 15.0908437,3.38671875 15.1904531,3.5698125 L16.8310781,6.5698125 C16.9277344,6.75145313 16.8632813,6.97996875 16.6816406,7.078125 Z M19.6669687,7.0854375 C19.6142812,7.11328125 19.5585937,7.125 19.5,7.125 C19.3622812,7.125 19.2304687,7.04882813 19.1660156,6.91696875 L17.6660156,3.91696875 C17.5722656,3.732375 17.6484375,3.5068125 17.8329844,3.41451563 C18.014625,3.32221875 18.2431406,3.3969375 18.3368906,3.58298438 L19.8368906,6.58298438 C19.9277344,6.76757813 19.8544687,6.9931875 19.6669687,7.0854375 Z M6.375,18.1142812 L6.375,16.3857656 C6.15525,16.2539531 6,16.0253906 6,15.7500469 C6,15.3354844 6.3369375,15.0000469 6.75,15.0000469 C7.16601563,15.0000469 7.5,15.3354844 7.5,15.7500469 C7.5,16.0254375 7.34620313,16.2539531 7.125,16.3857656 L7.125,18.1142812 C7.34620313,18.2461406 7.5,18.4746562 7.5,18.7500469 C7.5,19.1646094 7.16601563,19.5000469 6.75,19.5000469 C6.33689063,19.5000469 6,19.1646094 6,18.7500469 C6,18.4746094 6.15529688,18.2460937 6.375,18.1142812 Z M3,0.75 C3,0.3354375 3.3369375,0 3.75,0 L20.25,0 C20.6660156,0 21,0.3354375 21,0.75 C21,1.1645625 20.6660156,1.5 20.25,1.5 L3.75,1.5 C3.3369375,1.5 3,1.1645625 3,0.75 Z M13.1455313,16.765125 L12.6152813,16.2348281 L14.736375,14.1137344 L15.266625,14.6440312 L13.1455313,16.765125 Z M13.1455313,18.8862187 L12.6152813,18.3559219 L16.8574688,14.1137344 L17.3877188,14.6440312 L13.1455313,18.8862187 Z M16.8574219,16.234875 L17.3876719,16.7651719 L15.2665781,18.8862656 L14.7363281,18.3559687 L16.8574219,16.234875 Z" id="Shape"></path>
            </g>
        </g>
    </g>
</svg>