<?xml version="1.0" encoding="UTF-8"?>
<svg width="20px" height="20px" viewBox="0 0 20 20" version="1.1" xmlns="http://www.w3.org/2000/svg" xmlns:xlink="http://www.w3.org/1999/xlink">
    <!-- Generator: Sketch 50.2 (55047) - http://www.bohemiancoding.com/sketch -->
    <title>Shape Copy</title>
    <desc>Created with Sketch.</desc>
    <defs></defs>
    <g id="Page-1" stroke="none" stroke-width="1" fill="none" fill-rule="evenodd">
        <g id="Login-page" transform="translate(-556.000000, -921.000000)" fill="#BFBFBF" fill-rule="nonzero">
            <g id="error-(1)" transform="translate(556.000000, 844.000000)">
                <path d="M17.0745081,79.925594 C13.1738523,76.0249944 6.8266768,76.0246096 2.92563617,79.925594 C-0.975404453,83.8265783 -0.975019659,90.1732774 2.92563617,94.0742617 C6.82629201,97.9752461 13.1734675,97.9752461 17.0745081,94.0742617 C20.975164,90.1732774 20.975164,83.8261935 17.0745081,79.925594 Z M13.9453641,90.9451629 C13.64484,91.2456826 13.1576909,91.2456826 12.8571669,90.9451629 L10.0000721,88.0881093 L7.00714514,91.0809931 C6.7066211,91.3815128 6.21947202,91.3815128 5.91894797,91.0809931 C5.61842393,90.7804734 5.61842393,90.2933314 5.91894797,89.9928117 L8.91187498,86.9999279 L6.05478022,84.1428743 C5.75425618,83.8423546 5.75425618,83.3548278 6.05478022,83.0546929 C6.35530426,82.7541732 6.84245335,82.7541732 7.14297739,83.0546929 L10.0000721,85.9117464 L12.7209499,83.1909079 C13.0214739,82.8903882 13.508623,82.8903882 13.809147,83.1909079 C14.1096711,83.4914276 14.1096711,83.9785697 13.809147,84.2790894 L11.0882693,86.9999279 L13.9453641,89.8569814 C14.2458881,90.1575011 14.2458881,90.6446431 13.9453641,90.9451629 Z" id="Shape-Copy"></path>
            </g>
        </g>
    </g>
</svg>