<?xml version="1.0" encoding="UTF-8"?>
<svg width="342px" height="512px" viewBox="0 0 342 512" version="1.1" xmlns="http://www.w3.org/2000/svg" xmlns:xlink="http://www.w3.org/1999/xlink">
    <!-- Generator: Sketch 50.2 (55047) - http://www.bohemiancoding.com/sketch -->
    <title>employee (3)</title>
    <desc>Created with Sketch.</desc>
    <defs></defs>
    <g id="Page-1" stroke="none" stroke-width="1" fill="none" fill-rule="evenodd">
        <g id="employee-(3)" fill-rule="nonzero">
            <path d="M170.17,0 C121.551,0 82.139,39.412 82.139,88.031 L82.139,123.625 C88.023,118.171 96.392,115.207 104.563,116.299 L104.563,111.912 C104.563,108.425 107.541,105.67 110.993,105.932 C145.028,108.377 179.666,97.562 205.856,80.453 C208.301,78.855 211.538,79.253 213.525,81.388 C235.915,105.455 235.78,104.524 235.78,107.666 L235.78,116.28 C244.736,114.938 252.68,117.705 258.2,122.837 L258.2,88.031 C258.201,39.412 218.79,0 170.17,0 Z" id="Shape" fill="#707487"></path>
            <path d="M235.663,113.093 L235.663,161.504 C235.663,162.029 235.636,162.547 235.623,163.07 C252.754,165.664 266.172,153.286 266.172,138.084 C266.172,122.851 252.743,110.533 235.663,113.093 Z" id="Shape" fill="#F0A479"></path>
            <path d="M256.426,118.195 C251.014,114.007 243.749,111.881 235.663,113.093 L235.663,161.504 C235.663,162.029 235.636,162.547 235.623,163.07 C243.734,164.298 251.01,162.167 256.426,157.971 L256.426,118.195 Z" id="Shape" fill="#E59770"></path>
            <path d="M104.76,161.563 L104.76,113.048 C89.807,111.051 74.173,122.527 74.173,138.083 C74.173,153.304 87.595,165.736 104.798,163.132 C104.786,162.609 104.76,162.087 104.76,161.563 Z" id="Shape" fill="#F0A479"></path>
            <path d="M104.76,158.19 C98.593,153.516 94.778,146.197 94.778,138.083 C94.778,130.175 98.823,123.326 104.76,118.761 L104.76,113.048 C89.807,111.051 74.173,122.527 74.173,138.083 C74.173,153.304 87.595,165.736 104.798,163.133 C104.785,162.609 104.76,162.088 104.76,161.563 L104.76,158.19 Z" id="Shape" fill="#E59770"></path>
            <path d="M171.109,222.994 C156.887,222.994 144.389,219.09 134.166,212.558 L134.166,248.623 L170.95,294.027 L207.734,248.623 L207.734,211.584 C197.314,218.772 184.697,222.994 171.109,222.994 Z" id="Shape" fill="#F0A479"></path>
            <path d="M155.171,221.253 C147.415,219.51 140.369,216.522 134.166,212.558 L134.166,248.623 L155.171,274.551 L155.171,221.253 Z" id="Shape" fill="#E59770"></path>
            <path d="M305.045,283.219 L207.734,245.533 L170.95,290.937 L134.166,245.533 L36.957,283.219 C36.957,283.219 0.965,298.015 0.965,339.045 C0.965,376.171 0.965,470.015 0.965,500.007 C0.965,506.63 6.335,512 12.958,512 C18.005,512 323.918,512 329.043,512 C335.666,512 341.036,506.63 341.036,500.007 C341.036,470.015 341.036,376.171 341.036,339.045 C341.037,298.015 305.045,283.219 305.045,283.219 Z" id="Shape" fill="#E4EAF8"></path>
            <path d="M21.499,500.007 C21.499,470.015 21.499,364.838 21.499,327.713 C21.499,303.913 33.605,288.955 43.776,280.576 L36.957,283.22 C36.957,283.22 0.965,298.016 0.965,339.046 C0.965,376.172 0.965,470.016 0.965,500.008 C0.965,506.631 6.335,512.001 12.958,512.001 C13.715,512.001 21.238,512.001 33.491,512.001 C26.869,512 21.499,506.63 21.499,500.007 Z" id="Shape" fill="#D8DCE5"></path>
            <path d="M213.526,78.298 C211.539,76.162 208.301,75.765 205.856,77.363 C179.667,94.472 145.029,105.287 110.993,102.842 C107.541,102.58 104.563,105.335 104.563,108.822 L104.563,161.413 C104.563,195.213 131.047,226.085 171.108,226.085 C206.769,226.085 235.781,197.073 235.781,161.413 L235.781,104.577 C235.781,101.434 235.916,102.365 213.526,78.298 Z" id="Shape" fill="#F0A479"></path>
            <path d="M125.169,161.413 L125.169,103.104 C120.448,103.257 115.716,103.181 110.994,102.842 C107.542,102.581 104.564,105.335 104.564,108.822 L104.564,161.413 C104.564,195.213 131.048,226.085 171.109,226.085 C174.29,226.085 177.416,225.844 180.475,225.398 C149.238,220.845 125.169,193.891 125.169,161.413 Z" id="Shape" fill="#E59770"></path>
            <g id="Group" transform="translate(54.000000, 345.000000)" fill="#D8DCE5">
                <path d="M15.949,167 L15.949,8.147 C15.949,3.88 12.49,0.42 8.222,0.42 C3.954,0.42 0.495,3.879 0.495,8.147 L0.495,167 C5.337,167 10.504,167 15.949,167 Z" id="Shape"></path>
                <path d="M233.509,167 L233.509,8.147 C233.509,3.88 230.05,0.42 225.782,0.42 C221.514,0.42 218.055,3.879 218.055,8.147 L218.055,167 C223.5,167 228.666,167 233.509,167 Z" id="Shape"></path>
            </g>
        </g>
    </g>
</svg>