<?xml version="1.0" encoding="UTF-8"?>
<svg width="53px" height="62px" viewBox="0 0 53 62" version="1.1" xmlns="http://www.w3.org/2000/svg" xmlns:xlink="http://www.w3.org/1999/xlink">
    <!-- Generator: Sketch 50.2 (55047) - http://www.bohemiancoding.com/sketch -->
    <title>shield (1)</title>
    <desc>Created with Sketch.</desc>
    <defs></defs>
    <g id="Page-1" stroke="none" stroke-width="1" fill="none" fill-rule="evenodd">
        <g id="Individual-homepage" transform="translate(-379.000000, -314.000000)">
            <g id="Jobs-applied-Copy-2" transform="translate(346.000000, 287.000000)">
                <g id="shield-(1)" transform="translate(33.000000, 27.000000)">
                    <path d="M50.2003947,41.403172 C48.5275542,45.9195928 45.9976381,49.8466275 42.6799721,53.0740613 C38.9036164,56.7475558 33.9586939,59.666579 27.9824319,61.7488249 C27.7863254,61.8169402 27.5816719,61.8727569 27.3760687,61.9139098 C27.1044635,61.9673615 26.8281101,61.9962158 26.5541308,62 L26.5004745,62 C26.2084516,62 25.9150041,61.9706725 25.6239308,61.9139098 C25.4183277,61.8727569 25.2165231,61.8169402 25.0213663,61.750244 C19.0379817,59.6713092 14.0868864,56.7537051 10.3067319,53.0802107 C6.98764156,49.8527767 4.45820022,45.9281073 2.78773387,41.4116864 C-0.249780031,33.2000121 -0.0769402928,24.1539257 0.0621860716,16.8845127 L0.0645602118,16.7728793 C0.0925754548,16.1726135 0.11061909,15.5420742 0.120590698,14.8457847 C0.171397857,11.4272497 2.89979472,8.59904684 6.33189569,8.40841865 C13.4876457,8.01060658 19.0232618,5.68569992 23.7530844,1.09312242 L23.794395,1.0552806 C24.5797705,0.337705056 25.5693248,-0.0142238424 26.5541308,0.000439922252 C27.5037991,0.0127385431 28.4496686,0.364194328 29.2070291,1.0552806 L29.2473899,1.09312242 C33.9781622,5.68569992 39.5137782,8.01060658 46.6695284,8.40841865 C50.1016292,8.59904684 52.8300261,11.4272497 52.8808334,14.8457847 C52.8908048,15.5468045 52.9088485,16.1763977 52.9368637,16.7728793 L52.9382883,16.8201816 C53.0769398,24.1033123 53.2488298,33.1673736 50.2003947,41.403172 Z" id="Shape" fill="#FC6666" fill-rule="nonzero"></path>
                    <path d="M42,31.4997627 C42,40.0278113 35.0757351,46.9696325 26.5548039,47 L26.5002373,47 C17.9541579,47 11,40.0463165 11,31.4997627 C11,22.9536834 17.9541579,16 26.5002373,16 L26.5548039,16 C35.0757351,16.0303675 42,22.9721886 42,31.4997627 Z" id="Shape" fill="#FFFFFF" fill-rule="nonzero"></path>
                    <g id="error-(1)" transform="translate(20.000000, 25.000000)" fill="#FC6666">
                        <path d="M12.6543542,12.4460521 C12.1934931,12.9069131 11.4464379,12.9069131 10.9855768,12.4460521 L6.60415106,8.06462631 L2.01442319,12.6543542 C1.55356211,13.1152153 0.806506888,13.1152153 0.345645809,12.6543542 C-0.11521527,12.1934931 -0.11521527,11.4464379 0.345645809,10.9855768 L4.93537369,6.39584894 L0.553947936,2.01442319 C0.0930868569,1.55356211 0.0930868569,0.805916797 0.553947936,0.345645809 C1.01480901,-0.11521527 1.76186423,-0.11521527 2.22272531,0.345645809 L6.60415106,4.72707156 L10.7766846,0.554538027 C11.2375457,0.0936769479 11.9846009,0.0936769479 12.445462,0.554538027 C12.9063231,1.01539911 12.9063231,1.76245432 12.445462,2.2233154 L8.27292844,6.39584894 L12.6543542,10.7772747 C13.1152153,11.2381358 13.1152153,11.985191 12.6543542,12.4460521 Z" id="Path"></path>
                    </g>
                </g>
            </g>
        </g>
    </g>
</svg>