<?xml version="1.0" encoding="UTF-8"?><svg width="968" height="640" xmlns="http://www.w3.org/2000/svg"><!--Generator: Sketch 50.2 (55047) - http://www.bohemiancoding.com/sketch--><defs><linearGradient x1="45.7%" y1="101.4%" x2="63.4%" y2="-1%" id="a"><stop stop-color="gray" stop-opacity=".3" offset="0%"/><stop stop-color="gray" stop-opacity=".1" offset="54%"/><stop stop-color="gray" stop-opacity=".1" offset="100%"/></linearGradient><linearGradient x1="50%" y1="100%" x2="50%" y2="0%" id="b"><stop stop-color="gray" stop-opacity=".3" offset="0%"/><stop stop-color="gray" stop-opacity=".1" offset="54%"/><stop stop-color="gray" stop-opacity=".1" offset="100%"/></linearGradient></defs><g fill="none" fill-rule="evenodd"><path fill="#0A96D7" fill-rule="nonzero" opacity=".1" d="M816.8 193.4h40.9v62h-40.9z"/><path fill="#0A96D7" fill-rule="nonzero" opacity=".1" d="M820.8 199.4h33v49.9h-33zm-87-49h62.8v62h-62.8z"/><path fill="#0A96D7" fill-rule="nonzero" opacity=".1" d="M739.9 156.4h50.6v49.9h-50.6zM.6 58.4h192v5H.6zm0 25h192v5H.6z"/><path fill="#D6D6E3" fill-rule="nonzero" d="M324.4 389.6H344v219.2h-19.6z"/><path d="M916.8 412.6V210.5a21.3 21.3 0 0 1 21.3-21.2 21.3 21.3 0 0 1 21.2 21.2v244.6a21.3 21.3 0 0 1-21.2 21.3H806.4a21.3 21.3 0 1 1 0-42.5h89.2a21.3 21.3 0 0 0 21.2-21.3z" fill="#AEBEE1" fill-rule="nonzero"/><path d="M916.8 412.6V210.5a21.3 21.3 0 0 1 21.3-21.2 21.3 21.3 0 0 1 21.2 21.2v244.6a21.3 21.3 0 0 1-21.2 21.3H806.4a21.3 21.3 0 1 1 0-42.5h89.2a21.3 21.3 0 0 0 21.2-21.3z" fill="#535461" fill-rule="nonzero"/><path d="M785.2 454a21.3 21.3 0 0 1 21.2-20.1h89.2a21.3 21.3 0 0 0 21.2-21.3V210.5c0-11.3 9-20.7 20.3-21.2V454H785.2z" fill="#D6D6E3" fill-rule="nonzero"/><path d="M128.5 419.5V217.3a21.3 21.3 0 0 0-21.2-21.2A21.3 21.3 0 0 0 86 217.3V462a21.3 21.3 0 0 0 21.3 21.3h131.6a21.3 21.3 0 1 0 0-42.5h-89.1a21.3 21.3 0 0 1-21.3-21.3z" fill="#AEBEE1" fill-rule="nonzero"/><path d="M128.5 419.5V217.3a21.3 21.3 0 0 0-21.2-21.2A21.3 21.3 0 0 0 86 217.3V462a21.3 21.3 0 0 0 21.3 21.3h131.6a21.3 21.3 0 1 0 0-42.5h-89.1a21.3 21.3 0 0 1-21.3-21.3z" fill="#535461" fill-rule="nonzero"/><path d="M260.1 460.8a21.3 21.3 0 0 0-21.2-20h-89.1a21.3 21.3 0 0 1-21.3-21.3V217.3a21.3 21.3 0 0 0-20.2-21.2v264.7h151.8zm452.3-71.2H732V614h-19.6z" fill="#D6D6E3" fill-rule="nonzero"/><path fill="#000" fill-rule="nonzero" opacity=".1" d="M324.4 389.6H344v16.2h-19.6zm388 0H732v16.2h-19.6zm-318-133.4a240 240 0 0 1-1.1 10.5h-2.8v-10.5h4z"/><path d="M474.8 365.3c0 3.5-2.5 6.4-5.7 6.4h-59.8v-6.2h49.8c2.1 0 3.5-2.6 2.4-4.7l-45.1-91.9a4 4 0 0 0-3.5-2.2h-22.4v-10.5h28.2c1 0 2 .6 2.5 1.6l51.7 100a17 17 0 0 1 2 7.5z" fill="#535461" fill-rule="nonzero"/><path d="M364.9 348.6l-.8 1.4-7.7-5.1 23.7-182.5h6.1l.7 2.4c4.1 15.8 24.2 105.1-22 183.8z" fill="#535461" fill-rule="nonzero"/><path d="M386.9 164.8l-22 183.8-.8 1.4-7.7-5.1 23.7-182.5h6.1l.7 2.4z" fill="#000" fill-rule="nonzero" opacity=".1"/><path fill="#D6D6E3" fill-rule="nonzero" d="M349.5 348.4L372 160.5l14.4 1.7-22.5 188z"/><path d="M300.1 365.3c0 1-.7 1.7-1.7 1.7H296c-1 0-1.7-.7-1.7-1.7v-.2c0-.8.8-1.5 1.6-1.5h2.6c.8 0 1.5.6 1.7 1.3v.4zm7.7 0c0 1-.8 1.7-1.7 1.7h-2.6a1.7 1.7 0 0 1-1.2-2.9c.3-.3.8-.5 1.2-.5h2.6a1.7 1.7 0 0 1 1.7 1.7zm6.8 0c0 1-.8 1.7-1.7 1.7h-2.5a1.7 1.7 0 0 1 0-3.4h2.5a1.7 1.7 0 0 1 1.7 1.7zm7.7 0c0 1-.8 1.7-1.7 1.7H318a1.7 1.7 0 0 1-1.4-2.7l.2-.2c.4-.3.8-.5 1.2-.5h2.6c.5 0 1 .2 1.2.6.3.3.5.7.5 1.1z" fill="#E3EDF9" fill-rule="nonzero"/><path d="M300 365a1.7 1.7 0 0 1-1.6 2H296c-1 0-1.8-.7-1.8-1.7v-.2l6-.2zm7.7-.4a1.7 1.7 0 0 1-1.6 2.4h-2.6a1.7 1.7 0 0 1-1.6-2.2l5.8-.2zm6.7-.2l.2 1c0 .9-.7 1.6-1.7 1.6h-2.5a1.7 1.7 0 0 1-1.6-2.4l5.6-.2zm7.9 1c0 .9-.8 1.6-1.7 1.6H318a1.7 1.7 0 0 1-1.4-2.7l5.2-.1c.3.3.5.7.5 1.1z" fill="#000" fill-rule="nonzero" opacity=".1"/><path d="M337.6 372.1h-49.4V370a3.9 3.9 0 0 1 3.7-3.9l39.7-1.3a5.9 5.9 0 0 1 6 5.8v1.6z" fill="#D6D6E3" fill-rule="nonzero"/><path d="M581.6 365.3c0 3.5 2.5 6.4 5.7 6.4h59.9v-6.2h-49.9c-2.1 0-3.5-2.6-2.4-4.7l45.2-91.9a4 4 0 0 1 3.4-2.2H666v-10.5h-28.2a2.8 2.8 0 0 0-2.4 1.6l-51.8 100a17 17 0 0 0-1.9 7.5z" fill="#535461" fill-rule="nonzero"/><path d="M691.5 348.6l.9 1.4 7.6-5.1-23.7-182.5h-6.1l-.7 2.4c-4 15.8-24.2 105.1 22 183.8z" fill="#535461" fill-rule="nonzero"/><path d="M669.5 164.8l22 183.8.8 1.4 7.7-5.1-23.7-182.5h-6.1l-.7 2.4z" fill="#000" fill-rule="nonzero" opacity=".1"/><path fill="#D6D6E3" fill-rule="nonzero" d="M670 162.2l14.5-1.7 22.5 188-14.4 1.6z"/><path d="M756.3 365.3c0 1 .8 1.7 1.7 1.7h2.6c1 0 1.7-.7 1.7-1.7v-.2c-.1-.8-.8-1.5-1.7-1.5H758c-.8 0-1.4.6-1.6 1.3l-.1.4zm-7.7 0c0 1 .8 1.7 1.7 1.7h2.6a1.7 1.7 0 0 0 1.2-2.9c-.3-.3-.7-.5-1.2-.5h-2.6c-.7 0-1.3.4-1.6 1v.7zm-6.8 0c0 1 .8 1.7 1.7 1.7h2.6a1.7 1.7 0 0 0 0-3.4h-2.6a1.7 1.7 0 0 0-1.7 1.7zm-7.7 0c0 1 .8 1.7 1.7 1.7h2.6a1.7 1.7 0 0 0 1.4-2.7l-.2-.2c-.3-.3-.8-.5-1.2-.5h-2.6c-.4 0-.9.2-1.2.6-.3.3-.5.7-.5 1.1z" fill="#E3EDF9" fill-rule="nonzero"/><path d="M756.4 365a1.7 1.7 0 0 0 1.6 2h2.6c1 0 1.7-.7 1.7-1.7v-.2l-6-.2zm-7.6-.4a1.7 1.7 0 0 0 1.5 2.4h2.6a1.7 1.7 0 0 0 1.6-2.2l-5.7-.2zm-6.7-.2c-.2.3-.3.6-.3 1 0 .9.8 1.6 1.7 1.6h2.6a1.7 1.7 0 0 0 1.5-2.4l-5.5-.2zm-8 1c0 .9.8 1.6 1.7 1.6h2.6a1.7 1.7 0 0 0 1.4-2.7l-5.2-.1c-.3.3-.5.7-.5 1.1z" fill="#000" fill-rule="nonzero" opacity=".1"/><path d="M718.8 372.1h49.4V370a3.9 3.9 0 0 0-3.7-3.9l-39.6-1.3a5.9 5.9 0 0 0-6.1 5.8v1.6z" fill="#D6D6E3" fill-rule="nonzero"/><path d="M925.8 399.3c23-39.2 14.7-118.1 15.6-119.6.8-1.3-2.3-38.5-23.5-47.6-3.9-7.6-7.6-16.1-7.6-16.1l-1.3.9a66.5 66.5 0 0 1-1.2-3.8l1.8.5c1.6.4 3.3.2 4.8-.5l1.4-1c1.7-1.2 2.6-3.2 3.4-5l6.2-14.8c2.7-6.7 5.5-13.4 7-20.5A57.6 57.6 0 0 0 930 140a20.3 20.3 0 0 0-7-10.1c-6.8-4.7-16.4-1.5-24.2-4.2-2.6-.9-5-2.4-7.5-3.3a23 23 0 0 0-17.2 1.5c-5.4 2.5-9.7 6.5-14.4 10-2.3 1.8-6 3.6-8.8 6-2.6 2-4.6 4.6-4.2 7.9.4 3.7 4.4 6 8 6.8l1.9.4a36 36 0 0 0 15.4 59.8 84.4 84.4 0 0 1 5.4 12.5c-6.1 1.7-10.8 3.1-11.8 4-2.9 2.3 3.1 23.1 3.1 23.1a102.1 102.1 0 0 0-4.6 6.6 140.6 140.6 0 0 0-22.2 60.5 284 284 0 0 1-4 23.7l-71.6-14.4-.1 1.8-1.8-.4-5.3-1.3-.3 1.2-.8-.4c-13.3-6.3-35.8-14.2-51-6-16 8.6 18.6 20.1 40.8 26.2-7.3.4-14.4 2.1-20 6.3-16 12 29.5 18.4 51 20.6h1v.5l7.4.7 1.7.2.2 2.6 25 4c-16.3 4-36.5 6.8-50.5 8.5a36.9 36.9 0 0 0-31.4 26.4 23.5 23.5 0 0 0-.3 12.7c4.1 14.6-1 121.5-2.1 144.5L703.4 594s-41 5-13.6 14.6c2.4.9 5 1.5 7.5 2-3.6 2.4-3.3 5.4 7.3 9.1 27.3 9.6 90.9-.4 90.9-.4s-1.4-11.3-3.7-20.6h.7S786 574.3 796 562c10-12.3-1.7-106-1.7-106s17.5-7.2 69.5-7.7c42 10.8 62.5-27.8 62.2-47.7l-.1-1.3z" fill="url(#a)" fill-rule="nonzero"/><path d="M770.5 338.6l-4.4 18-10-2.4c-20.3-5.3-63.2-18-46-27.2 14.8-8 36.6-.2 49.6 5.9a124.6 124.6 0 0 1 10.8 5.7z" fill="#F8B9BF" fill-rule="nonzero"/><path d="M769.3 343.7l-3.2 13-10-2.4 3.6-21.4c4.7 2.3 8.3 4.3 9.9 5.2l-.3 5.6z" fill="#000" fill-rule="nonzero" opacity=".1"/><path fill="#D9DFE8" fill-rule="nonzero" d="M769.3 358l-12.4-3.1 3.9-22.8 9.9 2.5z"/><path fill="#000" fill-rule="nonzero" opacity=".1" d="M769.3 358l-5.4-1.4 2-23.2 4.8 1.2z"/><path d="M889.1 263.7s-23.8-13.8-34.4 25.7c-10.6 39.5-11.6 57.8-11.6 57.8L767.8 332l-2.4 27.5s80.5 26 90.7 24.1c10-1.9 43-57 43-57s29.8-42.7-10-63z" fill="#0A96D7" fill-rule="nonzero"/><g opacity=".1" fill="#000" fill-rule="nonzero"><path d="M770.5 338.6l-4.4 18-10-2.4c-20.3-5.3-63.2-18-46-27.2 14.8-8 36.6-.2 49.6 5.9a124.6 124.6 0 0 1 10.8 5.7z"/><path d="M769.3 343.7l-3.2 13-10-2.4 3.6-21.4c4.7 2.3 8.3 4.3 9.9 5.2l-.3 5.6z"/><path d="M769.3 358l-12.4-3.1 3.9-22.8 9.9 2.5z"/><path d="M769.3 358l-5.4-1.4 2-23.2 4.8 1.2z"/><path d="M889.1 264.7s-23.8-13.8-34.4 25.7c-10.6 39.5-11.6 57.8-11.6 57.8L767.8 333l-2.4 27.5s80.5 26 90.7 24.1c10-1.9 43-57 43-57s29.8-42.7-10-63z"/></g><path d="M737.5 570l-30.8 17.7s-39.8 4.9-13.3 14.2c26.5 9.3 88.2-.5 88.2-.5s-3.4-27.7-8.2-31.5c-4.7-4-36 0-36 0z" fill="#68739D" fill-rule="nonzero"/><path d="M857.3 371.3s-15.3 8-42.5 14.9c-16 4-35.9 6.8-49.6 8.4a35.8 35.8 0 0 0-30.6 25.7 22.8 22.8 0 0 0-.3 12.4c4.5 15.8-2.2 144.5-2.2 144.5l46.7 4.3s-6.4-23.7 3.3-35.7c9.6-12-1.7-102.9-1.7-102.9s17-7 67.5-7.4c46.9 12 66.2-39.3 59-53.7-7.3-14.3-49.6-10.5-49.6-10.5z" fill="#6394E2" fill-rule="nonzero"/><g opacity=".1" fill="#000" fill-rule="nonzero"><path d="M737.5 570l-30.8 17.7s-39.8 4.9-13.3 14.2c26.5 9.3 88.2-.5 88.2-.5s-3.4-27.7-8.2-31.5c-4.7-4-36 0-36 0z"/><path d="M857.3 371.3s-15.3 8-42.5 14.9c-16 4-35.9 6.8-49.6 8.4a35.8 35.8 0 0 0-30.6 25.7 22.8 22.8 0 0 0-.3 12.4c4.5 15.8-2.2 144.5-2.2 144.5l46.7 4.3s-6.4-23.7 3.3-35.7c9.6-12-1.7-102.9-1.7-102.9s17-7 67.5-7.4c46.9 12 66.2-39.3 59-53.7-7.3-14.3-49.6-10.5-49.6-10.5z"/></g><path d="M751.9 580.7L721 598.4s-39.8 4.9-13.3 14.2 88.3-.4 88.3-.4-3.5-27.7-8.2-31.6c-4.8-3.9-36 .1-36 .1z" fill="#68739D" fill-rule="nonzero"/><path d="M862.3 446.2c-50.6.5-67.5 7.5-67.5 7.5s11.3 91 1.6 102.9c-9.6 11.9-3.3 35.6-3.3 35.6l-46.7-4.3.2-4.2c1.2-22.4 6.1-126.2 2-140.3-1-4-.9-8.3.4-12.4a35.8 35.8 0 0 1 30.5-25.6c13.8-1.7 33.7-4.5 49.6-8.5l.8-.2c26.7-6.9 41.7-14.7 41.7-14.7s42.3-3.8 49.6 10.6a17 17 0 0 1 1.4 7.2c.4 19.4-19.5 56.9-60.3 46.4z" fill="#6394E2" fill-rule="nonzero"/><path d="M791.9 361l-1.7 18.6-10.3-1c-20.8-2.2-65.1-8.3-49.5-20 13.5-10 36.2-5.7 50-1.6a128.2 128.2 0 0 1 11.5 4zM916 240.2s-6.3 4.9-14 10.3a347.3 347.3 0 0 1-25 4.5c2.4-8 1-17-2-25a93.7 93.7 0 0 0-12.5-23l42.4-13.2c-3.4 8.4-1.9 18 1 26.3a86.8 86.8 0 0 0 10 20.1z" fill="#F8B9BF" fill-rule="nonzero"/><path d="M791.4 366.3l-1.2 13.2-10.3-.9.4-21.6c5 1.5 8.9 3 10.6 3.6l.5 5.7z" fill="#000" fill-rule="nonzero" opacity=".1"/><path fill="#D9DFE8" fill-rule="nonzero" d="M793.5 380.3l-12.7-1.2.4-23 10.2 1z"/><path d="M916 240.1s-6.2 4.9-13.8 10.3a347.3 347.3 0 0 1-25.2 4.5c2.5-8 1-17-1.8-25 10.3-3 25.1-6.8 30.8-10a86.8 86.8 0 0 0 10 20.2z" fill="#000" fill-rule="nonzero" opacity=".1"/><path d="M907.6 220.5s7.1 16 11.6 23.3c4.4 7.3-51.9 14-51.9 14s-5.8-20.2-3-22.5c2.8-2.4 38.6-10.1 43.3-14.8z" fill="#D9DFE8" fill-rule="nonzero"/><path d="M922.7 399.8c-2.3 4.2-5.3 8-8.7 11.4-24.9 23.6-65.6-1-84-14.5 26.7-6.9 41.7-14.7 41.7-14.7s42.3-3.8 49.5 10.6a17 17 0 0 1 1.5 7.2z" fill="#000" fill-rule="nonzero" opacity=".1"/><path d="M914.1 409.5c-28.2 26.8-77-8.7-90.1-19.2l-3.3-2.8c5.2-4.8 9.7-15.1 13.3-27.7a243.6 243.6 0 0 0 7.3-36.8 136.5 136.5 0 0 1 21.5-58.8c1.5-2.3 3-4.5 4.5-6.3 10.7-13.6 28.6-22.2 28.6-22.2 37.9-11.1 43 45 42 46.7-1 1.6 9 95.9-23.8 127z" fill="#0A96D7" fill-rule="nonzero"/><path d="M917.8 332.7s-24.3 59.4-34 62.8c-5.6 2-35.4-1.7-59.8-5.2l-3.3-2.7c5.2-4.9 9.7-15.2 13.3-27.8l31.5 1.5s-1.8-18.1 2.9-58.8 30.2-30.6 30.2-30.6c42.4 14.2 19.2 60.8 19.2 60.8zm-124.3 47.6l-5.5-.5-1.4-23.2 4.8.4z" fill="#000" fill-rule="nonzero" opacity=".1"/><path d="M898 269.3s-25.6-10.1-30.3 30.6c-4.6 40.6-2.8 58.8-2.8 58.8L788 355l1.8 27.6s83.5 13.7 93.2 10.3c9.7-3.4 34-62.8 34-62.8s23.2-46.7-19.1-60.8z" fill="#0A96D7" fill-rule="nonzero"/><path d="M899.7 209c-1.1-6 5.2-6 7.5-11.7l-42.3 13.2a93.4 93.4 0 0 1 7.8 12.5c2.2.7 4.5 1 6.7 1.3 10.1 1 13.3-9 20.3-15.3z" fill="#000" fill-rule="nonzero" opacity=".1"/><circle fill="#F8B9BF" fill-rule="nonzero" transform="rotate(-84.7 880.4 185.8)" cx="880.4" cy="185.8" r="35"/><path d="M845.9 154.3c.4 3.6 4.3 5.8 7.8 6.6 3.6.9 7.5.9 10.6 2.8 5 3 6.4 10 5.7 15.8-.3 3.3-.8 7.4 1.9 9.3.9.6 1.8.9 2.8 1 2.8.6 5.8.7 8.6.3 1.7-.2 3.4-.6 5-.1 2.6.8 4.2 3.5 4.7 6.2s.2 5.4.6 8.1a16.9 16.9 0 0 0 13.4 13.8c1.5.4 3.2.2 4.7-.4 1.9-1 2.8-3.2 3.7-5.2l6-14.3c2.7-6.5 5.4-13 6.8-19.9a56 56 0 0 0-2.4-31 19.8 19.8 0 0 0-6.7-9.7c-6.7-4.5-16-1.4-23.6-4-2.5-.9-4.7-2.4-7.2-3.3-5.4-1.9-11.6-.9-16.8 1.6-5.2 2.4-9.4 6.2-14 9.7-4 3.1-12.3 6.4-11.6 12.7z" fill="#000" fill-rule="nonzero" opacity=".1"/><path d="M846.8 153.5c.5 3.6 4.3 5.9 7.9 6.7 3.5.8 7.4.8 10.5 2.7 5 3.1 6.4 10 5.8 15.8-.4 3.4-.9 7.4 1.8 9.4.9.5 1.8.8 2.8 1 2.9.5 5.8.6 8.6.3 1.7-.3 3.5-.6 5-.2 2.7.8 4.2 3.6 4.7 6.2.5 2.7.3 5.5.7 8.2a16.9 16.9 0 0 0 13.3 13.7c1.6.4 3.2.2 4.7-.4 1.9-1 2.9-3.1 3.7-5.1l6-14.4c2.7-6.5 5.4-13 6.8-19.9a56 56 0 0 0-2.4-30.9 19.8 19.8 0 0 0-6.7-9.8c-6.6-4.5-16-1.4-23.5-4-2.6-.9-4.8-2.3-7.3-3.2-5.4-2-11.5-1-16.7 1.5-5.3 2.4-9.5 6.3-14 9.7-4 3.1-12.4 6.4-11.7 12.7z" fill="#B96B6B" fill-rule="nonzero"/><path d="M875.8 291.6s-13.4 51.9-26.7 56.7c-13.3 4.8-7.4 6.1-7.4 6.1" fill="#000" fill-rule="nonzero" opacity=".1"/><path fill="#D6D6E3" fill-rule="nonzero" d="M861.9 481.6h14.5v95.3H862z"/><path fill="#000" fill-rule="nonzero" opacity=".1" d="M861.9 481.6h14.5v7H862z"/><path d="M832.9 481v2a4.7 4.7 0 0 0 4.7 4.8h63.1a4.7 4.7 0 0 0 4.7-4.7v-2c0-2.6-2-4.7-4.7-4.7h-63.1a4.7 4.7 0 0 0-4.7 4.7z" fill="#D6D6E3" fill-rule="nonzero"/><path d="M834 478.1h70.4a4.7 4.7 0 0 0-3.7-1.7h-63.1c-1.4 0-2.8.6-3.6 1.7z" fill="#000" fill-rule="nonzero" opacity=".1"/><rect fill="#D6D6E3" fill-rule="nonzero" x="809.6" y="571.8" width="119.2" height="11.4" rx="5.5"/><circle fill="#535461" fill-rule="nonzero" cx="922" cy="590.4" r="7.3"/><circle fill="#535461" fill-rule="nonzero" cx="816.3" cy="590.4" r="7.3"/><circle fill="#535461" fill-rule="nonzero" cx="869.2" cy="590.4" r="7.3"/><rect fill="#D6D6E3" fill-rule="nonzero" x="853.7" y="364.4" width="114" height="17.6" rx="8.5"/><path d="M876.4 571.8s-5.7 5.6-14.5 0m105.9-198.4v1.4c0 4-3.3 7.3-7.3 7.3H861c-4 0-7.3-3.3-7.3-7.3v-1.4h114z" fill="#000" fill-rule="nonzero" opacity=".1"/><path fill="#D6D6E3" fill-rule="nonzero" d="M758.4 389.6h19.7v249.9h-19.7z"/><path fill="#000" fill-rule="nonzero" opacity=".1" d="M758.4 389.6h19.7v16.2h-19.7z"/><path fill="#D6D6E3" fill-rule="nonzero" d="M169 488.4h14.4v95.4H169z"/><path fill="#000" fill-rule="nonzero" opacity=".1" d="M169 488.4h14.4v7H169z"/><path d="M212.5 488v2c0 2.5-2.1 4.6-4.7 4.6h-63.2a4.7 4.7 0 0 1-4.7-4.7v-2a4.7 4.7 0 0 1 4.7-4.6h63.2a4.7 4.7 0 0 1 4.7 4.7z" fill="#D6D6E3" fill-rule="nonzero"/><path d="M211.4 485H141a4.7 4.7 0 0 1 3.6-1.7h63.2c1.4 0 2.7.6 3.6 1.6z" fill="#000" fill-rule="nonzero" opacity=".1"/><rect fill="#D6D6E3" fill-rule="nonzero" x="116.6" y="578.6" width="119.2" height="11.4" rx="5.5"/><circle fill="#535461" fill-rule="nonzero" cx="123.3" cy="597.2" r="7.3"/><circle fill="#535461" fill-rule="nonzero" cx="229.1" cy="597.2" r="7.3"/><circle fill="#535461" fill-rule="nonzero" cx="176.2" cy="597.2" r="7.3"/><path d="M169 578.6s5.6 5.6 14.4 0" fill="#000" fill-rule="nonzero" opacity=".1"/><path d="M539.1 291.5s-16.3-29.6-10.3-55.3a51.2 51.2 0 0 0-2.9-32.3 86 86 0 0 0-7.6-13.7" stroke="#535461" stroke-width="2"/><path d="M522 174c.8 3.8-3.8 16.6-3.8 16.6S508.7 181 508 177a7.2 7.2 0 1 1 14-3zm16.2 18.9a57 57 0 0 1-12.1 12s-2.7-13.3-1.3-17a7.2 7.2 0 1 1 13.5 5zm7.6 36.8c-3 2.5-16.6 4.2-16.6 4.2s4.4-12.8 7.5-15.4a7.2 7.2 0 1 1 9.1 11.2zm-.5 29.1c-2.7 3-15.6 7-15.6 7s2.1-13.4 4.7-16.4a7.2 7.2 0 1 1 10.8 9.4zm-33.8-50c3.4 2.1 17 2 17 2s-6-12.1-9.4-14.2a7.2 7.2 0 1 0-7.6 12.2zm-.2 34.1c3.9 1 16.8-3 16.8-3s-9.4-9.9-13.2-10.9a7.2 7.2 0 0 0-3.6 14zm4.3 33.2c3.6 1.6 17.1-.2 17.1-.2s-7.6-11.3-11.2-13a7.2 7.2 0 0 0-5.9 13.2z" fill="#0A96D7" fill-rule="nonzero"/><path d="M522 174c.8 3.8-3.8 16.6-3.8 16.6S508.7 181 508 177a7.2 7.2 0 1 1 14-3zm16.2 18.9a57 57 0 0 1-12.1 12s-2.7-13.3-1.3-17a7.2 7.2 0 1 1 13.5 5zm7.6 36.8c-3 2.5-16.6 4.2-16.6 4.2s4.4-12.8 7.5-15.4a7.2 7.2 0 1 1 9.1 11.2zm-.5 29.1c-2.7 3-15.6 7-15.6 7s2.1-13.4 4.7-16.4a7.2 7.2 0 1 1 10.8 9.4zm-33.8-50c3.4 2.1 17 2 17 2s-6-12.1-9.4-14.2a7.2 7.2 0 1 0-7.6 12.2zm-.2 34.1c3.9 1 16.8-3 16.8-3s-9.4-9.9-13.2-10.9a7.2 7.2 0 0 0-3.6 14zm4.3 33.2c3.6 1.6 17.1-.2 17.1-.2s-7.6-11.3-11.2-13a7.2 7.2 0 0 0-5.9 13.2zm16.9 97.4a17.1 17.1 0 0 1-17.1-18.2l4.8-75.9h24.6l4.8 76a17.1 17.1 0 0 1-17.1 18.2z" fill="#0A96D7" fill-rule="nonzero"/><path fill="#0A96D7" fill-rule="nonzero" opacity=".1" d="M19.6.4h14v58h-14zm18 0h14v58h-14zm18 0h14v58h-14zm18 0h14v58h-14zm36 0h14v58h-14zm18 0h14v58h-14z"/><path fill="#0A96D7" fill-rule="nonzero" opacity=".1" d="M19.6 11.4h14v3h-14zm0 36h14v3h-14zm18-36h14v3h-14zm0 36h14v3h-14zm18-36h14v3h-14zm0 36h14v3h-14zm18-36h14v3h-14zm0 36h14v3h-14zm18-36h14v3h-14zm0 36h14v3h-14zm18-36h14v3h-14zm0 36h14v3h-14zm18-36h14v3h-14zm0 36h14v3h-14z"/><path fill="#0A96D7" fill-rule="nonzero" opacity=".1" d="M91.6.4h14v58h-14zM142.1 6L154.8.2 179 52.8l-12.7 5.9z"/><path fill="#0A96D7" fill-rule="nonzero" opacity=".1" d="M146.7 16l12.7-5.8 1.2 2.7-12.7 5.9zm15.1 32.7l12.7-5.9 1.3 2.7-12.7 6z"/><path d="M325.1 598.5l-25.4-16.2c-.1-22.9-.5-128.9 4.3-143 1.2-4.1 1.3-8.5.2-12.7a36.5 36.5 0 0 0-30-27.5c-13.7-2.2-33.5-5.9-49.4-10.6 14.2-1.5 24.8-2.8 24.8-2.8l.3-2.6 9.1-.5v-.3h1c21.3-1.4 66.7-5.6 51.2-18.3a35.6 35.6 0 0 0-19.4-7c22.2-5.1 57-15 41.5-24.2-14.7-8.8-37.3-1.9-50.8 3.7l-.8.4-.1-1.2-5.4 1-1.7.4-.1-1.8-75.5 11.7c-.6-8.7-1.6-17.3-3-25.8 1.6-11.3 9.5-27.7 6.7-36.5-3.2-10.2-16.4-13.6-22-22.8a104.3 104.3 0 0 0-4.3-6.7 70 70 0 0 0-10.7-11.5 48.6 48.6 0 0 1 4-17.2c1.4-3.7 3.2-7.2 5.2-10.6a35.6 35.6 0 0 0 26.5-41c4.7 2 10.5 2.2 13.5-1.8l-1.4-.5.4-.5c-2.9-1.1-6-2.4-8.3-4.4a9.7 9.7 0 0 1-1.4-2.1c-1.4-2.8-1.2-6.2-2.5-9-.7-1.3-1.5-2.5-2.6-3.4a17.8 17.8 0 0 0-8.5-4.9c-3.6-1-7.4-1.5-10.9-3a36.8 36.8 0 0 0-39-11l-1.3.5a16.3 16.3 0 0 0-31.8-7.2 16.3 16.3 0 0 1 4.3-9.8l-.8.7a16.3 16.3 0 0 0-.7 23l.3.3a16.4 16.4 0 0 0 4.1 3.6 16.3 16.3 0 0 1-10.7-13.3v1a16.3 16.3 0 0 0 17.3 15.3h.5l-.3.3a36.7 36.7 0 0 0 3.3 45.4 17 17 0 0 0 2.6 4.2l1.2 1.2a15.5 15.5 0 0 0 10.5 4.9l2.1 2.2a59.5 59.5 0 0 1-2.5 8.3 87.3 87.3 0 0 1-8 15.3c-21.6 6.1-23.5 42.8-22.7 44.2 1 1.6-3.2 59.2 12.8 128.8-.7 19.9 11 52.8 52.1 44.1 51.5 2.8 68.4 10.7 68.4 10.7s-4.9 89.5 2 102.6c4.5 8.1 1.4 20.1-2 28.6a31.5 31.5 0 0 0-2.8 6.6l-1.7 3.4h.7c-2.7 9.2-4.5 20.3-4.5 20.3s62.4 12.7 89.9 4.4c10.6-3.3 11-6.2 7.6-8.7 2.6-.4 5-1 7.5-1.6 27.5-8.3-12.9-15.1-12.9-15.1z" fill="url(#b)" fill-rule="nonzero"/><path d="M189.3 173.3a36 36 0 1 1-72 0 36 36 0 0 1 72 0z" fill="#FA595F" fill-rule="nonzero"/><path d="M270.4 342.4l3.6 18.2 10.1-2c20.5-4.3 64-15 47.1-25.1-14.4-8.6-36.6-1.8-49.8 3.7a117 117 0 0 0-10 4.7l-1 .5z" fill="#F8B9BF" fill-rule="nonzero"/><path d="M271.4 347.5l2.6 13.1 10.1-2-2.7-21.4a117 117 0 0 0-10 4.7v5.6z" fill="#000" fill-rule="nonzero" opacity=".1"/><path fill="#D9DFE8" fill-rule="nonzero" d="M270.8 361.7l12.5-2.5-2.8-22.9-10 2z"/><path fill="#000" fill-rule="nonzero" opacity=".1" d="M270.8 361.7l5.4-1-1-23.3-4.7 1z"/><path d="M155.2 262.3s24.4-12.8 33.3 27.2c8.9 40 9 58.2 9 58.2l76-11.7 1 27.6S193 386 183 383.6c-10-2.3-40.5-58.8-40.5-58.8s-28-44 12.7-62.5z" fill="#0A96D7" fill-rule="nonzero"/><g opacity=".1" fill="#000" fill-rule="nonzero"><path d="M270.4 342.4l3.6 18.2 10.1-2c20.5-4.3 64-15 47.1-25.1-14.4-8.6-36.6-1.8-49.8 3.7a117 117 0 0 0-11 5.2z"/><path d="M271.4 347.5l2.6 13.1 10.1-2-2.7-21.4a117 117 0 0 0-10 4.7v5.6z"/><path d="M270.8 361.7l12.5-2.5-2.8-22.9-10 2z"/><path d="M270.8 361.7l5.4-1-1-23.3-4.7 1z"/><path d="M157.2 264.3s24.4-12.8 33.3 27.2c8.9 40 9 58.2 9 58.2l76-11.7 1 27.6S195 388 185 385.6c-10-2.3-40.5-58.8-40.5-58.8s-28-44 12.7-62.5z"/></g><path d="M293.3 575l30 19s39.5 6.6 12.6 14.7c-27 8.2-88.1-4.3-88.1-4.3s4.6-27.5 9.6-31.2c5-3.6 35.9 1.8 35.9 1.8z" fill="#F37291" fill-rule="nonzero"/><path d="M182.3 371.2s15 8.6 41.8 16.7c15.7 4.8 35.5 8.5 49.2 10.7a35.8 35.8 0 0 1 29.4 27c1 4 1 8.3-.2 12.3-5.3 15.7-4.2 144.5-4.2 144.5l-46.8 2.3s7.4-23.5-1.8-35.8c-9-12.4 6.2-102.7 6.2-102.7s-16.6-7.8-67-10.5c-47.4 10-64.4-42.1-56.6-56.2 7.9-14 50-8.3 50-8.3z" fill="#96A2D0" fill-rule="nonzero"/><g opacity=".1" fill="#000" fill-rule="nonzero"><path d="M293.3 575l30 19s39.5 6.6 12.6 14.7c-27 8.2-88.1-4.3-88.1-4.3s4.6-27.5 9.6-31.2c5-3.6 35.9 1.8 35.9 1.8z"/><path d="M182.3 371.2s15 8.6 41.8 16.7c15.7 4.8 35.5 8.5 49.2 10.7a35.8 35.8 0 0 1 29.4 27c1 4 1 8.3-.2 12.3-5.3 15.7-4.2 144.5-4.2 144.5l-46.8 2.3s7.4-23.5-1.8-35.8c-9-12.4 6.2-102.7 6.2-102.7s-16.6-7.8-67-10.5c-47.4 10-64.4-42.1-56.6-56.2 7.9-14 50-8.3 50-8.3z"/></g><path d="M278.4 585l30 19s39.5 6.7 12.6 14.8c-27 8.2-88.1-4.3-88.1-4.3s4.6-27.5 9.6-31.1c4.9-3.7 35.9 1.7 35.9 1.7z" fill="#F37291" fill-rule="nonzero"/><path d="M174 445.8c50.4 2.7 67 10.5 67 10.5s-4.8 87.8 2 100.6c7.3 13.5-6.4 37.9-6.4 37.9l46.8-2.3v-4.2c-.1-22.4-.5-126.3 4.2-140.3 1.2-4 1.2-8.3.1-12.3a35.8 35.8 0 0 0-29.3-27 414.2 414.2 0 0 1-49.2-10.7l-.8-.2c-26.4-8-41-16.5-41-16.5s-31.2-2.2-39 11.8c-1 1.9-5.3 5.4-5.5 8.3-1.2 19.4 9.9 53.1 51 44.4z" fill="#96A2D0" fill-rule="nonzero"/><path d="M248.1 363.9l.9 18.5 10.3-.5c21-1.2 65.4-5.3 50.3-17.8-13-10.6-36-7.2-49.8-3.8-5 1.3-9 2.6-10.7 3.2l-1 .4zM129.3 237.6s6 5.1 13.4 10.8c8.3 2.3 18 4.3 25 5.6a40 40 0 0 1 2.9-24.8c3.4-8 8-15.6 13.6-22.5l-41.7-15a39 39 0 0 1-2.2 26.2 86.8 86.8 0 0 1-11 19.7z" fill="#F8B9BF" fill-rule="nonzero"/><path d="M248.4 369l.6 13.4 10.3-.5.5-21.6c-5 1.3-9 2.6-10.7 3.2l-.7 5.6z" fill="#000" fill-rule="nonzero" opacity=".1"/><path fill="#D9DFE8" fill-rule="nonzero" d="M245.6 383l12.8-.6.6-23-10.2.5z"/><path d="M123.8 406.8c27 28.1 77.4-5.3 91-15.1l3.3-2.6c-5-5.1-13-9.8-16-22.6a277 277 0 0 1-6-39.5c-.8-10.6 10.1-30.6 7-40.7-3.2-10-16.2-13.3-21.6-22.3a98.8 98.8 0 0 0-4.3-6.6 93.4 93.4 0 0 0-27.5-23.4c-37.4-12.7-40.3 40.6-39.4 42.3 1 1.6-3.3 60.4 13.5 130.5z" fill="#0A96D7" fill-rule="nonzero"/><path d="M123.5 330s21.7 60.4 31.3 64.2c5.5 2.2 35.4-.1 60-2.5l3.3-2.6c-5-5.1-9-15.6-12-28.4l-31.6.2s2.6-18-.2-59-28.9-31.8-28.9-31.8c-43 12.3-21.9 60-21.9 60zm122.1 53l5.5-.2 2.5-23.2-4.8.2z" fill="#000" fill-rule="nonzero" opacity=".1"/><path d="M146.2 267.5s26-9 28.8 31.9c2.9 40.8.3 58.9.3 58.9l76.8-.3-3 27.4s-84 10-93.5 6.3c-9.6-3.8-31.3-64.3-31.3-64.3s-21-47.6 21.9-60z" fill="#0A96D7" fill-rule="nonzero"/><path d="M147.1 207.3c1.4-6-5-6.2-7-12l41.7 15a93.4 93.4 0 0 0-8.4 12c-2.2.6-4.5 1-6.7 1-10.2.6-12.9-9.5-19.6-16z" fill="#000" fill-rule="nonzero" opacity=".1"/><circle fill="#F8B9BF" fill-rule="nonzero" transform="rotate(-2.8 167.4 185)" cx="167.4" cy="184.9" r="35"/><path d="M149.3 293.4s11 52.4 24.1 57.7c13 5.4 7.2 6.5 7.2 6.5m14.3-34.6s-9.3 2.9-20-11" fill="#000" fill-rule="nonzero" opacity=".1"/><circle fill="#FA595F" fill-rule="nonzero" cx="125.3" cy="136.3" r="16"/><path d="M114 144.7a16 16 0 0 1 0-21.9l-.7.7a16 16 0 0 0 22 23.3l.6-.7a16 16 0 0 1-21.8-1.4z" fill="#FA595F" fill-rule="nonzero"/><path d="M123.2 150.8a16 16 0 0 1-16.8-14v1a16 16 0 0 0 31.9-2l-.1-1a16 16 0 0 1-15 16z" fill="#FA595F" fill-rule="nonzero"/><path d="M180.3 150.2c3.7 1.8 8 2.3 12 3.5 4 1.1 8 3.3 9.8 7 1.3 2.8 1.1 6.1 2.5 8.9 2 4 6.4 5.8 10.5 7.4-3.5 4.7-11.1 3.4-16 .2-5-3.2-9.3-8-15-9.3a14 14 0 0 0-14.9 6.6c-1.6 2.8-2.1 6-3 9.1a34 34 0 0 1-13 20.8c-7 4.6-17.3 4.6-22.8-1.7a28.3 28.3 0 0 1-5.3-13.5c-.5-2.2-.7-4.5-.7-6.8.3-5.7 4.1-10.6 8-14.9 4.5-5 9.4-9.8 14.2-14.5 4.2-4.2 9-11.1 15.3-11.6 7.3-.6 12.4 5.9 18.3 8.8z" fill="#000" fill-rule="nonzero" opacity=".1"/><path d="M179.3 149.2c3.7 1.8 8 2.3 12 3.5 4 1.1 8 3.3 9.8 7 1.3 2.8 1.1 6.1 2.5 8.9 2 4 6.4 5.8 10.5 7.4-3.5 4.7-11.1 3.4-16 .2-5-3.2-9.3-8-15-9.3a14 14 0 0 0-14.9 6.6c-1.6 2.8-2.1 6-3 9.1a34 34 0 0 1-13 20.8c-7 4.6-17.3 4.6-22.8-1.7a28.3 28.3 0 0 1-5.3-13.5c-.5-2.2-.7-4.5-.7-6.8.3-5.7 4.1-10.6 8-14.9 4.5-5 9.4-9.8 14.2-14.5 4.2-4.2 9-11.1 15.3-11.6 7.3-.6 12.4 5.9 18.3 8.8z" fill="#FA595F" fill-rule="nonzero"/><rect fill="#D6D6E3" fill-rule="nonzero" x="77.6" y="371.3" width="114" height="17.6" rx="8.5"/><path d="M77.6 380.3v1.3c0 4 3.2 7.3 7.2 7.3h99.6c4 0 7.2-3.3 7.2-7.3v-1.3h-114z" fill="#000" fill-rule="nonzero" opacity=".1"/><path fill="#D6D6E3" fill-rule="nonzero" d="M278.4 389.6H298v249.9h-19.6z"/><path fill="#000" fill-rule="nonzero" opacity=".1" d="M278.4 389.6H298v16.2h-19.6z"/><path fill="#D6D6E3" fill-rule="nonzero" d="M269 371.7h518.4v32.4H269z"/></g></svg>