<?xml version="1.0" encoding="UTF-8"?>
<svg width="300px" height="300px" viewBox="0 0 300 300" version="1.1" xmlns="http://www.w3.org/2000/svg" xmlns:xlink="http://www.w3.org/1999/xlink">
    <!-- Generator: Sketch 50.2 (55047) - http://www.bohemiancoding.com/sketch -->
    <title>Group 24</title>
    <desc>Created with Sketch.</desc>
    <defs></defs>
    <g id="Page-1" stroke="none" stroke-width="1" fill="none" fill-rule="evenodd">
        <g id="Group-24">
            <rect id="Rectangle-15" fill="#F2F6FF" x="0" y="0" width="300" height="300"></rect>
            <g id="photo" transform="translate(91.000000, 98.000000)" fill="#50D478" fill-rule="nonzero">
                <circle id="Oval" cx="45" cy="34" r="8"></circle>
                <path d="M111.959924,64.0409483 C108.099237,60.4202586 103.216603,58.044181 97.879771,57.3653017 L97.879771,15.9536638 C97.879771,11.5409483 96.0629771,7.58081897 93.2242366,4.63900862 C90.2719466,1.69719828 86.2977099,0 81.8692748,0 L16.0104962,0 C11.5820611,0 7.60782443,1.81034483 4.65553435,4.63900862 C1.70324427,7.58081897 0,11.5409483 0,15.9536638 L0,68.1142241 L0,72.9795259 L0,83.5021552 C0,87.9148707 1.81679389,91.875 4.65553435,94.8168103 C7.60782443,97.7586207 11.5820611,99.455819 16.0104962,99.455819 L79.7118321,99.455819 C83.9131679,102.850216 89.1364504,105 94.9274809,105 C101.626908,105 107.645038,102.284483 111.959924,97.9849138 C116.274809,93.6853448 119,87.6885776 119,81.012931 C119,74.3372845 116.274809,68.3405172 111.959924,64.0409483 Z M6.01812977,15.9536638 C6.01812977,13.2381466 7.15362595,10.7489224 8.97041985,8.93857759 C10.7872137,7.12823276 13.2853053,5.99676724 16.0104962,5.99676724 L81.8692748,5.99676724 C84.5944656,5.99676724 87.0925573,7.12823276 88.9093511,8.93857759 C90.726145,10.7489224 91.8616412,13.2381466 91.8616412,15.9536638 L91.8616412,51.2553879 L75.0562977,34.6228448 C73.9208015,33.4913793 71.990458,33.3782328 70.7414122,34.6228448 L45.4198473,59.9676724 L28.273855,42.7693966 C27.1383588,41.637931 25.2080153,41.5247845 23.9589695,42.7693966 L6.01812977,60.8728448 L6.01812977,15.9536638 Z M15.8969466,93.5721983 L15.8969466,93.4590517 C13.1717557,93.4590517 10.6736641,92.3275862 8.85687023,90.5172414 C7.15362595,88.7068966 6.01812977,86.2176724 6.01812977,83.5021552 L6.01812977,72.9795259 L6.01812977,69.3588362 L26.2299618,49.21875 L43.3759542,66.3038793 C44.5114504,67.4353448 46.4417939,67.4353448 47.6908397,66.3038793 L73.0124046,40.9590517 L89.5906489,57.5915948 C89.25,57.7047414 88.9093511,57.8178879 88.5687023,57.9310345 C88.1145038,58.044181 87.6603053,58.1573276 87.0925573,58.3836207 C86.6383588,58.4967672 86.1841603,58.7230603 85.7299618,58.8362069 C85.389313,58.9493534 85.1622137,59.0625 84.8215649,59.2887931 C84.3673664,59.5150862 84.0267176,59.6282328 83.6860687,59.8545259 C83.1183206,60.1939655 82.5505725,60.5334052 81.9828244,60.8728448 C81.6421756,61.0991379 81.4150763,61.2122845 81.0744275,61.4385776 C80.8473282,61.5517241 80.7337786,61.6648707 80.5066794,61.7780172 C79.4847328,62.4568966 78.5763359,63.2489224 77.7814885,64.1540948 C73.4666031,68.4536638 70.7414122,74.450431 70.7414122,81.1260776 C70.7414122,82.8232759 70.9685115,84.4073276 71.3091603,86.1045259 C71.4227099,86.5571121 71.5362595,86.8965517 71.6498092,87.3491379 C71.990458,88.4806034 72.3311069,89.612069 72.7853053,90.7435345 L72.7853053,90.856681 C73.2395038,91.7618534 73.6937023,92.7801724 74.2614504,93.5721983 L15.8969466,93.5721983 Z M107.531489,93.6853448 C104.23855,96.9665948 99.8101145,98.8900862 94.8139313,98.8900862 C90.0448473,98.8900862 85.6164122,96.9665948 82.4370229,93.9116379 C81.9828244,93.4590517 81.528626,92.893319 81.0744275,92.4407328 C80.7337786,92.1012931 80.3931298,91.6487069 80.0524809,91.3092672 C79.5982824,90.7435345 79.2576336,90.0646552 78.9169847,89.3857759 C78.6898855,88.9331897 78.4627863,88.59375 78.235687,88.1411638 C78.0085878,87.575431 77.7814885,86.8965517 77.6679389,86.2176724 C77.5543893,85.7650862 77.3272901,85.1993534 77.2137405,84.7467672 C76.9866412,83.6153017 76.8730916,82.3706897 76.8730916,81.1260776 C76.8730916,76.1476293 78.9169847,71.7349138 82.096374,68.4536638 C85.389313,65.1724138 89.8177481,63.2489224 94.8139313,63.2489224 C99.8101145,63.2489224 104.23855,65.2855603 107.531489,68.4536638 C110.824427,71.6217672 112.754771,76.1476293 112.754771,81.1260776 C112.754771,85.9913793 110.710878,90.4040948 107.531489,93.6853448 Z" id="Shape"></path>
                <path d="M104.947826,77.9478261 L98.0521739,77.9478261 L98.0521739,71.0521739 C98.0521739,69.3565217 96.6956522,68 95,68 C93.3043478,68 91.9478261,69.3565217 91.9478261,71.0521739 L91.9478261,77.9478261 L85.0521739,77.9478261 C83.3565217,77.9478261 82,79.3043478 82,81 C82,82.6956522 83.3565217,84.0521739 85.0521739,84.0521739 L91.9478261,84.0521739 L91.9478261,90.9478261 C91.9478261,92.6434783 93.3043478,94 95,94 C96.6956522,94 98.0521739,92.6434783 98.0521739,90.9478261 L98.0521739,84.0521739 L104.947826,84.0521739 C106.643478,84.0521739 108,82.6956522 108,81 C108,79.3043478 106.643478,77.9478261 104.947826,77.9478261 Z" id="Shape"></path>
            </g>
        </g>
    </g>
</svg>