<?xml version="1.0" encoding="UTF-8"?>
<svg width="75px" height="94px" viewBox="0 0 75 94" version="1.1" xmlns="http://www.w3.org/2000/svg" xmlns:xlink="http://www.w3.org/1999/xlink">
    <!-- Generator: Sketch 50.2 (55047) - http://www.bohemiancoding.com/sketch -->
    <title>password</title>
    <desc>Created with Sketch.</desc>
    <defs></defs>
    <g id="Page-1" stroke="none" stroke-width="1" fill="none" fill-rule="evenodd">
        <g id="Business-page-loggedin" transform="translate(-110.000000, -615.000000)" fill-rule="nonzero">
            <g id="Group-4-Copy-2" transform="translate(83.000000, 570.000000)">
                <g id="password" transform="translate(27.000000, 45.000000)">
                    <path d="M38.5,7 C35.4666747,7 33,9.46667472 33,12.5 C33,15.5333253 35.4666747,18 38.5,18 C41.5333253,18 44,15.5333253 44,12.5 C44,9.46667472 41.5333253,7 38.5,7 Z M38.5,15.25 C36.9833374,15.25 35.75,14.0166626 35.75,12.5 C35.75,10.9833374 36.9833374,9.75 38.5,9.75 C40.0166626,9.75 41.25,10.9833374 41.25,12.5 C41.25,14.0166626 40.0166626,15.25 38.5,15.25 Z" id="Shape" fill="#D5D5D5"></path>
                    <path d="M53.492665,13.9893995 C53.2454861,13.8465222 53.0138022,13.684397 52.7555556,13.5570659 C52.7090711,6.0733997 46.624783,0 39.1555556,0 C31.6863281,0 25.60204,6.0733997 25.5555556,13.5555854 C20.931467,15.8512475 18,20.5358493 18,25.7741935 C18,27.9543693 18.5246094,30.0086946 19.4358506,31.8387097 L21.0222222,34.3327715 C23.5168836,37.4301757 27.3293403,39.4193548 31.6,39.4193548 L31.6,60.6451613 L22.5333333,60.6451613 L22.5333333,69.7419355 L25.5555556,69.7419355 L25.5555556,75.8064516 L22.5333333,75.8064516 L22.5333333,84.9032258 L31.6,84.9032258 L31.6,88.563256 L37.01875,94 L41.2923611,94 L46.7111111,88.563256 L46.7111111,39.4193548 C54.2105903,39.4193548 60.3111111,33.2985761 60.3111111,25.7741935 C60.3111111,21.9431546 58.7306423,18.4178585 56.0788194,15.8964056 L53.492665,13.9893995 Z M25.5555556,81.8709677 L25.5555556,78.8387097 L28.5777778,78.8387097 L28.5777778,66.7096774 L25.5555556,66.7096774 L25.5555556,63.6774194 L31.6,63.6774194 L31.6,81.8709677 L25.5555556,81.8709677 Z M46.7111111,36.3870968 C46.2610244,36.3870968 45.8212673,36.3493416 45.3874133,36.293079 L43.6888889,36.0806136 L43.6888889,87.3077117 L40.0409722,90.9677419 L38.2701389,90.9677419 L34.6222222,87.3077117 L34.6222222,36.0806136 L32.9236978,36.2945596 C32.4898438,36.3493416 32.0500867,36.3870968 31.6,36.3870968 C25.7687934,36.3870968 21.0222222,31.6247638 21.0222222,25.7741935 C21.0222222,21.4168031 23.6334636,17.5509703 27.6724392,15.9267577 L28.6914062,15.4159526 L28.6109809,14.3106887 C28.5962239,14.0893397 28.5777778,13.8694714 28.5777778,13.6451613 C28.5777778,7.79459106 33.3243489,3.03225806 39.1555556,3.03225806 C44.9867622,3.03225806 49.7333333,7.79459106 49.7333333,13.6451613 C49.7333333,13.8694714 49.7148872,14.0893397 49.7001303,14.309208 L49.6138022,15.5144121 L50.6386719,15.9252772 C54.6776475,17.5509703 57.2888889,21.4168031 57.2888889,25.7741935 C57.2888889,31.6247638 52.5423178,36.3870968 46.7111111,36.3870968 Z" id="Shape" fill="#D5D5D5"></path>
                    <polygon id="Shape" fill="#FFFFFF" points="57 70 60 70 60 73 57 73"></polygon>
                    <polygon id="Shape" fill="#FFFFFF" points="0 32 3 32 3 35 0 35"></polygon>
                    <g id="refresh-page-option" transform="translate(53.000000, 49.000000)">
                        <path d="M21.724868,1.16693575 C21.5414129,0.989021273 21.3239469,0.899768494 21.0726732,0.899768494 C20.8215011,0.899768494 20.6043397,0.989021273 20.4205292,1.16693575 L18.5365858,2.98129895 C17.5028104,2.03429347 16.319083,1.30051938 14.9858604,0.780321481 C13.6527393,0.260074323 12.280379,0 10.869693,0 C8.21258814,0 5.89386514,0.780370737 3.91311792,2.34145701 C1.93231993,3.90234625 0.628031897,5.93890552 0,8.45162738 L0,8.54999261 C0,8.67185319 0.0458384096,8.77740987 0.137667516,8.86636711 C0.229496622,8.95547212 0.338128069,8.99995074 0.463714143,8.99995074 L3.34772677,8.99995074 C3.56037029,8.99995074 3.7051953,8.89207901 3.78255713,8.67658182 C4.18830066,7.7391321 4.44424447,7.19071022 4.55064237,7.03126693 C5.22689851,5.96249938 6.12544302,5.12336564 7.24627589,4.51396422 C8.36721029,3.90461205 9.57489755,3.59981283 10.86949,3.59981283 C12.8117086,3.59981283 14.497628,4.24206834 15.9277052,5.52648084 L13.9273637,7.46703919 C13.7442639,7.64519995 13.6521809,7.85626406 13.6521809,8.10003448 C13.6521809,8.34375564 13.7442131,8.55472124 13.9273637,8.73283274 C14.1111742,8.9109935 14.3286401,9 14.579863,9 L21.0726732,9 C21.3238961,9 21.5413621,8.9109935 21.724868,8.73283274 C21.9082724,8.55472124 22,8.3438049 22,8.10003448 L22,1.79978327 C22,1.55601285 21.9088308,1.34514577 21.724868,1.16693575 Z" id="Shape" fill="#00DD80"></path>
                        <path d="M20.5547834,12.0005911 L17.8864045,12.0005911 C17.6825375,12.0005911 17.5435594,12.1083109 17.4696163,12.3239968 C17.0806724,13.2615092 16.8349417,13.8096638 16.7331542,13.9691009 C16.0844601,15.0375813 15.2227474,15.8769784 14.1482108,16.4863072 C13.0732361,17.0958331 11.915118,17.4002758 10.6736131,17.4002758 C9.77495312,17.4002758 8.90856724,17.2316773 8.07479619,16.8942832 C7.24092777,16.556495 6.49497333,16.078282 5.83722494,15.4594963 L7.7412975,13.5330498 C7.91727148,13.3550929 8.00533149,13.1438891 8.00533149,12.9002758 C8.00533149,12.656564 7.91727148,12.4453602 7.7412975,12.2675018 C7.56522616,12.0892001 7.35683207,12 7.11592053,12 L0.889556999,12 C0.648499417,12 0.440007974,12.0892001 0.263985313,12.2675018 C0.0879626517,12.4454095 0,12.6566133 0,12.9003251 L0,19.2003349 C0,19.443899 0.0879626517,19.6550535 0.264033992,19.833109 C0.440202689,20.0109181 0.648694132,20.100463 0.889605678,20.100463 C1.13046855,20.100463 1.33886263,20.0109674 1.51498265,19.833109 L3.3077754,18.0189138 C4.2992172,18.9749458 5.42734916,19.711056 6.69207393,20.2266533 C7.95679869,20.7424476 9.26552913,21 10.6181679,21 C13.1570124,21 15.3713152,20.2195606 17.2614169,18.6587312 C19.1515187,17.097951 20.3930723,15.0610757 20.9863212,12.5486964 C20.9956189,12.5299796 21,12.4971268 21,12.4504334 C21,12.3283805 20.9558483,12.2232712 20.867837,12.133874 C20.7797283,12.045265 20.6754095,12.0005911 20.5547834,12.0005911 Z" id="Shape" fill="#19D385"></path>
                    </g>
                </g>
            </g>
        </g>
    </g>
</svg>