<?xml version="1.0" encoding="UTF-8"?>
<svg width="584px" height="490px" viewBox="0 0 584 490" version="1.1" xmlns="http://www.w3.org/2000/svg" xmlns:xlink="http://www.w3.org/1999/xlink">
    <!-- Generator: Sketch 50.2 (55047) - http://www.bohemiancoding.com/sketch -->
    <title>Group 22</title>
    <desc>Created with Sketch.</desc>
    <defs></defs>
    <g id="Page-1" stroke="none" stroke-width="1" fill="none" fill-rule="evenodd">
        <g id="Desktop-HD" transform="translate(-56.000000, -4169.000000)">
            <g id="Footer" transform="translate(42.000000, 4027.000000)">
                <g id="bg-copy" transform="translate(798.500000, 333.500000) scale(1, -1) translate(-798.500000, -333.500000) translate(0.000000, 19.000000)">
                    <g id="Group-22">
                        <path d="M229.698702,73.413008 C267.05615,78.8810756 310.897977,81.6151094 361.224184,81.6151094 C414.786404,81.6151094 461.003534,78.5181705 499.875573,72.3242927 L499.875573,72.3242934 C519.510132,69.1957191 537.963298,82.5764637 541.091872,102.211023 C541.513154,104.854936 541.638188,107.537594 541.464655,110.209231 C536.947219,179.757573 535.257151,223.138099 536.394452,240.350807 C537.574791,258.214898 539.775557,307.240147 542.99675,387.426556 L542.996751,387.426556 C543.794803,407.292785 528.336992,424.044495 508.470763,424.842547 C506.717806,424.912965 504.962046,424.855151 503.217518,424.669566 C458.643376,419.927704 411.434399,417.556773 361.590587,417.556773 C314.49165,417.556773 269.619401,419.673762 226.973839,423.90774 L226.973839,423.907739 C207.188861,425.87205 189.557578,411.425545 187.593267,391.640567 C187.236481,388.046946 187.422443,384.420096 188.144907,380.881812 C201.79142,314.047691 208.614676,268.79061 208.614676,245.11057 C208.614676,222.062813 202.150932,179.122014 189.223444,116.288171 L189.223444,116.288171 C185.216773,96.8138165 197.755809,77.7786844 217.230164,73.772014 C221.33379,72.9277304 225.553296,72.8062384 229.698702,73.413008 Z" id="Rectangle-2" fill="#E4EFF8" transform="translate(365.221726, 248.371031) rotate(37.000000) translate(-365.221726, -248.371031) "></path>
                        <path d="M112.698702,96.5102872 C150.05615,101.978355 193.897977,104.712389 244.224184,104.712389 C297.786404,104.712389 344.003534,101.61545 382.875573,95.4215719 L382.875573,95.4215726 C402.510132,92.2929983 420.963298,105.673743 424.091872,125.308302 C424.513154,127.952215 424.638188,130.634873 424.464655,133.30651 C419.947219,202.854852 418.257151,246.235378 419.394452,263.448087 C420.574791,281.312177 422.775557,330.337426 425.99675,410.523835 L425.996751,410.523835 C426.794803,430.390064 411.336992,447.141774 391.470763,447.939826 C389.717806,448.010245 387.962046,447.95243 386.217518,447.766845 C341.643376,443.024983 294.434399,440.654053 244.590587,440.654053 C197.49165,440.654053 152.619401,442.771041 109.973839,447.005019 L109.973839,447.005018 C90.1888608,448.96933 72.5575779,434.522824 70.5932666,414.737846 C70.2364813,411.144225 70.422443,407.517375 71.1449069,403.979092 C84.7914198,337.14497 91.6146763,291.88789 91.6146763,268.207849 C91.6146763,245.160092 85.1509322,202.219293 72.2234439,139.385451 L72.2234437,139.385451 C68.2167733,119.911096 80.7558091,100.875964 100.230164,96.8692932 C104.33379,96.0250096 108.553296,95.9035176 112.698702,96.5102872 Z" id="Rectangle-2-Copy" fill="#FED966" opacity="0.218861607" transform="translate(248.221726, 271.468310) rotate(37.000000) translate(-248.221726, -271.468310) "></path>
                    </g>
                </g>
            </g>
        </g>
    </g>
</svg>