<?xml version="1.0" encoding="UTF-8"?>
<svg width="587px" height="506px" viewBox="0 0 587 506" version="1.1" xmlns="http://www.w3.org/2000/svg" xmlns:xlink="http://www.w3.org/1999/xlink">
    <!-- Generator: Sketch 50.2 (55047) - http://www.bohemiancoding.com/sketch -->
    <title>Group 6</title>
    <desc>Created with Sketch.</desc>
    <defs></defs>
    <g id="Page-1" stroke="none" stroke-width="1" fill="none" fill-rule="evenodd">
        <g id="Desktop-HD-Copy" transform="translate(-238.000000, -93.000000)">
            <g id="bg" transform="translate(-309.000000, -131.000000)">
                <g id="Group-6" transform="translate(533.000000, 208.000000)">
                    <path d="M232.698702,73.0070377 C270.05615,78.4751053 313.897977,81.2091391 364.224184,81.2091391 C417.786404,81.2091391 464.003534,78.1122002 502.875573,71.9183224 L502.875573,71.9183231 C522.510132,68.7897489 540.963298,82.1704934 544.091872,101.805053 C544.513154,104.448966 544.638188,107.131624 544.464655,109.80326 C539.947219,179.351603 538.257151,222.732128 539.394452,239.944837 C540.574791,257.808927 542.775557,306.834177 545.99675,387.020586 L545.996751,387.020586 C546.794803,406.886815 531.336992,423.638524 511.470763,424.436577 C509.717806,424.506995 507.962046,424.449181 506.217518,424.263595 C461.643376,419.521734 414.434399,417.150803 364.590587,417.150803 C317.49165,417.150803 272.619401,419.267792 229.973839,423.50177 L229.973839,423.501769 C210.188861,425.46608 192.557578,411.019575 190.593267,391.234597 C190.236481,387.640976 190.422443,384.014126 191.144907,380.475842 C204.79142,313.641721 211.614676,268.38464 211.614676,244.7046 C211.614676,221.656843 205.150932,178.716043 192.223444,115.882201 L192.223444,115.882201 C188.216773,96.4078462 200.755809,77.3727142 220.230164,73.3660438 C224.33379,72.5217602 228.553296,72.4002682 232.698702,73.0070377 Z" id="Rectangle-2" fill="#2DAAE4" opacity="0.684877232" transform="translate(368.221726, 247.965061) rotate(37.000000) translate(-368.221726, -247.965061) "></path>
                    <path d="M112.698702,113.007038 C150.05615,118.475105 193.897977,121.209139 244.224184,121.209139 C297.786404,121.209139 344.003534,118.1122 382.875573,111.918322 L382.875573,111.918323 C402.510132,108.789749 420.963298,122.170493 424.091872,141.805053 C424.513154,144.448966 424.638188,147.131624 424.464655,149.80326 C419.947219,219.351603 418.257151,262.732128 419.394452,279.944837 C420.574791,297.808927 422.775557,346.834177 425.99675,427.020586 L425.996751,427.020586 C426.794803,446.886815 411.336992,463.638524 391.470763,464.436577 C389.717806,464.506995 387.962046,464.449181 386.217518,464.263595 C341.643376,459.521734 294.434399,457.150803 244.590587,457.150803 C197.49165,457.150803 152.619401,459.267792 109.973839,463.50177 L109.973839,463.501769 C90.1888608,465.46608 72.5575779,451.019575 70.5932666,431.234597 C70.2364813,427.640976 70.422443,424.014126 71.1449069,420.475842 C84.7914198,353.641721 91.6146763,308.38464 91.6146763,284.7046 C91.6146763,261.656843 85.1509322,218.716043 72.2234439,155.882201 L72.2234437,155.882201 C68.2167733,136.407846 80.7558091,117.372714 100.230164,113.366044 C104.33379,112.52176 108.553296,112.400268 112.698702,113.007038 Z" id="Rectangle-2-Copy" fill="#FFFFFF" opacity="0.0671875" transform="translate(248.221726, 287.965061) rotate(37.000000) translate(-248.221726, -287.965061) "></path>
                </g>
            </g>
        </g>
    </g>
</svg>