<?xml version="1.0" encoding="UTF-8"?>
<svg width="649px" height="649px" viewBox="0 0 649 649" version="1.1" xmlns="http://www.w3.org/2000/svg" xmlns:xlink="http://www.w3.org/1999/xlink">
    <!-- Generator: Sketch 52.6 (67491) - http://www.bohemiancoding.com/sketch -->
    <title>Group 3</title>
    <desc>Created with Sketch.</desc>
    <g id="Page-1" stroke="none" stroke-width="1" fill="none" fill-rule="evenodd">
        <g id="Group-Copy-2">
            <g id="Group-3">
                <rect id="Rectangle" fill="#F2F6FF" x="0" y="0" width="649" height="649"></rect>
                <g id="photo" transform="translate(189.000000, 195.000000)" fill="#50D478">
                    <circle id="Oval" cx="110.5" cy="83.5" r="19.5"></circle>
                    <path d="M275.666031,157.967672 C266.160306,149.036638 254.138359,143.175646 240.998092,141.501078 L240.998092,39.3523707 C240.998092,28.4676725 236.524809,18.6993535 229.535305,11.4428879 C222.266221,4.18642242 212.480916,0 201.57729,0 L39.4208016,0 C28.5171756,0 18.7318702,4.46551725 11.4627863,11.4428879 C4.19370228,18.6993535 0,28.4676725 0,39.3523707 L0,168.015086 L0,180.016164 L0,205.971983 C0,216.856681 4.47328244,226.625 11.4627863,233.881465 C18.7318702,241.137931 28.5171756,245.324354 39.4208016,245.324354 L196.265267,245.324354 C206.609733,253.697199 219.47042,259 233.729008,259 C250.224236,259 265.041984,252.301725 275.666031,241.696121 C286.290076,231.090517 293,216.298491 293,199.831896 C293,183.365302 286.290076,168.573276 275.666031,157.967672 Z M14.8177481,39.3523707 C14.8177481,32.6540949 17.6135496,26.5140086 22.0868321,22.0484914 C26.5601144,17.5829741 32.7108778,14.7920259 39.4208016,14.7920259 L201.57729,14.7920259 C208.287214,14.7920259 214.437977,17.5829741 218.911259,22.0484914 C223.384542,26.5140086 226.180343,32.6540949 226.180343,39.3523707 L226.180343,126.429957 L184.802481,85.4030172 C182.006679,82.6120689 177.253817,82.3329742 174.178435,85.4030172 L111.832061,147.920259 L69.6154581,105.497845 C66.8196565,102.706896 62.066794,102.427802 58.9914123,105.497845 L14.8177481,150.153017 L14.8177481,39.3523707 Z M39.1412215,230.811422 L39.1412215,230.532328 C32.4312976,230.532328 26.2805343,227.741379 21.8072519,223.275862 C17.6135496,218.810345 14.8177481,212.670259 14.8177481,205.971983 L14.8177481,180.016164 L14.8177481,171.085129 L64.5830152,121.40625 L106.799618,163.549569 C109.59542,166.340517 114.348282,166.340517 117.423664,163.549569 L179.770038,101.032328 L220.588741,142.059267 C219.75,142.338362 218.911259,142.617457 218.072519,142.896552 C216.954198,143.175646 215.835878,143.454741 214.437977,144.012931 C213.319657,144.292026 212.201336,144.850215 211.083015,145.12931 C210.244275,145.408405 209.685114,145.6875 208.846374,146.24569 C207.728053,146.803879 206.889313,147.082974 206.050573,147.641164 C204.652672,148.478448 203.254771,149.315733 201.85687,150.153017 C201.01813,150.711207 200.458969,150.990302 199.620229,151.548491 C199.061069,151.827586 198.781488,152.106681 198.222328,152.385776 C195.706107,154.060345 193.469466,156.014009 191.512404,158.246767 C180.888359,168.852371 174.178435,183.644396 174.178435,200.110991 C174.178435,204.297414 174.737596,208.204741 175.576336,212.391164 C175.855916,213.507543 176.135496,214.344828 176.415076,215.461207 C177.253817,218.252155 178.092557,221.043104 179.210878,223.834052 L179.210878,224.113146 C180.329198,226.345905 181.447519,228.857759 182.84542,230.811422 L39.1412215,230.811422 Z M264.762406,231.090517 C256.654581,239.184267 245.750954,243.928879 233.449427,243.928879 C221.707061,243.928879 210.803435,239.184267 202.975191,231.648707 C201.85687,230.532328 200.73855,229.136854 199.620229,228.020474 C198.781488,227.18319 197.942748,226.06681 197.104008,225.229526 C195.985687,223.834052 195.146947,222.159483 194.308206,220.484914 C193.749046,219.368535 193.189886,218.53125 192.630725,217.414871 C192.071565,216.019396 191.512404,214.344828 191.232824,212.670259 C190.953244,211.553879 190.394084,210.158405 190.114504,209.042026 C189.555343,206.251078 189.275763,203.181035 189.275763,200.110991 C189.275763,187.830819 194.308206,176.946121 202.13645,168.852371 C210.244275,160.758621 221.147901,156.014009 233.449427,156.014009 C245.750954,156.014009 256.654581,161.037715 264.762406,168.852371 C272.870228,176.667026 277.623092,187.830819 277.623092,200.110991 C277.623092,212.112069 272.590649,222.996767 264.762406,231.090517 Z" id="Shape" fill-rule="nonzero"></path>
                    <path d="M258.486956,192.486957 L241.513043,192.486957 L241.513043,175.513043 C241.513043,171.33913 238.173913,168 234,168 C229.826087,168 226.486957,171.33913 226.486957,175.513043 L226.486957,192.486957 L209.513043,192.486957 C205.33913,192.486957 202,195.826087 202,200 C202,204.173913 205.33913,207.513043 209.513043,207.513043 L226.486957,207.513043 L226.486957,224.486957 C226.486957,228.66087 229.826087,232 234,232 C238.173913,232 241.513043,228.66087 241.513043,224.486957 L241.513043,207.513043 L258.486956,207.513043 C262.660869,207.513043 266,204.173913 266,200 C266,195.826087 262.660869,192.486957 258.486956,192.486957 Z" id="Shape"></path>
                </g>
            </g>
        </g>
    </g>
</svg>