<?xml version="1.0" encoding="UTF-8"?>
<svg width="649px" height="649px" viewBox="0 0 649 649" version="1.1" xmlns="http://www.w3.org/2000/svg" xmlns:xlink="http://www.w3.org/1999/xlink">
    <!-- Generator: Sketch 50.2 (55047) - http://www.bohemiancoding.com/sketch -->
    <title>upload_pdf_file copy 3</title>
    <desc>Created with Sketch.</desc>
    <defs></defs>
    <g id="Page-1" stroke="none" stroke-width="1" fill="none" fill-rule="evenodd">
        <g id="upload_pdf_file-copy-3" fill-rule="nonzero">
            <rect id="Rectangle" fill="#F2F6FF" x="0" y="0" width="649" height="649"></rect>
            <g id="word" transform="translate(170.000000, 176.000000)">
                <path d="M308.0625,257 L168.9375,257 C163.452,257 159,252.580545 159,247.090909 C159,241.601273 159,54.3789091 159,48.9090909 C159,43.4392727 163.452,39 168.9375,39 L308.0625,39 C313.548,39 318,43.4392727 318,48.9090909 L318,247.090909 C318,252.580545 313.548,257 308.0625,257 Z" id="Shape" fill="#ECEFF1"></path>
                <g id="Group" transform="translate(166.000000, 92.000000)" fill="#1565C0">
                    <path d="M42.962963,17.2088889 L8.59259259,17.2088889 C3.84948148,17.2088889 0,13.3540978 0,8.60444444 C0,3.85479111 3.84948148,0 8.59259259,0 L42.962963,0 C47.7060741,0 51.5555556,3.85479111 51.5555556,8.60444444 C51.5555556,13.3540978 47.7060741,17.2088889 42.962963,17.2088889 Z" id="Shape"></path>
                    <path d="M42.962963,51.9074183 L8.59259259,51.9074183 C3.84948148,51.9074183 0,48.0526272 0,43.3029739 C0,38.5533205 3.84948148,34.6985294 8.59259259,34.6985294 L42.962963,34.6985294 C47.7060741,34.6985294 51.5555556,38.5533205 51.5555556,43.3029739 C51.5555556,48.0526272 47.7060741,51.9074183 42.962963,51.9074183 Z" id="Shape"></path>
                    <path d="M42.962963,86.6059477 L8.59259259,86.6059477 C3.84948148,86.6059477 0,82.7511566 0,78.0015033 C0,73.2518499 3.84948148,69.3970588 8.59259259,69.3970588 L42.962963,69.3970588 C47.7060741,69.3970588 51.5555556,73.2518499 51.5555556,78.0015033 C51.5555556,82.7511566 47.7060741,86.6059477 42.962963,86.6059477 Z" id="Shape"></path>
                    <path d="M42.962963,120.414771 L8.59259259,120.414771 C3.84948148,120.414771 0,116.55998 0,111.810327 C0,107.060673 3.84948148,103.205882 8.59259259,103.205882 L42.962963,103.205882 C47.7060741,103.205882 51.5555556,107.060673 51.5555556,111.810327 C51.5555556,116.55998 47.7060741,120.414771 42.962963,120.414771 Z" id="Shape"></path>
                    <path d="M95.1111111,17.2088889 L77.9259259,17.2088889 C73.1828148,17.2088889 69.3333333,13.3540978 69.3333333,8.60444444 C69.3333333,3.85479111 73.1828148,0 77.9259259,0 L95.1111111,0 C99.8542222,0 103.703704,3.85479111 103.703704,8.60444444 C103.703704,13.3540978 99.8542222,17.2088889 95.1111111,17.2088889 Z" id="Shape"></path>
                    <path d="M95.1111111,51.9074183 L77.9259259,51.9074183 C73.1828148,51.9074183 69.3333333,48.0526272 69.3333333,43.3029739 C69.3333333,38.5533205 73.1828148,34.6985294 77.9259259,34.6985294 L95.1111111,34.6985294 C99.8542222,34.6985294 103.703704,38.5533205 103.703704,43.3029739 C103.703704,48.0526272 99.8542222,51.9074183 95.1111111,51.9074183 Z" id="Shape"></path>
                    <path d="M95.1111111,86.6059477 L77.9259259,86.6059477 C73.1828148,86.6059477 69.3333333,82.7511566 69.3333333,78.0015033 C69.3333333,73.2518499 73.1828148,69.3970588 77.9259259,69.3970588 L95.1111111,69.3970588 C99.8542222,69.3970588 103.703704,73.2518499 103.703704,78.0015033 C103.703704,82.7511566 99.8542222,86.6059477 95.1111111,86.6059477 Z" id="Shape"></path>
                    <path d="M95.1111111,120.414771 L77.9259259,120.414771 C73.1828148,120.414771 69.3333333,116.55998 69.3333333,111.810327 C69.3333333,107.060673 73.1828148,103.205882 77.9259259,103.205882 L95.1111111,103.205882 C99.8542222,103.205882 103.703704,107.060673 103.703704,111.810327 C103.703704,116.55998 99.8542222,120.414771 95.1111111,120.414771 Z" id="Shape"></path>
                </g>
                <path d="M174.420222,2.30977056 C172.165556,0.402604337 169.139556,-0.392048255 166.291556,0.184074874 L8.06933333,29.9835471 C3.40177778,30.8576649 0,34.9699921 0,39.7379076 L0,258.26737 C0,263.035286 3.382,267.147613 8.06933333,268.021731 L166.291556,297.821203 C166.904667,297.940401 167.498,298 168.111111,298 C170.405333,298 172.640222,297.205347 174.420222,295.715374 C176.694667,293.828074 178,291.026924 178,288.066843 L178,9.93843544 C178,6.97835454 176.694667,4.19707046 174.420222,2.30977056 Z" id="Shape" fill="#1565C0"></path>
                <path d="M129.040429,199.202057 C128.525639,203.739735 124.961706,207.365914 120.42759,207.920739 C120.011798,207.980185 119.615806,208 119.200013,208 C115.12129,208 111.398959,205.463656 109.933787,201.57988 L89.5005687,147.048488 L69.0673508,201.57988 C67.4833804,205.82033 63.3254582,208.416119 58.7319441,207.940554 C54.2374281,207.46499 50.6338955,203.977517 50.0003073,199.47947 L40.1004925,130.12632 C39.3283069,124.736589 43.0902365,119.703532 48.4955355,118.93074 C53.920634,118.138132 58.9299404,121.922833 59.7021259,127.332379 L64.1174434,158.323329 L80.2145424,115.344191 C83.1052883,107.616269 95.8562499,107.616269 98.7667955,115.344191 L113.933312,155.806801 L119.259412,107.814421 C119.873201,102.38506 124.902307,98.481468 130.188808,99.0561084 C135.633706,99.6901943 139.534233,104.584545 138.940244,110.013906 L129.040429,199.202057 Z" id="Shape" fill="#FAFAFA"></path>
            </g>
            <g id="success-copy" transform="translate(510.000000, 79.000000)" fill="#50D478">
                <path d="M37.5,0 C16.8230769,0 0,16.8216346 0,37.5 C0,58.1783654 16.8230769,75 37.5,75 C58.1769231,75 75,58.1783654 75,37.5 C75,16.8216346 58.1769231,0 37.5,0 Z M58.40625,24.99375 L35.3293269,50.9552885 C34.7610577,51.5942308 33.9692308,51.9230769 33.1716346,51.9230769 C32.5384615,51.9230769 31.9024038,51.7153846 31.3701923,51.2913462 L16.9471154,39.7528846 C15.7038462,38.7591346 15.5019231,36.9432692 16.4971154,35.6985577 C17.4908654,34.4538462 19.3081731,34.2519231 20.5514423,35.2471154 L32.8355769,45.0735577 L54.09375,21.1586538 C55.1495192,19.9673077 56.9754808,19.8605769 58.1653846,20.9192308 C59.3567308,21.9793269 59.4649038,23.8024038 58.40625,24.99375 Z" id="Shape"></path>
            </g>
        </g>
    </g>
</svg>