<?xml version="1.0" encoding="UTF-8"?><svg width="330" height="362" xmlns="http://www.w3.org/2000/svg"><!--Generator: Sketch 52.6 (67491) - http://www.bohemiancoding.com/sketch--><g fill="#05F" fill-rule="evenodd"><g><path d="M320 43l-.4-.6c-6.4-6.4-15-10-24-10h-13V29c0-7.4-3-14.6-8-20l-.6-.5v-.1a28.8 28.8 0 0 0-49.2 20.5v3.6H105V29c0-7.4-2.8-14.6-8-20l-.4-.5-.1-.1a28.8 28.8 0 0 0-49.2 20.5v3.6H34c-8.8 0-17.2 3.3-23.5 9.4l-.5.5c-6.4 6.3-10 15-10 24v261.3a33.7 33.7 0 0 0 34 34h261.5a33.7 33.7 0 0 0 34-34V66.4c-.1-8.7-3.5-17.1-9.5-23.4zm-79.2 9.5V29c0-3.3 1.5-6.5 3.8-8.8l.1-.1c5-5 13-4.9 17.9 0l.3.4c2.2 2.3 3.4 5.3 3.4 8.5v23.5c0 7-5.7 12.6-12.6 12.7H252a12 12 0 0 1-11.2-12.7zm-177.5-12V29.2a12.7 12.7 0 0 1 21.8-9l.3.3c2.2 2.3 3.4 5.3 3.4 8.5v23.5a12.7 12.7 0 0 1-12.7 12.8c-3.4 0-6.6-1.4-9-3.8a12.7 12.7 0 0 1-3.8-9v-12zM313.1 328c0 4.6-1.8 9.1-5.1 12.4-3.3 3.2-7.8 5-12.4 5H34a17.6 17.6 0 0 1-17.6-17.6V132.7h296.7v195.4zm.2-211.6H16.6V66.3c0-4.6 1.8-9.1 5.1-12.4l.4-.4c3.2-3 7.5-4.8 12-4.8h13v3.6c0 8 5 29 28.6 29 23.8 0 29.1-20.8 29.1-28.8v-3.6h120v3.6c0 8 5.1 29 28.8 29 23.7 0 29-21 29-29v-3.6h13c4.7 0 9.2 1.8 12.5 5.2l.3.3c3.1 3.2 4.8 7.5 4.9 12v50z" fill-rule="nonzero"/><circle cx="76.5" cy="191.5" r="15.5"/><circle cx="76.5" cy="236.5" r="15.5"/><circle cx="76.5" cy="281.5" r="15.5"/><circle cx="119.5" cy="191.5" r="15.5"/><circle cx="119.5" cy="236.5" r="15.5"/><circle cx="119.5" cy="281.5" r="15.5"/><circle cx="163.5" cy="191.5" r="15.5"/><circle cx="163.5" cy="236.5" r="15.5"/><circle cx="207.5" cy="191.5" r="15.5"/><circle cx="207.5" cy="236.5" r="15.5"/><circle cx="252.5" cy="191.5" r="15.5"/><circle cx="252.5" cy="236.5" r="15.5"/></g><path d="M133.6 69c1.7 0 3.3.2 4.7.7 1.3.4 2.5 1 3.4 1.8a7.7 7.7 0 0 1 3 6.2c0 3.2-1.9 6.3-5.6 9.3l-6 4.9h11.1c.2.3.4.7.5 1.3.2.5.3 1 .3 1.7 0 1.1-.2 1.9-.7 2.4-.5.5-1.2.7-2 .7h-16.1a5 5 0 0 1-2.2-4.4c0-1 .2-2 .7-2.7.4-.7.9-1.3 1.4-1.7l6.4-5.5a28.4 28.4 0 0 0 3.3-3.3l.7-1.2.2-1c0-1-.4-1.6-1.2-2.1a5 5 0 0 0-2.8-.8 9 9 0 0 0-3.3.6l-2.4 1.2c-.6-.3-1-.8-1.3-1.4-.4-.5-.5-1.2-.5-2 0-1.5.7-2.7 2.2-3.5 1.6-.8 3.6-1.2 6.2-1.2zM165 83.5c0-2.7-.4-4.8-1.2-6.3-.8-1.5-1.9-2.2-3.3-2.2-1.5 0-2.6.7-3.4 2.2a14 14 0 0 0-1.1 6.3c0 2.7.4 4.8 1.1 6.3.8 1.5 1.9 2.2 3.4 2.2 1.4 0 2.5-.7 3.3-2.2.8-1.5 1.2-3.6 1.2-6.3zm8 .5c0 2.4-.3 4.5-1 6.4-.6 1.9-1.4 3.5-2.5 4.7a10.8 10.8 0 0 1-4 3c-1.5.6-3.2.9-5 .9-1.8 0-3.5-.3-5-1-1.6-.6-3-1.6-4-2.9-1.1-1.2-2-2.8-2.6-4.7-.6-1.9-.9-4-.9-6.4 0-2.4.3-4.6 1-6.4.5-1.9 1.4-3.5 2.5-4.7 1-1.3 2.4-2.3 4-3 1.5-.6 3.2-.9 5-.9 1.8 0 3.5.3 5 1 1.6.6 2.9 1.6 4 2.9 1 1.2 2 2.8 2.6 4.7.6 1.8.9 4 .9 6.4zm8.4-7.1l-4.4 1.4c-.4-.3-.9-.7-1.3-1.3-.5-.6-.7-1.3-.7-2.3 0-1.9 1-3.2 3.2-4l5-1.7h1.7a4 4 0 0 1 3 1.2c.7.7 1.1 1.8 1.1 3.1v24.3a82.6 82.6 0 0 1-3.4.4l-1.7-.1a3 3 0 0 1-1.3-.6c-.4-.3-.7-.7-.9-1.1-.2-.5-.3-1.1-.3-2V77zm21 15.8c2 0 3.6-.5 4.8-1.5 1.2-1 1.8-2.5 1.8-4.3a9.5 9.5 0 0 1-5.4 1.5c-1.4 0-2.7-.2-4-.6-1-.4-2-1-3-1.8a8.2 8.2 0 0 1-1.9-3c-.5-1-.7-2.4-.7-4 0-1.3.2-2.6.7-3.8a9 9 0 0 1 2.1-3.2c1-.9 2.1-1.6 3.5-2.2 1.4-.5 3-.8 4.8-.8 3.7 0 6.6 1.2 8.7 3.7 2.1 2.5 3.2 6 3.2 10.6 0 2.6-.3 4.9-1 6.8-.6 2-1.6 3.6-2.7 5a11.1 11.1 0 0 1-4.2 3c-1.6.6-3.4.9-5.4.9-2.5 0-4.5-.3-5.9-1-1.4-.7-2-1.8-2-3.2 0-.6 0-1.3.4-1.9.3-.6.6-1 1-1.4a13.8 13.8 0 0 0 5.2 1.2zm2.2-10.7a5 5 0 0 0 3.4-1.4v-.5c0-1.8-.4-3-1-3.9-.6-.8-1.5-1.2-2.6-1.2s-2 .3-2.5 1c-.6.6-.9 1.4-.9 2.5 0 1 .3 2 1 2.5.7.7 1.5 1 2.6 1z"/></g></svg>