<?xml version="1.0" encoding="utf-8"?>
<!-- Generator: Adobe Illustrator 24.0.2, SVG Export Plug-In . SVG Version: 6.00 Build 0)  -->
<svg version="1.1" id="Layer_1" xmlns="http://www.w3.org/2000/svg" xmlns:xlink="http://www.w3.org/1999/xlink" x="0px" y="0px"
	 viewBox="0 0 450 300" style="enable-background:new 0 0 450 300;" xml:space="preserve">
<style type="text/css">
	.st0{fill-rule:evenodd;clip-rule:evenodd;fill:#E2E8F5;}
	.st1{fill-rule:evenodd;clip-rule:evenodd;fill:#BFCCE8;}
	.st2{fill-rule:evenodd;clip-rule:evenodd;fill:#90A9D5;}
	.st3{fill-rule:evenodd;clip-rule:evenodd;fill:#B6C7E6;}
	.st4{fill-rule:evenodd;clip-rule:evenodd;fill:#E6E4EB;}
	.st5{fill-rule:evenodd;clip-rule:evenodd;fill:#0F1630;stroke:#0E1632;stroke-width:0.1488;stroke-miterlimit:22.9256;}
	.st6{fill-rule:evenodd;clip-rule:evenodd;fill:#CEC9D0;}
	.st7{fill-rule:evenodd;clip-rule:evenodd;fill:#FFFFFF;}
	.st8{fill-rule:evenodd;clip-rule:evenodd;fill:#E8685B;}
	.st9{fill-rule:evenodd;clip-rule:evenodd;fill:#0F1630;}
	.st10{fill-rule:evenodd;clip-rule:evenodd;fill:#3D4155;}
	.st11{fill-rule:evenodd;clip-rule:evenodd;fill:#545A6C;}
	.st12{fill-rule:evenodd;clip-rule:evenodd;fill:#F4AD85;}
	.st13{fill-rule:evenodd;clip-rule:evenodd;fill:#ED9072;}
	.st14{fill-rule:evenodd;clip-rule:evenodd;fill:#0E1632;}
	.st15{fill-rule:evenodd;clip-rule:evenodd;fill:#010518;}
	.st16{fill-rule:evenodd;clip-rule:evenodd;fill:#05304B;}
	.st17{fill-rule:evenodd;clip-rule:evenodd;fill:#0076BD;}
	.st18{fill-rule:evenodd;clip-rule:evenodd;fill:#171C3A;}
	.st19{fill-rule:evenodd;clip-rule:evenodd;fill:#C9C4D1;}
	.st20{fill-rule:evenodd;clip-rule:evenodd;fill:#1C2344;}
	.st21{fill-rule:evenodd;clip-rule:evenodd;fill:#101937;}
	.st22{fill-rule:evenodd;clip-rule:evenodd;fill:#383D5D;}
	.st23{fill-rule:evenodd;clip-rule:evenodd;fill:#01020E;}
	.st24{fill-rule:evenodd;clip-rule:evenodd;fill:#E2E1E7;}
	.st25{fill-rule:evenodd;clip-rule:evenodd;fill:#B92F6D;}
	.st26{fill-rule:evenodd;clip-rule:evenodd;fill:#E74D91;}
	.st27{fill-rule:evenodd;clip-rule:evenodd;fill:#ACABBB;}
	.st28{fill-rule:evenodd;clip-rule:evenodd;fill:#DFF0F2;}
	.st29{fill-rule:evenodd;clip-rule:evenodd;fill:#004A82;}
	.st30{fill-rule:evenodd;clip-rule:evenodd;fill:#A8A6B5;}
	.st31{fill-rule:evenodd;clip-rule:evenodd;fill:#96929F;}
	.st32{fill-rule:evenodd;clip-rule:evenodd;fill:#F0EEF0;}
	.st33{fill-rule:evenodd;clip-rule:evenodd;fill:#D2CED6;}
	.st34{fill-rule:evenodd;clip-rule:evenodd;fill:#484E6A;}
	.st35{fill-rule:evenodd;clip-rule:evenodd;fill:#1A293D;}
	.st36{fill:#E4EBF7;}
	.st37{fill:#FFFFFF;}
	.st38{fill:#98B2D8;}
	.st39{fill:#B1C3E8;}
	.st40{fill:#B7CAE5;}
	.st41{fill:#97B3D1;}
	.st42{fill:#CED9EA;}
	.st43{fill:#B6C5DD;}
	.st44{fill:#5D7CA0;}
	.st45{fill:#799CBF;}
	.st46{fill:#F2F4F9;}
	.st47{fill:#C1CFE5;}
	.st48{fill:url(#SVGID_1_);}
	.st49{opacity:0.22;fill:#1F395E;}
	.st50{fill:url(#SVGID_2_);}
	.st51{fill:url(#SVGID_3_);}
	.st52{fill:#1F395E;}
	.st53{fill:url(#SVGID_4_);}
	.st54{fill:#3150BC;}
	.st55{fill:#FEB19E;}
	.st56{fill:#FF856A;}
	.st57{fill:url(#SVGID_5_);}
	.st58{fill:#FFFFFF;stroke:#0F22D3;stroke-width:1.1335;stroke-miterlimit:10;}
	.st59{opacity:0.6;fill:#9ABCED;}
	.st60{fill:#9ABCED;}
	.st61{fill:#C1C8D3;}
	.st62{fill:url(#SVGID_6_);}
	.st63{fill:url(#SVGID_7_);}
	.st64{fill:#4F7EB7;}
	.st65{opacity:0.71;fill:#7CA6D8;}
	.st66{fill:#EA9BA1;}
	.st67{opacity:0.5;}
	.st68{fill:#7CA6D8;}
	.st69{fill:#E83F54;}
	.st70{opacity:0.5;fill:#9ABCED;}
	.st71{fill-rule:evenodd;clip-rule:evenodd;fill:#E1E8F6;}
	.st72{fill-rule:evenodd;clip-rule:evenodd;fill:#C0CDEA;}
	.st73{fill-rule:evenodd;clip-rule:evenodd;fill:#00000F;}
	.st74{fill-rule:evenodd;clip-rule:evenodd;fill:#626687;}
	.st75{fill-rule:evenodd;clip-rule:evenodd;fill:#101537;}
	.st76{fill-rule:evenodd;clip-rule:evenodd;fill:#C7CAE0;}
	.st77{fill-rule:evenodd;clip-rule:evenodd;fill:#BEC4DC;}
	.st78{fill-rule:evenodd;clip-rule:evenodd;fill:#B5B9D1;}
	.st79{fill-rule:evenodd;clip-rule:evenodd;fill:#CCD3E5;}
	.st80{fill-rule:evenodd;clip-rule:evenodd;fill:#BABFD6;}
	.st81{fill-rule:evenodd;clip-rule:evenodd;fill:#B0B7CF;}
	.st82{fill-rule:evenodd;clip-rule:evenodd;fill:#B0B7CE;}
	.st83{fill-rule:evenodd;clip-rule:evenodd;fill:#DBE1F1;}
	.st84{fill-rule:evenodd;clip-rule:evenodd;fill:#D6DCEA;}
	.st85{fill-rule:evenodd;clip-rule:evenodd;fill:#C7CADE;}
	.st86{fill-rule:evenodd;clip-rule:evenodd;fill:#C7CADB;}
	.st87{fill-rule:evenodd;clip-rule:evenodd;fill:#BDC1D5;}
	.st88{fill-rule:evenodd;clip-rule:evenodd;fill:#B5BED8;}
	.st89{fill-rule:evenodd;clip-rule:evenodd;fill:#CED2E1;}
	.st90{fill-rule:evenodd;clip-rule:evenodd;fill:#B6B7CB;}
	.st91{fill-rule:evenodd;clip-rule:evenodd;fill:#AAAEC3;}
	.st92{fill-rule:evenodd;clip-rule:evenodd;fill:#EAEEF4;}
	.st93{fill-rule:evenodd;clip-rule:evenodd;fill:#EC6957;}
	.st94{fill-rule:evenodd;clip-rule:evenodd;fill:#D84743;}
	.st95{fill-rule:evenodd;clip-rule:evenodd;fill:#EE9073;}
	.st96{fill-rule:evenodd;clip-rule:evenodd;fill:#DBD7D7;}
	.st97{fill-rule:evenodd;clip-rule:evenodd;fill:#3B405F;}
	.st98{fill-rule:evenodd;clip-rule:evenodd;fill:#E27E67;}
	.st99{fill-rule:evenodd;clip-rule:evenodd;fill:#F5AC83;}
	.st100{fill-rule:evenodd;clip-rule:evenodd;fill:#F6F5F4;}
	.st101{fill-rule:evenodd;clip-rule:evenodd;fill:#080321;}
	.st102{fill-rule:evenodd;clip-rule:evenodd;fill:#DBE2F3;}
	.st103{fill-rule:evenodd;clip-rule:evenodd;fill:#EAEEF8;}
	.st104{fill-rule:evenodd;clip-rule:evenodd;fill:#003053;}
	.st105{fill-rule:evenodd;clip-rule:evenodd;fill:#1874BA;}
	.st106{fill-rule:evenodd;clip-rule:evenodd;fill:#B83470;}
	.st107{fill-rule:evenodd;clip-rule:evenodd;fill:#E13C83;}
	.st108{fill-rule:evenodd;clip-rule:evenodd;fill:#E94D90;}
	.st109{fill-rule:evenodd;clip-rule:evenodd;fill:#EE788F;}
	.st110{fill-rule:evenodd;clip-rule:evenodd;fill:#F5C8B4;}
	.st111{fill-rule:evenodd;clip-rule:evenodd;fill:#F4BCA3;}
	.st112{fill-rule:evenodd;clip-rule:evenodd;fill:#E0E7F5;}
	.st113{fill-rule:evenodd;clip-rule:evenodd;fill:#9EB1D8;}
	.st114{fill-rule:evenodd;clip-rule:evenodd;fill:#C8D2EB;}
	.st115{fill-rule:evenodd;clip-rule:evenodd;fill:#B0C0E3;}
	.st116{fill-rule:evenodd;clip-rule:evenodd;fill:#BCC9E7;}
	.st117{fill-rule:evenodd;clip-rule:evenodd;fill:#B3C4E5;}
	.st118{fill-rule:evenodd;clip-rule:evenodd;fill:#EAF1F2;}
	.st119{fill-rule:evenodd;clip-rule:evenodd;fill:#BFCCE9;}
	.st120{fill-rule:evenodd;clip-rule:evenodd;fill:#141A33;}
	.st121{fill-rule:evenodd;clip-rule:evenodd;fill:#0E173F;}
	.st122{fill-rule:evenodd;clip-rule:evenodd;fill:#030822;}
	.st123{fill-rule:evenodd;clip-rule:evenodd;fill:#E03C82;}
	.st124{fill-rule:evenodd;clip-rule:evenodd;fill:#B73470;}
	.st125{fill-rule:evenodd;clip-rule:evenodd;fill:#2C3049;}
	.st126{fill-rule:evenodd;clip-rule:evenodd;fill:#F4AB82;}
	.st127{fill-rule:evenodd;clip-rule:evenodd;fill:#ED8F73;}
	.st128{fill-rule:evenodd;clip-rule:evenodd;fill:#301814;}
	.st129{fill-rule:evenodd;clip-rule:evenodd;fill:#E84D8F;}
	.st130{fill-rule:evenodd;clip-rule:evenodd;fill:#E8695B;}
	.st131{fill-rule:evenodd;clip-rule:evenodd;fill:#00000F;stroke:#1A1A18;stroke-width:0.3835;stroke-miterlimit:22.9256;}
	.st132{fill-rule:evenodd;clip-rule:evenodd;fill:#E17E67;}
	.st133{fill-rule:evenodd;clip-rule:evenodd;fill:#EC7862;}
	.st134{fill-rule:evenodd;clip-rule:evenodd;fill:#563F2F;}
	.st135{fill-rule:evenodd;clip-rule:evenodd;fill:#A26E50;}
	.st136{fill-rule:evenodd;clip-rule:evenodd;fill:#EF8971;}
	.st137{fill-rule:evenodd;clip-rule:evenodd;fill:#F5F4F3;}
	.st138{fill-rule:evenodd;clip-rule:evenodd;fill:#CEC8CF;}
	.st139{fill-rule:evenodd;clip-rule:evenodd;fill:#E9574D;}
	.st140{fill-rule:evenodd;clip-rule:evenodd;fill:#D74743;}
	.st141{fill-rule:evenodd;clip-rule:evenodd;fill:#3F4154;}
	.st142{fill-rule:evenodd;clip-rule:evenodd;fill:#575A6D;}
	.st143{fill-rule:evenodd;clip-rule:evenodd;fill:#D6BCA3;}
	.st144{fill-rule:evenodd;clip-rule:evenodd;fill:#BE8762;}
	.st145{fill-rule:evenodd;clip-rule:evenodd;fill:#D39E80;}
	.st146{fill-rule:evenodd;clip-rule:evenodd;fill:#1C2B3F;}
	.st147{fill-rule:evenodd;clip-rule:evenodd;fill:#1874B9;}
	.st148{fill-rule:evenodd;clip-rule:evenodd;fill:#002846;}
	.st149{fill-rule:evenodd;clip-rule:evenodd;fill:#A7A5B5;}
	.st150{fill-rule:evenodd;clip-rule:evenodd;fill:#9794A1;}
	.st151{fill-rule:evenodd;clip-rule:evenodd;fill:#F2F1F3;}
	.st152{fill-rule:evenodd;clip-rule:evenodd;fill:#D3D0D7;}
	.st153{fill-rule:evenodd;clip-rule:evenodd;fill:#3B3A3A;}
	.st154{fill-rule:evenodd;clip-rule:evenodd;fill:#242525;}
	.st155{fill-rule:evenodd;clip-rule:evenodd;fill:#C7DDE0;}
	.st156{fill-rule:evenodd;clip-rule:evenodd;fill:#7A9196;}
	.st157{fill-rule:evenodd;clip-rule:evenodd;fill:#E3E0E7;}
	.st158{fill-rule:evenodd;clip-rule:evenodd;fill:#ADAAB9;}
	.st159{fill:#FF7D6C;}
	.st160{fill:#80739B;}
	.st161{fill:#65CBC2;}
	.st162{fill:#FDC97A;}
	.st163{fill:#F6931D;}
	.st164{fill:#C1B49A;}
	.st165{fill:#2DA9E3;stroke:#FFFFFF;stroke-width:0.3828;stroke-miterlimit:10;}
	.st166{opacity:0.39;}
	.st167{opacity:0.64;fill:#D0C3E8;}
	.st168{opacity:0.31;fill:#B29CDA;}
	.st169{opacity:0.24;}
	.st170{clip-path:url(#SVGID_9_);}
	.st171{fill:none;stroke:#FFFFFF;stroke-width:1.4326;stroke-miterlimit:10;}
	.st172{clip-path:url(#SVGID_11_);}
	.st173{clip-path:url(#SVGID_13_);}
	.st174{opacity:0.3;fill:#D0C3E8;}
	.st175{fill:#32B4C5;}
	.st176{fill:#4DCFE0;}
	.st177{fill:#60E2F3;}
	.st178{fill:#39306C;}
	.st179{fill:#4B4582;}
	.st180{opacity:0.74;}
	.st181{fill:#DF2D76;}
	.st182{fill:#F6327A;}
	.st183{fill:#221B4C;}
	.st184{fill:none;stroke:#4B4582;stroke-width:0.8791;stroke-linecap:round;stroke-linejoin:round;stroke-miterlimit:10;}
	.st185{fill:none;stroke:#4B4582;stroke-width:0.615;stroke-linecap:round;stroke-linejoin:round;stroke-miterlimit:10;}
	.st186{fill:none;stroke:#FFFFFF;stroke-width:1.4967;stroke-linecap:round;stroke-linejoin:round;stroke-miterlimit:10;}
	.st187{fill:#DC3178;}
	.st188{fill:#F3AD97;}
	.st189{fill:#FFB89E;}
	.st190{fill:none;stroke:#F6327A;stroke-width:0.9457;stroke-miterlimit:10;}
	.st191{fill:#47417F;}
	.st192{fill:#5E5895;}
	.st193{opacity:0.07;}
	.st194{fill:none;stroke:#4B4582;stroke-width:0.8988;stroke-linecap:round;stroke-linejoin:round;stroke-miterlimit:10;}
	.st195{fill:none;stroke:#4B4582;stroke-width:1.7976;stroke-linecap:round;stroke-linejoin:round;stroke-miterlimit:10;}
	.st196{fill:none;stroke:#4B4582;stroke-width:1.2564;stroke-linecap:round;stroke-linejoin:round;stroke-miterlimit:10;}
</style>
<g>
	<path class="st112" d="M369.2,206.5c-11.52,0-20.95-9.43-20.95-20.95l0,0c0-11.52,9.43-20.95,20.95-20.95h2.49
		c11.98,0,21.78-9.8,21.78-21.78v0c0-11.98-9.8-21.78-21.78-21.78h-48.41c0,0-35.41-1.63-42.22-21.86
		c-6.82-20.23-12.32-30.4-51.24-30.4h-28.83c-7.95,0-14.45-6.5-14.45-14.45v0c0-7.95,6.5-14.45,14.45-14.45h9.58
		c5.49,0,9.97-4.49,9.97-9.97v0c0-5.48-4.49-9.97-9.97-9.97c-39.61,0-19.8,0-59.42,0c-25.62,0-26.75-11.98-36.9-11.98
		c-10.15,0-20.66,0-20.66,0H66.08c-4.2,0-7.64,3.44-7.64,7.64l0,0c0,4.2,3.44,7.64,7.64,7.64h7.34c6.09,0,11.07,4.98,11.07,11.07
		l0,0c0,6.09-4.98,11.08-11.07,11.08H31.78c-15.65,0-28.45,12.8-28.45,28.45l0,0c0,15.65,12.8,28.45,28.45,28.45h32.93
		c15.05,0,27.36,12.31,27.36,27.36l0,0c0,15.05-12.31,27.36-27.36,27.36l0,0C29.12,157,0,186.12,0,221.71v0
		c0,35.59,29.12,64.71,64.71,64.71h208.56h20.09h116.67c21.98,0,39.96-17.98,39.96-39.96l0,0c0-21.98-17.98-39.96-39.96-39.96H409
		H369.2L369.2,206.5z M36.99,15.59c0-4.22,3.42-7.64,7.64-7.64c4.22,0,7.64,3.42,7.64,7.64s-3.42,7.64-7.64,7.64
		C40.41,23.23,36.99,19.81,36.99,15.59z"/>
	<path class="st113" d="M313.71,286.43v-6.08h22.24h0h0h15.38c-0.05-0.13-0.1-0.26-0.15-0.39h-15.04v-12.9h7.39
		c-0.11-0.13-0.23-0.26-0.34-0.39h-7.24h-0.01h-22.24v-12.9h9.68c-0.45-0.14-0.9-0.27-1.35-0.39h-8.52h-0.01h-22.24v-2.35
		c-0.13-0.03-0.26-0.05-0.39-0.08v2.42h-22.24h-0.01h-22.24v-12.9h22.24h0h0h1.85c-0.14-0.13-0.28-0.26-0.42-0.39h-1.24v-1.22
		c-0.13-0.13-0.26-0.27-0.39-0.4v1.62H246.2h-0.01h-22.24v-12.9h22.24h0h0.01h14.47c-0.06-0.13-0.12-0.26-0.18-0.39h-14.1v-12.9
		h10.45c-0.01-0.13-0.03-0.26-0.05-0.39H246.2h-0.01h-22.24v-12.9h22.24h0h0.01h11.14c0.03-0.13,0.05-0.26,0.08-0.39h-11.03v-12.9
		h15.98c0.08-0.13,0.15-0.26,0.23-0.39H246.2h-0.01h-22.24v-12.9h22.24h0h0.01h22.24v5.24c0.13-0.14,0.26-0.27,0.39-0.4v-4.84h5.61
		c0.18-0.13,0.37-0.26,0.55-0.39h-6.36h-0.01h-22.24v-12.9h22.24h0h0h22.24v6.04c0.13-0.03,0.26-0.05,0.39-0.08v-5.96h22.24h0.01h0
		h11.91c0.24-0.13,0.49-0.26,0.73-0.39h-12.44v-12.9h22.24h0h0h4.82c0.1-0.13,0.19-0.26,0.29-0.39h-4.91v-12.9h11.28
		c0.04-0.13,0.08-0.26,0.12-0.39h-11.59h-0.01h-22.24v-12.9h6.49c-0.89-0.1-1.95-0.22-3.13-0.39h-3.55h-0.01h-22.24v-8.75
		c-0.13-0.09-0.26-0.18-0.39-0.27v9.02h-22.24h-0.01h-22.24v-12.9h22.24h0h0h17.58c-0.13-0.13-0.25-0.26-0.37-0.39h-17.02V94.2
		h10.47c-0.05-0.13-0.1-0.26-0.15-0.39h-10.52h-0.01h-22.24V80.9h22.24h0h0h3.65c-0.11-0.13-0.22-0.26-0.33-0.39h-3.13v-3.07
		c-0.13-0.11-0.26-0.21-0.39-0.31v3.38H246.2h-0.01h-22.24V68.78h-0.39v11.73h-22.24h-0.01h-22.24v-12.9h16.21
		c-0.28-0.12-0.56-0.25-0.83-0.39h-15.57h-0.01h-22.24v-12.9h22.24h0.01h0.01h7.64c0-0.13,0-0.26,0.01-0.39h-7.46v-12.9h16.3
		c0.34-0.14,0.69-0.27,1.04-0.39h-17.53h-0.01h-22.24v-12.9h22.24h0.01h0.01h22.24v12.16h0.39V27.72h18.77
		c-0.03-0.13-0.06-0.26-0.1-0.39h-18.87h-0.01h-22.24v-7.39h-0.39v7.39h-22.24h-0.01h-22.24v-9.84c-0.13-0.05-0.26-0.09-0.39-0.14
		v9.98h-22.24h-0.01H89.33v-12.9h22.24h0.01h0.01h16.1c-0.22-0.13-0.43-0.26-0.64-0.39h-15.27V7.95h-0.39v6.08H89.14h-0.01H66.9
		V7.95H66.5v6.08h-7.9c-0.03,0.13-0.05,0.26-0.07,0.39h8.16h0.01h0.01h22.24v12.9H82c0.11,0.13,0.21,0.26,0.31,0.39h6.82h0.01h0.01
		h22.24v12.9H89.14h-0.01h-6.62c-0.09,0.13-0.19,0.26-0.29,0.39h6.72v12.9H66.7h-0.01H44.46v-8.53h-0.39v8.53H21.83h-0.01h-10.3
		c-0.13,0.13-0.25,0.26-0.38,0.39h10.49v12.9H4.12c-0.03,0.13-0.06,0.26-0.09,0.39h17.79h0.01h0.01h22.24v12.9H21.83h-0.01H4.13
		c0.03,0.13,0.06,0.26,0.1,0.39h17.4v12.9H11.58c0.13,0.13,0.26,0.26,0.4,0.39h9.84h0.01h0.01h22.24v8.08h0.39V94.2h22.24h0.01h0.01
		h22.24v12.9h-8.76c0.19,0.13,0.37,0.26,0.55,0.39h8.4h0.01h0.01h22.24v12.9H90.46c0.05,0.13,0.09,0.26,0.14,0.39h20.97h0.01h0.01
		h22.24v12.9h-22.24h-0.01h-19.8c-0.02,0.13-0.04,0.26-0.06,0.39h19.67v12.9H89.14h-0.01h-3.3c-0.11,0.13-0.22,0.26-0.33,0.39h3.44
		v12.9H66.7h-0.01H44.46v-0.01c-0.4,0.13-0.79,0.27-1.18,0.41h0.98h0.01h0.01H66.5v12.9H44.27h-0.01H22.02v-0.39
		c-0.13,0.12-0.26,0.23-0.39,0.35v0.04h-0.05c-0.15,0.13-0.29,0.26-0.44,0.39h0.68h0.01h0.01h22.24v12.9H21.83h-0.01H10.25
		c-0.08,0.13-0.16,0.26-0.25,0.39h11.63v12.9H3.71c-0.05,0.13-0.09,0.26-0.14,0.39h18.24h0.01h0.01h22.24v12.9H21.83h-0.01H0.53
		c-0.02,0.13-0.03,0.26-0.05,0.39h21.15v12.9H0.2c0.01,0.13,0.02,0.26,0.04,0.39h21.58h0.01h0.01h22.24v12.9H21.83h-0.01H2.67
		c0.04,0.13,0.08,0.26,0.12,0.39h18.84v12.9H8.33c0.07,0.13,0.15,0.26,0.22,0.39h13.27h0.01h0.01h22.24v12.9H21.83h-0.01h-3.55
		c0.13,0.13,0.25,0.26,0.38,0.39h2.98v2.84c0.13,0.12,0.26,0.23,0.39,0.35v-3.19h22.24h0.01h0.01H66.5v12.9H44.27h-0.01h-7.67
		c0.27,0.13,0.55,0.26,0.83,0.39h6.65v2.68c0.13,0.04,0.26,0.08,0.39,0.13v-2.81h22.24h0.01h0.01h22.24v6.08h0.39v-6.08h22.24h0.01
		h0.01h22.24v6.08h0.39v-6.08h22.24h0.01h0.01h22.24v6.08h0.39v-6.08h22.24h0.01h0.01h22.24v6.08h0.39v-6.08h22.24h0h0.01h22.24
		v6.08h0.39v-6.08h22.24h0.01h0h22.24v6.08H313.71L313.71,286.43z M66.9,267.05h22.24h0.01h0.01h22.24v12.9H89.14h-0.01H66.9V267.05
		L66.9,267.05z M111.77,267.05h22.24h0.01h0.01h22.24v12.9h-22.24h-0.01h-22.24V267.05L111.77,267.05z M156.64,267.05h22.24h0.01
		h0.01h22.24v12.9h-22.24h-0.01h-22.24V267.05L156.64,267.05z M201.52,267.05h22.24h0.01h0.01H246v12.9h-22.24h-0.01h-22.24V267.05
		L201.52,267.05z M246.39,267.05h22.24h0h0h22.24v12.9h-22.24h-0.01h-22.24V267.05L246.39,267.05z M291.27,267.05h22.24h0.01h0
		h22.24v12.9h-22.24h-0.01h-22.24V267.05L291.27,267.05z M44.46,253.75h22.24h0.01h0.01h22.24v12.9H66.7h-0.01H44.46V253.75
		L44.46,253.75z M89.33,253.75h22.24h0.01h0.01h22.24v12.9h-22.24h-0.01H89.33V253.75L89.33,253.75z M134.21,253.75h22.24h0.01h0.01
		h22.24v12.9h-22.24h-0.01h-22.24V253.75L134.21,253.75z M179.08,253.75h22.24h0.01h0.01h22.24v12.9h-22.24h-0.01h-22.24V253.75
		L179.08,253.75z M223.96,253.75h22.24h0h0.01h22.24v12.9H246.2h-0.01h-22.24V253.75L223.96,253.75z M268.83,253.75h22.24h0.01h0
		h22.24v12.9h-22.24h-0.01h-22.24V253.75L268.83,253.75z M22.02,240.46h22.24h0.01h0.01H66.5v12.9H44.27h-0.01H22.02V240.46
		L22.02,240.46z M66.9,240.46h22.24h0.01h0.01h22.24v12.9H89.14h-0.01H66.9V240.46L66.9,240.46z M111.77,240.46h22.24h0.01h0.01
		h22.24v12.9h-22.24h-0.01h-22.24V240.46L111.77,240.46z M156.64,240.46h22.24h0.01h0.01h22.24v12.9h-22.24h-0.01h-22.24V240.46
		L156.64,240.46z M201.52,240.46h22.24h0.01h0.01H246v12.9h-22.24h-0.01h-22.24V240.46L201.52,240.46z M44.46,227.16h22.24h0.01
		h0.01h22.24v12.9H66.7h-0.01H44.46V227.16L44.46,227.16z M89.33,227.16h22.24h0.01h0.01h22.24v12.9h-22.24h-0.01H89.33V227.16
		L89.33,227.16z M134.21,227.16h22.24h0.01h0.01h22.24v12.9h-22.24h-0.01h-22.24V227.16L134.21,227.16z M179.08,227.16h22.24h0.01
		h0.01h22.24v12.9h-22.24h-0.01h-22.24V227.16L179.08,227.16z M22.02,213.86h22.24h0.01h0.01H66.5v12.9H44.27h-0.01H22.02V213.86
		L22.02,213.86z M66.9,213.86h22.24h0.01h0.01h22.24v12.9H89.14h-0.01H66.9V213.86L66.9,213.86z M111.77,213.86h22.24h0.01h0.01
		h22.24v12.9h-22.24h-0.01h-22.24V213.86L111.77,213.86z M156.64,213.86h22.24h0.01h0.01h22.24v12.9h-22.24h-0.01h-22.24V213.86
		L156.64,213.86z M201.52,213.86h22.24h0.01h0.01H246v12.9h-22.24h-0.01h-22.24V213.86L201.52,213.86z M44.46,200.57h22.24h0.01
		h0.01h22.24v12.9H66.7h-0.01H44.46V200.57L44.46,200.57z M89.33,200.57h22.24h0.01h0.01h22.24v12.9h-22.24h-0.01H89.33V200.57
		L89.33,200.57z M134.21,200.57h22.24h0.01h0.01h22.24v12.9h-22.24h-0.01h-22.24V200.57L134.21,200.57z M179.08,200.57h22.24h0.01
		h0.01h22.24v12.9h-22.24h-0.01h-22.24V200.57L179.08,200.57z M22.02,187.27h22.24h0.01h0.01H66.5v12.9H44.27h-0.01H22.02V187.27
		L22.02,187.27z M66.9,187.27h22.24h0.01h0.01h22.24v12.9H89.14h-0.01H66.9V187.27L66.9,187.27z M111.77,187.27h22.24h0.01h0.01
		h22.24v12.9h-22.24h-0.01h-22.24V187.27L111.77,187.27z M156.64,187.27h22.24h0.01h0.01h22.24v12.9h-22.24h-0.01h-22.24V187.27
		L156.64,187.27z M201.52,187.27h22.24h0.01h0.01H246v12.9h-22.24h-0.01h-22.24V187.27L201.52,187.27z M44.46,173.97h22.24h0.01
		h0.01h22.24v12.9H66.7h-0.01H44.46V173.97L44.46,173.97z M89.33,173.97h22.24h0.01h0.01h22.24v12.9h-22.24h-0.01H89.33V173.97
		L89.33,173.97z M134.21,173.97h22.24h0.01h0.01h22.24v12.9h-22.24h-0.01h-22.24V173.97L134.21,173.97z M179.08,173.97h22.24h0.01
		h0.01h22.24v12.9h-22.24h-0.01h-22.24V173.97L179.08,173.97z M66.9,160.68h22.24h0.01h0.01h22.24v12.9H89.14h-0.01H66.9V160.68
		L66.9,160.68z M111.77,160.68h22.24h0.01h0.01h22.24v12.9h-22.24h-0.01h-22.24V160.68L111.77,160.68z M156.64,160.68h22.24h0.01
		h0.01h22.24v12.9h-22.24h-0.01h-22.24V160.68L156.64,160.68z M201.52,160.68h22.24h0.01h0.01H246v12.9h-22.24h-0.01h-22.24V160.68
		L201.52,160.68z M89.33,147.38h22.24h0.01h0.01h22.24v12.9h-22.24h-0.01H89.33V147.38L89.33,147.38z M134.21,147.38h22.24h0.01
		h0.01h22.24v12.9h-22.24h-0.01h-22.24V147.38L134.21,147.38z M179.08,147.38h22.24h0.01h0.01h22.24v12.9h-22.24h-0.01h-22.24
		V147.38L179.08,147.38z M223.96,147.38h22.24h0h0.01h22.24v12.9H246.2h-0.01h-22.24V147.38L223.96,147.38z M268.83,147.38h22.24
		h0.01h0h22.24v12.9h-22.24h-0.01h-22.24V147.38L268.83,147.38z M111.77,134.09h22.24h0.01h0.01h22.24v12.9h-22.24h-0.01h-22.24
		V134.09L111.77,134.09z M156.64,134.09h22.24h0.01h0.01h22.24v12.9h-22.24h-0.01h-22.24V134.09L156.64,134.09z M201.52,134.09
		h22.24h0.01h0.01H246v12.9h-22.24h-0.01h-22.24V134.09L201.52,134.09z M246.39,134.09h22.24h0h0h22.24v12.9h-22.24h-0.01h-22.24
		V134.09L246.39,134.09z M291.27,134.09h22.24h0.01h0h22.24v12.9h-22.24h-0.01h-22.24V134.09L291.27,134.09z M134.21,120.79h22.24
		h0.01h0.01h22.24v12.9h-22.24h-0.01h-22.24V120.79L134.21,120.79z M179.08,120.79h22.24h0.01h0.01h22.24v12.9h-22.24h-0.01h-22.24
		V120.79L179.08,120.79z M223.96,120.79h22.24h0h0.01h22.24v12.9H246.2h-0.01h-22.24V120.79L223.96,120.79z M268.83,120.79h22.24
		h0.01h0h22.24v12.9h-22.24h-0.01h-22.24V120.79L268.83,120.79z M111.77,107.49h22.24h0.01h0.01h22.24v12.9h-22.24h-0.01h-22.24
		V107.49L111.77,107.49z M156.64,107.49h22.24h0.01h0.01h22.24v12.9h-22.24h-0.01h-22.24V107.49L156.64,107.49z M201.52,107.49
		h22.24h0.01h0.01H246v12.9h-22.24h-0.01h-22.24V107.49L201.52,107.49z M89.33,94.2h22.24h0.01h0.01h22.24v12.9h-22.24h-0.01H89.33
		V94.2L89.33,94.2z M134.21,94.2h22.24h0.01h0.01h22.24v12.9h-22.24h-0.01h-22.24V94.2L134.21,94.2z M179.08,94.2h22.24h0.01h0.01
		h22.24v12.9h-22.24h-0.01h-22.24V94.2L179.08,94.2z M223.96,94.2h22.24h0h0.01h22.24v12.9H246.2h-0.01h-22.24V94.2L223.96,94.2z
		 M22.02,80.9h22.24h0.01h0.01H66.5v12.9H44.27h-0.01H22.02V80.9L22.02,80.9z M66.9,80.9h22.24h0.01h0.01h22.24v12.9H89.14h-0.01
		H66.9V80.9L66.9,80.9z M111.77,80.9h22.24h0.01h0.01h22.24v12.9h-22.24h-0.01h-22.24V80.9L111.77,80.9z M156.64,80.9h22.24h0.01
		h0.01h22.24v12.9h-22.24h-0.01h-22.24V80.9L156.64,80.9z M201.52,80.9h22.24h0.01h0.01H246v12.9h-22.24h-0.01h-22.24V80.9
		L201.52,80.9z M44.46,67.61h22.24h0.01h0.01h22.24v12.9H66.7h-0.01H44.46V67.61L44.46,67.61z M89.33,67.61h22.24h0.01h0.01h22.24
		v12.9h-22.24h-0.01H89.33V67.61L89.33,67.61z M134.21,67.61h22.24h0.01h0.01h22.24v12.9h-22.24h-0.01h-22.24V67.61L134.21,67.61z
		 M22.02,54.31h22.24h0.01h0.01H66.5v12.9H44.27h-0.01H22.02V54.31L22.02,54.31z M66.9,54.31h22.24h0.01h0.01h22.24v12.9H89.14
		h-0.01H66.9V54.31L66.9,54.31z M111.77,54.31h22.24h0.01h0.01h22.24v12.9h-22.24h-0.01h-22.24V54.31L111.77,54.31z M89.33,41.01
		h22.24h0.01h0.01h22.24v12.9h-22.24h-0.01H89.33V41.01L89.33,41.01z M134.21,41.01h22.24h0.01h0.01h22.24v12.9h-22.24h-0.01h-22.24
		V41.01L134.21,41.01z M111.77,27.72h22.24h0.01h0.01h22.24v12.9h-22.24h-0.01h-22.24V27.72L111.77,27.72z M37.15,14.03h7.11h0.01
		h7.85c0.03,0.13,0.05,0.26,0.07,0.39h-7.73v8.81c-0.13,0-0.26-0.01-0.39-0.02v-8.79h-6.99C37.1,14.29,37.12,14.16,37.15,14.03z"/>
	<path class="st114" d="M369.2,206.5H409h1.04c21.98,0,39.96,17.98,39.96,39.96l0,0c0,21.98-17.98,39.96-39.96,39.96H293.37h-20.09
		h-93.8V19.93h31.09c5.49,0,9.97,4.49,9.97,9.97v0c0,5.48-4.49,9.97-9.97,9.97h-9.58c-7.95,0-14.45,6.5-14.45,14.45v0
		c0,7.95,6.5,14.45,14.45,14.45h28.83c38.93,0,44.42,10.17,51.24,30.4c6.82,20.23,42.22,21.86,42.22,21.86h48.41
		c11.98,0,21.78,9.8,21.78,21.78v0c0,11.98-9.8,21.78-21.78,21.78h-2.49c-11.52,0-20.95,9.43-20.95,20.95l0,0
		C348.25,197.07,357.68,206.5,369.2,206.5z"/>
	<path class="st115" d="M314.42,286.43h-21.05h-20.09h-15.26V177.12c0-2.96,2.42-5.38,5.38-5.38h45.65c2.96,0,5.38,2.42,5.38,5.38
		V286.43z"/>
	<path class="st116" d="M339.68,286.43h-46.31h-10.1v-84.74c0-2.96,2.42-5.38,5.38-5.38h45.65c2.96,0,5.38,2.42,5.38,5.38V286.43z"
		/>
	<path class="st115" d="M240.88,286.43h-46.35v-68.54c0-2.43,1.99-4.42,4.42-4.42h37.51c2.43,0,4.42,1.99,4.42,4.42V286.43z"/>
	<g>
		<path class="st113" d="M272.57,81.23h-35.5v45.58h43.31V97.22C278.17,90.81,275.97,85.48,272.57,81.23z"/>
		<path class="st117" d="M272,80.56h-35.95v45.47h43.31V94.37C277.35,88.89,275.19,84.28,272,80.56z"/>
		<path class="st7" d="M275.7,86.01v36.35h-35.99V84.22h34.95C275.02,84.8,275.37,85.4,275.7,86.01z"/>
		<path class="st118" d="M275.7,86.01v36.35h-35.99l35.35-37.48C275.29,85.26,275.5,85.63,275.7,86.01z"/>
		<path class="st119" d="M272.15,87.99h-28.88v30.61h28.88V87.99L272.15,87.99z M266.66,112.78h-17.9V93.81h17.9V112.78z"/>
		<polygon class="st117" points="272.15,87.99 272.15,118.6 243.27,118.6 248.76,112.78 266.66,112.78 266.66,93.81 		"/>
	</g>
	<g>
		<rect x="184.39" y="81.23" class="st113" width="43.31" height="35.32"/>
		<rect x="183.38" y="80.56" class="st117" width="43.31" height="35.32"/>
		<rect x="187.04" y="84.22" class="st7" width="35.99" height="27.99"/>
		<polygon class="st112" points="223.03,84.22 223.03,112.21 187.04,112.21 		"/>
	</g>
	<g>
		<g>
			<path class="st73" d="M176.63,282.83V222.6c0-0.37,0.3-0.67,0.67-0.67h0.5c0.37,0,0.67,0.3,0.67,0.67v60.23
				c0,0.37-0.3,0.67-0.67,0.67h-0.5C176.93,283.5,176.63,283.2,176.63,282.83z"/>
			<path class="st120" d="M176.62,220.21h1.85c1.38,0,2.51,1.13,2.51,2.51v2.43c0,1.38-1.13,2.51-2.51,2.51h-1.85
				c-1.38,0-2.51-1.13-2.51-2.51v-2.43C174.11,221.34,175.24,220.21,176.62,220.21z"/>
			<path class="st120" d="M175.42,281.77h3.05c0.74,0,1.34,0.6,1.34,1.34v0.99c0,0.74-0.6,1.34-1.34,1.34h-3.05
				c-0.74,0-1.34-0.6-1.34-1.34v-0.99C174.08,282.37,174.69,281.77,175.42,281.77z"/>
			<path class="st121" d="M168.86,283.61h16.18c1.13,0,2.06,0.93,2.06,2.06v1.52c0,1.13-0.93,2.06-2.06,2.06h-16.18
				c-1.13,0-2.06-0.93-2.06-2.06v-1.52C166.8,284.53,167.73,283.61,168.86,283.61z"/>
			<path class="st122" d="M164.66,221.46L164.66,221.46c0-0.98,0.8-1.77,1.77-1.77h22.23c0.97,0,1.77,0.8,1.77,1.77l0,0
				c0,0.98-0.8,1.77-1.77,1.77h-22.23C165.46,223.23,164.66,222.43,164.66,221.46z"/>
			<path class="st73" d="M159.9,220.73L159.9,220.73c0-0.55,0.45-1,1-1h33.27c0.55,0,1,0.45,1,1v0c0,0.55-0.45,1-1,1H160.9
				C160.35,221.73,159.9,221.28,159.9,220.73z"/>
		</g>
		<path class="st123" d="M203.97,215.91h-53.73c-1.33,0-2.41,1.08-2.41,2.41l0,0c0,1.33,1.08,2.41,2.41,2.41h53.73
			c1.33,0,2.41-1.08,2.41-2.41l0,0C206.38,216.99,205.29,215.91,203.97,215.91z"/>
		<path class="st124" d="M179.9,215.91h-29.66c-1.33,0-2.41,1.08-2.41,2.41l0,0c0,1.33,1.08,2.41,2.41,2.41h29.66
			c1.33,0,2.41-1.08,2.41-2.41l0,0C182.31,216.99,181.22,215.91,179.9,215.91z"/>
		<path class="st125" d="M175.71,269.15l2.29,1.75l-1.34,14.46c0,0-0.05,1.07-0.54,1.07c-0.49,0-0.8,0-0.8,0s-0.38-0.1-0.34-0.74
			c0.04-0.64,0.38-14.33,0.38-14.33L175.71,269.15z"/>
		<path class="st125" d="M124.33,269.15l2.29,1.75l-1.34,14.46c0,0-0.05,1.07-0.54,1.07c-0.49,0-0.8,0-0.8,0s-0.38-0.1-0.34-0.74
			c0.04-0.64,0.38-14.33,0.38-14.33L124.33,269.15z"/>
		<path class="st125" d="M174.82,264.26c0,0,3,1.68,3.25,2.29c0.26,0.61,0.9,3.35,0.19,4.35c-0.71,1-2.8,1.77-3.29,2.38
			c-0.48,0.61-3,11.24-3,11.24s-0.39,1.9-2.58,1.9c-2.19,0-13.11,0-13.11,0s-0.63-0.13-0.61-0.98c0.01-0.47,0.39-1.16,0.73-1.68
			c0.68-1.05,1.61-1.11,2.3-1.11l6.85-1.82l3.96-9.92l2.54-7.06C172.06,263.86,174.03,263.18,174.82,264.26z"/>
		<path class="st126" d="M156.71,247.74c1.25,1.97,11.92,16.2,11.53,17.7c-0.57,2.19-2.4,8.38-3.03,10.52
			c-1.54,5.28-3.58,4.99-4.51,4.99c-0.93,0-1.7,0.62-2,1.71c0,0,5.83,0,7.25,0c1.42,0,2.38-0.84,2.84-2.19s3.35-13.43,3.64-14.63
			c0.29-1.19,1.68-1.71,2.38-1.58l-7.47-19.01L156.71,247.74z"/>
		<path class="st125" d="M123.4,264.26c0,0,3,1.68,3.25,2.29c0.26,0.61,0.9,3.35,0.19,4.35c-0.71,1-2.8,1.77-3.29,2.38
			c-0.48,0.61-3,11.24-3,11.24s-0.39,1.9-2.58,1.9c-2.19,0-13.11,0-13.11,0s-0.63-0.13-0.61-0.98c0.01-0.47,0.39-1.16,0.73-1.68
			c0.69-1.05,1.61-1.11,2.3-1.11l6.85-1.82l3.96-9.92l2.54-7.06C120.65,263.86,122.61,263.18,123.4,264.26z"/>
		<path class="st126" d="M123.34,247.99c0,0-7.99,22.68-9.53,27.96c-1.55,5.28-3.58,4.99-4.51,4.99c-0.93,0-1.7,0.62-2,1.71
			c0,0,5.83,0,7.25,0c1.42,0,2.38-0.84,2.83-2.19c0.45-1.35,3.35-13.43,3.64-14.63c0.29-1.19,1.68-1.71,2.38-1.58l6.19-12.31
			L123.34,247.99z"/>
		<path class="st122" d="M186.45,170.34l7.55,5.12c0,0,2.24-0.32,3.94,2.53c3.34,5.57,7.21,17.08,6.27,23.48
			c-1.42,9.66-5.54,14.43-18.3,14.43c-12.76,0-26,0-26.84,0c-0.84,0,16.85,40.75,17.36,42.56c0.52,1.8-23.45,9.02-34.15,5.03
			c0,0-0.71-0.45-0.84-1.74c-0.13-1.29-0.06-2.93-0.06-2.93s-18.17-5.22-20.81-9.41c0,0-0.26-0.63,0.02-1.56
			c0.21-0.7,7.49-25.58,15.09-40.35c8.99-17.48,13.97-15.48,31.43-15.23c0,0,0.37-5.19,1.08-7.57
			C168.01,181.87,186.45,170.34,186.45,170.34z"/>
		<path class="st73" d="M141.39,258.82c0,0-5.87-1.69-11.43-3.91c1.79-1.67,4.7-4.58,5.05-6.08c0.52-2.19,3.74-27.14,4.04-27.22
			c0.31-0.08,0.35,0.29,0.35,0.29L141.39,258.82z"/>
		<path class="st125" d="M164.57,133.42l-4.77,4.82c-3.07,4.63-18.3,35.78-35.92,41.81c-2.42,0.83,7.43,1.74,7.23,2.39
			c-0.01,0.04,9.08-4.58,15.24-9.08c2.64-1.93,14.43-13.02,14.43-13.02S169.02,138.57,164.57,133.42z"/>
		<path class="st122" d="M178.78,129.64c-3.04,0.39-6.32,1.01-10.14,1.49c-4.17,1.22-5.67,3.89-6.97,7.27
			c-1.07,2.8-4.22,15.68-4.11,16.83c-0.05,2.73,1.83,6.61,5.69,10.92c1.61,5.8,4.07,15.4,4.4,17.25c1.56,8.69,33.43-0.84,31.79-4.7
			c-8.19-19.25-2.36-30.22-3.55-37.82c-0.06-0.37-0.11-0.73-0.17-1.08l-3.8-2.46l1.27-2.21c0,0-4.34-3.65-13.16-5.25
			C179.57,129.8,179.16,129.72,178.78,129.64z"/>
		<path class="st127" d="M178.37,117.36l0.17,3.21c0,0,0.62,6.55,0.72,7.55c0.08,0.86,1.64,1.71,3.95,1.98
			c1.1,0.13-0.05,1.99-2.18,4.02c-4.28,4.08-7.3,1.63-9.6,1.53c-5.03-0.23-6.22-4.55-3.88-4.83c0.66-0.08,1.53-0.35,2.24-1.29
			c0.98-1.3,0.42-6.62-0.8-7.91C167.75,120.33,178.37,117.36,178.37,117.36z"/>
		<g>
			<path class="st7" d="M171.43,135.65c2.6,15.3,20.31-8.28,10.11-5.87C181.54,129.77,179.57,134.81,171.43,135.65z"/>
			<path class="st7" d="M167.53,130.83c0,0-0.49,3.72,3.9,4.82c0,0-1.62,4.88-4.58,4.2C163.9,139.17,163.93,130.11,167.53,130.83z"
				/>
		</g>
		<path class="st128" d="M162.18,109.14c-0.16,0.08-0.36,0.02-0.44-0.15c-0.08-0.16-0.01-0.36,0.15-0.44c0.01,0,1.95-1.03,3.68,0.01
			c0.15,0.09,0.2,0.29,0.11,0.45c-0.09,0.16-0.29,0.21-0.45,0.11C163.82,108.28,162.19,109.14,162.18,109.14z"/>
		<g>
			<path class="st73" d="M181.17,85.39c-4.91,0.62-8.4,5.1-7.78,10.01c0.62,4.91,5.1,8.4,10.01,7.78c4.91-0.62,8.4-5.1,7.78-10.01
				C190.57,88.25,186.09,84.77,181.17,85.39z"/>
			<path class="st129" d="M181.35,88.73c-1.96,0.25-3.35,2.03-3.11,4c0.25,1.96,2.03,3.35,4,3.11c1.96-0.25,3.35-2.03,3.11-4
				C185.1,89.87,183.31,88.48,181.35,88.73z"/>
			<path class="st73" d="M184.24,102.62c-0.12-0.01-0.22,0.08-0.23,0.21c-0.01,0.12,0.08,0.22,0.2,0.23c0.01,0,5.21,0.39,8.04-7.18
				c0.04-0.11-0.02-0.24-0.13-0.28c-0.11-0.04-0.24,0.02-0.28,0.13C189.14,103,184.26,102.62,184.24,102.62z"/>
			<g>
				<path class="st130" d="M159.71,111.71c1.94-0.28,3.73,1.06,4.01,3c0.28,1.94-1.06,3.73-3,4.01c-1.94,0.28-3.73-1.06-4.01-3
					C156.44,113.78,157.78,111.99,159.71,111.71z"/>
				<path class="st73" d="M155.9,109.56c0,0,2.49,10.82,4.77,10.76c-1.09-6.29,0.49-6.88,1.47-8.61L155.9,109.56z"/>
				<path class="st131" d="M184.17,106.54c3.34,9.69,3.39,14.34-1.17,17.17s-12.54,1.84-12.54,1.84L184.17,106.54z"/>
				<path class="st73" d="M165,87.35c4.64-1.02,7.86-0.28,8.72-0.1c2.13,0.43,4.68,3.64,4.68,3.64s1.55-1.77,3.26-1.16
					c1.71,0.61,8.39,10.11,8.71,12.66c0.32,2.55-4.67,8.76-4.67,8.76c-1.21-0.08-1.07,1.04-1.07,1.04l0.23,1.83
					c-0.62,0.08-0.83-0.81-0.93-1.62c-0.1-0.81-0.21-1.68-0.21-1.68s-1.74-2.12-2.05-4.54l-4.12,0.52
					c-0.34,0.04-0.71-0.28-0.83-0.62c-0.12-0.34-0.64-2.66-0.78-3.21s-0.37-0.81-0.46-0.64c-0.09,0.16,0.07,2.11,0.04,3.38
					c-0.03,1.25-0.85,1.45-0.88,1.46l0,0l-4.64,0.58L165,87.35z"/>
				<path class="st130" d="M184.25,108.2c0.09,0,0.18,0,0.26,0.01l0,0l0,0c1.61,0.13,2.97,1.36,3.21,3.02
					c0.28,1.94-1.06,3.73-3,4.01c-1.93,0.28-3.73-1.06-4.01-3c-0.16-1.12,0.22-2.2,0.95-2.96c0.04,1.05,0.37,2.31,1.7,2.27
					l-0.29-2.02C182.97,108.72,183.69,108.25,184.25,108.2z"/>
				<path class="st126" d="M168.35,92.37L168.35,92.37c6.6-0.95,12.78,3.67,13.73,10.27l1.58,10.91c0.95,6.6-3.67,12.78-10.27,13.74
					l0,0c-6.6,0.95-12.78-3.67-13.74-10.27l-1.58-10.91C157.13,99.51,161.75,93.32,168.35,92.37z"/>
				<path class="st127" d="M168.35,92.37L168.35,92.37c6.6-0.95,12.78,3.67,13.73,10.27l1.58,10.91c0.95,6.6-3.67,12.78-10.27,13.74
					l0,0c-0.25,0.04-0.49,0.06-0.74,0.08c7.69-1.43,7.93-8.87,7.57-13.6c-0.36-4.74-3.35-9.29-4.98-10.93
					c-1.63-1.63-4.74-0.14-6.09,2.34c-1.35,2.47-4.58,4.9-4.64,4.95c-0.06,0.05-1.76,0.33-1.76,0.33l-2.03-4.85
					c0,0,2.29-7.55,3.9-12.05C165.76,92.97,167.02,92.56,168.35,92.37z"/>
				<path class="st73" d="M179.22,104.65c0,0,2.49,10.82,4.77,10.76c-1.09-6.29,0.49-6.88,1.47-8.61L179.22,104.65z"/>
				<path class="st73" d="M171.16,95.37l1.12,1.72c0,0,2.42-1.39,3.62,2.01c1.05,2.96,3.56,9.62,8.94,8.99
					c0.82-0.1,1.39,0.33,2.36-0.18c0,0-1.23-11.66-5.5-14.5C177.43,90.57,171.16,95.37,171.16,95.37z"/>
				<path class="st73" d="M176.27,96.21c1.59-1.88,0.32-4.12,0.32-4.12c-6.18-10.32-21.19-3.14-25.5,6.55
					c-4.02,9.04,3.1,17.4,9.87,13.73c0.37-0.2,0.72-0.43,1.05-0.68c4.08-1.81,6.04-5.85,7.75-9.37c1.69-3.49,3.13-6.47,6.17-6.01
					c0.11,0.02,0.21-0.02,0.28-0.09L176.27,96.21L176.27,96.21z M169.17,102.03c-1.3,2.68-2.75,5.67-5.19,7.67
					c2.92-3.77,4.27-9.45,7.67-12.08C170.74,98.79,169.98,100.36,169.17,102.03z"/>
			</g>
		</g>
		<path class="st125" d="M194.26,136.29c9.08,11.96,16.69,25.62,17.61,26.38c1.07,0.88,1.67,0.96,3.2,0.23
			c1.52-0.72,17.59-13.73,18.14-13.83c0.54-0.09,3.41,2.81,3.56,3.49c0.15,0.68-17.08,18.68-19.88,20.28
			c-2.8,1.6-7.6,0.98-10.19-1.21c-1.87-1.59-9.53-10.04-13.61-14.57c-4.32-4.78-6.5-14.17-6.58-14.49
			c-0.52-3.65-0.23-7.13,2.28-8.44C190.6,133.57,192.62,134.14,194.26,136.29z"/>
	</g>
	<g>
		<path class="st129" d="M226.5,261.51c0,0,2.68,1.88,2.84,2.44c0.15,0.57,0.34,3.03-0.52,3.79c-0.86,0.76-3.05,1.13-3.63,1.59
			c-0.58,0.46-4.79,9.3-4.79,9.3s-0.69,1.59-2.85,1.28c-2.16-0.31-12.94-1.87-12.94-1.87s-0.6-0.2-0.44-0.94
			c0.08-0.41,0.57-0.95,0.99-1.35c0.85-0.81,1.77-0.73,2.45-0.63l7.05-0.6l5.52-8.02l3.66-5.74
			C223.85,260.77,225.9,260.46,226.5,261.51z"/>
		<path class="st126" d="M227.72,248.28c0,0-10.21,17.63-12.59,21.98c-2.38,4.35-4.34,3.81-5.26,3.68
			c-0.92-0.13-1.78,0.29-2.25,1.19c0,0,5.75,0.83,7.15,1.04c1.4,0.2,2.49-0.39,3.15-1.49c0.66-1.11,5.49-11.15,5.97-12.14
			c0.48-0.99,1.93-1.24,2.61-1.03l8.06-9.54L227.72,248.28z"/>
		<g>
			<path class="st122" d="M266.97,271.27l2.29,1.55l-1.34,12.79c0,0-0.05,0.95-0.54,0.95c-0.49,0-0.8,0-0.8,0s-0.38-0.09-0.34-0.66
				c0.04-0.56,0.38-12.68,0.38-12.68L266.97,271.27z"/>
			<path class="st129" d="M266.08,266.94c0,0,3,1.48,3.25,2.02c0.26,0.54,0.9,2.96,0.19,3.85c-0.71,0.88-2.8,1.57-3.29,2.11
				c-0.48,0.54-3,9.95-3,9.95s-0.39,1.68-2.58,1.68c-2.19,0-13.11,0-13.11,0s-0.63-0.11-0.61-0.87c0.01-0.42,0.39-1.02,0.73-1.48
				c0.68-0.93,1.61-0.98,2.3-0.98l6.85-1.61l3.96-8.78l2.54-6.24C263.33,266.58,265.29,265.98,266.08,266.94z"/>
			<path class="st126" d="M252.41,257.59c2.37,3.01,7.43,9.28,7.1,10.4c-0.57,1.94-2.4,7.42-3.03,9.31
				c-1.55,4.68-3.58,4.42-4.51,4.42c-0.93,0-1.7,0.54-2,1.51c0,0,5.83,0,7.25,0c1.42,0,2.38-0.74,2.83-1.94
				c0.45-1.2,3.35-11.89,3.64-12.94c0.29-1.05,1.68-1.51,2.38-1.4l-5.19-10.71C259.58,256.08,251.78,256.79,252.41,257.59z"/>
		</g>
		<path class="st73" d="M254.12,259.96c0,0-21.39-34.45-22.76-41.51c-1.31-6.78-2.57-11.24,38.54-27.18
			c1.69-0.65,3.02-2.12,4.98-2.39c28.31,4.87,41.21,16.91,1.86,20.68c-31.84,3.05-27.3,13.9-27.3,13.9s8.38,23.04,12.4,33.54
			C262.22,257.96,256.24,262.59,254.12,259.96z"/>
		<g>
			<path class="st73" d="M274.8,281.9v-60.23c0-0.37,0.3-0.67,0.67-0.67h0.49c0.37,0,0.67,0.3,0.67,0.67v60.23
				c0,0.37-0.3,0.67-0.67,0.67h-0.49C275.1,282.57,274.8,282.27,274.8,281.9z"/>
			<path class="st120" d="M274.79,219.28h1.85c1.38,0,2.51,1.13,2.51,2.51v2.43c0,1.38-1.13,2.51-2.51,2.51h-1.85
				c-1.38,0-2.51-1.13-2.51-2.51v-2.43C272.29,220.41,273.41,219.28,274.79,219.28z"/>
			<path class="st121" d="M274.2,280.93h3.05c0.74,0,1.34,0.6,1.34,1.34v0.99c0,0.74-0.6,1.34-1.34,1.34h-3.05
				c-0.74,0-1.34-0.6-1.34-1.34v-0.99C272.85,281.53,273.46,280.93,274.2,280.93z"/>
			<path class="st121" d="M267.63,282.76h16.17c1.13,0,2.06,0.93,2.06,2.06v1.52c0,1.13-0.93,2.06-2.06,2.06h-16.17
				c-1.13,0-2.06-0.93-2.06-2.06v-1.52C265.57,283.69,266.5,282.76,267.63,282.76z"/>
			<path class="st122" d="M262.83,220.53L262.83,220.53c0-0.98,0.8-1.77,1.77-1.77h22.23c0.97,0,1.77,0.8,1.77,1.77l0,0
				c0,0.98-0.8,1.77-1.77,1.77h-22.23C263.63,222.3,262.83,221.51,262.83,220.53z"/>
			<path class="st73" d="M258.07,219.8L258.07,219.8c0-0.55,0.45-1,1-1h33.27c0.55,0,1,0.45,1,1l0,0c0,0.55-0.45,1-1,1h-33.27
				C258.52,220.8,258.07,220.35,258.07,219.8z"/>
		</g>
		<path class="st123" d="M302.14,214.98h-53.73c-1.33,0-2.41,1.08-2.41,2.41v0c0,1.33,1.08,2.41,2.41,2.41h53.73
			c1.32,0,2.41-1.08,2.41-2.41v0C304.55,216.07,303.47,214.98,302.14,214.98z"/>
		<path class="st124" d="M278.07,214.98h-29.66c-1.32,0-2.41,1.08-2.41,2.41v0c0,1.33,1.08,2.41,2.41,2.41h29.66
			c1.33,0,2.41-1.08,2.41-2.41v0C280.48,216.07,279.4,214.98,278.07,214.98z"/>
		<path class="st122" d="M303.93,81.6c-6.2,0-11.22,5.03-11.22,11.22c0,6.2,5.03,11.22,11.22,11.22c6.2,0,11.22-5.03,11.22-11.22
			C315.15,86.62,310.13,81.6,303.93,81.6z"/>
		<path class="st129" d="M304.13,85.61c-2.47,0-4.48,2.01-4.48,4.48c0,2.47,2.01,4.48,4.48,4.48s4.48-2.01,4.48-4.48
			C308.61,87.61,306.61,85.61,304.13,85.61z"/>
		<path class="st125" d="M264.27,163.74c-0.19,0.3-1.53,0.38-1.89,0.23c-0.36-0.15-11.89-26.45-12.02-26.63
			c-0.13-0.18-0.42-0.14-0.42-0.14s-2.46,2.86-4.31,3.07c0,0-0.21,0.45-0.13,0.58c0.08,0.13,6.38,25.96,11.62,33.67
			c2.51,3.7,7.64,5.11,10.68,2c5.22-5.35,11.09-15.85,14.58-25.52c1.38-3.82,2.28-13.76-2.64-18.01c-1.3-1.13-3.33,1.88-4.18,3.84
			C274.71,138.8,264.27,163.74,264.27,163.74z"/>
		<path class="st122" d="M276.32,185.43c-1.46,0.66-3.97,6.31-5.8,6.99c-7.21,2.66-16.4,5.48-20.76,8.43
			c-4.65,3.15-6.57,7.76-7.99,11.43c-1.42,3.68-13,28.7-18.38,41.21c-0.73,1.71,6.94,4.99,7.98,3.45
			c5.11-7.52,21.89-32.19,28.63-42.01l28.28,0.04c0,0,10.95-1.76,16.91-9.48c6.41-8.31,1.12-28.57-1.7-28.85
			c-5.35-0.51-16.11-3.11-24.69,1.08C273.59,180.29,278.69,185.46,276.32,185.43z"/>
		<path class="st122" d="M275.84,136.19c-1.91,5.18-4.95,15.06-5.17,17.54c-0.29,3.24,1.1,8.29,2.15,11.28
			c1.97,5.59-0.26,13.96,0.2,19.79c0.12,1.48,0.45,2.81,1.1,3.83c0,0,11.15,6.47,32.26-1.37c0,0,1.74-2.35,1.25-6.05
			c-2.83-21.32-1.03-24.3,3.68-45.95c-5.49-5.75-19.38-6.68-27.45-4.95c-0.01,0-5.03,1.95-5.93,2.72c-0.9,0.77-2.03,3.22-2.03,3.22
			L275.84,136.19z"/>
		<path class="st127" d="M296.34,117.78l-0.04,2.95c0,0,0.17,6.04,0.19,6.96c0.02,0.79,1.4,1.67,3.5,2.06
			c1,0.18-0.17,1.82-2.24,3.55c-4.17,3.47-6.78,1.04-8.89,0.81c-4.6-0.52-5.41-4.55-3.26-4.66c0.61-0.03,1.42-0.23,2.13-1.05
			c0.98-1.13,0.8-6.03-0.25-7.29C286.43,119.84,296.34,117.78,296.34,117.78z"/>
		<g>
			<path class="st7" d="M288.85,134.1c1.44,14.17,19.11-6.33,9.62-4.75C298.47,129.34,296.37,133.84,288.85,134.1z"/>
			<path class="st7" d="M285.58,129.44c0,0-0.67,3.37,3.28,4.65c0,0-1.79,4.37-4.45,3.57C281.74,136.86,282.33,128.56,285.58,129.44
				z"/>
		</g>
		<g>
			<path class="st132" d="M278.25,107.17c-0.1,0.01-0.19,0.03-0.28,0.05l0,0v0c-1.73,0.36-3.05,1.88-3.08,3.73
				c-0.04,2.14,1.66,3.91,3.81,3.96c2.14,0.04,3.92-1.66,3.96-3.81c0.02-1.25-0.54-2.37-1.44-3.09c0.1,1.15-0.08,2.56-1.55,2.71
				l0.04-2.24C279.72,107.56,278.87,107.14,278.25,107.17z"/>
			<path class="st132" d="M304.8,107.17c0.1,0.01,0.19,0.03,0.28,0.05l0,0l0,0c1.73,0.36,3.05,1.88,3.08,3.73
				c0.04,2.14-1.66,3.91-3.81,3.96c-2.14,0.04-3.92-1.66-3.96-3.81c-0.02-1.25,0.54-2.37,1.44-3.09c-0.1,1.15,0.08,2.56,1.55,2.71
				l-0.04-2.24C303.34,107.56,304.18,107.14,304.8,107.17z"/>
		</g>
		<path class="st126" d="M290.79,87.77L290.79,87.77c-7.31,0-13.29,5.98-13.29,13.29v12.09c0,7.31,5.98,13.29,13.29,13.29h0
			c7.31,0,13.29-5.98,13.29-13.29v-12.09C304.09,93.75,298.1,87.77,290.79,87.77z"/>
		<path class="st122" d="M304.09,114.77v-5.83c0,0,0.27-1.38,1.97-1.38c5.23-6.02,4.54-15.56-1.04-20.52
			c-5.59-4.95-17.58-5.27-19.68-4.57c-2.1,0.7-4.25,4.25-4.25,4.25s-1.78-1.59-3.43-0.76c-1.65,0.83-7.17,11.23-7.17,13.84
			c0,3.41,5.74,5.76,7.01,14.97c0.63,0,0.74-4.88,0.74-5.7s0-1.71,0-1.71s1.49-2.36,1.49-4.83h4.21c0.34,0,0.68-0.37,0.75-0.73
			c0.08-0.36,0.3-2.76,0.38-3.33c0.08-0.57,0.27-0.86,0.38-0.7c0.11,0.15,0.19,2.13,0.38,3.41c0.19,1.26,1.04,1.36,1.07,1.36h0
			l12.09,0.13C298.22,106.85,303.89,114.77,304.09,114.77z"/>
		<path class="st7" d="M253.11,124.56h1.54c0.11,0,0.21,0.04,0.29,0.12l0.03,0l11.57-0.88c0.65-0.05,1.18,0.44,1.18,1.1v15.71
			c0,0.65-0.53,1.23-1.18,1.28l-11.57,0.89c-0.08,0.01-0.17,0-0.25-0.01c-0.03,0-0.05,0.01-0.08,0.01h-1.54
			c-0.08,0-0.16-0.02-0.22-0.06l-6.6-1.11c-0.38-0.06-0.69-0.44-0.69-0.83v-16.66c0-0.39,0.31-0.66,0.69-0.6l6.61,1.12
			C252.97,124.58,253.04,124.56,253.11,124.56z"/>
		<path class="st73" d="M245.03,123.83l7.37,1.24c0.41,0.07,0.75,0.47,0.75,0.9v18.02c0,0.42-0.34,0.72-0.75,0.65l-7.37-1.24
			c-0.41-0.07-0.75-0.47-0.75-0.9v-18.02C244.28,124.05,244.61,123.76,245.03,123.83z"/>
		<path class="st122" d="M266.94,124.15l-12.52,0.96c-0.7,0.05-1.28,0.68-1.28,1.38v17c0,0.71,0.57,1.24,1.28,1.19l12.52-0.96
			c0.7-0.05,1.28-0.68,1.28-1.38v-17C268.21,124.63,267.64,124.09,266.94,124.15z"/>
		<path class="st125" d="M252.4,124.98h1.67c0.25,0,0.46,0.21,0.46,0.46v18.77c0,0.25-0.21,0.46-0.46,0.46h-1.67
			c-0.25,0-0.46-0.2-0.46-0.46v-18.77C251.95,125.19,252.15,124.98,252.4,124.98z"/>
		<path class="st122" d="M306.73,103.21c-0.12-0.02-0.23,0.06-0.24,0.18c-0.02,0.12,0.06,0.22,0.18,0.24c0.01,0,5.06,0.82,8.45-6.35
			c0.05-0.11,0-0.23-0.1-0.28c-0.11-0.05-0.23,0-0.28,0.1C311.48,103.98,306.75,103.21,306.73,103.21z"/>
		<path class="st122" d="M281.27,92.62c0.06,0.1,0.03,0.23-0.07,0.29c-0.1,0.06-0.23,0.03-0.29-0.07
			c-0.01-0.01-2.82-4.28,2.31-10.31c0.08-0.09,0.21-0.1,0.3-0.02c0.09,0.08,0.1,0.21,0.02,0.3
			C278.62,88.61,281.26,92.61,281.27,92.62z"/>
		<g>
			<path class="st133" d="M241.64,137.57c0.25,2.06,2.65,3.27,2.66,3.34c0.01,0.07-0.05-4.96-0.05-4.96L241.64,137.57z"/>
			<path class="st133" d="M243.76,127.85c-0.87-0.31-1.62-0.37-1.37,0.62c0.25,1-0.06,3.49-0.06,3.49l1.93-0.19
				C244.26,131.77,244.69,128.22,243.76,127.85z"/>
			<path class="st126" d="M241.58,131.26c-0.37,0.57-0.25,6.78,0.31,7.24c0.56,0.46,4.14,0.72,4.18,0c0.03-0.72-1.43-1.41-1.43-1.41
				s2.26,0.27,2.7-0.7c0.44-0.98-0.76-1.33-2.35-1.43c-0.64-0.04,1.33-0.5,2.13-0.82c0.46-0.18,0.64-0.84,0.55-1.37
				c-0.15-0.86-2.48-0.27-3.3-0.34c0,0,2.12-0.36,3-0.77c0.7-0.32,1.23-1.51-0.55-1.53c-1.33-0.01-3.36,0.28-3.36,0.28
				C243.46,130.41,242.36,130.07,241.58,131.26z"/>
		</g>
		<path class="st126" d="M270.29,140.65c-1.04-1.34-1.2-2.73-1.14-3.63c0.06-0.9,0.48-2.4,0.04-4.42c-0.45-2.02-1.14-1.42-1.4-0.24
			c-0.26,1.18-0.9,2.66-0.9,2.66s-2.86-2.73-3.94-3.96c-1.08-1.23-2.31-1.2-2.3-0.26c0.01,0.94,0.37,0.97,0,1.09
			c-0.37,0.12-0.71,0.32-0.61,0.97c0.1,0.66,0.1,0.66,0.1,0.66s-0.8,0.06-0.88,0.67c-0.08,0.61,0.41,1.44,0.41,1.44
			s-0.93,0.41-0.78,0.85c0.15,0.44,2.09,2.93,3.51,4c1.42,1.07,3.75,2.42,4.41,3.41C267.48,144.89,270.29,140.65,270.29,140.65z"/>
		<path class="st133" d="M270.29,140.65c-0.8-1.03-1.08-2.09-1.14-2.93c-0.99,2.15-3.2,2.94-5.46,2.22
			c-0.79-0.25-1.86-0.63-2.95-1.03c0.55,0.6,1.14,1.19,1.66,1.58c1.42,1.07,3.75,2.42,4.41,3.41
			C267.48,144.89,270.29,140.65,270.29,140.65z"/>
		<path class="st125" d="M291.6,166.02c-0.36-0.15-21.46-26.13-21.59-26.31c-0.13-0.18-0.42-0.14-0.42-0.14s-3.05,3.13-4.9,3.33
			c0,0-0.21,0.45-0.13,0.58c0.08,0.13,16.95,24.92,22.19,32.64c2.51,3.7,6.99,4.9,10.03,1.78c5.22-5.35,12.93-15.85,16.41-25.52
			c1.38-3.82,2.28-13.76-2.64-18.01c-1.3-1.13-3.33,1.88-4.18,3.84C305.31,140.67,291.76,166.08,291.6,166.02z"/>
		<path class="st133" d="M299.16,105.34c-6.46-0.5-16.2,0.13-20.13,0.42c0.36-0.89,0.7-2.05,0.7-3.24h4.21
			c0.34,0,0.68-0.37,0.75-0.73c0.08-0.36,0.3-2.76,0.38-3.33c0.08-0.57,0.27-0.86,0.38-0.7c0.11,0.15,0.19,2.13,0.38,3.41
			c0.19,1.26,1.04,1.36,1.07,1.36l11.61,0.13l0.48,0.01c-0.01,0.07-0.03,0.15-0.03,0.23C298.86,103.62,298.95,104.46,299.16,105.34z
			"/>
		<path class="st122" d="M226.02,273.22l2.29,1.75l-1.34,14.46c0,0-0.05,1.07-0.54,1.07c-0.49,0-0.8,0-0.8,0s-0.38-0.1-0.34-0.74
			c0.04-0.64,0.38-14.33,0.38-14.33L226.02,273.22z"/>
	</g>
	<g>
		<path class="st134" d="M142.9,258.2c1.29,1.75,1.71,2.31,1.71,2.31c-6.21,7.74-10.29,6.98-13.98,7.1
			c-1.61,0.04-0.28,1.46-0.28,1.46l-5.82,1.41l-1.69-2.8C122.86,267.66,132.37,261.09,142.9,258.2L142.9,258.2z"/>
		<path class="st135" d="M125.62,254.59c2.23,2.99,2.69,3.61,2.69,3.61s2.69,0.28,6.39,0.46c0.29,0.01,3.14-0.94,4.26-1.14
			c2.19-0.39,6.47-0.19,2.81,3.85c-2.65,2.94-5.74,4.64-9.43,4.87c-3.7,0.23-6.16,1.09-6.16,1.09l-3.14,0.98
			c0,0-3.54-6.07-3.65-8.31C119.27,257.75,125.62,254.59,125.62,254.59L125.62,254.59z"/>
		<path class="st134" d="M103.59,283.47c0,2.17,0,2.88,0,2.88c-9.6,2.51-12.42-0.53-15.45-2.65c-1.32-0.91-1.09,1.01-1.09,1.01
			l-5.51-2.33l0.3-3.26C81.84,279.13,93.41,279.51,103.59,283.47L103.59,283.47z"/>
		<path class="st135" d="M91.87,270.27c0,3.73,0,4.51,0,4.51s1.99,1.81,4.85,4.16c0.23,0.19,3.09,1.13,4.11,1.63
			c1.99,0.98,5.31,3.7-0.04,4.76c-3.88,0.77-7.37,0.3-10.48-1.71c-3.1-2.02-5.59-2.79-5.59-2.79l-3.1-1.09c0,0,0.77-6.99,2.01-8.86
			C84.87,269.03,91.87,270.27,91.87,270.27L91.87,270.27z"/>
		<path class="st130" d="M76.17,92.99c-2.07,0.2-3.63,2.07-3.5,4.17c0.14,2.1,1.92,3.64,3.99,3.44c2.07-0.2,3.63-2.07,3.5-4.17
			C80.02,94.32,78.24,92.79,76.17,92.99z"/>
		<path class="st131" d="M78.2,88.58c1.52,5.67-0.79,9.7-2.11,12.07c-1.32,2.37-2.31-12.21-2.31-12.21L78.2,88.58z"/>
		<path class="st120" d="M80.37,118.84c0,0,2.59,1.22,4.54,4.24c1.11,1.71,14.2,33.94,15.04,36.03c0.84,2.1,0.64,7.18-1.66,10.11
			c-0.93,1.19-3.69,4.61-6.63,8.26c-2.61,3.23-7.46,3.01-11.22,3.25c2.57-3.85,10.58-15.82,11.01-16.54
			c0.51-0.86,0.79-1.72-0.02-3.33c-0.81-1.61-11.65-18.41-11.65-18.41S74.85,124.19,80.37,118.84z"/>
		<path class="st136" d="M78,181.21h4.95c1.44,0,2.58-1.18,2.54-2.62l0,0c-0.05-1.44-1.27-2.62-2.71-2.62h-4.95
			c-1.44,0-2.58,1.18-2.54,2.62l0,0C75.35,180.03,76.56,181.21,78,181.21z"/>
		<rect x="39.62" y="197.65" class="st75" width="4.45" height="7.24"/>
		<path class="st124" d="M78.93,138.29v13.08v44.77c0,2.16-1.77,3.92-3.92,3.92H34.27c-2.16,0-3.92-1.77-3.92-3.92v-44.77v-13.08
			v-4.02c0-13.36,10.93-24.3,24.3-24.3l0,0c13.36,0,24.3,10.93,24.3,24.3V138.29z"/>
		<path class="st123" d="M82.26,138.29v13.08v44.77c0,2.16-1.77,3.92-3.92,3.92H37.59c-2.16,0-3.92-1.77-3.92-3.92v-44.77v-13.08
			v-4.02c0-13.36,10.93-24.3,24.3-24.3l0,0c13.36,0,24.3,10.93,24.3,24.3V138.29z"/>
		<g>
			<path class="st73" d="M69.22,281.84v-71.01c0-0.44,0.36-0.79,0.79-0.79h0.58c0.44,0,0.79,0.36,0.79,0.79v71.01
				c0,0.44-0.36,0.79-0.79,0.79h-0.58C69.57,282.63,69.22,282.27,69.22,281.84z"/>
			<path class="st120" d="M69.21,208.01h2.18c1.63,0,2.96,1.33,2.96,2.96v2.87c0,1.63-1.33,2.96-2.96,2.96h-2.18
				c-1.63,0-2.96-1.33-2.96-2.96v-2.87C66.25,209.34,67.58,208.01,69.21,208.01z"/>
			<path class="st121" d="M68.48,280.59h3.59c0.87,0,1.58,0.71,1.58,1.58v1.17c0,0.87-0.71,1.58-1.58,1.58h-3.59
				c-0.87,0-1.58-0.71-1.58-1.58v-1.17C66.89,281.3,67.6,280.59,68.48,280.59z"/>
			<path class="st121" d="M60.06,282.75h19.07c1.34,0,2.43,1.09,2.43,2.43v1.79c0,1.34-1.09,2.43-2.43,2.43H60.06
				c-1.34,0-2.43-1.09-2.43-2.43v-1.79C57.63,283.85,58.72,282.75,60.06,282.75z"/>
			<path class="st122" d="M55.11,209.48L55.11,209.48c0-1.15,0.94-2.09,2.09-2.09H83.4c1.15,0,2.09,0.94,2.09,2.09l0,0
				c0,1.15-0.94,2.09-2.09,2.09H57.19C56.05,211.57,55.11,210.63,55.11,209.48z"/>
			<path class="st73" d="M49.49,208.62L49.49,208.62c0-0.65,0.53-1.18,1.18-1.18h39.22c0.65,0,1.18,0.53,1.18,1.18l0,0
				c0,0.65-0.53,1.18-1.18,1.18H50.67C50.02,209.8,49.49,209.27,49.49,208.62z"/>
		</g>
		<path class="st123" d="M101.45,202.94H38.1c-1.56,0-2.84,1.28-2.84,2.84l0,0c0,1.56,1.28,2.84,2.84,2.84h63.36
			c1.56,0,2.84-1.28,2.84-2.84l0,0C104.29,204.22,103.01,202.94,101.45,202.94z"/>
		<path class="st124" d="M73.07,202.94H38.1c-1.56,0-2.84,1.28-2.84,2.84l0,0c0,1.56,1.28,2.84,2.84,2.84h34.98
			c1.56,0,2.84-1.28,2.84-2.84l0,0C75.91,204.22,74.63,202.94,73.07,202.94z"/>
		<path class="st73" d="M92.64,271.53c0,0,18.91-62.21,20.44-69.08c1.48-6.6,11.01-16.06-29.56-22.6c-1.71-0.27-2.83-2.06-4.71-2.33
			c0,0-33.2,1.62-37.02,3.1s4.06,14.06,34.58,17.03c30.51,2.97,16.52,13.51,16.52,13.51s-8.38,55.96-9.5,58.91
			C82.27,273.02,93.15,275.93,92.64,271.53z"/>
		<path class="st122" d="M77.53,174.19c0.8,0.37,1.87,2.34,2.97,4.08c2.4,3.78,12.47,7.26,17.69,10.93
			c4.37,3.07,6.07,7.55,7.32,11.12c1.64,4.69,21.06,53.71,22.22,55.76c1.16,2.06-0.65,4.85-6.23,5.86c-1.64,0.3-3.21-3.89-3.21-3.89
			s-23.07-43.81-30.38-55.15l-28.43,0.04c-23.35,0.03-15.25-35.81-9.79-36.34c5.16-0.5,17.6-4,25.71,0.09
			C80.32,169.18,75.26,174.21,77.53,174.19z"/>
		<path class="st127" d="M60.53,102.75l-0.06,3.02c0,0-0.42,6.44-0.47,7.13c-0.04,0.7-0.38,0.93-1.24,1.49
			c-1.19,1.77,1.34,9.52,3.48,9.86c2.14,0.33,12.17-0.3,12.9-0.84c0.52-0.37-4.18-7.16-3.82-8.26c-0.43-0.12-0.82-0.26-1.13-0.54
			c-2-1.85-1.43-6.83,0.21-8.57C71.64,104.74,60.53,102.75,60.53,102.75z"/>
		<path class="st137" d="M77.5,126.35c-1.75-1.06-2.84-0.23-4.93,1.67c-2.09,1.9-3.94,1.69-5.06,2.1
			c-1.12,0.41-2.25,18.27,4.68,21.1c2.56,1.05,4.27,0.02,5.42-2.09C79.68,145.33,82.04,129.1,77.5,126.35z"/>
		<path class="st138" d="M42.9,174.48c0.77,1.93,3.6,3.52,7,4.73c5.19-2.03,13.79,1.08,20.35,0.76c7.46-0.36,10.57-2.08,10.57-2.08
			l0.47,0.34c0.23-0.17,0.42-0.34,0.54-0.53l0,0v0c0.89-1.32,0.54-3.28,0.26-5.03c-0.5-3.15-3.17-0.95-1.56-15.81
			c1.61-14.86,6.33-40.22-9.34-42.1c0,0,0.15,0.36,0.37,1.03l-0.66,0.03c0,0,1.26,4.52-1.74,6c-3.01,1.48-6.16-0.62-7.5-2.36
			c-0.19-0.25-0.43-0.36-0.7-0.36c-0.94-1.28-1.97-2.57-3.12-3.89c-3.37,0.52-8.76,3.01-8.76,3.01c-2.72,1.19-5.7,3.69-6.32,6.4
			c-0.87,3.85,2.52,16.91,4.87,25.32C51.57,164.03,40.64,168.85,42.9,174.48z"/>
		<path class="st139" d="M70.04,126.59c0,0,6.29,27.76,7.18,33.29c0,0,0.16,1.17-0.66,2.56c-0.82,1.39-3.45,6.03-3.86,6.56
			c-0.41,0.54-0.68,0.14-1.16-0.32c-0.48-0.47-3.56-3.84-4.07-4.49c-0.29-0.36-0.52-0.84-0.45-2.08c0.41-7.72,1.28-14.78,1.16-23.12
			c-0.06-4.51-0.25-8.82-0.58-11.73l0.68-2.43C68.27,124.82,70.03,125.69,70.04,126.59z"/>
		<path class="st140" d="M73.16,140.57c1.72,7.79,3.6,16.48,4.05,19.31c0,0,0.16,1.17-0.66,2.56c-0.24,0.42-0.65,1.12-1.11,1.92
			l-1.96-17.82C73.48,146.54,73.34,143.91,73.16,140.57z"/>
		<path class="st139" d="M71.16,123.65l-1.12,2.94c0,0-1.4-0.52-2.45,0.66l-2.18-2.24l1.04-1.99c0,0,1.3-0.74,2.77-0.61
			C70.69,122.53,71.16,123.65,71.16,123.65z"/>
		<path class="st7" d="M57.56,114.45c-0.27,0.17-0.82,0.52-1.28,0.98c0,0-0.31,0.51-0.03,1.3c0.27,0.8,7.42,10.24,7.42,10.24
			s0.24,0.34,0.58-0.03c0.35-0.37,3.37-4.68,3.37-4.68l-9.08-8.08C58.28,113.88,57.83,114.29,57.56,114.45z"/>
		<path class="st7" d="M70.08,114.49c0-0.01,0.01,0,0.03-0.01c0.66-0.21,1.95,0.03,2.37,0.5c1.29,1.29-0.08,9.16-0.52,10.5
			c0,0.01,0,0.02,0,0.02s-0.33,0.38-0.75,0.12c-0.41-0.26-2.57-3.58-2.57-3.58C69.02,121.37,71.75,118.04,70.08,114.49z"/>
		<path class="st120" d="M56.9,114.91c0,0,9.8,22.68,10.62,33.34c0.82,10.67-8.59,32.9-9.2,34.12c-0.61,1.22-11.75,6.48-16.83,6.51
			c0,0-0.81-0.02-1-0.26c-0.19-0.23-0.92-1.11-1.18-1.45c-0.26-0.34-0.45-0.95-0.19-1.81c0.26-0.86,6.25-27.87,7-31.39
			c0.75-3.52-3.32-22.12-3.92-25.57C41.61,124.94,40.83,118.62,56.9,114.91z"/>
		<path class="st141" d="M59.26,120.64c2.96,7.44,7.7,20.32,8.26,27.61c0.05,0.63,0.06,1.31,0.04,2.01c-1.16-3.02-2.2-4.87-4.3-7.09
			c-1.87-1.97-4.61-4.56-6.23-5.96c-2.48-2.16-5.61-4.24-5.1-6.61c0.5-2.37,2.29-9.48,2.29-9.48L59.26,120.64z"/>
		<path class="st120" d="M72.49,114.98c0,0,1.2,27.74,1.66,31.05c0.46,3.3,4.33,29.54,4.67,31.5c0.34,1.97,5.75,2.5,5.75,2.5
			s-2.24-25.96-2.25-26.67c-0.01-0.72,0.55-20,0.62-22.38c0.08-2.37-2.35-11.03-2.77-11.96C79.76,118.08,76.85,115.84,72.49,114.98z
			"/>
		<path class="st141" d="M72.83,122.41c0.39,8.47,1.02,21.42,1.33,23.62c0.09,0.62,0.29,2.05,0.57,3.98c0,0,3.61-21.92,3.42-22.71
			c-0.19-0.79-3.32-6.97-3.32-6.97L72.83,122.41z"/>
		<path class="st142" d="M72.49,114.98c0,0,0.2,4.53,0.46,10.14c1.58-2.02,3.58-4.68,3.37-5.04c-0.34-0.57-2.7-4.84-2.71-4.85
			C73.26,115.14,72.88,115.05,72.49,114.98z"/>
		<path class="st142" d="M53.55,115.79c-0.01,0.04-1.85,7.03-1.9,7.56c-0.04,0.42,7.71,4.64,11.05,6.45
			c-2.81-7.98-5.8-14.89-5.8-14.89C55.69,115.19,54.57,115.48,53.55,115.79z"/>
		<path class="st120" d="M46.47,118.84c0,0-2.59,1.22-4.54,4.24c-1.11,1.71-14.2,33.94-15.04,36.03c-0.84,2.1-0.64,7.18,1.66,10.11
			c0.93,1.19,3.69,4.61,6.63,8.26c2.61,3.23,7.46,3.01,11.22,3.25c-2.57-3.85-10.58-15.82-11.01-16.54
			c-0.51-0.86-0.79-1.72,0.02-3.33c0.81-1.61,11.65-18.41,11.65-18.41S52,124.19,46.47,118.84z"/>
		<path class="st122" d="M76.58,116.31c1.94,2.22,5.14,6.81,6.29,13.99c0.01,0.04,0.03,0.08,0.06,0.11
			c-0.11-1.41-0.66-3.91-1.25-6.21c-1.26-3.34-2.87-5.79-4.17-7.41C77.22,116.63,76.91,116.47,76.58,116.31z"/>
		<path class="st122" d="M45.66,139.26c-0.01,0.11,0.08,0.2,0.19,0.21c0.11,0,0.2-0.09,0.21-0.2c0-0.05,0.76-13.99-2.39-18.33
			c-0.08,0.08-0.17,0.17-0.26,0.26C46.42,125.3,45.67,139.21,45.66,139.26z"/>
		<path class="st136" d="M48.84,181.21h-4.95c-1.44,0-2.58-1.18-2.54-2.62l0,0c0.05-1.44,1.26-2.62,2.71-2.62h4.95
			c1.44,0,2.58,1.18,2.54,2.62l0,0C51.5,180.03,50.28,181.21,48.84,181.21z"/>
		<path class="st130" d="M50.54,95.48c-2.07,0.2-3.63,2.07-3.5,4.17c0.14,2.1,1.92,3.64,3.99,3.44c2.07-0.2,3.63-2.07,3.49-4.17
			C54.4,96.82,52.61,95.28,50.54,95.48z"/>
		<path class="st126" d="M62.97,74.93L62.97,74.93C55.92,75.62,50.54,82.04,51,89.2l0.76,11.83c0.46,7.16,6.61,12.46,13.65,11.77
			l0,0c7.05-0.69,12.43-7.11,11.97-14.27l-0.38-5.91l-0.38-5.92C76.16,79.54,70.02,74.25,62.97,74.93z"/>
		<path class="st127" d="M57.81,76.58l-0.03,0.01c-4.31,2.48-7.13,7.34-6.79,12.6l0.76,11.83c0.46,7.16,6.61,12.46,13.65,11.77l0,0
			c1.62-0.16,3.15-0.62,4.54-1.32c-13.12,2.84-14.48-7.2-14.94-14.45c-0.69-10.7,10.06-3.42,21.86-5.39
			c0.41-0.07-0.56-3.59-0.17-3.65l-0.08-1.3c-0.08-1.17-0.3-2.29-0.66-3.34c-5.27-2.74-12.55-6.26-15.89-6.62
			c-1-0.11-1.68-0.18-2.15-0.23l-0.08,0.04C57.92,76.58,57.93,76.59,57.81,76.58z"/>
		<path class="st73" d="M53.86,89.81c0,0,0.24,3.67,0.39,6.04c0.15,2.37,0.17,2.92-0.94,3.89c0,0,0.01,3.15-1.26,3.81
			c0,0-0.98-5.78-2.39-8.26l-0.15-9.91c0.95,1.38,2.35,2.51,4.4,3.07C53.85,88.88,53.83,89.33,53.86,89.81z"/>
		<path class="st73" d="M76.97,92c0,0,2.79-2.4,3.55-4.99c2-6.79-7.76-21.18-20.86-12.5c-3.99,2.64-7.44-0.95-8.07,6.03
			c0,0-0.95-0.91-1.71-0.6c-0.76,0.31,0.39,1.94,0.39,1.94s-2.55,2.01-2.88,3.52c-0.33,1.51,2.98,8.37,2.8,10.33l1.4-5.95l6.75-6.44
			l12.62-1.31l5.75,5.82L76.97,92z"/>
		<path class="st73" d="M52.67,92.81c0,0,3.56-1.08,3.42-4.45c1.2,1.79,4.09,1.92,2.45-0.88c0,0,8.11,5.38,18.69,2.93
			c0,0,0.93-10.83-1.15-11.73c-2.07-0.9-15.62,1.6-17.13,2.3c-1.5,0.7-9.38,5.24-9.38,5.24L52.67,92.81z"/>
	</g>
	<g>
		<path class="st143" d="M43.83,184.71c0.11-1.67,1.56-2.94,3.23-2.83c1.67,0.11,2.94,1.56,2.82,3.23
			c-0.44,6.42-1.14,13.56-2.17,21.48h55.07c-1.09-7.87-1.96-14.97-2.65-21.36c-0.18-1.66,1.03-3.16,2.7-3.33
			c1.66-0.18,3.16,1.03,3.33,2.69c1.35,12.61,3.42,27.99,6.51,46.68c2.63,15.91,5.98,34.19,10.24,55.16h-6.18
			c-4.18-20.61-7.47-38.56-10.05-54.19c-1.15-6.98-2.16-13.49-3.05-19.58H46.88c-0.88,6.1-1.95,12.64-3.23,19.63
			c-2.87,15.64-6.81,33.58-12.13,54.13h-6.26c5.48-21.03,9.51-39.33,12.43-55.22c1.44-7.83,2.6-15.07,3.53-21.78
			c0.01-0.15,0.03-0.3,0.06-0.44C42.52,199.93,43.34,191.87,43.83,184.71z"/>
		<path class="st7" d="M239.61,184.71c0.11-1.67,1.56-2.94,3.23-2.83c1.67,0.11,2.94,1.56,2.83,3.23
			c-0.44,6.42-1.14,13.56-2.17,21.48h55.07c-1.09-7.87-1.96-14.97-2.64-21.36c-0.18-1.66,1.03-3.16,2.69-3.33
			c1.67-0.18,3.16,1.03,3.33,2.69c1.36,12.61,3.42,27.99,6.51,46.68c2.63,15.91,5.98,34.19,10.24,55.16h-6.18
			c-4.18-20.61-7.47-38.56-10.05-54.19c-1.15-6.98-2.16-13.49-3.05-19.58h-56.76c-0.88,6.1-1.95,12.64-3.23,19.63
			c-2.87,15.64-6.81,33.58-12.13,54.13h-6.26c5.48-21.03,9.51-39.33,12.43-55.22c1.44-7.83,2.6-15.07,3.53-21.78
			c0.01-0.15,0.03-0.3,0.06-0.44C238.3,199.93,239.12,191.87,239.61,184.71z"/>
	</g>
	<g>
		<path class="st73" d="M306.6,181.88H37.34c-1.28,0-2.32,1.04-2.32,2.32l0,0c0,1.28,1.04,2.32,2.32,2.32H306.6
			c1.28,0,2.32-1.04,2.32-2.32l0,0C308.93,182.92,307.88,181.88,306.6,181.88z"/>
		<path class="st144" d="M311.54,178.28H32.4c-1.63,0-2.96,1.33-2.96,2.96l0,0c0,1.63,1.33,2.96,2.96,2.96h279.14
			c1.63,0,2.96-1.33,2.96-2.96l0,0C314.5,179.61,313.17,178.28,311.54,178.28z"/>
		<path class="st135" d="M76.32,178.28v5.92h-6.16v-5.92H76.32L76.32,178.28z M41.24,178.28v5.92h-3.44v-5.92H41.24L41.24,178.28z
			 M53.32,178.28v5.92h-6.89v-5.92H53.32L53.32,178.28z M60.4,178.28v5.92h-1.6v-5.92H60.4L60.4,178.28z M66.96,184.2h-3.2v-5.92
			h3.2V184.2z"/>
		<path class="st145" d="M311.3,179.24H171.14c-0.97,0-1.76,0.79-1.76,1.76l0,0c0,0.97,0.79,1.76,1.76,1.76H311.3
			c0.97,0,1.76-0.79,1.76-1.76l0,0C313.06,180.03,312.27,179.24,311.3,179.24z"/>
	</g>
	<path class="st73" d="M435.7,292.05H15.81c-1.55,0-2.81-1.27-2.81-2.81v0c0-1.55,1.26-2.81,2.81-2.81H435.7
		c1.55,0,2.81,1.27,2.81,2.81v0C438.51,290.79,437.25,292.05,435.7,292.05z"/>
	<g>
		<path class="st146" d="M366.42,215.44c-8.67-4.61-10.87,5.42-7.5,13.72c3.37,8.3,20.66,36.21,21.56,47.29
			c0.35,4.29,1.15,3.82,1.83,0.81C385.74,262.25,378.36,221.78,366.42,215.44z"/>
		<g>
			<path class="st147" d="M384.78,177.42c9.94-8.95,16.15,3.58,14.43,15.66c-1.72,12.08-15.37,54.69-12.91,69.62
				c0.95,5.79-0.26,5.43-2.16,1.68C374.68,245.66,371.1,189.73,384.78,177.42z"/>
			<path class="st148" d="M386.51,266.84c-0.21,0.55-0.68,0.28-1.32-0.64c-10.36-34.5,5.78-86.05,5.83-86.22
				c0.09-0.28,0.39-0.44,0.67-0.36c0.28,0.09,0.44,0.39,0.36,0.67C392,180.47,375.64,232.72,386.51,266.84z"/>
		</g>
		<g>
			<path class="st129" d="M406.48,206.08c9.63-4.19,11.14,6.68,6.85,15.26c-4.29,8.57-25.06,36.91-26.94,48.65
				c-0.73,4.55-1.55,3.98-2.03,0.71C381.97,254.41,393.23,211.85,406.48,206.08z"/>
			<path class="st123" d="M385.52,273.13c-0.3,0.36-0.58,0.04-0.82-0.81c0.87-28.28,25.72-62.66,25.8-62.77
				c0.14-0.19,0.4-0.23,0.59-0.1c0.19,0.14,0.23,0.4,0.1,0.59C411.1,210.15,385.91,245,385.52,273.13z"/>
		</g>
		<g>
			<polygon class="st97" points="392.92,266.87 374.42,266.87 369.59,271.23 373.54,286.43 383.67,286.43 393.81,286.43 
				397.75,271.23 			"/>
			<path class="st97" d="M397.75,261.21h-28.16c-0.84,0-1.53,0.69-1.53,1.53v6.95c0,0.84,0.69,1.53,1.53,1.53h28.16
				c0.84,0,1.53-0.69,1.53-1.53v-6.95C399.29,261.9,398.6,261.21,397.75,261.21z"/>
			<polygon class="st75" points="369.59,271.23 370.4,274.35 396.94,274.35 397.75,271.23 			"/>
		</g>
	</g>
	<g>
		<path class="st149" d="M111.39,178.28H68.75c-0.75,0-1.39-0.61-1.43-1.35v0c-0.04-0.75,0.53-1.35,1.27-1.35h42.64
			c0.75,0,1.39,0.61,1.43,1.35v0C112.71,177.67,112.14,178.28,111.39,178.28z"/>
		<path class="st150" d="M111.39,178.28H68.75c-0.48,0-0.92-0.26-1.19-0.64c0.22-0.38,0.63-0.64,1.11-0.64h42.64
			c0.48,0,0.92,0.26,1.19,0.64C112.29,178.02,111.88,178.28,111.39,178.28z"/>
		<path class="st150" d="M112.29,175.57H78.18c-0.98,0-1.72-0.8-1.66-1.77l1.4-22.09c0.06-0.97,0.91-1.77,1.88-1.77h34.11
			c0.98,0,1.72,0.8,1.66,1.77l-1.4,22.09C114.11,174.77,113.26,175.57,112.29,175.57z"/>
		<path class="st7" d="M112.29,175.57h-33.1c-0.98,0-1.72-0.8-1.66-1.77l1.4-22.09c0.06-0.97,0.91-1.77,1.88-1.77h33.1
			c0.98,0,1.72,0.8,1.66,1.77l-1.4,22.09C114.11,174.77,113.26,175.57,112.29,175.57z"/>
		<path class="st151" d="M110.48,175.57l-31.16-24.9c-0.23,0.29-0.38,0.65-0.4,1.04l-0.08,1.3l28.24,22.57H110.48L110.48,175.57z
			 M88.83,149.93l25.56,20.43l-0.22,3.44c-0.02,0.27-0.09,0.53-0.22,0.75l-30.8-24.62H88.83z"/>
		<path class="st7" d="M76.5,178.28h-7.75c-0.75,0-1.39-0.61-1.43-1.35v0c-0.04-0.75,0.53-1.35,1.27-1.35h7.75
			c0.75,0,1.39,0.61,1.44,1.35v0C77.82,177.67,77.25,178.28,76.5,178.28z"/>
		<path class="st152" d="M111.95,176.24H76.47c-0.37,0-0.7-0.3-0.72-0.68l0,0c-0.02-0.37,0.26-0.68,0.64-0.68h35.49
			c0.37,0,0.69,0.3,0.72,0.68l0,0C112.61,175.94,112.32,176.24,111.95,176.24z"/>
	</g>
	<g>
		<path class="st153" d="M124.69,174.02h14.25c0.59,0,1.12,0.24,1.5,0.63c0.39,0.39,0.62,0.92,0.62,1.5c0,0.59-0.24,1.12-0.62,1.5
			c-0.39,0.39-0.92,0.63-1.5,0.63h-14.25c-0.59,0-1.12-0.24-1.5-0.63c-0.39-0.39-0.63-0.92-0.63-1.5c0-0.59,0.24-1.12,0.63-1.5
			C123.57,174.26,124.1,174.02,124.69,174.02z"/>
		<path class="st7" d="M156.57,174.26h-18.23c-1.03,0-1.88,0.85-1.88,1.88l0,0c0,1.04,0.85,1.88,1.88,1.88h18.23V174.26z"/>
		<path class="st154" d="M156.57,174.02c0.14,0,0.25,0.11,0.25,0.25c0,0.14-0.11,0.25-0.25,0.25h-18.23c-0.45,0-0.86,0.18-1.15,0.48
			s-0.48,0.7-0.48,1.15c0,0.45,0.18,0.86,0.48,1.15c0.3,0.3,0.7,0.48,1.15,0.48h18.23c0.14,0,0.25,0.11,0.25,0.25
			c0,0.14-0.11,0.25-0.25,0.25h-18.23c-0.59,0-1.12-0.24-1.5-0.63c-0.39-0.39-0.62-0.92-0.62-1.5c0-0.59,0.24-1.12,0.62-1.5
			c0.39-0.39,0.92-0.63,1.5-0.63H156.57z"/>
		<path class="st154" d="M125.34,176.15c0-0.59,0.24-1.12,0.63-1.5c0.39-0.39,0.92-0.63,1.5-0.63h-1.85c-0.59,0-1.12,0.24-1.5,0.63
			c-0.39,0.39-0.63,0.92-0.63,1.5c0,0.59,0.24,1.12,0.63,1.5c0.39,0.39,0.92,0.63,1.5,0.63h1.85c-0.59,0-1.12-0.24-1.5-0.63
			C125.58,177.27,125.34,176.73,125.34,176.15z"/>
		<path class="st154" d="M128.03,176.15c0-0.59,0.24-1.12,0.63-1.5c0.39-0.39,0.92-0.63,1.5-0.63h-1.85c-0.59,0-1.12,0.24-1.5,0.63
			c-0.39,0.39-0.62,0.92-0.62,1.5c0,0.59,0.24,1.12,0.62,1.5c0.39,0.39,0.92,0.63,1.5,0.63h1.85c-0.59,0-1.12-0.24-1.5-0.63
			C128.27,177.27,128.03,176.73,128.03,176.15z"/>
	</g>
	<g>
		<path class="st155" d="M152.82,170.29h-12.48c-0.51,0-0.98,0.21-1.32,0.55c-0.34,0.34-0.55,0.8-0.55,1.32
			c0,0.51,0.21,0.98,0.55,1.32c0.34,0.34,0.8,0.55,1.32,0.55h12.48c0.51,0,0.98-0.21,1.32-0.55c0.34-0.34,0.55-0.8,0.55-1.32
			c0-0.51-0.21-0.98-0.55-1.32C153.8,170.49,153.33,170.29,152.82,170.29z"/>
		<path class="st7" d="M124.9,170.5h15.96c0.91,0,1.65,0.74,1.65,1.65l0,0c0,0.91-0.74,1.65-1.65,1.65H124.9V170.5z"/>
		<path class="st156" d="M124.9,170.29c-0.12,0-0.22,0.1-0.22,0.22c0,0.12,0.1,0.22,0.22,0.22h15.96c0.39,0,0.75,0.16,1.01,0.42
			c0.26,0.26,0.42,0.62,0.42,1.01c0,0.39-0.16,0.75-0.42,1.01c-0.26,0.26-0.62,0.42-1.01,0.42H124.9c-0.12,0-0.22,0.1-0.22,0.22
			c0,0.12,0.1,0.22,0.22,0.22h15.96c0.51,0,0.98-0.21,1.32-0.55c0.34-0.34,0.55-0.8,0.55-1.32c0-0.51-0.21-0.98-0.55-1.32
			c-0.34-0.34-0.8-0.55-1.32-0.55H124.9z"/>
		<path class="st156" d="M152.24,172.15c0-0.51-0.21-0.98-0.55-1.32c-0.34-0.34-0.8-0.55-1.32-0.55H152c0.51,0,0.98,0.21,1.32,0.55
			c0.34,0.34,0.55,0.8,0.55,1.32c0,0.51-0.21,0.98-0.55,1.32c-0.34,0.34-0.8,0.55-1.32,0.55h-1.62c0.51,0,0.98-0.21,1.32-0.55
			C152.03,173.13,152.24,172.66,152.24,172.15z"/>
		<path class="st156" d="M149.89,172.15c0-0.51-0.21-0.98-0.55-1.32c-0.34-0.34-0.8-0.55-1.32-0.55h1.62c0.51,0,0.98,0.21,1.32,0.55
			c0.34,0.34,0.55,0.8,0.55,1.32c0,0.51-0.21,0.98-0.55,1.32c-0.34,0.34-0.8,0.55-1.32,0.55h-1.62c0.51,0,0.98-0.21,1.32-0.55
			C149.68,173.13,149.89,172.66,149.89,172.15z"/>
	</g>
	<g>
		<path class="st130" d="M129.75,166.55h9.28c0.51,0,0.98,0.21,1.32,0.55c0.34,0.34,0.55,0.8,0.55,1.32c0,0.51-0.21,0.98-0.55,1.32
			c-0.34,0.34-0.8,0.55-1.32,0.55h-9.28c-0.51,0-0.98-0.21-1.32-0.55c-0.34-0.34-0.55-0.8-0.55-1.32c0-0.51,0.21-0.98,0.55-1.32
			C128.77,166.76,129.24,166.55,129.75,166.55z"/>
		<path class="st7" d="M149.65,166.77h-11.14c-0.91,0-1.65,0.74-1.65,1.65l0,0c0,0.91,0.74,1.65,1.65,1.65h11.14V166.77z"/>
		<path class="st136" d="M149.65,166.55c0.12,0,0.22,0.1,0.22,0.22c0,0.12-0.1,0.22-0.22,0.22h-11.14c-0.39,0-0.75,0.16-1.01,0.42
			c-0.26,0.26-0.42,0.62-0.42,1.01c0,0.39,0.16,0.75,0.42,1.01c0.26,0.26,0.62,0.42,1.01,0.42h11.14c0.12,0,0.22,0.1,0.22,0.22
			c0,0.12-0.1,0.22-0.22,0.22h-11.14c-0.51,0-0.98-0.21-1.32-0.55c-0.34-0.34-0.55-0.8-0.55-1.32c0-0.51,0.21-0.98,0.55-1.32
			c0.34-0.34,0.8-0.55,1.32-0.55H149.65z"/>
		<path class="st136" d="M130.33,168.42c0-0.51,0.21-0.98,0.55-1.32c0.34-0.34,0.8-0.55,1.32-0.55h-1.62
			c-0.51,0-0.98,0.21-1.32,0.55c-0.34,0.34-0.55,0.8-0.55,1.32c0,0.51,0.21,0.98,0.55,1.32c0.34,0.34,0.8,0.55,1.32,0.55h1.62
			c-0.51,0-0.98-0.21-1.32-0.55C130.53,169.4,130.33,168.93,130.33,168.42z"/>
		<path class="st136" d="M132.68,168.42c0-0.51,0.21-0.98,0.55-1.32c0.34-0.34,0.8-0.55,1.32-0.55h-1.62
			c-0.51,0-0.98,0.21-1.32,0.55c-0.34,0.34-0.55,0.8-0.55,1.32c0,0.51,0.21,0.98,0.55,1.32c0.34,0.34,0.8,0.55,1.32,0.55h1.62
			c-0.51,0-0.98-0.21-1.32-0.55C132.89,169.4,132.68,168.93,132.68,168.42z"/>
	</g>
	<g>
		<path class="st119" d="M164.77,35.83h-57.38c-2.13,0-3.87,1.74-3.87,3.87v23.03c0,2.13,1.74,3.87,3.87,3.87h57.38
			c2.13,0,3.87-1.74,3.87-3.87V39.7C168.64,37.57,166.9,35.83,164.77,35.83z"/>
		<path class="st7" d="M166.31,33.95h-57.38c-2.13,0-3.87,1.74-3.87,3.87v23.03c0,2.13,1.74,3.87,3.87,3.87h57.38
			c2.13,0,3.87-1.74,3.87-3.87V37.82C170.18,35.69,168.44,33.95,166.31,33.95z"/>
		<path class="st123" d="M162.13,51.06c1.6,0,3.04,0.65,4.09,1.69c1.05,1.05,1.7,2.49,1.7,4.09c0,1.6-0.65,3.04-1.7,4.09
			c-1.05,1.05-2.49,1.69-4.09,1.69c-1.6,0-3.04-0.65-4.09-1.69c-1.05-1.05-1.7-2.49-1.7-4.09c0-1.6,0.65-3.04,1.7-4.09
			C159.09,51.71,160.53,51.06,162.13,51.06L162.13,51.06z M157.36,56.85c0,1.32,0.53,2.51,1.4,3.37c0.86,0.86,2.06,1.4,3.37,1.4
			c1.32,0,2.51-0.53,3.37-1.4c0.86-0.86,1.4-2.06,1.4-3.37c0-1.32-0.53-2.51-1.4-3.37c-0.86-0.86-2.06-1.4-3.37-1.4
			c-1.32,0-2.51,0.53-3.37,1.4C157.9,54.34,157.36,55.53,157.36,56.85z"/>
		<path class="st123" d="M162.13,53.48c0.93,0,1.77,0.38,2.38,0.99c0.61,0.61,0.99,1.45,0.99,2.38c0,0.93-0.38,1.77-0.99,2.38
			c-0.61,0.61-1.45,0.99-2.38,0.99c-0.93,0-1.77-0.38-2.38-0.99c-0.61-0.61-0.99-1.45-0.99-2.38c0-0.93,0.38-1.77,0.99-2.38
			C160.36,53.86,161.2,53.48,162.13,53.48L162.13,53.48z M159.78,56.85c0,0.65,0.26,1.24,0.69,1.67c0.43,0.43,1.01,0.69,1.66,0.69
			c0.65,0,1.24-0.26,1.67-0.69c0.43-0.43,0.69-1.02,0.69-1.67c0-0.65-0.26-1.24-0.69-1.67c-0.43-0.43-1.01-0.69-1.67-0.69
			c-0.65,0-1.24,0.26-1.66,0.69C160.04,55.61,159.78,56.2,159.78,56.85z"/>
		<path class="st123" d="M162.13,57.88c-0.57,0-1.03-0.46-1.03-1.03c0-0.57,0.46-1.03,1.03-1.03c0.57,0,1.03,0.46,1.03,1.03
			C163.16,57.42,162.7,57.88,162.13,57.88z"/>
		<path class="st112" d="M164.86,37.17h-54.47c-0.39,0-0.71,0.32-0.71,0.72l0,0c0,0.39,0.32,0.72,0.71,0.72h54.47
			c0.39,0,0.72-0.32,0.72-0.72l0,0C165.57,37.49,165.25,37.17,164.86,37.17z"/>
		<path class="st112" d="M164.86,41.55h-54.47c-0.39,0-0.71,0.32-0.71,0.72l0,0c0,0.39,0.32,0.72,0.71,0.72h54.47
			c0.39,0,0.72-0.32,0.72-0.72l0,0C165.57,41.88,165.25,41.55,164.86,41.55z"/>
		<path class="st112" d="M164.86,45.94h-54.47c-0.39,0-0.71,0.32-0.71,0.72l0,0c0,0.39,0.32,0.72,0.71,0.72h54.47
			c0.39,0,0.72-0.32,0.72-0.72l0,0C165.57,46.26,165.25,45.94,164.86,45.94z"/>
		<path class="st112" d="M152.52,50.32h-42.13c-0.39,0-0.71,0.32-0.71,0.72l0,0c0,0.39,0.32,0.72,0.71,0.72h42.13
			c0.39,0,0.72-0.32,0.72-0.72l0,0C153.23,50.64,152.91,50.32,152.52,50.32z"/>
		<path class="st112" d="M152.52,54.88h-42.13c-0.39,0-0.71,0.32-0.71,0.72l0,0c0,0.39,0.32,0.72,0.71,0.72h42.13
			c0.39,0,0.72-0.32,0.72-0.72l0,0C153.23,55.2,152.91,54.88,152.52,54.88z"/>
		<path class="st112" d="M152.52,59.44h-42.13c-0.39,0-0.71,0.32-0.71,0.72l0,0c0,0.39,0.32,0.72,0.71,0.72h42.13
			c0.39,0,0.72-0.32,0.72-0.72l0,0C153.23,59.76,152.91,59.44,152.52,59.44z"/>
	</g>
	<path class="st129" d="M234.28,64.31h28.88c2.1,0,3.81,1.72,3.81,3.81v15.73v1.16v10.01c0,0.18-0.1,0.33-0.26,0.39
		c-0.16,0.07-0.34,0.03-0.46-0.09l-6.5-6.5h-25.46c-2.1,0-3.81-1.72-3.81-3.81V68.13C230.46,66.03,232.18,64.31,234.28,64.31z"/>
	<g>
		<path class="st7" d="M240.21,78.67c-1.16,0-2.1-0.94-2.1-2.1c0-1.16,0.94-2.1,2.1-2.1c1.16,0,2.1,0.94,2.1,2.1
			C242.31,77.73,241.36,78.67,240.21,78.67z"/>
		<path class="st7" d="M248.71,78.67c-1.16,0-2.1-0.94-2.1-2.1c0-1.16,0.94-2.1,2.1-2.1c1.16,0,2.1,0.94,2.1,2.1
			C250.81,77.73,249.87,78.67,248.71,78.67z"/>
		<path class="st7" d="M257.22,78.67c-1.16,0-2.1-0.94-2.1-2.1c0-1.16,0.94-2.1,2.1-2.1c1.16,0,2.1,0.94,2.1,2.1
			C259.32,77.73,258.38,78.67,257.22,78.67z"/>
	</g>
	<path class="st147" d="M57.99,37.12h28.88c2.1,0,3.81,1.72,3.81,3.81v15.73v1.16v10.01c0,0.18-0.1,0.33-0.26,0.39
		c-0.16,0.07-0.34,0.03-0.46-0.09l-6.5-6.5H57.99c-2.1,0-3.81-1.72-3.81-3.81V40.93C54.18,38.84,55.9,37.12,57.99,37.12z"/>
	<g>
		<path class="st7" d="M63.92,51.48c-1.16,0-2.1-0.94-2.1-2.1c0-1.16,0.94-2.1,2.1-2.1c1.16,0,2.1,0.94,2.1,2.1
			C66.02,50.53,65.08,51.48,63.92,51.48z"/>
		<path class="st7" d="M72.43,51.48c-1.16,0-2.1-0.94-2.1-2.1c0-1.16,0.94-2.1,2.1-2.1c1.16,0,2.1,0.94,2.1,2.1
			C74.53,50.53,73.59,51.48,72.43,51.48z"/>
		<path class="st7" d="M80.94,51.48c-1.16,0-2.1-0.94-2.1-2.1c0-1.16,0.94-2.1,2.1-2.1c1.16,0,2.1,0.94,2.1,2.1
			C83.04,50.53,82.1,51.48,80.94,51.48z"/>
	</g>
	<g>
		<path class="st113" d="M358.38,106.82c0-0.43-0.35-0.78-0.78-0.78c-0.43,0-0.78,0.35-0.78,0.78v1.83H355
			c-0.43,0-0.78,0.35-0.78,0.78c0,0.43,0.35,0.78,0.78,0.78h1.83v1.83c0,0.43,0.35,0.78,0.78,0.78c0.43,0,0.78-0.35,0.78-0.78v-1.83
			h1.83c0.43,0,0.78-0.35,0.78-0.78c0-0.43-0.35-0.78-0.78-0.78h-1.83V106.82z"/>
		<path class="st119" d="M410.07,129.39L410.07,129.39L410.07,129.39z M412.43,120.43c-0.82,0.82-1.33,1.95-1.33,3.2
			s0.51,2.38,1.33,3.2c0.82,0.82,1.95,1.33,3.2,1.33c1.25,0,2.38-0.51,3.2-1.33c0.82-0.82,1.33-1.95,1.33-3.2s-0.51-2.38-1.33-3.2
			c-0.82-0.82-1.95-1.33-3.2-1.33C414.38,119.1,413.25,119.61,412.43,120.43L412.43,120.43z M413.62,115.66v-2.43
			c0-0.14,0.06-0.27,0.15-0.37c0.09-0.09,0.22-0.15,0.37-0.15h2.98c0.14,0,0.27,0.06,0.37,0.15c0.09,0.09,0.15,0.22,0.15,0.37v2.43
			c0,0.12,0.08,0.23,0.2,0.27c0.63,0.18,1.23,0.44,1.79,0.76c0.56,0.33,1.09,0.72,1.55,1.17c0.09,0.09,0.23,0.11,0.34,0.05l2.1-1.22
			v0c0.12-0.07,0.27-0.08,0.4-0.05c0.13,0.03,0.25,0.12,0.32,0.24l0,0l1.48,2.57l0.01,0.02c0.07,0.12,0.09,0.27,0.05,0.4
			c-0.03,0.13-0.12,0.25-0.24,0.32l-2.09,1.21c-0.11,0.06-0.18,0.19-0.15,0.32c0.08,0.31,0.14,0.63,0.18,0.96
			c0.04,0.32,0.06,0.64,0.06,0.98c0,0.33-0.02,0.66-0.06,0.98c-0.04,0.33-0.1,0.65-0.18,0.96h0c-0.03,0.12,0.02,0.24,0.13,0.31
			l2.1,1.21c0.12,0.07,0.21,0.19,0.24,0.32s0.02,0.27-0.05,0.4h0l-1.48,2.57l-0.01,0.01c-0.07,0.12-0.19,0.21-0.32,0.24
			c-0.13,0.03-0.27,0.02-0.4-0.05l-2.09-1.21c-0.11-0.07-0.25-0.06-0.35,0.03c-0.47,0.45-0.99,0.85-1.56,1.17
			c-0.55,0.32-1.15,0.57-1.77,0.76c-0.12,0.03-0.21,0.14-0.21,0.27v2.43c0,0.14-0.06,0.27-0.15,0.37c-0.09,0.09-0.22,0.15-0.37,0.15
			h-2.98c-0.14,0-0.27-0.06-0.37-0.15c-0.09-0.09-0.15-0.22-0.15-0.37v-2.43c0-0.12-0.08-0.23-0.2-0.27
			c-0.63-0.18-1.23-0.44-1.79-0.76c-0.57-0.33-1.09-0.72-1.56-1.17c-0.09-0.08-0.22-0.1-0.33-0.04l-2.09,1.21l-0.02,0.01
			c-0.12,0.07-0.27,0.09-0.4,0.05c-0.13-0.03-0.25-0.12-0.32-0.24l0,0l-1.49-2.58c-0.07-0.12-0.09-0.27-0.05-0.4
			c0.03-0.13,0.12-0.25,0.24-0.32l0,0l2.09-1.2c0.11-0.06,0.18-0.19,0.15-0.32c-0.08-0.31-0.14-0.63-0.18-0.96
			c-0.04-0.32-0.06-0.64-0.06-0.98c0-0.33,0.02-0.66,0.06-0.98c0.04-0.33,0.1-0.65,0.18-0.96h0c0.03-0.12-0.02-0.24-0.13-0.31
			l-2.09-1.21l-0.01-0.01c-0.12-0.07-0.21-0.19-0.24-0.32c-0.04-0.13-0.02-0.27,0.05-0.4l1.48-2.57l0.01-0.01
			c0.07-0.12,0.19-0.21,0.32-0.24c0.13-0.03,0.26-0.02,0.38,0.04l0.01,0.01l2.1,1.22c0.1,0.06,0.24,0.05,0.33-0.04
			c0.47-0.45,0.99-0.85,1.56-1.17c0.55-0.32,1.15-0.57,1.78-0.76C413.53,115.91,413.62,115.8,413.62,115.66z"/>
		<path class="st119" d="M418.17,161.43c-0.98,0.98-1.77,2.16-2.32,3.47c-0.52,1.26-0.81,2.64-0.81,4.08c0,1.44,0.29,2.82,0.81,4.08
			c0.54,1.31,1.33,2.49,2.32,3.47c0.98,0.98,2.16,1.77,3.47,2.32c1.26,0.52,2.64,0.81,4.08,0.81c1.44,0,2.82-0.29,4.08-0.81
			c1.31-0.54,2.48-1.33,3.47-2.32c0.98-0.98,1.77-2.16,2.32-3.47c0.52-1.26,0.81-2.64,0.81-4.08c0-1.44-0.29-2.82-0.81-4.08
			c-0.54-1.31-1.33-2.49-2.32-3.47c-0.98-0.98-2.16-1.77-3.47-2.32c-1.26-0.52-2.64-0.81-4.08-0.81c-1.44,0-2.82,0.29-4.08,0.81
			C420.32,159.66,419.15,160.45,418.17,161.43L418.17,161.43z M422.01,160.03c1.14-0.47,2.39-0.73,3.7-0.73
			c1.31,0,2.57,0.26,3.7,0.73c1.18,0.49,2.25,1.21,3.14,2.1c0.89,0.9,1.61,1.96,2.1,3.14c0.47,1.14,0.73,2.39,0.73,3.71
			c0,1.31-0.26,2.57-0.73,3.7c-0.49,1.18-1.21,2.25-2.1,3.14c-0.89,0.9-1.96,1.62-3.14,2.1c-1.14,0.47-2.39,0.73-3.7,0.73
			c-1.31,0-2.57-0.26-3.7-0.73c-1.18-0.49-2.25-1.21-3.14-2.1c-0.89-0.89-1.61-1.96-2.1-3.14c-0.47-1.14-0.73-2.39-0.73-3.7
			c0-1.31,0.26-2.57,0.73-3.71c0.49-1.18,1.21-2.25,2.1-3.14C419.76,161.24,420.83,160.52,422.01,160.03L422.01,160.03z
			 M420.83,152.18c0.25-0.06,0.46-0.2,0.62-0.4c0.15-0.19,0.24-0.43,0.24-0.69v-5.46c0-0.18,0.08-0.35,0.2-0.48
			c0.06-0.06,0.14-0.11,0.22-0.15c0.08-0.03,0.16-0.05,0.26-0.05h6.69c0.09,0,0.18,0.02,0.26,0.05c0.08,0.03,0.16,0.09,0.22,0.15
			c0.06,0.06,0.12,0.14,0.15,0.22c0.03,0.08,0.05,0.16,0.05,0.26l0,5.46c0,0.25,0.08,0.48,0.23,0.67c0.14,0.19,0.34,0.33,0.59,0.4
			c0.69,0.2,1.36,0.43,2,0.71c0.66,0.28,1.29,0.6,1.9,0.95c0.62,0.36,1.21,0.75,1.77,1.17c0.56,0.42,1.1,0.89,1.62,1.38
			c0.18,0.17,0.4,0.28,0.64,0.32c0.24,0.03,0.49-0.01,0.71-0.14l4.73-2.73c0.08-0.05,0.16-0.07,0.25-0.08
			c0.09-0.01,0.18,0,0.27,0.02c0.09,0.02,0.17,0.06,0.24,0.12c0.07,0.05,0.13,0.12,0.17,0.2c1.06,1.83,2.2,4.1,3.35,5.8
			c0.04,0.08,0.07,0.16,0.08,0.25c0.01,0.09,0,0.18-0.02,0.27c-0.02,0.09-0.06,0.17-0.12,0.24c-0.05,0.07-0.12,0.13-0.19,0.17
			l-4.68,2.7c-0.22,0.12-0.4,0.3-0.5,0.52c-0.1,0.22-0.13,0.48-0.07,0.74c0.09,0.35,0.16,0.69,0.22,1.04
			c0.06,0.33,0.11,0.69,0.16,1.06c0.04,0.36,0.08,0.71,0.1,1.06c0.02,0.34,0.03,0.7,0.03,1.07c0,0.37-0.01,0.73-0.03,1.07
			c-0.02,0.35-0.05,0.7-0.1,1.06c-0.04,0.37-0.1,0.72-0.16,1.05c-0.06,0.34-0.14,0.69-0.22,1.04l-0.12,0.5l0.12,0.02
			c0.01,0.06,0.03,0.12,0.06,0.18c0.09,0.21,0.25,0.4,0.47,0.53l4.73,2.73c0.08,0.04,0.14,0.1,0.19,0.17
			c0.05,0.07,0.09,0.15,0.12,0.24c0.02,0.09,0.03,0.18,0.02,0.27c-0.01,0.08-0.04,0.17-0.08,0.25c-1.11,1.93-2.24,3.86-3.35,5.8
			c-0.05,0.08-0.1,0.14-0.17,0.2c-0.07,0.05-0.15,0.09-0.24,0.12c-0.09,0.02-0.18,0.03-0.27,0.02c-0.09-0.01-0.17-0.04-0.25-0.08
			l-4.67-2.7c-0.22-0.14-0.47-0.2-0.72-0.18c-0.24,0.02-0.48,0.12-0.67,0.31c-0.51,0.49-1.05,0.96-1.63,1.39
			c-0.57,0.43-1.16,0.82-1.78,1.18c-0.61,0.35-1.24,0.67-1.89,0.94c-0.64,0.27-1.3,0.51-1.97,0.7c-0.25,0.06-0.46,0.2-0.62,0.4
			c-0.15,0.19-0.24,0.43-0.24,0.69v5.46c0,0.09-0.02,0.18-0.05,0.26c-0.03,0.08-0.09,0.16-0.15,0.22c-0.06,0.06-0.14,0.11-0.22,0.15
			c-0.08,0.03-0.16,0.05-0.26,0.05h-6.69c-0.09,0-0.18-0.02-0.26-0.05c-0.08-0.03-0.16-0.09-0.22-0.15
			c-0.06-0.06-0.12-0.14-0.15-0.22c-0.03-0.08-0.05-0.17-0.05-0.26l0-5.46c0-0.25-0.08-0.48-0.23-0.67
			c-0.14-0.19-0.34-0.33-0.59-0.4c-0.69-0.2-1.36-0.43-2-0.71c-0.66-0.28-1.29-0.6-1.9-0.95c-0.62-0.36-1.21-0.75-1.78-1.18
			c-0.57-0.43-1.12-0.9-1.63-1.39l0,0c-0.18-0.17-0.4-0.27-0.64-0.3c-0.23-0.03-0.47,0.02-0.69,0.14c-1.54,0.89-3.23,1.79-4.73,2.73
			c-0.08,0.05-0.16,0.07-0.24,0.08c-0.09,0.01-0.18,0-0.27-0.02c-0.09-0.02-0.17-0.06-0.24-0.12c-0.07-0.05-0.13-0.12-0.17-0.2
			l-0.25-0.43l0,0l-3.1-5.36c-0.05-0.08-0.07-0.16-0.08-0.25c-0.01-0.09,0-0.18,0.02-0.27c0.02-0.09,0.06-0.17,0.12-0.24
			c0.05-0.07,0.12-0.13,0.2-0.17l0.5-0.29l0,0l4.18-2.41c0.23-0.12,0.4-0.3,0.51-0.52c0.1-0.22,0.13-0.48,0.07-0.74
			c-0.09-0.35-0.16-0.69-0.22-1.04c-0.06-0.33-0.12-0.69-0.16-1.05c-0.04-0.36-0.08-0.71-0.1-1.06c-0.02-0.34-0.03-0.7-0.03-1.07
			c0-0.37,0.01-0.73,0.03-1.07c0.02-0.35,0.05-0.7,0.1-1.06c0.04-0.37,0.1-0.72,0.16-1.05c0.06-0.34,0.14-0.69,0.22-1.04l0.11-0.44
			l-0.1-0.03c-0.01-0.08-0.04-0.16-0.07-0.23c-0.09-0.21-0.25-0.4-0.47-0.53c-1.49-0.86-3.31-1.8-4.72-2.73
			c-0.08-0.05-0.14-0.1-0.2-0.17c-0.05-0.07-0.09-0.15-0.12-0.24c-0.02-0.09-0.03-0.18-0.02-0.27c0.01-0.08,0.04-0.17,0.08-0.25
			c1.06-1.83,2.2-4.07,3.35-5.79c0.05-0.08,0.11-0.15,0.17-0.2c0.07-0.05,0.15-0.09,0.24-0.12c0.08-0.02,0.17-0.03,0.26-0.02
			c0.08,0.01,0.16,0.03,0.23,0.07c1.54,0.94,3.18,1.84,4.75,2.74c0.21,0.12,0.46,0.17,0.7,0.14c0.23-0.03,0.46-0.13,0.64-0.3
			c0.51-0.49,1.05-0.96,1.63-1.39c0.57-0.43,1.16-0.82,1.78-1.18c0.61-0.35,1.24-0.67,1.89-0.94
			C419.5,152.61,420.16,152.37,420.83,152.18L420.83,152.18z M420.58,151.22l0.02-0.01c0.03-0.01,0.06-0.02,0.07-0.05
			c0.02-0.02,0.03-0.05,0.03-0.08v-5.46c0-0.46,0.19-0.87,0.49-1.18c0.16-0.15,0.34-0.28,0.54-0.36c0.2-0.08,0.41-0.13,0.63-0.13
			h6.69c0.22,0,0.44,0.05,0.64,0.13c0.2,0.08,0.39,0.21,0.54,0.36c0.15,0.15,0.28,0.34,0.36,0.54c0.08,0.2,0.13,0.41,0.13,0.63v5.46
			c0,0.03,0.01,0.06,0.03,0.08c0.02,0.02,0.04,0.04,0.07,0.05c0.72,0.21,1.43,0.46,2.12,0.75c0.69,0.29,1.36,0.63,2.01,1
			c0.65,0.37,1.27,0.79,1.87,1.24c0.6,0.45,1.17,0.94,1.71,1.46l0.01,0.01c0.02,0.02,0.05,0.03,0.07,0.04c0.03,0,0.06,0,0.08-0.02
			l4.38-2.53l0,0l0.35-0.2c0.19-0.11,0.4-0.18,0.61-0.2c0.22-0.03,0.44-0.01,0.65,0.04c0.21,0.06,0.41,0.15,0.58,0.29
			c0.04,0.03,0.08,0.06,0.11,0.09l0.07-0.04c1.19,2.06,2.48,4.16,3.6,6.24c0.11,0.19,0.17,0.4,0.2,0.6
			c0.03,0.22,0.01,0.44-0.04,0.65c-0.06,0.21-0.15,0.41-0.29,0.58c-0.13,0.17-0.29,0.31-0.48,0.43l-4.72,2.72
			c-0.03,0.01-0.05,0.04-0.06,0.06c-0.01,0.03-0.02,0.06-0.01,0.09c0.09,0.35,0.17,0.72,0.24,1.09c0.07,0.38,0.13,0.75,0.17,1.11
			c0.04,0.36,0.08,0.74,0.1,1.12c0.02,0.39,0.04,0.76,0.04,1.13c0,0.37-0.01,0.74-0.04,1.13c-0.02,0.38-0.06,0.76-0.1,1.12
			c-0.04,0.36-0.1,0.74-0.17,1.12c-0.04,0.2-0.08,0.4-0.12,0.59l0.01,0l-0.12,0.5c-0.01,0.03,0,0.06,0.01,0.09
			c0.01,0.03,0.03,0.05,0.05,0.06l4.73,2.73c0.19,0.11,0.36,0.26,0.49,0.43c0.13,0.18,0.23,0.37,0.29,0.58
			c0.06,0.21,0.07,0.43,0.04,0.65c-0.01,0.05-0.02,0.11-0.03,0.16l0.06,0.04c-1.18,2.05-2.36,4.24-3.6,6.23
			c-0.11,0.19-0.26,0.35-0.42,0.47c-0.18,0.13-0.37,0.23-0.58,0.29c-0.21,0.06-0.43,0.07-0.65,0.04c-0.21-0.03-0.42-0.1-0.61-0.21
			l-4.72-2.73c-0.03-0.02-0.06-0.02-0.08-0.02c-0.03,0-0.06,0.01-0.08,0.04c-0.54,0.52-1.12,1.01-1.72,1.46
			c-0.6,0.45-1.22,0.87-1.88,1.24c-0.64,0.37-1.31,0.71-2,1c-0.67,0.29-1.38,0.54-2.1,0.75l-0.02,0.01
			c-0.03,0.01-0.06,0.02-0.07,0.05c-0.02,0.02-0.03,0.05-0.03,0.08v5.46c0,0.22-0.05,0.44-0.13,0.63c-0.09,0.2-0.21,0.39-0.36,0.54
			c-0.15,0.15-0.34,0.28-0.54,0.36c-0.2,0.08-0.41,0.13-0.64,0.13h-6.69c-0.22,0-0.44-0.05-0.63-0.13c-0.2-0.09-0.39-0.21-0.54-0.36
			c-0.15-0.15-0.28-0.34-0.36-0.54c-0.08-0.2-0.13-0.41-0.13-0.63v-5.46c0-0.03-0.01-0.06-0.03-0.08c-0.02-0.02-0.04-0.04-0.07-0.05
			c-0.72-0.21-1.43-0.46-2.12-0.75c-0.69-0.29-1.36-0.63-2.01-1c-0.65-0.38-1.28-0.79-1.88-1.24c-0.6-0.45-1.17-0.94-1.71-1.46
			c-0.02-0.02-0.05-0.03-0.08-0.04c-0.03,0-0.06,0-0.08,0.01c-1.55,0.9-3.17,1.91-4.75,2.74c-0.19,0.11-0.39,0.17-0.6,0.2
			c-0.22,0.03-0.44,0.01-0.65-0.04c-0.21-0.06-0.41-0.15-0.58-0.29c-0.04-0.03-0.08-0.06-0.11-0.09l-0.07,0.04l-3.6-6.23
			c-0.11-0.19-0.18-0.4-0.21-0.62c-0.03-0.22-0.01-0.44,0.04-0.65c0.06-0.21,0.15-0.41,0.29-0.58l0.05-0.07l-0.06-0.08
			c1.72-0.99,3.48-2.08,5.21-3.01c0.02-0.01,0.05-0.04,0.06-0.06c0.01-0.03,0.02-0.06,0.01-0.09c-0.09-0.35-0.17-0.72-0.24-1.1
			c-0.07-0.38-0.13-0.75-0.17-1.11c-0.04-0.36-0.08-0.74-0.1-1.12c-0.02-0.39-0.03-0.76-0.03-1.13c0-0.37,0.01-0.75,0.03-1.13
			c0.02-0.38,0.06-0.76,0.1-1.12c0.04-0.36,0.1-0.74,0.17-1.11c0.04-0.22,0.08-0.44,0.13-0.65l-0.01,0l0.11-0.44
			c0.01-0.03,0-0.06-0.01-0.08c-0.01-0.02-0.03-0.05-0.05-0.06c-1.55-0.9-3.2-1.79-4.72-2.73c-0.19-0.11-0.36-0.26-0.49-0.43
			c-0.13-0.18-0.23-0.37-0.29-0.58c-0.06-0.21-0.07-0.43-0.04-0.65c0.03-0.21,0.1-0.42,0.21-0.62c1.1-1.91,2.2-3.93,3.35-5.79
			c0.11-0.19,0.26-0.36,0.43-0.49c0.18-0.13,0.38-0.23,0.58-0.29c0.2-0.05,0.42-0.07,0.63-0.05c0.21,0.02,0.41,0.09,0.6,0.19
			c1.59,0.92,3.18,1.84,4.77,2.75c0.02,0.01,0.05,0.02,0.08,0.02c0.03,0,0.05-0.02,0.07-0.03c0.54-0.52,1.12-1.01,1.71-1.46
			c0.6-0.45,1.23-0.87,1.88-1.25c0.64-0.37,1.31-0.7,2-1C419.15,151.68,419.85,151.43,420.58,151.22z"/>
		<path class="st113" d="M227.09,44.81c0-0.43-0.35-0.78-0.78-0.78c-0.43,0-0.78,0.35-0.78,0.78v1.83h-1.83
			c-0.43,0-0.78,0.35-0.78,0.78c0,0.43,0.35,0.78,0.78,0.78h1.83v1.83c0,0.43,0.35,0.78,0.78,0.78c0.43,0,0.78-0.35,0.78-0.78v-1.83
			h1.83c0.43,0,0.78-0.35,0.78-0.78c0-0.43-0.35-0.78-0.78-0.78h-1.83V44.81z"/>
		<path class="st113" d="M17.95,123.98c0-0.43-0.35-0.78-0.78-0.78c-0.43,0-0.78,0.35-0.78,0.78v1.83h-1.83
			c-0.43,0-0.78,0.35-0.78,0.78c0,0.43,0.35,0.78,0.78,0.78h1.83v1.83c0,0.43,0.35,0.78,0.78,0.78c0.43,0,0.78-0.35,0.78-0.78v-1.83
			h1.83c0.43,0,0.78-0.35,0.78-0.78c0-0.43-0.35-0.78-0.78-0.78h-1.83V123.98z"/>
		<path class="st113" d="M363.66,193.25c0-0.43-0.35-0.78-0.78-0.78c-0.43,0-0.78,0.35-0.78,0.78v1.83h-1.83
			c-0.43,0-0.78,0.35-0.78,0.78c0,0.43,0.35,0.78,0.78,0.78h1.83v1.83c0,0.43,0.35,0.78,0.78,0.78c0.43,0,0.78-0.35,0.78-0.78v-1.83
			h1.83c0.43,0,0.78-0.35,0.78-0.78c0-0.43-0.35-0.78-0.78-0.78h-1.83V193.25z"/>
		<path class="st113" d="M48.81,31.19c0-0.43-0.35-0.78-0.78-0.78c-0.43,0-0.78,0.35-0.78,0.78v1.83h-1.83
			c-0.43,0-0.78,0.35-0.78,0.78c0,0.43,0.35,0.78,0.78,0.78h1.83v1.83c0,0.43,0.35,0.78,0.78,0.78c0.43,0,0.78-0.35,0.78-0.78v-1.83
			h1.83c0.43,0,0.78-0.35,0.78-0.78c0-0.43-0.35-0.78-0.78-0.78h-1.83V31.19z"/>
		<path class="st7" d="M338.6,145.16c0-0.43-0.35-0.78-0.78-0.78s-0.78,0.35-0.78,0.78v1.83h-1.83c-0.43,0-0.78,0.35-0.78,0.78
			c0,0.43,0.35,0.78,0.78,0.78h1.83v1.83c0,0.43,0.35,0.78,0.78,0.78s0.78-0.35,0.78-0.78v-1.83h1.83c0.43,0,0.78-0.35,0.78-0.78
			c0-0.43-0.35-0.78-0.78-0.78h-1.83V145.16z"/>
		<path class="st7" d="M418.42,249.33c0-0.43-0.35-0.78-0.78-0.78c-0.43,0-0.78,0.35-0.78,0.78v1.83h-1.83
			c-0.43,0-0.78,0.35-0.78,0.78c0,0.43,0.35,0.78,0.78,0.78h1.83v1.83c0,0.43,0.35,0.78,0.78,0.78c0.43,0,0.78-0.35,0.78-0.78v-1.83
			h1.83c0.43,0,0.78-0.35,0.78-0.78c0-0.43-0.35-0.78-0.78-0.78h-1.83V249.33z"/>
		<path class="st7" d="M219.84,130.31c0-0.43-0.35-0.78-0.78-0.78c-0.43,0-0.78,0.35-0.78,0.78v1.83h-1.83
			c-0.43,0-0.78,0.35-0.78,0.78c0,0.43,0.35,0.78,0.78,0.78h1.83v1.83c0,0.43,0.35,0.78,0.78,0.78c0.43,0,0.78-0.35,0.78-0.78v-1.83
			h1.83c0.43,0,0.78-0.35,0.78-0.78c0-0.43-0.35-0.78-0.78-0.78h-1.83V130.31z"/>
		<path class="st7" d="M191.56,249.98c0-0.43-0.35-0.78-0.78-0.78c-0.43,0-0.78,0.35-0.78,0.78v1.83h-1.83
			c-0.43,0-0.78,0.35-0.78,0.78s0.35,0.78,0.78,0.78h1.83v1.83c0,0.43,0.35,0.78,0.78,0.78c0.43,0,0.78-0.35,0.78-0.78v-1.83h1.83
			c0.43,0,0.78-0.35,0.78-0.78s-0.35-0.78-0.78-0.78h-1.83V249.98z"/>
		<path class="st7" d="M23.89,226.9c0-0.43-0.35-0.78-0.78-0.78c-0.43,0-0.78,0.35-0.78,0.78v1.83h-1.83
			c-0.43,0-0.78,0.35-0.78,0.78c0,0.43,0.35,0.78,0.78,0.78h1.83v1.83c0,0.43,0.35,0.78,0.78,0.78c0.43,0,0.78-0.35,0.78-0.78v-1.83
			h1.83c0.43,0,0.78-0.35,0.78-0.78c0-0.43-0.35-0.78-0.78-0.78h-1.83V226.9z"/>
		<path class="st7" d="M135.56,90.42c0-0.43-0.35-0.78-0.78-0.78c-0.43,0-0.78,0.35-0.78,0.78v1.83h-1.83
			c-0.43,0-0.78,0.35-0.78,0.78c0,0.43,0.35,0.78,0.78,0.78h1.83v1.83c0,0.43,0.35,0.78,0.78,0.78c0.43,0,0.78-0.35,0.78-0.78v-1.83
			h1.83c0.43,0,0.78-0.35,0.78-0.78c0-0.43-0.35-0.78-0.78-0.78h-1.83V90.42z"/>
		<path class="st7" d="M102,11.04c0-0.43-0.35-0.78-0.78-0.78c-0.43,0-0.78,0.35-0.78,0.78v1.83h-1.83c-0.43,0-0.78,0.35-0.78,0.78
			c0,0.43,0.35,0.78,0.78,0.78h1.83v1.83c0,0.43,0.35,0.78,0.78,0.78c0.43,0,0.78-0.35,0.78-0.78v-1.83h1.83
			c0.43,0,0.78-0.35,0.78-0.78c0-0.43-0.35-0.78-0.78-0.78H102V11.04z"/>
		<path class="st7" d="M191.56,24.34c0-0.43-0.35-0.78-0.78-0.78c-0.43,0-0.78,0.35-0.78,0.78v1.83h-1.83
			c-0.43,0-0.78,0.35-0.78,0.78c0,0.43,0.35,0.78,0.78,0.78h1.83v1.83c0,0.43,0.35,0.78,0.78,0.78c0.43,0,0.78-0.35,0.78-0.78v-1.83
			h1.83c0.43,0,0.78-0.35,0.78-0.78c0-0.43-0.35-0.78-0.78-0.78h-1.83V24.34z"/>
	</g>
	<path class="st157" d="M244.05,175.29h-21.74c-0.77,0-1.41-0.63-1.41-1.41V146.4c0-0.77,0.63-1.41,1.41-1.41h21.74
		c0.77,0,1.41,0.63,1.41,1.41v27.49C245.45,174.66,244.82,175.29,244.05,175.29z"/>
	<path class="st7" d="M221.95,175.29h-18.29c-0.65,0-1.18-0.53-1.18-1.18v-27.93c0-0.65,0.53-1.18,1.18-1.18h18.29
		c0.65,0,1.18,0.53,1.18,1.18v27.93C223.14,174.76,222.6,175.29,221.95,175.29z"/>
	<path class="st7" d="M248.65,156.5h-22.32c0-2.97-3.2-3.3-3.2-3.3h22.32C245.45,153.2,248.65,153.53,248.65,156.5z"/>
	<path class="st75" d="M245.45,170.41h-22.89c-0.51,0-0.92,0.42-0.92,0.93v6.01c0,0.51,0.41,0.92,0.92,0.92h22.89
		c0.51,0,0.93-0.42,0.93-0.92v-6.01C246.38,170.83,245.96,170.41,245.45,170.41z"/>
	<path class="st97" d="M223.1,170.41h-3.76h0h0h0c-0.08,0-1,0.04-1.52,1.16c-0.54,1.18-0.48,2.35-2.08,2.35c-1.6,0-3.03,0-3.03,0
		s-1.43,0-3.03,0c-1.6,0-1.54-1.18-2.08-2.35c-0.51-1.12-1.43-1.16-1.52-1.16h0h0l0,0h-3.57c-0.51,0-0.92,0.42-0.92,0.93v6.01
		c0,0.51,0.42,0.92,0.92,0.92h20.58c0.51,0,0.92-0.42,0.92-0.92v-6.01C224.02,170.83,223.61,170.41,223.1,170.41z"/>
	<path class="st7" d="M248.65,166.88h-22.32c0-2.97-3.2-3.3-3.2-3.3h22.32C245.45,163.58,248.65,163.91,248.65,166.88z"/>
	<path class="st158" d="M199.78,161.93h20.43c0-2.97,2.93-3.3,2.93-3.3h-20.43C202.71,158.63,199.78,158.96,199.78,161.93z"/>
	<path class="st157" d="M220.74,148.28h-16.91c-0.28,0-0.51,0.23-0.51,0.51l0,0c0,0.28,0.23,0.51,0.51,0.51h16.91
		c0.28,0,0.51-0.23,0.51-0.51l0,0C221.25,148.51,221.02,148.28,220.74,148.28z"/>
	<path class="st157" d="M220.74,153.89h-16.91c-0.28,0-0.51,0.23-0.51,0.51l0,0c0,0.28,0.23,0.51,0.51,0.51h16.91
		c0.28,0,0.51-0.23,0.51-0.51l0,0C221.25,154.12,221.02,153.89,220.74,153.89z"/>
	<path class="st157" d="M220.74,165.6h-16.91c-0.28,0-0.51,0.23-0.51,0.51l0,0c0,0.28,0.23,0.51,0.51,0.51h16.91
		c0.28,0,0.51-0.23,0.51-0.51l0,0C221.25,165.83,221.02,165.6,220.74,165.6z"/>
	<path class="st158" d="M243.01,147.87H226.1c-0.28,0-0.51,0.23-0.51,0.51l0,0c0,0.28,0.23,0.51,0.51,0.51h16.91
		c0.28,0,0.51-0.23,0.51-0.51l0,0C243.51,148.1,243.29,147.87,243.01,147.87z"/>
	<path class="st158" d="M243.01,160.5H226.1c-0.28,0-0.51,0.23-0.51,0.51l0,0c0,0.28,0.23,0.51,0.51,0.51h16.91
		c0.28,0,0.51-0.23,0.51-0.51l0,0C243.51,160.73,243.29,160.5,243.01,160.5z"/>
	<path class="st158" d="M243.01,168.58H226.1c-0.28,0-0.51,0.23-0.51,0.51l0,0c0,0.28,0.23,0.51,0.51,0.51h16.91
		c0.28,0,0.51-0.23,0.51-0.51l0,0C243.51,168.81,243.29,168.58,243.01,168.58z"/>
</g>
</svg>
