<?xml version="1.0" encoding="utf-8"?>
<!-- Generator: Adobe Illustrator 24.0.2, SVG Export Plug-In . SVG Version: 6.00 Build 0)  -->
<svg version="1.1" id="Layer_1" xmlns="http://www.w3.org/2000/svg" xmlns:xlink="http://www.w3.org/1999/xlink" x="0px" y="0px"
	 viewBox="0 0 450 300" style="enable-background:new 0 0 450 300;" xml:space="preserve">
<style type="text/css">
	.st0{fill-rule:evenodd;clip-rule:evenodd;fill:#E2E8F5;}
	.st1{fill-rule:evenodd;clip-rule:evenodd;fill:#BFCCE8;}
	.st2{fill-rule:evenodd;clip-rule:evenodd;fill:#90A9D5;}
	.st3{fill-rule:evenodd;clip-rule:evenodd;fill:#B6C7E6;}
	.st4{fill-rule:evenodd;clip-rule:evenodd;fill:#E6E4EB;}
	.st5{fill-rule:evenodd;clip-rule:evenodd;fill:#0F1630;stroke:#0E1632;stroke-width:0.1488;stroke-miterlimit:22.9256;}
	.st6{fill-rule:evenodd;clip-rule:evenodd;fill:#CEC9D0;}
	.st7{fill-rule:evenodd;clip-rule:evenodd;fill:#FFFFFF;}
	.st8{fill-rule:evenodd;clip-rule:evenodd;fill:#E8685B;}
	.st9{fill-rule:evenodd;clip-rule:evenodd;fill:#0F1630;}
	.st10{fill-rule:evenodd;clip-rule:evenodd;fill:#3D4155;}
	.st11{fill-rule:evenodd;clip-rule:evenodd;fill:#545A6C;}
	.st12{fill-rule:evenodd;clip-rule:evenodd;fill:#F4AD85;}
	.st13{fill-rule:evenodd;clip-rule:evenodd;fill:#ED9072;}
	.st14{fill-rule:evenodd;clip-rule:evenodd;fill:#0E1632;}
	.st15{fill-rule:evenodd;clip-rule:evenodd;fill:#010518;}
	.st16{fill-rule:evenodd;clip-rule:evenodd;fill:#05304B;}
	.st17{fill-rule:evenodd;clip-rule:evenodd;fill:#0076BD;}
	.st18{fill-rule:evenodd;clip-rule:evenodd;fill:#171C3A;}
	.st19{fill-rule:evenodd;clip-rule:evenodd;fill:#C9C4D1;}
	.st20{fill-rule:evenodd;clip-rule:evenodd;fill:#1C2344;}
	.st21{fill-rule:evenodd;clip-rule:evenodd;fill:#101937;}
	.st22{fill-rule:evenodd;clip-rule:evenodd;fill:#383D5D;}
	.st23{fill-rule:evenodd;clip-rule:evenodd;fill:#01020E;}
	.st24{fill-rule:evenodd;clip-rule:evenodd;fill:#E2E1E7;}
	.st25{fill-rule:evenodd;clip-rule:evenodd;fill:#B92F6D;}
	.st26{fill-rule:evenodd;clip-rule:evenodd;fill:#E74D91;}
	.st27{fill-rule:evenodd;clip-rule:evenodd;fill:#ACABBB;}
	.st28{fill-rule:evenodd;clip-rule:evenodd;fill:#DFF0F2;}
	.st29{fill-rule:evenodd;clip-rule:evenodd;fill:#004A82;}
	.st30{fill-rule:evenodd;clip-rule:evenodd;fill:#A8A6B5;}
	.st31{fill-rule:evenodd;clip-rule:evenodd;fill:#96929F;}
	.st32{fill-rule:evenodd;clip-rule:evenodd;fill:#F0EEF0;}
	.st33{fill-rule:evenodd;clip-rule:evenodd;fill:#D2CED6;}
	.st34{fill-rule:evenodd;clip-rule:evenodd;fill:#484E6A;}
	.st35{fill-rule:evenodd;clip-rule:evenodd;fill:#1A293D;}
	.st36{fill:#E4EBF7;}
	.st37{fill:#FFFFFF;}
	.st38{fill:#98B2D8;}
	.st39{fill:#B1C3E8;}
	.st40{fill:#B7CAE5;}
	.st41{fill:#97B3D1;}
	.st42{fill:#CED9EA;}
	.st43{fill:#B6C5DD;}
	.st44{fill:#5D7CA0;}
	.st45{fill:#799CBF;}
	.st46{fill:#F2F4F9;}
	.st47{fill:#C1CFE5;}
	.st48{fill:url(#SVGID_1_);}
	.st49{opacity:0.22;fill:#1F395E;}
	.st50{fill:url(#SVGID_2_);}
	.st51{fill:url(#SVGID_3_);}
	.st52{fill:#1F395E;}
	.st53{fill:url(#SVGID_4_);}
	.st54{fill:#3150BC;}
	.st55{fill:#FEB19E;}
	.st56{fill:#FF856A;}
	.st57{fill:url(#SVGID_5_);}
	.st58{fill:#FFFFFF;stroke:#0F22D3;stroke-width:1.1335;stroke-miterlimit:10;}
	.st59{opacity:0.6;fill:#9ABCED;}
	.st60{fill:#9ABCED;}
	.st61{fill:#C1C8D3;}
	.st62{fill:url(#SVGID_6_);}
	.st63{fill:url(#SVGID_7_);}
	.st64{fill:#4F7EB7;}
	.st65{opacity:0.71;fill:#7CA6D8;}
	.st66{fill:#EA9BA1;}
	.st67{opacity:0.5;}
	.st68{fill:#7CA6D8;}
	.st69{fill:#E83F54;}
	.st70{opacity:0.5;fill:#9ABCED;}
	.st71{fill-rule:evenodd;clip-rule:evenodd;fill:#E1E8F6;}
	.st72{fill-rule:evenodd;clip-rule:evenodd;fill:#C0CDEA;}
	.st73{fill-rule:evenodd;clip-rule:evenodd;fill:#00000F;}
	.st74{fill-rule:evenodd;clip-rule:evenodd;fill:#626687;}
	.st75{fill-rule:evenodd;clip-rule:evenodd;fill:#101537;}
	.st76{fill-rule:evenodd;clip-rule:evenodd;fill:#C7CAE0;}
	.st77{fill-rule:evenodd;clip-rule:evenodd;fill:#BEC4DC;}
	.st78{fill-rule:evenodd;clip-rule:evenodd;fill:#B5B9D1;}
	.st79{fill-rule:evenodd;clip-rule:evenodd;fill:#CCD3E5;}
	.st80{fill-rule:evenodd;clip-rule:evenodd;fill:#BABFD6;}
	.st81{fill-rule:evenodd;clip-rule:evenodd;fill:#B0B7CF;}
	.st82{fill-rule:evenodd;clip-rule:evenodd;fill:#B0B7CE;}
	.st83{fill-rule:evenodd;clip-rule:evenodd;fill:#DBE1F1;}
	.st84{fill-rule:evenodd;clip-rule:evenodd;fill:#D6DCEA;}
	.st85{fill-rule:evenodd;clip-rule:evenodd;fill:#C7CADE;}
	.st86{fill-rule:evenodd;clip-rule:evenodd;fill:#C7CADB;}
	.st87{fill-rule:evenodd;clip-rule:evenodd;fill:#BDC1D5;}
	.st88{fill-rule:evenodd;clip-rule:evenodd;fill:#B5BED8;}
	.st89{fill-rule:evenodd;clip-rule:evenodd;fill:#CED2E1;}
	.st90{fill-rule:evenodd;clip-rule:evenodd;fill:#B6B7CB;}
	.st91{fill-rule:evenodd;clip-rule:evenodd;fill:#AAAEC3;}
	.st92{fill-rule:evenodd;clip-rule:evenodd;fill:#EAEEF4;}
	.st93{fill-rule:evenodd;clip-rule:evenodd;fill:#EC6957;}
	.st94{fill-rule:evenodd;clip-rule:evenodd;fill:#D84743;}
	.st95{fill-rule:evenodd;clip-rule:evenodd;fill:#EE9073;}
	.st96{fill-rule:evenodd;clip-rule:evenodd;fill:#DBD7D7;}
	.st97{fill-rule:evenodd;clip-rule:evenodd;fill:#3B405F;}
	.st98{fill-rule:evenodd;clip-rule:evenodd;fill:#E27E67;}
	.st99{fill-rule:evenodd;clip-rule:evenodd;fill:#F5AC83;}
	.st100{fill-rule:evenodd;clip-rule:evenodd;fill:#F6F5F4;}
	.st101{fill-rule:evenodd;clip-rule:evenodd;fill:#080321;}
	.st102{fill-rule:evenodd;clip-rule:evenodd;fill:#DBE2F3;}
	.st103{fill-rule:evenodd;clip-rule:evenodd;fill:#EAEEF8;}
	.st104{fill-rule:evenodd;clip-rule:evenodd;fill:#003053;}
	.st105{fill-rule:evenodd;clip-rule:evenodd;fill:#1874BA;}
	.st106{fill-rule:evenodd;clip-rule:evenodd;fill:#B83470;}
	.st107{fill-rule:evenodd;clip-rule:evenodd;fill:#E13C83;}
	.st108{fill-rule:evenodd;clip-rule:evenodd;fill:#E94D90;}
	.st109{fill-rule:evenodd;clip-rule:evenodd;fill:#EE788F;}
	.st110{fill-rule:evenodd;clip-rule:evenodd;fill:#F5C8B4;}
	.st111{fill-rule:evenodd;clip-rule:evenodd;fill:#F4BCA3;}
	.st112{fill-rule:evenodd;clip-rule:evenodd;fill:#E0E7F5;}
	.st113{fill-rule:evenodd;clip-rule:evenodd;fill:#9EB1D8;}
	.st114{fill-rule:evenodd;clip-rule:evenodd;fill:#C8D2EB;}
	.st115{fill-rule:evenodd;clip-rule:evenodd;fill:#B0C0E3;}
	.st116{fill-rule:evenodd;clip-rule:evenodd;fill:#BCC9E7;}
	.st117{fill-rule:evenodd;clip-rule:evenodd;fill:#B3C4E5;}
	.st118{fill-rule:evenodd;clip-rule:evenodd;fill:#EAF1F2;}
	.st119{fill-rule:evenodd;clip-rule:evenodd;fill:#BFCCE9;}
	.st120{fill-rule:evenodd;clip-rule:evenodd;fill:#141A33;}
	.st121{fill-rule:evenodd;clip-rule:evenodd;fill:#0E173F;}
	.st122{fill-rule:evenodd;clip-rule:evenodd;fill:#030822;}
	.st123{fill-rule:evenodd;clip-rule:evenodd;fill:#E03C82;}
	.st124{fill-rule:evenodd;clip-rule:evenodd;fill:#B73470;}
	.st125{fill-rule:evenodd;clip-rule:evenodd;fill:#2C3049;}
	.st126{fill-rule:evenodd;clip-rule:evenodd;fill:#F4AB82;}
	.st127{fill-rule:evenodd;clip-rule:evenodd;fill:#ED8F73;}
	.st128{fill-rule:evenodd;clip-rule:evenodd;fill:#301814;}
	.st129{fill-rule:evenodd;clip-rule:evenodd;fill:#E84D8F;}
	.st130{fill-rule:evenodd;clip-rule:evenodd;fill:#E8695B;}
	.st131{fill-rule:evenodd;clip-rule:evenodd;fill:#00000F;stroke:#1A1A18;stroke-width:0.3835;stroke-miterlimit:22.9256;}
	.st132{fill-rule:evenodd;clip-rule:evenodd;fill:#E17E67;}
	.st133{fill-rule:evenodd;clip-rule:evenodd;fill:#EC7862;}
	.st134{fill-rule:evenodd;clip-rule:evenodd;fill:#563F2F;}
	.st135{fill-rule:evenodd;clip-rule:evenodd;fill:#A26E50;}
	.st136{fill-rule:evenodd;clip-rule:evenodd;fill:#EF8971;}
	.st137{fill-rule:evenodd;clip-rule:evenodd;fill:#F5F4F3;}
	.st138{fill-rule:evenodd;clip-rule:evenodd;fill:#CEC8CF;}
	.st139{fill-rule:evenodd;clip-rule:evenodd;fill:#E9574D;}
	.st140{fill-rule:evenodd;clip-rule:evenodd;fill:#D74743;}
	.st141{fill-rule:evenodd;clip-rule:evenodd;fill:#3F4154;}
	.st142{fill-rule:evenodd;clip-rule:evenodd;fill:#575A6D;}
	.st143{fill-rule:evenodd;clip-rule:evenodd;fill:#D6BCA3;}
	.st144{fill-rule:evenodd;clip-rule:evenodd;fill:#BE8762;}
	.st145{fill-rule:evenodd;clip-rule:evenodd;fill:#D39E80;}
	.st146{fill-rule:evenodd;clip-rule:evenodd;fill:#1C2B3F;}
	.st147{fill-rule:evenodd;clip-rule:evenodd;fill:#1874B9;}
	.st148{fill-rule:evenodd;clip-rule:evenodd;fill:#002846;}
	.st149{fill-rule:evenodd;clip-rule:evenodd;fill:#A7A5B5;}
	.st150{fill-rule:evenodd;clip-rule:evenodd;fill:#9794A1;}
	.st151{fill-rule:evenodd;clip-rule:evenodd;fill:#F2F1F3;}
	.st152{fill-rule:evenodd;clip-rule:evenodd;fill:#D3D0D7;}
	.st153{fill-rule:evenodd;clip-rule:evenodd;fill:#3B3A3A;}
	.st154{fill-rule:evenodd;clip-rule:evenodd;fill:#242525;}
	.st155{fill-rule:evenodd;clip-rule:evenodd;fill:#C7DDE0;}
	.st156{fill-rule:evenodd;clip-rule:evenodd;fill:#7A9196;}
	.st157{fill-rule:evenodd;clip-rule:evenodd;fill:#E3E0E7;}
	.st158{fill-rule:evenodd;clip-rule:evenodd;fill:#ADAAB9;}
	.st159{fill:#FF7D6C;}
	.st160{fill:#80739B;}
	.st161{fill:#65CBC2;}
	.st162{fill:#FDC97A;}
	.st163{fill:#F6931D;}
	.st164{fill:#C1B49A;}
	.st165{fill:#2DA9E3;stroke:#FFFFFF;stroke-width:0.3828;stroke-miterlimit:10;}
	.st166{opacity:0.39;}
	.st167{opacity:0.64;fill:#D0C3E8;}
	.st168{opacity:0.31;fill:#B29CDA;}
	.st169{opacity:0.24;}
	.st170{clip-path:url(#SVGID_9_);}
	.st171{fill:none;stroke:#FFFFFF;stroke-width:1.4326;stroke-miterlimit:10;}
	.st172{clip-path:url(#SVGID_11_);}
	.st173{clip-path:url(#SVGID_13_);}
	.st174{opacity:0.3;fill:#D0C3E8;}
	.st175{fill:#32B4C5;}
	.st176{fill:#4DCFE0;}
	.st177{fill:#60E2F3;}
	.st178{fill:#39306C;}
	.st179{fill:#4B4582;}
	.st180{opacity:0.74;}
	.st181{fill:#DF2D76;}
	.st182{fill:#F6327A;}
	.st183{fill:#221B4C;}
	.st184{fill:none;stroke:#4B4582;stroke-width:0.8791;stroke-linecap:round;stroke-linejoin:round;stroke-miterlimit:10;}
	.st185{fill:none;stroke:#4B4582;stroke-width:0.615;stroke-linecap:round;stroke-linejoin:round;stroke-miterlimit:10;}
	.st186{fill:none;stroke:#FFFFFF;stroke-width:1.4967;stroke-linecap:round;stroke-linejoin:round;stroke-miterlimit:10;}
	.st187{fill:#DC3178;}
	.st188{fill:#F3AD97;}
	.st189{fill:#FFB89E;}
	.st190{fill:none;stroke:#F6327A;stroke-width:0.9457;stroke-miterlimit:10;}
	.st191{fill:#47417F;}
	.st192{fill:#5E5895;}
	.st193{opacity:0.07;}
	.st194{fill:none;stroke:#4B4582;stroke-width:0.8988;stroke-linecap:round;stroke-linejoin:round;stroke-miterlimit:10;}
	.st195{fill:none;stroke:#4B4582;stroke-width:1.7976;stroke-linecap:round;stroke-linejoin:round;stroke-miterlimit:10;}
	.st196{fill:none;stroke:#4B4582;stroke-width:1.2564;stroke-linecap:round;stroke-linejoin:round;stroke-miterlimit:10;}
</style>
<g>
	<g>
		<g class="st166">
			<path class="st167" d="M388.68,37.89c0.26-14.83-8.97-28.24-22.97-33.14c-18.99-6.64-42.04-10.36-61.57,17.21
				c-25.57,36.08-61.39,29.29-79.76,21.57c-30.68-12.89-71.47-20.15-84.76,15.69c-13.29,35.84,7.52,65.99-56.82,82.33
				c-64.33,16.34-52.16,89.3,11.34,97.84s80.88-26.06,138.02-17.56c44.72,6.66,52.36,60.47,98.81,76.05
				c26.24,8.8,53.41-10.8,53.89-38.47L388.68,37.89z"/>
			<path class="st168" d="M408.93,73.15c-0.75-14.21-14.03-24.36-27.94-21.38c-24.69,5.29-58.58,4.89-76.6-15.93
				c-27.57-31.86-65.48-51.03-87.88-0.63c-22.4,50.4-15.12,68.43-84.87,60.14c-69.89-8.3-89.84,57.88-43.17,86.53
				c47.93,29.41,60.84,67.48,139.94,74.8c48.57,4.49,141.63-21.34,167.17-62.3C411.21,169.33,410.87,109.83,408.93,73.15z"/>
		</g>
		<g class="st169">
			<g>
				<defs>
					<path id="SVGID_8_" d="M360.91,98.63c1.19,18.76-14.28,34.23-33.04,33.04c-15.47-0.98-28.03-13.53-29.01-29
						c-1.19-18.76,14.28-34.23,33.04-33.04C347.38,70.6,359.93,83.16,360.91,98.63z"/>
				</defs>
				<clipPath id="SVGID_1_">
					<use xlink:href="#SVGID_8_"  style="overflow:visible;"/>
				</clipPath>
				<g style="clip-path:url(#SVGID_1_);">
					<line class="st171" x1="284.92" y1="49.75" x2="183.12" y2="151.55"/>
					<line class="st171" x1="290.91" y1="49.75" x2="189.11" y2="151.55"/>
					<line class="st171" x1="296.9" y1="49.75" x2="195.11" y2="151.55"/>
					<line class="st171" x1="302.89" y1="49.75" x2="201.1" y2="151.55"/>
					<line class="st171" x1="308.89" y1="49.75" x2="207.09" y2="151.55"/>
					<line class="st171" x1="314.88" y1="49.75" x2="213.08" y2="151.55"/>
					<line class="st171" x1="320.87" y1="49.75" x2="219.07" y2="151.55"/>
					<line class="st171" x1="326.86" y1="49.75" x2="225.06" y2="151.55"/>
					<line class="st171" x1="332.85" y1="49.75" x2="231.05" y2="151.55"/>
					<line class="st171" x1="338.84" y1="49.75" x2="237.04" y2="151.55"/>
					<line class="st171" x1="344.83" y1="49.75" x2="243.04" y2="151.55"/>
					<line class="st171" x1="350.82" y1="49.75" x2="249.03" y2="151.55"/>
					<line class="st171" x1="356.82" y1="49.75" x2="255.02" y2="151.55"/>
					<line class="st171" x1="362.81" y1="49.75" x2="261.01" y2="151.55"/>
					<line class="st171" x1="368.8" y1="49.75" x2="267" y2="151.55"/>
					<line class="st171" x1="374.79" y1="49.75" x2="272.99" y2="151.55"/>
					<line class="st171" x1="380.78" y1="49.75" x2="278.98" y2="151.55"/>
					<line class="st171" x1="386.77" y1="49.75" x2="284.98" y2="151.55"/>
					<line class="st171" x1="392.76" y1="49.75" x2="290.97" y2="151.55"/>
					<line class="st171" x1="398.76" y1="49.75" x2="296.96" y2="151.55"/>
					<line class="st171" x1="404.75" y1="49.75" x2="302.95" y2="151.55"/>
					<line class="st171" x1="410.74" y1="49.75" x2="308.94" y2="151.55"/>
					<line class="st171" x1="416.73" y1="49.75" x2="314.93" y2="151.55"/>
					<line class="st171" x1="422.72" y1="49.75" x2="320.92" y2="151.55"/>
					<line class="st171" x1="428.71" y1="49.75" x2="326.91" y2="151.55"/>
					<line class="st171" x1="434.7" y1="49.75" x2="332.91" y2="151.55"/>
					<line class="st171" x1="440.69" y1="49.75" x2="338.9" y2="151.55"/>
					<line class="st171" x1="446.69" y1="49.75" x2="344.89" y2="151.55"/>
					<line class="st171" x1="452.68" y1="49.75" x2="350.88" y2="151.55"/>
					<line class="st171" x1="458.67" y1="49.75" x2="356.87" y2="151.55"/>
					<line class="st171" x1="464.66" y1="49.75" x2="362.86" y2="151.55"/>
					<line class="st171" x1="470.65" y1="49.75" x2="368.85" y2="151.55"/>
					<line class="st171" x1="476.64" y1="49.75" x2="374.85" y2="151.55"/>
				</g>
			</g>
			<g>
				<defs>
					
						<ellipse id="SVGID_10_" transform="matrix(0.7069 -0.7073 0.7073 0.7069 -31.6748 195.2821)" cx="219.81" cy="135.86" rx="19.45" ry="19.38"/>
				</defs>
				<clipPath id="SVGID_2_">
					<use xlink:href="#SVGID_10_"  style="overflow:visible;"/>
				</clipPath>
				<g style="clip-path:url(#SVGID_2_);">
					<line class="st171" x1="174.85" y1="84.97" x2="73.05" y2="186.76"/>
					<line class="st171" x1="180.84" y1="84.97" x2="79.04" y2="186.76"/>
					<line class="st171" x1="186.83" y1="84.97" x2="85.04" y2="186.76"/>
					<line class="st171" x1="192.82" y1="84.97" x2="91.03" y2="186.76"/>
					<line class="st171" x1="198.82" y1="84.97" x2="97.02" y2="186.76"/>
					<line class="st171" x1="204.81" y1="84.97" x2="103.01" y2="186.76"/>
					<line class="st171" x1="210.8" y1="84.97" x2="109" y2="186.76"/>
					<line class="st171" x1="216.79" y1="84.97" x2="114.99" y2="186.76"/>
					<line class="st171" x1="222.78" y1="84.97" x2="120.98" y2="186.76"/>
					<line class="st171" x1="228.77" y1="84.97" x2="126.98" y2="186.76"/>
					<line class="st171" x1="234.76" y1="84.97" x2="132.97" y2="186.76"/>
					<line class="st171" x1="240.76" y1="84.97" x2="138.96" y2="186.76"/>
					<line class="st171" x1="246.75" y1="84.97" x2="144.95" y2="186.76"/>
					<line class="st171" x1="252.74" y1="84.97" x2="150.94" y2="186.76"/>
					<line class="st171" x1="258.73" y1="84.97" x2="156.93" y2="186.76"/>
					<line class="st171" x1="264.72" y1="84.97" x2="162.92" y2="186.76"/>
					<line class="st171" x1="270.71" y1="84.97" x2="168.91" y2="186.76"/>
					<line class="st171" x1="276.7" y1="84.97" x2="174.91" y2="186.76"/>
					<line class="st171" x1="282.69" y1="84.97" x2="180.9" y2="186.76"/>
					<line class="st171" x1="288.69" y1="84.97" x2="186.89" y2="186.76"/>
					<line class="st171" x1="294.68" y1="84.97" x2="192.88" y2="186.76"/>
					<line class="st171" x1="300.67" y1="84.97" x2="198.87" y2="186.76"/>
					<line class="st171" x1="306.66" y1="84.97" x2="204.86" y2="186.76"/>
					<line class="st171" x1="312.65" y1="84.97" x2="210.85" y2="186.76"/>
					<line class="st171" x1="318.64" y1="84.97" x2="216.85" y2="186.76"/>
					<line class="st171" x1="324.63" y1="84.97" x2="222.84" y2="186.76"/>
					<line class="st171" x1="330.63" y1="84.97" x2="228.83" y2="186.76"/>
					<line class="st171" x1="336.62" y1="84.97" x2="234.82" y2="186.76"/>
					<line class="st171" x1="342.61" y1="84.97" x2="240.81" y2="186.76"/>
					<line class="st171" x1="348.6" y1="84.97" x2="246.8" y2="186.76"/>
					<line class="st171" x1="354.59" y1="84.97" x2="252.79" y2="186.76"/>
					<line class="st171" x1="360.58" y1="84.97" x2="258.79" y2="186.76"/>
					<line class="st171" x1="366.57" y1="84.97" x2="264.78" y2="186.76"/>
				</g>
			</g>
			<g>
				<defs>
					<path id="SVGID_12_" d="M348.18,238.14c1.22,12.28-9.02,22.52-21.3,21.3c-9.09-0.9-16.44-8.25-17.34-17.34
						c-1.22-12.28,9.02-22.52,21.3-21.3C339.93,221.7,347.28,229.05,348.18,238.14z"/>
				</defs>
				<clipPath id="SVGID_3_">
					<use xlink:href="#SVGID_12_"  style="overflow:visible;"/>
				</clipPath>
				<g style="clip-path:url(#SVGID_3_);">
					<line class="st171" x1="283.89" y1="189.22" x2="182.1" y2="291.02"/>
					<line class="st171" x1="289.89" y1="189.22" x2="188.09" y2="291.02"/>
					<line class="st171" x1="295.88" y1="189.22" x2="194.08" y2="291.02"/>
					<line class="st171" x1="301.87" y1="189.22" x2="200.07" y2="291.02"/>
					<line class="st171" x1="307.86" y1="189.22" x2="206.06" y2="291.02"/>
					<line class="st171" x1="313.85" y1="189.22" x2="212.05" y2="291.02"/>
					<line class="st171" x1="319.84" y1="189.22" x2="218.05" y2="291.02"/>
					<line class="st171" x1="325.83" y1="189.22" x2="224.04" y2="291.02"/>
					<line class="st171" x1="331.83" y1="189.22" x2="230.03" y2="291.02"/>
					<line class="st171" x1="337.82" y1="189.22" x2="236.02" y2="291.02"/>
					<line class="st171" x1="343.81" y1="189.22" x2="242.01" y2="291.02"/>
					<line class="st171" x1="349.8" y1="189.22" x2="248" y2="291.02"/>
					<line class="st171" x1="355.79" y1="189.22" x2="253.99" y2="291.02"/>
					<line class="st171" x1="361.78" y1="189.22" x2="259.99" y2="291.02"/>
					<line class="st171" x1="367.77" y1="189.22" x2="265.98" y2="291.02"/>
					<line class="st171" x1="373.77" y1="189.22" x2="271.97" y2="291.02"/>
					<line class="st171" x1="379.76" y1="189.22" x2="277.96" y2="291.02"/>
					<line class="st171" x1="385.75" y1="189.22" x2="283.95" y2="291.02"/>
					<line class="st171" x1="391.74" y1="189.22" x2="289.94" y2="291.02"/>
					<line class="st171" x1="397.73" y1="189.22" x2="295.93" y2="291.02"/>
					<line class="st171" x1="403.72" y1="189.22" x2="301.92" y2="291.02"/>
					<line class="st171" x1="409.71" y1="189.22" x2="307.92" y2="291.02"/>
					<line class="st171" x1="415.7" y1="189.22" x2="313.91" y2="291.02"/>
					<line class="st171" x1="421.7" y1="189.22" x2="319.9" y2="291.02"/>
					<line class="st171" x1="427.69" y1="189.22" x2="325.89" y2="291.02"/>
					<line class="st171" x1="433.68" y1="189.22" x2="331.88" y2="291.02"/>
					<line class="st171" x1="439.67" y1="189.22" x2="337.87" y2="291.02"/>
					<line class="st171" x1="445.66" y1="189.22" x2="343.86" y2="291.02"/>
					<line class="st171" x1="451.65" y1="189.22" x2="349.86" y2="291.02"/>
					<line class="st171" x1="457.64" y1="189.22" x2="355.85" y2="291.02"/>
					<line class="st171" x1="463.64" y1="189.22" x2="361.84" y2="291.02"/>
					<line class="st171" x1="469.63" y1="189.22" x2="367.83" y2="291.02"/>
					<line class="st171" x1="475.62" y1="189.22" x2="373.82" y2="291.02"/>
				</g>
			</g>
		</g>
		<path class="st174" d="M197.19,21.18c-0.7-1.57-2.27-2.67-4.1-2.67c-0.91,0-1.76,0.28-2.47,0.74c-0.72-1.52-2.26-2.57-4.05-2.57
			c-1.28,0-2.43,0.54-3.25,1.4c-1.37-1.58-3.4-2.58-5.65-2.58c-2.37,0-4.48,1.1-5.85,2.82c-0.82-0.99-2.05-1.64-3.44-1.64
			c-0.05,0-0.1,0.01-0.15,0.01c-1.66-3.4-5.14-5.74-9.18-5.74c-4.18,0-7.76,2.51-9.35,6.1c-0.54-0.23-1.14-0.37-1.77-0.37
			c-2.15,0-3.94,1.51-4.38,3.52c-0.73-0.52-1.62-0.83-2.58-0.83c-1.47,0-2.75,0.71-3.57,1.8H197.19z"/>
		<path class="st174" d="M317.31,39.04c0.59-1.32,1.91-2.24,3.44-2.24c0.77,0,1.48,0.23,2.07,0.63c0.61-1.27,1.89-2.16,3.4-2.16
			c1.08,0,2.04,0.46,2.73,1.18c1.15-1.33,2.85-2.17,4.75-2.17c1.99,0,3.76,0.93,4.92,2.37c0.69-0.83,1.72-1.38,2.89-1.38
			c0.04,0,0.08,0.01,0.12,0.01c1.4-2.85,4.32-4.82,7.71-4.82c3.51,0,6.52,2.11,7.85,5.12c0.46-0.2,0.96-0.31,1.49-0.31
			c1.8,0,3.31,1.27,3.68,2.96c0.61-0.43,1.36-0.69,2.17-0.69c1.23,0,2.31,0.6,3,1.51H317.31z"/>
	</g>
	<g>
		<g>
			<g>
				<g>
					<path class="st175" d="M322.4,169.29c-7.82-1.38-16.28-24.16-1.72-31.8c14.56-7.63,19.47-11.68,22.51-29.46
						s13.39-9.34,11.06,1.07c-2.33,10.41,13.21,9.11,16.45,14.08c5.62,8.6-6.81,9.98-13.93,14.87c-7.12,4.9,5.58,8.25,0.53,16.53
						C352.25,162.86,335.72,171.64,322.4,169.29z"/>
					<g>
						<g>
							<path class="st37" d="M321.6,169.07l2.77-4.88l2.83-4.84c1.89-3.22,3.87-6.4,5.87-9.55c2.02-3.15,4.07-6.28,6.23-9.33
								c2.15-3.06,4.35-6.09,6.77-8.95c-0.51,0.79-1.02,1.57-1.54,2.34l-1.52,2.35c-1.02,1.56-2.04,3.13-3.03,4.71l-6.01,9.44
								l-6.07,9.41C325.82,162.9,323.82,166.06,321.6,169.07z"/>
						</g>
						<g>
							<path class="st37" d="M329.67,156.16c3.08-1.14,6.23-1.97,9.41-2.73c3.18-0.72,6.38-1.37,9.65-1.7
								c-3.08,1.15-6.23,1.98-9.41,2.73C336.13,155.18,332.94,155.83,329.67,156.16z"/>
						</g>
						<g>
							<path class="st37" d="M337.41,144.04c-0.35-1.92-0.38-3.82-0.33-5.72c0.08-1.9,0.24-3.8,0.72-5.69
								c0.35,1.92,0.38,3.82,0.33,5.72C338.05,140.26,337.89,142.15,337.41,144.04z"/>
						</g>
					</g>
				</g>
				<g>
					<path class="st176" d="M324.84,180.71c0,0-4.39-8.56,3.1-14.05s10.8-12.54,6.53-19.02c-4.27-6.48-15.24-2.44-19.88-5.54
						c-4.64-3.1-2.64-9.73-6.45-16.9c-5.1-9.61-14.96-7.07-17.26-5.59c-2.31,1.48-6.4,6.02-1.04,14.74s1.41,11.78-2.85,18.62
						c-4.26,6.84,3.21,9.51,15.32,11.82c12.12,2.31,14.21,17.2,14.21,17.2L324.84,180.71"/>
					<g>
						<g>
							<path class="st37" d="M321.75,189.32c-0.08-2.84-0.35-5.65-0.74-8.45c-0.41-2.79-0.89-5.57-1.55-8.31
								c-0.64-2.74-1.38-5.46-2.22-8.15l-1.33-4.01l-1.54-3.93c-2.15-5.19-4.59-10.28-7.56-15.08c-2.83-4.88-6.27-9.37-9.73-13.88
								c0.97,1.04,1.92,2.08,2.87,3.14c0.93,1.07,1.95,2.08,2.79,3.23c1.71,2.27,3.51,4.49,5,6.92c3.22,4.71,5.74,9.87,7.95,15.13
								c2.18,5.28,3.77,10.8,4.83,16.4c0.54,2.8,0.9,5.63,1.17,8.46C321.87,183.63,322,186.48,321.75,189.32z"/>
						</g>
						<g>
							<path class="st37" d="M316.63,161.47c-1.58-1.48-3.34-2.66-5.17-3.68c-1.84-1-3.78-1.8-5.77-2.42
								c-1.01-0.27-2.01-0.59-3.05-0.76c-0.51-0.1-1.02-0.24-1.55-0.31c-0.52-0.06-1.04-0.14-1.57-0.22
								c-0.52-0.1-1.05-0.13-1.58-0.17l-1.59-0.15c-1.06-0.07-2.13-0.07-3.22-0.18c1.06-0.22,2.13-0.4,3.21-0.53
								c1.08-0.04,2.18-0.17,3.27-0.09c2.19,0.04,4.37,0.44,6.49,1.03c2.1,0.68,4.13,1.59,5.94,2.84
								C313.85,158.09,315.51,159.61,316.63,161.47z"/>
						</g>
						<g>
							<path class="st37" d="M318.48,166.8c-0.69-1.83-0.91-3.84-0.79-5.83c0.12-1.99,0.69-3.98,1.67-5.76
								c1-1.76,2.39-3.34,4.11-4.38c0.8-0.62,1.76-0.95,2.65-1.37c0.92-0.34,1.89-0.55,2.84-0.77c-0.84,0.52-1.72,0.9-2.53,1.4
								c-0.78,0.55-1.61,0.99-2.29,1.64c-1.47,1.14-2.64,2.59-3.52,4.18c-0.91,1.58-1.48,3.36-1.82,5.2
								C318.49,162.95,318.38,164.86,318.48,166.8z"/>
						</g>
					</g>
				</g>
				<g>
					<path class="st177" d="M351.08,176.29c13.88,3.51,14.22-8.59,5.71-15.33c-5.32-4.22,5.54-6.47,9.74-10.57
						c7.22-7.04-4.36-15.9-10.37-9.73c-6.01,6.17-9.73,8.07-14.11,8.6c-4.38,0.54-16.73,0.67-15.66,8.53
						c0.66,4.9-3.57,9.08-2.99,13.99C336.24,167.44,343.85,174.46,351.08,176.29z"/>
					<g>
						<g>
							<path class="st37" d="M323.4,171.78c5.05-4.39,10.5-8.28,16.11-11.92c5.64-3.58,11.48-6.92,17.72-9.38
								c-2.88,1.7-5.72,3.44-8.56,5.17c-2.82,1.77-5.64,3.53-8.43,5.33l-8.39,5.41C329.05,168.22,326.24,170,323.4,171.78z"/>
						</g>
						<g>
							<path class="st37" d="M337.66,161.86c-0.13-0.94-0.13-1.85-0.08-2.76c0.04-0.91,0.16-1.81,0.29-2.7
								c0.14-0.89,0.34-1.78,0.58-2.65c0.24-0.88,0.53-1.74,0.95-2.59c0.13,0.94,0.13,1.85,0.08,2.76c-0.05,0.91-0.14,1.81-0.29,2.7
								c-0.16,0.89-0.33,1.78-0.58,2.65C338.37,160.14,338.08,161.01,337.66,161.86z"/>
						</g>
						<g>
							<path class="st37" d="M333.86,164.39c1.64-0.27,3.29-0.41,4.93-0.51c1.64-0.1,3.29-0.13,4.93-0.13
								c1.64,0.02,3.29,0.05,4.93,0.16c1.64,0.1,3.28,0.25,4.93,0.54c-1.64,0.27-3.29,0.42-4.93,0.51c-1.64,0.1-3.29,0.13-4.93,0.13
								c-1.64-0.02-3.29-0.05-4.93-0.16C337.15,164.82,335.5,164.67,333.86,164.39z"/>
						</g>
					</g>
				</g>
			</g>
			<g>
				<polygon class="st178" points="338.18,194.39 317.87,194.39 313.14,174.08 342.91,174.08 				"/>
				<rect x="309.96" y="168.91" class="st179" width="36.13" height="8.17"/>
			</g>
		</g>
		<g>
			<g class="st180">
				<path class="st37" d="M139.16,171.43c1.45-3.58,4.92-4.67,6.62-7.9c3.05-5.79-2.08-7.28-2.69-11.13
					c-0.81-5.12,2.79-4.66,4.64-7.78c2.18-3.67-1.51-8.01,0.75-11.49c5.63-8.66,14.8,0.85,20.77,2.85
					c3.66,1.23,9.13,1.74,12.01-0.59c3.8-3.07,7.59-10.19,3.57-14.3c-5.67-5.79-3.59-8.76,2.54-10.23c2.72-0.65,3.96-2.72,0.95-5.08
					c4.58,6.62-10.7,0.59-13.42,5.08c-1.89,3.12,0.44,4.96,1.1,7.36c1.68,6.14-2.54,11.42-11.33,5.27
					c-5.06-3.53-4.63-9.83-9.99-11.43c-5.01-1.5-10.84,2.99-12.68,9.02c-1.82,5.96-3.99,9.02-10.42,8.34
					c-7.63-0.81-13.52,3.92-10.11,10.76c3.03,6.06,11.41,2.62,15.66,6.09c4.72,3.85,3.25,9.16-2.86,14.14
					c-1.9,1.55-4.81,3.85-4.06,6.49c0.49,1.71,3.53,4.42,5.5,4.49L139.16,171.43z"/>
			</g>
			<path class="st181" d="M150.46,173.82h-1.63v-2.21c0-0.94-0.76-1.7-1.7-1.7h-19.32c-0.94,0-1.7,0.76-1.7,1.7v13.51
				c0,5.12,4.15,9.26,9.26,9.26h4.2c4.06,0,7.51-2.62,8.76-6.26h2.14c1.63,0,2.96-1.32,2.96-2.96v-8.39
				C153.42,175.14,152.09,173.82,150.46,173.82z M151.53,185.17c0,0.59-0.48,1.07-1.07,1.07h-1.7c0.04-0.37,0.07-0.73,0.07-1.11
				v-9.41h1.63c0.59,0,1.07,0.48,1.07,1.07V185.17z"/>
			<path class="st182" d="M146.35,174.71c0-1.68-0.35-3.29-0.98-4.8h-17.56c-0.94,0-1.7,0.76-1.7,1.7v13.51
				c0,1.64,0.43,3.17,1.17,4.5c0.27,0.01,0.53,0.03,0.8,0.03C138.17,189.66,146.35,182.97,146.35,174.71z"/>
		</g>
		<g>
			<path class="st178" d="M353.2,214.74H108.52c-2.62,0-4.74-2.12-4.74-4.74l0,0c0-2.62,2.12-4.74,4.74-4.74H353.2
				c2.62,0,4.74,2.12,4.74,4.74l0,0C357.94,212.62,355.82,214.74,353.2,214.74z"/>
			<path class="st183" d="M359.2,207.76H102.52c-3.69,0-6.69-2.99-6.69-6.69l0,0c0-3.69,2.99-6.69,6.69-6.69H359.2
				c3.69,0,6.69,2.99,6.69,6.69l0,0C365.89,204.76,362.89,207.76,359.2,207.76z"/>
		</g>
		<g>
			<circle class="st179" cx="317.66" cy="67.1" r="17.36"/>
			<circle class="st37" cx="317.66" cy="67.1" r="13.54"/>
			<g>
				<line class="st184" x1="317.66" y1="67.1" x2="317.66" y2="58.95"/>
				<line class="st184" x1="317.66" y1="67.1" x2="322.64" y2="72.07"/>
			</g>
			<g>
				<g>
					<g>
						<line class="st185" x1="317.66" y1="79.1" x2="317.66" y2="77.5"/>
						<line class="st185" x1="323.67" y1="77.5" x2="322.86" y2="76.1"/>
						<line class="st185" x1="328.06" y1="73.1" x2="326.67" y2="72.3"/>
						<line class="st185" x1="329.68" y1="67.1" x2="328.06" y2="67.1"/>
						<line class="st185" x1="328.06" y1="61.09" x2="326.68" y2="61.9"/>
						<line class="st185" x1="323.67" y1="56.7" x2="322.86" y2="58.09"/>
						<line class="st185" x1="317.66" y1="56.7" x2="317.66" y2="55.08"/>
						<line class="st185" x1="312.46" y1="58.09" x2="311.66" y2="56.7"/>
						<line class="st185" x1="308.65" y1="61.9" x2="307.27" y2="61.09"/>
						<line class="st185" x1="307.27" y1="67.1" x2="305.66" y2="67.1"/>
						<line class="st185" x1="308.66" y1="72.3" x2="307.27" y2="73.1"/>
						<line class="st185" x1="312.46" y1="76.1" x2="311.66" y2="77.5"/>
					</g>
				</g>
			</g>
			<circle class="st179" cx="317.66" cy="67.1" r="0.79"/>
		</g>
		<g>
			<path class="st182" d="M191.86,48.42c-7.39-7.39-19.41-7.31-26.7,0.24c-6.69,6.93-6.98,18.03-0.64,25.28
				c6.16,7.04,16.2,8.28,23.74,3.74c0.67-0.4,1.47-0.49,2.22-0.27l4.73,1.41c0.36,0.11,0.7-0.23,0.59-0.59l-1.41-4.73
				c-0.22-0.75-0.13-1.56,0.27-2.23C199,64.08,198.06,54.62,191.86,48.42z"/>
			<g>
				<line class="st186" x1="168.05" y1="53.46" x2="189.25" y2="53.46"/>
				<line class="st186" x1="184.17" y1="58.92" x2="189.25" y2="58.92"/>
				<line class="st186" x1="168.05" y1="58.92" x2="179.11" y2="58.92"/>
				<line class="st186" x1="177.74" y1="64.37" x2="189.25" y2="64.37"/>
				<line class="st186" x1="168.05" y1="64.37" x2="173.58" y2="64.37"/>
				<line class="st186" x1="184.16" y1="69.83" x2="189.25" y2="69.83"/>
				<line class="st186" x1="168.05" y1="69.83" x2="178.86" y2="69.83"/>
			</g>
		</g>
		<g>
			<g>
				<path class="st183" d="M231,57.29c0,0-1.89-8.35,6.15-15.53c8.04-7.17,20.46-6.52,27.27-2.78c8.83,4.85,17.49,17.67,9.57,36
					c-7.92,18.32,28.37,10.76,16.2,35.58c-12.18,24.83-33.22,7.68-40.78,17.97c-7.57,10.28-33.76-16.68-11.38-35.53
					C260.39,74.16,232.69,74.23,231,57.29z"/>
				<path class="st187" d="M228.95,111.99c-9.18,3.91-16.79,27.19-17.5,76.84h19.79C231.25,188.82,243.27,105.88,228.95,111.99z"/>
				<path class="st182" d="M253.51,104.59c10.85-1.07,28.55,0.73,34.91,7.75c1.4,1.55,1.41,4.45,0.66,8.47
					c-2.66,14.19-14.79,42.26-8.34,73.58h-56.51c0,0,5.36-24.48,2.36-32.2c-3.42-8.83-6.39-16.81-3.02-24.19
					c7.68-16.79,0.8-23.75,5.67-26.17C235.93,108.48,244.32,105.49,253.51,104.59z"/>
				<path class="st181" d="M276.83,146.15c-2.36,13.71-18.24,15.41-26.2,12.73c0,0,11.58,7.01,19.94,3.07c0,0,2.13,6.7-1.05,27.76
					h10.39c0,0,0-0.04-0.01-0.11c-1.64-11.02-1.13-21.56,0.31-31.14c0.27-2.43,0.63-4.63,1.11-6.41c0.01-0.02,0.01-0.04,0.02-0.06
					c1.32-6.72,2.96-12.86,4.44-18.22c0.63-3.63,0.87-6.82,0.87-10.81C286.64,122.98,279.19,132.44,276.83,146.15z"/>
				<path class="st188" d="M277.42,175.58c0,0-9.87,12.12-14.64,8.84c-6.32-4.35-11.52-4.27-15.7-1.77
					c-4.33,2.59-5.99,7.07-5.99,7.07h33.88l9.86-8.53L277.42,175.58z"/>
				<path class="st182" d="M288.78,112.84c0,0,8.71,22.75,16.18,41.35c6.03,15.01-30.33,35.47-30.33,35.47l-6-8.05l20.94-23.21
					l-12.81-27c0,0-7.42-14.73,3.85-19.95C286.88,108.55,288.78,112.84,288.78,112.84z"/>
				<path class="st188" d="M260.94,82.43c0,0-1.37,17.25,2.77,21.75c5.32,5.79-4.02,18.28-18.05,27.74c0,0-7.84-8.71-1.69-22.89
					c6.15-14.19,0.19-22.2,0.19-22.2L260.94,82.43z"/>
				<path class="st189" d="M263.7,74.98c0,11.82-8.33,21.39-15.36,21.39s-15.82-7.86-17-22.4c-0.96-11.78,5.39-20.38,14.99-20.38
					C255.92,53.59,263.7,63.17,263.7,74.98z"/>
				<path class="st183" d="M234.39,50.82c-0.99,0.57-3.13,1.96-5.62,3.62c-2.72,1.81-5.61,4.94-6.61,8.37
					c-1.71,5.89,2.62,13.34,11.24,10.71c8.62-2.63,12.73-16.46,19.73-8.47c8.69,9.93,11.84,4.4,11.84,4.4s-1.74-12.36-10.55-17.93
					C249.7,48.54,242.59,46.09,234.39,50.82z"/>
				<g>
					<path class="st182" d="M269.51,70.73c0,3.86-2.28,6.98-5.09,6.98c-2.81,0-5.09-3.13-5.09-6.98c0-3.85,2.28-6.98,5.09-6.98
						C267.23,63.75,269.51,66.87,269.51,70.73z"/>
					<path class="st182" d="M248.4,47.46c-7.83-1.51-15.38,1.45-19.63,6.98c4.69-3.2,10.84-4.6,17.14-3.39
						c10.4,2,17.76,10.45,18.01,19.83c0.19-0.61,0.36-1.23,0.48-1.87C266.29,59.17,259.13,49.53,248.4,47.46z"/>
					<g>
						<path class="st190" d="M263.31,73.01c0,0,1.42,15.78-13.08,17.27"/>
						<path class="st182" d="M249.28,91.86H247c-0.74,0-1.34-0.6-1.34-1.34l0,0c0-0.74,0.6-1.34,1.34-1.34h2.29
							c0.74,0,1.34,0.6,1.34,1.34l0,0C250.62,91.26,250.02,91.86,249.28,91.86z"/>
					</g>
				</g>
			</g>
			<g>
				<g>
					<path class="st178" d="M283.16,194.39h-82.3c-1.15,0-2.08-0.93-2.08-2.08v-0.56c0-1.15,0.93-2.08,2.08-2.08h82.3
						c1.15,0,2.08,0.93,2.08,2.08v0.56C285.24,193.45,284.31,194.39,283.16,194.39z"/>
				</g>
				<path class="st191" d="M245.11,194.39H169.1c-2.07,0-3.91-1.29-4.62-3.23l-17.72-48.7c-1.17-3.2,1.21-6.59,4.62-6.59h76.01
					c2.07,0,3.91,1.29,4.62,3.23l17.72,48.7C250.9,191,248.52,194.39,245.11,194.39z"/>
				<path class="st179" d="M149.63,136.19c0.29,28.78,38.83,52.06,86.34,52.06c4.66,0,9.23-0.23,13.69-0.66l-17.65-48.49
					c-0.71-1.94-2.55-3.23-4.62-3.23h-76.01C150.76,135.86,150.17,135.98,149.63,136.19z"/>
				<path class="st192" d="M202.86,164.16c0,3.18-2.58,5.75-5.75,5.75c-3.18,0-5.75-2.58-5.75-5.75s2.58-5.75,5.75-5.75
					C200.29,158.4,202.86,160.98,202.86,164.16z"/>
			</g>
		</g>
		<g>
			<path class="st182" d="M285.31,11.58c5.36-5.36,14.08-5.3,19.36,0.18c4.85,5.03,5.06,13.08,0.46,18.34
				c-4.47,5.1-11.75,6.01-17.22,2.71c-0.48-0.29-1.07-0.36-1.61-0.19l-3.43,1.02c-0.26,0.08-0.51-0.17-0.43-0.43l1.02-3.43
				c0.16-0.54,0.09-1.13-0.2-1.61C280.14,22.95,280.81,16.08,285.31,11.58z"/>
			<g>
				<circle class="st37" cx="287.37" cy="21.18" r="2.19"/>
				<circle class="st37" cx="294.9" cy="21.18" r="2.19"/>
				<circle class="st37" cx="302.42" cy="21.18" r="2.19"/>
			</g>
		</g>
	</g>
	<g class="st193">
		<g>
			<line class="st194" x1="342.75" y1="11.18" x2="344.69" y2="13.12"/>
			<line class="st194" x1="344.69" y1="11.18" x2="342.75" y2="13.12"/>
		</g>
		<g>
			<line class="st195" x1="101.08" y1="114.51" x2="104.95" y2="118.38"/>
			<line class="st195" x1="104.95" y1="114.51" x2="101.08" y2="118.38"/>
		</g>
		<g>
			<line class="st196" x1="207.97" y1="91.86" x2="210.67" y2="94.56"/>
			<line class="st196" x1="210.67" y1="91.86" x2="207.97" y2="94.56"/>
		</g>
		<g>
			<line class="st196" x1="360.97" y1="186.77" x2="363.68" y2="189.48"/>
			<line class="st196" x1="363.68" y1="186.77" x2="360.97" y2="189.48"/>
		</g>
		<path class="st196" d="M255.07,21.18c0,0.92-0.74,1.66-1.66,1.66c-0.92,0-1.66-0.74-1.66-1.66c0-0.92,0.74-1.66,1.66-1.66
			C254.33,19.52,255.07,20.26,255.07,21.18z"/>
		<path class="st196" d="M162.52,89.18c0,0.92-0.74,1.66-1.66,1.66c-0.92,0-1.66-0.74-1.66-1.66c0-0.92,0.74-1.66,1.66-1.66
			C161.78,87.52,162.52,88.26,162.52,89.18z"/>
		<path class="st196" d="M363.99,68.17c0,0.92-0.74,1.66-1.66,1.66c-0.92,0-1.66-0.74-1.66-1.66c0-0.92,0.74-1.66,1.66-1.66
			C363.24,66.51,363.99,67.25,363.99,68.17z"/>
		<path class="st196" d="M109.8,161.47c0,2.17-1.76,3.94-3.94,3.94c-2.18,0-3.94-1.76-3.94-3.94c0-2.18,1.76-3.94,3.94-3.94
			C108.03,157.54,109.8,159.3,109.8,161.47z"/>
		<path class="st196" d="M326.58,111.77c0,2.18-1.76,3.94-3.94,3.94s-3.94-1.76-3.94-3.94c0-2.18,1.76-3.94,3.94-3.94
			S326.58,109.59,326.58,111.77z"/>
	</g>
</g>
</svg>
