<?xml version="1.0" encoding="utf-8"?>
<!-- Generator: Adobe Illustrator 24.0.2, SVG Export Plug-In . SVG Version: 6.00 Build 0)  -->
<svg version="1.1" id="Layer_1" xmlns="http://www.w3.org/2000/svg" xmlns:xlink="http://www.w3.org/1999/xlink" x="0px" y="0px"
	 viewBox="0 0 450 300" style="enable-background:new 0 0 450 300;" xml:space="preserve">
<style type="text/css">
	.st0{fill-rule:evenodd;clip-rule:evenodd;fill:#E2E8F5;}
	.st1{fill-rule:evenodd;clip-rule:evenodd;fill:#BFCCE8;}
	.st2{fill-rule:evenodd;clip-rule:evenodd;fill:#90A9D5;}
	.st3{fill-rule:evenodd;clip-rule:evenodd;fill:#B6C7E6;}
	.st4{fill-rule:evenodd;clip-rule:evenodd;fill:#E6E4EB;}
	.st5{fill-rule:evenodd;clip-rule:evenodd;fill:#0F1630;stroke:#0E1632;stroke-width:0.1488;stroke-miterlimit:22.9256;}
	.st6{fill-rule:evenodd;clip-rule:evenodd;fill:#CEC9D0;}
	.st7{fill-rule:evenodd;clip-rule:evenodd;fill:#FFFFFF;}
	.st8{fill-rule:evenodd;clip-rule:evenodd;fill:#E8685B;}
	.st9{fill-rule:evenodd;clip-rule:evenodd;fill:#0F1630;}
	.st10{fill-rule:evenodd;clip-rule:evenodd;fill:#3D4155;}
	.st11{fill-rule:evenodd;clip-rule:evenodd;fill:#545A6C;}
	.st12{fill-rule:evenodd;clip-rule:evenodd;fill:#F4AD85;}
	.st13{fill-rule:evenodd;clip-rule:evenodd;fill:#ED9072;}
	.st14{fill-rule:evenodd;clip-rule:evenodd;fill:#0E1632;}
	.st15{fill-rule:evenodd;clip-rule:evenodd;fill:#010518;}
	.st16{fill-rule:evenodd;clip-rule:evenodd;fill:#05304B;}
	.st17{fill-rule:evenodd;clip-rule:evenodd;fill:#0076BD;}
	.st18{fill-rule:evenodd;clip-rule:evenodd;fill:#171C3A;}
	.st19{fill-rule:evenodd;clip-rule:evenodd;fill:#C9C4D1;}
	.st20{fill-rule:evenodd;clip-rule:evenodd;fill:#1C2344;}
	.st21{fill-rule:evenodd;clip-rule:evenodd;fill:#101937;}
	.st22{fill-rule:evenodd;clip-rule:evenodd;fill:#383D5D;}
	.st23{fill-rule:evenodd;clip-rule:evenodd;fill:#01020E;}
	.st24{fill-rule:evenodd;clip-rule:evenodd;fill:#E2E1E7;}
	.st25{fill-rule:evenodd;clip-rule:evenodd;fill:#B92F6D;}
	.st26{fill-rule:evenodd;clip-rule:evenodd;fill:#E74D91;}
	.st27{fill-rule:evenodd;clip-rule:evenodd;fill:#ACABBB;}
	.st28{fill-rule:evenodd;clip-rule:evenodd;fill:#DFF0F2;}
	.st29{fill-rule:evenodd;clip-rule:evenodd;fill:#004A82;}
	.st30{fill-rule:evenodd;clip-rule:evenodd;fill:#A8A6B5;}
	.st31{fill-rule:evenodd;clip-rule:evenodd;fill:#96929F;}
	.st32{fill-rule:evenodd;clip-rule:evenodd;fill:#F0EEF0;}
	.st33{fill-rule:evenodd;clip-rule:evenodd;fill:#D2CED6;}
	.st34{fill-rule:evenodd;clip-rule:evenodd;fill:#484E6A;}
	.st35{fill-rule:evenodd;clip-rule:evenodd;fill:#1A293D;}
	.st36{fill:#E4EBF7;}
	.st37{fill:#FFFFFF;}
	.st38{fill:#98B2D8;}
	.st39{fill:#B1C3E8;}
	.st40{fill:#B7CAE5;}
	.st41{fill:#97B3D1;}
	.st42{fill:#CED9EA;}
	.st43{fill:#B6C5DD;}
	.st44{fill:#5D7CA0;}
	.st45{fill:#799CBF;}
	.st46{fill:#F2F4F9;}
	.st47{fill:#C1CFE5;}
	.st48{fill:url(#SVGID_1_);}
	.st49{opacity:0.22;fill:#1F395E;}
	.st50{fill:url(#SVGID_2_);}
	.st51{fill:url(#SVGID_3_);}
	.st52{fill:#1F395E;}
	.st53{fill:url(#SVGID_4_);}
	.st54{fill:#3150BC;}
	.st55{fill:#FEB19E;}
	.st56{fill:#FF856A;}
	.st57{fill:url(#SVGID_5_);}
	.st58{fill:#FFFFFF;stroke:#0F22D3;stroke-width:1.1335;stroke-miterlimit:10;}
	.st59{opacity:0.6;fill:#9ABCED;}
	.st60{fill:#9ABCED;}
	.st61{fill:#C1C8D3;}
	.st62{fill:url(#SVGID_6_);}
	.st63{fill:url(#SVGID_7_);}
	.st64{fill:#4F7EB7;}
	.st65{opacity:0.71;fill:#7CA6D8;}
	.st66{fill:#EA9BA1;}
	.st67{opacity:0.5;}
	.st68{fill:#7CA6D8;}
	.st69{fill:#E83F54;}
	.st70{opacity:0.5;fill:#9ABCED;}
	.st71{fill-rule:evenodd;clip-rule:evenodd;fill:#E1E8F6;}
	.st72{fill-rule:evenodd;clip-rule:evenodd;fill:#C0CDEA;}
	.st73{fill-rule:evenodd;clip-rule:evenodd;fill:#00000F;}
	.st74{fill-rule:evenodd;clip-rule:evenodd;fill:#626687;}
	.st75{fill-rule:evenodd;clip-rule:evenodd;fill:#101537;}
	.st76{fill-rule:evenodd;clip-rule:evenodd;fill:#C7CAE0;}
	.st77{fill-rule:evenodd;clip-rule:evenodd;fill:#BEC4DC;}
	.st78{fill-rule:evenodd;clip-rule:evenodd;fill:#B5B9D1;}
	.st79{fill-rule:evenodd;clip-rule:evenodd;fill:#CCD3E5;}
	.st80{fill-rule:evenodd;clip-rule:evenodd;fill:#BABFD6;}
	.st81{fill-rule:evenodd;clip-rule:evenodd;fill:#B0B7CF;}
	.st82{fill-rule:evenodd;clip-rule:evenodd;fill:#B0B7CE;}
	.st83{fill-rule:evenodd;clip-rule:evenodd;fill:#DBE1F1;}
	.st84{fill-rule:evenodd;clip-rule:evenodd;fill:#D6DCEA;}
	.st85{fill-rule:evenodd;clip-rule:evenodd;fill:#C7CADE;}
	.st86{fill-rule:evenodd;clip-rule:evenodd;fill:#C7CADB;}
	.st87{fill-rule:evenodd;clip-rule:evenodd;fill:#BDC1D5;}
	.st88{fill-rule:evenodd;clip-rule:evenodd;fill:#B5BED8;}
	.st89{fill-rule:evenodd;clip-rule:evenodd;fill:#CED2E1;}
	.st90{fill-rule:evenodd;clip-rule:evenodd;fill:#B6B7CB;}
	.st91{fill-rule:evenodd;clip-rule:evenodd;fill:#AAAEC3;}
	.st92{fill-rule:evenodd;clip-rule:evenodd;fill:#EAEEF4;}
	.st93{fill-rule:evenodd;clip-rule:evenodd;fill:#EC6957;}
	.st94{fill-rule:evenodd;clip-rule:evenodd;fill:#D84743;}
	.st95{fill-rule:evenodd;clip-rule:evenodd;fill:#EE9073;}
	.st96{fill-rule:evenodd;clip-rule:evenodd;fill:#DBD7D7;}
	.st97{fill-rule:evenodd;clip-rule:evenodd;fill:#3B405F;}
	.st98{fill-rule:evenodd;clip-rule:evenodd;fill:#E27E67;}
	.st99{fill-rule:evenodd;clip-rule:evenodd;fill:#F5AC83;}
	.st100{fill-rule:evenodd;clip-rule:evenodd;fill:#F6F5F4;}
	.st101{fill-rule:evenodd;clip-rule:evenodd;fill:#080321;}
	.st102{fill-rule:evenodd;clip-rule:evenodd;fill:#DBE2F3;}
	.st103{fill-rule:evenodd;clip-rule:evenodd;fill:#EAEEF8;}
	.st104{fill-rule:evenodd;clip-rule:evenodd;fill:#003053;}
	.st105{fill-rule:evenodd;clip-rule:evenodd;fill:#1874BA;}
	.st106{fill-rule:evenodd;clip-rule:evenodd;fill:#B83470;}
	.st107{fill-rule:evenodd;clip-rule:evenodd;fill:#E13C83;}
	.st108{fill-rule:evenodd;clip-rule:evenodd;fill:#E94D90;}
	.st109{fill-rule:evenodd;clip-rule:evenodd;fill:#EE788F;}
	.st110{fill-rule:evenodd;clip-rule:evenodd;fill:#F5C8B4;}
	.st111{fill-rule:evenodd;clip-rule:evenodd;fill:#F4BCA3;}
	.st112{fill-rule:evenodd;clip-rule:evenodd;fill:#E0E7F5;}
	.st113{fill-rule:evenodd;clip-rule:evenodd;fill:#9EB1D8;}
	.st114{fill-rule:evenodd;clip-rule:evenodd;fill:#C8D2EB;}
	.st115{fill-rule:evenodd;clip-rule:evenodd;fill:#B0C0E3;}
	.st116{fill-rule:evenodd;clip-rule:evenodd;fill:#BCC9E7;}
	.st117{fill-rule:evenodd;clip-rule:evenodd;fill:#B3C4E5;}
	.st118{fill-rule:evenodd;clip-rule:evenodd;fill:#EAF1F2;}
	.st119{fill-rule:evenodd;clip-rule:evenodd;fill:#BFCCE9;}
	.st120{fill-rule:evenodd;clip-rule:evenodd;fill:#141A33;}
	.st121{fill-rule:evenodd;clip-rule:evenodd;fill:#0E173F;}
	.st122{fill-rule:evenodd;clip-rule:evenodd;fill:#030822;}
	.st123{fill-rule:evenodd;clip-rule:evenodd;fill:#E03C82;}
	.st124{fill-rule:evenodd;clip-rule:evenodd;fill:#B73470;}
	.st125{fill-rule:evenodd;clip-rule:evenodd;fill:#2C3049;}
	.st126{fill-rule:evenodd;clip-rule:evenodd;fill:#F4AB82;}
	.st127{fill-rule:evenodd;clip-rule:evenodd;fill:#ED8F73;}
	.st128{fill-rule:evenodd;clip-rule:evenodd;fill:#301814;}
	.st129{fill-rule:evenodd;clip-rule:evenodd;fill:#E84D8F;}
	.st130{fill-rule:evenodd;clip-rule:evenodd;fill:#E8695B;}
	.st131{fill-rule:evenodd;clip-rule:evenodd;fill:#00000F;stroke:#1A1A18;stroke-width:0.3835;stroke-miterlimit:22.9256;}
	.st132{fill-rule:evenodd;clip-rule:evenodd;fill:#E17E67;}
	.st133{fill-rule:evenodd;clip-rule:evenodd;fill:#EC7862;}
	.st134{fill-rule:evenodd;clip-rule:evenodd;fill:#563F2F;}
	.st135{fill-rule:evenodd;clip-rule:evenodd;fill:#A26E50;}
	.st136{fill-rule:evenodd;clip-rule:evenodd;fill:#EF8971;}
	.st137{fill-rule:evenodd;clip-rule:evenodd;fill:#F5F4F3;}
	.st138{fill-rule:evenodd;clip-rule:evenodd;fill:#CEC8CF;}
	.st139{fill-rule:evenodd;clip-rule:evenodd;fill:#E9574D;}
	.st140{fill-rule:evenodd;clip-rule:evenodd;fill:#D74743;}
	.st141{fill-rule:evenodd;clip-rule:evenodd;fill:#3F4154;}
	.st142{fill-rule:evenodd;clip-rule:evenodd;fill:#575A6D;}
	.st143{fill-rule:evenodd;clip-rule:evenodd;fill:#D6BCA3;}
	.st144{fill-rule:evenodd;clip-rule:evenodd;fill:#BE8762;}
	.st145{fill-rule:evenodd;clip-rule:evenodd;fill:#D39E80;}
	.st146{fill-rule:evenodd;clip-rule:evenodd;fill:#1C2B3F;}
	.st147{fill-rule:evenodd;clip-rule:evenodd;fill:#1874B9;}
	.st148{fill-rule:evenodd;clip-rule:evenodd;fill:#002846;}
	.st149{fill-rule:evenodd;clip-rule:evenodd;fill:#A7A5B5;}
	.st150{fill-rule:evenodd;clip-rule:evenodd;fill:#9794A1;}
	.st151{fill-rule:evenodd;clip-rule:evenodd;fill:#F2F1F3;}
	.st152{fill-rule:evenodd;clip-rule:evenodd;fill:#D3D0D7;}
	.st153{fill-rule:evenodd;clip-rule:evenodd;fill:#3B3A3A;}
	.st154{fill-rule:evenodd;clip-rule:evenodd;fill:#242525;}
	.st155{fill-rule:evenodd;clip-rule:evenodd;fill:#C7DDE0;}
	.st156{fill-rule:evenodd;clip-rule:evenodd;fill:#7A9196;}
	.st157{fill-rule:evenodd;clip-rule:evenodd;fill:#E3E0E7;}
	.st158{fill-rule:evenodd;clip-rule:evenodd;fill:#ADAAB9;}
	.st159{fill:#FF7D6C;}
	.st160{fill:#80739B;}
	.st161{fill:#65CBC2;}
	.st162{fill:#FDC97A;}
	.st163{fill:#F6931D;}
	.st164{fill:#C1B49A;}
	.st165{fill:#2DA9E3;stroke:#FFFFFF;stroke-width:0.3828;stroke-miterlimit:10;}
	.st166{opacity:0.39;}
	.st167{opacity:0.64;fill:#D0C3E8;}
	.st168{opacity:0.31;fill:#B29CDA;}
	.st169{opacity:0.24;}
	.st170{clip-path:url(#SVGID_9_);}
	.st171{fill:none;stroke:#FFFFFF;stroke-width:1.4326;stroke-miterlimit:10;}
	.st172{clip-path:url(#SVGID_11_);}
	.st173{clip-path:url(#SVGID_13_);}
	.st174{opacity:0.3;fill:#D0C3E8;}
	.st175{fill:#32B4C5;}
	.st176{fill:#4DCFE0;}
	.st177{fill:#60E2F3;}
	.st178{fill:#39306C;}
	.st179{fill:#4B4582;}
	.st180{opacity:0.74;}
	.st181{fill:#DF2D76;}
	.st182{fill:#F6327A;}
	.st183{fill:#221B4C;}
	.st184{fill:none;stroke:#4B4582;stroke-width:0.8791;stroke-linecap:round;stroke-linejoin:round;stroke-miterlimit:10;}
	.st185{fill:none;stroke:#4B4582;stroke-width:0.615;stroke-linecap:round;stroke-linejoin:round;stroke-miterlimit:10;}
	.st186{fill:none;stroke:#FFFFFF;stroke-width:1.4967;stroke-linecap:round;stroke-linejoin:round;stroke-miterlimit:10;}
	.st187{fill:#DC3178;}
	.st188{fill:#F3AD97;}
	.st189{fill:#FFB89E;}
	.st190{fill:none;stroke:#F6327A;stroke-width:0.9457;stroke-miterlimit:10;}
	.st191{fill:#47417F;}
	.st192{fill:#5E5895;}
	.st193{opacity:0.07;}
	.st194{fill:none;stroke:#4B4582;stroke-width:0.8988;stroke-linecap:round;stroke-linejoin:round;stroke-miterlimit:10;}
	.st195{fill:none;stroke:#4B4582;stroke-width:1.7976;stroke-linecap:round;stroke-linejoin:round;stroke-miterlimit:10;}
	.st196{fill:none;stroke:#4B4582;stroke-width:1.2564;stroke-linecap:round;stroke-linejoin:round;stroke-miterlimit:10;}
</style>
<g>
	<g>
		<path class="st36" d="M399.87,167.87c0.09,12.83-0.77,24.6-2.37,35c-0.11,0.78-0.24,1.56-0.37,2.32
			c-0.84,5.07-1.86,9.79-3.02,14.16c-0.2,0.75-0.41,1.48-0.61,2.21c-4.44,15.53-10.76,26.02-17.49,29.9H93.18
			c0,0-24.11-20.9-28.95-50.76c-0.12-0.76-0.24-1.52-0.33-2.29c-1.88-14.86,1.14-31.78,14.17-49.38
			c5.94-8.01,13.75-13.59,22.71-17.43c0.7-0.29,1.39-0.58,2.11-0.85c13.3-5.2,28.91-6.83,44.6-7.08c0.79-0.01,1.59-0.02,2.38-0.02
			c9.34-0.07,18.66,0.32,27.49,0.67c0.84,0.05,1.67,0.08,2.49,0.11c14.26,0.6,27.11,1.04,36.44-0.67h0.01
			c0.86-0.16,1.68-0.34,2.47-0.54h0.01c10.33-2.53,15.41-8.39,11.75-20.99c-7.1-24.45,0.17-42.37,15.98-52.26
			c0.8-0.51,1.64-1,2.49-1.46c8.94-4.85,20.24-7.39,33.03-7.36c0.9,0,1.8,0.02,2.72,0.05c10.87,0.33,22.74,2.47,35.06,6.56
			c6.63,2.2,12.81,4.92,18.53,8.06c0.7,0.39,1.41,0.78,2.09,1.19c11.22,6.48,20.66,14.67,28.48,23.92c0.53,0.61,1.04,1.24,1.55,1.87
			C390.81,107.83,399.67,140.17,399.87,167.87z"/>
		<path class="st37" d="M394.12,219.35c-0.2,0.75-0.41,1.48-0.61,2.21c-4.18-1.5-8.58-3.41-13.08-5.85
			c-20.74-11.27-47.15-36.36-55.15-91.99c-3.45-23.98,0.95-46.82,13.09-67.92c0.7,0.39,1.41,0.78,2.09,1.19
			c-10.65,18.5-16.64,40.61-12.93,66.4c7.87,54.64,33.64,79.25,53.88,90.27C385.75,216.03,390.04,217.9,394.12,219.35z"/>
		<path class="st37" d="M397.5,202.87c-0.11,0.78-0.24,1.56-0.37,2.32c-13.1-6.15-29.62-19.54-37.32-48.6
			c-7.45-28.14-4.48-53.12,9.12-75.68c0.53,0.61,1.04,1.24,1.55,1.87c-12.93,21.85-15.69,46.03-8.48,73.23
			C369.37,183.82,384.98,196.81,397.5,202.87z"/>
		<path class="st37" d="M273.83,88.64c1.1,36.93-3.11,60.79-13.64,77.38c-11.03,17.39-29.42,27.89-59.65,34.07
			c-5.63,1.16-11.2,1.73-16.66,1.73c-17.01,0-33.04-5.54-47.08-16.38c-16.33-12.62-28.84-31.61-36.01-53.85
			c0.7-0.29,1.39-0.58,2.11-0.85c7.03,21.86,19.28,40.54,35.3,52.91c18,13.91,39.41,18.82,61.9,14.22
			c56.22-11.5,73.58-38.04,71.48-109.17c-0.6-20.2,2.92-36.13,10.48-47.57c0.9,0,1.8,0.02,2.72,0.05
			C276.91,52.29,273.23,68.2,273.83,88.64z"/>
		<path class="st37" d="M203.68,165.06c-2.33,0.39-4.75,0.59-7.21,0.59c-18.12,0-38.88-10.98-48.98-41.98
			c0.79-0.01,1.59-0.02,2.38-0.02c11.13,33.28,34.99,42.21,53.43,39.18c24.91-4.08,48.87-29.73,44.24-69.23
			c-1.99-16.95-2.09-31.41-1.02-43.64c0.8-0.51,1.64-1,2.49-1.46c-1.24,12.46-1.28,27.3,0.78,44.84
			C254.6,134.23,229.62,160.81,203.68,165.06z"/>
		<path class="st37" d="M218.78,123.21c-0.87,3.98-2.4,8.04-5.02,11.45c-3.48,4.56-8.36,7.25-14.52,8.01
			c-0.74,0.09-1.46,0.14-2.18,0.14c-3.82,0-7.32-1.3-10.43-3.91c-4.1-3.45-7.1-8.8-9.27-14.59c0.84,0.05,1.67,0.08,2.49,0.11
			c2.02,5.12,4.69,9.76,8.24,12.74c3.17,2.66,6.83,3.76,10.86,3.26c5.53-0.68,9.9-3.08,13-7.13c2.15-2.81,3.51-6.18,4.34-9.54h0.01
			C217.17,123.6,217.99,123.41,218.78,123.21z"/>
		<path class="st37" d="M130.77,251.46h-2.47c-10.17-23.28-24.82-38.8-43.62-46.15c-6.82-2.67-13.75-4.07-20.45-4.6
			c-0.12-0.76-0.24-1.52-0.33-2.29c7.06,0.51,14.38,1.96,21.6,4.78C105.13,210.88,120.34,227.09,130.77,251.46z"/>
	</g>
	<g>
		<g>
			<g>
				<path class="st38" d="M81.71,181.3l-7,7.22l-2.92-4.3l-0.97-1.44c-3.12,0.78-7.72-5.32-9.57-8.57c-1.84-3.26,5.53-8.3,5.53-8.3
					c-1.2-3.6-6.03-5.87-6.17-6.87c-0.14-0.99,1.07-2.05,5.45,0c4.4,2.06,8.22,9.35,8.22,9.35c0.78-2.12-2.69-7.85-2.05-8.5
					c0.63-0.63,4.04,0.15,6.65,5.67c2.63,5.53,1.07,12.05,1.07,12.05l0.03,0.06L81.71,181.3z"/>
				<path class="st39" d="M66.51,165.28c0,0,5.2,5.95,4.64,8.29c-0.56,2.34-3.18-0.38-3.18-0.38s2.41,2.78,1.63,3.7
					c-0.78,0.92-3.68-1.42-3.68-1.42s3.47,4.32,0,3.68c-3.47-0.64-7.83-7.18-4.48-7.84c0,0-0.41-4.77,2.64-3.14
					C64.07,168.19,62.71,164.21,66.51,165.28z"/>
			</g>
			<path class="st40" d="M129.75,251.5c0,0,5.86-17.12,2.78-33.99c0,0-0.01-0.03-0.02-0.11c0-0.03-0.01-0.08-0.02-0.14
				c-0.09-0.44-0.18-0.88-0.27-1.33c0,0-3.4,2.97-8.09,5.92c-5.63,3.55-13.15,7.07-18.92,5.42c-10.59-3.03-26.07-23.61-33.26-39.86
				c0,0,3.59-5.38,10.77-7.04c0,0,14.36,19.13,27.02,23.67c0,0,6.8-8.13,12.08-20.03c3.38-7.59,8.44-12.4,14.84-14.98
				c3.63-1.48,7.68-2.24,12.09-2.38l11.1-5.18c0,0,1.8,0.01,4.6,0.37c5.2,0.68,13.85,2.58,20.84,7.91
				c10.77,8.21,26.26,81.76,26.26,81.76H129.75z"/>
			<path class="st41" d="M132.51,217.4c-0.09-0.49-0.19-0.97-0.29-1.46c0,0-3.4,2.97-8.09,5.92l3.28-28.02
				C130.73,206.66,132.32,216.25,132.51,217.4z"/>
			<path class="st42" d="M164.45,161.83c-1.71,10.88-12.6,20.93-20.47,20.8c-6.32-0.11-7.25-9.18-7.32-13.61
				c3.63-1.48,7.68-2.24,12.09-2.38l11.1-5.18C159.84,161.46,161.65,161.47,164.45,161.83z"/>
			<path class="st41" d="M145.62,240.38c0,0,24.99-26.01,26.08-53.35l7.37,23.05l-2.83,23.99L145.62,240.38z"/>
			<path class="st38" d="M144.89,251.5h-27.98c0,0,0.07-3.83,4.39-5.1c4.32-1.28,7.08-6.66,20.05-5.95L144.89,251.5z"/>
			<path class="st43" d="M173.52,225.78c0,0-13.18,7.58-33.94,12.97c0,0-2.88,6.94,2.17,12.75h40.16L173.52,225.78z"/>
		</g>
		<g>
			<path class="st44" d="M124.43,146.3c0,0-5.97-8.24-5.23-13.78c0.73-5.55,5.87-4.24,5.87-4.24s-0.24-13.48,12.24-10.03
				c0,0-0.27-4.11,2.45-4.01c2.72,0.11,7,6.37,7,6.37s1.06-4.64,2.9-3.55c1.84,1.1,2.41,5.89,6.27,8.19
				c3.85,2.31,6.24,5.29,3.21,14.64c-3.03,9.35-0.76,10.01-1.84,14.81c-1.03,4.56-1.85,7.33-4.68,7.59
				c-2.83,0.26-13.66-11.17-13.66-11.17L124.43,146.3z"/>
			<path class="st38" d="M159.84,161.46c0,0-6.95,16.85-14.25,15.58c-3.63-0.63-4.43-2.84-4.47-5.41c-0.03-3.34,1.27-7.27-0.7-8.91
				l8.75-12.43l1.93-2.74C151.11,147.55,153.46,154.38,159.84,161.46z"/>
			<path class="st45" d="M141.13,171.64c-0.03-3.34,1.27-7.27-0.7-8.91l8.75-12.43c0.75,0.87,1.28,2.43,1.5,4.86
				C151.83,168,145.04,170.98,141.13,171.64z"/>
			<path class="st38" d="M123.58,139.75c0,0,2.37,21.71,11.22,26.6c7.7,4.25,17.05-8.6,16.86-14.95c0,0,3.36-2.56,2.8-6.71
				s-4.95-2.77-5.47,3.91c0,0-3.57-0.25-4.23-8.61c-2.24,1.85-4.66,1.28-7.19-0.97c0,0-1.26,4.65-7.74-0.78
				C129.83,138.23,127.39,141.55,123.58,139.75z"/>
		</g>
	</g>
	<g>
		<g>
			<path class="st44" d="M332.55,223.87c0,0,11.44,19.08,15.4,28.34h-40.32c0,0-2.3-11.15-6.34-21.87L332.55,223.87z"/>
			<path class="st45" d="M316.82,228.12c-2.21,7.31-5.57,13.56-10.56,18.3l1.36,5.79l-48.8-0.6l5.43-33.4L316.82,228.12z"/>
		</g>
		<g>
			<path class="st45" d="M393.37,123.99c0,0,1.62-10.12,4.83-13.71c3.21-3.59,12-8.9,13.03-7.01c1.04,1.89-7.75,7.81-7.75,7.81
				s3.97-0.94,7.37,4.91c3.4,5.86-7.56,10.39-7.56,10.39l-2.17,4.91l-8.69-5.48L393.37,123.99z"/>
			<path class="st38" d="M404.61,111.28c0,0-4.9,4.98-4.18,6.4c0.72,1.42,3.41-0.81,3.41-0.81s-2.2,3.35-0.5,4.22
				c1.71,0.86,4.35-2.03,4.35-2.03s-2.2,3.05-0.94,3.61c1.27,0.56,8.04-4.22,6.83-5.33c-1.21-1.12-1.87-0.2-1.87-0.2
				s1.42-2.39,0-3.15c-1.54-0.83-2.31,0.66-2.31,0.66s1.16-1.83,0.22-2.54s-2.92,0.2-2.92,0.2S407.35,109.25,404.61,111.28z"/>
			<path class="st38" d="M400.06,111.16c-1.49-0.43-4.51,2.67-4.51,2.67c-1.19,1.53-1.43,4.58-1.48,5.98
				c-0.15,3.92-1.64,6.01-1.64,6.01l4.41,2.78c3.41-4.4,2.3-10.03,1.75-12.03C400.25,114.09,400.95,111.41,400.06,111.16z"/>
		</g>
		<g>
			<path class="st40" d="M402.91,132.34c0,0-14.73,39.24-38.15,42.72c-10.47,1.55-18.38,1.71-23.92,1.42
				c-6.6-0.34-9.84-1.34-10.08-1.41c-0.01,0-0.01-0.01-0.01-0.01s-6.43,11.97-2.27,29.16c4.15,17.18,5.67,20.78,5.67,20.78
				s-31.57,23.21-57.24,2.07l-23.17-36.02l-7.25-11.29c0,0,6.66-21.89,25.46-36.11l0.01-0.01c7.08-5.37,15.9-9.66,26.73-11.24
				c5.55-0.84,11.63-0.96,18.27-0.17c0,0,5.1,1.44,13.4,4.48c4.47,1.63,9.86,3.73,15.88,6.31c17.19,7.37,21.92,9.57,21.92,9.57
				s18.32-18.07,23.04-29.03C391.21,123.56,400.65,124.51,402.91,132.34z"/>
			<path class="st41" d="M284.7,150.26c-0.09,8.79-1.96,17.32-2.79,23.93l14.56-2.95l22.66,22.4c0,0,2.87,6.56-2.97,7.7
				c-4.58,0.89-25.98,3.86-25.98,3.86c-4.93,6.71-7.16,16.98-9.62,26.94l-21.73-37.75L284.7,150.26z"/>
			<path class="st42" d="M316.96,152.37c-10.14-2.57-15.48-11.7-18.27-19.97c5.55-0.84,11.63-0.96,18.27-0.17
				c0,0,5.1,1.44,13.4,4.48C331.34,143.95,330.98,155.92,316.96,152.37z"/>
			<path class="st41" d="M343.6,160.39c0,0-2.18,8.52-2.75,16.08c-6.6-0.34-9.84-1.34-10.08-1.41c-0.01,0-0.01-0.01-0.01-0.01
				S336.52,165.21,343.6,160.39z"/>
		</g>
		<g>
			<path class="st46" d="M318.28,197.38l-25.3,3.67c-0.75,0.11-1.44-0.41-1.55-1.16l-5.59-38.51c-0.11-0.75,0.41-1.44,1.16-1.55
				l25.3-3.67c0.75-0.11,1.44,0.41,1.55,1.16l5.59,38.51C319.55,196.57,319.03,197.27,318.28,197.38z"/>
			<path class="st38" d="M299.87,172.86l3.87-1.51c0,0,3.68-10.2,8.26-3.78c0,0,3.16-1.89,3.07-2.93c-0.09-1.04-0.14-2.55-0.14-2.55
				s6.41,1.39,4.98,10.33c-1.43,8.94-6.91,7.81-12.3,7.9l-6.71,2.64L299.87,172.86z"/>
			<path class="st47" d="M302.37,185.33c0,0-30.17,19.97-43.21,10.34c-1.98-1.47-3.79-3.03-5.41-4.61l-7.25-11.29
				c0,0,6.66-21.89,25.46-36.11l0.01-0.01c6.23-2.8,12.74-1.78,13.07,3.99c0.8,13.75-10.96,22.2-12.42,28.44l27.04-5.47
				C299.67,170.6,304.07,175.27,302.37,185.33z"/>
		</g>
		<g>
			<path class="st44" d="M337.83,111.31c0,0,4.31-9.21,2.55-14.52c-1.76-5.31-6.56-3.06-6.56-3.06s-2.3-13.28-13.9-7.55
				c0,0-0.5-4.09-3.16-3.48c-2.66,0.62-5.67,7.57-5.67,7.57s-1.91-4.36-3.52-2.94c-1.61,1.42-1.26,6.24-4.61,9.22
				c-3.35,2.99-5.13,6.37-0.4,14.98c4.73,8.61,2.62,9.69,4.59,14.2c1.87,4.29,3.19,6.86,6.02,6.57
				c2.83-0.28,11.32-13.54,11.32-13.54L337.83,111.31z"/>
			<path class="st38" d="M305.9,132.86c0,0,6.67,16.44,17.15,13.75c3.57-0.92,3.59-4.75,3.14-7.27c-0.6-3.29-2.61-6.9-0.98-8.88
				l-10.93-10.57l-2.41-2.33C311.87,117.55,310.84,124.7,305.9,132.86z"/>
			<path class="st45" d="M326.2,139.34c-0.6-3.29-2.61-6.9-0.98-8.88l-10.93-10.57c-0.57,1-0.8,2.62-0.56,5.06
				C315,137.77,322.23,139.43,326.2,139.34z"/>
			<path class="st38" d="M337.44,104.72c0,0,1.76,21.77-6.02,28.23c-6.76,5.62-18.36-5.24-19.37-11.52c0,0-3.78-1.89-4.01-6.07
				c-0.23-4.18,4.34-3.65,6.11,2.81c0,0,3.46-0.92,2.53-9.25c2.55,1.4,4.81,0.38,6.88-2.31c0,0,2.11,4.33,7.46-2.23
				C331.01,104.4,334.04,107.2,337.44,104.72z"/>
		</g>
	</g>
	<g>
		<g>
			<linearGradient id="SVGID_1_" gradientUnits="userSpaceOnUse" x1="223.057" y1="247.0473" x2="223.057" y2="178.851">
				<stop  offset="0" style="stop-color:#1F3A65"/>
				<stop  offset="1" style="stop-color:#294A7A"/>
			</linearGradient>
			<path class="st48" d="M282.09,239.46v0.01c-0.33,1.34-0.79,2.56-1.39,3.66c-5.47,10.01-29.19,8.36-29.19,8.36h-54.12
				c-22.4,0-31.37-0.56-33.52-7.55c-0.12-0.37-0.22-0.77-0.29-1.19c-1.52-8.13,6.04-34.57,20.02-52.71
				c7.15-9.27,14.54-14.16,21.13-16.71c6.29-2.44,11.84-2.75,15.74-2.75c6.87,0,12.41,0.51,17.12,1.61
				c12.63,2.96,19.23,10.1,29.14,22.76C278.83,210.44,284.8,228.61,282.09,239.46z"/>
			<path class="st49" d="M186.9,233.04c5.87-9.24,7.72-22.05,9.35-35.06l5.1,26.45h44.2l8.12-26.45
				c-0.19,12.36,1.5,24.48,7.37,36.08C261.05,234.07,232.14,266.78,186.9,233.04z"/>
			<linearGradient id="SVGID_2_" gradientUnits="userSpaceOnUse" x1="181.9136" y1="252.3367" x2="181.9136" y2="234.0038">
				<stop  offset="0" style="stop-color:#1F3A65"/>
				<stop  offset="1" style="stop-color:#294A7A"/>
			</linearGradient>
			<path class="st50" d="M200.32,251.5h-2.94c-22.4,0-31.37-0.56-33.52-7.55c-1.17-5.5,0.32-11.28,7.02-13
				c10.5-2.7,28.77,7.93,28.77,7.93L200.32,251.5z"/>
			<linearGradient id="SVGID_3_" gradientUnits="userSpaceOnUse" x1="258.8266" y1="252.3367" x2="258.8266" y2="234.0038">
				<stop  offset="0" style="stop-color:#1F3A65"/>
				<stop  offset="1" style="stop-color:#294A7A"/>
			</linearGradient>
			<path class="st51" d="M282.09,239.46c0,0,0.01,0,0,0.01c-0.33,1.34-0.79,2.56-1.39,3.66c-5.47,10.01-29.19,8.36-29.19,8.36
				h-16.06l2.04-13.6c0,0,28.47-13.18,38.67-9.07C281.15,230.84,282.68,235.01,282.09,239.46z"/>
			<path class="st52" d="M237.58,172.21c-0.48,6.36-3.11,17.94-15.91,17.94c-13.5,0-16.36-11.41-16.95-16.8
				c6.29-2.44,11.84-2.75,15.74-2.75C227.33,170.6,232.87,171.11,237.58,172.21z"/>
		</g>
		<g>
			<path class="st37" d="M249.24,251.5h-51.86c-1.25,0-2.27-1.01-2.27-2.27l0,0c0-1.25,1.01-2.27,2.27-2.27h51.86
				c1.25,0,2.27,1.01,2.27,2.27l0,0C251.51,250.48,250.49,251.5,249.24,251.5z"/>
			<linearGradient id="SVGID_4_" gradientUnits="userSpaceOnUse" x1="236.6196" y1="245.4471" x2="212.8171" y2="207.6653">
				<stop  offset="0" style="stop-color:#3855E1"/>
				<stop  offset="1" style="stop-color:#5C7EF7"/>
			</linearGradient>
			<path class="st53" d="M255.52,212.51l-0.19,1.18v0.01l-5.37,33.27H197.1l-5.32-34.48c-0.26-1.69,1.05-3.22,2.75-3.22h58.23
				C254.49,209.27,255.79,210.81,255.52,212.51z"/>
			<path class="st54" d="M255.33,213.7l-5.37,33.27h-52.57l17.82-1.86C233.5,243.22,249.08,231,255.33,213.7z"/>
		</g>
		<g>
			<g>
				<path class="st55" d="M221.45,185.33h-0.35c-2.04,0-3.73-0.42-5.1-1.03c-3.33-1.5-5.35-4.98-5.27-8.63
					c0.01-0.37,0.01-0.74,0.01-1.1c0.01-3.03-0.18-5.54-0.18-5.54v-1.36l19.04-0.85c0.07,2.74,0.39,5.18,0.76,7.13
					c0.01,0.03,0.01,0.06,0.02,0.09C231.47,179.77,227.27,185.18,221.45,185.33z"/>
				<path class="st56" d="M230.36,173.95c-7.93,9.32-16.08,3.88-19.62,0.62c0.01-3.03-0.18-5.54-0.18-5.54v-1.36l19.04-0.85
					C229.67,169.56,229.98,172,230.36,173.95z"/>
			</g>
			<g>
				<path class="st55" d="M204.73,158.42c0,0,5.9,16.64,15.75,16.64c9.85,0,13.94-17.92,13.94-17.92v-15.59h-30.45L204.73,158.42z"
					/>
				<path class="st55" d="M201.56,149.03c0,0-2.9,0.53-2.4,3.86c0.5,3.33,3.52,7.37,5.97,5.24L201.56,149.03z"/>
				<path class="st55" d="M236.72,147.63c0,0,2.95,0.13,2.91,3.5c-0.04,3.37-2.48,7.78-5.21,6.01L236.72,147.63z"/>
				<linearGradient id="SVGID_5_" gradientUnits="userSpaceOnUse" x1="218.7179" y1="153.0378" x2="217.957" y2="123.3652">
					<stop  offset="0" style="stop-color:#3F2323"/>
					<stop  offset="1" style="stop-color:#5E3434"/>
				</linearGradient>
				<path class="st57" d="M236.72,147.63c0,0-1.02,5.82-2.3,9.5c0,0-2.33-0.47-3.09-6.61c0,0-5.04,0.99-8.21-3.78
					c0,0-0.76,4.72-5.62,1.37c-3.24,2.65-7.08,2.93-11.43,1.13c0,0,0.73,6.19-1.35,9.17c0,0-0.76-2.45-3.17-9.39
					c0,0-1.04,0.04-1.7,0.98c0,0-5.22-10.2-2.76-15.11c2.46-4.91,5.76-3.02,5.76-3.02s-1.23-6.71,6.05-9.16
					c7.27-2.46,7.27-5.76,8.41-5.1c1.13,0.66,1.61,3.12,1.61,3.12s12.56-1.32,15.96,12.18c0,0,9.07,0.29,3.69,15.5
					C238.57,148.41,238.22,147.78,236.72,147.63z"/>
			</g>
		</g>
	</g>
	<g>
		<path class="st59" d="M188.18,161.78h-47.47c-1.54,0-2.8,1.25-2.8,2.8v28.33c0,1.54,1.25,2.8,2.8,2.8h32.74l8.54,7.57
			c0.65,0.57,1.63-0.09,1.35-0.9l-2.31-6.67h7.15c1.54,0,2.8-1.25,2.8-2.8v-28.33C190.98,163.03,189.73,161.78,188.18,161.78z"/>
		<g>
			<path class="st60" d="M155.44,169.36H144.5c-0.41,0-0.75-0.33-0.75-0.75l0,0c0-0.41,0.33-0.75,0.75-0.75h10.94
				c0.41,0,0.75,0.33,0.75,0.75l0,0C156.18,169.03,155.85,169.36,155.44,169.36z"/>
			<path class="st60" d="M182.4,175.82h-31.69c-0.41,0-0.75-0.33-0.75-0.75l0,0c0-0.41,0.33-0.75,0.75-0.75h31.69
				c0.41,0,0.75,0.33,0.75,0.75l0,0C183.15,175.49,182.82,175.82,182.4,175.82z"/>
			<path class="st60" d="M182.4,180.42h-37.9c-0.41,0-0.75-0.33-0.75-0.75l0,0c0-0.41,0.33-0.75,0.75-0.75h37.9
				c0.41,0,0.75,0.33,0.75,0.75l0,0C183.15,180.09,182.82,180.42,182.4,180.42z"/>
			<path class="st60" d="M182.4,185.02h-37.9c-0.41,0-0.75-0.33-0.75-0.75l0,0c0-0.41,0.33-0.75,0.75-0.75h37.9
				c0.41,0,0.75,0.33,0.75,0.75l0,0C183.15,184.68,182.82,185.02,182.4,185.02z"/>
			<path class="st60" d="M182.4,189.62h-37.9c-0.41,0-0.75-0.33-0.75-0.75l0,0c0-0.41,0.33-0.75,0.75-0.75h37.9
				c0.41,0,0.75,0.33,0.75,0.75l0,0C183.15,189.28,182.82,189.62,182.4,189.62z"/>
		</g>
	</g>
	<g>
		<path class="st61" d="M398.64,258.86H54.07c-0.68,0-1.23-0.55-1.23-1.23v-4.91c0-0.68,0.55-1.23,1.23-1.23h344.57
			c0.68,0,1.23,0.55,1.23,1.23v4.91C399.87,258.31,399.32,258.86,398.64,258.86z"/>
		<g>
			<linearGradient id="SVGID_6_" gradientUnits="userSpaceOnUse" x1="313.3938" y1="242.393" x2="328.1287" y2="242.393">
				<stop  offset="0" style="stop-color:#1F3A65"/>
				<stop  offset="1" style="stop-color:#294A7A"/>
			</linearGradient>
			<path class="st62" d="M328.13,233.33h-14.73v12.75c0,2.97,2.41,5.38,5.38,5.38h3.97c2.97,0,5.38-2.41,5.38-5.38V233.33z"/>
			<linearGradient id="SVGID_7_" gradientUnits="userSpaceOnUse" x1="334.4368" y1="191.7822" x2="315.7348" y2="228.9029">
				<stop  offset="0" style="stop-color:#E2E8F7"/>
				<stop  offset="1" style="stop-color:#FFFFFF"/>
			</linearGradient>
			<path class="st63" d="M318.07,233.33v-3.93c0-0.65,0.52-1.17,1.17-1.17h1.49c0.65,0,1.17-0.52,1.17-1.17v-1.49
				c0-0.65-0.52-1.17-1.17-1.17h-4.78c-3.29,0-5.95-2.66-5.95-5.95l0,0c0-3.29,2.66-5.95,5.95-5.95h6.34c0.65,0,1.17-0.52,1.17-1.17
				v-0.53c0-3.4,2.76-6.16,6.16-6.16l0,0c3.4,0,6.16,2.76,6.16,6.16l0,0c0,3.68-2.98,6.66-6.66,6.66h-11.16
				c-0.65,0-1.17,0.52-1.17,1.17l0,0c0,0.65,0.52,1.17,1.17,1.17h6.09c2.25,0,4.07,1.82,4.07,4.07v2.55c0,2.25-1.82,4.07-4.07,4.07
				l0,0c-0.65,0-1.17,0.52-1.17,1.17v1.66H318.07z"/>
		</g>
	</g>
	<g>
		<g>
			<path class="st59" d="M307.46,212.46h-38.68c-1.49,0-2.69-1.21-2.69-2.69v-48.88c0-1.49,1.21-2.69,2.69-2.69h38.68
				c1.49,0,2.69,1.21,2.69,2.69v48.88C310.15,211.26,308.95,212.46,307.46,212.46z"/>
			<path class="st64" d="M309.92,210.67h-38.68c-1.8,0-3.26-1.46-3.26-3.26v-48.88c0-1.8,1.46-3.26,3.26-3.26h38.68
				c1.8,0,3.26,1.46,3.26,3.26v48.88C313.18,209.21,311.72,210.67,309.92,210.67z M271.24,156.4c-1.17,0-2.13,0.95-2.13,2.13v48.88
				c0,1.17,0.95,2.13,2.13,2.13h38.68c1.17,0,2.13-0.95,2.13-2.13v-48.88c0-1.17-0.95-2.13-2.13-2.13H271.24z"/>
			<g>
				<path class="st65" d="M281.3,175.56h-8.6v-10.3h8.6V175.56z M273.84,174.43h6.33v-8.03h-6.33V174.43z"/>
				<path class="st66" d="M279.14,172.37l-2.56-2.85l0.84-0.76l1.55,1.73c0.79-1.04,2.71-3.11,6.36-4.61l0.43,1.05
					c-4.55,1.88-6.22,4.73-6.24,4.76L279.14,172.37z"/>
				<path class="st60" d="M303.22,169.12h-13.33c-0.46,0-0.84-0.38-0.84-0.84l0,0c0-0.46,0.38-0.84,0.84-0.84h13.33
					c0.46,0,0.84,0.38,0.84,0.84l0,0C304.06,168.75,303.69,169.12,303.22,169.12z"/>
				<path class="st60" d="M303.22,173.21h-13.33c-0.46,0-0.84-0.38-0.84-0.84l0,0c0-0.46,0.38-0.84,0.84-0.84h13.33
					c0.46,0,0.84,0.38,0.84,0.84l0,0C304.06,172.83,303.69,173.21,303.22,173.21z"/>
			</g>
			<g>
				<path class="st65" d="M281.3,191.34h-8.6v-10.3h8.6V191.34z M273.84,190.2h6.33v-8.03h-6.33V190.2z"/>
				<path class="st66" d="M279.14,188.14l-2.56-2.85l0.84-0.76l1.55,1.73c0.79-1.04,2.71-3.11,6.36-4.61l0.43,1.05
					c-4.55,1.88-6.22,4.73-6.24,4.76L279.14,188.14z"/>
				<path class="st60" d="M303.22,184.9h-13.33c-0.46,0-0.84-0.38-0.84-0.84l0,0c0-0.46,0.38-0.84,0.84-0.84h13.33
					c0.46,0,0.84,0.38,0.84,0.84l0,0C304.06,184.52,303.69,184.9,303.22,184.9z"/>
				<path class="st60" d="M303.22,188.98h-13.33c-0.46,0-0.84-0.38-0.84-0.84l0,0c0-0.46,0.38-0.84,0.84-0.84h13.33
					c0.46,0,0.84,0.38,0.84,0.84l0,0C304.06,188.61,303.69,188.98,303.22,188.98z"/>
			</g>
			<g>
				<path class="st65" d="M281.3,207.11h-8.6v-10.3h8.6V207.11z M273.84,205.98h6.33v-8.03h-6.33V205.98z"/>
				<path class="st66" d="M279.14,203.92l-2.56-2.85l0.84-0.76l1.55,1.73c0.79-1.04,2.71-3.11,6.36-4.61l0.43,1.05
					c-4.55,1.88-6.22,4.73-6.24,4.76L279.14,203.92z"/>
				<path class="st60" d="M303.22,200.67h-13.33c-0.46,0-0.84-0.38-0.84-0.84l0,0c0-0.46,0.38-0.84,0.84-0.84h13.33
					c0.46,0,0.84,0.38,0.84,0.84l0,0C304.06,200.29,303.69,200.67,303.22,200.67z"/>
				<path class="st60" d="M303.22,204.76h-13.33c-0.46,0-0.84-0.38-0.84-0.84l0,0c0-0.46,0.38-0.84,0.84-0.84h13.33
					c0.46,0,0.84,0.38,0.84,0.84l0,0C304.06,204.38,303.69,204.76,303.22,204.76z"/>
			</g>
		</g>
		<g>
			<path class="st59" d="M443.34,137.71h-38.68c-1.49,0-2.69-1.21-2.69-2.69V86.14c0-1.49,1.21-2.69,2.69-2.69h38.68
				c1.49,0,2.69,1.21,2.69,2.69v48.88C446.03,136.51,444.83,137.71,443.34,137.71z"/>
			<path class="st64" d="M446.74,135.19h-38.68c-1.8,0-3.26-1.46-3.26-3.26V83.05c0-1.8,1.46-3.26,3.26-3.26h38.68
				c1.8,0,3.26,1.46,3.26,3.26v48.88C450,133.73,448.54,135.19,446.74,135.19z M408.06,80.93c-1.17,0-2.13,0.95-2.13,2.13v48.88
				c0,1.17,0.95,2.13,2.13,2.13h38.68c1.17,0,2.13-0.95,2.13-2.13V83.05c0-1.17-0.95-2.13-2.13-2.13H408.06z"/>
			<g class="st67">
				
					<ellipse transform="matrix(0.2307 -0.973 0.973 0.2307 223.2084 478.2194)" class="st68" cx="414.04" cy="97.95" rx="6.8" ry="6.8"/>
				<path class="st69" d="M415.83,97.05l4.53-8.08c4.16,1.04,6.14,4.96,4.16,8.97L415.83,97.05z"/>
				<g>
					<path class="st60" d="M411.58,112.12c0,1.1-0.89,1.98-1.98,1.98s-1.98-0.89-1.98-1.98c0-1.1,0.89-1.98,1.98-1.98
						S411.58,111.02,411.58,112.12z"/>
					<path class="st60" d="M411.58,120.9c0,1.1-0.89,1.98-1.98,1.98s-1.98-0.89-1.98-1.98c0-1.1,0.89-1.98,1.98-1.98
						S411.58,119.81,411.58,120.9z"/>
					<path class="st60" d="M437.46,114.1h-15.87c-1.1,0-1.98-0.89-1.98-1.98l0,0c0-1.1,0.89-1.98,1.98-1.98h15.87
						c1.1,0,1.98,0.89,1.98,1.98l0,0C439.45,113.21,438.56,114.1,437.46,114.1z"/>
					<path class="st60" d="M437.46,122.89h-15.87c-1.1,0-1.98-0.89-1.98-1.98l0,0c0-1.1,0.89-1.98,1.98-1.98h15.87
						c1.1,0,1.98,0.89,1.98,1.98l0,0C439.45,122,438.56,122.89,437.46,122.89z"/>
					<path class="st60" d="M411.58,129.83c0,1.1-0.89,1.98-1.98,1.98s-1.98-0.89-1.98-1.98c0-1.1,0.89-1.98,1.98-1.98
						S411.58,128.73,411.58,129.83z"/>
					<path class="st60" d="M437.46,131.81h-15.87c-1.1,0-1.98-0.89-1.98-1.98l0,0c0-1.1,0.89-1.98,1.98-1.98h15.87
						c1.1,0,1.98,0.89,1.98,1.98l0,0C439.45,130.92,438.56,131.81,437.46,131.81z"/>
				</g>
			</g>
		</g>
		<g>
			<path class="st59" d="M112.52,121.79H73.84c-1.49,0-2.69-1.21-2.69-2.69V61.15c0-1.49,1.21-2.69,2.69-2.69h38.68
				c1.49,0,2.69,1.21,2.69,2.69v57.95C115.21,120.59,114.01,121.79,112.52,121.79z"/>
			<path class="st64" d="M110.07,119.9H71.39c-1.8,0-3.26-1.46-3.26-3.26V58.7c0-1.8,1.46-3.26,3.26-3.26h38.68
				c1.8,0,3.26,1.46,3.26,3.26v57.95C113.32,118.44,111.86,119.9,110.07,119.9z M71.39,56.57c-1.17,0-2.13,0.95-2.13,2.13v57.95
				c0,1.17,0.95,2.13,2.13,2.13h38.68c1.17,0,2.13-0.95,2.13-2.13V58.7c0-1.17-0.95-2.13-2.13-2.13H71.39z"/>
			<g>
				<path class="st68" d="M91.11,84.53l-0.55,0.49c-0.35,0.31-0.89,0.28-1.2-0.07l-5.67-6.39l1.82-1.62l5.67,6.39
					C91.49,83.68,91.46,84.21,91.11,84.53z"/>
				<path class="st68" d="M81.7,66.82c-3.59,0-6.52,2.91-6.52,6.52s2.92,6.52,6.52,6.52c3.6,0,6.52-2.91,6.52-6.52
					S85.31,66.82,81.7,66.82z M81.7,77.78c-2.45,0-4.44-1.98-4.44-4.44c0-2.46,2-4.44,4.44-4.44c2.46,0,4.44,1.98,4.44,4.44
					C86.14,75.79,84.16,77.78,81.7,77.78z"/>
				<path class="st60" d="M108.11,70.41h-10.3c-0.65,0-1.18-0.53-1.18-1.18l0,0c0-0.65,0.53-1.18,1.18-1.18h10.3
					c0.65,0,1.18,0.53,1.18,1.18l0,0C109.29,69.88,108.76,70.41,108.11,70.41z"/>
				<path class="st60" d="M108.11,76.55h-10.3c-0.65,0-1.18-0.53-1.18-1.18l0,0c0-0.65,0.53-1.18,1.18-1.18h10.3
					c0.65,0,1.18,0.53,1.18,1.18l0,0C109.29,76.02,108.76,76.55,108.11,76.55z"/>
				<path class="st60" d="M108.11,82.21h-10.3c-0.65,0-1.18-0.53-1.18-1.18l0,0c0-0.65,0.53-1.18,1.18-1.18h10.3
					c0.65,0,1.18,0.53,1.18,1.18l0,0C109.29,81.69,108.76,82.21,108.11,82.21z"/>
				<path class="st60" d="M95.28,97.99H79.42c-0.74,0-1.35-0.6-1.35-1.35l0,0c0-0.74,0.6-1.35,1.35-1.35h15.87
					c0.74,0,1.35,0.6,1.35,1.35l0,0C96.63,97.39,96.03,97.99,95.28,97.99z"/>
				<path class="st60" d="M95.28,106.42H79.42c-0.74,0-1.35-0.6-1.35-1.35l0,0c0-0.74,0.6-1.35,1.35-1.35h15.87
					c0.74,0,1.35,0.6,1.35,1.35l0,0C96.63,105.82,96.03,106.42,95.28,106.42z"/>
				<path class="st60" d="M95.28,114.85H79.42c-0.74,0-1.35-0.6-1.35-1.35l0,0c0-0.74,0.6-1.35,1.35-1.35h15.87
					c0.74,0,1.35,0.6,1.35,1.35l0,0C96.63,114.25,96.03,114.85,95.28,114.85z"/>
				<path class="st60" d="M107.72,96.64c0,1.19-0.97,2.16-2.16,2.16c-1.19,0-2.16-0.97-2.16-2.16c0-1.19,0.97-2.16,2.16-2.16
					C106.75,94.48,107.72,95.45,107.72,96.64z"/>
				<path class="st60" d="M107.72,105.07c0,1.19-0.97,2.16-2.16,2.16c-1.19,0-2.16-0.97-2.16-2.16c0-1.19,0.97-2.16,2.16-2.16
					C106.75,102.91,107.72,103.88,107.72,105.07z"/>
				<path class="st60" d="M107.72,113.5c0,1.19-0.97,2.16-2.16,2.16c-1.19,0-2.16-0.97-2.16-2.16c0-1.19,0.97-2.16,2.16-2.16
					C106.75,111.34,107.72,112.31,107.72,113.5z"/>
			</g>
		</g>
		<g>
			<path class="st59" d="M301.51,122.68h-70.84c-2.58,0-4.68-2.09-4.68-4.68V70.96c0-2.58,2.09-4.68,4.68-4.68h70.84
				c2.58,0,4.68,2.09,4.68,4.68V118C306.19,120.58,304.09,122.68,301.51,122.68z"/>
			<path class="st64" d="M303.97,120.65h-70.84c-2.89,0-5.24-2.35-5.24-5.24V68.37c0-2.89,2.35-5.24,5.24-5.24h70.84
				c2.89,0,5.24,2.35,5.24,5.24v47.04C309.21,118.29,306.86,120.65,303.97,120.65z M233.13,64.26c-2.27,0-4.11,1.84-4.11,4.11v47.04
				c0,2.27,1.84,4.11,4.11,4.11h70.84c2.27,0,4.11-1.84,4.11-4.11V68.37c0-2.27-1.84-4.11-4.11-4.11H233.13z"/>
			<g>
				<path class="st70" d="M275.3,77.76h-39.25c-1.13,0-2.05-0.92-2.05-2.05l0,0c0-1.13,0.92-2.05,2.05-2.05h39.25
					c1.13,0,2.05,0.92,2.05,2.05l0,0C277.36,76.84,276.44,77.76,275.3,77.76z"/>
				<path class="st65" d="M275.9,107.94h-40.45c-0.8,0-1.45-0.65-1.45-1.45V86.44c0-0.8,0.65-1.45,1.45-1.45h40.45
					c0.8,0,1.45,0.65,1.45,1.45v20.05C277.36,107.29,276.71,107.94,275.9,107.94z"/>
				<path class="st70" d="M296.13,77.76h-11.62c-1.13,0-2.05-0.92-2.05-2.05l0,0c0-1.13,0.92-2.05,2.05-2.05h11.62
					c1.13,0,2.05,0.92,2.05,2.05l0,0C298.18,76.84,297.26,77.76,296.13,77.76z"/>
				<path class="st70" d="M296.91,88.67H284.7c-0.7,0-1.28-0.57-1.28-1.28l0,0c0-0.7,0.57-1.28,1.28-1.28h12.21
					c0.7,0,1.28,0.57,1.28,1.28l0,0C298.18,88.1,297.61,88.67,296.91,88.67z"/>
				<path class="st70" d="M296.91,94.43H284.7c-0.7,0-1.28-0.57-1.28-1.28l0,0c0-0.7,0.57-1.28,1.28-1.28h12.21
					c0.7,0,1.28,0.57,1.28,1.28l0,0C298.18,93.86,297.61,94.43,296.91,94.43z"/>
				<path class="st70" d="M296.91,100.2H284.7c-0.7,0-1.28-0.57-1.28-1.28l0,0c0-0.7,0.57-1.28,1.28-1.28h12.21
					c0.7,0,1.28,0.57,1.28,1.28l0,0C298.18,99.63,297.61,100.2,296.91,100.2z"/>
				<path class="st70" d="M296.91,105.96H284.7c-0.7,0-1.28-0.57-1.28-1.28l0,0c0-0.7,0.57-1.28,1.28-1.28h12.21
					c0.7,0,1.28,0.57,1.28,1.28l0,0C298.18,105.39,297.61,105.96,296.91,105.96z"/>
				<path class="st70" d="M288.62,116.91h-45.2c-0.94,0-1.7-0.76-1.7-1.7l0,0c0-0.94,0.76-1.7,1.7-1.7h45.2c0.94,0,1.7,0.76,1.7,1.7
					l0,0C290.32,116.15,289.56,116.91,288.62,116.91z"/>
			</g>
		</g>
		<g>
			<path class="st59" d="M74.16,180.38H7.1c-2.09,0-3.78-1.69-3.78-3.78v-40.62c0-2.09,1.69-3.78,3.78-3.78h67.06
				c2.09,0,3.78,1.69,3.78,3.78v40.62C77.94,178.69,76.24,180.38,74.16,180.38z"/>
			<path class="st64" d="M71.41,178.16H4.35c-2.4,0-4.35-1.95-4.35-4.34V133.2c0-2.4,1.95-4.34,4.35-4.34h67.06
				c2.4,0,4.35,1.95,4.35,4.34v40.62C75.75,176.21,73.8,178.16,71.41,178.16z M4.35,129.99c-1.77,0-3.21,1.44-3.21,3.21v40.62
				c0,1.77,1.44,3.21,3.21,3.21h67.06c1.77,0,3.21-1.44,3.21-3.21V133.2c0-1.77-1.44-3.21-3.21-3.21H4.35z"/>
			<g class="st67">
				<path class="st68" d="M30.17,154.45c-1.73,1.75-4.14,2.82-6.8,2.82c-5.3,0-9.61-4.31-9.61-9.61c0-5.32,4.31-9.62,9.61-9.62
					c1.08,0,2.12,0.18,3.08,0.51l-3.08,9.11L30.17,154.45z"/>
				<path class="st69" d="M34.26,146.92c0,2.25-0.91,4.29-2.4,5.77l-5.78-5.77l2.62-7.74C31.93,140.27,34.26,143.32,34.26,146.92z"
					/>
				<path class="st60" d="M66.74,157.84h-22.1v-18.66c0-0.31,0.25-0.57,0.57-0.57c0.31,0,0.57,0.25,0.57,0.57v17.53h20.97
					c0.31,0,0.57,0.25,0.57,0.57C67.31,157.59,67.06,157.84,66.74,157.84z"/>
				<rect x="49.27" y="148.23" class="st60" width="2.83" height="8.48"/>
				<rect x="55.12" y="143.93" class="st69" width="2.83" height="12.78"/>
				<rect x="60.89" y="150.32" class="st60" width="2.83" height="6.39"/>
				<path class="st60" d="M27.59,166.5H14.28c-0.55,0-0.99-0.44-0.99-0.99v0c0-0.55,0.44-0.99,0.99-0.99h13.32
					c0.55,0,0.99,0.44,0.99,0.99v0C28.59,166.06,28.14,166.5,27.59,166.5z"/>
				<path class="st60" d="M47.9,166.5H34.58c-0.55,0-0.99-0.44-0.99-0.99v0c0-0.55,0.44-0.99,0.99-0.99H47.9
					c0.55,0,0.99,0.44,0.99,0.99v0C48.89,166.06,48.45,166.5,47.9,166.5z"/>
				<path class="st60" d="M66.98,166.5H53.66c-0.55,0-0.99-0.44-0.99-0.99v0c0-0.55,0.44-0.99,0.99-0.99h13.32
					c0.55,0,0.99,0.44,0.99,0.99v0C67.97,166.06,67.53,166.5,66.98,166.5z"/>
				<path class="st60" d="M36.33,173.58H23.01c-0.55,0-0.99-0.44-0.99-0.99l0,0c0-0.55,0.44-0.99,0.99-0.99h13.32
					c0.55,0,0.99,0.44,0.99,0.99l0,0C37.32,173.14,36.88,173.58,36.33,173.58z"/>
				<path class="st60" d="M55.41,173.58H42.09c-0.55,0-0.99-0.44-0.99-0.99l0,0c0-0.55,0.44-0.99,0.99-0.99h13.32
					c0.55,0,0.99,0.44,0.99,0.99l0,0C56.4,173.14,55.96,173.58,55.41,173.58z"/>
			</g>
		</g>
	</g>
</g>
</svg>
