<?xml version="1.0" encoding="utf-8"?>
<!-- Generator: Adobe Illustrator 24.0.2, SVG Export Plug-In . SVG Version: 6.00 Build 0)  -->
<svg version="1.1" id="Layer_1" xmlns="http://www.w3.org/2000/svg" xmlns:xlink="http://www.w3.org/1999/xlink" x="0px" y="0px"
	 viewBox="0 0 30 30" style="enable-background:new 0 0 30 30;" xml:space="preserve">
<style type="text/css">
	.st0{opacity:0;fill:#FFFFFF;}
	.st1{fill:#BCBEC0;}
	.st2{fill:#ABADB0;}
</style>
<path class="st0" d="M1.25,0h27.5C29.44,0,30,0.56,30,1.25v27.5c0,0.69-0.56,1.25-1.25,1.25H1.25C0.56,30,0,29.44,0,28.75V1.25
	C0,0.56,0.56,0,1.25,0z"/>
<polygon class="st2" points="16.24,14.91 22.82,8.33 21.67,7.18 15,13.84 14.91,13.76 8.33,7.18 7.18,8.33 13.84,15 13.76,15.09 
	7.18,21.67 8.33,22.82 15,16.16 15.09,16.24 21.67,22.82 22.82,21.67 16.16,15 "/>
</svg>
