<?xml version="1.0" encoding="utf-8"?>
<!-- Generator: Adobe Illustrator 24.0.2, SVG Export Plug-In . SVG Version: 6.00 Build 0)  -->
<svg version="1.1" id="Layer_1" xmlns="http://www.w3.org/2000/svg" xmlns:xlink="http://www.w3.org/1999/xlink" x="0px" y="0px"
	 viewBox="0 0 25 25" style="enable-background:new 0 0 25 25;" xml:space="preserve">
<style type="text/css">
	.st0{fill:#ffffff;}
	.st1{fill:#ffffff;enable-background:new    ;}
</style>
<g>
	<path id="path7750_2_" class="st0" d="M12.5,2c2.91,0,5.52,1.17,7.42,3.08C21.83,6.98,23,9.59,23,12.5c0,2.91-1.17,5.52-3.08,7.42
		C18.02,21.83,15.41,23,12.5,23c-2.91,0-5.52-1.17-7.42-3.08C3.17,18.02,2,15.41,2,12.5c0-2.91,1.17-5.52,3.08-7.42
		C6.96,3.17,9.59,2,12.5,2L12.5,2z M19.35,5.65c-1.76-1.76-4.18-2.84-6.85-2.84S7.41,3.89,5.65,5.65C3.89,7.41,2.81,9.83,2.81,12.5
		s1.08,5.09,2.84,6.85c1.76,1.76,4.18,2.84,6.85,2.84s5.09-1.08,6.85-2.84c1.76-1.76,2.84-4.18,2.84-6.85
		C22.17,9.83,21.09,7.41,19.35,5.65L19.35,5.65z"/>
	<path id="path7822_2_" class="st1" d="M13.28,10.36V9.49c0-0.4,0.28-0.51,0.47-0.51c0.19,0,1.21,0,1.21,0V7.13h-1.65
		c-1.85,0-2.25,1.36-2.25,2.25v0.98H10v1.29v0.85h1.08c0,2.44,0,5.37,0,5.37h2.14c0,0,0-2.97,0-5.37h1.57l0.06-0.85l0.13-1.29H13.28
		L13.28,10.36z"/>
</g>
</svg>
