<?xml version="1.0" encoding="utf-8"?>
<!-- Generator: Adobe Illustrator 24.0.2, SVG Export Plug-In . SVG Version: 6.00 Build 0)  -->
<svg version="1.1" id="Layer_1" xmlns="http://www.w3.org/2000/svg" xmlns:xlink="http://www.w3.org/1999/xlink" x="0px" y="0px"
	 viewBox="0 0 30 30" style="enable-background:new 0 0 30 30;" xml:space="preserve">
<style type="text/css">
	.st0{opacity:0;fill:#FFFFFF;}
	.st1{fill:#BCBEC0;}
</style>
<g>
	<path class="st0" d="M1.3-0.7h27.5c0.7,0,1.2,0.6,1.2,1.2V28c0,0.7-0.6,1.2-1.2,1.2H1.3c-0.7,0-1.2-0.6-1.2-1.2V0.5
		C0.1-0.2,0.6-0.7,1.3-0.7z"/>
	<g transform="translate(2.3999999999999995 2.3999999999999995) scale(0.8)">
		<g>
			<g>
				<path class="st1" d="M24.6,4.8h-2.5c-0.7,0-1.3,0.6-1.3,1.2s0.6,1.2,1.3,1.2h1.2v15h-1.2c-0.7,0-1.3,0.6-1.3,1.2
					s0.6,1.2,1.3,1.2h2.5c0.7,0,1.2-0.6,1.2-1.2V6.1C25.8,5.4,25.3,4.8,24.6,4.8z"/>
				<path class="st1" d="M15.6,9.1c-0.4-0.6-1.2-0.7-1.8-0.2c-0.6,0.4-0.7,1.2-0.2,1.8l2.2,3h-10c-0.7,0-1.2,0.6-1.2,1.2
					s0.6,1.2,1.2,1.2h10.1l-2.2,3.1c-0.4,0.6-0.3,1.3,0.3,1.7c0,0,0,0,0,0c0.2,0.1,0.5,0.2,0.7,0.2c0.4,0,0.8-0.2,1-0.5l3.5-5
					c0.3-0.4,0.3-1,0-1.5L15.6,9.1z"/>
			</g>
		</g>
	</g>
</g>
</svg>
