<?xml version="1.0" encoding="utf-8"?>
<!-- Generator: Adobe Illustrator 24.0.2, SVG Export Plug-In . SVG Version: 6.00 Build 0)  -->
<svg version="1.1" id="Layer_1" xmlns="http://www.w3.org/2000/svg" xmlns:xlink="http://www.w3.org/1999/xlink" x="0px" y="0px"
	 viewBox="0 0 25 25" style="enable-background:new 0 0 25 25;" xml:space="preserve">
<style type="text/css">
	.st0{fill:#ffffff;}
	.st1{fill:#ffffff;enable-background:new    ;}
</style>
<g>
	<path id="path7784_2_" class="st0" d="M12.5,2c2.91,0,5.52,1.17,7.42,3.08C21.83,6.98,23,9.59,23,12.5c0,2.91-1.17,5.52-3.08,7.42
		C18.02,21.83,15.41,23,12.5,23c-2.91,0-5.52-1.17-7.42-3.08C3.17,18.02,2,15.41,2,12.5c0-2.91,1.17-5.52,3.08-7.42
		C6.98,3.17,9.62,2,12.5,2L12.5,2z M19.35,5.65c-1.76-1.76-4.18-2.84-6.85-2.84S7.41,3.89,5.65,5.65C3.89,7.41,2.81,9.83,2.81,12.5
		c0,2.67,1.08,5.09,2.84,6.85c1.76,1.76,4.18,2.84,6.85,2.84s5.09-1.08,6.85-2.84c1.76-1.76,2.84-4.18,2.84-6.85
		C22.19,9.83,21.11,7.41,19.35,5.65L19.35,5.65z"/>
	<path id="path7836_2_" class="st1" d="M7.77,12.61v4.65h2.21v-5.03v-1.32H7.77V12.61z M17.19,12.86c-0.15-1.19-0.7-1.95-2.31-1.95
		c-0.95,0-1.59,0.34-1.85,0.85h-0.02v-0.85h-1.76v1.21v5.11h1.85v-3.14c0-0.83,0.17-1.61,1.17-1.61c1.02,0,1.1,0.93,1.1,1.68v3.08
		h1.89v-3.48C17.25,13.43,17.23,13.14,17.19,12.86L17.19,12.86L17.19,12.86z M8.87,7.75c-0.62,0-1.1,0.49-1.1,1.1
		c0,0.62,0.49,1.1,1.1,1.1s1.1-0.49,1.1-1.1C9.98,8.24,9.49,7.75,8.87,7.75L8.87,7.75z"/>
</g>
</svg>
