<?xml version="1.0" encoding="utf-8"?>
<!-- Generator: Adobe Illustrator 24.0.2, SVG Export Plug-In . SVG Version: 6.00 Build 0)  -->
<svg version="1.1" id="Layer_1" xmlns="http://www.w3.org/2000/svg" xmlns:xlink="http://www.w3.org/1999/xlink" x="0px" y="0px"
	 viewBox="0 0 800 500" style="enable-background:new 0 0 800 500;" xml:space="preserve">
<style type="text/css">
	.st0{fill:#2DAAE4;}
	.st1{enable-background:new    ;}
	.st2{fill:#FFFFFF;}
	.st3{display:none;fill:#2DAAE4;}
</style>
<g>
	<g>
		<path class="st2" d="M232.7,253.02l-7.3,12.65c4.87,8.43,9.73,16.87,14.6,25.3c4.87-8.43,9.73-16.87,14.6-25.3l-7.3-12.65H232.7z"
			/>
		<polygon class="st2" points="220.18,237.36 205.58,237.36 198.28,250.01 205.58,262.66 220.18,262.66 227.48,250.01 		"/>
		<polygon class="st2" points="247.3,246.99 254.6,234.34 247.3,221.69 232.7,221.69 225.4,234.34 232.7,246.99 		"/>
		<path class="st2" d="M332.4,202.88c-0.03-0.33-0.09-0.65-0.15-0.97c-0.02-0.14-0.06-0.28-0.09-0.43
			c-0.06-0.28-0.13-0.55-0.21-0.82c-0.04-0.15-0.09-0.3-0.14-0.45c-0.09-0.26-0.18-0.52-0.29-0.78c-0.06-0.14-0.12-0.28-0.18-0.42
			c-0.11-0.26-0.23-0.51-0.37-0.77c-0.07-0.13-0.14-0.26-0.22-0.39c-0.14-0.24-0.28-0.48-0.43-0.71c-0.09-0.14-0.18-0.27-0.28-0.4
			c-0.15-0.21-0.3-0.42-0.47-0.62c-0.11-0.14-0.23-0.28-0.35-0.42c-0.16-0.19-0.33-0.37-0.5-0.55c-0.14-0.14-0.28-0.27-0.42-0.41
			c-0.16-0.16-0.33-0.31-0.5-0.46c-0.18-0.15-0.36-0.3-0.55-0.44c-0.16-0.12-0.32-0.25-0.49-0.36c-0.2-0.14-0.4-0.26-0.61-0.39
			c-0.13-0.08-0.25-0.17-0.38-0.24l-79.06-45.54c-0.13-0.08-0.27-0.14-0.4-0.21c-0.21-0.12-0.42-0.22-0.64-0.32
			c-0.19-0.09-0.38-0.16-0.56-0.24c-0.22-0.09-0.44-0.18-0.66-0.25c-0.22-0.08-0.43-0.14-0.65-0.21c-0.19-0.06-0.38-0.1-0.57-0.15
			c-0.24-0.06-0.48-0.12-0.73-0.16c-0.18-0.03-0.36-0.06-0.54-0.09c-0.25-0.04-0.5-0.07-0.75-0.09c-0.18-0.02-0.35-0.03-0.53-0.04
			c-0.27-0.02-0.54-0.02-0.81-0.02l-0.01-0.01c-0.15,0-0.3,0.01-0.45,0.01c-0.28,0.01-0.57,0.03-0.85,0.07
			c-0.15,0.02-0.31,0.03-0.46,0.05c-0.28,0.04-0.55,0.09-0.83,0.15c-0.15,0.03-0.3,0.06-0.46,0.1c-0.28,0.07-0.55,0.14-0.82,0.23
			c-0.14,0.04-0.28,0.09-0.42,0.14c-0.31,0.11-0.62,0.23-0.92,0.36c-0.09,0.04-0.18,0.08-0.28,0.12c-0.35,0.16-0.68,0.33-1.01,0.52
			c-0.04,0.02-0.09,0.04-0.13,0.07l-0.16,0.09c-0.06,0.03-0.12,0.07-0.17,0.1l-78.72,45.35c-0.12,0.07-0.23,0.15-0.35,0.23
			c-0.21,0.13-0.42,0.27-0.63,0.41c-0.18,0.12-0.35,0.25-0.52,0.38c-0.18,0.14-0.35,0.28-0.52,0.42c-0.16,0.13-0.31,0.27-0.46,0.41
			c-0.17,0.16-0.34,0.32-0.5,0.49c-0.14,0.15-0.28,0.3-0.42,0.46c-0.14,0.16-0.28,0.33-0.42,0.5c-0.14,0.17-0.27,0.35-0.39,0.52
			c-0.12,0.17-0.25,0.35-0.36,0.54c-0.12,0.18-0.23,0.37-0.34,0.55c-0.11,0.19-0.21,0.38-0.31,0.57c-0.1,0.19-0.19,0.39-0.28,0.59
			c-0.09,0.2-0.18,0.39-0.26,0.59c-0.08,0.2-0.15,0.41-0.23,0.61c-0.07,0.2-0.13,0.39-0.19,0.59c-0.06,0.22-0.12,0.45-0.17,0.67
			c-0.05,0.2-0.09,0.41-0.13,0.61c-0.04,0.22-0.08,0.45-0.11,0.67c-0.03,0.21-0.05,0.42-0.07,0.63c-0.02,0.25-0.03,0.49-0.04,0.75
			c-0.01,0.14-0.02,0.28-0.02,0.42v90.7c0,0.06,0.01,0.13,0,0.2v0.18c0,0.05,0.01,0.1,0.01,0.15c0,0.38,0.02,0.76,0.06,1.13
			c0.01,0.1,0.02,0.2,0.03,0.3c0.04,0.33,0.09,0.65,0.15,0.97c0.03,0.15,0.06,0.29,0.09,0.43c0.06,0.28,0.13,0.55,0.21,0.82
			c0.04,0.15,0.09,0.3,0.14,0.44c0.09,0.27,0.18,0.53,0.29,0.79c0.06,0.14,0.12,0.28,0.18,0.42c0.11,0.26,0.24,0.51,0.37,0.77
			c0.07,0.13,0.14,0.27,0.21,0.4c0.13,0.23,0.27,0.46,0.42,0.69c0.1,0.15,0.2,0.29,0.3,0.44c0.15,0.2,0.29,0.4,0.45,0.6
			c0.11,0.14,0.23,0.28,0.35,0.42c0.16,0.19,0.33,0.37,0.5,0.55c0.14,0.14,0.28,0.28,0.42,0.41c0.16,0.15,0.33,0.31,0.5,0.46
			c0.18,0.15,0.37,0.3,0.55,0.44c0.16,0.12,0.32,0.25,0.48,0.36c0.2,0.14,0.4,0.27,0.61,0.39c0.13,0.08,0.25,0.17,0.38,0.24
			l79.05,45.55c0.13,0.08,0.26,0.14,0.4,0.21c0.21,0.11,0.42,0.22,0.64,0.32c0.19,0.09,0.37,0.16,0.56,0.24
			c0.22,0.09,0.43,0.18,0.66,0.26c0.22,0.08,0.43,0.14,0.65,0.2c0.19,0.05,0.37,0.11,0.56,0.16c0.24,0.06,0.49,0.11,0.73,0.16
			c0.18,0.03,0.36,0.07,0.54,0.09c0.26,0.04,0.51,0.07,0.77,0.09c0.16,0.02,0.33,0.02,0.49,0.04c0.28,0.02,0.55,0.02,0.83,0.02
			c0.15,0,0.3-0.01,0.45-0.01c0.28-0.01,0.57-0.03,0.85-0.06c0.15-0.02,0.3-0.04,0.45-0.05c0.28-0.04,0.55-0.09,0.83-0.14
			c0.15-0.03,0.3-0.06,0.46-0.1c0.28-0.07,0.55-0.14,0.82-0.23c0.14-0.04,0.28-0.09,0.42-0.14c0.31-0.11,0.62-0.23,0.92-0.36
			c0.09-0.04,0.18-0.08,0.27-0.12c0.35-0.16,0.68-0.33,1.01-0.52c0.04-0.02,0.09-0.04,0.13-0.07l0.16-0.09
			c0.06-0.03,0.11-0.07,0.17-0.1l78.72-45.35c0.03-0.02,0.06-0.04,0.1-0.06c0.18-0.11,0.35-0.22,0.52-0.33
			c0.13-0.08,0.25-0.16,0.37-0.25c0.08-0.06,0.16-0.11,0.24-0.16c0.14-0.11,0.29-0.21,0.42-0.32c0.13-0.11,0.26-0.22,0.39-0.33
			c0.08-0.07,0.16-0.13,0.23-0.2c0.12-0.11,0.24-0.22,0.36-0.33c0.11-0.11,0.21-0.21,0.32-0.32c0.11-0.11,0.21-0.22,0.32-0.33
			c0.08-0.09,0.16-0.19,0.24-0.29c0.1-0.11,0.19-0.22,0.28-0.34c0.1-0.13,0.21-0.26,0.31-0.39c0.07-0.1,0.15-0.2,0.22-0.3
			c0.09-0.13,0.17-0.26,0.26-0.39c0.08-0.13,0.17-0.26,0.24-0.39c0.03-0.05,0.07-0.1,0.1-0.16c0.04-0.07,0.08-0.14,0.11-0.21
			c0.05-0.1,0.1-0.19,0.15-0.29c0.11-0.21,0.21-0.43,0.31-0.65c0.1-0.21,0.19-0.43,0.28-0.65c0.03-0.08,0.06-0.15,0.09-0.23
			c0.04-0.11,0.08-0.23,0.11-0.34c0.07-0.21,0.14-0.42,0.2-0.63c0.02-0.09,0.06-0.17,0.08-0.26c0.04-0.17,0.08-0.34,0.11-0.5
			c0.03-0.15,0.07-0.3,0.1-0.46c0.02-0.11,0.04-0.22,0.06-0.33c0.02-0.19,0.05-0.38,0.07-0.56c0.02-0.14,0.03-0.29,0.05-0.43
			c0.01-0.09,0.03-0.18,0.03-0.27c0.01-0.21,0.03-0.41,0.03-0.62c0-0.1,0.03-0.19,0.03-0.29v-90.7v-0.2v-0.19v-0.15
			c0-0.38-0.02-0.76-0.06-1.13C332.43,203.08,332.41,202.98,332.4,202.88z M288.22,250c0,0.03,0,0.05,0,0.07
			c0,0.03,0,0.06-0.01,0.09c0,0.02,0,0.03,0,0.05c0,0.04-0.01,0.07-0.01,0.11c0,0.01,0,0.03,0,0.04c-0.01,0.03-0.01,0.07-0.01,0.1
			c0,0.01-0.01,0.03-0.01,0.04c-0.01,0.03-0.02,0.06-0.02,0.09c0,0.02-0.01,0.04-0.01,0.05c0,0.03-0.02,0.06-0.02,0.09
			c-0.01,0.02-0.01,0.04-0.02,0.06c-0.01,0.02-0.01,0.05-0.02,0.07c-0.01,0.02-0.02,0.05-0.02,0.07c-0.01,0.02-0.01,0.05-0.02,0.07
			c-0.01,0.03-0.02,0.05-0.03,0.08c-0.01,0.02-0.02,0.03-0.02,0.05c-0.01,0.03-0.02,0.06-0.04,0.09c-0.01,0.02-0.02,0.03-0.02,0.05
			c-0.02,0.03-0.03,0.06-0.05,0.09c-0.01,0.01-0.01,0.03-0.02,0.04c-0.01,0.03-0.03,0.06-0.05,0.09c-0.01,0-0.01,0.02-0.01,0.02
			l-9,15.58c-0.4,0.76-1.13,1.32-1.99,1.51c-0.01,0-0.01,0.01-0.02,0.01c-0.03,0.01-0.06,0.01-0.09,0.02
			c-0.02,0-0.04,0.01-0.06,0.01c-0.02,0-0.05,0-0.07,0.01c-0.03,0-0.05,0-0.08,0.01c-0.03,0-0.05,0.01-0.07,0.01
			c-0.03,0-0.05,0-0.07,0.01c-0.03,0-0.05,0-0.08,0c-0.03,0-0.05,0-0.08,0c-0.02,0-0.03,0-0.03,0h-16.34l-8.11,14.05
			c-0.02,0.04-0.04,0.07-0.06,0.11l-9.04,15.66c-0.54,0.94-1.51,1.47-2.51,1.51c-0.01,0-0.02,0-0.03,0c-0.03,0-0.05,0-0.08,0
			c-0.03,0-0.05,0-0.07,0c-0.01,0-0.01,0-0.03,0c-1-0.03-1.97-0.57-2.51-1.51l-9.04-15.66c-0.01-0.03-0.03-0.06-0.05-0.09
			l-8.12-14.07h-16.34c-0.01,0-0.02,0-0.03,0c-0.03,0-0.06,0-0.08,0c-0.02,0-0.05,0-0.07,0c-0.02,0-0.05-0.01-0.07-0.01
			c-0.02,0-0.05,0-0.07-0.01c-0.03,0-0.05,0-0.08-0.01c-0.02,0-0.04-0.01-0.07-0.01c-0.02,0-0.04-0.01-0.06-0.01
			c-0.03-0.01-0.06-0.01-0.09-0.01c-0.01,0-0.02,0-0.03-0.01c-0.86-0.19-1.59-0.75-1.99-1.51l-8.99-15.58
			c-0.01-0.01-0.01-0.02-0.02-0.03c-0.01-0.03-0.03-0.05-0.04-0.08c-0.01-0.02-0.02-0.03-0.03-0.05c-0.01-0.03-0.03-0.06-0.04-0.09
			c-0.01-0.02-0.02-0.03-0.03-0.05c-0.01-0.03-0.02-0.06-0.03-0.08c-0.01-0.02-0.02-0.04-0.02-0.06c-0.01-0.03-0.02-0.06-0.03-0.08
			c0-0.02-0.02-0.04-0.02-0.06c-0.01-0.02-0.02-0.05-0.02-0.08c-0.01-0.02-0.02-0.05-0.02-0.07c-0.01-0.02-0.01-0.04-0.02-0.06
			c-0.01-0.03-0.02-0.06-0.02-0.08c0-0.01,0-0.03-0.01-0.05c-0.01-0.03-0.02-0.06-0.02-0.1c0-0.02,0-0.03,0-0.04
			c-0.01-0.03-0.01-0.07-0.01-0.1c0-0.02,0-0.04-0.01-0.05c0-0.03-0.01-0.06-0.01-0.09c0-0.03,0-0.05,0-0.08c0-0.02,0-0.05,0-0.07
			v-0.15c0-0.03,0-0.05,0-0.07c0-0.03,0-0.05,0-0.07c0-0.03,0-0.06,0.01-0.09c0-0.02,0-0.03,0.01-0.05c0-0.04,0.01-0.07,0.01-0.11
			c0-0.01,0-0.03,0-0.03c0.01-0.04,0.02-0.07,0.02-0.11c0-0.01,0-0.03,0.01-0.04c0.01-0.03,0.01-0.06,0.02-0.09
			c0-0.02,0.01-0.04,0.01-0.06c0.01-0.02,0.01-0.05,0.02-0.07c0.01-0.03,0.02-0.05,0.02-0.08c0.01-0.02,0.01-0.04,0.02-0.06
			c0.01-0.03,0.02-0.06,0.03-0.08c0.01-0.02,0.02-0.04,0.03-0.06c0.01-0.03,0.02-0.05,0.03-0.08c0-0.02,0.01-0.03,0.02-0.05
			c0.02-0.03,0.03-0.06,0.04-0.09c0.01-0.02,0.02-0.03,0.03-0.05c0.01-0.03,0.03-0.05,0.04-0.08c0.01-0.01,0.01-0.02,0.02-0.03
			l8.99-15.58c0.41-0.76,1.13-1.32,1.99-1.51c0.01-0.01,0.02-0.01,0.03-0.01c0.03-0.01,0.06-0.01,0.09-0.02
			c0.02,0,0.04-0.01,0.06-0.01c0.02,0,0.05-0.01,0.07-0.01c0.02,0,0.05-0.01,0.08-0.01c0.02,0,0.05-0.01,0.07-0.01
			c0.02-0.01,0.05-0.01,0.07-0.01h0.07c0.03,0,0.06,0,0.08,0c0.01,0,0.02,0,0.03,0h16.34l7.3-12.65l-7.3-12.65h-4.29
			c-1.67,0-3.01-1.35-3.01-3.01c0-1.67,1.34-3.01,3.01-3.01l6.03-0.01h0.18c0.03,0.01,0.05,0.01,0.08,0.01
			c0.02,0,0.05,0.01,0.08,0.01c0.02,0,0.04,0.01,0.06,0.01c0.03,0,0.06,0,0.09,0.01c0.02,0,0.03,0.01,0.05,0.01
			c0.03,0,0.06,0.01,0.1,0.02c0,0.01,0.02,0.01,0.03,0.01c0.86,0.19,1.59,0.75,1.99,1.51l8.13,14.08h14.6l8.13-14.08
			c0.41-0.75,1.13-1.32,1.99-1.51c0.01-0.01,0.02-0.01,0.03-0.01c0.03-0.01,0.06-0.01,0.1-0.02c0.02,0,0.03-0.01,0.05-0.01
			c0.03,0,0.05-0.01,0.08-0.01c0.02,0,0.05-0.01,0.07-0.01c0.03,0,0.05-0.01,0.08-0.01c0.03-0.01,0.05-0.01,0.07-0.01h0.06
			c0.03,0,0.06,0,0.09,0c0.01,0,0.02,0,0.03,0h6.03c1.67,0,3.01,1.35,3.01,3.01c0,1.67-1.34,3.02-3.01,3.02h-4.29l-7.3,12.65
			l7.3,12.65h16.34c0.01,0,0.02,0,0.03,0h0.15c0.03,0.01,0.05,0.01,0.07,0.01c0.03,0,0.05,0.01,0.07,0.01
			c0.03,0,0.05,0.01,0.08,0.01c0.02,0,0.04,0.01,0.07,0.01c0.02,0,0.05,0.01,0.06,0.01c0.03,0.01,0.06,0.02,0.09,0.02
			c0.01,0.01,0.02,0.01,0.03,0.01c0.86,0.19,1.59,0.75,1.99,1.51l8.99,15.58c0.01,0.01,0.01,0.02,0.02,0.02
			c0.01,0.03,0.03,0.06,0.05,0.09c0.01,0.02,0.02,0.03,0.02,0.04c0.02,0.03,0.03,0.06,0.05,0.09c0.01,0.02,0.01,0.03,0.02,0.05
			c0.01,0.03,0.03,0.06,0.03,0.09c0.01,0.02,0.02,0.03,0.02,0.06c0.01,0.02,0.02,0.05,0.03,0.07c0.01,0.02,0.02,0.05,0.03,0.07
			c0.01,0.02,0.02,0.04,0.02,0.06c0.01,0.03,0.02,0.05,0.02,0.08c0.01,0.02,0.01,0.04,0.02,0.06c0,0.03,0.02,0.06,0.02,0.09
			c0,0.01,0.01,0.03,0.01,0.05c0.01,0.03,0.01,0.06,0.02,0.09c0,0.01,0,0.03,0.01,0.04c0,0.04,0.01,0.07,0.01,0.11
			c0,0.01,0,0.03,0,0.03c0,0.04,0.01,0.08,0.01,0.11c0,0.02,0,0.03,0,0.05c0.01,0.03,0.01,0.06,0.01,0.09
			C288.22,249.95,288.22,249.98,288.22,250z"/>
		<polygon class="st2" points="259.82,237.36 252.52,250.01 259.82,262.66 274.42,262.66 281.72,250.01 274.42,237.36 		"/>
	</g>
	<g>
		<path class="st2" d="M367.46,298.28c-5.59,0-7.95-4.67-7.95-9.28c0-4.61,2.36-9.28,7.95-9.28c3.07,0,5.76,1.86,6.48,5.11h2.01
			c-0.53-4.43-4.49-6.83-8.49-6.83c-6.65,0-9.96,5.23-9.96,11s3.31,11,9.96,11c4.94,0,8.22-3.31,8.78-8.49h-2.01
			C373.85,295.27,371.37,298.28,367.46,298.28z"/>
		<polygon class="st2" points="380.34,278 378.24,278 378.24,300 392.67,300 392.67,298.21 380.34,298.21 		"/>
		<path class="st2" d="M403.63,278c-6.65,0-9.96,5.23-9.96,11s3.31,11,9.96,11c6.62,0,9.94-5.23,9.94-11S410.25,278,403.63,278z
			 M403.63,298.28c-5.59,0-7.95-4.67-7.95-9.28c0-4.61,2.36-9.28,7.95-9.28c5.56,0,7.92,4.67,7.92,9.28
			C411.55,293.61,409.19,298.28,403.63,298.28z"/>
		<path class="st2" d="M430.26,291.34c0.03,5.01-2.35,6.91-6.34,6.91c-3.95,0-6.34-1.9-6.31-6.91V278h-2.05v13.79
			c0,4.44,2.38,8.21,8.36,8.21c6.01,0,8.39-3.77,8.39-8.21V278h-2.05V291.34z"/>
		<path class="st2" d="M441.92,278h-7.61v22h7.61c6.62-0.15,10.11-3.79,10.11-11S448.55,278.15,441.92,278z M440.88,298.21h-4.47
			v-18.43h4.47c6.32-0.03,9.06,2.65,9.06,9.21S447.19,298.24,440.88,298.21z"/>
	</g>
	<g>
		<path class="st2" d="M475.4,288.38v-0.06c2.28-0.49,3.82-2.62,3.82-4.93c0-4.1-3.36-5.39-7.06-5.39h-9.3v22h9.3
			c7.15,0,7.89-4.16,7.89-6.26C480.05,290.88,478.23,288.75,475.4,288.38z M464.95,279.79h7.21c3.27,0,4.96,1.39,4.96,4.13
			c0,2.06-1.6,3.73-4.96,3.73h-7.21V279.79z M472.16,298.21h-7.21v-8.78h7.21c3.67,0,5.79,1.45,5.79,4.25
			C477.96,297.2,475.28,298.24,472.16,298.21z"/>
		<path class="st2" d="M488.93,278l-8.87,22h2.25l2.65-6.84h10.01l2.68,6.84h2.25l-8.63-22H488.93z M485.6,291.37L490,280.1
			l4.25,11.28H485.6z"/>
		<path class="st2" d="M510.93,288.41l-5.14-1.27c-1.72-0.41-3.19-1.24-3.19-3.22c0-3.13,2.54-4.2,5.29-4.2
			c2.99,0,5.65,1.63,5.76,4.85h2.01c0.03-4.32-3.64-6.56-7.81-6.56c-5.94,0-7.27,3.87-7.27,5.94c0,3.28,2.28,4.47,4.76,5.09
			l4.7,1.15c1.95,0.47,4.35,1.42,4.35,3.81c0,3.08-3.37,4.29-5.59,4.29c-3.84,0-6.98-1.33-6.89-5.68h-2.01
			c-0.24,5.15,3.43,7.39,8.43,7.39c7.48,0,8.07-4.58,8.07-6.03C516.4,290.51,513.92,289.21,510.93,288.41z"/>
		<polygon class="st2" points="520.5,289.52 532.76,289.52 532.76,287.74 520.5,287.74 520.5,279.79 533.59,279.79 533.59,278 
			518.4,278 518.4,300 533.75,300 533.75,298.21 520.5,298.21 		"/>
	</g>
	<g>
		<path class="st2" d="M544.98,257.15c2.59,4.03,6.25,7.18,10.98,9.45c4.73,2.27,10.23,3.4,16.47,3.4c10.04,0,17.58-2.73,22.63-8.19
			l-11.17-11.08c-1.83,1.36-3.52,2.33-5.07,2.89c-1.55,0.56-3.46,0.84-5.73,0.84c-2.65,0-4.86-0.51-6.63-1.54
			c-1.77-1.02-3.03-2.5-3.79-4.42h32.43c0.58,3.1,1.71,5.99,3.42,8.66c2.59,4.03,6.25,7.18,10.98,9.45
			c4.73,2.27,10.23,3.4,16.47,3.4c10.04,0,17.58-2.73,22.63-8.19l-11.17-11.08c-1.83,1.36-3.52,2.33-5.06,2.89
			c-1.55,0.56-3.46,0.84-5.73,0.84c-2.65,0-4.86-0.51-6.63-1.54c-1.77-1.02-3.03-2.5-3.79-4.42h35.98c0.19-2.98,0.28-4.62,0.28-4.93
			c0-5.52-1.28-10.27-3.83-14.24c-2.56-3.97-6-6.98-10.32-9.03c-4.32-2.05-9.11-3.07-14.35-3.07c-5.55,0-10.56,1.12-15.01,3.35
			c-4.45,2.23-7.95,5.35-10.51,9.35c-0.59,0.92-1.11,1.88-1.56,2.86c-0.51-1.21-1.11-2.37-1.81-3.47c-2.56-3.97-6-6.98-10.32-9.03
			c-4.32-2.05-9.11-3.07-14.35-3.07c-5.56,0-10.56,1.12-15.01,3.35c-4.45,2.23-7.95,5.35-10.51,9.35c-0.37,0.58-0.71,1.18-1.03,1.79
			c-0.31-0.7-0.64-1.4-1.02-2.07c-2.24-4-5.27-7.08-9.09-9.22c-3.82-2.14-8-3.21-12.55-3.21c-5.75,0-10.13,1.46-13.16,4.38V200
			h-21.4v70h20.36v-5.12c3.09,3.41,7.83,5.12,14.2,5.12c4.54,0,8.73-1.07,12.55-3.21c3.82-2.14,6.85-5.23,9.09-9.26
			c0.39-0.7,0.73-1.43,1.05-2.17C544.26,255.97,544.6,256.57,544.98,257.15z M618.7,233.32c1.45-1.18,3.28-1.77,5.49-1.77
			c2.21,0,4.04,0.6,5.49,1.81c1.45,1.21,2.4,2.87,2.84,4.98h-16.67C616.3,236.18,617.24,234.5,618.7,233.32z M565.14,233.32
			c1.45-1.18,3.28-1.77,5.49-1.77c2.21,0,4.04,0.6,5.49,1.81c1.45,1.21,2.4,2.87,2.84,4.98H562.3
			C562.74,236.18,563.69,234.5,565.14,233.32z M523.94,250.96c-1.58,1.77-3.6,2.65-6.06,2.65c-2.46,0-4.48-0.88-6.06-2.65
			c-1.58-1.77-2.37-4.24-2.37-7.4c0-3.16,0.79-5.61,2.37-7.35c1.58-1.74,3.6-2.61,6.06-2.61c2.46,0,4.48,0.87,6.06,2.61
			c1.58,1.74,2.37,4.19,2.37,7.35C526.31,246.73,525.52,249.2,523.94,250.96z"/>
		<path class="st2" d="M448.77,232.45c-1.63,1.43-4.07,2.15-7.32,2.15h-8.75v17.8h6.51l12.1,17.6h25.63l-14.95-21.6
			c4.34-2.2,7.66-5.17,9.97-8.9c2.3-3.73,3.46-8.1,3.46-13.1c0-5.33-1.32-10-3.97-14c-2.65-4-6.41-7.06-11.29-9.2
			c-4.88-2.13-10.61-3.2-17.19-3.2h-15.29H408.7h-5.02v34.6H381.5V200h-24v70h24v-17.58h22.17V270h24v-51.8h5.02h8.75
			c3.25,0,5.69,0.72,7.32,2.15c1.63,1.43,2.44,3.45,2.44,6.05C451.21,229,450.4,231.02,448.77,232.45z"/>
	</g>
	<g>
		<path class="st2" d="M571.28,285.77c0-1.17-0.83-1.55-1.7-1.55h-3.23v3.07h3.23C570.29,287.3,571.28,286.92,571.28,285.77z"/>
		<path class="st2" d="M569.69,289.99h-3.34v3.67h3.34c1.32,0,2.24-0.47,2.24-1.79C571.93,290.46,570.94,289.99,569.69,289.99z"/>
		<path class="st2" d="M542.5,278v22h110v-22H542.5z M569.87,297h-7.69v-16h7.48c2.76-0.04,5.78,0.67,5.78,4.01
			c0,1.43-0.85,2.6-2.11,3.23c1.7,0.49,2.76,1.97,2.76,3.79C576.09,295.83,573.29,297,569.87,297z M595.36,297h-12.97v-16h12.75
			v3.34h-8.58v2.8h7.84v3.23h-7.84v3.05h8.81V297z M614.45,284.59h-4.77V297h-4.17v-12.41h-4.77V281h13.71V284.59z M628.47,297
			l-0.99-2.87h-5.58L620.9,297h-4.28l5.98-16h4.23l5.98,16H628.47z"/>
		<polygon class="st2" points="624.69,285.44 622.87,291.04 626.5,291.04 624.73,285.44 		"/>
	</g>
</g>
</svg>
