<?xml version="1.0" encoding="utf-8"?>
<!-- Generator: Adobe Illustrator 24.0.2, SVG Export Plug-In . SVG Version: 6.00 Build 0)  -->
<svg version="1.1" id="Layer_1" xmlns="http://www.w3.org/2000/svg" xmlns:xlink="http://www.w3.org/1999/xlink" x="0px" y="0px"
	 viewBox="0 0 25 25" style="enable-background:new 0 0 25 25;" xml:space="preserve">
<style type="text/css">
	.st0{fill:#ffffff;}
	.st1{fill:#ffffff;enable-background:new    ;}
</style>
<g>
	<path id="path7772_2_" class="st0" d="M12.5,2c2.91,0,5.52,1.19,7.42,3.08C21.83,6.98,23,9.62,23,12.5c0,2.91-1.17,5.52-3.08,7.42
		C18.02,21.81,15.41,23,12.5,23c-2.91,0-5.52-1.19-7.42-3.08C3.17,18.02,2,15.38,2,12.5c0-2.91,1.17-5.54,3.08-7.42S9.62,2,12.5,2
		L12.5,2z M19.35,5.67c-1.76-1.76-4.18-2.84-6.85-2.84S7.41,3.91,5.65,5.67c-1.76,1.76-2.84,4.18-2.84,6.85
		c0,2.67,1.08,5.09,2.84,6.85c1.76,1.76,4.18,2.84,6.85,2.84s5.09-1.08,6.85-2.84c1.76-1.76,2.84-4.18,2.84-6.85
		C22.19,9.83,21.11,7.41,19.35,5.67L19.35,5.67z"/>
	<path id="path7842_2_" class="st1" d="M17.87,9.23c-0.38,0.17-0.81,0.28-1.25,0.34c0.47-0.28,0.81-0.7,0.98-1.21
		c-0.42,0.25-0.89,0.42-1.4,0.53c-0.4-0.42-0.98-0.68-1.61-0.68c-1.21,0-2.21,0.98-2.21,2.16c0,0.17,0.02,0.34,0.06,0.49
		C10.61,10.78,8.98,9.91,7.9,8.6C7.71,8.92,7.6,9.3,7.6,9.68c0,0.76,0.4,1.42,0.98,1.8c-0.36,0-0.7-0.11-1-0.28
		c0,0.02,0,0.02,0,0.02c0,0.28,0.04,0.53,0.15,0.78C8,12.69,8.6,13.2,9.34,13.35c-0.19,0.04-0.38,0.08-0.57,0.08
		c-0.15,0-0.28-0.02-0.4-0.04c0.28,0.87,1.1,1.48,2.06,1.51c-0.76,0.57-1.7,0.93-2.74,0.93c-0.19,0-0.34-0.02-0.53-0.02
		c0.98,0.62,2.14,0.98,3.37,0.98c3.44,0,5.56-2.38,6.11-4.86c0.11-0.45,0.15-0.87,0.15-1.32c0-0.08,0-0.19,0-0.28
		C17.21,10.06,17.59,9.68,17.87,9.23L17.87,9.23L17.87,9.23z"/>
</g>
</svg>
