<?xml version="1.0" encoding="utf-8"?>
<!-- Generator: Adobe Illustrator 27.3.1, SVG Export Plug-In . SVG Version: 6.00 Build 0)  -->
<svg version="1.1" id="Layer_1" xmlns="http://www.w3.org/2000/svg" xmlns:xlink="http://www.w3.org/1999/xlink" x="0px" y="0px"
	 viewBox="0 0 30 30" style="enable-background:new 0 0 30 30;" xml:space="preserve">
<style type="text/css">
	.st0{fill:#3099F1;}
	.st1{fill:#808184;}
</style>
<g>
	<path class="st1" d="M14.97,25c-1.9-0.02-3.7-0.53-5.34-1.57c-0.27-0.17-0.3-0.33-0.12-0.58c0.98-1.36,1.95-2.71,2.93-4.07
		c0.16-0.22,0.28-0.24,0.52-0.12c1.37,0.7,2.74,0.7,4.11-0.01c0.23-0.12,0.37-0.09,0.52,0.12c0.98,1.36,1.95,2.73,2.93,4.1
		c0.17,0.24,0.13,0.4-0.13,0.57C18.74,24.47,16.95,24.98,14.97,25z M17.26,24.07c0-1.54,0-3.05,0-4.56c0-0.06-0.04-0.13-0.06-0.19
		c-0.15,0.06-0.26,0.12-0.38,0.16c-0.15,0.04-0.2,0.12-0.2,0.28c0.01,1.4,0,2.81,0,4.21c0,0.07,0,0.14,0,0.24
		C16.84,24.16,17.05,24.12,17.26,24.07z M13.39,24.21c0-0.1,0-0.17,0-0.24c0-1.32,0-2.63,0-3.95c0-0.46,0-0.46-0.42-0.63
		c-0.01,0-0.01-0.01-0.02-0.01c-0.12-0.07-0.17,0.01-0.2,0.11c-0.01,0.04,0,0.09,0,0.14c0,1.42,0,2.84,0,4.27
		c0,0.06,0.01,0.12,0.01,0.19C12.97,24.12,13.17,24.16,13.39,24.21z M15.96,24.3c0-1.54,0-3.04,0-4.56
		c-0.21,0.03-0.42,0.05-0.62,0.08c0,1.51,0,3.01,0,4.53C15.55,24.33,15.75,24.31,15.96,24.3z M14.67,24.34c0-1.52,0-3.02,0-4.53
		c-0.21-0.03-0.41-0.05-0.62-0.08c0,1.53,0,3.04,0,4.56C14.26,24.31,14.46,24.33,14.67,24.34z M17.92,20.34c0,1.21,0,2.36,0,3.55
		c0.17-0.06,0.33-0.13,0.49-0.17c0.11-0.03,0.15-0.09,0.15-0.21c-0.01-0.71,0-1.42,0-2.13c0-0.05,0.01-0.12-0.02-0.16
		C18.34,20.93,18.14,20.66,17.92,20.34z M12.09,20.43c-0.01-0.01-0.02-0.01-0.04-0.02c-0.19,0.26-0.38,0.53-0.57,0.79
		c-0.02,0.03-0.03,0.09-0.03,0.13c0,0.73,0,1.46,0,2.19c0,0.05,0.02,0.12,0.05,0.13c0.19,0.08,0.38,0.15,0.59,0.22
		C12.09,22.71,12.09,21.57,12.09,20.43z M19.21,22.15c0,0.43,0,0.8,0,1.2c0.22-0.12,0.41-0.23,0.62-0.34
		C19.62,22.72,19.43,22.46,19.21,22.15z M10.79,23.35c0-0.41,0-0.77,0-1.19c-0.22,0.3-0.41,0.57-0.61,0.85
		C10.4,23.14,10.59,23.24,10.79,23.35z"/>
	<path class="st1" d="M5.96,15c0.01-4.11,2.77-7.7,6.73-8.74c0.24-0.06,0.48-0.11,0.73-0.16c0.26-0.05,0.42,0.06,0.45,0.32
		c0.1,0.92,0.19,1.84,0.29,2.76c0.04,0.43,0.09,0.85,0.13,1.28c0.03,0.28-0.04,0.38-0.31,0.45c-1.72,0.49-2.78,1.61-3.11,3.36
		c-0.25,1.34,0.14,2.54,1.05,3.56c0.27,0.3,0.27,0.41-0.01,0.69c-0.92,0.92-1.83,1.83-2.75,2.75c-0.26,0.26-0.4,0.26-0.65-0.01
		c-1.44-1.49-2.27-3.27-2.5-5.33C5.98,15.63,5.98,15.32,5.96,15z M13.26,6.81C10.87,7.25,8.05,9.13,7,12.46
		c-0.98,3.11-0.02,6.32,1.83,8.19c0.83-0.83,1.66-1.66,2.5-2.49c-1.07-1.33-1.44-2.84-0.96-4.51c0.48-1.68,1.62-2.75,3.27-3.3
		C13.5,9.16,13.38,8,13.26,6.81z"/>
	<path class="st1" d="M24.04,15.08c-0.03,2.34-0.87,4.46-2.58,6.23c-0.22,0.22-0.37,0.22-0.6,0c-0.94-0.94-1.88-1.88-2.82-2.82
		c-0.22-0.22-0.22-0.36-0.01-0.59c1.29-1.41,1.53-3.21,0.65-4.92c-0.12-0.24-0.1-0.35,0.11-0.53c1.03-0.87,2.06-1.75,3.09-2.62
		c0.24-0.21,0.42-0.18,0.6,0.09C23.51,11.45,24.02,13.13,24.04,15.08z M21.16,20.67c2.77-2.87,2.82-7.38,0.9-10.15
		c-0.03,0.02-0.06,0.05-0.09,0.07c-0.83,0.7-1.66,1.41-2.49,2.11c-0.12,0.1-0.12,0.18-0.06,0.32c0.74,1.78,0.53,3.45-0.63,4.99
		c-0.04,0.06-0.09,0.11-0.12,0.15C19.51,19.02,20.34,19.84,21.16,20.67z"/>
	<path class="st1" d="M14.68,7.89c0-0.82,0-1.64,0-2.46c0-0.33,0.11-0.44,0.43-0.43c2.66,0.05,4.95,1,6.86,2.83
		c0.26,0.25,0.26,0.39,0.01,0.64c-1.16,1.16-2.32,2.32-3.48,3.48c-0.24,0.24-0.37,0.24-0.61,0.01c-0.79-0.74-1.73-1.13-2.82-1.15
		c-0.28-0.01-0.39-0.12-0.39-0.39C14.68,9.57,14.68,8.73,14.68,7.89z M21.39,8.16c-1.72-1.57-3.73-2.4-6.05-2.51
		c0,1.51,0,3.01,0,4.52c1.08,0.08,2.03,0.48,2.85,1.18c0.04-0.03,0.06-0.05,0.08-0.06C19.3,10.25,20.33,9.21,21.39,8.16z"/>
	<path class="st1" d="M15.01,11.45c1.96,0,3.55,1.6,3.54,3.56c-0.01,1.95-1.61,3.54-3.57,3.53c-1.95-0.01-3.53-1.6-3.53-3.55
		C11.46,13.04,13.05,11.45,15.01,11.45z M15.01,12.1c-1.6,0-2.91,1.29-2.91,2.88c-0.01,1.61,1.29,2.92,2.89,2.92
		c1.6,0,2.91-1.29,2.91-2.88C17.92,13.41,16.62,12.1,15.01,12.1z"/>
	<path class="st1" d="M15.34,12.43c-0.08,0.27,0.06,0.37,0.28,0.48c0.44,0.21,0.65,0.6,0.68,1.1c-0.21,0-0.42,0-0.63,0
		c-0.01-0.04-0.02-0.09-0.03-0.14c-0.09-0.33-0.4-0.53-0.72-0.48c-0.32,0.05-0.56,0.34-0.55,0.67c0.01,0.33,0.28,0.6,0.63,0.61
		c0.41,0.01,0.76,0.16,1.02,0.49c0.51,0.63,0.32,1.55-0.39,1.94c-0.27,0.15-0.27,0.15-0.31,0.47c-0.2,0-0.41,0-0.64,0
		c0.08-0.29-0.09-0.38-0.31-0.5c-0.42-0.22-0.63-0.6-0.65-1.09c0.22,0,0.42,0,0.63,0c0.01,0.05,0.02,0.1,0.04,0.15
		c0.1,0.32,0.41,0.53,0.72,0.47c0.32-0.06,0.56-0.35,0.54-0.68c-0.02-0.32-0.28-0.59-0.62-0.6c-0.37-0.01-0.7-0.13-0.96-0.4
		c-0.62-0.64-0.41-1.68,0.4-2.06c0.07-0.03,0.13-0.06,0.21-0.09c0-0.11,0-0.22,0-0.34C14.89,12.43,15.09,12.43,15.34,12.43z"/>
</g>
</svg>
