<?xml version="1.0" encoding="utf-8"?>
<!-- Generator: Adobe Illustrator 24.0.2, SVG Export Plug-In . SVG Version: 6.00 Build 0)  -->
<svg version="1.1" id="Layer_1" xmlns="http://www.w3.org/2000/svg" xmlns:xlink="http://www.w3.org/1999/xlink" x="0px" y="0px"
	 viewBox="0 0 30 30" style="enable-background:new 0 0 30 30;" xml:space="preserve">
<style type="text/css">
	.st0{opacity:0;fill:#FFFFFF;}
	.st1{fill:#3099f1;}
</style>
<g>
	<rect class="st0" width="30" height="30"/>
	<g>
		<path class="st1" d="M24.29,18.47h-5.13v-4.76c0-0.21-0.17-0.38-0.38-0.38h-0.66c0-0.09-0.01-0.18-0.04-0.27l-0.72-2.21l1.89-1.37
			c0.28-0.2,0.39-0.54,0.28-0.87c-0.11-0.33-0.4-0.54-0.74-0.54h-2.33l-0.71-2.21c-0.11-0.33-0.4-0.54-0.74-0.54
			s-0.63,0.21-0.74,0.54l-0.71,2.21h-2.33c-0.34,0-0.63,0.21-0.74,0.54c-0.11,0.33,0.01,0.67,0.28,0.87l1.89,1.37l-0.72,2.21
			c-0.03,0.09-0.04,0.18-0.04,0.27h-0.66c-0.21,0-0.38,0.17-0.38,0.38v4.76H5.71c-0.21,0-0.38,0.17-0.38,0.38v5.44
			c0,0.21,0.17,0.38,0.38,0.38h18.57c0.21,0,0.38-0.17,0.38-0.38v-1.21c0-0.21-0.17-0.38-0.38-0.38s-0.38,0.17-0.38,0.38v0.83h-4.76
			v-4.68h4.76v0.83c0,0.21,0.17,0.38,0.38,0.38s0.38-0.17,0.38-0.38v-1.21C24.66,18.64,24.49,18.47,24.29,18.47z M12.64,13.31
			l0.81-2.47c0.05-0.16,0-0.33-0.14-0.42L11.2,8.88c-0.01-0.01-0.01-0.01-0.01-0.03c0.01-0.02,0.01-0.02,0.02-0.02h2.61
			c0.16,0,0.31-0.11,0.36-0.26l0.8-2.47c0-0.01,0.01-0.02,0.02-0.02c0.02,0,0.02,0,0.02,0.02l0.8,2.47c0.05,0.16,0.2,0.26,0.36,0.26
			h2.61c0.01,0,0.02,0,0.02,0.02c0.01,0.02,0,0.02-0.01,0.03l-2.11,1.53c-0.13,0.1-0.19,0.27-0.14,0.42l0.81,2.47
			c0,0.01,0.01,0.02-0.01,0.03s-0.02,0.01-0.03,0l-2.1-1.53c-0.07-0.05-0.14-0.07-0.22-0.07s-0.16,0.02-0.22,0.07l-2.1,1.53
			c-0.01,0.01-0.01,0.01-0.03,0C12.63,13.32,12.64,13.32,12.64,13.31z M15,12.57l1.05,0.77h-2.11L15,12.57z M6.09,19.23h4.76v4.68
			H6.09V19.23z M11.6,18.85v-4.76h1.03c0.01,0,0.02,0,0.03,0c0.01,0,0.02,0,0.03,0h4.63c0.02,0,0.03,0,0.05,0h1.03v9.81H11.6V18.85z
			"/>
		<path class="st1" d="M22.25,6.64c0.21,0,0.38-0.17,0.38-0.38V5.71c0-0.21-0.17-0.38-0.38-0.38s-0.38,0.17-0.38,0.38v0.54
			C21.87,6.47,22.04,6.64,22.25,6.64z"/>
		<path class="st1" d="M22.25,9.11c0.21,0,0.38-0.17,0.38-0.38V8.19c0-0.21-0.17-0.38-0.38-0.38s-0.38,0.17-0.38,0.38v0.54
			C21.87,8.94,22.04,9.11,22.25,9.11z"/>
		<path class="st1" d="M23.21,7.6h0.54c0.21,0,0.38-0.17,0.38-0.38s-0.17-0.38-0.38-0.38h-0.54c-0.21,0-0.38,0.17-0.38,0.38
			S23.01,7.6,23.21,7.6z"/>
		<path class="st1" d="M20.74,7.6h0.54c0.21,0,0.38-0.17,0.38-0.38s-0.17-0.38-0.38-0.38h-0.54c-0.21,0-0.38,0.17-0.38,0.38
			S20.53,7.6,20.74,7.6z"/>
		<path class="st1" d="M7.75,11.37c0.21,0,0.38-0.17,0.38-0.38v-0.54c0-0.21-0.17-0.38-0.38-0.38s-0.38,0.17-0.38,0.38v0.54
			C7.37,11.2,7.54,11.37,7.75,11.37z"/>
		<path class="st1" d="M7.75,13.84c0.21,0,0.38-0.17,0.38-0.38v-0.54c0-0.21-0.17-0.38-0.38-0.38s-0.38,0.17-0.38,0.38v0.54
			C7.37,13.67,7.54,13.84,7.75,13.84z"/>
		<path class="st1" d="M8.72,12.33h0.54c0.21,0,0.38-0.17,0.38-0.38c0-0.21-0.17-0.38-0.38-0.38H8.72c-0.21,0-0.38,0.17-0.38,0.38
			C8.34,12.16,8.51,12.33,8.72,12.33z"/>
		<path class="st1" d="M6.24,12.33h0.54c0.21,0,0.38-0.17,0.38-0.38c0-0.21-0.17-0.38-0.38-0.38H6.24c-0.21,0-0.38,0.17-0.38,0.38
			C5.86,12.16,6.03,12.33,6.24,12.33z"/>
		<path class="st1" d="M24.29,21.19c-0.1,0-0.2,0.04-0.27,0.11s-0.11,0.17-0.11,0.27s0.04,0.2,0.11,0.27s0.17,0.11,0.27,0.11
			s0.2-0.04,0.27-0.11s0.11-0.17,0.11-0.27s-0.04-0.2-0.11-0.27S24.39,21.19,24.29,21.19z"/>
	</g>
</g>
</svg>
