<?xml version="1.0" encoding="utf-8"?>
<!-- Generator: Adobe Illustrator 24.0.2, SVG Export Plug-In . SVG Version: 6.00 Build 0)  -->
<svg version="1.1" id="Layer_1" xmlns="http://www.w3.org/2000/svg" xmlns:xlink="http://www.w3.org/1999/xlink" x="0px" y="0px"
	 viewBox="0 0 30 30" style="enable-background:new 0 0 30 30;" xml:space="preserve">
<style type="text/css">
	.st0{opacity:0;fill:#FFFFFF;}
	.st1{fill:#3099f1;}
</style>
<g>
	<rect class="st0" width="30" height="30"/>
	<g>
		<path class="st1" d="M20.49,17.21c-1.13,0-2.19,0.5-2.9,1.36c-0.03-0.01-0.05-0.03-0.08-0.04c-0.01,0-0.02-0.01-0.04-0.01
			l-1.54-0.55v-0.55c0-0.12-0.06-0.22-0.15-0.28c-0.01-0.01-0.02-0.01-0.03-0.02l-0.87-0.35v-0.05c1.45-0.6,2.43-1.98,2.51-3.54
			c0.59-0.24,0.92-0.87,0.77-1.49c-0.08-0.33-0.31-0.59-0.62-0.72l0.07-1.04c0.08-1.15-0.3-2.26-1.06-3.13
			c-0.76-0.87-1.82-1.39-2.98-1.47c-1.31-0.09-2.58,0.41-3.48,1.36C9.27,7.58,8.84,8.76,8.93,9.95L9,10.98
			c-0.32,0.12-0.55,0.39-0.63,0.72c-0.15,0.63,0.18,1.26,0.78,1.49c0.09,1.56,1.08,2.95,2.54,3.55v0.03l-0.88,0.35l-0.01,0.01
			c-0.01,0-0.02,0.01-0.03,0.01c-0.1,0.05-0.17,0.16-0.18,0.28v0.55l-1.53,0.55c-0.01,0-0.02,0.01-0.03,0.01
			c-0.74,0.37-1.22,1.07-1.29,1.89l0,2.87c0,0.18,0.14,0.32,0.32,0.32h3.9l1.14,0.9c0.12,0.09,0.27,0.09,0.39,0l1.14-0.9h3.22
			c0.7,0.68,1.62,1.06,2.6,1.06c0.01,0,0.01,0,0.02,0c2.07,0,3.76-1.67,3.76-3.73S22.57,17.21,20.49,17.21z M11.61,17.48l0.08-0.03
			v0.09L11.61,17.48z M23.62,20.94c0,1.71-1.4,3.1-3.13,3.1c-1.72,0-3.12-1.39-3.12-3.1s1.4-3.1,3.12-3.1
			C22.22,17.84,23.62,19.23,23.62,20.94z M13.94,19.03l-0.1-0.07L15.3,18v0.09l-0.92,1.23l-0.34-0.23l0.03-0.08L13.94,19.03z
			 M14.28,20.01c0.14,0.09,0.33,0.06,0.43-0.07l1.04-1.37l0.95,0.34c-0.43,0.39-0.71,0.94-0.75,1.5l-0.01,0.03v2.55h-1.18
			l-0.57-3.05L14.28,20.01z M12.33,16.94c0.3,0.07,0.62,0.11,0.93,0.11c0.01,0,0.02,0,0.04,0c0.32,0,0.64-0.04,0.95-0.12v1.02
			l-0.96,0.64l-0.95-0.64V16.94z M14.87,17.54v-0.08l0.08,0.03L14.87,17.54z M9.52,12.65c-0.17-0.03-0.33-0.13-0.43-0.27
			s-0.14-0.32-0.11-0.49l0.01-0.03c0.03-0.11,0.1-0.21,0.2-0.26c0.05,0.05,0.1,0.09,0.16,0.12c0.01,0.01,0.02,0.01,0.03,0.01
			c0.64,0.25,0.73,0.22,0.85,0.15c0.09-0.05,0.14-0.15,0.15-0.25l0.12-1.5l0.46,0.05c1.37,0.15,2.74-0.43,3.58-1.51l0.21,0.01
			c0.48,0.02,0.91,0.31,1.1,0.74l0.59,2.42c0.02,0.08,0.07,0.15,0.14,0.19c0.07,0.04,0.16,0.06,0.24,0.04
			c0.05-0.01,0.1-0.04,0.14-0.08l0.32-0.3c0.03-0.02,0.05-0.05,0.07-0.08c0.09,0.06,0.15,0.15,0.18,0.25
			c0.01,0.05,0.02,0.1,0.02,0.16c0,0.31-0.22,0.58-0.53,0.64c-0.15,0.03-0.26,0.16-0.25,0.31c0,1.91-1.57,3.47-3.5,3.47
			s-3.5-1.56-3.5-3.47v-0.01C9.78,12.8,9.67,12.67,9.52,12.65z M16.98,9.9L16.9,11l-0.43-1.76c0-0.02-0.01-0.03-0.02-0.05
			c-0.29-0.66-0.94-1.11-1.66-1.14l-0.37-0.02c-0.01,0-0.01,0-0.01,0c-0.1,0-0.2,0.05-0.26,0.13c-0.71,0.98-1.89,1.51-3.11,1.39
			l-0.63-0.07c-0.12-0.01-0.25,0.02-0.35,0.1c-0.1,0.08-0.16,0.19-0.17,0.31L9.79,11.2c-0.05-0.02-0.1-0.04-0.14-0.05L9.56,9.9
			c-0.07-1.02,0.29-2.03,0.99-2.77c0.68-0.72,1.6-1.14,2.59-1.17c0.04,0,0.09,0,0.13,0c0.94,0,1.84,0.35,2.53,0.99
			C16.63,7.71,17.06,8.79,16.98,9.9z M13.19,19.4l0.08-0.06l0.16,0.11l0.7,3.75l-0.83,0.66l-0.83-0.66L13.19,19.4z M17.35,22.98
			h-0.8v-2.52c0.06-0.42,0.24-0.79,0.51-1.06c-0.22,0.48-0.33,1-0.33,1.53C16.73,21.66,16.94,22.35,17.35,22.98z M10.02,20.46v2.52
			H8.38v-2.52c0.04-0.52,0.35-1.01,0.82-1.3C9.64,19.44,9.94,19.91,10.02,20.46z M11.23,18.09V18l1.47,0.97l-0.53,0.35L11.23,18.09z
			 M10.64,20.41c-0.05-0.58-0.33-1.12-0.76-1.51l0.94-0.34l1.04,1.37c0.1,0.13,0.29,0.16,0.43,0.07l0.18-0.12l-0.58,3.1h-1.24v-2.53
			C10.65,20.43,10.64,20.42,10.64,20.41z"/>
		<path class="st1" d="M22.07,19.65c-0.08-0.01-0.16,0.03-0.22,0.09l-1.8,1.74l-0.9-0.87c-0.12-0.12-0.32-0.12-0.45,0
			c-0.12,0.12-0.12,0.32,0.01,0.45l1.12,1.08c0.06,0.06,0.14,0.09,0.22,0.09c0.08,0,0.16-0.03,0.22-0.09l2.01-1.95
			c0.06-0.06,0.1-0.14,0.1-0.22c0-0.08-0.03-0.16-0.09-0.22C22.23,19.68,22.15,19.65,22.07,19.65z M21.89,19.8L21.89,19.8
			L21.89,19.8L21.89,19.8z"/>
	</g>
</g>
</svg>
