<?xml version="1.0" encoding="utf-8"?>
<!-- Generator: Adobe Illustrator 24.0.2, SVG Export Plug-In . SVG Version: 6.00 Build 0)  -->
<svg version="1.1" id="Layer_1" xmlns="http://www.w3.org/2000/svg" xmlns:xlink="http://www.w3.org/1999/xlink" x="0px" y="0px"
	 viewBox="0 0 30 30" style="enable-background:new 0 0 30 30;" xml:space="preserve">
<style type="text/css">
	.st0{opacity:0;fill:#FFFFFF;}
	.st1{fill:#3099f1;}
</style>
<g>
	<rect class="st0" width="30" height="30"/>
	<g>
		<path class="st1" d="M11.36,16.81c0.14,0.21,0.21,0.44,0.21,0.69c0,0.69-0.56,1.25-1.25,1.25c-0.24,0-0.48-0.07-0.69-0.21
			l-0.34,0.52c0.31,0.2,0.66,0.31,1.03,0.31c1.03,0,1.87-0.84,1.87-1.87c0-0.37-0.11-0.72-0.31-1.03L11.36,16.81z"/>
		<path class="st1" d="M10.32,16.25c0.24,0,0.48,0.07,0.69,0.21l0.34-0.52c-0.31-0.2-0.66-0.31-1.03-0.31
			c-1.03,0-1.87,0.84-1.87,1.87c0,0.37,0.11,0.72,0.31,1.03l0.52-0.34c-0.14-0.21-0.21-0.44-0.21-0.69
			C9.08,16.81,9.64,16.25,10.32,16.25z"/>
		<path class="st1" d="M16.56,18.43v1.87h1.25v-0.62h-0.62v-1.25H16.56z"/>
		<path class="st1" d="M16.87,16.56c-0.79,0-1.56,0.27-2.17,0.77l0.4,0.48c0.42-0.34,0.93-0.55,1.46-0.61v0.6h0.62V17.2
			c1.3,0.14,2.33,1.18,2.48,2.48h-0.61v0.62h0.6c-0.06,0.53-0.27,1.04-0.61,1.46l0.48,0.4c0.5-0.61,0.77-1.38,0.77-2.17
			C20.3,18.1,18.76,16.56,16.87,16.56z"/>
		<path class="st1" d="M17.18,22.77v-0.6h-0.62v0.61c-1.3-0.14-2.33-1.18-2.48-2.48h0.61v-0.62h-0.6c0.06-0.53,0.27-1.04,0.61-1.46
			l-0.48-0.4c-0.5,0.61-0.77,1.38-0.77,2.17c0,1.89,1.54,3.43,3.43,3.43c0.79,0,1.56-0.27,2.17-0.77l-0.4-0.48
			C18.23,22.5,17.72,22.71,17.18,22.77z"/>
		<path class="st1" d="M22.79,19.68h-0.62v-8.73H20.3v5.87c-0.19-0.21-0.4-0.39-0.62-0.56v-3.75h-1.87v2.9
			c-0.2-0.04-0.41-0.06-0.62-0.08v-1.26h-1.87v1.52c-0.31,0.11-0.61,0.25-0.89,0.43c-0.06-0.17-0.13-0.34-0.22-0.51l0.49-0.69
			l-1.7-1.7l-0.69,0.49c-0.21-0.11-0.43-0.2-0.65-0.27l-0.14-0.84h-2.4l-0.14,0.84c-0.22,0.07-0.44,0.16-0.65,0.27l-0.69-0.49
			l-1.7,1.7l0.49,0.69c-0.11,0.21-0.2,0.42-0.27,0.65l-0.84,0.14v2.4l0.84,0.14c0.07,0.22,0.16,0.44,0.27,0.65l-0.49,0.69l1.7,1.7
			l0.69-0.49c0.21,0.11,0.43,0.2,0.65,0.27l0.14,0.84h2.4l0.14-0.84c0.22-0.07,0.44-0.16,0.65-0.27l0.12,0.09
			c0.62,1.86,2.37,3.2,4.43,3.2c2.47,0,4.5-1.93,4.66-4.36h3.13V8.45h-1.87V19.68z M20.92,11.57h0.62v8.11h-0.02
			c-0.05-0.73-0.26-1.41-0.61-2.01V11.57z M18.43,13.13h0.62v2.73c-0.2-0.11-0.41-0.19-0.62-0.27V13.13z M15.94,14.69h0.62v0.64
			c-0.21,0.01-0.42,0.04-0.62,0.08V14.69z M12.18,20.74c-0.27,0.16-0.57,0.28-0.87,0.36l-0.19,0.05l-0.12,0.71H9.65l-0.12-0.71
			L9.34,21.1c-0.31-0.08-0.6-0.21-0.87-0.36l-0.17-0.1l-0.58,0.42l-0.95-0.95l0.42-0.58l-0.1-0.17c-0.16-0.27-0.28-0.57-0.36-0.87
			l-0.05-0.19l-0.71-0.12v-1.34l0.71-0.12l0.05-0.19c0.08-0.31,0.21-0.6,0.36-0.87l0.1-0.17l-0.42-0.58l0.95-0.95l0.58,0.42
			l0.17-0.1c0.27-0.16,0.57-0.28,0.87-0.36l0.19-0.05l0.12-0.71H11l0.12,0.71l0.19,0.05c0.31,0.08,0.6,0.21,0.87,0.36l0.17,0.1
			l0.58-0.42l0.95,0.95l-0.42,0.58l0.1,0.17c0.13,0.23,0.24,0.49,0.32,0.75c-0.18,0.15-0.35,0.32-0.51,0.5
			c-0.28-1.43-1.55-2.51-3.06-2.51c-1.72,0-3.12,1.4-3.12,3.12s1.4,3.12,3.12,3.12c0.68,0,1.34-0.23,1.87-0.63c0,0,0,0.01,0,0.01
			c0,0.24,0.02,0.48,0.06,0.71L12.18,20.74z M12.81,17.68c-0.23,0.41-0.41,0.86-0.51,1.34c-0.47,0.61-1.2,0.97-1.97,0.97
			c-1.38,0-2.49-1.12-2.49-2.49S8.95,15,10.32,15s2.49,1.12,2.49,2.49C12.82,17.56,12.81,17.62,12.81,17.68z M16.87,24.04
			c-2.23,0-4.05-1.82-4.05-4.05s1.82-4.05,4.05-4.05s4.05,1.82,4.05,4.05S19.1,24.04,16.87,24.04z M23.42,9.08h0.62v10.6h-0.62V9.08
			z"/>
		<path class="st1" d="M22.79,5.34v0.62h0.67l-2.21,1.76L20.3,6.77l-1.47,1.47c-0.12-0.06-0.26-0.09-0.4-0.09
			c-0.52,0-0.94,0.42-0.94,0.94c0,0.16,0.04,0.31,0.12,0.44l-1.63,1.81c-0.11-0.05-0.23-0.07-0.36-0.07c-0.01,0-0.01,0-0.02,0
			l-1.25-3.34c0.2-0.17,0.34-0.42,0.34-0.71c0-0.52-0.42-0.94-0.94-0.94s-0.94,0.42-0.94,0.94c0,0.07,0.01,0.13,0.02,0.2l-2.56,1.57
			C10.12,8.85,9.92,8.77,9.7,8.77c-0.41,0-0.75,0.26-0.88,0.62H7.15C7.02,9.03,6.68,8.77,6.27,8.77c-0.52,0-0.94,0.42-0.94,0.94
			s0.42,0.94,0.94,0.94c0.41,0,0.75-0.26,0.88-0.62h1.67c0.13,0.36,0.47,0.62,0.88,0.62c0.52,0,0.94-0.42,0.94-0.94
			c0-0.07-0.01-0.13-0.02-0.2l2.56-1.57c0.16,0.13,0.36,0.21,0.58,0.21c0.01,0,0.01,0,0.02,0l1.25,3.34
			c-0.2,0.17-0.34,0.43-0.34,0.71c0,0.52,0.42,0.94,0.94,0.94c0.52,0,0.94-0.42,0.94-0.94c0-0.16-0.04-0.31-0.12-0.44l1.63-1.81
			c0.11,0.05,0.23,0.07,0.36,0.07c0.52,0,0.94-0.42,0.94-0.94c0-0.14-0.04-0.28-0.09-0.4l1.03-1.03l0.91,0.91l2.83-2.26v0.91h0.62
			V5.34H22.79z M6.27,10.01c-0.17,0-0.31-0.14-0.31-0.31c0-0.17,0.14-0.31,0.31-0.31S6.58,9.53,6.58,9.7
			C6.58,9.87,6.44,10.01,6.27,10.01z M9.7,10.01c-0.17,0-0.31-0.14-0.31-0.31c0-0.17,0.14-0.31,0.31-0.31
			c0.17,0,0.31,0.14,0.31,0.31C10.01,9.87,9.87,10.01,9.7,10.01z M13.44,7.21c0-0.17,0.14-0.31,0.31-0.31
			c0.17,0,0.31,0.14,0.31,0.31s-0.14,0.31-0.31,0.31C13.58,7.52,13.44,7.38,13.44,7.21z M15.62,12.51c-0.17,0-0.31-0.14-0.31-0.31
			c0-0.17,0.14-0.31,0.31-0.31c0.17,0,0.31,0.14,0.31,0.31C15.94,12.37,15.8,12.51,15.62,12.51z M18.43,9.39
			c-0.17,0-0.31-0.14-0.31-0.31c0-0.17,0.14-0.31,0.31-0.31c0.17,0,0.31,0.14,0.31,0.31C18.74,9.25,18.6,9.39,18.43,9.39z"/>
	</g>
</g>
</svg>
