<?xml version="1.0" encoding="utf-8"?>
<!-- Generator: Adobe Illustrator 24.0.2, SVG Export Plug-In . SVG Version: 6.00 Build 0)  -->
<svg version="1.1" id="Layer_1" xmlns="http://www.w3.org/2000/svg" xmlns:xlink="http://www.w3.org/1999/xlink" x="0px" y="0px"
	 viewBox="0 0 30 30" style="enable-background:new 0 0 30 30;" xml:space="preserve">
<style type="text/css">
	.st0{opacity:0;fill:#FFFFFF;}
	.st1{fill:#808184;}
</style>
<g>
	<rect class="st0" width="30" height="30"/>
	<g id="Page-1_4_">
		<g id="_x30_26---Idea_4_">
			<path id="Shape_40_" class="st1" d="M23.24,15.48c-0.06-0.31-0.33-0.53-0.64-0.53h-0.63l-0.05-0.28
				c-0.05-0.28-0.27-0.5-0.55-0.54c-0.06-0.01-0.13-0.02-0.19-0.02c0.11-0.5,0.02-1.02-0.25-1.46c0.14-0.37,0.11-0.78-0.07-1.12
				s-0.52-0.59-0.9-0.67c-0.25-1.31-1.39-2.27-2.72-2.28c-0.03,0-0.06,0-0.09,0.01c-0.21-0.34-0.57-0.56-0.96-0.61
				c-0.39-0.05-0.79,0.08-1.08,0.35c-0.36-0.24-0.79-0.36-1.22-0.36c-0.7,0-1.36,0.33-1.79,0.88c-0.48-0.14-0.99-0.05-1.4,0.23
				c-0.41,0.29-0.66,0.74-0.69,1.23c-0.5,0.21-0.83,0.7-0.83,1.24c0,0.09,0.01,0.19,0.03,0.28c-0.44,0.67-0.56,1.5-0.31,2.26
				c-0.09,0.01-0.18,0.02-0.26,0.04c-0.28,0.04-0.5,0.26-0.55,0.54l-0.05,0.28H7.41c-0.31,0-0.58,0.22-0.64,0.53l-1.43,7.36
				c-0.06,0.29,0.02,0.59,0.21,0.81C5.72,23.88,6,24.01,6.3,24.01h6.83c0.27,0.45,1.1,0.66,1.87,0.66c0.77,0,1.59-0.2,1.86-0.66
				h6.84c0.29,0,0.57-0.13,0.76-0.36c0.19-0.23,0.26-0.52,0.21-0.81L23.24,15.48z M10.17,12.14c-0.27-0.16-0.39-0.48-0.31-0.78
				c0.08-0.3,0.35-0.51,0.66-0.51c0.22,0,0.42,0.1,0.55,0.28c0.07,0.09,0.18,0.14,0.3,0.13s0.22-0.09,0.26-0.2
				c0.05-0.11,0.03-0.23-0.04-0.33c-0.22-0.3-0.56-0.49-0.93-0.52c0.1-0.46,0.5-0.79,0.97-0.79c0.04,0,0.08,0.01,0.12,0.01
				c-0.03,0.07-0.05,0.14-0.07,0.21c-0.04,0.17,0.06,0.35,0.24,0.39c0.17,0.04,0.35-0.06,0.4-0.23c0.04-0.14,0.09-0.28,0.17-0.41
				c0.29-0.49,0.81-0.79,1.38-0.79c0.31,0,0.61,0.09,0.87,0.26c-0.05,0.14-0.08,0.28-0.08,0.43c0,0.18,0.15,0.33,0.33,0.33
				s0.33-0.15,0.33-0.33c0-0.38,0.31-0.69,0.69-0.69c0.38,0,0.69,0.31,0.69,0.69c0,0.18,0.15,0.33,0.33,0.33s0.33-0.15,0.33-0.33
				c0-0.03-0.01-0.05-0.01-0.07c0.94,0.06,1.73,0.72,1.94,1.64c-0.15,0.04-0.3,0.12-0.42,0.21c-0.09,0.07-0.14,0.19-0.13,0.3
				c0.01,0.12,0.09,0.22,0.2,0.26c0.11,0.05,0.23,0.03,0.33-0.04c0.26-0.19,0.62-0.18,0.87,0.04c0.24,0.22,0.3,0.57,0.15,0.86
				c-0.07,0.13-0.18,0.23-0.31,0.29c-0.14,0.07-0.21,0.22-0.18,0.37c0.03,0.15,0.16,0.25,0.32,0.26c0.05,0,0.1-0.01,0.14-0.03
				c0.09-0.04,0.17-0.09,0.24-0.15c0.17,0.48,0.06,1.02-0.28,1.4l-0.01,0.01c-0.43,0.46-1.11,0.59-1.67,0.31
				c-0.06-0.03-0.11-0.06-0.16-0.1c0.24-0.34,0.27-0.78,0.09-1.15c-0.05-0.1-0.16-0.17-0.27-0.18s-0.23,0.05-0.29,0.15
				s-0.07,0.22-0.02,0.33c0.11,0.22,0.04,0.48-0.16,0.62c-0.12,0.08-0.26,0.1-0.4,0.07c-0.14-0.03-0.25-0.13-0.32-0.25
				c-0.05-0.1-0.16-0.17-0.27-0.18s-0.23,0.05-0.29,0.15c-0.06,0.1-0.07,0.22-0.02,0.33c0.19,0.39,0.59,0.63,1.02,0.63
				c0.14,0,0.28-0.03,0.41-0.08c0.12,0.1,0.25,0.19,0.38,0.26c0.47,0.24,1.01,0.29,1.51,0.14c-0.32,0.44-0.81,0.74-1.35,0.83
				c-0.17,0.03-0.29,0.18-0.27,0.35c0.01,0.17,0.15,0.3,0.33,0.3c0.02,0,0.03,0,0.05,0c0.2-0.03,0.39-0.09,0.58-0.17
				c0.1,0.18,0.18,0.37,0.24,0.56c0.01,0.03,0.02,0.07,0.02,0.11c0,0.14-0.08,0.27-0.21,0.32c-0.15,0.06-0.32,0.01-0.42-0.11
				c-0.25-0.3-0.59-0.52-0.96-0.64c-0.71-0.24-0.98-0.45-1.1-0.68c0.17-0.02,0.34-0.06,0.5-0.1c0.11-0.03,0.2-0.13,0.22-0.24
				s-0.01-0.23-0.1-0.31s-0.21-0.11-0.32-0.07c-0.18,0.06-0.37,0.09-0.57,0.1c-0.37,0.03-0.74-0.03-1.09-0.16
				c-0.13-0.05-0.28-0.01-0.37,0.09c-0.48,0.55-1.29,0.64-1.88,0.21c-0.59-0.43-0.75-1.23-0.38-1.85c0.06-0.1,0.06-0.23,0.01-0.33
				c-0.06-0.1-0.16-0.17-0.28-0.17s-0.23,0.06-0.29,0.16c-0.08,0.13-0.14,0.27-0.19,0.42c-0.26-0.01-0.46-0.22-0.47-0.48v-0.01
				c0-0.09-0.03-0.17-0.1-0.23c-0.06-0.06-0.14-0.09-0.23-0.09c-0.18,0-0.33,0.15-0.33,0.33c0,0.58,0.44,1.07,1.02,1.13
				c0,0.11,0.01,0.22,0.03,0.33c-0.73,0.16-1.49-0.1-1.97-0.68c-0.48-0.58-0.59-1.37-0.3-2.06c0.07,0.07,0.16,0.14,0.24,0.19
				c0.15,0.09,0.35,0.04,0.45-0.11S10.33,12.23,10.17,12.14L10.17,12.14z M8.73,14.77c0.15-0.02,0.31-0.04,0.46-0.06
				c0.61,0.97,1.76,1.44,2.87,1.17c0.3,0.57,0.84,0.96,1.47,1.07c0.63,0.11,1.27-0.09,1.74-0.52c0.22,0.07,0.45,0.11,0.68,0.12
				c0.16,0.6,0.62,0.96,1.58,1.29c0.26,0.08,0.49,0.23,0.67,0.44c0.2,0.23,0.49,0.37,0.79,0.37c0.13,0,0.27-0.03,0.39-0.08
				C19.76,18.4,20,18.04,20,17.63c0-0.11-0.02-0.21-0.05-0.31c-0.07-0.23-0.17-0.45-0.29-0.67c0.56-0.4,0.95-0.99,1.09-1.66
				c0.07-0.08,0.13-0.17,0.19-0.26c0.11,0.01,0.22,0.03,0.33,0.04l1.18,7.11c-2.31-0.77-4.81-0.77-7.12,0v-4.1
				c0-0.18-0.15-0.33-0.33-0.33s-0.33,0.15-0.33,0.33v4.1c-2.31-0.77-4.81-0.77-7.12,0L8.73,14.77z M6.04,23.23
				c-0.06-0.07-0.09-0.17-0.07-0.27l1.43-7.36h0.52L6.9,21.78c-0.04,0.22,0.05,0.45,0.22,0.6c0.17,0.15,0.41,0.2,0.63,0.13
				c1.75-0.57,3.61-0.68,5.41-0.34l-0.1,1.19H6.3C6.2,23.35,6.1,23.31,6.04,23.23z M15,24.01c-0.79,0-1.24-0.23-1.31-0.34l0.11-1.36
				c0.36,0.09,0.71,0.21,1.05,0.35c0.04,0.02,0.09,0.03,0.14,0.03c0.05,0,0.1-0.01,0.14-0.03c0.34-0.15,0.69-0.27,1.05-0.36
				l0.11,1.36C16.24,23.78,15.79,24.01,15,24.01L15,24.01z M23.96,23.23c-0.06,0.08-0.16,0.12-0.26,0.12h-6.76l-0.1-1.19
				c1.8-0.34,3.67-0.22,5.41,0.35c0.22,0.07,0.45,0.02,0.63-0.13c0.17-0.15,0.25-0.38,0.22-0.6l-1.03-6.18h0.52l1.43,7.36
				C24.05,23.06,24.02,23.16,23.96,23.23L23.96,23.23z"/>
			<path id="Shape_39_" class="st1" d="M13.91,12.77c-0.13,0.12-0.14,0.33-0.02,0.46c0.28,0.31,0.65,0.52,1.05,0.61
				c-0.18,0.26-0.48,0.41-0.8,0.41c-0.18,0-0.33,0.15-0.33,0.33s0.15,0.33,0.33,0.33c0.68,0,1.29-0.42,1.53-1.05
				c0.81-0.13,1.46-0.76,1.62-1.57c0.02-0.12-0.02-0.24-0.1-0.31c-0.09-0.08-0.21-0.1-0.33-0.06s-0.19,0.14-0.21,0.25
				c-0.06,0.34-0.26,0.64-0.54,0.83c-0.55,0.37-1.28,0.28-1.72-0.2C14.26,12.66,14.05,12.65,13.91,12.77L13.91,12.77z"/>
			<path id="Shape_38_" class="st1" d="M12.77,12.41c0.18,0,0.33-0.15,0.33-0.33c0-0.23,0.09-0.44,0.25-0.6
				c0.16-0.16,0.38-0.25,0.6-0.25c0.18,0,0.33-0.15,0.33-0.33s-0.15-0.33-0.33-0.33c-0.83,0-1.51,0.68-1.51,1.51
				c0,0.09,0.03,0.17,0.1,0.23S12.69,12.41,12.77,12.41z"/>
			<path id="Shape_37_" class="st1" d="M15.33,5.99V5.66c0-0.18-0.15-0.33-0.33-0.33c-0.18,0-0.33,0.15-0.33,0.33v0.33
				c0,0.18,0.15,0.33,0.33,0.33C15.18,6.32,15.33,6.17,15.33,5.99z"/>
			<path id="Shape_36_" class="st1" d="M20.38,7.69l-0.33,0.33c-0.09,0.08-0.12,0.2-0.09,0.32s0.12,0.2,0.23,0.23
				c0.11,0.03,0.24,0,0.32-0.09l0.33-0.33c0.09-0.08,0.12-0.2,0.09-0.32c-0.03-0.11-0.12-0.2-0.23-0.23
				C20.58,7.57,20.46,7.6,20.38,7.69z"/>
			<path id="Shape_35_" class="st1" d="M9.72,8.57c0.13,0,0.25-0.08,0.3-0.2s0.02-0.26-0.07-0.36L9.62,7.69
				C9.54,7.6,9.42,7.57,9.31,7.6C9.19,7.63,9.1,7.72,9.07,7.83c-0.03,0.11,0,0.24,0.09,0.32l0.33,0.33
				C9.55,8.54,9.63,8.57,9.72,8.57z"/>
			<path id="Shape_34_" class="st1" d="M12.24,7.2c0.04,0,0.09-0.01,0.13-0.02c0.08-0.03,0.14-0.1,0.18-0.18s0.03-0.17,0-0.25
				l-0.38-0.91c-0.04-0.11-0.14-0.19-0.26-0.21c-0.12-0.02-0.23,0.03-0.31,0.13c-0.07,0.09-0.09,0.22-0.04,0.33l0.38,0.91
				C11.99,7.12,12.11,7.2,12.24,7.2L12.24,7.2z"/>
			<path id="Shape_33_" class="st1" d="M18.26,5.66c-0.17-0.07-0.36,0.01-0.43,0.18l-0.38,0.91c-0.03,0.08-0.03,0.17,0,0.25
				c0.03,0.08,0.1,0.14,0.18,0.18c0.04,0.02,0.08,0.02,0.13,0.02c0.13,0,0.25-0.08,0.3-0.2l0.38-0.91c0.03-0.08,0.03-0.17,0-0.25
				C18.4,5.75,18.34,5.69,18.26,5.66z"/>
			<path id="Shape_32_" class="st1" d="M21.66,11.1c0.04,0,0.09-0.01,0.13-0.03l0.91-0.38c0.11-0.04,0.18-0.14,0.2-0.26
				c0.02-0.12-0.03-0.23-0.13-0.3c-0.09-0.07-0.22-0.09-0.32-0.04l-0.91,0.38c-0.14,0.06-0.23,0.21-0.2,0.37S21.5,11.1,21.66,11.1
				L21.66,11.1z"/>
			<path id="Shape_31_" class="st1" d="M8.22,11.07c0.17,0.07,0.36-0.01,0.43-0.18c0.07-0.17-0.01-0.36-0.18-0.43l-0.91-0.38
				c-0.17-0.07-0.36,0.01-0.43,0.18c-0.07,0.17,0.01,0.36,0.18,0.43L8.22,11.07z"/>
		</g>
	</g>
</g>
</svg>
