<?xml version="1.0" encoding="utf-8"?>
<!-- Generator: Adobe Illustrator 24.0.2, SVG Export Plug-In . SVG Version: 6.00 Build 0)  -->
<svg version="1.1" id="Layer_1" xmlns="http://www.w3.org/2000/svg" xmlns:xlink="http://www.w3.org/1999/xlink" x="0px" y="0px"
	 viewBox="0 0 30 30" style="enable-background:new 0 0 30 30;" xml:space="preserve">
<style type="text/css">
	.st0{opacity:0;fill:#FFFFFF;}
	.st1{fill:#808184;}
</style>
<g>
	<rect class="st0" width="30" height="30"/>
	<g>
		<path class="st1" d="M18.22,17.58c0,1.78,1.44,3.22,3.22,3.22c1.78,0,3.22-1.44,3.22-3.22c0-1.78-1.44-3.22-3.22-3.22
			C19.66,14.36,18.22,15.8,18.22,17.58z M21.44,15c1.42,0,2.58,1.15,2.58,2.58c0,1.42-1.15,2.58-2.58,2.58s-2.58-1.15-2.58-2.58
			C18.87,16.16,20.02,15,21.44,15z"/>
		<path class="st1" d="M19.6,24.02h3.68v0.64H19.6V24.02z"/>
		<path class="st1" d="M18.22,22.73h6.44v0.64h-6.44V22.73z"/>
		<path class="st1" d="M11.14,22.73h0.64v0.64h-0.64V22.73z"/>
		<path class="st1" d="M9.2,23.38h0.64v0.64H9.2V23.38z"/>
		<path class="st1" d="M11.17,20.92c1.68-2.93,2.74-6.18,3.1-9.53l3,2.98c0.06,0.06,0.14,0.09,0.23,0.09c0.02,0,0.03,0,0.05,0
			c0.1-0.02,0.19-0.08,0.24-0.17c0.61-1.21,0.37-2.68-0.59-3.63l-0.26-0.26h2.27c0.18,0,0.32-0.14,0.32-0.32
			c0-0.03-0.01-0.07-0.02-0.1c-0.43-1.29-1.63-2.15-2.99-2.15h-0.42l1.61-1.62c0.13-0.13,0.13-0.33,0-0.46
			c-0.02-0.02-0.05-0.04-0.08-0.06c-1.21-0.61-2.68-0.37-3.64,0.59l-0.31,0.31c-0.1,0.1-0.19,0.21-0.28,0.32
			c-0.08-0.11-0.18-0.22-0.28-0.32L12.8,6.26c-0.96-0.96-2.42-1.2-3.63-0.59C9.01,5.75,8.95,5.94,9.03,6.1
			c0.02,0.03,0.04,0.06,0.06,0.08L10.7,7.8h-0.42c-1.36,0-2.56,0.87-2.99,2.15c-0.06,0.17,0.03,0.35,0.2,0.41
			c0.03,0.01,0.07,0.02,0.1,0.02h2.26l-0.26,0.26C8.63,11.6,8.39,13.07,9,14.28c0.05,0.09,0.13,0.16,0.24,0.17c0.02,0,0.03,0,0.05,0
			c0.09,0,0.17-0.03,0.23-0.09l2.79-2.77c-0.35,3.09-1.51,6.03-3.37,8.51c-0.43-0.11-0.87-0.2-1.31-0.27l-0.2-0.02l-0.06,0.64
			l0.19,0.02c0.32,0.05,0.64,0.11,0.96,0.18c-0.06,0.08-0.13,0.16-0.2,0.24l0.49,0.41c2.48-2.94,3.95-6.6,4.21-10.43l0.37-0.37
			l0.28,0.28c-0.34,4.1-1.75,8.05-4.08,11.43l0.53,0.37c0.25-0.36,0.49-0.74,0.73-1.12c1.51,0.72,2.84,1.76,3.9,3.05l0.5-0.41
			c-0.63-0.76-1.35-1.44-2.14-2.03h13.5v-0.64H12.14C11.83,21.25,11.5,21.08,11.17,20.92z M17.37,13.56l-3.4-3.38
			c0.87-0.26,1.81-0.02,2.46,0.62l0.31,0.31C17.38,11.74,17.62,12.68,17.37,13.56z M18.7,9.74h-2.67c-0.62-0.3-1.32-0.38-2-0.24
			c0.47-0.66,1.23-1.05,2.04-1.05h0.43C17.42,8.45,18.25,8.94,18.7,9.74z M14.12,7.02l0.31-0.31c0.64-0.64,1.59-0.89,2.46-0.64
			L14.98,8c-0.62,0.23-1.15,0.65-1.52,1.19C13.31,8.4,13.56,7.59,14.12,7.02L14.12,7.02z M12.35,6.72l0.31,0.31
			c0.14,0.15,0.27,0.31,0.37,0.49c-0.15,0.34-0.23,0.7-0.25,1.07C12.49,8.33,12.16,8.13,11.8,8L9.89,6.08
			C10.76,5.83,11.71,6.07,12.35,6.72L12.35,6.72z M10.27,8.45h0.43c0.81,0,1.57,0.39,2.04,1.05c-0.67-0.14-1.37-0.06-1.99,0.24H8.08
			C8.52,8.94,9.36,8.45,10.27,8.45L10.27,8.45z M9.41,13.56c-0.25-0.88-0.01-1.82,0.64-2.46l0.31-0.31
			c0.46-0.46,1.09-0.72,1.75-0.72c0.24,0,0.48,0.03,0.71,0.1L9.41,13.56z"/>
	</g>
</g>
</svg>
