<?xml version="1.0" encoding="utf-8"?>
<!-- Generator: Adobe Illustrator 24.0.2, SVG Export Plug-In . SVG Version: 6.00 Build 0)  -->
<svg version="1.1" id="Layer_1" xmlns="http://www.w3.org/2000/svg" xmlns:xlink="http://www.w3.org/1999/xlink" x="0px" y="0px"
	 viewBox="0 0 30 30" style="enable-background:new 0 0 30 30;" xml:space="preserve">
<style type="text/css">
	.st0{opacity:0;fill:#FFFFFF;}
	.st1{fill:#808184;}
</style>
<g>
	<rect class="st0" width="30" height="30"/>
	<g id="money-coin_4_">
		<path class="st1" d="M22.97,16.38h-0.32v-2.87c0-0.53-0.43-0.96-0.96-0.96h-0.04l0.51-1.1c0.07-0.16,0.01-0.35-0.15-0.42
			c0,0,0,0,0,0L9.88,5.37C9.72,5.29,9.53,5.36,9.45,5.52l-3.3,7.06c-0.42,0.11-0.72,0.49-0.72,0.92v10.2c0,0.53,0.43,0.96,0.96,0.96
			h15.3c0.53,0,0.96-0.43,0.96-0.96v-2.87h0.32c0.88,0,1.59-0.71,1.59-1.59v-1.28C24.56,17.09,23.85,16.38,22.97,16.38z M9.9,6.08
			l11.56,5.39l-0.51,1.08h-1.3c-0.25-0.45-0.36-0.97-0.31-1.48c0.01-0.13-0.06-0.26-0.18-0.32l-7.23-3.37
			c-0.12-0.06-0.27-0.03-0.36,0.07c-0.54,0.55-1.3,0.83-2.06,0.75C9.37,8.18,9.24,8.25,9.18,8.37l-1.22,2.61
			c-0.06,0.12-0.03,0.27,0.07,0.36c0.33,0.33,0.57,0.75,0.68,1.2H6.88L9.9,6.08z M12.83,12.55c-0.17-0.68,0.24-1.37,0.92-1.55
			c0.68-0.17,1.37,0.24,1.55,0.92c0.05,0.21,0.05,0.42,0,0.63H12.83z M14.87,10.5c-0.96-0.45-2.1-0.03-2.54,0.93
			c-0.16,0.35-0.22,0.74-0.15,1.12H9.37C9.26,12,9,11.48,8.63,11.06l1.03-2.22c0.8,0.02,1.59-0.26,2.19-0.8l6.84,3.19
			c-0.01,0.45,0.07,0.9,0.25,1.32h-3C16.09,11.7,15.65,10.86,14.87,10.5L14.87,10.5z M22.01,23.71c0,0.18-0.14,0.32-0.32,0.32H6.39
			c-0.18,0-0.32-0.14-0.32-0.32v-10.2c0-0.18,0.14-0.32,0.32-0.32h15.3c0.18,0,0.32,0.14,0.32,0.32v2.87h-1.59
			c-0.88,0-1.59,0.71-1.59,1.59v1.28c0,0.88,0.71,1.59,1.59,1.59h1.59V23.71z M23.93,19.24c0,0.53-0.43,0.96-0.96,0.96h-2.55
			c-0.53,0-0.96-0.43-0.96-0.96v-1.28c0-0.53,0.43-0.96,0.96-0.96h2.55c0.53,0,0.96,0.43,0.96,0.96V19.24z"/>
		<path class="st1" d="M21.06,17.65c-0.53,0-0.96,0.43-0.96,0.96s0.43,0.96,0.96,0.96c0.53,0,0.96-0.43,0.96-0.96
			S21.59,17.65,21.06,17.65z M21.06,18.93c-0.18,0-0.32-0.14-0.32-0.32s0.14-0.32,0.32-0.32c0.18,0,0.32,0.14,0.32,0.32
			S21.23,18.93,21.06,18.93z"/>
		<path class="st1" d="M14.64,18.35c0.69-0.16,1-0.38,1-0.7v-1.59c0-0.86-2.68-0.96-3.83-0.96c-3.45,0-3.83,0.67-3.83,0.96v0.83
			c-0.89,0.16-1.28,0.39-1.28,0.76v1.59c0,0.17,0,0.63,1.83,0.85c-1.19,0.23-1.19,0.58-1.19,0.75v1.59c0,0.86,2.68,0.96,3.83,0.96
			S15,23.3,15,22.43v-0.74c1.91-0.22,1.91-0.66,1.91-0.85v-1.59C16.91,19.06,16.91,18.54,14.64,18.35z M14.36,19.24v-0.27
			c0.58,0.03,1.16,0.12,1.72,0.27c-0.59,0.16-1.2,0.26-1.81,0.28C14.34,19.45,14.37,19.35,14.36,19.24z M14,17.83
			c-0.72,0.1-1.45,0.15-2.18,0.14c-0.21,0-0.41,0-0.63-0.01c-1.55-0.05-2.36-0.27-2.56-0.39v-0.91c0.86,0.31,2.39,0.36,3.19,0.36
			c1.71,0,2.66-0.16,3.19-0.36v0.91C14.68,17.71,14.34,17.8,14,17.83L14,17.83z M11.81,15.74c1.01-0.04,2.02,0.07,3,0.32
			c-0.98,0.25-1.99,0.35-3,0.32c-1.01,0.04-2.02-0.07-2.99-0.32C9.8,15.81,10.8,15.7,11.81,15.74z M7.99,17.54v0.11
			c0,0.04,0.01,0.08,0.02,0.12c-0.15-0.03-0.31-0.07-0.46-0.11C7.69,17.61,7.84,17.57,7.99,17.54z M7.35,18.25
			c0.86,0.31,2.39,0.36,3.19,0.36c0.22,0,0.44,0,0.66-0.01l0,0c0.2,0.01,0.41,0.01,0.62,0.01c0.64,0,1.28-0.03,1.91-0.1v0.66
			c-0.15,0.09-0.69,0.27-1.94,0.36c-0.73,0.05-1.46,0.06-2.19,0.02c-1.37-0.07-2.06-0.27-2.25-0.38V18.25z M9.26,20.63v0.21
			c0,0.08,0.02,0.15,0.05,0.22c-0.38-0.04-0.76-0.11-1.13-0.22C8.54,20.73,8.9,20.66,9.26,20.63z M11.17,22.75
			c-1.85,0-2.94-0.25-3.19-0.4v-0.91c0.86,0.31,2.39,0.36,3.19,0.36c0.32,0,0.65-0.01,0.97-0.03l0,0c0.32,0.02,0.64,0.03,0.95,0.03
			c0.44,0,0.87-0.02,1.28-0.05v0.6C14.11,22.5,13.03,22.75,11.17,22.75z M14.65,21.09c-0.48,0.04-1.02,0.07-1.56,0.07
			c-0.31,0-0.62-0.01-0.94-0.03c-1.37-0.07-2.06-0.27-2.25-0.38v-0.57c0.21,0.01,0.43,0.02,0.64,0.02c0.44,0,0.87-0.01,1.28-0.04
			c0.41,0.03,0.84,0.04,1.28,0.04c0.8,0,2.32-0.05,3.19-0.36v0.91C16.14,20.83,15.69,20.99,14.65,21.09z"/>
	</g>
</g>
</svg>
