<?xml version="1.0" encoding="utf-8"?>
<!-- Generator: Adobe Illustrator 24.0.2, SVG Export Plug-In . SVG Version: 6.00 Build 0)  -->
<svg version="1.1" id="Layer_1" xmlns="http://www.w3.org/2000/svg" xmlns:xlink="http://www.w3.org/1999/xlink" x="0px" y="0px"
	 viewBox="0 0 500 500" style="enable-background:new 0 0 500 500;" xml:space="preserve">
<style type="text/css">
	.st0{opacity:0.5;fill:#CCCCCC;}
	.st1{fill:#5A4650;}
	.st2{fill:#64505A;}
	.st3{fill:#FFE17D;}
	.st4{fill:#FFD164;}
	.st5{fill:#E3AA75;}
	.st6{fill:#D29B6E;}
	.st7{fill:#F5B97D;}
	.st8{fill:#B67F5F;}
	.st9{fill:#A06E50;}
	.st10{fill:#FF8250;}
	.st11{fill:#DC7346;}
	.st12{fill:#F5DCB4;}
	.st13{fill:#EBC9A0;}
	.st14{fill:#D2B496;}
	.st15{fill:#6E5A64;}
	.st16{fill:#84737B;}
	.st17{fill:#A5CDFF;}
	.st18{fill:#8CB4EB;}
	.st19{fill:#FFFFFF;}
	.st20{fill:#999999;}
	.st21{fill:#CD916E;}
	.st22{fill:#C69C6D;}
</style>
<g>
	<path class="st0" d="M338.58,424.88c0.19-0.02,0.38-0.06,0.56-0.07c0.62-0.07,1.23-0.17,1.84-0.28c0.27-0.05,0.54-0.11,0.81-0.17
		c0.52-0.12,1.04-0.25,1.56-0.4c0.28-0.08,0.57-0.18,0.85-0.27c0.5-0.17,0.99-0.34,1.48-0.54c0.27-0.12,0.53-0.23,0.8-0.34
		c0.49-0.21,0.97-0.44,1.45-0.69c0.25-0.13,0.5-0.27,0.74-0.41c0.45-0.26,0.9-0.53,1.34-0.82c0.26-0.17,0.51-0.35,0.77-0.53
		c0.4-0.28,0.79-0.58,1.18-0.88c0.27-0.21,0.53-0.44,0.79-0.66c0.35-0.31,0.7-0.62,1.04-0.95c0.26-0.26,0.52-0.52,0.77-0.79
		c0.3-0.31,0.59-0.62,0.87-0.95c0.29-0.34,0.56-0.69,0.83-1.04c0.23-0.3,0.47-0.61,0.69-0.92c0.26-0.37,0.5-0.76,0.74-1.15
		c0.15-0.24,0.31-0.47,0.45-0.71l86.16-149.56c0.14-0.25,0.26-0.5,0.39-0.75c0.22-0.4,0.42-0.8,0.61-1.21
		c0.17-0.35,0.31-0.71,0.46-1.06c0.17-0.41,0.33-0.83,0.48-1.24c0.14-0.41,0.27-0.81,0.39-1.22c0.12-0.35,0.2-0.71,0.29-1.07
		c0.12-0.46,0.22-0.91,0.31-1.37c0.06-0.34,0.11-0.67,0.17-1.02c0.07-0.47,0.14-0.94,0.18-1.42c0.03-0.33,0.06-0.67,0.08-1
		c0.05-0.51,0.04-1.02,0.04-1.53l0.02-0.02c0-0.29-0.01-0.57-0.02-0.85c-0.02-0.54-0.06-1.07-0.12-1.6
		c-0.05-0.29-0.06-0.58-0.1-0.86c-0.07-0.52-0.17-1.04-0.27-1.56c-0.06-0.29-0.11-0.57-0.19-0.86c-0.13-0.52-0.27-1.04-0.43-1.56
		c-0.08-0.27-0.17-0.53-0.26-0.8c-0.2-0.59-0.43-1.16-0.67-1.74c-0.07-0.17-0.15-0.35-0.23-0.52c-0.29-0.65-0.62-1.29-0.97-1.91
		c-0.05-0.08-0.08-0.17-0.14-0.25l-0.17-0.3c-0.06-0.11-0.12-0.22-0.19-0.33l-85.8-148.93c-0.13-0.23-0.29-0.44-0.43-0.67
		c-0.24-0.4-0.5-0.8-0.77-1.19c-0.23-0.34-0.48-0.66-0.73-0.99c-0.26-0.33-0.52-0.66-0.8-0.98c-0.25-0.3-0.52-0.59-0.78-0.87
		c-0.3-0.33-0.61-0.64-0.93-0.95c-0.28-0.27-0.57-0.53-0.87-0.79c-0.31-0.27-0.62-0.53-0.94-0.79c-0.33-0.26-0.66-0.5-0.99-0.74
		c-0.33-0.24-0.67-0.47-1.01-0.69c-0.34-0.22-0.69-0.44-1.04-0.64c-0.35-0.21-0.71-0.4-1.07-0.59c-0.36-0.19-0.74-0.36-1.11-0.52
		c-0.37-0.17-0.74-0.34-1.12-0.49c-0.38-0.15-0.77-0.29-1.16-0.43c-0.37-0.13-0.74-0.25-1.12-0.36c-0.42-0.12-0.85-0.23-1.27-0.33
		c-0.38-0.09-0.77-0.18-1.16-0.25c-0.42-0.08-0.85-0.14-1.27-0.2c-0.39-0.06-0.79-0.1-1.19-0.14c-0.47-0.05-0.94-0.06-1.41-0.07
		c-0.26-0.02-0.53-0.04-0.8-0.04H164.55c-0.12,0-0.25,0.02-0.37,0h-0.34c-0.09,0-0.18,0.02-0.27,0.02c-0.72,0-1.43,0.04-2.14,0.11
		c-0.19,0.02-0.38,0.04-0.57,0.06c-0.62,0.07-1.23,0.17-1.84,0.28c-0.27,0.06-0.54,0.12-0.82,0.18c-0.52,0.12-1.04,0.25-1.56,0.4
		c-0.28,0.08-0.56,0.18-0.84,0.27c-0.5,0.17-0.99,0.35-1.49,0.55c-0.27,0.11-0.53,0.23-0.79,0.35c-0.49,0.22-0.97,0.45-1.45,0.7
		c-0.25,0.13-0.51,0.26-0.75,0.4c-0.44,0.25-0.87,0.52-1.3,0.8c-0.28,0.18-0.56,0.38-0.83,0.57c-0.39,0.28-0.76,0.55-1.14,0.85
		c-0.27,0.21-0.54,0.44-0.8,0.66c-0.35,0.31-0.7,0.63-1.04,0.96c-0.27,0.26-0.53,0.52-0.77,0.79c-0.29,0.31-0.58,0.62-0.86,0.95
		c-0.29,0.34-0.56,0.69-0.83,1.04c-0.23,0.31-0.47,0.59-0.69,0.91c-0.26,0.37-0.51,0.76-0.74,1.15c-0.15,0.24-0.31,0.47-0.46,0.72
		L55.68,237.27c-0.14,0.25-0.26,0.5-0.39,0.75c-0.21,0.4-0.42,0.8-0.61,1.22c-0.17,0.35-0.31,0.71-0.46,1.06
		c-0.17,0.41-0.34,0.82-0.48,1.24c-0.14,0.41-0.27,0.82-0.39,1.23c-0.1,0.35-0.21,0.71-0.3,1.06c-0.12,0.46-0.22,0.92-0.31,1.38
		c-0.06,0.33-0.13,0.67-0.17,1.01c-0.07,0.49-0.13,0.97-0.17,1.46c-0.03,0.31-0.03,0.62-0.07,0.93c-0.03,0.53-0.04,1.05-0.04,1.57
		c0,0.28,0.02,0.56,0.02,0.84c0.02,0.54,0.06,1.07,0.11,1.6c0.03,0.28,0.07,0.57,0.1,0.86c0.07,0.52,0.17,1.05,0.27,1.56
		c0.06,0.29,0.12,0.57,0.19,0.86c0.13,0.52,0.27,1.04,0.43,1.55c0.08,0.27,0.16,0.53,0.26,0.8c0.2,0.59,0.43,1.17,0.68,1.74
		c0.08,0.17,0.15,0.34,0.23,0.51c0.29,0.65,0.62,1.29,0.97,1.92c0.05,0.08,0.08,0.16,0.13,0.24l0.18,0.3
		c0.06,0.11,0.12,0.22,0.19,0.32l85.8,148.92c0.05,0.06,0.08,0.12,0.12,0.19c0.2,0.33,0.41,0.66,0.63,0.98
		c0.15,0.24,0.3,0.47,0.47,0.7c0.12,0.15,0.2,0.3,0.31,0.45c0.2,0.27,0.4,0.54,0.61,0.8c0.2,0.25,0.41,0.5,0.62,0.75
		c0.13,0.14,0.25,0.29,0.38,0.44c0.21,0.23,0.41,0.46,0.63,0.68c0.2,0.21,0.41,0.4,0.61,0.6c0.21,0.2,0.41,0.41,0.63,0.6
		c0.18,0.16,0.36,0.31,0.55,0.46c0.21,0.18,0.42,0.36,0.64,0.54c0.24,0.19,0.49,0.4,0.74,0.58c0.19,0.14,0.38,0.28,0.57,0.41
		c0.25,0.17,0.49,0.33,0.74,0.49c0.25,0.16,0.49,0.32,0.73,0.46c0.1,0.06,0.2,0.13,0.3,0.19c0.13,0.07,0.26,0.14,0.39,0.21
		c0.18,0.1,0.36,0.2,0.55,0.29c0.41,0.21,0.82,0.41,1.24,0.59c0.4,0.18,0.81,0.36,1.23,0.52c0.14,0.06,0.29,0.12,0.43,0.18
		c0.21,0.07,0.43,0.15,0.65,0.22c0.39,0.13,0.79,0.26,1.19,0.38c0.16,0.03,0.32,0.11,0.48,0.15c0.31,0.08,0.64,0.15,0.95,0.21
		c0.29,0.06,0.57,0.14,0.86,0.19c0.21,0.05,0.41,0.08,0.62,0.12c0.36,0.05,0.71,0.1,1.07,0.13c0.27,0.03,0.55,0.07,0.82,0.09
		c0.17,0.02,0.34,0.06,0.51,0.06c0.39,0.02,0.78,0.05,1.17,0.05c0.18,0,0.36,0.06,0.55,0.06h171.59h0.38h0.35h0.27
		C337.15,425,337.87,424.95,338.58,424.88z"/>
	<g>
		<path class="st21" d="M186.73,254.37h126.54l5.4-35.1c5.3-34.45-21.36-65.52-56.21-65.52h-24.91c-34.86,0-61.51,31.07-56.21,65.52
			L186.73,254.37z"/>
		<path class="st7" d="M336.16,349.46l-46.11-13.56c-5.59-1.64-9.42-6.77-9.42-12.59v-20.8h-61.25v20.8
			c0,5.82-3.84,10.95-9.42,12.59l-46.11,13.56C152.67,352.74,145,363,145,374.64v37.23c0,7.25,5.88,13.12,13.12,13.12h183.75
			c7.25,0,13.12-5.88,13.12-13.12v-37.23C355,363,347.33,352.74,336.16,349.46z"/>
		<path class="st1" d="M336.16,349.46l-46.11-13.56c-0.78-0.23,4.41,1.96,3.7,1.6L250,350.63l-43.75-13.12
			c-0.71,0.36,4.48-1.83,3.7-1.6l-46.11,13.56C152.67,352.74,145,363,145,374.64v37.23c0,7.25,5.88,13.12,13.12,13.12h183.75
			c7.25,0,13.12-5.88,13.12-13.12v-37.23C355,363,347.33,352.74,336.16,349.46z"/>
		<path class="st17" d="M292.25,344.75l-5.22-5.22L250,346.25l-37.03-6.72l-5.22,5.22c-6.56,6.56-10.25,15.47-10.25,24.75V425h105
			v-55.5C302.5,360.21,298.81,351.31,292.25,344.75z"/>
		<path class="st18" d="M292.25,344.75l-5.22-5.22L250,346.25l-37.03-6.72l-5.22,5.22c-2.15,2.15-3.95,4.56-5.46,7.14l16.17,18.47
			c2.49,2.85,6.09,4.48,9.88,4.48c3.51,0,6.8-1.37,9.28-3.84L250,358.62l12.38,12.38c2.48,2.48,5.77,3.84,9.28,3.84
			c3.79,0,7.39-1.63,9.88-4.48l16.17-18.47C296.2,349.31,294.4,346.9,292.25,344.75z"/>
		<polygon class="st1" points="243.68,368.12 236.88,425 263.12,425 256.32,368.12 		"/>
		<path class="st2" d="M255.6,372.5H244.4c-1.88,0-3.55-1.21-4.15-2.99l-7.75-23.26h35l-7.75,23.26
			C259.15,371.3,257.48,372.5,255.6,372.5z"/>
		<path class="st22" d="M219.38,312.26c9.19,4.91,19.61,7.74,30.62,7.74c11.01,0,21.43-2.83,30.62-7.74v-9.76h-61.25V312.26z"/>
		<g>
			<path class="st17" d="M216.45,327.61l-11.53,14l20.12,23c1.67,1.9,4.6,2,6.39,0.21L250,346.25L216.45,327.61z"/>
			<path class="st17" d="M283.55,327.61l11.53,14l-20.12,23c-1.67,1.9-4.6,2-6.39,0.21L250,346.25L283.55,327.61z"/>
		</g>
		<g>
			<path class="st2" d="M175.63,425l-7.71-30.31c-0.65-2.92,0.24-5.97,2.35-8.09l14.1-14.1l-6.49-9.73
				c-1.53-2.29-1.85-5.17-0.99-7.78c10.43-31.35,42.47-39.36,42.47-39.36v8.44c0,5.8-2.3,11.37-6.41,15.47l-5.22,5.22
				c-6.56,6.56-10.25,15.47-10.25,24.75V425"/>
			<path class="st2" d="M324.37,425l7.71-30.31c0.65-2.92-0.24-5.97-2.35-8.09l-14.1-14.1l6.49-9.73c1.53-2.29,1.85-5.17,0.99-7.78
				c-10.43-31.35-42.47-39.36-42.47-39.36v8.44c0,5.8,2.3,11.37,6.41,15.47l5.22,5.22c6.56,6.56,10.25,15.47,10.25,24.75V425"/>
		</g>
		<path class="st7" d="M308.68,236.87h-0.19c-5.32,0-9.27-4.93-8.12-10.12l0,0c3.34-15.01-8.09-29.26-23.47-29.26H223.1
			c-15.38,0-26.81,14.24-23.47,29.26l0,0c1.15,5.19-2.8,10.12-8.12,10.12h-0.19c-4.98,0-9.63,3.16-10.92,7.97
			c-1.95,7.28,3.56,13.91,10.54,13.91h2.41c2.24,29.36,26.72,52.5,56.65,52.5s54.41-23.14,56.65-52.5h2.41
			c6.98,0,12.49-6.63,10.54-13.91C318.31,240.03,313.66,236.87,308.68,236.87z"/>
		<path class="st5" d="M210.63,254.37v-26.25c0-12.08,9.79-21.87,21.87-21.87h35c4.83,0,8.75-3.92,8.75-8.75l0,0H223.1
			c-15.39,0-26.82,14.26-23.46,29.29c1.16,5.18-2.82,10.08-8.12,10.08h-0.19c-4.98,0-9.63,3.16-10.92,7.97
			c-1.95,7.28,3.56,13.91,10.54,13.91h2.41c2.24,29.36,26.72,52.5,56.65,52.5c2.99,0,5.91-0.29,8.78-0.74
			C231.52,306.31,210.63,282.81,210.63,254.37z"/>
		<g>
			<path class="st1" d="M223.75,250c-2.42,0-4.37-1.96-4.37-4.37v-4.37c0-2.42,1.96-4.37,4.37-4.37s4.37,1.96,4.37,4.37v4.37
				C228.13,248.04,226.17,250,223.75,250z"/>
			<path class="st1" d="M276.25,250c-2.42,0-4.37-1.96-4.37-4.37v-4.37c0-2.42,1.96-4.37,4.37-4.37c2.42,0,4.37,1.96,4.37,4.37v4.37
				C280.62,248.04,278.67,250,276.25,250z"/>
		</g>
		<path class="st9" d="M250,280.63c-6.57,0-12.62-2.11-16.2-5.64c-1.72-1.7-1.74-4.47-0.04-6.19c1.7-1.72,4.47-1.74,6.19-0.04
			c1.46,1.44,4.96,3.11,10.05,3.11s8.6-1.68,10.05-3.11c1.71-1.7,4.48-1.68,6.19,0.04c1.7,1.72,1.68,4.49-0.04,6.19
			C262.62,278.52,256.57,280.63,250,280.63z"/>
		<g>
			<path class="st2" d="M228.13,232.5h-8.75c-2.42,0-4.37-1.96-4.37-4.37s1.96-4.37,4.37-4.37h8.75c2.42,0,4.37,1.96,4.37,4.37
				S230.54,232.5,228.13,232.5z"/>
			<path class="st2" d="M280.62,232.5h-8.75c-2.42,0-4.37-1.96-4.37-4.37s1.96-4.37,4.37-4.37h8.75c2.42,0,4.37,1.96,4.37,4.37
				S283.04,232.5,280.62,232.5z"/>
		</g>
	</g>
</g>
</svg>
