<?xml version="1.0" encoding="utf-8"?>
<!-- Generator: Adobe Illustrator 24.0.2, SVG Export Plug-In . SVG Version: 6.00 Build 0)  -->
<svg version="1.1" id="Layer_1" xmlns="http://www.w3.org/2000/svg" xmlns:xlink="http://www.w3.org/1999/xlink" x="0px" y="0px"
	 viewBox="0 0 500 500" style="enable-background:new 0 0 500 500;" xml:space="preserve">
<style type="text/css">
	.st0{opacity:0.5;fill:#CCCCCC;}
	.st1{fill:#5A4650;}
	.st2{fill:#64505A;}
	.st3{fill:#FFE17D;}
	.st4{fill:#FFD164;}
	.st5{fill:#E3AA75;}
	.st6{fill:#D29B6E;}
	.st7{fill:#F5B97D;}
	.st8{fill:#B67F5F;}
	.st9{fill:#A06E50;}
	.st10{fill:#FF8250;}
	.st11{fill:#DC7346;}
	.st12{fill:#F5DCB4;}
	.st13{fill:#EBC9A0;}
	.st14{fill:#D2B496;}
	.st15{fill:#6E5A64;}
	.st16{fill:#84737B;}
	.st17{fill:#A5CDFF;}
	.st18{fill:#8CB4EB;}
	.st19{fill:#FFFFFF;}
	.st20{fill:#999999;}
	.st21{fill:#CD916E;}
	.st22{fill:#C69C6D;}
</style>
<g>
	<path class="st0" d="M338.58,424.88c0.19-0.02,0.38-0.06,0.56-0.07c0.62-0.07,1.23-0.17,1.84-0.28c0.27-0.05,0.54-0.11,0.81-0.17
		c0.52-0.12,1.04-0.25,1.56-0.4c0.28-0.08,0.57-0.18,0.85-0.27c0.5-0.17,0.99-0.34,1.48-0.54c0.27-0.12,0.53-0.23,0.8-0.34
		c0.49-0.21,0.97-0.44,1.45-0.69c0.25-0.13,0.5-0.27,0.74-0.41c0.45-0.26,0.9-0.53,1.34-0.82c0.26-0.17,0.51-0.35,0.77-0.53
		c0.4-0.28,0.79-0.58,1.18-0.88c0.27-0.21,0.53-0.44,0.79-0.66c0.35-0.31,0.7-0.62,1.04-0.95c0.26-0.26,0.52-0.52,0.77-0.79
		c0.3-0.31,0.59-0.62,0.87-0.95c0.29-0.34,0.56-0.69,0.83-1.04c0.23-0.3,0.47-0.61,0.69-0.92c0.26-0.37,0.5-0.76,0.74-1.15
		c0.15-0.24,0.31-0.47,0.45-0.71l86.16-149.56c0.14-0.25,0.26-0.5,0.39-0.75c0.22-0.4,0.42-0.8,0.61-1.21
		c0.17-0.35,0.31-0.71,0.46-1.06c0.17-0.41,0.33-0.83,0.48-1.24c0.14-0.41,0.27-0.81,0.39-1.22c0.12-0.35,0.2-0.71,0.29-1.07
		c0.12-0.46,0.22-0.91,0.31-1.37c0.06-0.34,0.11-0.67,0.17-1.02c0.07-0.47,0.14-0.94,0.18-1.42c0.03-0.33,0.06-0.67,0.08-1
		c0.05-0.51,0.04-1.02,0.04-1.53l0.02-0.02c0-0.29-0.01-0.57-0.02-0.85c-0.02-0.54-0.06-1.07-0.12-1.6
		c-0.05-0.29-0.06-0.58-0.1-0.86c-0.07-0.52-0.17-1.04-0.27-1.56c-0.06-0.29-0.11-0.57-0.19-0.86c-0.13-0.52-0.27-1.04-0.43-1.56
		c-0.08-0.27-0.17-0.53-0.26-0.8c-0.2-0.59-0.43-1.16-0.67-1.74c-0.07-0.17-0.15-0.35-0.23-0.52c-0.29-0.65-0.62-1.29-0.97-1.91
		c-0.05-0.08-0.08-0.17-0.14-0.25l-0.17-0.3c-0.06-0.11-0.12-0.22-0.19-0.33l-85.8-148.93c-0.13-0.23-0.29-0.44-0.43-0.67
		c-0.24-0.4-0.5-0.8-0.77-1.19c-0.23-0.34-0.48-0.66-0.73-0.99c-0.26-0.33-0.52-0.66-0.8-0.98c-0.25-0.3-0.52-0.59-0.78-0.87
		c-0.3-0.33-0.61-0.64-0.93-0.95c-0.28-0.27-0.57-0.53-0.87-0.79c-0.31-0.27-0.62-0.53-0.94-0.79c-0.33-0.26-0.66-0.5-0.99-0.74
		c-0.33-0.24-0.67-0.47-1.01-0.69c-0.34-0.22-0.69-0.44-1.04-0.64c-0.35-0.21-0.71-0.4-1.07-0.59c-0.36-0.19-0.74-0.36-1.11-0.52
		c-0.37-0.17-0.74-0.34-1.12-0.49c-0.38-0.15-0.77-0.29-1.16-0.43c-0.37-0.13-0.74-0.25-1.12-0.36c-0.42-0.12-0.85-0.23-1.27-0.33
		c-0.38-0.09-0.77-0.18-1.16-0.25c-0.42-0.08-0.85-0.14-1.27-0.2c-0.39-0.06-0.79-0.1-1.19-0.14c-0.47-0.05-0.94-0.06-1.41-0.07
		c-0.26-0.02-0.53-0.04-0.8-0.04H164.55c-0.12,0-0.25,0.02-0.37,0h-0.34c-0.09,0-0.18,0.02-0.27,0.02c-0.72,0-1.43,0.04-2.14,0.11
		c-0.19,0.02-0.38,0.04-0.57,0.06c-0.62,0.07-1.23,0.17-1.84,0.28c-0.27,0.06-0.54,0.12-0.82,0.18c-0.52,0.12-1.04,0.25-1.56,0.4
		c-0.28,0.08-0.56,0.18-0.84,0.27c-0.5,0.17-0.99,0.35-1.49,0.55c-0.27,0.11-0.53,0.23-0.79,0.35c-0.49,0.22-0.97,0.45-1.45,0.7
		c-0.25,0.13-0.51,0.26-0.75,0.4c-0.44,0.25-0.87,0.52-1.3,0.8c-0.28,0.18-0.56,0.38-0.83,0.57c-0.39,0.28-0.76,0.55-1.14,0.85
		c-0.27,0.21-0.54,0.44-0.8,0.66c-0.35,0.31-0.7,0.63-1.04,0.96c-0.27,0.26-0.53,0.52-0.77,0.79c-0.29,0.31-0.58,0.62-0.86,0.95
		c-0.29,0.34-0.56,0.69-0.83,1.04c-0.23,0.31-0.47,0.59-0.69,0.91c-0.26,0.37-0.51,0.76-0.74,1.15c-0.15,0.24-0.31,0.47-0.46,0.72
		L55.68,237.27c-0.14,0.25-0.26,0.5-0.39,0.75c-0.21,0.4-0.42,0.8-0.61,1.22c-0.17,0.35-0.31,0.71-0.46,1.06
		c-0.17,0.41-0.34,0.82-0.48,1.24c-0.14,0.41-0.27,0.82-0.39,1.23c-0.1,0.35-0.21,0.71-0.3,1.06c-0.12,0.46-0.22,0.92-0.31,1.38
		c-0.06,0.33-0.13,0.67-0.17,1.01c-0.07,0.49-0.13,0.97-0.17,1.46c-0.03,0.31-0.03,0.62-0.07,0.93c-0.03,0.53-0.04,1.05-0.04,1.57
		c0,0.28,0.02,0.56,0.02,0.84c0.02,0.54,0.06,1.07,0.11,1.6c0.03,0.28,0.07,0.57,0.1,0.86c0.07,0.52,0.17,1.05,0.27,1.56
		c0.06,0.29,0.12,0.57,0.19,0.86c0.13,0.52,0.27,1.04,0.43,1.55c0.08,0.27,0.16,0.53,0.26,0.8c0.2,0.59,0.43,1.17,0.68,1.74
		c0.08,0.17,0.15,0.34,0.23,0.51c0.29,0.65,0.62,1.29,0.97,1.92c0.05,0.08,0.08,0.16,0.13,0.24l0.18,0.3
		c0.06,0.11,0.12,0.22,0.19,0.32l85.8,148.92c0.05,0.06,0.08,0.12,0.12,0.19c0.2,0.33,0.41,0.66,0.63,0.98
		c0.15,0.24,0.3,0.47,0.47,0.7c0.12,0.15,0.2,0.3,0.31,0.45c0.2,0.27,0.4,0.54,0.61,0.8c0.2,0.25,0.41,0.5,0.62,0.75
		c0.13,0.14,0.25,0.29,0.38,0.44c0.21,0.23,0.41,0.46,0.63,0.68c0.2,0.21,0.41,0.4,0.61,0.6c0.21,0.2,0.41,0.41,0.63,0.6
		c0.18,0.16,0.36,0.31,0.55,0.46c0.21,0.18,0.42,0.36,0.64,0.54c0.24,0.19,0.49,0.4,0.74,0.58c0.19,0.14,0.38,0.28,0.57,0.41
		c0.25,0.17,0.49,0.33,0.74,0.49c0.25,0.16,0.49,0.32,0.73,0.46c0.1,0.06,0.2,0.13,0.3,0.19c0.13,0.07,0.26,0.14,0.39,0.21
		c0.18,0.1,0.36,0.2,0.55,0.29c0.41,0.21,0.82,0.41,1.24,0.59c0.4,0.18,0.81,0.36,1.23,0.52c0.14,0.06,0.29,0.12,0.43,0.18
		c0.21,0.07,0.43,0.15,0.65,0.22c0.39,0.13,0.79,0.26,1.19,0.38c0.16,0.03,0.32,0.11,0.48,0.15c0.31,0.08,0.64,0.15,0.95,0.21
		c0.29,0.06,0.57,0.14,0.86,0.19c0.21,0.05,0.41,0.08,0.62,0.12c0.36,0.05,0.71,0.1,1.07,0.13c0.27,0.03,0.55,0.07,0.82,0.09
		c0.17,0.02,0.34,0.06,0.51,0.06c0.39,0.02,0.78,0.05,1.17,0.05c0.18,0,0.36,0.06,0.55,0.06h171.59h0.38h0.35h0.27
		C337.15,425,337.87,424.95,338.58,424.88z"/>
	<g>
		<path class="st5" d="M336.16,353.83l-46.11-13.56c-5.59-1.64-9.42-6.77-9.42-12.59v-20.8h-61.25v20.8
			c0,5.82-3.84,10.95-9.42,12.59l-46.11,13.56c-11.17,3.29-18.84,13.54-18.84,25.18v32.86c0,7.25,5.88,13.13,13.13,13.13h183.75
			c7.25,0,13.13-5.88,13.13-13.13v-32.86C355,367.37,347.33,357.12,336.16,353.83z"/>
		<path class="st17" d="M336.16,353.83l-46.11-13.56c-0.78-0.23-1.52-0.54-2.22-0.9L250,346.25l-37.82-6.88
			c-0.71,0.36-1.44,0.67-2.22,0.9l-46.11,13.56c-11.17,3.29-18.84,13.54-18.84,25.18v32.86c0,7.25,5.88,13.12,13.13,13.12h183.75
			c7.25,0,13.13-5.88,13.13-13.13v-32.86C355,367.37,347.33,357.12,336.16,353.83z"/>
		<path class="st18" d="M198.26,350.3l21.68,18.58c3.17,2.72,7.21,4.21,11.38,4.21c5.35,0,10.33-2.39,13.67-6.57l5.01-6.27
			l5.01,6.27c3.34,4.17,8.32,6.57,13.67,6.57c4.17,0,8.21-1.5,11.38-4.21l21.68-18.58c1.76-1.51,2.97-3.43,3.65-5.51l-15.35-4.51
			c-0.78-0.23-1.52-0.54-2.22-0.9L250,346.25l-37.82-6.88c-0.71,0.36-1.44,0.67-2.22,0.9l-15.35,4.51
			C195.29,346.87,196.5,348.79,198.26,350.3z"/>
		<path class="st6" d="M219.37,316.64c9.19,4.91,19.62,7.74,30.63,7.74s21.43-2.83,30.63-7.74v-9.76h-61.25V316.64z"/>
		<path class="st7" d="M309.06,241.25h-2.19v-48.13H193.13v48.12h-2.19c-6.04,0-10.94,4.9-10.94,10.94s4.9,10.94,10.94,10.94h2.41
			c2.24,29.36,26.72,52.5,56.65,52.5s54.41-23.14,56.65-52.5h2.41c6.04,0,10.94-4.9,10.94-10.94
			C320,246.15,315.1,241.25,309.06,241.25z"/>
		<path class="st5" d="M289.38,201.87v-8.75h-96.25v48.12h-1.56c-5.72,0-10.93,4.12-11.5,9.81c-0.66,6.55,4.47,12.07,10.88,12.07
			h2.41c2.24,29.36,26.72,52.5,56.65,52.5c2.99,0,5.91-0.29,8.78-0.74c-27.26-4.21-48.15-27.7-48.15-56.14v-30.63
			c0-9.66,7.83-17.5,17.5-17.5h52.5C285.46,210.62,289.38,206.71,289.38,201.87z"/>
		<g>
			<path class="st17" d="M250,346.25l-35.38-19.66c-2.18-1.21-4.92-0.36-6.04,1.87l-5.48,10.97c-0.72,1.44-0.37,3.18,0.85,4.22
				l21.68,18.58c3.76,3.22,9.44,2.69,12.53-1.18L250,346.25z"/>
			<path class="st17" d="M250,346.25l35.38-19.66c2.18-1.21,4.92-0.36,6.04,1.87l5.48,10.97c0.72,1.44,0.37,3.18-0.85,4.22
				l-21.68,18.58c-3.76,3.22-9.44,2.69-12.53-1.18L250,346.25z"/>
		</g>
		<g>
			<path class="st1" d="M223.75,254.76c-2.42,0-4.38-1.96-4.38-4.38v-4.38c0-2.42,1.96-4.38,4.38-4.38c2.42,0,4.38,1.96,4.38,4.38
				v4.38C228.12,252.8,226.17,254.76,223.75,254.76z"/>
			<path class="st1" d="M276.25,254.76c-2.42,0-4.38-1.96-4.38-4.38v-4.38c0-2.42,1.96-4.38,4.38-4.38s4.38,1.96,4.38,4.38v4.38
				C280.63,252.8,278.67,254.76,276.25,254.76z"/>
		</g>
		<g>
			<path class="st15" d="M228.12,236.88h-8.75c-2.42,0-4.38-1.96-4.38-4.38s1.96-4.38,4.38-4.38h8.75c2.42,0,4.38,1.96,4.38,4.38
				S230.54,236.88,228.12,236.88z"/>
			<path class="st15" d="M280.63,236.88h-8.75c-2.42,0-4.38-1.96-4.38-4.38s1.96-4.38,4.38-4.38h8.75c2.42,0,4.38,1.96,4.38,4.38
				S283.04,236.88,280.63,236.88z"/>
		</g>
		<path class="st19" d="M232.7,270.05c-1.38,0-2.4,1.26-2.17,2.62c1.42,8.42,9.6,14.88,19.47,14.88c9.87,0,18.05-6.46,19.47-14.88
			c0.23-1.36-0.79-2.62-2.17-2.62H232.7z"/>
		<g>
			<circle class="st20" cx="250" cy="381.25" r="4.38"/>
			<circle class="st20" cx="250" cy="407.5" r="4.38"/>
		</g>
		<path class="st1" d="M299.02,184.38h-98.04c-13.36,0-23.6,11.87-21.64,25.08l5.03,33.95l9.82-1.21c4.38-0.54,7.68-4.27,7.68-8.68
			v-22.89c0-4.83,3.92-8.75,8.75-8.75h78.75c4.83,0,8.75,3.92,8.75,8.75v22.89c0,4.42,3.29,8.14,7.68,8.68l9.82,1.21l5.03-33.95
			C322.62,196.24,312.38,184.38,299.02,184.38z"/>
		<path class="st2" d="M308.93,154.84c-0.84-2.61-3.87-3.87-6.26-2.54c-4.56,2.54-13.03,5.82-26.42,5.82H232.5
			c-16.91,0-30.63,13.71-30.63,30.63l0,0c0,7.25,5.88,13.13,13.13,13.13h70C301.44,201.87,317.88,182.57,308.93,154.84z"/>
		<g>
			<path class="st18" d="M184.38,385.62L184.38,385.62V425h-13.13v-26.25C171.25,391.5,177.13,385.62,184.38,385.62z"/>
			<path class="st18" d="M315.62,385.62L315.62,385.62V425h13.13v-26.25C328.75,391.5,322.87,385.62,315.62,385.62z"/>
		</g>
		<path class="st15" d="M227.92,173.38c0.07,6.2,5.56,11,11.76,11h59.34c3.15,0,6.11,0.68,8.8,1.86c3.99-8.09,5.16-18.87,1.11-31.41
			c-0.84-2.59-3.86-3.85-6.24-2.53c-4.55,2.54-13.03,5.83-26.43,5.83H232.5c-0.27,0.16-0.58,0.34-0.86,0.5
			c-2.37,4.34-3.73,9.31-3.73,14.61C227.92,173.28,227.92,173.33,227.92,173.38z"/>
	</g>
</g>
</svg>
