<?xml version="1.0" encoding="utf-8"?>
<!-- Generator: Adobe Illustrator 24.0.2, SVG Export Plug-In . SVG Version: 6.00 Build 0)  -->
<svg version="1.1" id="Layer_1" xmlns="http://www.w3.org/2000/svg" xmlns:xlink="http://www.w3.org/1999/xlink" x="0px" y="0px"
	 viewBox="0 0 500 500" style="enable-background:new 0 0 500 500;" xml:space="preserve">
<style type="text/css">
	.st0{opacity:0.5;fill:#CCCCCC;}
	.st1{fill:#5A4650;}
	.st2{fill:#64505A;}
	.st3{fill:#FFE17D;}
	.st4{fill:#FFD164;}
	.st5{fill:#E3AA75;}
	.st6{fill:#D29B6E;}
	.st7{fill:#F5B97D;}
	.st8{fill:#B67F5F;}
	.st9{fill:#A06E50;}
	.st10{fill:#FF8250;}
	.st11{fill:#DC7346;}
	.st12{fill:#F5DCB4;}
	.st13{fill:#EBC9A0;}
	.st14{fill:#D2B496;}
	.st15{fill:#6E5A64;}
	.st16{fill:#84737B;}
	.st17{fill:#A5CDFF;}
	.st18{fill:#8CB4EB;}
	.st19{fill:#FFFFFF;}
	.st20{fill:#999999;}
	.st21{fill:#CD916E;}
	.st22{fill:#C69C6D;}
</style>
<g>
	<path class="st0" d="M338.58,424.88c0.19-0.02,0.38-0.06,0.56-0.07c0.62-0.07,1.23-0.17,1.84-0.28c0.27-0.05,0.54-0.11,0.81-0.17
		c0.52-0.12,1.04-0.25,1.56-0.4c0.28-0.08,0.57-0.18,0.85-0.27c0.5-0.17,0.99-0.34,1.48-0.54c0.27-0.12,0.53-0.23,0.8-0.34
		c0.49-0.21,0.97-0.44,1.45-0.69c0.25-0.13,0.5-0.27,0.74-0.41c0.45-0.26,0.9-0.53,1.34-0.82c0.26-0.17,0.51-0.35,0.77-0.53
		c0.4-0.28,0.79-0.58,1.18-0.88c0.27-0.21,0.53-0.44,0.79-0.66c0.35-0.31,0.7-0.62,1.04-0.95c0.26-0.26,0.52-0.52,0.77-0.79
		c0.3-0.31,0.59-0.62,0.87-0.95c0.29-0.34,0.56-0.69,0.83-1.04c0.23-0.3,0.47-0.61,0.69-0.92c0.26-0.37,0.5-0.76,0.74-1.15
		c0.15-0.24,0.31-0.47,0.45-0.71l86.16-149.56c0.14-0.25,0.26-0.5,0.39-0.75c0.22-0.4,0.42-0.8,0.61-1.21
		c0.17-0.35,0.31-0.71,0.46-1.06c0.17-0.41,0.33-0.83,0.48-1.24c0.14-0.41,0.27-0.81,0.39-1.22c0.12-0.35,0.2-0.71,0.29-1.07
		c0.12-0.46,0.22-0.91,0.31-1.37c0.06-0.34,0.11-0.67,0.17-1.02c0.07-0.47,0.14-0.94,0.18-1.42c0.03-0.33,0.06-0.67,0.08-1
		c0.05-0.51,0.04-1.02,0.04-1.53l0.02-0.02c0-0.29-0.01-0.57-0.02-0.85c-0.02-0.54-0.06-1.07-0.12-1.6
		c-0.05-0.29-0.06-0.58-0.1-0.86c-0.07-0.52-0.17-1.04-0.27-1.56c-0.06-0.29-0.11-0.57-0.19-0.86c-0.13-0.52-0.27-1.04-0.43-1.56
		c-0.08-0.27-0.17-0.53-0.26-0.8c-0.2-0.59-0.43-1.16-0.67-1.74c-0.07-0.17-0.15-0.35-0.23-0.52c-0.29-0.65-0.62-1.29-0.97-1.91
		c-0.05-0.08-0.08-0.17-0.14-0.25l-0.17-0.3c-0.06-0.11-0.12-0.22-0.19-0.33l-85.8-148.93c-0.13-0.23-0.29-0.44-0.43-0.67
		c-0.24-0.4-0.5-0.8-0.77-1.19c-0.23-0.34-0.48-0.66-0.73-0.99c-0.26-0.33-0.52-0.66-0.8-0.98c-0.25-0.3-0.52-0.59-0.78-0.87
		c-0.3-0.33-0.61-0.64-0.93-0.95c-0.28-0.27-0.57-0.53-0.87-0.79c-0.31-0.27-0.62-0.53-0.94-0.79c-0.33-0.26-0.66-0.5-0.99-0.74
		c-0.33-0.24-0.67-0.47-1.01-0.69c-0.34-0.22-0.69-0.44-1.04-0.64c-0.35-0.21-0.71-0.4-1.07-0.59c-0.36-0.19-0.74-0.36-1.11-0.52
		c-0.37-0.17-0.74-0.34-1.12-0.49c-0.38-0.15-0.77-0.29-1.16-0.43c-0.37-0.13-0.74-0.25-1.12-0.36c-0.42-0.12-0.85-0.23-1.27-0.33
		c-0.38-0.09-0.77-0.18-1.16-0.25c-0.42-0.08-0.85-0.14-1.27-0.2c-0.39-0.06-0.79-0.1-1.19-0.14c-0.47-0.05-0.94-0.06-1.41-0.07
		c-0.26-0.02-0.53-0.04-0.8-0.04H164.55c-0.12,0-0.25,0.02-0.37,0h-0.34c-0.09,0-0.18,0.02-0.27,0.02c-0.72,0-1.43,0.04-2.14,0.11
		c-0.19,0.02-0.38,0.04-0.57,0.06c-0.62,0.07-1.23,0.17-1.84,0.28c-0.27,0.06-0.54,0.12-0.82,0.18c-0.52,0.12-1.04,0.25-1.56,0.4
		c-0.28,0.08-0.56,0.18-0.84,0.27c-0.5,0.17-0.99,0.35-1.49,0.55c-0.27,0.11-0.53,0.23-0.79,0.35c-0.49,0.22-0.97,0.45-1.45,0.7
		c-0.25,0.13-0.51,0.26-0.75,0.4c-0.44,0.25-0.87,0.52-1.3,0.8c-0.28,0.18-0.56,0.38-0.83,0.57c-0.39,0.28-0.76,0.55-1.14,0.85
		c-0.27,0.21-0.54,0.44-0.8,0.66c-0.35,0.31-0.7,0.63-1.04,0.96c-0.27,0.26-0.53,0.52-0.77,0.79c-0.29,0.31-0.58,0.62-0.86,0.95
		c-0.29,0.34-0.56,0.69-0.83,1.04c-0.23,0.31-0.47,0.59-0.69,0.91c-0.26,0.37-0.51,0.76-0.74,1.15c-0.15,0.24-0.31,0.47-0.46,0.72
		L55.68,237.27c-0.14,0.25-0.26,0.5-0.39,0.75c-0.21,0.4-0.42,0.8-0.61,1.22c-0.17,0.35-0.31,0.71-0.46,1.06
		c-0.17,0.41-0.34,0.82-0.48,1.24c-0.14,0.41-0.27,0.82-0.39,1.23c-0.1,0.35-0.21,0.71-0.3,1.06c-0.12,0.46-0.22,0.92-0.31,1.38
		c-0.06,0.33-0.13,0.67-0.17,1.01c-0.07,0.49-0.13,0.97-0.17,1.46c-0.03,0.31-0.03,0.62-0.07,0.93c-0.03,0.53-0.04,1.05-0.04,1.57
		c0,0.28,0.02,0.56,0.02,0.84c0.02,0.54,0.06,1.07,0.11,1.6c0.03,0.28,0.07,0.57,0.1,0.86c0.07,0.52,0.17,1.05,0.27,1.56
		c0.06,0.29,0.12,0.57,0.19,0.86c0.13,0.52,0.27,1.04,0.43,1.55c0.08,0.27,0.16,0.53,0.26,0.8c0.2,0.59,0.43,1.17,0.68,1.74
		c0.08,0.17,0.15,0.34,0.23,0.51c0.29,0.65,0.62,1.29,0.97,1.92c0.05,0.08,0.08,0.16,0.13,0.24l0.18,0.3
		c0.06,0.11,0.12,0.22,0.19,0.32l85.8,148.92c0.05,0.06,0.08,0.12,0.12,0.19c0.2,0.33,0.41,0.66,0.63,0.98
		c0.15,0.24,0.3,0.47,0.47,0.7c0.12,0.15,0.2,0.3,0.31,0.45c0.2,0.27,0.4,0.54,0.61,0.8c0.2,0.25,0.41,0.5,0.62,0.75
		c0.13,0.14,0.25,0.29,0.38,0.44c0.21,0.23,0.41,0.46,0.63,0.68c0.2,0.21,0.41,0.4,0.61,0.6c0.21,0.2,0.41,0.41,0.63,0.6
		c0.18,0.16,0.36,0.31,0.55,0.46c0.21,0.18,0.42,0.36,0.64,0.54c0.24,0.19,0.49,0.4,0.74,0.58c0.19,0.14,0.38,0.28,0.57,0.41
		c0.25,0.17,0.49,0.33,0.74,0.49c0.25,0.16,0.49,0.32,0.73,0.46c0.1,0.06,0.2,0.13,0.3,0.19c0.13,0.07,0.26,0.14,0.39,0.21
		c0.18,0.1,0.36,0.2,0.55,0.29c0.41,0.21,0.82,0.41,1.24,0.59c0.4,0.18,0.81,0.36,1.23,0.52c0.14,0.06,0.29,0.12,0.43,0.18
		c0.21,0.07,0.43,0.15,0.65,0.22c0.39,0.13,0.79,0.26,1.19,0.38c0.16,0.03,0.32,0.11,0.48,0.15c0.31,0.08,0.64,0.15,0.95,0.21
		c0.29,0.06,0.57,0.14,0.86,0.19c0.21,0.05,0.41,0.08,0.62,0.12c0.36,0.05,0.71,0.1,1.07,0.13c0.27,0.03,0.55,0.07,0.82,0.09
		c0.17,0.02,0.34,0.06,0.51,0.06c0.39,0.02,0.78,0.05,1.17,0.05c0.18,0,0.36,0.06,0.55,0.06h171.59h0.38h0.35h0.27
		C337.15,425,337.87,424.95,338.58,424.88z"/>
	<g>
		<path class="st12" d="M336.47,366.8l-29.08-8.95c-5.51-1.69-9.26-6.78-9.26-12.54v-20.93c0-2.42-1.96-4.37-4.37-4.37h-87.5
			c-2.42,0-4.37,1.96-4.37,4.37v20.93c0,5.76-3.76,10.85-9.27,12.54l-29.08,8.95c-11.01,3.39-18.53,13.57-18.53,25.09v19.99
			c0,7.25,5.88,13.13,13.13,13.13h183.75c7.25,0,13.13-5.88,13.13-13.13v-19.99C355,380.36,347.48,370.19,336.47,366.8z"/>
		<path class="st13" d="M193.04,357.68C199.84,376.29,222.73,390,250,390s50.16-13.71,56.96-32.32c-5.26-1.83-8.83-6.77-8.83-12.37
			v-20.93c0-2.42-1.96-4.37-4.37-4.37h-87.5c-2.42,0-4.37,1.96-4.37,4.37v20.93C201.87,350.91,198.3,355.85,193.04,357.68z"/>
		<path class="st14" d="M293.75,320h-87.5c-1.27,0-2.39,0.56-3.19,1.43c10.25,14.97,27.46,24.82,46.94,24.82s36.69-9.85,46.94-24.82
			C296.14,320.56,295.02,320,293.75,320z"/>
		<path class="st7" d="M309.06,245.63h-2.19v-43.75H193.12v43.75h-2.19c-6.02,0-10.94,4.92-10.94,10.94
			c0,6.02,4.92,10.94,10.94,10.94h2.41c2.24,29.36,26.72,52.5,56.65,52.5s54.41-23.14,56.65-52.5h2.41
			c6.02,0,10.94-4.92,10.94-10.94C320,250.55,315.08,245.63,309.06,245.63z"/>
		<g>
			<path class="st1" d="M223.75,259.13c-2.42,0-4.37-1.96-4.37-4.37v-4.37c0-2.42,1.96-4.37,4.37-4.37s4.37,1.96,4.37,4.37v4.37
				C228.12,257.17,226.17,259.13,223.75,259.13z"/>
			<path class="st1" d="M276.25,259.13c-2.42,0-4.37-1.96-4.37-4.37v-4.37c0-2.42,1.96-4.37,4.37-4.37c2.42,0,4.37,1.96,4.37,4.37
				v4.37C280.62,257.17,278.67,259.13,276.25,259.13z"/>
		</g>
		<g>
			<path class="st15" d="M228.12,241.25h-8.75c-2.42,0-4.37-1.96-4.37-4.37c0-2.42,1.96-4.37,4.37-4.37h8.75
				c2.42,0,4.37,1.96,4.37,4.37C232.5,239.29,230.54,241.25,228.12,241.25z"/>
			<path class="st15" d="M280.62,241.25h-8.75c-2.42,0-4.37-1.96-4.37-4.37c0-2.42,1.96-4.37,4.37-4.37h8.75
				c2.42,0,4.37,1.96,4.37,4.37C285,239.29,283.04,241.25,280.62,241.25z"/>
		</g>
		<path class="st5" d="M285,206.25v-4.38h-91.87v43.75h-1.8c-4.98,0-9.63,3.16-10.92,7.97c-1.95,7.28,3.56,13.91,10.54,13.91h2.41
			c2.24,29.36,26.72,52.5,56.65,52.5c2.99,0,5.91-0.29,8.78-0.74c-27.26-4.21-48.15-27.7-48.15-56.14v-26.25
			c0-12.08,9.79-21.87,21.87-21.87h43.75C281.08,215,285,211.08,285,206.25z"/>
		<path class="st1" d="M219.37,163.43c-21.5,4.45-36.98,24.62-34.58,47.4l3.7,35.05l4.51-0.09c4.76-0.09,8.58-3.98,8.58-8.75v-17.67
			c0-7.25,5.88-13.13,13.13-13.13h48.41L219.37,163.43z"/>
		<path class="st16" d="M285,271.87h-70c-7.25,0-13.13,5.88-13.13,13.13v4.37c0,26.58,21.55,48.13,48.13,48.13l0,0
			c26.58,0,48.13-21.55,48.13-48.13V285C298.12,277.75,292.25,271.87,285,271.87z"/>
		<path class="st5" d="M250,298.13c-6.56,0-12.62-2.11-16.2-5.64c-1.72-1.7-1.74-4.47-0.04-6.19c1.7-1.72,4.47-1.74,6.19-0.04
			c1.46,1.44,4.96,3.11,10.05,3.11c5.09,0,8.6-1.68,10.05-3.11c1.71-1.7,4.49-1.68,6.19,0.04c1.7,1.72,1.68,4.49-0.04,6.19
			C262.62,296.02,256.56,298.13,250,298.13z"/>
		<g>
			<path class="st15" d="M223.75,289.37V285c0-7.25,5.88-13.13,13.13-13.13H215c-7.25,0-13.13,5.88-13.13,13.13v4.37
				c0,26.58,21.55,48.13,48.13,48.13c3.77,0,7.42-0.48,10.94-1.3C239.64,331.24,223.75,312.18,223.75,289.37z"/>
			<path class="st15" d="M311.22,245.88l3.7-35.05c2.72-25.83-17.53-48.33-43.5-48.33h-43.29c-11.22,0-24.04-1.6-31.62-6.16
				c-1.6-0.97-3.68,0.28-3.67,2.15c0.05,12.91,6.13,47.76,70.29,47.76H285c7.25,0,13.13,5.88,13.13,13.13v17.67
				c0,4.77,3.81,8.65,8.58,8.75L311.22,245.88z"/>
		</g>
	</g>
</g>
</svg>
