<?xml version="1.0" encoding="utf-8"?>
<!-- Generator: Adobe Illustrator 24.0.2, SVG Export Plug-In . SVG Version: 6.00 Build 0)  -->
<svg version="1.1" id="Layer_1" xmlns="http://www.w3.org/2000/svg" xmlns:xlink="http://www.w3.org/1999/xlink" x="0px" y="0px"
	 viewBox="0 0 500 500" style="enable-background:new 0 0 500 500;" xml:space="preserve">
<style type="text/css">
	.st0{opacity:0.5;fill:#CCCCCC;}
	.st1{fill:#5A4650;}
	.st2{fill:#64505A;}
	.st3{fill:#FFE17D;}
	.st4{fill:#FFD164;}
	.st5{fill:#E3AA75;}
	.st6{fill:#D29B6E;}
	.st7{fill:#F5B97D;}
	.st8{fill:#B67F5F;}
	.st9{fill:#A06E50;}
	.st10{fill:#FF8250;}
	.st11{fill:#DC7346;}
	.st12{fill:#F5DCB4;}
	.st13{fill:#EBC9A0;}
	.st14{fill:#D2B496;}
	.st15{fill:#6E5A64;}
	.st16{fill:#84737B;}
	.st17{fill:#A5CDFF;}
	.st18{fill:#8CB4EB;}
	.st19{fill:#FFFFFF;}
	.st20{fill:#999999;}
	.st21{fill:#CD916E;}
	.st22{fill:#C69C6D;}
</style>
<g>
	<path class="st0" d="M338.58,424.88c0.19-0.02,0.38-0.06,0.56-0.07c0.62-0.07,1.23-0.17,1.84-0.28c0.27-0.05,0.54-0.11,0.81-0.17
		c0.52-0.12,1.04-0.25,1.56-0.4c0.28-0.08,0.57-0.18,0.85-0.27c0.5-0.17,0.99-0.34,1.48-0.54c0.27-0.12,0.53-0.23,0.8-0.34
		c0.49-0.21,0.97-0.44,1.45-0.69c0.25-0.13,0.5-0.27,0.74-0.41c0.45-0.26,0.9-0.53,1.34-0.82c0.26-0.17,0.51-0.35,0.77-0.53
		c0.4-0.28,0.79-0.58,1.18-0.88c0.27-0.21,0.53-0.44,0.79-0.66c0.35-0.31,0.7-0.62,1.04-0.95c0.26-0.26,0.52-0.52,0.77-0.79
		c0.3-0.31,0.59-0.62,0.87-0.95c0.29-0.34,0.56-0.69,0.83-1.04c0.23-0.3,0.47-0.61,0.69-0.92c0.26-0.37,0.5-0.76,0.74-1.15
		c0.15-0.24,0.31-0.47,0.45-0.71l86.16-149.56c0.14-0.25,0.26-0.5,0.39-0.75c0.22-0.4,0.42-0.8,0.61-1.21
		c0.17-0.35,0.31-0.71,0.46-1.06c0.17-0.41,0.33-0.83,0.48-1.24c0.14-0.41,0.27-0.81,0.39-1.22c0.12-0.35,0.2-0.71,0.29-1.07
		c0.12-0.46,0.22-0.91,0.31-1.37c0.06-0.34,0.11-0.67,0.17-1.02c0.07-0.47,0.14-0.94,0.18-1.42c0.03-0.33,0.06-0.67,0.08-1
		c0.05-0.51,0.04-1.02,0.04-1.53l0.02-0.02c0-0.29-0.01-0.57-0.02-0.85c-0.02-0.54-0.06-1.07-0.12-1.6
		c-0.05-0.29-0.06-0.58-0.1-0.86c-0.07-0.52-0.17-1.04-0.27-1.56c-0.06-0.29-0.11-0.57-0.19-0.86c-0.13-0.52-0.27-1.04-0.43-1.56
		c-0.08-0.27-0.17-0.53-0.26-0.8c-0.2-0.59-0.43-1.16-0.67-1.74c-0.07-0.17-0.15-0.35-0.23-0.52c-0.29-0.65-0.62-1.29-0.97-1.91
		c-0.05-0.08-0.08-0.17-0.14-0.25l-0.17-0.3c-0.06-0.11-0.12-0.22-0.19-0.33l-85.8-148.93c-0.13-0.23-0.29-0.44-0.43-0.67
		c-0.24-0.4-0.5-0.8-0.77-1.19c-0.23-0.34-0.48-0.66-0.73-0.99c-0.26-0.33-0.52-0.66-0.8-0.98c-0.25-0.3-0.52-0.59-0.78-0.87
		c-0.3-0.33-0.61-0.64-0.93-0.95c-0.28-0.27-0.57-0.53-0.87-0.79c-0.31-0.27-0.62-0.53-0.94-0.79c-0.33-0.26-0.66-0.5-0.99-0.74
		c-0.33-0.24-0.67-0.47-1.01-0.69c-0.34-0.22-0.69-0.44-1.04-0.64c-0.35-0.21-0.71-0.4-1.07-0.59c-0.36-0.19-0.74-0.36-1.11-0.52
		c-0.37-0.17-0.74-0.34-1.12-0.49c-0.38-0.15-0.77-0.29-1.16-0.43c-0.37-0.13-0.74-0.25-1.12-0.36c-0.42-0.12-0.85-0.23-1.27-0.33
		c-0.38-0.09-0.77-0.18-1.16-0.25c-0.42-0.08-0.85-0.14-1.27-0.2c-0.39-0.06-0.79-0.1-1.19-0.14c-0.47-0.05-0.94-0.06-1.41-0.07
		c-0.26-0.02-0.53-0.04-0.8-0.04H164.55c-0.12,0-0.25,0.02-0.37,0h-0.34c-0.09,0-0.18,0.02-0.27,0.02c-0.72,0-1.43,0.04-2.14,0.11
		c-0.19,0.02-0.38,0.04-0.57,0.06c-0.62,0.07-1.23,0.17-1.84,0.28c-0.27,0.06-0.54,0.12-0.82,0.18c-0.52,0.12-1.04,0.25-1.56,0.4
		c-0.28,0.08-0.56,0.18-0.84,0.27c-0.5,0.17-0.99,0.35-1.49,0.55c-0.27,0.11-0.53,0.23-0.79,0.35c-0.49,0.22-0.97,0.45-1.45,0.7
		c-0.25,0.13-0.51,0.26-0.75,0.4c-0.44,0.25-0.87,0.52-1.3,0.8c-0.28,0.18-0.56,0.38-0.83,0.57c-0.39,0.28-0.76,0.55-1.14,0.85
		c-0.27,0.21-0.54,0.44-0.8,0.66c-0.35,0.31-0.7,0.63-1.04,0.96c-0.27,0.26-0.53,0.52-0.77,0.79c-0.29,0.31-0.58,0.62-0.86,0.95
		c-0.29,0.34-0.56,0.69-0.83,1.04c-0.23,0.31-0.47,0.59-0.69,0.91c-0.26,0.37-0.51,0.76-0.74,1.15c-0.15,0.24-0.31,0.47-0.46,0.72
		L55.68,237.27c-0.14,0.25-0.26,0.5-0.39,0.75c-0.21,0.4-0.42,0.8-0.61,1.22c-0.17,0.35-0.31,0.71-0.46,1.06
		c-0.17,0.41-0.34,0.82-0.48,1.24c-0.14,0.41-0.27,0.82-0.39,1.23c-0.1,0.35-0.21,0.71-0.3,1.06c-0.12,0.46-0.22,0.92-0.31,1.38
		c-0.06,0.33-0.13,0.67-0.17,1.01c-0.07,0.49-0.13,0.97-0.17,1.46c-0.03,0.31-0.03,0.62-0.07,0.93c-0.03,0.53-0.04,1.05-0.04,1.57
		c0,0.28,0.02,0.56,0.02,0.84c0.02,0.54,0.06,1.07,0.11,1.6c0.03,0.28,0.07,0.57,0.1,0.86c0.07,0.52,0.17,1.05,0.27,1.56
		c0.06,0.29,0.12,0.57,0.19,0.86c0.13,0.52,0.27,1.04,0.43,1.55c0.08,0.27,0.16,0.53,0.26,0.8c0.2,0.59,0.43,1.17,0.68,1.74
		c0.08,0.17,0.15,0.34,0.23,0.51c0.29,0.65,0.62,1.29,0.97,1.92c0.05,0.08,0.08,0.16,0.13,0.24l0.18,0.3
		c0.06,0.11,0.12,0.22,0.19,0.32l85.8,148.92c0.05,0.06,0.08,0.12,0.12,0.19c0.2,0.33,0.41,0.66,0.63,0.98
		c0.15,0.24,0.3,0.47,0.47,0.7c0.12,0.15,0.2,0.3,0.31,0.45c0.2,0.27,0.4,0.54,0.61,0.8c0.2,0.25,0.41,0.5,0.62,0.75
		c0.13,0.14,0.25,0.29,0.38,0.44c0.21,0.23,0.41,0.46,0.63,0.68c0.2,0.21,0.41,0.4,0.61,0.6c0.21,0.2,0.41,0.41,0.63,0.6
		c0.18,0.16,0.36,0.31,0.55,0.46c0.21,0.18,0.42,0.36,0.64,0.54c0.24,0.19,0.49,0.4,0.74,0.58c0.19,0.14,0.38,0.28,0.57,0.41
		c0.25,0.17,0.49,0.33,0.74,0.49c0.25,0.16,0.49,0.32,0.73,0.46c0.1,0.06,0.2,0.13,0.3,0.19c0.13,0.07,0.26,0.14,0.39,0.21
		c0.18,0.1,0.36,0.2,0.55,0.29c0.41,0.21,0.82,0.41,1.24,0.59c0.4,0.18,0.81,0.36,1.23,0.52c0.14,0.06,0.29,0.12,0.43,0.18
		c0.21,0.07,0.43,0.15,0.65,0.22c0.39,0.13,0.79,0.26,1.19,0.38c0.16,0.03,0.32,0.11,0.48,0.15c0.31,0.08,0.64,0.15,0.95,0.21
		c0.29,0.06,0.57,0.14,0.86,0.19c0.21,0.05,0.41,0.08,0.62,0.12c0.36,0.05,0.71,0.1,1.07,0.13c0.27,0.03,0.55,0.07,0.82,0.09
		c0.17,0.02,0.34,0.06,0.51,0.06c0.39,0.02,0.78,0.05,1.17,0.05c0.18,0,0.36,0.06,0.55,0.06h171.59h0.38h0.35h0.27
		C337.15,425,337.87,424.95,338.58,424.88z"/>
	<g>
		<path class="st1" d="M190.65,361.09c0,0-31.96-60.25-31.96-122.12l0,0c0-34.49,18.26-65.06,50.22-83.32h27.39v205.43
			L190.65,361.09L190.65,361.09z"/>
		<path class="st2" d="M309.35,356.52c0,0,36.52-59.35,36.52-118.7l0,0c0-52.95-42.92-95.87-95.87-95.87h-9.13
			c-22.83,0-41.09,14.31-41.09,31.96l0,0c0,10.09,8.18,18.26,18.26,18.26h18.26v164.35L309.35,356.52L309.35,356.52L309.35,356.52z"
			/>
		<path class="st3" d="M195.22,283.48c0,5.04-4.09,9.13-9.13,9.13c-5.04,0-9.13-4.09-9.13-9.13c0-9.13,9.13-27.39,9.13-27.39
			S195.22,274.35,195.22,283.48z"/>
		<path class="st4" d="M186.09,256.09c0,0-9.13,18.26-9.13,27.39c0,5.04,4.09,9.13,9.13,9.13V256.09z"/>
		<path class="st3" d="M323.04,283.48c0,5.04-4.09,9.13-9.13,9.13c-5.04,0-9.13-4.09-9.13-9.13c0-9.13,9.13-27.39,9.13-27.39
			S323.04,274.35,323.04,283.48z"/>
		<path class="st4" d="M313.91,256.09c0,0-9.13,18.26-9.13,27.39c0,5.04,4.09,9.13,9.13,9.13V256.09z"/>
		<path class="st5" d="M336.72,363.77l-47.15-16.64c-7.3-2.58-12.18-9.48-12.18-17.22v-23.6h-54.78v23.6
			c0,7.74-4.88,14.64-12.18,17.22l-47.15,16.64C152.32,367.63,145,377.98,145,389.6v21.71c0,7.56,6.13,13.7,13.7,13.7H341.3
			c7.56,0,13.7-6.13,13.7-13.7V389.6C355,377.98,347.68,367.63,336.72,363.77z"/>
		<path class="st6" d="M250,324.56c9.7,0,18.96-2.11,27.39-5.84V306.3h-54.78v12.42C231.04,322.45,240.3,324.56,250,324.56z"/>
		<path class="st7" d="M311.63,237.83h-2.28v-18.26c0-15.13-12.26-27.39-27.39-27.39h-63.91c-15.13,0-27.39,12.26-27.39,27.39v18.26
			h-2.28c-6.3,0-11.41,5.11-11.41,11.41c0,6.3,5.11,11.41,11.41,11.41h2.51c2.34,30.64,27.88,54.78,59.12,54.78
			s56.78-24.15,59.12-54.78h2.51c6.3,0,11.41-5.11,11.41-11.41C323.04,242.94,317.93,237.83,311.63,237.83z"/>
		<g>
			<path class="st1" d="M222.61,251.92c-2.52,0-4.57-2.04-4.57-4.57v-4.57c0-2.52,2.04-4.57,4.57-4.57c2.52,0,4.57,2.04,4.57,4.57
				v4.57C227.17,249.88,225.13,251.92,222.61,251.92z"/>
			<path class="st1" d="M277.39,251.92c-2.52,0-4.57-2.04-4.57-4.57v-4.57c0-2.52,2.04-4.57,4.57-4.57c2.52,0,4.57,2.04,4.57,4.57
				v4.57C281.96,249.88,279.91,251.92,277.39,251.92z"/>
		</g>
		<path class="st8" d="M250,288.04c-6.85,0-13.17-2.2-16.9-5.88c-1.8-1.77-1.81-4.66-0.04-6.46c1.78-1.8,4.67-1.81,6.46-0.04
			c1.52,1.5,5.18,3.25,10.49,3.25c5.31,0,8.97-1.75,10.49-3.25c1.79-1.77,4.68-1.76,6.46,0.04c1.77,1.79,1.75,4.68-0.04,6.46
			C263.17,285.84,256.85,288.04,250,288.04z"/>
		<g>
			<path class="st9" d="M218.05,233.55c-1.71,0-3.35-0.96-4.13-2.61c-1.08-2.28-0.11-5,2.17-6.08l5.42-2.57
				c2.27-1.08,5-0.11,6.08,2.17c1.08,2.28,0.11,5-2.17,6.08l-5.42,2.57C219.37,233.4,218.7,233.55,218.05,233.55z"/>
			<path class="st9" d="M281.95,233.55c-0.66,0-1.32-0.14-1.95-0.44l-5.42-2.57c-2.28-1.08-3.25-3.8-2.17-6.08
				c1.08-2.28,3.81-3.25,6.08-2.17l5.42,2.57c2.28,1.08,3.25,3.8,2.17,6.08C285.3,232.58,283.66,233.55,281.95,233.55z"/>
		</g>
		<path class="st10" d="M336.72,363.77l-10.7-3.78c-17.52,22.83-45.01,37.62-76.02,37.62s-58.5-14.79-76.02-37.62l-10.7,3.78
			C152.32,367.63,145,377.98,145,389.6v21.71c0,7.56,6.13,13.7,13.7,13.7H341.3c7.56,0,13.7-6.13,13.7-13.7V389.6
			C355,377.98,347.68,367.63,336.72,363.77z"/>
		<path class="st11" d="M250,397.61c-31.01,0-58.5-14.79-76.02-37.62l-9.09,3.21c19.07,26.37,50.08,43.54,85.11,43.54
			s66.04-17.17,85.11-43.54l-9.09-3.21C308.5,382.82,281.01,397.61,250,397.61z"/>
		<path class="st5" d="M190.65,219.56v18.26h-1.63c-5.97,0-11.41,4.3-12.01,10.24c-0.68,6.83,4.66,12.59,11.35,12.59h2.51
			c2.34,30.64,27.88,54.78,59.12,54.78c3.12,0,6.17-0.3,9.16-0.77c-28.44-4.39-50.25-28.9-50.25-58.58v-36.52
			c0-10.09,8.18-18.26,18.26-18.26h50.22c5.04,0,9.13-4.09,9.13-9.13h-68.48C202.92,192.17,190.65,204.44,190.65,219.56z"/>
	</g>
</g>
</svg>
