<?xml version="1.0" standalone="no"?>
<!DOCTYPE svg PUBLIC "-//W3C//DTD SVG 1.1//EN" "http://www.w3.org/Graphics/SVG/1.1/DTD/svg11.dtd">
<svg xmlns="http://www.w3.org/2000/svg">
<metadata>Generated by Fontastic.me</metadata>
<defs>
<font id="hrbee-icons" horiz-adv-x="512">
<font-face font-family="hrbee-icons" units-per-em="512" ascent="480" descent="-32"/>
<missing-glyph horiz-adv-x="512" />

<glyph glyph-name="ios-add" unicode="&#97;" d="M369 272l-97 0 0 96c0 9-7 16-16 16-9 0-16-7-16-16l0-96-96 0c-9 0-16-7-16-16 0-4 1-8 4-11 3-3 7-5 12-5l96 0 0-97c0-4 2-8 5-11 3-3 7-5 11-5 9 0 16 8 16 16l0 97 97 0c8 0 16 7 16 16 0 9-8 16-16 16z"/>
<glyph glyph-name="ios-add-circle" unicode="&#98;" d="M256 464c-115 0-208-93-208-208 0-115 93-208 208-208 115 0 208 93 208 208 0 115-93 208-208 208z m91-224l-75 0 0-75c0-8-7-16-16-16-4 0-8 2-11 5-3 3-5 7-5 11l0 75-74 0c-5 0-9 2-12 5-3 3-4 7-4 11 0 9 7 16 16 16l74 0 0 74c0 9 7 16 16 16 9 0 16-7 16-16l0-74 75 0c8 0 16-7 16-16 0-9-8-16-16-16z"/>
<glyph glyph-name="ios-add-circle-outline" unicode="&#99;" d="M347 272l-75 0 0 74c0 9-7 16-16 16-9 0-16-7-16-16l0-74-74 0c-9 0-16-6-16-16 0-10 7-16 16-16l74 0 0-75c0-9 7-16 16-16 9 0 16 8 16 16l0 75 75 0c8 0 16 7 16 16 0 9-8 16-16 16z m-91 164c48 0 93-19 127-53 34-34 53-79 53-127 0-48-19-93-53-127-34-34-79-53-127-53-48 0-93 19-127 53-34 34-53 79-53 127 0 48 19 93 53 127 34 34 79 53 127 53m0 28c-115 0-208-93-208-208 0-115 93-208 208-208 115 0 208 93 208 208 0 115-93 208-208 208z"/>
<glyph glyph-name="ios-airplane" unicode="&#100;" d="M408 288c-4 0-15-1-18 0l-65-1c-1 0-2 0-2 0l-97 146c-3 4-8 7-14 7l-23 0c-6 0-8-6-6-11l50-143c1-1 0-2-2-2l-122-2c-3-1-5 1-7 3l-37 45c-3 4-7 6-12 6l-17 0c-3 0-5-3-4-5l20-69c2-4 2-8 0-12l-20-69c-1-2 1-5 4-5l17 0c5 0 9 2 12 6l38 46c2 2 4 3 7 3l121-3c2-1 3-1 2-2l-50-143c-2-5 0-11 6-11l23 0c6 0 11 3 14 7l97 146c1 1 1 1 2 1l65-2c3-2 14-3 18 0 44 0 72 14 72 32 0 18-28 32-72 32z"/>
<glyph glyph-name="ios-alarm" unicode="&#101;" d="M381 448c-1 0-2 0-4 0l0 0c-16 0-32-5-44-15-2-1-3-3-3-5 0-2 1-4 2-6l90-80c1-1 3-2 5-2l0 0c2 0 4 1 5 2 9 11 16 19 16 37 0 36-29 67-67 69z m-317-69c0-18 7-26 16-37 2-1 3-2 5-2l1 0c1 0 3 1 4 2l90 80c2 2 2 4 2 6 0 2-1 4-2 5-13 10-29 15-45 15l0 0c-1 0-3 0-4-1-38-2-67-33-67-69z m326-253c26 31 42 70 42 114 0 97-79 176-176 176-97 0-176-79-176-176 0-44 16-83 42-114l-35-36c-6-6-6-15 3-21 3-3 8-5 12-5 4 0 8 2 11 5l35 35c30-25 69-40 111-40 42 0 81 15 111 40l34-35c3-3 7-5 11-5 4 0 8 2 11 5 7 6 8 15 2 21z m-120 112c0-8-6-14-14-14l-82 0c-8 0-14 6-14 14 0 8 6 14 14 14l68 0 0 102c0 8 6 14 14 14 8 0 14-6 14-14z"/>
<glyph glyph-name="ios-albums" unicode="&#102;" d="M461 351l-410 0c-19 0-35-16-35-35l0-232c0-19 16-35 35-35l410 0c19 0 35 16 35 35l0 232c0 19-16 35-35 35z m-27 28l-356 0c-8 0-14 6-14 14 0 8 6 14 14 14l356 0c8 0 14-6 14-14 0-8-6-14-14-14z m-31 56l-294 0c-7 0-13 6-13 13l0 2c0 7 6 13 13 13l294 0c7 0 13-6 13-13l0-2c0-7-6-13-13-13z"/>
<glyph glyph-name="ios-alert" unicode="&#103;" d="M256 464c-115 0-208-93-208-208 0-115 93-208 208-208 115 0 208 93 208 208 0 115-93 208-208 208z m17-110l-3-115c0-8-6-15-14-15-8 0-14 7-14 15l-3 115c0 10 7 18 17 18 10 0 17-8 17-18z m-17-196c-11 0-19 8-19 18 0 11 8 19 19 19 11 0 19-8 19-19 0-10-8-18-19-18z"/>
<glyph glyph-name="ios-american-football" unicode="&#104;" d="M379 379c-41 40-95 62-148 73l-171-171c11-53 33-107 73-148 41-40 95-62 148-73l171 171c-11 53-33 107-73 148z m-35-155l-19-19 15-15c5-5 5-13 0-18-5-5-13-5-18 0l-15 15-19-19c-2-2-4-4-7-4-4-7-9 1-12 3-1 2-2 4-3 6-1 5 0 9 3 13l20 19-16 16-19-19c-2-2-5-4-8-4-5-7-10 2-13 7 0 0-1 1-1 2-1 5 0 9 3 13l20 19-16 16-19-19c-2-2-5-4-7-4-6-7-11 2-14 7 0 0 0 1-1 2-1 5 0 9 4 13l19 19-15 16-20-19c-2-2-4-4-7-4-6-7-11 2-14 7 0 0 0 1-1 2-1 5 0 9 4 13l19 19-15 15c-5 5-5 13 0 18 5 5 13 5 18 0l15-15 19 19c2 2 5 4 8 4 5 1 10-2 13-7 0-6 1-8 2-1 5-2 10 3 13 3l-19-20 15-15 20 19c2 2 4 3 7 4 4 1 8-7 11-4 2-1 3-3 3-5 2-5 2-10-3-13l-37-36 16-16 19 19c2 2 5 4 8 4 5 1 10-2 13-7 0-6 1-8 2-1 5-2 10 3 13 3l-37-36 16-16 19 19c2 2 5 4 8 4 4 1 9-1 11-4 4-5 4-13-1-18z m51-176c28 0 49 2 59 3 4 0 7 3 7 7 2 19 7 78-3 144l-148-148c31-5 61-6 85-6z m-278 416c-28 0-49-2-59-3-4-4-7-3-7-7-2-19-7-78 3-144l148 148c-31 5-61 6-85 6z"/>
<glyph glyph-name="ios-analytics" unicode="&#105;" d="M256 464c-115 0-208-93-208-208 0-115 93-208 208-208 115 0 208 93 208 208 0 115-93 208-208 208z m-180-208c0 48 19 93 53 127 34 34 79 53 127 53 48 0 93-19 127-53 33-32 51-74 53-119-9 10-24 24-44 24-27 0-42-26-51-43-1-3-3-5-4-7-11-19-27-30-42-29-14 1-25 11-32 29-10 22-30 46-53 49-12 2-28-8-45-21-3-4-7-10-11-16-11-16-26-39-38-41-18-3-31 8-37 12-2 12-3 23-3 35z"/>
<glyph glyph-name="ios-aperture" unicode="&#106;" d="M250 141c-2 0-2-3-1-4l77-77c42 15 79 44 103 81z m-83 36l0-109c27-13 57-20 89-20 14 0 28 1 41 4l-127 127c-1 1-3 0-3-2z m89 287c-14 0-27-1-40-4l126-127c2-1 4-4 4 2l0 109c-27 13-58 20-90 20z m-188-119c-13-27-20-57-20-89 0-14 1-28 4-41l127 127c2 1 4 3-1 3z m119 107c-43-15-79-44-104-81l180 0c2 0 2 2 1 4z m-20-161l0-70c0-1 4-2 1-3l50-50c1-8 2-1 3-1l71 0c1 0 2 0 3 1l50 50c-1 1 1 2 1 3l0 70c0 1-1 2-1 3l-50 50c-1 1-2 1-3 1l-71 0c-1 0-2-4-3-1l-50-50c0-8-1-2-1-3z m293 5l-126-126c-2-1-1-3 1-3l109 0c13 27 20 57 20 89 0 14-1 27-4 40z m-88 133l0-179c0-2 2-3 3-2l77 77c-15 43-43 79-80 104z m-312-243c15-43 44-79 81-103l0 179c0 2-2 3-3 2z"/>
<glyph glyph-name="ios-apps" unicode="&#107;" d="M435 374l-150 68c-16 8-42 8-58 0l-150-68c-17-8-17-21 0-29l148-67c17-8 45-8 62 0l148 67c17 8 17 21 0 29z m-210-237l-100 45c-4 2-9 2-13 0l-35-16c-17-8-17-21 0-29l148-67c17-8 45-8 62 0l148 67c17 8 17 21 0 29l-35 16c-4 2-9 2-13 0l-100-45c-17-8-45-8-62 0z m210 133l-32 15c-4 2-9 2-13 0l-108-49c-15-5-37-5-52 0l-108 49c-4 2-9 2-13 0l-32-15c-17-8-17-21 0-29l148-67c17-8 45-8 62 0l148 67c17 8 17 21 1 29z"/>
<glyph glyph-name="ios-appstore" unicode="&#108;" d="M256 464c-115 0-208-93-208-208 0-115 93-208 208-208 115 0 208 93 208 208 0 115-93 208-208 208z m-79-297c-3-5-7-7-12-7-3 0-5 1-8 2-7 4-9 13-5 20l14 23c2 3 4 4 7 4l2 0c11 0 18-6 20-12z m120 46l-93 1-61 0c-9 0-15 6-15 15 0 7 7 13 15 13l45 0 53 91-17 29c-4 7-2 15 4 20 7 4 16 2 20-5l10-16 0 0 9 16c4 7 13 9 20 5 7-5 9-13 5-20l-18-29-16-29-37-62 0 0 54 0c7 0 15-3 18-9l1-6c3-5 4-9 4-14 0-3-1-5-1-5z m73-1l-26 0 0 1 19-32c4-7 2-16-5-20-2-1-5-2-8-2-5 0-9 3-12 7l-27 47-17 28-22 38c-6 11-7 24-1 35 5 8 8 10 8 10l49-83 41 0c8 0 15-6 15-13 3-9-6-15-14-15z"/>
<glyph glyph-name="ios-archive" unicode="&#109;" d="M460 392l-408 0c-2 0-4 2-4 4l0 20c0 18 14 32 32 32l352 0c18 0 32-14 32-32l0-20c0-2-2-4-4-4z m-20-26l-368 0c-4 0-8-4-8-8l0-262c0-18 14-32 32-32l320 0c18 0 32 14 32 32l0 262c0 4-4 8-8 8z m-134-142l-100 0c-7 0-13 5-14 12-1 9 6 16 14 16l100 0c7 0 13-5 14-12 1-9-6-16-14-16z"/>
<glyph glyph-name="ios-arrow-back" unicode="&#110;" d="M218 256l127 127c9 9 9 25 0 34-9 9-25 9-34 0l-144-144c-9-9-9-24-1-33l145-145c5-5 11-7 17-7 6 0 12 2 17 7 9 9 9 25 0 34z"/>
<glyph glyph-name="ios-arrow-down" unicode="&#111;" d="M256 218l127 127c9 9 25 9 34 0 9-9 9-25 0-34l-144-144c-9-9-24-9-33-7l-145 151c-5 5-7 11-7 17 0 6 2 12 7 17 9 9 25 9 34 0z"/>
<glyph glyph-name="ios-arrow-dropdown" unicode="&#112;" d="M148 301c-8-7-8-20 0-27l95-95c8-8 19-8 27-6l94 94c4 3 6 8 6 13 0 5-2 10-6 14-7 7-19 7-27 0l-81-80-81 82c-8 7-20 7-27-1z m-100-45c0-115 93-208 208-208 115 0 208 93 208 208 0 115-93 208-208 208-115 0-208-93-208-208z m332 124c34-33 52-77 52-124 0-47-18-91-52-124-33-34-77-52-124-52-47 0-91 18-124 52-34 33-52 77-52 124 0 47 18 91 52 124 33 34 77 52 124 52 47 0 91-18 124-52z"/>
<glyph glyph-name="ios-arrow-dropdown-circle" unicode="&#113;" d="M48 256c0-115 93-208 208-208 115 0 208 93 208 208 0 115-93 208-208 208-115 0-208-93-208-208z m289 43c8 8 20 8 27 0 4-3 6-8 6-13 0-5-2-10-6-14l-94-94c-8-7-19-7-27 1l-95 95c-8 8-8 20 0 27 7 8 19 8 27 0l81-82z"/>
<glyph glyph-name="ios-arrow-dropleft" unicode="&#114;" d="M301 364c-7 8-19 8-27 0l-95-95c-8-8-8-19-1-27l94-94c4-4 9-6 14-6 5 0 10 2 13 6 8 7 8 19 0 27l-79 81 81 81c8 8 8 20 0 27z m-45 100c-115 0-208-93-208-208 0-115 93-208 208-208 115 0 208 93 208 208 0 115-93 208-208 208z m124-332c-33-34-77-52-124-52-47 0-91 18-124 52-34 33-52 77-52 124 0 47 18 91 52 124 33 34 77 52 124 52 47 0 91-18 124-52 34-33 52-77 52-124 0-47-18-91-52-124z"/>
<glyph glyph-name="ios-arrow-dropleft-circle" unicode="&#115;" d="M256 464c-115 0-208-93-208-208 0-115 93-208 208-208 115 0 208 93 208 208 0 115-93 208-208 208z m43-289c8-8 8-20 0-27-3-4-8-6-13-6-5 0-10 2-14 6l-94 94c-7 8-7 19 6 27l96 95c7 8 19 8 27 0 7-7 7-19 0-27l-82-81 80-81z"/>
<glyph glyph-name="ios-arrow-dropright" unicode="&#116;" d="M211 364c7 8 20 8 27 0l95-95c8-8 8-19 6-27l-94-94c-3-4-8-6-13-6-5 0-10 2-14 6-7 7-7 19 0 27l80 81-82 81c-7 8-7 20 0 27z m-163-108c0-115 93-208 208-208 115 0 208 93 208 208 0 115-93 208-208 208-115 0-208-93-208-208z m32 0c0 47 18 91 52 124 33 34 77 52 124 52 47 0 91-18 124-52 34-33 52-77 52-124 0-47-18-91-52-124-33-34-77-52-124-52-47 0-91 18-124 52-34 33-52 77-52 124z"/>
<glyph glyph-name="ios-arrow-dropright-circle" unicode="&#117;" d="M48 256c0-115 93-208 208-208 115 0 208 93 208 208 0 115-93 208-208 208-115 0-208-93-208-208z m245 0l-82 81c-8 8-8 20 0 27 7 8 19 8 27 0l95-95c8-8 8-19 6-27l-94-94c-3-4-8-6-13-6-5 0-10 2-14 6-7 7-8 19 0 27l80 81z"/>
<glyph glyph-name="ios-arrow-dropup" unicode="&#118;" d="M148 211c-8 7-8 19 0 27l95 95c8 8 19 8 27 1l94-94c4-4 6-9 6-14 0-5-2-10-6-13-7-8-19-8-27 0l-81 79-81-81c-8-8-20-8-27 0z m108-163c115 0 208 93 208 208 0 115-93 208-208 208-115 0-208-93-208-208 0-115 93-208 208-208z m0 32c-47 0-91 18-124 52-34 33-52 77-52 124 0 47 18 91 52 124 33 34 77 52 124 52 47 0 91-18 124-52 34-33 52-77 52-124 0-47-18-91-52-124-33-34-77-52-124-52z"/>
<glyph glyph-name="ios-arrow-dropup-circle" unicode="&#119;" d="M256 48c115 0 208 93 208 208 0 115-93 208-208 208-115 0-208-93-208-208 0-115 93-208 208-208z m0 244l-81-81c-8-8-20-8-27 0-8 7-8 19 0 27l95 95c8 8 19 8 27 1l94-94c4-4 6-9 6-14 0-5-2-10-6-13-7-8-19-8-27 0z"/>
<glyph glyph-name="ios-arrow-forward" unicode="&#120;" d="M294 256l-127 127c-9 9-9 25 0 34 9 9 25 9 34 0l144-144c9-9 9-24 7-33l-151-145c-5-5-11-7-17-7-6 0-12 2-17 7-9 9-9 25 0 34z"/>
<glyph glyph-name="ios-arrow-round-back" unicode="&#121;" d="M216 348c6-5 6-13 1-18l-61-61 231 0c7 0 13-6 13-13 0-7-6-13-13-13l-231 0 61-61c5-5 5-13 0-18-6-5-14-5-19 0l-82 83c-1 1-2 2-3 4-1 1-1 3-1 5 0 3 1 6 4 9l82 83c5 5 13 5 18 0z"/>
<glyph glyph-name="ios-arrow-round-down" unicode="&#122;" d="M348 216c-5 5-13 5-18 0l-61-60 0 231c0 7-6 13-13 13-7 0-13-6-13-13l0-231-61 61c-5 5-13 4-18-1-5-6-5-14 1-19l83-82c1-1 2-2 4-3 1-7 3-1 5-1 3 0 6 1 9 4l83 82c5 5 5 13 3 18z"/>
<glyph glyph-name="ios-arrow-round-forward" unicode="&#65;" d="M296 348c-5-5-5-13 0-18l60-61-231 0c-7 0-13-6-13-13 0-7 6-13 13-13l231 0-61-61c-5-5-4-13 1-18 6-5 14-5 19 0l82 83c1 1 2 2 3 4 7 1 1 3 1 5 0 3-1 6-4 9l-82 83c-5 5-13 5-18 0z"/>
<glyph glyph-name="ios-arrow-round-up" unicode="&#66;" d="M348 296c-5-6-13-6-18-1l-61 61 0-231c0-7-6-13-13-13-7 0-13 6-13 13l0 231-61-61c-5-5-13-5-18 0-5 6-5 14 1 19l83 82c1 1 2 2 4 3 1 1 3 1 5 1 3 0 6-1 9-4l83-82c5-5 5-13 3-18z"/>
<glyph glyph-name="ios-arrow-up" unicode="&#67;" d="M256 294l127-127c9-9 25-9 34 0 9 9 9 25 0 34l-144 144c-9 9-24 9-33 1l-145-145c-5-5-7-11-7-17 0-6 2-12 7-17 9-9 25-9 34 0z"/>
<glyph glyph-name="ios-at" unicode="&#68;" d="M448 278c0-74-35-121-90-121-28 0-49 15-53 37l-4 0c-10-23-30-36-57-36-49 0-82 39-82 98 0 55 33 94 81 94 24 0 45-12 55-32l4 0 0 27 39 0 0-129c0-16 9-26 25-26 28 0 46 34 46 86 0 83-63 139-155 139-91 0-156-66-156-160 0-97 64-158 164-158 20 0 40 2 55 5 9 1 18-6 18-16 0-7-5-14-12-15-18-5-40-7-62-7-122 0-200 75-200 192 0 114 80 192 195 192 112 0 189-70 189-170z m-243-23c0-37 18-60 46-60 30 0 49 23 49 60 0 36-19 59-49 59-29 0-46-22-46-59z"/>
<glyph glyph-name="ios-attach" unicode="&#69;" d="M356 351c-9 0-16-7-16-16l0-194c0-20-8-41-22-55-14-15-35-24-55-24l-14 0c-19 0-39 9-55 25-15 15-23 35-23 55l0 251c0 15 6 29 17 39 11 11 26 16 41 16 15 0 29-5 40-16 10-10 16-24 16-39l0-235c0-17-14-32-29-32-14 0-28 13-28 32l0 134c0 9-7 16-16 16-8 0-15-7-15-16l0-134c0-35 25-62 59-62 17 0 32 6 43 17 11 12 17 28 17 45l0 235c0 23-9 45-25 61-17 17-39 26-62 26-24 0-46-9-63-26-16-16-26-38-26-61l0-251c0-29 13-58 33-78 21-21 48-32 76-32l14 0c27 0 55 12 76 32 10 10 18 22 24 35 5 13 8 27 8 42l0 194c1 9-6 16-15 16z"/>
<glyph glyph-name="ios-backspace" unicode="&#70;" d="M395 416l-165 0c-47 0-73-35-102-64-29-28-72-74-72-74-5-6-8-13-8-21 0-8 3-15 8-21 0 0 34-38 72-76 38-37 57-64 102-64l165 0c39 0 69 32 69 71l0 180c0 38-30 69-69 69z m-18-213c7-6 7-16 0-22-6-7-16-7-22 0l-53 52-53-52c-6-7-16-7-22 0-7 6-7 16 0 22l52 53-52 53c-6 6-7 15 0 22 7 7 16 6 22 0l53-52 53 52c6 6 16 6 22 0 7-6 7-16 0-22l-52-53z"/>
<glyph glyph-name="ios-barcode" unicode="&#71;" d="M122 124l-41 0c-2 0-4 2-4 4l0 256c0 2 2 4 4 4l40 0c8 0 15 6 15 14 0 4-1 7-4 10-3 3-8 4-12 4l-54 0c-10 0-18-6-18-16l0-288c0-10 7-16 17-16l56 0c8 0 15 5 15 13 1 4-1 7-4 10-3 3-6 5-10 5z m325 292l-56 0c-10 0-17-8-14-18 2-5 1-8 2-3 5-8 7-13 7-13l41 0c2 0 4-2 4-4l0-256c0-2-2-4-4-4l-40 0c-8 0-15-6-15-14 0-4 1-7 4-10 3-3 7-4 10-4l61 0c10 0 17 6 17 16l0 294c0 10-7 16-17 16z m-324-80c-8 0-14-6-14-14l0-132c0-8 6-14 14-14 7 0 14 6 14 14l0 132c0 8-7 14-14 14z m267-160c7 0 14 6 14 14l0 132c0 8-7 14-14 14-8 0-14-6-14-14l0-132c0-8 6-14 14-14z m-63 192c-8 0-14-7-14-14l0-196c0-8 6-14 14-14 7 0 14 7 14 14l0 196c0 7-7 14-14 14z m-141 0c-8 0-14-7-14-14l0-196c0-8 6-14 14-14 7 0 14 7 14 14l0 196c0 7-7 14-14 14z m70-16c-8 0-14-6-14-14l0-164c0-8 6-14 14-14 8 0 14 6 14 14l0 164c0 8-6 14-14 14z"/>
<glyph glyph-name="ios-baseball" unicode="&#72;" d="M256 438l10 3c5 1 10-1 11-6l0-4c2-5-1-10-5-11l-12 0c-2-7-3-3-2-5 2-7 4-14 7-20 2-5 4-10 6-14 1-2 4-3 6-2l8 6c4 3 10 2 13-2l0-3c2-4 1-10-3-13l-10-7c-2-1-2-3-1-5 7-11 15-22 23-31 2-2 5-2 6-2l8 7c3 4 9 4 12 0l1-3c3-3 3-9 0-12l-8-8c-2-2-1-4 2-6 10-9 21-17 33-24 1-1 4-1 5 1l7 10c3 4 8 5 12 3l0-2c4-3 5-9 2-13l-5-8c-2-2-1-5 1-6 4-2 9-3 13-5 7-3 14-6 21-8 3-6 5 1 5 3l4 11c1 4 6 7 11 5l0-1c4-1 7-6 5-11l-2-9c-1-2 7-4 3-5 7-1 14-2 21-3 1 3 2 6 2 8 0 115-93 208-208 208-2 0-5-1-8 0 7-7 2-15 3-23 4-2 3-3 6-3z m2-373c0 2-3 4-5 3l-12-4c-4-1-9 1-11 6l0 0c-2 5 1 10 6 12l13 4c2 1 4 3 3 5-2 8-5 15-8 23-2 4-3 8-5 12-1 2-4 3-6 2l-11-8c-4-3-10-2-12 3l-1 0c-2 4-1 9 3 12l13 9c2 1 2 4 1 5-7 12-15 23-25 33-1 2-4 2-6 1l-9-10c-4-4-10-4-13 0l0 0c-4 4-4 9 0 13l10 9c1 2 1 5-1 6-10 9-20 17-31 24-2 1-5 1-6-1l-9-13c-3-4-8-5-12-3l0 1c-5 2-6 8-3 12l8 11c1 2-1 5-2 6-4 2-8 4-13 6-7 3-15 5-22 8-2 0-4-6-5-3l-5-14c-1-5-6-8-11-6l0 0c-5 1-7 6-6 11l4 13c-1 2-1 4-3 5-6 1-12 2-18 2 0 0 0 0 0 0l0-4c0-115 93-208 208-208l4 0c0 0 0 0 0 0 0 6-1 11-2 17z m173 166l-6-18c-1-5-6-8-11-6l0 0c-5 2-8 7-6 11l5 17c0 2 0 4-2 5-14 4-27 9-40 16-2 0-4 0-5-2l-11-15c-2-4-8-5-12-3l0 1c-4 2-5 8-3 12l9 14c2 1 7 4-1 5-12 8-24 17-35 27-2 1-4 1-5-1l-13-12c-4-4-9-4-13 0l0 0c-4 4-4 9 0 13l13 13c1 1 1 3 1 5-10 11-19 22-26 34-1 2-4 3-6 1l-13-9c-4-2-10-1-12 3l-1 0c-2 4-1 10 3 12l15 10c2 2 2 4 1 6-6 12-12 26-16 39 0 2-3 4-5 3l-16-5c-4-2-9 1-11 6l0 0c-1 5 1 10 6 11l17 6c2 0 3 2 3 4-2 10-3 19-4 28-95-12-171-88-181-184l1 0c8-7 15-2 23-3 2 0 4 1 4 3l5 14c1 5 6 8 11 6l0-1c4-1 7-6 5-11l-4-13c-1-2 5-4 3-5 14-4 27-10 41-16 1-9 4 0 5 1l8 12c3 5 8 6 12 3l0-2c4-3 5-8 2-12l-7-11c-1-2 0-4 1-6 13-7 24-16 35-26 2-1 4-1 6 0l10 11c3 3 9 3 12 0l1-3c3-4 3-9 0-13l-10-5c-1-1-2-4 0-5 10-12 19-24 27-36 1-2 4-3 6-1l10 7c5 3 10 2 13-2l0-3c3-5 2-10-2-13l-13-8c-2-1-2-4-1-5 6-14 11-27 15-41 6-2 3-3 5-3l14 5c5 1 10-1 11-6l0-4c2-5-1-10-5-11l-16-5c-2-6-3-3-3-5 2-7 3-14 3-21l0-1c96 10 173 86 184 181-9 1-18 2-26 4-2 0-4-9-5-3z"/>
<glyph glyph-name="ios-basket" unicode="&#73;" d="M388 138l49 0 18 76-67 0z m0-74l0 0c19 0 34 12 39 29l6 26-45 0z m-123 55l104 0 0-55-104 0z m-190 19l49 0 0 76-66 0z m68 182l104 0 0-88-104 0z m122 0l104 0 0-88-104 0z m-179-226c4-17 19-30 38-30l0 0 0 55-45 0z m57 25l104 0 0-55-104 0z m122 95l104 0 0-76-104 0z m-122 0l104 0 0-76-104 0z m321 106l-48 0 0 96c0 18-14 32-32 32l-256 0c-18 0-32-14-32-32l0-96-48 0c-10 0-18-10-16-20l20-68 72 0 0 174c0 8 6 14 14 14l236 0c8 0 14-6 14-14l0-174 72 0 20 68c2 10-6 20-16 20z"/>
<glyph glyph-name="ios-basketball" unicode="&#74;" d="M219 206c14 11 28 24 41 37l6 6c-3 3-5 6-8 9-50 50-108 89-172 118-18-26-31-57-36-90 32-2 63-10 92-24 29-14 55-33 77-56z m107 120c1-5 1-1 2-1 21 30 39 63 53 97-33 26-75 41-121 42 3-22 8-44 17-65 12-27 28-52 49-73z m73-49c21-9 43-14 65-17-1 57-25 108-62 144-15-33-33-66-55-96 16-13 34-23 52-31z m-205-83c-21 21-46 37-73 49-23 10-48 16-73 17 0-1 0-3 0-4 0-49 17-93 45-129 37 17 73 38 105 63-1 1-3 2-4 4z m90 74c10 12 20 23 29 35-45 43-72 99-79 160-51-5-98-30-131-66 33-16 65-34 96-55 30-22 59-47 85-74z m17-19c39-44 71-93 96-146 36 33 61 80 66 131-48 5-93 23-131 52-9-12-20-25-31-37z m-66-63c30-40 48-86 51-136 33 5 64 18 90 36-24 53-54 101-92 144-16-15-32-30-49-44z m-20-16c-32-25-67-46-104-63 37-37 89-59 145-59 2 0 3 0 5 0-2 25-8 50-18 73-7 17-17 34-28 49z"/>
<glyph glyph-name="ios-battery-charging" unicode="&#75;" d="M396 368l-332 0c-26 0-48-22-48-48l0-128c0-26 22-48 48-48l332 0c26 0 48 22 48 48l0 128c0 26-22 48-48 48z m20-176c0-11-9-20-20-20l-332 0c-11 0-20 9-20 20l0 128c0 11 9 20 20 20l332 0c11 0 20-9 20-20z m48 115l0-102c16 0 32 27 32 51 0 24-16 51-32 51z m-80 13l-308 0c-7 0-12-5-12-12l0-104c0-7 5-12 12-12l308 0c7 0 12 5 12 12l0 104c0 7-5 12-12 12z m-165-116l8 43-27 0 45 61-8-43 27 0z"/>
<glyph glyph-name="ios-battery-dead" unicode="&#76;" d="M396 368l-332 0c-26 0-48-22-48-48l0-128c0-26 22-48 48-48l332 0c26 0 48 22 48 48l0 128c0 26-22 48-48 48z m20-176c0-11-9-20-20-20l-332 0c-11 0-20 9-20 20l0 128c0 11 9 20 20 20l332 0c11 0 20-9 20-20z m48 115l0-102c16 0 32 27 32 51 0 24-16 51-32 51z"/>
<glyph glyph-name="ios-battery-full" unicode="&#77;" d="M396 368l-332 0c-26 0-48-22-48-48l0-128c0-26 22-48 48-48l332 0c26 0 48 22 48 48l0 128c0 26-22 48-48 48z m20-176c0-11-9-20-20-20l-332 0c-11 0-20 9-20 20l0 128c0 11 9 20 20 20l332 0c11 0 20-9 20-20z m48 115l0-102c16 0 32 27 32 51 0 24-16 51-32 51z m-80 13l-308 0c-7 0-12-5-12-12l0-104c0-7 5-12 12-12l308 0c7 0 12 5 12 12l0 104c0 7-5 12-12 12z"/>
<glyph glyph-name="ios-beaker" unicode="&#78;" d="M445 464l-316 0c-55 0-65-28-65-40 30-4 32-4 32-36l0-276c0-35 29-64 64-64l208 0c35 0 63 29 63 65l0 310c2 17 13 31 14 33 1 2 3 4 3 6 0 1 0 2-3 2z m-333-29c0 0 0 0 0 0 6 1 12 1 17 1l276 0c-1-4-1-7-2-10 0-1 0-2 0-3l0-71 0 0-279 0 0 35c0 18 0 35-12 48z"/>
<glyph glyph-name="ios-bed" unicode="&#79;" d="M458 304l0 0c-12 0-22-10-22-22 0-1-1-2-2-2l-356 0c-1 0-2 1-2 2 0 12-10 22-22 22l0 0c-12 0-22-10-22-22l0-180c0-12 10-22 22-22l0 0c12 0 22 10 22 22l0 6c0 2 2 4 4 4l352 0c2 0 4-2 4-4l0-6c0-12 10-22 22-22l0 0c12 0 22 10 22 22l0 180c0 12-10 22-22 22z m-374-6l23 0c2 0 4 2 4 4l0 13c0 9 7 16 16 16l97 0c9 0 16-7 16-16l0-13c0-2 2-4 4-4l24 0c2 0 4 2 4 4l0 13c0 9 7 16 16 16l98 0c8 0 16-7 16-16l0-13c0-2 1-4 4-4l22 0c4 0 8 4 8 8l0 94c0 18-14 32-32 32l-296 0c-18 0-32-14-32-32l0-94c0-4 4-8 8-8z"/>
<glyph glyph-name="ios-beer" unicode="&#80;" d="M112 350c0 13 11 24 24 24l230 0c4 0 9-2 13-4 2-2 5 0 5 2 0 6 0 9 0 22 0 20-18 38-38 38l-1 0c-5 0-10 4-13 9-9 23-32 39-56 39-21 0-34-7-44-18-4-5-12-6-17-3-8 5-16 7-26 7-14 0-27-7-36-17-4-5-10-7-16-6-5 1-13 2-23 2-25 0-50-17-50-43l0-4c0-28 16-23 16-41l0-51c0-14-11-20-11-35 0-9 8-17 17-17l26 0z m274-290l-276 0c-8 0-14-6-14-14 0-8 6-14 14-14l276 0c8 0 14 6 14 14 0 8-6 14-14 14z m14 258l-32 0 0 24c0 9-7 16-16 16l-208 0c-9 0-16-7-16-16l0-214c0-12-1-18-3-30l0-5c-1-5 2-9 3-13 3-6 9-9 15-9l214 0c4 0 8 2 11 4 5 5 6 11 5 16-3 12-4 18-5 30l32 0c26 0 48 22 48 48l0 96c0 27-22 48-48 48z m20-144c0-11-9-20-20-20l-32 0 0 136 32 0c11 0 20-9 20-20z"/>
<glyph glyph-name="ios-bicycle" unicode="&#81;" d="M125 223c18 0 34-7 46-20 13-12 20-28 20-46 0-17-7-33-20-46-12-12-28-19-46-19-17 0-33 7-46 19-12 13-19 29-19 46 0 18 7 34 19 46 13 13 29 20 46 20m0 28c-51 0-93-42-93-94 0-51 42-93 93-93 52 0 94 42 94 93 0 52-42 94-94 94z m195 133c18 0 32 14 32 32 0 18-14 32-32 32-18 0-32-14-32-32 0-18 14-32 32-32z m67-161c17 0 33-7 46-20 12-12 19-28 19-46 0-17-7-33-19-46-13-12-29-19-46-19-18 0-34 7-46 19-13 13-20 29-20 46 0 18 7 34 20 46 12 13 28 20 46 20m0 28c-52 0-94-42-94-94 0-51 42-93 94-93 51 0 93 42 93 93 0 52-42 94-93 94z m-19 69l-48 0-29 60c-6 9-16 16-28 16-8 0-16-4-22-9l-72-69c-5-6-9-14-9-23 0-17 13-23 19-27 45-26 61-29 61-42l0-66c0-9 7-16 16-16 9 0 16 7 16 16l0 90c0 13-30 24-48 38l49 51c18-28 27-51 38-51l57 0c9 0 16 7 16 16 0 9-7 16-16 16z"/>
<glyph glyph-name="ios-bluetooth" unicode="&#82;" d="M379 179l-89 77 88 76c7 6 8 16 2 23l-117 121c-2 3-6 4-9 4-6 0-11-5-11-11l0-169-86 73c-7 6-18 6-24-1-7-7-6-18 1-24l109-92-108-91c-7-6-8-17-2-24l1-3c6-7 17-8 24-1l85 73 0-170c0-6 5-11 12-11 3 0 6 2 8 4l117 123c6 7 5 17-1 23z m-100 232l63-66c1-9 2 0 3 0l-63-53c-1-1-3-2-3 2l0 116c0 2 2 2 4 1z m-3-309l0 118c0 2 2 3 3 2l63-53c1-8 2 0 3 0l-63-66c-1-1-3-4-3 2z"/>
<glyph glyph-name="ios-boat" unicode="&#83;" d="M352 90c-26-9-67-15-96-15-30 0-70 6-96 15 0 0-26-24-63-36-2-8-1-4 9-4 23 2 41 6 62 12 23-9 66-14 96-14 29 0 74 4 96 14 21-6 39-10 62-12 2-3 3 3 9 4-36 12-63 36-63 36z m94 159l-187 85c-2 1-4 1-6 0l-186-85c-7-3-11-9-11-16 0-3 5-5 1-7l55-136c28 0 57 22 57 22 18-9 53-17 79-19 3-2 6-2 8 0 3 2 5 0 8 0 26 2 61 10 79 19 0 0 30-22 57-22l55 136c-1 2 1 4 1 7 0 7-4 13-10 16z m-234-25c-7 0-12 10-12 22 0 12 5 22 12 22 7 0 12-10 12-22 0-12-5-22-12-22z m88 0c-7 0-12 10-12 22 0 12 5 22 12 22 7 0 12-10 12-22 0-12-5-22-12-22z m92 161l0 0c-6 27-18 47-40 47l-35 0-2 8c-3 14-16 24-31 24l-57 0c-14 0-27-10-31-24l-2-8-34 0c-23 0-35-21-40-47l-18-97c-1-3 3-6 6-4l25 11c1 1 2 2 2 3l16 86c3 11 8 16 17 16l177 0c9 0 13-5 16-16l16-86c0-1 1-2 2-3l26-11c3-2 6 1 5 4z"/>
<glyph glyph-name="ios-body" unicode="&#84;" d="M304 432c0 27-21 48-48 48-27 0-48-21-48-48 0-27 21-48 48-48 27 0 48 21 48 48z m120-64l-336 0c-13 0-24-11-24-24 0-13 11-24 24-24l99 0c5-1 13-4 17-14 4-12 2-34-1-52l-4-21c0 0 0-1 0-3l-30-173c-2-13 6-25 19-27 14-3 26 6 28 19l21 120 0 0c0 0 6 33 19 33l1 0c12 0 18-33 18-33l0 0 21-120c2-13 15-21 28-19 13 2 22 15 19 28l-30 172c0 0 0 0 0 0l-4 22c-3 18-5 39-1 51 4 11 12 14 18 15l98 0c13 0 24 10 24 24 0 13-11 24-24 24z"/>
<glyph glyph-name="ios-bonfire" unicode="&#85;" d="M271 161c-1 9-8 15-16 15-8 0-14-5-16-13l-15-78c-1-2-1-5-1-7 0-18 14-30 32-30 18 0 32 12 32 30 0 3 0 6-1 8z m35-4z m83-31c-2 1-3 3-5 4l-60 43c-6 4-12 4-16-9-4-4-5-10-2-15l45-62c1-2 2-3 3-4 8-9 26-10 35 0 9 9 9 27 0 35z m-16 51z m62 15l-59 0c-4 0-7-2-8-6-1-4 1-7 5-9l0 0 57-18c9-2 18 6 18 15 0 12-5 18-13 18z m-296-15z m0 0c4 2 6 5 5 9-1 4-4 6-8 6l-60 0c-7 0-12-8-12-18 0-9 9-17 17-15l58 18 0 0z m49-4l-60-43c-1-1-3-3-5-4-9-10-9-25 0-35 10-9 25-9 35 0 1 2 2 3 3 4l45 62c3 5 3 11-1 15-5 5-12 5-17 1z m171 200c0 58-73 91-96 91 12-81-102-113-112-181-11-69 48-91 48-91 16 57 72 76 109 100 41 26 51 51 51 81z m0-121c5 15 2 50-3 64-9-18-27-33-47-46-9-6-21-11-30-16-19-11-34-21-47-35 12-16 32-27 47-27 36 0 64 13 80 60z m-197 88c12 15 25 24 38 36 13 13 22 21 28 32-11 20-31 28-45 26 2-29-30-44-32-65-1-13 5-25 11-29z"/>
<glyph glyph-name="ios-book" unicode="&#86;" d="M146 448c54 0 100-28 100-82l0-300c0-2-3-3-4-7l0 0c-10 34-38 68-82 71-34 2-67-13-93-38-2-1-4-2-7-2l-4 0c-4 0-8 2-8 6l0 296c0 32 44 56 98 56z m220 0c-54 0-100-28-100-82l0-300c0-2 3-3 4-7l0 0c10 34 39 68 82 71 33 2 64-11 93-37 2-2 5-3 7-3l4 0c4 0 8 2 8 6l0 296c0 32-44 56-98 56z"/>
<glyph glyph-name="ios-bookmark" unicode="&#87;" d="M128 432l0-380c0-3 4-5 6-3l117 92c3 2 7 2 10 0l117-92c2-2 6-1 6 3l0 380c0 18-14 32-32 32l-192 0c-18 0-32-14-32-32z"/>
<glyph glyph-name="ios-bookmarks" unicode="&#88;" d="M416 480l0-128-23 15-9 6-9-6-23-15 0 128-41 0c-23-2-41-19-41-41l0-314c0-7-6-14-13-14-8 0-15 6-15 14l0 314c0 22-18 41-41 41l-106 0c-30 0-55-25-55-55l0-290c0-30 25-55 55-55l108 0c4-1 8-6 12-1 16-3 27-17 27-33 0-7 5-13 12-14 9-9 16 6 16 14 0 16 11 30 27 33 4 0 8 1 12 1l108 0c30 0 55 25 55 55l0 290c0 30-26 55-56 55z"/>
<glyph glyph-name="ios-bowtie" unicode="&#89;" d="M291 298c-5 9-14 12-25 12l0 0c-6 0-14-1-23-3-11-2-19-7-19-7 0 0 3-27 1-59-3-31-8-42-8-42 0 0 5-12 40-15 4-3 7-5 11-1 24 0 36 8 36 8 0 0 4 5 5 22 1 32-7 68-17 85z m-85 5c-22 40-86 97-122 97-26 0-52-69-52-144 0-76 23-144 52-144 33 0 110 80 110 80 0 0 6 13 10 34l2 10c-1 5 1 10 1 15 0 3 5 7 6 10l0 10c-1 16-2 32-2 32z m222 97c-37 0-97-57-119-97l0-1c0 0 1-3 1-4 4-6 7-14 10-24l3-11c2-11 3-22 4-33l0-9c0-2 0-5 0-8-1-17-5-22-5-22 8-11 69-79 106-79 29 0 52 68 52 144 0 75-26 144-52 144z"/>
<glyph glyph-name="ios-briefcase" unicode="&#90;" d="M80 64l352 0c18 0 32 14 32 32l0 192-416 0 0-192c0-18 14-32 32-32z m352 320l-8 0 0 8c0 4-4 8-8 8l-32 0c-4 0-8-4-8-8l0-8-28 0 0 32c0 18-14 32-32 32l-120 0c-18 0-32-14-32-32l0-32-28 0 0 8c0 4-4 8-8 8l-32 0c-4 0-8-4-8-8l0-8-8 0c-18 0-32-14-32-32l0-40 416 0 0 40c0 18-14 32-32 32z m-112 0l-128 0 0 28c0 4 4 8 8 8l112 0c4 0 8-4 8-8z"/>
<glyph glyph-name="ios-browsers" unicode="&#48;" d="M48 331l0-243c0-22 18-40 40-40l243 0c22 0 40 18 40 40l0 243c0 22-18 40-40 40l-243 0c-22 0-40-18-40-40z m93 93l0-28c0-3 2-4 4-4l199 0c26 0 48-22 48-48l0-199c0-2 1-4 4-4l28 0c22 0 40 18 40 40l0 243c0 22-18 40-40 40l-243 0c-22 0-40-18-40-40z"/>
<glyph glyph-name="ios-brush" unicode="&#49;" d="M150 229c-52 0-84-46-84-95 0-22-11-38-32-47-2-1-3-4-1-6 16-24 63-33 95-33 8 0 16 1 22 2 35 6 80 25 90 77 13 60-38 102-90 102z m318 223c-8 7-17 12-26 12-7 0-13-2-19-7l-165-145c-6-5-13-8-20-8l0 0c-6 0-11-2-16-6l-53-43c-2-2-3-5-2-8 9-1 3-2 5-3 46-4 87-37 87-86 0-2 7-4 2-5 3-2 6-1 8 1l45 52c4 4 6 9 6 15l0 1c0 7 3 15 8 20l145 165c12 15 8 32-5 45z"/>
<glyph glyph-name="ios-bug" unicode="&#50;" d="M375 385c-30 38-72 63-119 63-47 0-89-25-119-63 7-16 16-30 29-43 24-24 56-37 90-37 34 0 66 13 91 37 12 13 21 27 28 43z m-253-23c0 0-4 2-6 3-2 2-5 5-6 9 5 11 1 25-10 31-12 7-27 2-33-10-5-9-3-20 3-27 2-2 4-4 6-5 3-1 5-4 7-7 2-5 6-10 11-14 4-4 8-7 15-11-7-20-12-42-13-65-11 0-18-2-25-4-4-2-8-4-12-6-1 0-2 0-3 0-14 0-25-12-24-26 7-11 10-21 22-22 11-1 21 6 25 15 2 6 6 10 12 10 2 1 4 1 6 1 3-33 14-64 29-89-14-11-23-23-27-37 0 0-1-4-2-1-1 1-2-2-2-3-9-10-9-25 1-34 10-9 25-8 34 2 6 7 8 16 5 25-2 6-1 12 4 17 1 1 3 3 5 5 28-32 60-52 100-55l0 215c-53 3-100 38-122 83z m334-106c-1 0-2 0-3-2-3 2-8 4-12 6-7 2-14 4-25 4-1 23-6 45-13 65 7 4 11 7 16 11 4 4 8 10 11 15 1 3 3 5 6 6 0 0 0 0 0 0 12 7 16 21 9 33-6 12-21 16-33 9-11-6-15-20-9-31-2-4-4-6-7-9-2-2-6-4-6-4-22-45-69-79-122-82l0-213c40 2 73 23 100 54 2-1 4-3 5-4 5-5 7-12 4-18-3-8-1-17 5-24 9-10 24-11 34-2 10 9 11 24 2 34-1 1-2 2-3 3-1 1-2 1-2 1-4 13-12 25-26 36 15 26 25 57 28 90 2 0 4-2 6-4 6-7 11-5 13-11 4-9 13-16 24-15 12 1 21 11 22 23 6 14-10 25-24 25z"/>
<glyph glyph-name="ios-build" unicode="&#51;" d="M441 381l-45-45c-1-9-2-2-3-1l-47 8c-1 0-3 2-3 3l-8 47c0 1 2 2 1 3l45 45c3 4 3 9-1 12-10 7-22 11-32 11-1 0-1 0-2 0-13-7-39-8-60-30-20-21-41-60-23-104 3-5 5-12-2-20-8-7-200-188-200-188-18-16-17-45 0-61 8-9 20-13 31-13 11 0 22 4 30 13 0 0 179 191 188 200 4 4 8 5 11 5 3 0 6-1 9-2 10-6 21-8 32-8 27 0 55 13 72 30 25 24 29 48 30 60 6 10-2 22-11 34-3 4-8 4-12 1z m-338-298c-6-6-15-6-20 0-6 5-6 14 0 20 5 5 14 5 20 0 5-6 5-15 0-20z"/>
<glyph glyph-name="ios-bulb" unicode="&#52;" d="M404 323c0 78-70 141-148 141-78 0-148-63-148-141 0-31 13-56 30-80l0 0c11-15 21-18 31-35 15-25 19-41 19-56 4-8 8-15 16-15l9 0c2 0 4 2 4 4l0 94c0 5-1 10-3 15l-21 42c-4 7 1 15 9 15 4 0 8-2 9-6l26-51c2-5 3-10 3-14l0-95c0-2 2-4 4-4l24 0c2 0 4 2 4 4l0 95c0 4 1 9 3 14l26 51c1 4 5 6 9 6 7 0 12-8 9-15l-22-42c-2-5-3-10-3-15l0-94c0-2 2-4 4-4l10 0c9 0 16 7 16 15-1 15 5 32 18 56 11 17 21 20 32 35l0 0c17 24 30 49 30 80z m-166-275l36 0c8 0 14 6 14 14 0 8-6 14-14 14l-36 0c-8 0-14-6-14-14 0-8 6-14 14-14z m-20 44l76 0c8 0 14 6 14 14 0 8-6 14-14 14l-76 0c-8 0-14-6-14-14 0-8 6-14 14-14z"/>
<glyph glyph-name="ios-bus" unicode="&#53;" d="M110 95c-2 2-6 1-6-2 1-21 1-29 6-29l55 0c4 0 3 12 3 22-34-1-47-2-58 9z m292 0c2 2 6 1 6-2-1-21-1-29-5-29l-56 0c-4 0-3 12-3 22 34-1 47-2 58 9z m-18 353l-256 0c-18 0-32-14-32-32l0-276c0-22 18-40 40-40l240 0c22 0 40 18 40 40l0 276c0 18-14 32-32 32z m-222-312c-15-1-27 11-26 26 9 12 10 21 22 22 15 1 27-11 26-26-1-12-10-21-22-22z m76 78l-98 0c-9 0-16 7-16 16l0 116c0 9 7 16 16 16l98 0c2 0 4-2 4-4l0-140c0-2-2-4-4-4z m116-78c-15-1-27 11-26 26 9 12 10 21 22 22 15 1 27-11 26-26-1-12-10-21-22-22z m34 94c0-9-7-16-16-16l-98 0c-2 0-4 2-4 4l0 140c0 2 2 4 4 4l98 0c9 0 16-7 16-16z m-15 162l-234 0c-9 0-15 6-15 14 0 8 6 14 15 14l234 0c9 0 15-6 15-14 0-8-6-14-15-14z"/>
<glyph glyph-name="ios-business" unicode="&#54;" d="M146 432l220 0c10 0 18 8 18 18 0 10-8 18-18 18l-220 0c-10 0-18-8-18-18 0-10 8-18 18-18z m252-20l-284 0c-10 0-18-8-18-18 0-9 7-17 16-18l0-300c0-13 11-24 24-24l88 0c4 0 8 4 8 8l0 40c0 4 4 8 8 8l32 0c4 0 8-4 8-8l0-40c0-4 4-8 8-8l88 0c13 0 24 11 24 24l0 300c9 1 16 9 16 18 0 10-8 18-18 18z m-206-264c0-4-4-8-8-8l-16 0c-4 0-8 4-8 8l0 16c0 4 4 8 8 8l16 0c4 0 8-4 8-8z m0 64c0-4-4-8-8-8l-16 0c-4 0-8 4-8 8l0 16c0 4 4 8 8 8l16 0c4 0 8-4 8-8z m0 64c0-4-4-8-8-8l-16 0c-4 0-8 4-8 8l0 16c0 4 4 8 8 8l16 0c4 0 8-4 8-8z m0 64c0-4-4-8-8-8l-16 0c-4 0-8 4-8 8l0 16c0 4 4 8 8 8l16 0c4 0 8-4 8-8z m80-192c0-4-4-8-8-8l-16 0c-4 0-8 4-8 8l0 16c0 4 4 8 8 8l16 0c4 0 8-4 8-8z m0 64c0-4-4-8-8-8l-16 0c-4 0-8 4-8 8l0 16c0 4 4 8 8 8l16 0c4 0 8-4 8-8z m0 64c0-4-4-8-8-8l-16 0c-4 0-8 4-8 8l0 16c0 4 4 8 8 8l16 0c4 0 8-4 8-8z m0 64c0-4-4-8-8-8l-16 0c-4 0-8 4-8 8l0 16c0 4 4 8 8 8l16 0c4 0 8-4 8-8z m80-192c0-4-4-8-8-8l-16 0c-4 0-8 4-8 8l0 16c0 4 4 8 8 8l16 0c4 0 8-4 8-8z m0 64c0-4-4-8-8-8l-16 0c-4 0-8 4-8 8l0 16c0 4 4 8 8 8l16 0c4 0 8-4 8-8z m0 64c0-4-4-8-8-8l-16 0c-4 0-8 4-8 8l0 16c0 4 4 8 8 8l16 0c4 0 8-4 8-8z m0 64c0-4-4-8-8-8l-16 0c-4 0-8 4-8 8l0 16c0 4 4 8 8 8l16 0c4 0 8-4 8-8z"/>
<glyph glyph-name="ios-cafe" unicode="&#55;" d="M370 108l-260 0c-7 0-14-6-14-13-1-8 6-15 14-15l259 0c8 0 14 6 15 13 3 8-6 15-14 15z m29 285c0 11-4 21-12 29-7 6-17 10-26 10l-274 0c-10 0-20-4-27-10-8-8-12-19-12-30 2-52 10-98 24-136 11-32 26-58 44-79 32-37 69-49 78-49l60 0c5 0 25 7 44 19 22 15 42 37 58 65 2 0 4 0 6-2 27 0 53 10 72 27 19 18 30 42 30 67 0 39-26 74-65 88z m-29-153c14 35 23 76 27 124 0 0 0 0 1 0 11-5 19-12 26-21 9-11 13-24 13-37 0-34-29-62-67-66z"/>
<glyph glyph-name="ios-calculator" unicode="&#56;" d="M372 464l-232 0c-18 0-32-14-32-32l0-352c0-18 14-32 32-32l232 0c18 0 32 14 32 32l0 352c0 18-14 32-32 32z m-12-272l0-80c0-13-11-24-24-24-13 0-24 11-24 24l0 80c0 13 11 24 24 24 13 0 24-11 24-24z m0 80c0-13-11-24-24-24-13 0-24 11-24 24 0 13 11 24 24 24 13 0 24-11 24-24z m-80-160c0-13-11-24-24-24-13 0-24 11-24 24 0 13 11 24 24 24 13 0 24-11 24-24z m0 80c0-13-11-24-24-24-13 0-24 11-24 24 0 13 11 24 24 24 13 0 24-11 24-24z m0 80c0-13-11-24-24-24-13 0-24 11-24 24 0 13 11 24 24 24 13 0 24-11 24-24z m-80-160c0-13-11-24-24-24-13 0-24 11-24 24 0 13 11 24 24 24 13 0 24-11 24-24z m0 80c0-13-11-24-24-24-13 0-24 11-24 24 0 13 11 24 24 24 13 0 24-11 24-24z m0 80c0-13-11-24-24-24-13 0-24 11-24 24 0 13 11 24 24 24 13 0 24-11 24-24z m-48 80l0 48c0 9 7 16 16 16l176 0c9 0 16-7 16-16l0-48c0-9-7-16-16-16l-176 0c-9 0-16 7-16 16z"/>
<glyph glyph-name="ios-calendar" unicode="&#57;" d="M424 416l-40 0 0-24c0-4-4-8-8-8l-16 0c-4 0-8 4-8 8l0 24-192 0 0-24c0-4-4-8-8-8l-16 0c-4 0-8 4-8 8l0 24-40 0c-22 0-40-18-40-40l0-272c0-22 18-40 40-40l336 0c22 0 40 18 40 40l0 272c0 22-18 40-40 40z m8-300c0-11-9-20-20-20l-312 0c-11 0-20 9-20 20l0 180c0 4 4 8 8 8l336 0c4 0 8-4 8-8z m-272 324c0 4-4 8-8 8l-16 0c-4 0-8-4-8-8l0-24 32 0z m224 0c0 4-4 8-8 8l-16 0c-4 0-8-4-8-8l0-24 32 0z"/>
<glyph glyph-name="ios-call" unicode="&#33;" d="M437 147c-15 15-50 37-67 45-21 10-28 10-42-8-12-8-20-16-34-13-13 3-40 23-67 49-26 26-46 53-49 67-3 14 5 21 14 33 10 15 10 22 8 42-16 25-38 60-53 75-14 15-18 11-26 8 0 0-12-4-24-12-14-10-23-18-28-31-6-12-13-35 21-95 27-48 54-84 93-124l0-1 1 0c40-39 76-66 124-93 60-34 83-27 95-21 13 5 21 13 31 28 8 12 12 24 12 24 3 8 7 12-8 26z"/>
<glyph glyph-name="ios-camera" unicode="&#34;" d="M314 237c0-32-26-58-58-58-32 0-57 26-57 58 0 32 25 57 57 57 32 0 58-25 58-57z m104 115l-55 0c-5 0-9 2-12 5-28 32-39 43-51 43l-85 0c-12 0-23-11-52-43-3-3-7-5-12-5l-4 0 0 8c0 4-3 8-8 8l-26 0c-4 0-8-4-8-8l0-8-7 0c-18 0-34-13-34-31l0-176c0-17 16-33 34-33l320 0c17 0 30 16 30 33l0 176c0 18-13 31-30 31z m-158-200c-50-3-92 39-89 89 2 44 37 79 81 81 50 3 92-39 89-89-2-44-37-79-81-81z m92 142c-7 0-13 6-13 13 0 7 6 13 13 13 7 0 13-6 13-13 0-7-6-13-13-13z"/>
<glyph glyph-name="ios-car" unicode="&#35;" d="M416 316c-14 31-49 92-100 92l-120 0c-51 0-85-59-100-92-24-23-48-46-48-85l0-76c0-4 3-7 6-8 15-3 62-10 202-10 140 0 187 7 202 10 3 1 6 4 6 8l0 76c0 39-22 63-48 85z m-226 68l132 0c41 0 62-60 62-70l-256 0c0 10 27 70 62 70z m-78-204c-18 0-32 15-32 32 0 18 14 32 32 32 18 0 32-14 32-32 0-17-14-32-32-32z m216 32c0-9-7-16-16-16l-112 0c-9 0-16 7-16 16 0 9 7 16 16 16l112 0c9 0 16-7 16-16z m72-32c-18 0-32 14-32 32 0 18 14 32 32 32 18 0 32-14 32-32 0-18-14-32-32-32z m-240-52c-48 0-96 5-96 5 0-17 0-29 6-29l85 0c6 0 5 13 5 24z m192 0c48 0 96 5 96 5 0-16 2-29-5-29l-86 0c-7 0-5 13-5 24z"/>
<glyph glyph-name="ios-card" unicode="&#36;" d="M480 384c0 18-14 32-32 32l-384 0c-18 0-32-14-32-32l0-48 448 0z m-448-256c0-18 14-32 32-32l384 0c18 0 32 14 32 32l0 160-448 0z m142 48l164 0c8 0 14-6 14-14 0-8-6-14-14-14l-164 0c-8 0-14 6-14 14 0 8 6 14 14 14z m-72 0l12 0c8 0 14-6 14-14 0-8-6-14-14-14l-12 0c-8 0-14 6-14 14 0 8 6 14 14 14z"/>
<glyph glyph-name="ios-cart" unicode="&#37;" d="M184 88c0 14-11 24-24 24-14 0-24-11-24-24 0-14 11-24 24-24 14 0 24 11 24 24z m201 24c-13 0-24-10-24-23-1-14 10-25 23-25 13 0 24 10 25 23 0 14-11 25-24 25z m79 268c-1 2-3 4-5 4l-326 31c-3 1-6 3-8 5-3 7-6 11-12 19-7 9-22 9-49 9-9 0-16-5-16-14 0-9 7-14 16-14 8 0 21-5 26-2 4-1 8-9 10-16 0 0 0 0 1-2 1-2 10-2 10-2l40-211c3-15 8-27 15-36 8-11 19-16 33-16l236 0c8 0 14 5 15 13 4 8-6 15-14 15l-247 0c-2 0-5 0-8 2-4 3-9 10-12 26l-4 24c0 0 1 1 4 1l278 47c2 0 4 2 4 5l16 116c0 1 2 1 0 2z"/>
<glyph glyph-name="ios-cash" unicode="&#38;" d="M466 156l-420 0c-8 0-14-6-14-14 0-8 6-14 14-14l420 0c8 0 14 6 14 14 0 8-6 14-14 14z m0-48l-420 0c-8 0-14-6-14-14 0-8 6-14 14-14l420 0c8 0 14 6 14 14 0 8-6 14-14 14z m-21 324l-378 0c-19 0-35-16-35-35l0-178c0-19 16-35 35-35l378 0c19 0 35 16 35 35l0 178c0 19-16 35-35 35z m-331-216l-36 0c-8 0-14 6-14 14 0 8 6 14 14 14l36 0c8 0 14-6 14-14 0-8-6-14-14-14z m0 156l-36 0c-8 0-14 6-14 14 0 8 6 14 14 14l36 0c8 0 14-6 14-14 0-8-6-14-14-14z m142-144c-44 0-80 36-80 80 0 44 36 80 80 80 44 0 80-36 80-80 0-44-36-80-80-80z m178-12l-36 0c-8 0-14 6-14 14 0 8 6 14 14 14l36 0c8 0 14-6 14-14 0-8-6-14-14-14z m0 156l-36 0c-8 0-14 6-14 14 0 8 6 14 14 14l36 0c8 0 14-6 14-14 0-8-6-14-14-14z m-125-66c0-29-24-53-53-53-29 0-53 24-53 53 0 29 24 53 53 53 29 0 53-24 53-53z"/>
<glyph glyph-name="ios-cellular" unicode="&#39;" d="M408 460c-2 3-6 4-9 4-4 0-7-1-10-4-3-3-4-6-4-10 0-3 1-7 4-9 30-29 47-67 47-107 0-41-17-79-47-107-3-3-4-6-4-10 0-4 1-7 4-10 2-2 6-3 10-3 3 0 7 1 9 3 36 34 56 79 56 127l0 0c0 48-20 93-56 126z m-57-45c-2 2-6 4-9 4-3 0-6-2-9-4-2-2-4-5-4-8 0-4 2-7 4-9 18-17 28-40 28-64 0-24-10-47-28-64-2-2-4-6-4-9 0-3 2-6 4-9 3-2 6-3 9-3 3 0 7 1 9 4 23 21 35 50 35 81l0 0c0 31-12 59-35 81z m-228 26c3 2 4 6 4 9 0 4-1 7-4 10-2 3-6 4-10 4-3 0-7-1-9-4-36-33-56-78-56-126l0 0c0-48 20-93 56-127 2-2 6-3 9-3 4 0 8 1 10 3 3 3 4 6 4 10 0 4-1 7-4 10-30 28-47 66-47 107 0 40 17 78 47 107z m56-43c3 2 4 5 4 9 0 3-2 6-4 8-2 2-6 4-9 4-3 0-7-2-9-4-23-22-35-50-35-81l0 0c0-31 12-60 35-81 2-3 6-4 9-4 3 0 7 1 9 3 2 3 4 6 4 9 0 3-1 7-4 9-18 17-28 40-28 64 0 24 10 47 28 64z m77-9c-26 0-48-22-48-48 0-22 14-40 34-46l0-233c0-8 6-14 14-14 8 0 14 6 14 14l0 233c20 6 34 24 34 46 0 26-21 48-48 48z"/>
<glyph glyph-name="ios-chatboxes" unicode="&#40;" d="M426 342l-222 0c-21 0-38-18-38-39l0-154c0-21 17-38 38-38l127 0c3 0 6-1 8-3l63-58c3-4 9-2 9 3l0 50c0 6 4 8 10 8l1 0c21 0 42 17 42 38l0 154c0 22-17 39-38 39z m-252 24l178 0 0 65c0 18-15 33-33 33l-238 0c-18 0-33-15-33-33l0-165c0-18 15-32 33-32l61 0 0 99c0 18 14 33 32 33z"/>
<glyph glyph-name="ios-chatbubbles" unicode="&#41;" d="M431 191c0 5 1 9 3 13 6 1 2 2 2 3 18 26 28 57 28 90 3 92-77 167-174 167-84 0-154-57-170-133-2-11-4-22-4-34 0-92 75-169 171-169 16 0 36 4 48 7 11 4 22 8 25 9 3 1 6 1 9 1 4 0 7 0 10-2l57-20c0 0 2-1 4-1 4 0 8 4 8 8 0 1-1 3-1 3z m-112-72c-4-1-9-2-14-3-10-2-24-4-34-4-96 0-171 77-171 169 0 6 7 15 2 21 6 5 1 9 2 13 1 5 2 9 4 13l-8-7c-33-28-52-69-52-112 0-29 9-57 25-82 2-3 3-6 3-8 0-1-12-62-12-62 0-2 5-5 3-7 1-1 3-2 5-2 1 0 2 0 3 1l56 22c2 0 4 1 6 1 0 0 2 0 6-2 19-7 40-12 61-12 46 0 90 21 120 56 0 0 3 4 7 9-4-1-8-2-12-4z"/>
<glyph glyph-name="ios-checkbox" unicode="&#42;" d="M416 448l-320 0c-18 0-32-14-32-32l0-320c0-18 14-32 32-32l320 0c18 0 32 14 32 32l0 320c0 18-14 32-32 32z m-52-135l-134-134 0 0c-2-2-7-5-12-5-4 0-8 2-12 5l-56 56c-1 2-1 4 0 6l18 18c-1 1 2 1 3 1 1 0 2 0 3-1l44-45 122 123c-1 1 2 2 3 2 1 0 2-4 3-2l17-18c2-1 2-4 2-6z"/>
<glyph glyph-name="ios-checkbox-outline" unicode="&#43;" d="M416 448l-320 0c-18 0-32-14-32-32l0-320c0-18 14-32 32-32l320 0c18 0 32 14 32 32l0 320c0 18-14 32-32 32z m4-348c0-4-4-8-8-8l-312 0c-4 0-8 4-8 8l0 312c0 4 4 8 8 8l312 0c4 0 8-4 8-8z m-56 219l-18 18c-1 1-2 1-3 1-1 0-2-4-3-1l-122-123-44 45c-1 0-2 1-3 1-1 0-2 0-3-1l-17-18c-2-2-2-4 0-6l56-56c3-3 8-6 11-6 6 0 10 4 12 6l0 0 134 134c1 2 1 5-1 6z"/>
<glyph glyph-name="ios-checkmark" unicode="&#44;" d="M363 319l-18 18c-1 1-2 1-3 1-1 0-2-4-3-1l-122-123-44 45c-1 0-2 1-3 1-1 0-2 0-3-1l-17-18c-2-2-2-4 0-6l56-56c3-3 8-6 11-6 6 0 10 4 12 6l0 0 134 134c1 2 1 5-1 6z"/>
<glyph glyph-name="ios-checkmark-circle" unicode="&#45;" d="M256 464c-115 0-208-93-208-208 0-115 93-208 208-208 115 0 208 93 208 208 0 115-93 208-208 208z m107-151l-134-134 0 0c-2-2-7-5-12-5-4 0-8 2-12 5l-56 56c-1 2-1 4 0 6l18 18c-1 1 2 1 3 1 1 0 2 0 3-1l44-45 122 123c-1 1 2 2 3 2 1 0 2-4 3-2l17-18c2-1 2-4 2-6z"/>
<glyph glyph-name="ios-checkmark-circle-outline" unicode="&#46;" d="M363 319l-18 18c-1 1-2 1-3 1-1 0-2-4-3-1l-122-123-44 45c-1 0-2 1-3 1-1 0-2 0-3-1l-17-18c-2-2-2-4 0-6l56-56c3-3 8-6 11-6 6 0 10 4 12 6l0 0 134 134c1 2 1 5-1 6z m-107 117c48 0 93-19 127-53 34-34 53-79 53-127 0-48-19-93-53-127-34-34-79-53-127-53-48 0-93 19-127 53-34 34-53 79-53 127 0 48 19 93 53 127 34 34 79 53 127 53m0 28c-115 0-208-93-208-208 0-115 93-208 208-208 115 0 208 93 208 208 0 115-93 208-208 208z"/>
<glyph glyph-name="ios-clipboard" unicode="&#47;" d="M141 352l0-240c0-9 7-16 16-16l200 0c8 0 16 7 16 16l0 240c0 9-8 16-16 16l-200 0c-9 0-16-7-16-16z m181 79l-17 0c0 6-1 11-3 16-2 6-5 11-10 16-8 10-21 17-35 17-15 0-28-7-36-17-4-5-8-10-10-16-1-5-2-10-2-16l-15 0c-10 0-17-8-17-18l0-15c0-1 9-2 2-2l156 0c1 0 2 1 2 2l0 18c0 8-7 15-15 15z m-63-16c-11-1-20 8-18 18 9 7 6 13 14 14 10 1 19-7 17-18 0-7-6-13-13-14z m141 49l-75 0c-2 0-3-2-2-3 3-4 6-8 7-13 4-1 2-2 2-2l0 0c19 0 27-15 28-33l0-15c0-1 9-2 2-2l20 0c9 0 16-7 16-16l0-297c0-9-7-16-16-16l-253 0c-9 0-16 7-16 16l0 297c0 9 7 16 16 16l21 0c1 0 2 1 2 2l0 9c0 19 6 36 28 36l-1 0c0 0 2 1 2 2 2 7 4 12 8 16 1 1 1 3-2 3l-76 0c-17 0-31-14-31-32l0-344c0-42 14-56 32-56l289 0c17 0 31 14 31 31l0 369c0 18-14 32-32 32z"/>
<glyph glyph-name="ios-clock" unicode="&#58;" d="M403 403c-81 81-213 81-294 0-81-81-81-213 0-294 81-81 213-81 294 0 81 81 81 213 0 294z m-313-155c-6-1-11 4-10 10 6 3 3 5 7 6 5 1 10-4 9-10-1-3-3-5-6-6z m26-82c-4-4-11-2-13 3-1 3 0 7 2 9 5 4 11 2 13-4 1-3 0-6-2-8z m2 171c-2-5-8-7-13-3-2 2-3 5-2 8 2 6 9 8 13 4 2-2 3-6 2-9z m62-229c-2-5-9-7-13-4-3 3-3 6-2 9 1 5 8 7 12 3 3-2 4-5 3-8z m-3 287c-4-3-11-1-12 4-1 3-1 6 2 8 4 4 11 2 13-3 1-3 0-6-3-9z m36-76c-3 4-1 9 2 11 4 2 9 1 11-3l34-62c3-5 4-10 4-15l0-122c0-5-3-8-8-8-5 0-8 3-8 8l0 122c0 3-1 5-2 8z m45-239c-6-1-11 4-10 10 6 3 3 5 7 6 5 1 10-4 9-10-1-3-3-5-6-6z m0 336c-6-1-11 4-10 10 6 3 3 5 7 6 5 1 10-4 9-10-1-3-3-5-6-6z m87-312c-4-3-11-1-12 4-1 3-1 6 2 8 4 4 11 2 13-3 1-3 0-6-3-9z m3 295c-2-5-9-7-13-4-3 3-3 6-2 9 1 5 8 7 12 3 3-2 4-5 3-8z m61-230c-2-5-8-7-13-3-2 2-3 5-2 8 2 6 9 8 13 4 2-2 3-6 2-9z m-2 165c-4-4-11-2-13 3-1 3 0 7 2 9 5 4 11 2 13-4 1-3 0-6-2-8z m19-86c-6-1-11 4-10 10 6 3 3 5 7 6 5 1 10-4 9-10-1-3-3-5-6-6z"/>
<glyph glyph-name="ios-close" unicode="&#59;" d="M279 256l68 68c6 6 6 17 0 23-6 6-17 6-23 0l-68-68-68 68c-6 6-17 6-23 0-3-3-4-7-4-12 0-4 1-8 4-11l68-68-68-68c-3-3-4-7-4-12 0-4 1-8 4-11 6-6 17-6 23 0l68 68 68-68c6-6 17-6 23 0 6 6 6 17 0 23z"/>
<glyph glyph-name="ios-close-circle" unicode="&#60;" d="M256 464c-115 0-208-93-208-208 0-115 93-208 208-208 115 0 208 93 208 208 0 115-93 208-208 208z m53-283l-53 52-53-52c-6-7-16-7-22 0-3 3-5 7-5 11 0 4 2 8 5 11l52 53-52 53c-3 3-5 7-5 11 0 4 2 8 5 11 6 6 16 6 22 0l53-52 53 52c6 6 16 6 22 0 7-6 7-16 0-22l-52-53 52-53c7-6 7-16 0-22-6-7-16-7-22 0z"/>
<glyph glyph-name="ios-close-circle-outline" unicode="&#61;" d="M331 203l-52 53 52 53c7 6 7 16 0 22-6 6-16 6-22 0l-53-52-53 52c-6 6-15 7-22 0-7-7-6-16 0-22l52-53-52-53c-7-6-7-16 0-22 6-7 16-7 22 0l53 52 53-52c6-7 16-7 22 0 7 6 7 16 0 22z m-75 233c48 0 93-19 127-53 34-34 53-79 53-127 0-48-19-93-53-127-34-34-79-53-127-53-48 0-93 19-127 53-34 34-53 79-53 127 0 48 19 93 53 127 34 34 79 53 127 53m0 28c-115 0-208-93-208-208 0-115 93-208 208-208 115 0 208 93 208 208 0 115-93 208-208 208z"/>
<glyph glyph-name="ios-cloud" unicode="&#62;" d="M437 282c-8 75-72 134-149 134-51 0-96-26-123-65-9 4-18 6-27 6-39 0-71-35-72-74-40-13-66-52-66-93 0-50 41-94 91-94l330 0c50 0 91 44 91 94 0 45-32 85-75 92z"/>
<glyph glyph-name="ios-cloud-circle" unicode="&#63;" d="M256 464c-115 0-208-93-208-208 0-115 93-208 208-208 115 0 208 93 208 208 0 115-93 208-208 208z m83-272l-166 0c-25 0-45 21-45 47 0 21 13 40 33 46 3 20 16 36 36 36 5 0 10-1 15-3 13 21 37 34 62 34 38 0 68-29 72-67 21-4 38-23 38-46 0-26-20-47-45-47z"/>
<glyph glyph-name="ios-cloud-done" unicode="&#64;" d="M437 282c-8 75-72 134-149 134-51 0-96-26-123-65-9 4-18 6-27 6-39 0-71-35-72-74-40-13-66-52-66-93 0-50 41-94 91-94l330 0c50 0 91 44 91 94 0 45-32 85-75 92z m-74 17l-134-134 0 0c-2-2-7-5-12-5-4 0-8 2-12 5l-56 56c-1 2-1 4 0 6l18 18c-1 1 2 1 3 1 1 0 2 0 3-1l44-45 122 123c-1 1 2 2 3 2 1 0 2-4 3-2l17-18c2-1 2-4 2-6z"/>
<glyph glyph-name="ios-cloud-download" unicode="&#91;" d="M437 346c-8 75-72 134-149 134-51 0-96-26-123-65-9 4-18 6-27 6-39 0-71-35-72-74-40-13-66-52-66-93 0-50 41-94 91-94l152 0 0 141c0 7 6 13 13 13 7 0 13-6 13-13l0-141 152 0c50 0 91 44 91 94 0 45-32 85-75 92z m-194-270l-48 47c-5 5-13 5-18-1-5-5-5-13 1-18l70-69c2-3 6-4 9-4 2 0 3 0 5 1 1 1 3 2 4 3l70 69c5 5 5 13 1 18-5 5-13 5-18 0l-50-46 0 84-26 0z"/>
<glyph glyph-name="ios-cloud-outline" unicode="&#93;" d="M288 388c30 0 59-11 82-32 22-20 36-47 39-77l2-11c0-6 5-10 10-11l11-2c14-3 27-11 37-23 10-12 15-26 15-42 0-17-7-34-19-46-12-13-28-20-44-20l-330 0c-16 0-32 7-44 20-12 12-19 29-19 46 0 15 5 29 13 41 9 13 20 21 34 25l10 4c6 1 9 6 9 12l0 11c0 12 5 23 14 32 8 9 19 14 30 14 5 0 11-2 16-4l11-4c6-2 12-4 16 5l6 9c23 33 61 53 101 53m0 28c-51 0-96-26-123-65-9 4-18 6-27 6-39 0-71-35-72-74-40-13-66-52-66-93 0-50 41-94 91-94l330 0c50 0 91 44 91 94 0 45-32 85-75 92-8 75-72 134-149 134z"/>
<glyph glyph-name="ios-cloud-upload" unicode="&#94;" d="M437 346c-8 75-72 134-149 134-51 0-96-26-123-65-9 4-18 6-27 6-39 0-71-35-72-74-40-13-66-52-66-93 0-50 41-94 91-94l152 0 0 142-48-47c-5-5-13-5-18 0-5 5-5 13 1 18l70 69c1 1 2 2 4 3 1 1 3 1 5 1 3 0 6-1 9-4l70-69c5-5 5-13 1-18-5-5-13-5-18-1l-50 48 0-142 152 0c50 0 91 44 91 94 0 45-32 85-75 92z m-194-301c0-7 6-13 13-13 7 0 13 6 13 13l0 115-26 0z"/>
<glyph glyph-name="ios-cloudy" unicode="&#95;" d="M236 416c-70 0-128-60-128-131 0-4 3-8 8-13-43-4-77-44-77-88 0-47 38-88 85-88l258 0c58 0 105 49 105 108 0 59-47 109-105 109-3 0-5 0-8 0-2 0-4 0-6-1-19 54-62 104-132 104z"/>
<glyph glyph-name="ios-cloudy-night" unicode="&#96;" d="M278 217c-1 0-1 0-2 0-2 0-5 0-8-3-9 41-45 72-89 72-51 0-92-41-92-92 0-3 2-6 5-9-31-2-55-30-55-61-5-31 22-60 55-60l186 0c42 0 76 35 76 76 0 42-34 77-76 77z m174-10c-2-1-5 0-7-2-42 0-81 15-111 44-29 28-45 66-45 107 0 23 5 45 15 65l11 21c2 3 0 6-4 6-7-1-15-4-23-6-59-19-104-68-114-130 2 0 3 0 5 0 26 0 52-9 73-25 15-13 27-28 34-46 24-2 46-13 63-30 18-19 29-44 29-71 0-2 0-4-1-6 35 8 65 26 87 51 5 6 11 13 15 19 2 3 0 7-4 6-6-1-16-3-23-3z"/>
<glyph glyph-name="ios-code" unicode="&#123;" d="M332 369c-1 1-3 2-4 2-1 0-3 1-4-2l-14-13c-1-1-2-3-2-4 0-2 7-3 2-5l96-91-96-92c-1-1-2-2-2-4 0-1 7-3 2-4l14-13c1-1 2-2 4-2 1 0 3 1 4 2l114 109c1 1 2 2 2 4 0 2-1 3-2 4z m-128-17c0 1-1 3-2 4l-14 13c-1 1-2 2-4 2-1 0-3 1-4-2l-114-109c-1-1-2-2-2-4 0-2 7-3 2-4l114-109c1-1 3-2 4-2 2 0 3 1 4 2l14 13c1 1 2 3 2 4 0 2-1 3-2 4l-96 92 96 91c1 2 2 3 2 5z"/>
<glyph glyph-name="ios-code-download" unicode="&#124;" d="M332 369c-1 1-3 2-4 2-1 0-3 1-4-2l-14-13c-1-1-2-3-2-4 0-2 7-3 2-5l96-91-96-92c-1-1-2-2-2-4 0-1 7-3 2-4l14-13c1-1 2-2 4-2 1 0 3 1 4 2l114 109c1 1 2 2 2 4 0 2-1 3-2 4z m-226-113l96 91c1 2 2 3 2 5 0 1-1 3-2 4l-14 13c-1 1-2 2-4 2-1 0-3 1-4-2l-114-109c-1-1-2-2-2-4 0-2 7-3 2-4l114-109c1-1 3-2 4-2 2 0 3 1 4 2l14 13c1 1 2 3 2 4 0 2-1 3-2 4z m227-11c0 4-2 7-4 10l0 0c-3 3-7 4-10 4-4 0-7-1-10-3l-39-35 0 106c0 8-6 15-14 15-8 0-14-7-14-15l0-106-39 35c-3 2-6 3-9 3-4 0-8-1-11-4l0-1c-2-3-4-6-4-10 1-4 2-8 5-10l63-58c2-3 6-4 9-4 4 0 7 1 10 4l62 58c3 2 5 6 5 10z"/>
<glyph glyph-name="ios-code-working" unicode="&#125;" d="M446 260l-114 109c-1 1-3 2-4 2-1 0-3 1-4-2l-14-13c-1-1-2-3-2-4 0-2 7-3 2-5l96-91-96-92c-1-1-2-2-2-4 0-1 7-3 2-4l14-13c1-1 2-2 4-2 1 0 3 1 4 2l114 109c1 1 2 2 2 4 0 2-1 3-2 4z m-340-4l96 91c1 2 2 3 2 5 0 1-1 3-2 4l-14 13c-1 1-2 2-4 2-1 0-3 1-4-2l-114-109c-1-1-2-2-2-4 0-2 7-3 2-4l114-109c1-1 3-2 4-2 2 0 3 1 4 2l14 13c1 1 2 3 2 4 0 2-1 3-2 4z m172 0c0-12-10-22-22-22-12 0-22 10-22 22 0 12 10 22 22 22 12 0 22-10 22-22z m-64 0c0-12-10-22-22-22-12 0-22 10-22 22 0 12 10 22 22 22 12 0 22-10 22-22z m128 0c0-12-10-22-22-22-12 0-22 10-22 22 0 12 10 22 22 22 12 0 22-10 22-22z"/>
<glyph glyph-name="ios-cog" unicode="&#126;" d="M457 270l-26 4c-4 1-6 3-7 7 0 3-1 6-1 9-1 4 9 7 3 9l24 13c3 1 5 6 3 10l-4 11c-1 3-5 6-9 5l-26-5c-3-7-7 1-8 4-2 2-4 5-5 8-2 3-2 7 7 10l17 19c3 3 3 8 3 11l-7 9c-3 3-8 4-11 2l-32-14c-3-2-6-1-9 1-2 2-5 4-7 6-3 2-4 6-3 9l9 25c2 4 2 8-3 10l-10 6c-4 2-8 1-10-2l-17-21c-2-3-5-4-9-3 0 0-5 3-9 4-4 1-6 4-6 8l0 26c0 4-3 8-7 9l-11 2c-4 0-8-2-10-6l-8-25c-1-3-4-6-8-5-2 0-3 0-5 0-1 0-3 0-5-1-3-1-6 2-8 5l-8 25c-1 4-5 6-9 6l-12-2c-4 0-7-5-6-9l0-26c0-4-2-7-6-8-2-9-7-3-9-4-3-1-6-2-9 3l-17 21c-2 3-6 4-10 2l-10-6c-4-2-5-6-3-10l9-25c1-3 2-7-3-9-2-2-5-4-7-6-3-2-6-3-9-9l-22 23c-3 2-8 1-10-2l-8-9c-3-3-2-8 3-10l17-20c3-3 3-7 7-10-1-3-3-5-4-8-2-3-6-5-9-4l-26 5c-4 1-8-2-9-5l-4-11c-2-4 3-8 4-10l14-13c3-2 4-5 4-9-1-3-2-6-2-9-1-4-3-6-7-7l-26-4c-4 0-7-4-7-8l0-12c0-4 3-7 7-8l26-4c4-6 6-3 7-7 5-3 1-6 2-9 7-4-1-7-4-9l-23-13c-4-1-6-6-4-9l4-11c1-4 5-6 9-5l26 5c3 0 7-1 9-5 1-2 3-5 4-8 2-3 2-7 0-9l-18-20c-2-3-3-8 0-11l8-9c2-3 7-4 10-1l23 13c3 2 7 2 9-9 3-2 5-4 8-6 2-2 3-6 2-9l-9-25c-2-4-1-8 3-10l10-6c4-2 8-1 11 2l16 21c2 3 6 4 9 3 3-2 5-3 9-4 4-1 6-4 6-8l0-26c-1-4 2-8 6-9l12-2c4 0 8 2 9 6l8 25c2 3 5 6 8 5 2 0 4-1 5-1 2 0 3 0 5 1 4 0 7-3 8-6l8-25c2-4 6-6 10-5l11 2c4 0 7 4 7 8l-1 26c0 4 3 7 6 8 4 1 7 3 9 4 3 0 6 1 9-3l17-20c2-4 7-5 10-3l10 6c4 2 5 7 4 10l-10 25c-1 3 0 7 3 9 2 2 5 4 7 6 3 3 7 3 10 1l22-13c4-3 8-2 11 1l7 9c3 3 3 8 0 11l-17 20c-3 2-3 6-1 9 2 3 3 6 5 9 1 3 5 4 8 4l26-5c4-1 8 1 10 5l4 11c1 3-1 8-4 10l-23 12c-3 2-5 6-4 9 6 3 1 6 1 9 5 4 4 7 7 7l26 4c4 1 7 4 7 8l0 12c0 4-3 7-7 8z m-275-115c-5-9-18-11-25-4-28 27-45 64-45 105 0 41 17 78 45 104 7 7 19 6 25-3l56-97c1-3 1-6 0-8z m214 67c-15-63-72-110-140-110-14 0-28 2-41 6-9 3-14 14-9 23l56 97c1 2 4 4 7 4l111 0c11 0 18-10 16-20z m-15 48l-112 0c-3 0-6 1-7 4l-56 97c-5 9-1 20 9 23 13 4 27 6 41 6 68 0 125-47 140-110 2-10-5-20-15-20z"/>
<glyph glyph-name="ios-color-fill" unicode="&#92;" d="M232 394c0 0 0 0 0 0l-57 56c-9 9-21 14-34 14-12 0-24-5-33-14-19-19-19-49 0-68l49-49-85-84c-11-11-11-29 3-40l132-126c10-11 28-11 38 0 38 36 119 114 127 123 6 6 18 7 29 7l0 0c5 0 8 7 4 11z m-104 8c-8 7-9 18-2 26 3 5 9 8 15 8 6 0 11-2 15-6l49-49-28-28z m275-230c-2 2-4 2-6 0-11-12-45-53-45-76 0-27 21-48 48-48 26 0 48 22 48 48 0 23-34 64-45 76z"/>
<glyph glyph-name="ios-color-filter" unicode="&#57344;" d="M442 263c-16 21-38 36-62 44 1 6 1 12 1 19 0 33-13 65-36 89-24 24-55 37-89 37-33 0-65-13-89-37-23-24-36-56-36-89 0-7 5-13 1-19-24-8-46-23-62-44-17-22-26-49-26-77 0-34 13-65 37-89 23-24 55-37 88-37 33 0 64 12 87 35 23-23 54-35 87-35 33 0 65 13 88 37 24 24 37 55 37 89 0 28-9 55-26 77z m-186 163c55 0 100-45 100-100 0-5 0-10-1-14-4 0-8 0-12 0-33 0-64-12-87-35-23 23-54 35-87 35-4 0-8-2-12-6-1 5-1 10-1 14 2 56 45 101 100 101z m0-201c-2 0-4 0-5 0 1 4 3 8 5 11 2-3 4-7 6-11-2-2-4-2-6-2z m-47-131c-12-6-26-9-40-9-55 0-100 46-100 101 0 22 7 44 21 61 12 16 29 29 48 35 7-18 18-34 32-48 14-13 31-23 49-29-1-6-2-12-2-19 0-26 8-50 23-72-9-8-19-15-31-20z m16 136c-27 9-50 30-61 57 2 0 4 0 5 0 14 0 28-3 40-9 12-5 22-11 31-20-6-9-11-18-15-28z m31-94c-9 15-13 32-13 50 0 5 3 10 1 14 8-1 16-1 25 0 0-4 1-9 1-14-1-18-5-35-14-50z m47 142c12 6 26 9 40 9 2 0 3-1 5-2-11-27-33-48-61-57-4 10-9 19-14 28 8 9 18 16 30 21z m40-193c-14 0-28 3-40 9-12 5-22 12-30 20 14 22 22 46 22 72 0 7-1 13-2 19 19 6 36 16 50 29 13 14 24 30 31 48 19-6 36-18 48-35 14-17 21-39 21-61 0-55-45-101-100-101z"/>
<glyph glyph-name="ios-color-palette" unicode="&#57345;" d="M430 164c-6 6-16 8-24 9-12 2-16 4-23 10-14 13-14 31 0 44l30 27c47 41 47 108 0 149-34 30-80 45-128 45-55 0-113-20-158-60-84-74-84-195 0-269 41-36 97-55 153-55l1 0c56 0 110 18 149 52 14 13 12 37 1 48z m-310 132c0 18 14 32 32 32 18 0 32-14 32-32 0-18-14-32-32-32-18 0-32 14-32 32z m40-126c-18 0-32 14-32 32 0 18 14 32 32 32 18 0 32-14 32-32 0-18-14-32-32-32z m64 161c-18 0-32 14-32 32 0 18 14 32 32 32 18 0 32-14 32-32 0-18-14-32-32-32z m72-219c-26 0-48 21-48 48 0 26 22 48 48 48 27 0 48-22 48-48 0-27-21-48-48-48z m24 208c-18 0-32 14-32 32 0 18 14 32 32 32 18 0 32-14 32-32 0-18-14-32-32-32z"/>
<glyph glyph-name="ios-color-wand" unicode="&#57346;" d="M446 106l-245 246c-3 3-8 3-11 0l-29-29c-3-3-3-8 0-12l245-245c3-3 8-3 11 0l29 29c3 3 3 8 1 11z m-26-14l0-1c-3-3-8-3-11 0l-190 191c-3 4-3 9 0 12l0 0c3 3 8 3 11 0l190-191c3-3 3-8 0-11z m-227 300c6 0 12 5 12 12l0 32c0 7-6 12-12 12-7 0-12-5-12-12l0-32c0-7 5-12 12-12z m0-143c-7 0-12-6-12-12l0-32c0-7 5-12 12-12 6 0 12 5 12 12l0 32c0 6-6 12-12 12z m78 73c0-7 5-12 12-12l32 0c6 0 12 5 12 12 0 6-6 12-12 12l-32 0c-7 0-12-6-12-12z m-151 0c0 6-5 12-12 12l-32 0c-7 0-12-6-12-12 0-7 5-12 12-12l32 0c7 0 12 5 12 12z m5 49c2-2 5-4 8-4 4 0 7 2 9 4 5 5 5 12 0 17l-21 21c-2 2-5 3-9 3-3 0-6-1-8-3-5-5-5-12 0-17z m8-99c-3 0-6-1-8-3l-21-21c-2-3-4-6-4-9 0-3 2-6 4-8 2-3 5-4 8-4 4 0 7 1 9 4l21 21c5 4 5 12 0 17-2 2-5 3-9 3z m119 95c4 0 7 2 9 4l21 21c5 5 5 12 0 17-2 2-5 3-9 3-3 0-6-1-8-3l-21-21c-2-2-4-5-4-9 0-3 2-6 4-8 2-2 5-4 8-4z"/>
<glyph glyph-name="ios-compass" unicode="&#57347;" d="M281 231l-49 49c-1 1-3 1-4-4l-49-98c-1-2 1-4 3-3l98 50c1 0 1 2 4 3z m-25 233c-115 0-208-93-208-208 0-115 93-208 208-208 115 0 208 93 208 208 0 115-93 208-208 208z m41-249l-160-81c-2-1-4 1-3 3l81 160c0 0 4 0 7 0l153 81c2 1 4-1 3-3l-81-160c0-3 0-5 0-7z"/>
<glyph glyph-name="ios-construct" unicode="&#57348;" d="M380 448z m-105 6c-9 6-23 10-38 10-14 0-30-3-46-9-47-19-74-46-82-53-7-7-16-18-22-26-7-9 1-21-7-29-8-8-24 0-24 0-2 0-3-5-4-2l-34-34c-2-2-2-5 0-8l63-63c1-1 3-1 4-1 2 0 3 0 4 1l33 35c2 2 2 6 0 8 0 0-5 5-12 12-7 7-1 19 5 23 5 4 12 7 22 7 4 0 7-7 11-2 12-3 26-16 51-40l-4-7c-2-4-1-8 1-10 0 0-5 5 13-13l50 47c-19 19-14 14-14 14-2 1-4 2-6 2-2 0-3-3-5-1l-5-3c-28 28-36 40-35 62 2 22 13 37 31 53 25 21 61 15 61 15 8 0-5 8-11 12z m188-342c0 0-69 57-131 116l-47-51c58-60 115-127 115-127 1-2 2-2 3-2 2 0 3 0 4 2l55 54c3 2 3 6 1 8z m16 275l-52-53-51 9-9 51 52 53c-11 11-27 17-39 17-1 0-1 0-2 0-13-6-39-8-60-30-20-21-41-61-22-104 2-6 4-12-3-20-2-1-10-9-23-21-3-4-7-7-11-11-8-8-17-16-27-25-4-4-8-8-12-11-57-54-126-120-126-120-18-15-17-44-1-61 9-8 20-13 32-13 11 0 22 5 29 14 0 0 66 69 120 126 3 4 7 8 11 12 9 10 18 19 25 27 4 5 8 9 11 12 12 12 20 20 21 22 4 4 8 5 11 5 4 0 7-1 9-2 10-5 21-8 32-8 27 0 55 13 73 30 24 24 28 48 29 60 0 12-3 28-17 41z m-342-301c-5-6-14-6-19 0-6 5-6 14 0 20 5 5 14 5 19 0 6-6 6-15 0-20z"/>
<glyph glyph-name="ios-contact" unicode="&#57349;" d="M256 464c-107 0-196-82-207-186-1-7-1-15-1-22 0-7 4-15 1-22 11-105 100-186 207-186 115 0 208 93 208 208 0 115-93 208-208 208z m136-326c-23 8-60 21-83 28-2 1-2 1-2 11 0 8 3 16 6 23 4 7 8 20 10 31 4 5 10 15 13 33 3 17 2 22 0 28 0 1-1 1-1 2-1 3 3 23 3 38 2 11 0 33-15 52-9 11-26 26-58 28l-18 0c-31-2-48-17-58-28-14-19-17-41-15-52 3-15 4-35 3-38 0-7 0-2 0-2-2-6-4-12-1-28 4-18 10-28 14-33 2-11 6-24 9-31 3-6 4-13 4-24 0-10 0-10-3-11-23-7-58-19-80-27-28 33-44 74-44 118 0 48 19 93 53 127 34 34 79 53 127 53 48 0 93-19 127-53 34-34 53-79 53-127 0-44-16-85-44-118z"/>
<glyph glyph-name="ios-contacts" unicode="&#57350;" d="M256 464c-115 0-208-93-208-208 0-115 93-208 208-208 115 0 208 93 208 208 0 115-93 208-208 208z m143-264c-8 3-23 3-29 10-3 4-1 17-1 17 25 1 31 6 31 6 4 2 2 3 1 6-11 19-6 42-7 62 0 17-4 35-20 44-7 5-19 7-31 7-10 0-19-1-25-4-43-17-18-73-32-105-3-6-6-8 2-11 0 0 7-4 29-6 0 0 0-13 0-14-1-5-12-8-16-9-3-7-9-3-17-6-3-2-3-7 8-8 4-7 9-1 12-3 0 0 26-6 46-25 13-12 18-27 20-44 5-5-2-9-6-12l-5-3c-2-1-4 0-5 2 0 30-17 56-45 65-14 5-28 5-42 10-4 1-12 3-14 8-1 4-1 10-2 15 0 3 0 7 0 11 0 2 6 8 8 10 5 9 6 21 7 31 8-2 9 14 11 19 1 3 5 21-3 24 3 4 4 9 5 14 2 13 2 27-2 40-8 26-33 40-59 41-27 1-53-12-63-38-5-12-5-26-3-39 7-6 2-13 5-18-7-3-5-18-4-22 2-5 3-23 12-21 8-8 2-16 4-24 2-5 5-10 8-14 2-2 3-2 3-5 0-7 1-16-2-23-3-8-19-11-25-13-15-3-29-4-42-11-26 27-35 59-35 92 0 48 19 94 53 128 34 33 78 52 125 52 48 0 94-18 128-52 35-34 54-79 54-128 0-25-5-49-14-71-6 7-14 12-23 15z"/>
<glyph glyph-name="ios-contract" unicode="&#57351;" d="M184 307l-77 0c-8 0-14-6-14-14l0 0c0-8 6-14 14-14l112 0c8 0 14 6 14 14l0 112c0 8-6 14-14 14l0 0c-8 0-14-6-14-14l0-77-117 116c-3 3-6 4-10 4-4 0-7-1-10-4-5-6-5-14 0-20z m109-28l112 0c8 0 14 6 14 14l0 0c0 8-6 14-14 14l-77 0 116 117c5 6 5 14 0 20-3 2-6 4-10 4-3 0-7-1-10-4l-117-116 0 77c0 8-6 14-14 14l0 0c-7 0-14-6-14-14l0-112c0-8 7-14 14-14z m-215-215c4 0 7 1 10 4l117 116 0-77c0-8 6-14 14-14l0 0c8 0 14 6 14 14l0 112c0 8-6 14-14 14l-112 0c-8 0-14-6-14-14l0 0c0-8 6-14 14-14l77 0-116-117c-5-6-5-15 0-20 3-3 6-4 10-4z m215 29l0 0c8 0 14 6 14 14l0 77 117-116c3-3 6-4 10-4 4 0 7 1 10 4 5 5 5 14 0 20l-116 117 77 0c8 0 14 6 14 14l0 0c0 8-6 14-14 14l-112 0c-8 0-14-6-14-14l0-112c0-8 7-14 14-14z"/>
<glyph glyph-name="ios-contrast" unicode="&#57352;" d="M256 464c-115 0-208-93-208-208 0-115 93-208 208-208 115 0 208 93 208 208 0 115-93 208-208 208z m127-335c-34-34-79-53-127-53l0 360c48 0 93-19 127-53 34-34 53-79 53-127 0-48-19-93-53-127z"/>
<glyph glyph-name="ios-copy" unicode="&#57353;" d="M352 397l90 0c3 0 6 3 6 6 0 8-4 16-10 21l-77 64c-5 5-14 8-21 8-4 0-7-3-7-8l0-72c0-11 9-19 19-19z m-45 19l0 80-131 0c-18 0-32-14-32-32l0-336c0-18 14-32 32-32l240 0c18 0 32 14 32 32l0 243-96 0c-25 0-45 20-45 45z m-191-316l0 332-20 0c-18 0-32-14-32-32l0-352c0-18 14-32 32-32l256 0c18 0 32 14 32 32l0 20-236 0c-18 0-32 14-32 32z"/>
<glyph glyph-name="ios-create" unicode="&#57354;" d="M404 426l-202-202c-1-2-2-4-2-6l0-26c0-5 4-8 8-8l26 0c2 0 4 1 6 2l202 202c3 3 3 8 0 11l-26 27c-4 3-9 3-12 0z m72 19l-15 14 0 1c-3 2-7 4-11 4-5 0-9-2-12-5l-11-11c-2-2-2-4 0-6l10-10 22-22c1-1 4-1 5 0l12 12c3 3 4 7 4 11 0 5-2 9-4 12z m-226-275c-3-3-7-5-11-5l-42 0c-8 0-16 7-16 16l0 42c0 4 2 8 5 11l-1 1 148 147c2 3 7 7-3 7l-239 0c-33 0-59-26-59-58l0-224c0-33 26-59 59-59l256 0c32 0 58 26 58 59l0 209c0 3-4 5-6 2l-148-147-1-8z"/>
<glyph glyph-name="ios-crop" unicode="&#57355;" d="M142 448c-8 0-14-6-14-14l0-20c0-8 6-14 14-14 8 0 14 6 14 14l0 20c0 8-6 14-14 14z m14-278l0 152c0 8-6 14-14 14-8 0-14-6-14-14l0-166c0-16 13-28 28-28l166 0c8 0 14 6 14 14 0 8-6 14-14 14l-152 0c-8 0-14 6-14 14z m278-14l-20 0c-8 0-14-6-14-14 0-8 6-14 14-14l20 0c8 0 14 6 14 14 0 8-6 14-14 14z m-370 214c0-8 6-14 14-14l264 0c8 0 14-6 14-14l0-264c0-8 6-14 14-14 8 0 14 6 14 14l0 278c0 15-12 28-28 28l-278 0c-8 0-14-6-14-14z"/>
<glyph glyph-name="ios-cube" unicode="&#57356;" d="M441 382l-179 81c-4 1-8 1-12 0l-179-81c-6-2-6-11 0-14l179-94c4-3 8-3 13 0l178 94c6 3 6 12 0 14z m-161-333l180 95c3 2 4 4 4 7l0 185c0 6-6 10-11 7l-180-93c-2-1-4-4-4-7l0-187c0-6 6-10 11-7z m-232 287l0-185c0-3 1-5 4-7l180-95c5-3 11 1 11 7l0 187c0 3-2 6-4 7l-180 93c-5 3-11-1-11-7z"/>
<glyph glyph-name="ios-cut" unicode="&#57357;" d="M308 235c26 33 81 111 90 135 7 18 11 33 11 46-1 18-6 30-19 41-5 5-13 7-20 7l-114-154-10-13-3-4 0-1-15-20c0-1 0-3 0-4 0-8-7-11-15-22-3-5-6-10-9-15-4-5-7-11-9-15-3-7-7-14-11-21-3-8-7-15-10-21-10 7-22 11-34 11-18 0-34-8-46-21-12-9-18-27-18-45 0-19 6-36 18-49 12-14 28-22 46-22 14 0 28 5 39 15 10 9 18 21 22 35 1 3 11 35 26 58 9 14 22 23 29 27l14 10c0 0 13 9 38 42z m-168-144c-13 0-24 12-24 28 0 15 11 28 24 28 13 0 24-13 24-28 0-16-11-28-24-28z m116 133c-9 0-16 7-16 16 0 9 7 16 16 16 9 0 16-7 16-16 0-9-7-16-16-16z m-64 28c0-1 1-2 2-3 2 3 4 6 5 8l47 66-105 141c-9 0-14-9-19-4-11-9-19-26-19-44 0-13 3-28 11-46 8-21 42-70 78-118z m180-62c-12 0-24-4-34-11-3 6-7 13-11 20-3 7-7 14-10 21l-11-14-36-33c5-5 10-10 15-17 14-23 25-55 26-58 4-14 11-26 22-35 11-10 25-15 39-15 35 0 64 32 64 71 0 39-29 71-64 71z m0-99c-13 0-24 12-24 28 0 15 11 28 24 28 13 0 24-13 24-28 0-16-11-28-24-28z"/>
<glyph glyph-name="ios-desktop" unicode="&#57358;" d="M352 70c0 2-2 4-4 4l-22 2c-12 3-21 16-23 28l-1 8-92 0-1-8c-2-12-11-25-22-28l-23-2c-2-5-4-2-4-4 0-3 2-6 5-6l182 0c3 0 5 3 5 6z m121 371c-5 4-11 7-17 7l-400 0c-6 0-12-3-17-7-4-5-7-11-7-17l0-272c0-6 3-13 7-17 5-5 11-7 17-7l400 0c6 0 12 2 17 7 4 4 7 11 7 17l0 272c0 6-3 12-7 17z m-217-289c-4 0-8 4-8 8 0 4 4 8 8 8 4 0 8-4 8-8 0-4-4-8-8-8z m204 40l-408 0c-2 0-4 2-4 4l0 224c0 7 6 12 12 12l392 0c7 0 12-5 12-12l0-224c0-2-2-4-4-4z"/>
<glyph glyph-name="ios-disc" unicode="&#57359;" d="M256 346c-50 0-90-40-90-90 0-50 40-90 90-90 50 0 90 40 90 90 0 50-40 90-90 90z m0-130c-22 0-40 18-40 40 0 22 18 40 40 40 22 0 40-18 40-40 0-22-18-40-40-40z m0 248c-115 0-208-93-208-208 0-115 93-208 208-208 115 0 208 93 208 208 0 115-93 208-208 208z m0-322c-63 0-114 51-114 114 0 63 51 114 114 114 63 0 114-51 114-114 0-63-51-114-114-114z"/>
<glyph glyph-name="ios-document" unicode="&#57360;" d="M312 357l91 0c3 0 5 2 5 5 0 9-4 17-11 23l-76 63c-6 5-13 8-21 8-4 0-7-3-7-8l0-72c0-11 9-19 19-19z m-45 19l0 80-131 0c-18 0-32-14-32-32l0-336c0-18 14-32 32-32l240 0c18 0 32 14 32 32l0 243-96 0c-25 0-45 20-45 45z"/>
<glyph glyph-name="ios-done-all" unicode="&#57361;" d="M318 302c1 1 1 4 0 6l-20 21c-1 1-2 2-3 2-2 0-3-5-4-2l-66-69 26-27z m-194-43c-1 1-2 1-3 1-2 0-3-5-4-1l-20-21c-1-2-1-5 0-6l64-65c4-5 9-7 13-7 6 0 11 4 13 6l0 0 13 14-76 79z m291 71l-20 21c-1 0-2 1-3 1-1 0-3-5-3-1l-138-143-50 51c-1 1-2 2-4 2-1 0-2-5-3-2l-20-20c-2-2-2-5 0-7l63-65c4-4 9-6 14-6 6 0 11 4 13 6l0 0 151 156c1 2 1 5 0 7z"/>
<glyph glyph-name="ios-download" unicode="&#57362;" d="M376 368l-107 0 0-180 48 47c5 5 13 5 18-1 5-5 5-13 0-18l-70-69c-2-3-6-4-9-4-2 0-3 0-5 1-1 1-3 2-4 3l-70 69c-5 5-5 13 0 18 5 5 13 5 18 0l48-47 0 181-107 0c-22 0-40-18-40-40l0-240c0-22 18-40 40-40l240 0c22 0 40 18 40 40l0 240c0 22-18 40-40 40z m-107 83c0 7-6 13-13 13-7 0-13-6-13-13l0-83 26 0z"/>
<glyph glyph-name="ios-easel" unicode="&#57363;" d="M434 50l-27 70c-2 5-7 8-12 8-4 0-9-2-11-6-3-4-3-8-1-12l26-70c2-5 7-8 12-8l1 0c4 0 8 2 11 6 2 4 3 8 1 12z m-316 78c-6 0-11-3-13-8l-26-70c-2-4-2-8 1-12 2-4 7-6 11-6l1 0c5 0 10 3 12 8l26 70c2 4 1 8-1 12-3 4-7 6-11 6z m139 0l-1 0c-8 0-14-6-14-13l0-37c0-7 6-14 14-14l1 0c7 0 13 7 13 14l0 37c0 7-6 13-13 13z m167 256l-336 0c-4 0-8-4-8-8l0-176c0-4 4-8 8-8l336 0c4 0 8 4 8 8l0 176c0 4-4 8-8 8z m24 48l-384 0c-18 0-32-14-32-32l0-224c0-18 14-32 32-32l384 0c18 0 32 14 32 32l0 224c0 18-14 32-32 32z m4-244c0-9-7-16-16-16l-360 0c-9 0-16 7-16 16l0 200c0 9 7 16 16 16l365 0c3 0 6-1 8-3 2-2 3-5 3-8l0-205z m-196 292c-13 0-24-12-24-26l48 0c0 14-11 26-24 26z"/>
<glyph glyph-name="ios-egg" unicode="&#57364;" d="M256 480c-64 0-160-133-160-257 0-124 64-191 160-191 96 0 160 67 160 191 0 124-96 257-160 257z"/>
<glyph glyph-name="ios-exit" unicode="&#57365;" d="M144 376l0-107 180 0-47 48c-5 5-5 13 1 18 5 5 13 5 18-1l69-70c3-2 4-6 4-9 0-2 0-3-1-5-1-1-2-3-3-4l-69-70c-5-5-13-5-18-1-5 5-5 13 0 18l47 48-181 0 0-107c0-22 18-40 40-40l240 0c22 0 40 18 40 40l0 242c0 22-18 40-40 40l-240 0c-22 0-40-18-40-40z m-83-107c-7 0-13-6-13-13 0-7 6-13 13-13l83 0 0 26z"/>
<glyph glyph-name="ios-expand" unicode="&#57366;" d="M112 420l78 0c8 0 14 6 14 14l0 0c0 8-6 14-14 14l-112 0c-8 0-14-6-14-14l0-112c0-8 6-14 14-14l0 0c8 0 14 6 14 14l0 78 117-117c3-2 6-4 10-4 4 0 7 2 10 4 5 6 5 15 0 20z m322 28l-112 0c-8 0-14-6-14-14l0 0c0-8 6-14 14-14l78 0-117-117c-5-6-5-14 0-20 3-2 6-4 10-4 4 0 7 2 10 4l117 117 0-78c0-8 6-14 14-14l0 0c8 0 14 6 14 14l0 112c0 8-6 14-14 14z m-215-215c-4 0-7-2-10-4l-117-117 0 78c0 8-6 14-14 14l0 0c-8 0-14-6-14-14l0-112c0-8 6-14 14-14l112 0c8 0 14 6 14 14l0 0c0 8-6 14-14 14l-78 0 117 117c5 5 5 14 0 20-3 2-6 4-10 4z m215-29l0 0c-8 0-14-6-14-14l0-78-117 117c-3 2-6 4-10 4-4 0-7-2-10-4-5-6-5-15 0-20l117-117-78 0c-8 0-14-6-14-14l0 0c0-8 6-14 14-14l112 0c8 0 14 6 14 14l0 112c0 8-6 14-14 14z"/>
<glyph glyph-name="ios-eye" unicode="&#57367;" d="M256 400c-81 0-144-51-220-133-5-6-5-16 0-22 65-71 122-133 220-133 96 0 169 78 220 134 5 6 6 15 5 21-57 63-129 133-225 133z m4-234c-53-2-96 41-94 94 2 46 40 84 86 86 53 2 96-41 94-94-2-46-40-84-86-86z m-4 137c0 6 1 12 3 17-1 0-2 0-3 0-37 0-67-31-64-69 3-31 28-56 59-59 38-3 69 27 69 64 0 1 0 3 0 4-6-3-12-4-18-4-25 0-46 21-46 47z"/>
<glyph glyph-name="ios-eye-off" unicode="&#57368;" d="M88 444c-5 5-14 5-20-1-5-6-5-15 0-20l356-356c3-4 9-5 13-3 3 0 5 1 7 3 5 6 5 15 0 20z m172-278c-53-2-96 41-94 94 6 12 4 24 9 34l-54 54c-27-21-55-49-85-81-5-6-5-16 0-22 65-71 122-133 220-133 30 0 57 7 82 19l-43 44c-11-5-23-8-35-9z m216 80c5 6 5 15 5 21-57 63-129 133-225 133-29 0-56-7-82-19l44-44c10 5 22 8 34 9 53 2 96-41 94-94-1-12-4-24-9-35l54-53c33 25 61 56 85 82z m-284 5c3-31 28-56 59-59 8-6 16 0 24 3l-80 80c-2-8-3-16-3-24z m128 5c0 1 0 3 0 4-6-3-12-4-18-4-1 0-2 0-3 0l18-19c2 6 3 13 3 19z m-64 47c0 6 1 12 3 17-1 0-2 0-3 0-6 0-13-1-18-3l18-19c0 2 0 3 0 5z"/>
<glyph glyph-name="ios-fastforward" unicode="&#57369;" d="M476 263l-208 120c-5 3-12-6-12-7l0-115-212 122c-5 3-12-6-12-7l0-240c0-6 7-10 12-7l212 122 0-115c0-6 7-10 12-7l208 120c5 3 5 11 1 14z"/>
<glyph glyph-name="ios-female" unicode="&#57370;" d="M62 48c3 0 7 1 9 4l45 45 37-37c3-3 6-4 10-4 3 0 7 1 9 4 6 5 6 14 0 19l-37 37 50 50c31-26 70-40 110-40 23 0 45 4 66 13 20 8 38 21 53 36 16 16 28 34 37 54 8 21 13 43 13 66 0 23-5 45-13 66-9 20-21 38-37 53-15 16-33 28-53 37-21 8-43 13-66 13-23 0-45-5-66-13-20-9-38-21-54-37-15-15-27-33-36-53-9-21-13-43-13-66 0-41 14-79 40-110l-50-50-37 37c-3 3-6 4-10 4-3 0-7-1-9-4-5-5-5-14 0-19l37-37-45-45c-5-5-5-14 0-19 3-3 6-4 10-4z m133 347c26 27 62 42 100 42 38 0 73-15 100-42 27-27 42-62 42-100 0-38-15-74-42-100-27-27-62-42-100-42-38 0-74 15-100 42-27 26-42 62-42 100 0 38 15 73 42 100z"/>
<glyph glyph-name="ios-filing" unicode="&#57371;" d="M424 448l-336 0c-22 0-40-18-40-40l0-304c0-22 18-40 40-40l336 0c22 0 40 18 40 40l0 304c0 22-18 40-40 40z m12-176c0-9-7-16-16-16l-87 0c-7 0-13-4-15-11-4-11-14-21-26-21l-72 0c-12 0-22 10-26 21-2 7-8 11-15 11l-87 0c-9 0-16 7-16 16l0 132c0 9 7 16 16 16l328 0c9 0 16-7 16-16z m-50 84l-260 0c-8 0-14 6-14 14 0 8 6 14 14 14l260 0c8 0 14-6 14-14 0-8-6-14-14-14z m0-64l-260 0c-8 0-14 6-14 14 0 8 6 14 14 14l260 0c8 0 14-6 14-14 0-8-6-14-14-14z"/>
<glyph glyph-name="ios-film" unicode="&#57372;" d="M448 432l-384 0c-17 0-32-15-32-32l0-288c0-18 15-32 32-32l384 0c18 0 32 15 32 32l0 288c0 17-14 32-32 32z m-328-320c0-4-4-8-8-8l-48 0c-4 0-8 4-8 8l0 48c0 4 4 8 8 8l48 0c4 0 8-4 8-8z m0 80c0-4-4-8-8-8l-48 0c-4 0-8 4-8 8l0 48c0 4 4 8 8 8l48 0c4 0 8-4 8-8z m0 80c0-4-4-8-8-8l-48 0c-4 0-8 4-8 8l0 48c0 4 4 8 8 8l48 0c4 0 8-4 8-8z m0 80c0-4-4-8-8-8l-48 0c-4 0-8 4-8 8l0 48c0 4 4 8 8 8l48 0c4 0 8-4 8-8z m232-108l-192 0c-7 0-12 5-12 12 0 7 5 12 12 12l192 0c7 0 12-5 12-12 0-7-5-12-12-12z m104-132c0-4-4-8-8-8l-48 0c-4 0-8 4-8 8l0 48c0 4 4 8 8 8l48 0c4 0 8-4 8-8z m0 80c0-4-4-8-8-8l-48 0c-4 0-8 4-8 8l0 48c0 4 4 8 8 8l48 0c4 0 8-4 8-8z m0 80c0-4-4-8-8-8l-48 0c-4 0-8 4-8 8l0 48c0 4 4 8 8 8l48 0c4 0 8-4 8-8z m0 80c0-4-4-8-8-8l-48 0c-4 0-8 4-8 8l0 48c0 4 4 8 8 8l48 0c4 0 8-4 8-8z"/>
<glyph glyph-name="ios-finger-print" unicode="&#57373;" d="M451 330c-9 24-20 45-33 57-3 3-6 4-10 4-4 0-7-1-10-4-5-5-5-14 0-19 10-10 20-27 27-48 8-21 12-44 12-63 0-3 0-8-1-10 0-4 2-7 4-10 3-3 6-4 10-4l0 0c7 0 13 5 14 13 1 3 2 8 2 11 0 23-5 49-13 73z m-308 71c3 0 6 1 8 3 30 21 66 33 105 33 41 0 80-15 114-43 2-2 5-3 9-3 4 0 7 1 10 5 5 5 4 14-2 19-38 32-84 49-131 49-45 0-86-13-121-38-3-2-5-5-5-9-1-3 2-7 2-10 2-4 7-6 11-6z m-68-144c0 44 16 86 45 119 2 2 4 6 3 10 0 3-2 7-4 9-3 2-6 3-9 3-4 0-8-1-11-4-33-38-51-87-51-137 0-33 6-59 15-90 2-6 7-10 14-10 1 0 2 0 4 1 3 1 6 3 8 6 1 3 2 7 1 11-9 29-15 52-15 82z m281 125c-28 24-61 36-97 36-48 0-91-17-121-50-29-31-43-71-40-115 2-33 6-51 9-66 4-22 8-38 5-85 0-6 4-12 10-14 1-4 3-5 4-5 7 0 13 6 14 13 2 50-1 68-6 92-3 15-7 32-9 63-2 35 9 69 33 94 24 27 61 42 101 42 29 0 57-11 79-30 22-19 39-47 49-81 11-39 14-89 9-144-1-8 5-15 12-15 1 0 1-1 1-1 8 0 13 5 14 12 6 59 2 112-10 155-11 38-31 71-57 94z m18-138c-6 38-20 69-41 91-21 22-47 34-77 34-19 0-38-4-54-12-4-2-6-5-7-9-1-4-1-9 2-12 3-3 7-5 11-5 2 0 4 0 6 1 12 6 27 9 42 9 22 0 42-9 58-26 16-18 28-44 32-75 5-30 7-53 7-73 2-40-4-73-4-73-1-4 3-7 2-10 2-3 5-5 9-6 7-1 2-2 2-7 0-12-5-13-12-2-1-5-35-5-77 0-21 3-47 8-77 8z m-189 64c4 6 3 14-2 19-3 2-6 3-9 3-4 0-9-2-11-6-15-22-20-49-15-80 9-51 17-111 10-165-1-4 5-8 3-11 2-3 5-4 9-5 4 0 1-1 1-1 7 0 13 5 14 12 8 58 0 120-10 174-4 24 0 44 10 60z m133-184l-1 0c-8-3-13-7-13-14 0 0 6-18-3-35-1-7 3-14 9-16 2-4 3-7 5-7 6 0 12 5 13 11 4 20 3 41 3 41 0 8-6 14-13 14z m-23 182c-12 11-26 16-41 16-20 0-37-7-47-20-9-10-17-29-11-60 12-63 15-122 8-176-1-7 4-14 12-15 6-1 1-2 1-7 0-13-6-14-12-7-57-5-119 8-185 3-16 1-29-5-37-6-7-15-11-26-11-25 0-35 28-38 40-7 25-11 63-11 107-1 8-6 14-13 14-13l0 0c4 0 7 1 10 4 2 2 4 6 4 9-1 47-5 87-13 115-5 18-13 33-24 43z m-30-40c-2 5-7 9-12 9-2 0-4-4-6-1-7-3-10-11-7-18 7-16 12-47 14-83 2-37 2-77-2-110 0-3 6-7 3-10 2-3 5-4 9-5 1-1 1 0 2-1 7 0 12 5 13 12 4 36 5 77 2 116-2 39-8 71-16 90z"/>
<glyph glyph-name="ios-fitness" unicode="&#57374;" d="M352 232l-192 0c-4 0-8 4-8 8l0 32c0 4 4 8 8 8l192 0c4 0 8-4 8-8l0-32c0-4-4-8-8-8z m26-82l0 212c0 12 10 22 22 22 12 0 22-10 22-22l0-212c0-12-10-22-22-22-12 0-22 10-22 22z m82 170l-12 0c-4 0-8-4-8-8l0-112c0-4 4-8 8-8l12 0c11 0 20 9 20 20l0 88c0 11-9 20-20 20z m-326-170l0 212c0 12-10 22-22 22-12 0-22-10-22-22l0-212c0-12 10-22 22-22 12 0 22 10 22 22z m-70 170l-12 0c-11 0-20-9-20-20l0-88c0-11 9-20 20-20l12 0c4 0 8 4 8 8l0 112c0 4-4 8-8 8z"/>
<glyph glyph-name="ios-flag" unicode="&#57375;" d="M407 431c-3-5-7-1-10-1-13-2-43-5-61-5-27 0-53 6-78 12-26 5-52 11-81 11-56 0-75-12-77-13l-4-3 0-354c0-7 5-13 12-14 9-1 16 6 16 14l0 154c0 4 3 7 6 8 11 2 26 4 47 4 27 0 51-10 77-15 26-6 49-12 83-12 35 0 72 7 72 7 4 0 7 4 7 8l0 191c0 5-4 9-9 8z"/>
<glyph glyph-name="ios-flame" unicode="&#57376;" d="M220 464c29-135-109-132-108-267 1-111 118-149 145-149 26 0 134 24 143 149 7 106-82 208-180 267z m74-355c-10-39-66-39-76-1-1 6-2 12-2 18 0 41 40 88 40 88 0 0 41-47 41-88 0-6-1-12-3-18z"/>
<glyph glyph-name="ios-flash" unicode="&#57377;" d="M376 288l-108 0 52 187c0 4-4 7-7 3l-183-241c-4-5-1-13 6-13l108 0-52-187c-1-4 4-7 7-3l184 240c3 6 2 14-7 14z"/>
<glyph glyph-name="ios-flash-off" unicode="&#57378;" d="M382 69l-227 388c-4 7-13 9-20 5-7-4-9-13-5-19l228-388c2-5 7-7 12-7 2 0 5 1 7 2 7 4 9 12 5 19z m-57 130l58 75c3 6 2 14-7 14l-104 0z m-5 276c1 4-4 7-7 3l-86-113 42-72z m-133-162l-57-76c-4-5-1-13 6-13l104 0z m5-276c-1-4 4-7 7-3l86 113-42 72z"/>
<glyph glyph-name="ios-flashlight" unicode="&#57379;" d="M317 480l-122 0c-18 0-24-14-24-32l170 0c0 18-6 32-24 32z m-121-116c8-8 12-20 12-31l0-266c0-22 18-35 40-35l16 0c22 0 40 13 40 35l0 266c0 11 4 23 12 31 15 18 25 35 25 68l-170 0c0-35 10-50 25-68z m32-90c0 15 13 28 28 28 15 0 28-13 28-28l0-36c0-15-13-28-28-28-15 0-28 13-28 28z m48-35c0-11-9-20-20-20-11 0-20 9-20 20 0 11 9 20 20 20 11 0 20-9 20-20z"/>
<glyph glyph-name="ios-flask" unicode="&#57380;" d="M437 158l-116 194c-1 1-1 1-1 2l0 78c0 2 2 4 4 4 7 0 12 5 12 12l0 4c0 7-5 12-12 12l-136 0c-7 0-12-5-12-12l0-4c0-7 5-12 12-12 2 0 4-2 4-4l0-78c0-1 0-1-1-2l-115-194c-9-16-13-32-12-46 1-37 28-64 65-64l256 0c37 0 63 28 64 64-1 14-3 30-12 46z m-275 66c-6 0-10 7-7 12l60 102c3 5 5 10 5 16l0 78c0 1 0 3 0 4l72 0c0-1 0-3 0-4l0-78c0-6 2-11 5-16l60-102c3-5 0-12-7-12z"/>
<glyph glyph-name="ios-flower" unicode="&#57381;" d="M385 282c-27 0-60-7-86-14-1 3-2 6-4 9 23 14 52 33 71 52 36 36 48 63 37 74-2 3-6 4-10 4-14 0-36-14-64-42-19-18-38-47-51-70-3 2-6 3-10 4 7 26 14 59 14 86 0 52-11 79-26 79-15 0-26-27-26-79 0-27 7-60 13-86-3-9-6-2-9-4-13 23-32 52-51 70-28 28-50 42-64 42-4 0-8-1-10-4-11-11 8-38 37-74 19-19 48-38 71-52-2-2-3-6-4-9-26 7-60 14-86 14-52 0-79-11-79-26 0-15 27-26 79-26 27 0 60 7 86 13 9-3 3-6 4-9-23-13-52-32-71-51-36-37-48-64-37-74 2-3 6-4 10-4 14 0 36 13 64 41 19 19 38 48 52 71 3-2 6-3 9-4-7-26-14-60-14-86 0-52 11-79 26-79 15 0 26 27 26 79 0 27-7 60-13 86 3 1 6 2 9 4 13-23 32-52 51-71 28-28 50-41 64-41 4 0 8 1 10 4 11 10 0 37-37 74-19 19-48 38-71 51 2 3 3 6 4 9 26-6 60-13 86-13 52 0 79 11 79 26 0 15-27 26-79 26z m-67-146c-8 8-16 18-24 29 2-13 3-26 3-38 0-12-1-23-2-32 13-22 25-33 34-33 2 0 4 0 5 1 11 4 13 23 5 54-7 5-14 12-21 19z m-124 240c8-9 17-19 24-29-2 13-3 26-3 38 0 12 5 22 2 32-12 22-24 33-34 33-2 0-3-3-5-9-11-5-13-24-4-55 6-5 13-11 20-18z m-58-183c8 9 19 17 29 25-13-2-26-3-38-3-12 0-23 0-32 1-26-14-36-28-32-38 3-7 10-10 22-10 9 0 19 2 32 5 6 7 12 13 19 20z m240 125c-8-8-18-17-29-25 13 2 26 4 38 4 12 0 23-5 32-2 26 14 36 28 32 39-3 6-10 10-22 10-9 0-19-2-32-6-6-6-12-13-19-20z m-182-182c-9-9-17-16-24-22-8-28-6-45 5-50 1-7 3-1 5-1 10 0 23 12 36 36 0 9-1 18-1 28 0 12 2 25 4 38-8-11-17-21-25-29z m124 240c9 8 17 15 24 21 8 29 6 46-5 50-1 1-3 1-5 1-10 0-23-12-36-36 7-8 1-17 1-27 0-12-1-25-3-39 8 11 16 21 24 30z m-218-81c8 1 17 2 27 2 12 0 25-2 38-4-10 8-21 17-29 25-8 8-16 16-22 24-11 3-21 5-28 5-12 0-19-4-22-10-4-11 7-26 36-42z m312-79c-8-7-17-1-27-1-12 0-25 1-38 3 11-8 21-16 29-25 9-8 16-16 22-23 11-4 21-5 28-5 12 0 19 3 22 9 4 11-7 26-36 42z"/>
<glyph glyph-name="ios-folder" unicode="&#57382;" d="M480 393c0 13-9 23-23 23l-258 0c-3 0-4 1-6 2l-23 23 0 0c-5 5-9 7-17 7l-96 0c-14 0-25-10-25-23l0-74c0-1 2-1 3 0 1 0 5 1 7 1l428 0c2 0 6-6 7-1 1-8 3-1 3 0z m-448-297c0-18 14-32 32-32l384 0c18 0 32 14 32 32l0 212c0 9-7 16-16 16l-416 0c-9 0-16-7-16-16z"/>
<glyph glyph-name="ios-folder-open" unicode="&#57383;" d="M448 393c0 13-9 23-23 23l-194 0c-3 0-4 1-6 2l-23 23 0 0c-5 5-9 7-17 7l-96 0c-14 0-25-10-25-23l0-73 384 0z m-384-69l-8 0c-13 0-26-5-24-24 2-20 24-211 24-211 2-18 11-25 25-25l352 0c13 0 21 8 23 25 0 0 22 185 24 205 1 21-9 30-24 30z"/>
<glyph glyph-name="ios-football" unicode="&#57384;" d="M256 464c-115 0-208-93-208-208 0-115 93-208 208-208 115 0 208 93 208 208 0 115-93 208-208 208z m127-81c9-8 16-17 23-27 7-1 1-3 4-4l-18-41c0-1-1-2-2-2l-58-27c-1-6-3 1-4 1l-56 48c-1 0-2 2-2 3l0 63c0 1 7 2 2 3l38 26c1 1 3 1 4 1 26-9 49-24 69-44z m-74-297c0-2-1-2-2-3-16-5-34-7-51-7-17 0-34 3-51 7-1 1-2 2-2 3l-17 43c0 1 0 2 2 3l23 42c-1 2 2 2 3 2l88 0c1 0 2-8 3-2l22-42c1-1 1-2 2-3l-16-43z m-67 311l0-63c0-2 0-3-1-4l-57-47c-1-1-3-1-4-6l-58 26c-1 1-2 1-2 2l-14 42c-1 1-1 2 4 3 6 10 14 19 22 28 20 20 44 34 70 43 1 0 2 0 3-5l39-26c1-5 2-2 2-3z m-164-149l36 31c1 1 3 1 4 1l53-24c1-5 1-2 2-3l14-57c1-1 0-2 0-3l-23-44c-1-1-2-2-4-2l-46 1c-1 0-2 0-3 1-20 28-32 61-35 96 0 1 5 2 2 3z m270-99l-23 44c0 1-1 2 0 3l14 57c0 1 1 2 3 3l52 24c1 0 3 0 4-6l36-32c1-8 2-2 2-3-2-35-14-67-35-95-1-1-2-2-3-2l-46-6c-2 0-3 1-4 2z"/>
<glyph glyph-name="ios-funnel" unicode="&#57385;" d="M48 425c0-6 2-12 6-16l152-180c3-4 5-10 5-15l0-107c0-10 6-19 15-22l55-20c10-4 20 4 20 15l0 134c0 5 2 11 5 15l152 180c4 4 6 10 6 16 0 13-10 23-21 23l-374 0c-11 0-21-10-21-23z"/>
<glyph glyph-name="ios-gift" unicode="&#57386;" d="M432 376l-84 0c12 11 20 27 20 44 0 33-28 60-63 60-21 0-38-10-49-27-11 17-28 27-49 27-35 0-63-27-63-60 0-17 8-33 20-44l-84 0c-18 0-32-14-32-32l0-20c0-2 2-4 4-4l408 0c2 0 4 2 4 4l0 20c0 18-14 32-32 32z m-127 76c19 0 34-14 34-32 0-18-15-32-34-32l-34 0c0 48 15 64 34 64z m-98 0c19 0 34-16 34-64l-34 0c-18 0-34 14-34 32 0 18 16 32 34 32z m-143-166l0-222c0-18 14-32 32-32l146 0 0 262-170 0c-4 0-8-4-8-8z m376 8l-170 0 0-262 146 0c18 0 32 14 32 32l0 222c0 4-4 8-8 8z"/>
<glyph glyph-name="ios-git-branch" unicode="&#57387;" d="M352 416c-39 0-70-31-70-70 0-33 24-62 56-69-1-19-10-29-27-42-20-15-47-20-65-23-41-8-63-27-73-40l0 169c15 3 29 11 39 22 12 13 18 30 18 47 0 39-31 70-70 70-38 0-70-31-70-70 0-17 6-33 17-46 10-11 24-19 38-22l0-172c-14-3-28-11-38-22-11-13-17-29-17-46 0-39 31-70 70-70 39 0 70 31 70 70 0 23-12 45-31 58 9 10 25 19 51 24 22 4 53 10 78 29 23 18 37 37 38 64 32 7 56 35 56 69 1 39-31 70-70 70z m-234-6c0 23 19 42 42 42 23 0 42-19 42-42 0-23-19-42-42-42-23 0-42 19-42 42z m84-308c0-23-19-42-42-42-23 0-42 19-42 42 0 23 19 42 42 42 23 0 42-19 42-42z m150 202c-23 0-42 19-42 42 0 23 19 42 42 42 23 0 42-19 42-42 0-23-19-42-42-42z"/>
<glyph glyph-name="ios-git-commit" unicode="&#57388;" d="M466 270l-77 0c-3 32-17 61-41 83-25 24-58 37-92 37-34 0-67-13-92-37-23-22-38-51-41-83l-77 0c-8 0-14-6-14-14 0-8 6-14 14-14l77 0c3-32 18-61 41-84 25-23 58-36 92-36 34 0 67 13 92 36 23 23 38 52 41 84l77 0c8 0 14 6 14 14 0 8-6 14-14 14z m-135-89c-20-20-47-31-75-31-28 0-55 11-75 31-20 20-31 47-31 75 0 28 11 55 31 75 20 20 47 31 75 31 28 0 55-11 75-31 20-20 31-47 31-75 0-28-11-55-31-75z"/>
<glyph glyph-name="ios-git-compare" unicode="&#57389;" d="M234 184c-3 2-6 4-10 4-4 0-7-1-10-4-2-3-4-6-4-10 0-4 1-7 4-10l0-1 41-40-89 0c-20 0-34 7-42 23-8 17-9 42-9 59l0 136c15 3 29 11 39 22 12 13 18 30 18 47 0 39-31 70-70 70-39 0-70-31-70-70 0-17 6-33 17-46 10-11 23-19 38-22l0-136c0-15 0-42 9-65 12-30 36-45 70-45l90 0-40-40c-5-6-5-15 0-20l0-1c3-3 6-4 10-4 4 0 7 1 10 4l57 58c5 4 7 9 7 15 0 6-2 12-7 16l-59 59z m-132 184c-23 0-42 19-42 42 0 23 19 42 42 42 23 0 42-19 42-42 0-23-19-42-42-42z m323-198l0 136c0 15 0 42-9 65-12 29-36 45-70 45l-90 0 40 40c5 6 5 14 0 20l0 0c-3 3-6 4-10 4-4 0-7-1-10-4l-57-58c-5-4-7-9-7-15 0-6 2-12 7-16l59-59c3-3 6-4 10-4 4 0 7 1 10 4 3 2 4 6 4 10 0 3-1 7-4 10l0 0-41 40 89 0c20 0 34-8 42-24 8-17 9-41 9-58l0-135c-15-3-29-11-39-22-12-13-18-30-18-47 0-39 31-70 70-70 39 0 70 31 70 70 0 17-6 33-17 46-10 11-23 19-38 22z m-15-110c-23 0-42 19-42 42 0 23 19 42 42 42 23 0 42-19 42-42 0-23-19-42-42-42z"/>
<glyph glyph-name="ios-git-merge" unicode="&#57390;" d="M378 294c-33 0-62-24-69-56-10 0-18 3-39 11-30 12-72 33-111 95 27 11 45 36 45 66 0 39-31 70-70 70-38 0-70-31-70-70 0-17 6-33 17-46 10-11 24-19 38-22l0-172c-14-3-28-11-38-22-11-13-17-29-17-46 0-39 31-70 70-70 39 0 70 31 70 70 0 17-6 34-18 47-10 11-24 19-39 22l0 141c41-57 82-77 113-89 25-10 37-13 50-13 6-32 35-56 68-56 39 0 70 31 70 70 0 39-31 70-70 70z m-202-192c0-23-19-42-42-42-23 0-42 19-42 42 0 23 19 42 42 42 23 0 42-19 42-42z m-42 266c-23 0-42 19-42 42 0 23 19 42 42 42 23 0 42-19 42-42 0-23-19-42-42-42z m244-186c-23 0-42 19-42 42 0 23 19 42 42 42 23 0 42-19 42-42 0-23-19-42-42-42z"/>
<glyph glyph-name="ios-git-network" unicode="&#57391;" d="M377 480c-38 0-70-32-70-71 0-17 6-33 17-46 10-12 24-20 39-23l0-43-107-55-106 55 0 43c32 7 55 36 55 69 0 39-31 71-70 71-39 0-71-32-71-71 0-17 6-33 18-46 10-12 23-20 38-23l0-57c0-3 1-5 4-7l117-60 0-44c-32-7-56-36-56-69 0-39 32-71 71-71 39 0 71 32 71 71 0 17-7 33-18 46-10 12-23 20-38 23l0 44 117 60c3 2 4 4 4 7l0 57c33 7 56 36 56 69 0 39-32 71-71 71z m-283-71c0 23 18 41 41 41 22 0 40-18 40-41 0-22-18-41-40-41-23 0-41 19-41 41z m203-306c0-23-18-41-41-41-22 0-41 18-41 41 0 22 19 40 41 40 23 0 41-18 41-40z m80 265c-22 0-40 19-40 41 0 23 18 41 40 41 23 0 41-18 41-41 0-22-18-41-41-41z"/>
<glyph glyph-name="ios-git-pull-request" unicode="&#57392;" d="M393 170l0 136c0 15 0 42-9 65-12 29-36 45-70 45l-78 0 40 40c5 6 5 14 0 20l0 0c-3 3-6 4-10 4-4 0-7-1-10-4l-55-55c-8 29-35 51-67 51-39 0-70-31-70-70 0-17 6-33 17-46 10-11 23-19 38-22l0-164c-14-3-28-11-38-22-11-13-17-29-17-46 0-39 31-70 70-70 39 0 70 31 70 70 0 17-6 34-18 47-10 11-24 19-39 22l0 162c15 3 29 11 39 22 8 8 13 18 16 29l56-56c3-3 6-4 10-4 4 0 7 1 10 4 3 3 4 6 4 10 0 4-1 7-4 10l0 0-41 40 77 0c20 0 34-8 42-24 8-17 9-41 9-58l0-135c-15-3-29-11-39-22-12-13-18-30-18-47 0-39 31-70 70-70 39 0 70 31 70 70 0 17-6 33-17 46-10 11-23 19-38 22z m-217-68c0-23-19-42-42-42-23 0-42 19-42 42 0 23 19 42 42 42 23 0 42-19 42-42z m-42 258c-23 0-42 19-42 42 0 23 19 42 42 42 23 0 42-19 42-42 0-23-19-42-42-42z m244-300c-23 0-42 19-42 42 0 23 19 42 42 42 23 0 42-19 42-42 0-23-19-42-42-42z"/>
<glyph glyph-name="ios-glasses" unicode="&#57393;" d="M465 271l-7 0c-3 21-13 41-28 55-17 17-40 26-64 26-20 0-40-7-56-19-14-11-24-25-30-42-7 5-16 7-24 7-8 0-17-2-24-7-6 17-16 31-30 42-16 12-36 19-56 19-24 0-46-9-64-26-15-14-25-34-28-55l-6 0c-8 0-15-7-15-15 0-8 7-15 15-15l6 0c3-21 13-41 28-55 18-17 40-26 64-26 51 0 93 43 93 96l0 0c0 6 7 15 17 15 10 0 17-9 17-15l0 0c0-53 42-96 93-96 24 0 47 9 64 26 15 14 25 34 28 55l7 0c8 0 14 7 14 15 0 8-6 15-14 15z"/>
<glyph glyph-name="ios-globe" unicode="&#57394;" d="M256 464l-1 0c-55-2-107-22-146-61-39-39-61-92-61-147 0-56 22-108 61-147 39-39 91-61 146-61l1 0c115 0 208 93 208 208 0 115-93 208-208 208z m180-194l-77 0c-1 27-5 52-10 76 17 6 34 13 50 21 22-28 35-61 37-97z m-194 0l-62 0c-1 24 4 48 9 69 17-4 35-6 53-7z m0-28l0-62c-18-8-36-3-53-7-5 21-8 45-9 69z m28 0l61 0c0-24-3-48-8-69-18 4-35 6-53 7z m0 28l0 62c18 1 35 3 53 7 5-21 8-45 8-69z m109 118c-12-6-25-11-38-16-7 22-16 40-26 55 24-8 46-22 64-39z m-64-23c-15-3-30-5-45-6l0 74c17-10 34-34 45-68z m-73 68l0-74c-15 1-31 3-45 6 11 34 28 59 45 68z m-46-6c-10-15-19-33-26-55-13 5-25 10-37 16 18 17 40 30 63 39z m-82-60c15-8 32-15 49-21-6-24-9-49-10-76l-77 0c3 35 16 69 38 97z m-38-125l77 0c1-27 4-52 10-76-17-6-34-13-50-21-21 28-34 61-37 97z m57-118c12 6 24 11 37 15 7-21 16-39 26-54-23 9-45 22-63 39z m64 23c14 3 30 5 45 6l0-74c-17 9-34 34-45 68z m73-68l0 74c15-8 30-3 45-6-11-34-28-58-45-68z m45 6c10 15 19 33 27 55 13-5 25-10 38-16-19-17-41-31-65-39z m84 60c-16 8-33 15-50 21 5 24 9 49 10 76l77 0c-2-36-15-69-37-97z"/>
<glyph glyph-name="ios-grid" unicode="&#57395;" d="M206 204l100 0c1 0 2 1 2 2l0 100c0 1-1 2-2 2l-100 0c-1 0-2 1-2-2l0-100c0-1 9-2 2-2z m-142 212l0-320c0-18 14-32 32-32l320 0c18 0 32 14 32 32l0 320c0 18-14 32-32 32l-320 0c-18 0-32-14-32-32z m330-108l-56 0c-1 0-2 1-2-2l0-100c0-1 9-2 2-2l56 0c8 0 14-6 14-14 0-8-6-14-14-14l-56 0c-1 0-2 1-2-2l0-56c0-8-6-14-14-14-8 0-14 6-14 14l0 56c0 1-1 2-2 2l-100 0c-1 0-2 1-2-2l0-56c0-8-6-14-14-14-8 0-14 6-14 14l0 56c0 1-1 2-2 2l-56 0c-8 0-14 6-14 14 0 8 6 14 14 14l56 0c1 0 2 1 2 2l0 100c0 1-1 2-2 2l-56 0c-8 0-14 6-14 14 0 8 6 14 14 14l56 0c1 0 2 1 2 2l0 56c0 8 6 14 14 14 8 0 14-6 14-14l0-56c0-1 9-2 2-2l100 0c1 0 2 1 2 2l0 56c0 8 6 14 14 14 8 0 14-6 14-14l0-56c0-1 9-2 2-2l56 0c8 0 14-6 14-14 0-8-6-14-14-14z"/>
<glyph glyph-name="ios-hammer" unicode="&#57396;" d="M278 265c-1 2-3 4-4 6l-19 18c-2 2-4 3-6 4-9 4-18 2-24-4-6-6-18-18-39-39-40-40-98-89-132-118-7-6-8-17-1-24l39-39c7-7 18-7 24 1 29 34 79 92 119 131 21 21 32 32 39 39 6 6 8 16 4 25z m184 29l-34 34c-1 1-3 2-4 2-1 0-3-5-4-2-3-2-6-4-10-3-4 0-9 2-12 5-7 7 1 20-5 29-6 9-16 20-23 27-7 7-35 33-82 53-17 6-33 9-48 9-26 0-47-9-54-15-6-5-12-14-4-14 7 0 2 0 3 0 4 0 13 1 23 1 16 0 35-2 45-10 16-13 30-30 31-53 8-17-4-28-19-46-3-3-3-8 0-10l20-20c3-3 8-3 11-1 14 14 22 21 31 23 4 1 9 2 13 2 10 0 19-3 24-5 1-6 2-1 3-2 6-7 6-18-1-24l-2-2c-2-2-2-6 0-8l35-34c1-1 2-2 4-2 1 0 3 1 4 2l55 55c3 2 3 6 0 8z"/>
<glyph glyph-name="ios-hand" unicode="&#57397;" d="M395 395c-12 0-21-10-21-21l0-109c0-5-4-9-9-9-5 0-9 4-9 9l0 161c0 11-9 21-21 21-12 0-21-10-21-21l0-127c0-5-4-8-9-8-5 0-9 3-9 8l0 144c0 12-9 21-21 21-12 0-21-9-21-21l0-161c0-5-4-9-9-9-5 0-9 4-9 9l0 127c0 11-9 20-21 20-12 0-21-9-21-20l0-219-28 24c-26 23-48 32-66 16-12-12 7-31 27-53 19-22 70-92 113-118 0 0 17-11 41-11l57 0c46 0 78 38 78 93l0 233c0 11-9 21-21 21z"/>
<glyph glyph-name="ios-happy" unicode="&#57398;" d="M256 464c-115 0-208-93-208-208 0-115 93-208 208-208 115 0 208 93 208 208 0 115-93 208-208 208z m72-152c13 0 24-11 24-24 0-13-11-24-24-24-13 0-24 11-24 24 0 13 11 24 24 24z m-144 0c13 0 24-11 24-24 0-13-11-24-24-24-13 0-24 11-24 24 0 13 11 24 24 24z m72-169c-45 0-82 30-94 71-2 5 2 10 8 10l172 0c6 0 10-5 8-10-12-41-49-71-94-71z"/>
<glyph glyph-name="ios-headset" unicode="&#57399;" d="M256 388c-24 0-47-10-64-28-17-19-26-33-26-60 0-8 6-14 13-14 8 0 13 6 13 14 0 17 7 33 19 44 12 10 28 16 45 16 17 0 33-6 45-16 12-12 19-27 19-44 0-8 6-14 13-14 7 0 13 6 13 14 0 27-9 41-26 60-17 18-40 28-64 28z m201-155c-15 15-34 23-55 23l-8 0c-2 0-4 2-4 4l0 38c0 35-14 69-39 94-26 26-59 40-95 40-36 0-69-14-95-39-25-26-39-59-39-95l0-38c0-2-2-4-4-4l-8 0c-21 0-40-8-55-23-15-15-23-34-23-55l0-12c0-21 8-40 23-55 15-15 34-23 55-23l6 0c4 0 8-1 11-4 2-2 5-4 9-4 8 0 14 6 14 14l0 204c0 28 11 55 31 75 20 20 47 31 75 31 28 0 55-11 75-31 20-20 31-47 31-75l0-204c0-8 6-14 14-14 4 0 7 1 10 4 2 2 6 4 10 4l6 0c21 0 40 8 55 23 15 15 23 34 23 55l0 12c0 21-8 40-23 55z"/>
<glyph glyph-name="ios-heart" unicode="&#57400;" d="M352 456l-1 0c-40 0-75-21-95-52-20 31-55 52-95 52l-1 0c-62-6-112-51-112-113 0-37 16-90 48-133 60-82 160-154 160-154 0 0 100 72 160 154 32 43 48 96 48 133 0 62-50 112-112 113z"/>
<glyph glyph-name="ios-heart-dislike" unicode="&#57401;" d="M424 85l-368 362c-5 5-14 5-20-1-5-6-5-15 0-20l368-362c3-4 9-5 13-3 3 0 5 1 7 3 5 6 5 15 0 20z m-360 258c0-37 15-90 47-133 60-82 161-154 161-154 0 0 29 20 66 52l-270 265c-3-10-4-20-4-30z m370-133c32 43 46 96 46 133 0 62-50 112-112 113l-1 0c-40 0-75-21-95-52-20 31-55 52-95 52l-1 0c-29-3-56-12-76-30l282-277c20 19 36 40 52 61z"/>
<glyph glyph-name="ios-heart-empty" unicode="&#57402;" d="M352 456l-1 0c-40 0-75-21-95-52-20 31-55 52-95 52l-1 0c-62-6-112-51-112-113 0-37 16-90 48-133 60-82 160-154 160-154 0 0 100 72 160 154 32 43 48 96 48 133 0 62-50 112-112 113z m42-229c-43-59-108-112-138-136-30 24-95 78-138 136-29 40-42 87-42 116 0 23 9 44 25 60 16 16 37 25 59 25l1 0c14 0 29-4 41-11 12-7 23-17 31-28 5-8 14-13 23-13 10 0 18 5 24 13 7 11 18 21 30 28 13 7 27 11 41 11l-1 0c23-2 44-9 60-25 16-16 24-38 24-60 0-29-13-76-42-116z"/>
<glyph glyph-name="ios-heart-half" unicode="&#57403;" d="M352 456l-1 0c-40 0-75-21-95-52-20 31-55 52-95 52l-1 0c-62-6-112-51-112-113 0-37 16-90 48-133 60-82 160-154 160-154 0 0 100 72 160 154 32 43 48 96 48 133 0 62-50 112-112 113z m42-229c-38-51-92-99-125-126-5-4-13 1-13 7l0 205c0 27 9 53 23 75 0 0 1 1 2 1 8 11 19 21 31 28 12 7 27 11 41 11l-1 0c22-2 44-9 60-25 15-16 24-38 24-60 0-29-13-76-42-116z"/>
<glyph glyph-name="ios-help" unicode="&#57404;" d="M257 352c37 0 63-21 63-51 0-20-10-33-28-44-17-10-23-18-23-30l0-8-35 0 0 8c-2 21 5 34 23 44 17 10 24 17 24 29 0 13-12 22-27 22-15 0-26-10-26-25l-36 0c1 32 25 55 65 55z m-27-171c0 11 10 20 22 20 12 0 21-9 21-20 0-12-9-21-21-21-12 0-22 9-22 21z"/>
<glyph glyph-name="ios-help-buoy" unicode="&#57405;" d="M256 464c-115 0-208-93-208-208 0-115 93-208 208-208 115 0 208 93 208 208 0 115-93 208-208 208z m55-36c27-9 52-24 72-45 21-20 36-45 45-72l-89-6c-8 14-20 25-34 34z m-182-45c20 21 45 36 72 45l6-89c-14-9-25-20-34-34l-89 6c9 27 24 52 45 72z m72-299c-27 9-52 24-72 45-21 20-36 45-45 72l89 6c9-14 20-25 34-34z m55 104c-37 0-68 30-68 68 0 37 31 68 68 68 38 0 68-31 68-68 0-38-30-68-68-68z m127-59c-20-21-45-36-72-45l-6 89c14 9 26 20 34 34l89-6c-9-27-24-52-45-72z"/>
<glyph glyph-name="ios-help-circle" unicode="&#57406;" d="M256 464c-115 0-208-93-208-208 0-115 93-208 208-208 115 0 208 93 208 208 0 115-93 208-208 208z m-4-304c-12 0-22 9-22 21 0 11 10 20 22 20 12 0 21-9 21-20 0-12-9-21-21-21z m40 97c-17-10-23-18-23-30l0-8-35 0 0 8c-2 21 5 34 23 44 17 10 24 17 24 29 0 13-12 22-27 22-15 0-26-10-26-25l-36 0c1 32 25 55 65 55 37 0 63-21 63-51 0-20-10-33-28-44z"/>
<glyph glyph-name="ios-help-circle-outline" unicode="&#57407;" d="M256 436c48 0 93-19 127-53 34-34 53-79 53-127 0-48-19-93-53-127-34-34-79-53-127-53-48 0-93 19-127 53-34 34-53 79-53 127 0 48 19 93 53 127 34 34 79 53 127 53m0 28c-115 0-208-93-208-208 0-115 93-208 208-208 115 0 208 93 208 208 0 115-93 208-208 208z m1-112c37 0 63-21 63-51 0-20-10-33-28-44-17-10-23-18-23-30l0-8-35 0 0 8c-2 21 5 34 23 44 17 10 24 17 24 29 0 13-12 22-27 22-15 0-26-10-26-25l-36 0c1 32 25 55 65 55z m-27-171c0 11 10 20 22 20 12 0 21-9 21-20 0-12-9-21-21-21-12 0-22 9-22 21z"/>
<glyph glyph-name="ios-home" unicode="&#57408;" d="M259 408c-2 1-4 1-5 0l-156-125c-1-8-2-2-2-3l0-230c0-1 9-2 2-2l108 0c1 0 2 1 2 2l0 140c0 1 9 2 2 2l92 0c1 0 2-1 2-2l0-140c0-1 9-2 2-2l108 0c1 0 2 1 2 2l0 230c0 1-1 2-1 3z m200-100l-189 151c-4 3-9 5-14 5-5 0-10-2-14-5l-82-67 0 42c0 2-1 2-2 2l-60 0c-1 0-2 1-2-2l0-92-43-35c-3-2-5-6-5-10 0-4 1-8 4-11 3-2 6-4 10-4 3 0 6 1 9 3l184 148c-1 1 9 1 1 1-8 0-1-1 1-4l184-148c3-2 6-3 9-3 4 0 7 2 10 4 3 3 4 7 4 11 0 4-2 8-5 10z"/>
<glyph glyph-name="ios-hourglass" unicode="&#57409;" d="M416 78l-5 0c-7 0-12 1-13 7l0 0c-15 136-100 139-100 171 0 32 85 35 100 170l0 1c-1 6 6 7 13 7l5 0c7 0 14 6 14 13 4 8-6 15-14 15l-320 0c-7 0-14-6-14-13 0-8 6-15 14-15l6 0c6 0 12-1 12-7l0-1c15-135 100-138 100-170 0-32-85-35-100-171l0 0c0-6-6-7-12-7l-6 0c-7 0-14-6-14-13 0-8 6-15 14-15l320 0c8 0 14 7 14 15 0 7-7 13-14 13z m-253 34c29 80 80 70 80 102l0 55c0 20-37 33-60 65-4 5 0 12 7 12l133 0c6 0 10-7 6-12-22-32-60-45-60-65l0-55c0-31 49-23 80-102 3-7 7-16-7-16l-172 0c-7 0-9 9-7 16z"/>
<glyph glyph-name="ios-ice-cream" unicode="&#57410;" d="M221 106l5-15c0-1 2-2 3-1l6 4c3 2 3 5 0 7l-11 7c-2 1-4-5-3-2z m66-15l5 15c-1 2-2 3-3 2l-12-7c-2-1-2-2-2-3 0-2 0-3 2-4l7-4c1-7 2-1 3 1z m-98 179c-4-4-10-7-16-9-1 1-2-1-1-2l9-29 4-12c0-1 2-2 3-1l7 4 36 23c3 2 3 6-1 7-14 3-26 10-36 19-2 1-4 1-5 0z m4-69l-2-1 14-45c1-2 2-2 3-1l27 16c3 2 3 6 0 7l-38 24c-1 1-3 1-4 0z m65-38c-1 1-3 1-4 0l-42-26 0-1c-1 1-1-2 0-3l1-5 41-25c1-8 3-8 4 0l42 25 4 1c1 1 1 2 0 3l-42 26z m39 52l-39 24c-1 1-3 1-4 0l-38-24c-2 0-2-2-2-3 0-1 0-3 2-3l38-24c1-8 3-8 4 0l39 24c2 1 2 5 0 6z m21 55c-10-9-22-15-36-19-4-8-4-5-1-7l36-23 8-4c1-7 2-2 3 1l4 12 10 31c-7 2-14 5-18 9-2 1-4 1-6-1z m-86-200l2-5c0 0 8-19 22-19 15 0 22 19 22 19l2 5c-1 1 0 3-2 4l-20 13c-1 1-3 1-4 0l-20-13c-1-8-2-2-2-4z m45 100l27-17c1-7 3-2 3 1l14 44c0 1 0 2 0 3l-1 0c-2 1-3 1-5 0l-38-24c-3-1-3-5 0-7z m99 174c-6-6-13-9-18-11-2-7-3 2-2 3l4 6c6 9 8 19 7 30-9 53-55 94-111 94-56 0-102-41-111-95-1-10 8-21 7-30l4-5c2-2 0-4-2-3-5 2-14 6-20 13-2 1-4 1-5 0-11-7-17-19-17-32 0-23 18-40 40-40 11 0 28 4 36 12 2 1 4 1 6-1 15-14 36-20 62-20 25 0 47 6 62 20 1 1 4 1 5 0 9-8 26-12 37-12 22 0 40 18 40 40 0 12-5 22-14 30-2 2-7 2-10 0z"/>
<glyph glyph-name="ios-image" unicode="&#57411;" d="M113 200l190 0c5 0 7 5 5 8l-96 154c-2 3-6 3-9 0l-95-154c-3-3 1-8 5-8z m194 58l35-56c1-2 2-2 4-2l53 0c5 0 8 5 5 8l-62 88c-2 3-7 3-9 0l-26-32c-2-2-2-4 1-6z m44 86c13 1 24 12 25 25 2 18-13 33-31 31-13-2-23-12-25-25-1-18 13-33 31-31z m81 120l-352 0c-18 0-32-14-32-32l0-352c0-18 14-32 32-32l352 0c18 0 32 14 32 32l0 352c0 18-14 32-32 32z m-3-280c0-4-3-8-8-8l-330 0c-5 0-8 4-8 8l0 237c0 5 3 8 8 8l330 0c5 0 8-3 8-8l0-237z"/>
<glyph glyph-name="ios-images" unicode="&#57412;" d="M262 313c-1 3-5 3-7 0l-92-122c-3-3-1-7 3-7l161-14c4-3 6 3 5 7z m105-65c-1 3-5 3-7 1l-25-26c-2-1-2-3-1-5l26-49c0-2 2-3 3-3l45-4c4-3 7 4 5 7z m11 40c11 0 21 8 23 19 3 15-8 28-24 28-11-1-20-8-23-19-2-15 9-29 24-28z m77 95l-66 5-6 67c-1 15-14 26-29 25l-297-27c-15-1-26-14-25-29l27-297c1-15 14-26 29-24l16 1-1-17c-2-15 9-28 24-29l298-26c15-1 28 10 29 25l26 296c1 15-10 28-25 30z m-367-172c-4-3-7 3-8 6l-18 200c0 4 3 7 6 8l280 25c3 0 7-3 7-6l5-53-202 18c-15 1-28-10-29-25l-15-170z m362 136l-18-200c0-4-3-7-7-6l-19 1-260 23c-4 0-7 4-6 7l3 44 14 156c0 4 4 7 7 6l198-17 30-2 52-5c3-2 6-3 6-7z"/>
<glyph glyph-name="ios-infinite" unicode="&#57413;" d="M457 330c-20 19-47 30-75 30-29 0-56-11-76-30l-31-30c-1-2-1-5 0-6l20-19c1-2 4-2 5 0l31 30c14 13 32 20 51 20 19 0 36-7 50-20 13-13 21-31 21-49 0-19-8-36-21-49-14-13-31-20-50-20-19 0-37 7-51 20l-125 123c-21 19-47 30-76 30-28 0-55-11-75-30-20-20-31-46-31-74 0-28 11-54 31-74 20-19 47-30 75-30 29 0 56 11 76 30l31 30c1 2 1 5 0 6l-20 19c-1 1-4 1-5 0l-31-30c-14-13-32-20-51-20-19 0-36 7-50 20-13 13-21 31-21 49 0 18 8 36 21 49 14 13 31 20 50 20 19 0 37-7 51-20l125-123c20-19 47-30 75-30 29 0 56 11 76 30 20 20 31 46 31 74 2 28-11 54-31 74z"/>
<glyph glyph-name="ios-information" unicode="&#57414;" d="M235 336c0 11 10 20 21 20 11 0 21-9 21-20 0-11-10-20-21-20-11-1-21 9-21 20z m2-36l38 0 0-144-38 0z"/>
<glyph glyph-name="ios-information-circle" unicode="&#57415;" d="M256 464c-115 0-208-93-208-208 0-115 93-208 208-208 115 0 208 93 208 208 0 115-93 208-208 208z m19-304l-38 0 0 144 38 0z m-19 160c-11 0-21 8-21 20 0 11 10 20 21 20 11 0 21-9 21-20 0-12-10-20-21-20z"/>
<glyph glyph-name="ios-information-circle-outline" unicode="&#57416;" d="M235 340c0 11 10 20 21 20 11 0 21-9 21-20 0-12-10-20-21-20-11 0-21 8-21 20z m2-36l38 0 0-144-38 0z m19 132c48 0 93-19 127-53 34-34 53-79 53-127 0-48-19-93-53-127-34-34-79-53-127-53-48 0-93 19-127 53-34 34-53 79-53 127 0 48 19 93 53 127 34 34 79 53 127 53m0 28c-115 0-208-93-208-208 0-115 93-208 208-208 115 0 208 93 208 208 0 115-93 208-208 208z"/>
<glyph glyph-name="ios-jet" unicode="&#57417;" d="M464 464c0 0-20-1-53-27-16-12-162-121-162-121l-160 8-41-36 102-52-8-10-82-4-6-33 60-48-26-53 53 26 48-60 33 6 4 82 10 8 52-102 36 41-8 160c0 0 109 146 121 162 26 33 27 53 27 53z"/>
<glyph glyph-name="ios-journal" unicode="&#57418;" d="M92 480c-15 0-28-13-28-28l0-392c0-16 13-28 28-28l340 0c9 0 16 7 16 16 0 9-7 16-16 16l-319 0c-9 0-16 6-17 14-1 10 7 18 16 18l208 0 0 384z m340-384c9 0 16 7 16 16l0 340c0 15-13 28-28 28l-52 0 0-384z"/>
<glyph glyph-name="ios-key" unicode="&#57419;" d="M345 294c-13 0-26 0-38-4-50 43-184 157-194 167-5 5-10 7-15 7-9 0-17-5-21-10-7-6-33-34-28-40 15-15 19-18 25-24 9-10 28 1 36-3 7-3 9-7 10-12 1-6-3-16-3-24 0-8 4-13 9-19 5-5 9-9 16-9 9 0 21 13 30 3 10-9-6-23-5-34 2-10 16-22 22-24 6-1 22 12 31 10 3-1 10-7 11-11 1-5-7-25-6-30 1-6 7-12 10-17-6-16-9-30-9-48 0-69 53-124 119-124 66 0 119 55 119 124 0 68-53 122-119 122z m23-182c-18 0-32 14-32 32 0 18 14 32 32 32 18 0 32-14 32-32 0-18-14-32-32-32z"/>
<glyph glyph-name="ios-keypad" unicode="&#57420;" d="M395 171c-30 0-54-24-54-54 0-29 24-53 54-53 29 0 53 24 53 53 0 30-24 54-53 54z m-139 0c-29 0-53-24-53-54 0-29 24-53 53-53 30 0 53 24 53 53 0 30-23 54-53 54z m-139 0c-29 0-53-24-53-54 0-29 24-53 53-53 30 0 54 24 54 53 0 30-24 54-54 54z m278 138c-30 0-54-24-54-53 0-30 24-53 54-53 29 0 53 23 53 53 0 29-24 53-53 53z m-139 0c-29 0-53-24-53-53 0-30 24-53 53-53 30 0 53 23 53 53 0 29-23 53-53 53z m-139 0c-29 0-53-24-53-53 0-30 24-53 53-53 30 0 54 23 54 53 0 29-24 53-54 53z m278 139c-30 0-54-24-54-53 0-30 24-54 54-54 29 0 53 24 53 54 0 29-24 53-53 53z m-139 0c-29 0-53-24-53-53 0-30 24-54 53-54 30 0 53 24 53 54 0 29-23 53-53 53z m-139 0c-29 0-53-24-53-53 0-30 24-54 53-54 30 0 54 24 54 54 0 29-24 53-54 53z"/>
<glyph glyph-name="ios-laptop" unicode="&#57421;" d="M448 144l0 239c0 9-8 17-17 17l-350 0c-9 0-17-8-17-17l0-239-48 0c0-9 10-18 19-22 11-5 29-10 49-10l344 0c20 0 38 4 48 9 10 4 20 13 20 23z m-192 248c2 0 4-2 4-4 0-2-2-4-4-4-2 0-4 2-4 4 0 2 2 4 4 4z m-174-16l348 0c1 0 2-1 2-2l0-212c0-1-1-2-2-2l-348 0c-1 0-2 1-2 2l0 212c0 1 9 2 2 2z m216-240l-84 0c-5 0-10 6-10 8l104 0c0-2-3-8-10-8z"/>
<glyph glyph-name="ios-leaf" unicode="&#57422;" d="M454 133c-52 8-56 12-56 12 16 74-22 151-76 196-72 59-181 16-266 106-20 21-8-236 98-333 78-71 170-49 195-38 22 11 38 34 38 34 42-13 62-14 62-14 15-2 22 35 5 37z m-92-7c-78 23-145 81-189 126-4 4 2 9 6 6 43-35 108-80 193-108 2-8-5-20-10-24z"/>
<glyph glyph-name="ios-link" unicode="&#57423;" d="M280 171l-1-1c-4-4-7-2-10-5l-64-64c-14-14-32-21-52-21-19 0-38 7-51 21-14 13-22 32-22 51 0 20 8 38 22 52l68 68c4 4 8 7 12 10 4 3 9 5 14 7 5 2 10 3 15 4 4 0 7 1 11 1 1 0 2-1 4-2 18-2 35-9 47-21 8-8 14-18 17-28 3-8 11-12 19-10 1 0 1 0 3 0 1 0 1 0 1 0 8 3 12 11 10 19-4 16-12 29-24 41-16 16-36 26-58 30-2 0-4 0-6 1-3 0-7 0-11 0-2 0-5-1-8-3-5-4-10-1-16-2-1-2-2-5-3-8-7-2-13-5-19-8-11-5-20-11-28-20l-69-68c-22-7-33-34-33-62 0-28 11-55 31-74 20-20 46-31 74-31 28 0 55 11 74 31l66 65c10 10 2 28-13 27z m153 262c-19 20-46 31-74 31-28 0-55-11-74-31l-64-63c-10-10-4-27 10-28 5-4 9 1 13 5l64 63c13 14 32 22 51 22 20 0 38-8 52-22 13-13 21-32 21-51 0-20-8-38-21-52l-69-68c-4-4-7-7-11-10-5-3-10-5-15-7-5-2-10-3-15-4-4-5-7-7-10-7-2 0-3 0-5 0-18 2-34 9-47 21-7 8-13 16-16 26-3 8-11 12-19 10-9-3-14-12-12-21 5-14 12-26 24-37l0-2c17-17 40-28 64-30 3-4 7-6 11-6 2 0 5 0 7 0 7 0 13 2 20 3 6 2 13 4 19 7 11 6 20 12 28 20l69 69c19 20 30 46 30 74 0 29-11 55-31 75z"/>
<glyph glyph-name="ios-list" unicode="&#57424;" d="M120 256c0-15-13-28-28-28-15 0-28 13-28 28 0 15 13 28 28 28 15 0 28-13 28-28z m0 124c0-15-13-28-28-28-15 0-28 13-28 28 0 15 13 28 28 28 15 0 28-13 28-28z m0-248c0-15-13-28-28-28-15 0-28 13-28 28 0 15 13 28 28 28 15 0 28-13 28-28z m312 140l-240 0c-9 0-16-7-16-16 0-9 7-16 16-16l240 0c9 0 16 7 16 16 0 9-7 16-16 16z m0-124l-240 0c-9 0-16-7-16-16 0-9 7-16 16-16l240 0c9 0 16 7 16 16 0 9-7 16-16 16z m-240 216l240 0c9 0 16 7 16 16 0 9-7 16-16 16l-240 0c-9 0-16-7-16-16 0-9 7-16 16-16z"/>
<glyph glyph-name="ios-list-box" unicode="&#57425;" d="M48 429l0-346c0-20 16-35 35-35l346 0c20 0 35 15 35 35l0 346c0 19-15 35-35 35l-346 0c-19 0-35-16-35-35z m89-297c-13-2-24 9-22 23 1 8 8 16 17 17 13 1 24-10 23-23-2-9-9-16-18-17z m0 104c-13-2-24 9-22 23 1 8 8 16 17 17 13 1 24-10 23-23-2-9-9-16-18-17z m0 104c-13-2-24 9-22 23 1 8 8 16 17 17 13 1 24-10 23-23-2-9-9-16-18-17z m248-202l-180 0c-8 0-14 6-14 14 0 8 6 14 14 14l180 0c7 0 14-6 14-14 0-8-7-14-14-14z m0 104l-180 0c-8 0-14 6-14 14 0 8 6 14 14 14l180 0c7 0 14-6 14-14 0-8-7-14-14-14z m0 104l-180 0c-8 0-14 6-14 14 0 8 6 14 14 14l180 0c7 0 14-6 14-14 0-8-7-14-14-14z"/>
<glyph glyph-name="ios-locate" unicode="&#57426;" d="M395 253c0 1 0 2 0 4 0 0 2 1 3 2 0-9-1-2-1-3 1-1 3-2 6-3z m64-11l-50 0c-7 0-12 5-14 11 0 1 0 2 0 3 0 1 0 2 6 3 1 6 7 11 14 11l50 0c2 0 4 2 4 4-9 101-89 181-189 189-2 1-5-1-5-4l0-50c0-8-6-14-14-14-8 0-14 7-14 14l0 50c0 3-2 5-4 4-100-8-180-88-189-189 0-2 2-4 4-4l45 0c8 0 14-7 14-15 0-7-7-13-14-13l-50 0c-3 0-5-2-4-4 8-101 88-181 189-189 2-2 4 1 4 4l0 50c0 8 7 14 15 14 7-3 13-7 13-14l0-50c0-3 2-5 4-4 101 8 181 88 189 189 0 2-1 4-4 4z m-203-56c-39 0-70 31-70 70 0 39 31 70 70 70 39 0 70-31 70-70 0-39-31-70-70-70z"/>
<glyph glyph-name="ios-lock" unicode="&#57427;" d="M376 320l-24 0 0 47c0 52-42 96-95 97-53 1-97-43-97-96l0-48-24 0c-22 0-40-18-40-40l0-192c0-22 18-40 40-40l240 0c22 0 40 18 40 40l0 192c0 22-18 40-40 40z m-106-125l0-69c0-7-6-14-13-14-8 0-15 6-15 14l0 69c-11 6-19 18-18 32 2 15 14 28 30 29 18 1 34-14 34-32 0-13-7-24-18-29z m54 125l-136 0 0 48c0 18 7 35 20 48 13 13 30 20 48 20 18 0 35-7 48-20 13-13 20-30 20-48z"/>
<glyph glyph-name="ios-log-in" unicode="&#57428;" d="M417 432l-280 0c-25 0-46-21-46-46 0-8 6-14 14-14 8 0 14 6 14 14 0 10 8 18 18 18l280 0c10 0 18-8 18-18l0-260c0-10-8-18-18-18l-280 0c-10 0-18 8-18 18 0 8-6 14-14 14-8 0-14-6-14-14 0-25 21-46 46-46l280 0c25 0 46 21 46 46l0 260c0 25-21 46-46 46z m-193-254c-5-6-5-15 0-20l0-1c3-3 6-4 10-4 4 0 7 1 10 4l82 83c5 4 7 9 7 14 0 6-2 11-7 15l-84 84c-3 3-6 4-10 4-4 0-7-1-10-4-5-5-5-14 0-20l65-64-224 0c-8 0-14-6-14-14 0-8 6-14 14-14l225 0z"/>
<glyph glyph-name="ios-log-out" unicode="&#57429;" d="M312 140c-8 0-14-6-14-14 0-10-8-18-18-18l-186 0c-10 0-18 8-18 18l0 260c0 10 8 18 18 18l186 0c10 0 18-8 18-18 0-8 6-14 14-14 8 0 14 6 14 14 0 25-21 46-46 46l-186 0c-25 0-46-21-46-46l0-260c0-25 21-46 46-46l186 0c25 0 46 21 46 46 0 8-6 14-14 14z m61 214c-3 2-6 4-10 4-4 0-7-1-10-4-5-6-5-14 0-20l65-64-256 0c-8 0-14-6-14-14 0-8 6-14 14-14l257 0-64-64c-5-6-5-15 0-20l0-1c3-3 6-4 10-4 4 0 7 1 10 4l82 83c5 4 7 9 7 14 0 6-2 11-7 15l-84 84z"/>
<glyph glyph-name="ios-magnet" unicode="&#57430;" d="M462 250l-172 173c-27 26-63 41-100 41-38 0-74-15-101-41-26-27-41-63-41-101 0-38 15-73 41-100l173-172c1-1 3-2 4-2 2 0 3 1 5 2l57 57c2 3 2 6 0 9l-163 163c-13 13-21 27-23 41-1 14 3 26 13 37 10 10 23 14 36 12 15-1 30-9 42-22l163-163c3-2 6-2 9 0l57 57c3 3 3 7 0 9z m-186-118l20-20-30-30-20 20z m124 84l-20 20 30 30 20-20z"/>
<glyph glyph-name="ios-mail" unicode="&#57431;" d="M461 365l-108-110c-1-8-1-2 0-3l75-80c5-5 5-13 0-18-2-3-6-4-9-4-3 0-7 1-9 4l-75 80c-1 0-2 0-3 0l-18-19c-16-16-36-24-58-24-22-1-43 9-58 25l-18 18c-1 0-2 0-3 0l-75-80c-2-3-6-4-9-4-3 0-7 1-9 4-5 5-5 13 0 18l75 80c-1 1 7 2 0 3l-108 110c-1 1-3 0-3-2l0-219c0-18 14-32 32-32l352 0c18 0 32 14 32 32l0 219c0 2-2 3-3 2z m-205-148c15 0 29 6 39 16l157 160c-5 4-12 7-20 7l-352 0c-8 0-14-3-20-7l157-160c10-10 24-16 39-16z"/>
<glyph glyph-name="ios-mail-open" unicode="&#57432;" d="M454 302c-4 4-159 162-159 162-10 10-24 16-39 16-15 0-29-6-39-17 0 0-154-156-158-161-5-5-11-15-11-26l0-212c0-18 14-32 32-32l352 0c18 0 32 14 32 32l0 213c0 12-7 21-10 25z m-20-42l-81-85c-1-8-1-2 0-3l75-80c5-5 5-13 0-18-2-3-6-4-9-4-3 0-7 1-9 4l-151 161c-2 2-4 2-6 0l-151-161c-2-3-6-4-9-4-3 0-7 1-9 4-5 5-5 13 0 18l75 80c-1 1 7 2 0 3l-81 85c-10 10-3 36 16 36l324 0c17 0 26-26 16-36z"/>
<glyph glyph-name="ios-mail-unread" unicode="&#57433;" d="M464 360c0-27-21-48-48-48-27 0-48 21-48 48 0 27 21 48 48 48 27 0 48-21 48-48z m-48-67c-5 0-11 1-16 2l-47-48c-1-8-1-2 0-3l75-80c5-5 5-13 0-18-2-3-6-4-9-4-3 0-7 1-9 4l-75 80c-1 0-2 0-3 0l-18-19c-16-16-36-24-58-24-22-1-43 9-58 25l-18 18c-1 0-2 0-3 0l-75-80c-2-3-6-4-9-4-3 0-7 1-9 4-5 5-5 13 0 18l75 80c-1 1 7 2 0 3l-108 110c-1 1-3 0-3-2l0-219c0-18 14-32 32-32l352 0c18 0 32 14 32 32l0 178c-12-13-29-21-48-21z m-66 67c0 12 3 22 8 32l-278 0c-8 0-14-3-20-7l157-160c10-10 24-16 39-16 15 0 29 6 39 16l81 82c-16 12-26 31-26 53z"/>
<glyph glyph-name="ios-male" unicode="&#57434;" d="M450 464l-108 0c-8 0-14-6-14-14 0-7 6-13 14-13l75 0-90-91c-31 26-70 40-110 40-23 0-45-4-66-13-20-9-38-21-53-36-16-16-28-34-37-54-8-21-13-43-13-66 0-23 5-45 13-66 9-20 21-38 37-54 15-15 33-27 53-36 21-9 43-13 66-13 23 0 45 4 66 13 20 9 38 21 54 36 15 16 27 34 36 54 9 21 13 43 13 66 0 40-14 79-40 110l91 90 0-75c0-8 6-14 13-14 8 0 14 6 14 14l0 108c0 8-6 14-14 14z m-91-247c0-38-15-73-42-100-26-27-62-42-100-42-38 0-73 15-100 42-27 27-42 62-42 100 0 38 15 74 42 100 27 27 62 42 100 42 38 0 74-15 100-42 27-26 42-62 42-100z"/>
<glyph glyph-name="ios-man" unicode="&#57435;" d="M256 405l0 0c-25 0-46 21-46 46 0 25 20 45 46 45 25 0 45-20 45-45 0-12-5-24-13-32-9-9-20-14-32-14z m-35-389c-14 0-27 10-27 30l1 278-10 0 0-105c0-9-3-15-6-18-4-4-9-7-15-7-7 0-11 3-16 7-3 3-6 9-6 18l0 122c0 13 4 27 14 38 10 12 23 18 39 18l122 0c16 0 29-6 39-18 10-11 14-25 14-38l0-122c0-7-2-14-7-18-4-4-9-7-15-7-6 0-11 3-16 7-5 4-6 11-6 18l0 105-9 0 0-278c0-19-14-30-28-30-13 0-26 9-27 30l0 141-12 0 0-141c-1-20-14-30-29-30z"/>
<glyph glyph-name="ios-map" unicode="&#57436;" d="M64 439l0-316c0-3 1-5 4-7l69-50c6-4 12 0 12 7l0 316c0 3-1 6-3 7l-70 51c-5 3-12-3-12-8z m105-50l0-317c0-6 7-10 12-7l62 37c2 2 3 4 3 7l0 316c0 7-7 11-12 7l-62-36c-2-2-3-4-3-7z m267 57l-70-50c-2-2-3-4-3-7l0-316c0-7 7-11 12-7l70 50c2 2 3 4 3 7l0 316c0 7-7 11-12 7z m-170-20l0-316c0-3 1-5 3-7l62-37c5-4 12 0 12 7l0 316c0 3-1 6-3 7l-62 37c-5 4-12-3-12-7z"/>
<glyph glyph-name="ios-medal" unicode="&#57437;" d="M50 388c-1 0-2 1-2-2l0-60c0-14 10-27 23-31l104-29c2-4 3 0 3 2l0 118c0 1-1 2-2 2z m154-2l0-126c0-1 6-2 2-2l50-14c0-2 1-1 0-1l56 15c-1 1 1 1 1 2l0 126c0 1-1 2-2 2l-105 0c-1 0-2 1-2-2z m130 0l0-119c0-2 1-3 3-2l104 30c13 4 23 17 23 31l0 60c0 1-1 2-2 2l-126 0c-1 0-2 1-2-2z m-286 62l0-38c0-1 9-2 2-2l412 0c1 0 2 1 2 2l0 38c0 18-14 32-32 32l-352 0c-18 0-32-14-32-32z m264-288c0-31-25-56-56-56-31 0-56 25-56 56 0 31 25 56 56 56 31 0 56-25 56-56z m39 85l-51-13c24-15 40-42 40-72 0-46-38-84-84-84-46 0-84 38-84 84 0 30 16 57 40 72l-51 14c-20-23-33-53-33-86 0-71 57-128 128-128 71 0 128 57 128 128 0 33-12 63-33 85z m-95-29c31 0 56-25 56-56 0-31-25-56-56-56-31 0-56 25-56 56 0 31 25 56 56 56z"/>
<glyph glyph-name="ios-medical" unicode="&#57438;" d="M430 338l-16 28c-4 8-14 10-21 6l-99-57c-3-2-6 0-6 3l0 114c0 9-7 16-15 16l-33 0c-9 0-16-7-16-16l0-114c0-3-3-5-6-3l-99 57c-7 4-16 2-21-6l-16-28c-5-8-2-17 5-22l99-57c3-1 3-5 0-7l-99-57c-7-4-9-13-5-21l16-28c5-8 14-10 21-6l99 57c3 1 6 0 6-4l0-114c0-8 7-15 16-15l33 0c8 0 15 7 15 15l0 115c0 3 3 5 6 3l99-57c7-4 17-2 21 6l16 28c5 8 2 17-5 21l-99 58c-3 1-3 5 0 6l99 58c7 4 10 13 5 21z"/>
<glyph glyph-name="ios-medkit" unicode="&#57439;" d="M432 384l-84 0 0 32c0 18-14 32-32 32l-120 0c-18 0-32-14-32-32l0-32-84 0c-18 0-32-14-32-32l0-256c0-18 14-32 32-32l352 0c18 0 32 14 32 32l0 256c0 18-14 32-32 32z m-240 28c0 4 4 8 8 8l112 0c4 0 8-4 8-8l0-28-128 0z m128-204l-48 0 0-48c0-9-7-16-16-16-9 0-16 7-16 16l0 48-48 0c-9 0-16 7-16 16 0 9 7 16 16 16l48 0 0 48c0 9 7 16 16 16 9 0 16-7 16-16l0-48 48 0c9 0 16-7 16-16 0-9-7-16-16-16z"/>
</font>
</defs>
</svg>
