<?xml version="1.0" standalone="no"?>
<!DOCTYPE svg PUBLIC "-//W3C//DTD SVG 20010904//EN"
 "http://www.w3.org/TR/2001/REC-SVG-20010904/DTD/svg10.dtd">
<svg version="1.0" xmlns="http://www.w3.org/2000/svg"
 width="500.000000pt" height="500.000000pt" viewBox="0 0 500.000000 500.000000"
 preserveAspectRatio="xMidYMid meet">
<metadata>
Created by potrace 1.11, written by Peter Selinger 2001-2013
</metadata>
<g transform="translate(0.000000,500.000000) scale(0.100000,-0.100000)"
fill="#000000" stroke="none">
<path d="M1701 4076 c-53 -29 -66 -98 -27 -143 23 -26 31 -28 118 -33 l93 -5
118 -202 118 -203 -118 -202 -118 -203 -286 -5 c-218 -4 -290 -8 -302 -18 -29
-25 -327 -550 -327 -577 0 -36 305 -561 338 -583 22 -15 66 -18 305 -22 l278
-5 275 -475 c151 -261 286 -485 300 -497 33 -30 85 -30 118 -1 14 13 149 237
300 498 l275 475 278 5 c239 4 283 7 305 22 33 22 338 547 338 583 0 36 -305
561 -339 583 -22 15 -64 17 -303 20 l-277 3 -116 200 -116 200 97 167 c53 92
107 184 120 205 l24 37 86 0 c81 0 87 1 115 29 17 18 29 40 29 56 0 38 -27 84
-56 95 -40 15 -254 12 -284 -4 -15 -9 -74 -99 -160 -248 l-136 -233 -239 0
-239 0 -136 233 c-86 149 -145 239 -160 248 -34 18 -255 19 -289 0z m1184
-888 l118 -202 -27 -51 c-14 -27 -66 -117 -114 -200 l-88 -150 -239 -3 -240
-2 -114 196 c-63 109 -114 202 -114 208 0 9 175 315 219 384 14 22 17 22 248
22 l234 0 117 -202z m-878 -507 c62 -107 113 -199 113 -205 0 -6 -52 -99 -114
-206 l-114 -195 -238 0 -238 0 -117 200 -117 200 32 55 c17 31 69 122 116 203
l85 147 240 -3 239 -2 113 -194z m1713 52 c47 -81 99 -172 116 -203 l32 -55
-117 -200 -117 -200 -238 0 -238 0 -114 195 c-62 107 -114 200 -114 206 0 9
168 307 216 382 14 22 17 22 252 22 l237 0 85 -147z m-836 -553 c64 -110 116
-204 116 -209 0 -6 -454 -796 -465 -809 -4 -5 -468 800 -468 812 0 9 172 310
219 384 14 22 17 22 248 22 l234 0 116 -200z"/>
</g>
</svg>
