<?xml version="1.0" encoding="utf-8"?>
<!-- Generator: Adobe Illustrator 24.0.2, SVG Export Plug-In . SVG Version: 6.00 Build 0)  -->
<svg version="1.1" id="Layer_1" xmlns="http://www.w3.org/2000/svg" xmlns:xlink="http://www.w3.org/1999/xlink" x="0px" y="0px"
	 viewBox="0 0 30 30" style="enable-background:new 0 0 30 30;" xml:space="preserve">
<style type="text/css">
	.st0{opacity:0;fill:#FFFFFF;}
	.st1{fill:#3099f1;}
</style>
<g>
	<rect class="st0" width="30" height="30"/>
	<g>
		<g>
			<g>
				<path class="st1" d="M10.08,10.09c-0.21,0-0.38,0.17-0.38,0.38s0.17,0.38,0.38,0.38c0.21,0,0.38-0.17,0.38-0.38
					S10.29,10.09,10.08,10.09z"/>
			</g>
		</g>
		<g>
			<g>
				<path class="st1" d="M13.48,17.15h-1.13v-1.13c0-0.21-0.17-0.38-0.38-0.38s-0.38,0.17-0.38,0.38v1.13h-1.13
					c-0.21,0-0.38,0.17-0.38,0.38s0.17,0.38,0.38,0.38h1.13v1.13c0,0.21,0.17,0.38,0.38,0.38s0.38-0.17,0.38-0.38v-1.13h1.13
					c0.21,0,0.38-0.17,0.38-0.38C13.86,17.32,13.69,17.15,13.48,17.15z"/>
			</g>
		</g>
		<g>
			<g>
				<path class="st1" d="M23.67,17.49c-0.83-1.45-2.68-1.94-4.13-1.11l-1.53,0.89v-3.28c0-0.41-0.13-0.81-0.38-1.13l-1.89-2.52V9.27
					C16.18,9.12,16.5,8.7,16.5,8.2V6.47c0-0.62-0.51-1.13-1.13-1.13H8.57c-0.62,0-1.13,0.51-1.13,1.13V8.2
					c0,0.49,0.32,0.91,0.75,1.07v1.07l-1.89,2.52c-0.24,0.32-0.38,0.73-0.38,1.13v7.31c0,1.04,0.85,1.89,1.89,1.89h6.07
					c0.85,1.42,2.67,1.89,4.1,1.07l4.58-2.64C23.99,20.79,24.51,18.94,23.67,17.49z M8.19,6.47c0-0.21,0.17-0.38,0.38-0.38h6.79
					c0.21,0,0.38,0.17,0.38,0.38V8.2c0,0.21-0.17,0.38-0.38,0.38H8.57c-0.21,0-0.38-0.17-0.38-0.38L8.19,6.47L8.19,6.47z
					 M6.91,13.31l1.96-2.62c0.05-0.07,0.08-0.14,0.08-0.23V9.34h6.04v0.75h-3.4c-0.21,0-0.38,0.17-0.38,0.38s0.17,0.38,0.38,0.38
					h3.59l1.85,2.47c0.12,0.16,0.2,0.35,0.22,0.55H6.69C6.71,13.67,6.79,13.47,6.91,13.31z M7.82,22.44c-0.62,0-1.13-0.51-1.13-1.13
					v-0.38h6.86c-0.12,0.49-0.12,1.01,0.02,1.51L7.82,22.44L7.82,22.44z M13.84,20.17H6.68v-5.55h10.57v3.08l-2.29,1.32
					C14.49,19.3,14.1,19.7,13.84,20.17z M17.61,23.6c-1.08,0.63-2.47,0.26-3.09-0.83c-0.63-1.09-0.25-2.47,0.83-3.09l2.05-1.18
					l2.26,3.92L17.61,23.6z M22.18,20.96l-1.87,1.08l-2.26-3.92l1.87-1.08c1.08-0.63,2.47-0.26,3.09,0.83
					C23.64,18.96,23.26,20.34,22.18,20.96z"/>
			</g>
		</g>
	</g>
</g>
</svg>
