<?xml version="1.0" encoding="utf-8"?>
<!-- Generator: Adobe Illustrator 24.0.2, SVG Export Plug-In . SVG Version: 6.00 Build 0)  -->
<svg version="1.1" id="Layer_1" xmlns="http://www.w3.org/2000/svg" xmlns:xlink="http://www.w3.org/1999/xlink" x="0px" y="0px"
	 viewBox="0 0 30 30" style="enable-background:new 0 0 30 30;" xml:space="preserve">
<style type="text/css">
	.st0{opacity:0;fill:#FFFFFF;}
	.st1{fill:#3099f1;}
</style>
<g>
	<rect class="st0" width="30" height="30"/>
	<path class="st1" d="M9.03,16.55c-0.34-0.16-0.72-0.26-1.12-0.26c-1.42,0-2.58,1.16-2.58,2.58c0,1.42,1.16,2.58,2.58,2.58
		c0.89,0,1.68-0.46,2.14-1.15l2.43,1.22c-0.04,0.18-0.07,0.37-0.07,0.57c0,1.42,1.16,2.58,2.58,2.58s2.58-1.16,2.58-2.58
		c0-0.53-0.16-1.03-0.44-1.44l3.42-3.58c0.43,0.32,0.96,0.51,1.53,0.51c1.42,0,2.58-1.16,2.58-2.58s-1.16-2.58-2.58-2.58
		c-0.59,0-1.14,0.2-1.58,0.54l-3.48-3.48c0.34-0.44,0.54-0.98,0.54-1.58c0-1.42-1.16-2.58-2.58-2.58s-2.58,1.16-2.58,2.58
		c0,0.2,0.02,0.39,0.07,0.57L10.2,9.32c-0.43-0.83-1.29-1.4-2.29-1.4c-1.42,0-2.58,1.16-2.58,2.58s1.16,2.58,2.58,2.58
		c0.37,0,0.71-0.08,1.03-0.22l1.19,2L9.03,16.55z M7.91,20.8c-1.07,0-1.93-0.87-1.93-1.93s0.87-1.93,1.93-1.93s1.93,0.87,1.93,1.93
		S8.98,20.8,7.91,20.8z M10.34,19.72c0.09-0.27,0.15-0.55,0.15-0.85c0-0.79-0.36-1.5-0.92-1.97l0.93-1.43l2.79,4.7
		c-0.24,0.21-0.43,0.46-0.58,0.74L10.34,19.72z M15,10.49c0.59,0,1.14-0.2,1.58-0.54l3.48,3.48c-0.21,0.27-0.36,0.58-0.45,0.91
		l-2.02-0.28c0-0.01,0-0.02,0-0.03c0-1.42-1.16-2.58-2.58-2.58c-0.89,0-1.68,0.46-2.14,1.15l-0.38-0.19l1.41-2.18
		C14.22,10.4,14.6,10.49,15,10.49L15,10.49z M15.32,19.53v-2.94c1.05-0.13,1.9-0.89,2.17-1.89l2.02,0.28c0,0.01,0,0.02,0,0.03
		c0,0.62,0.22,1.18,0.58,1.62l-3.38,3.54C16.33,19.82,15.85,19.6,15.32,19.53z M15,12.1c1.07,0,1.93,0.87,1.93,1.93
		s-0.87,1.93-1.93,1.93s-1.93-0.87-1.93-1.93S13.93,12.1,15,12.1z M12.57,13.18c-0.09,0.27-0.15,0.55-0.15,0.85
		c0,1.31,0.99,2.4,2.25,2.55v2.94c-0.31,0.04-0.59,0.13-0.86,0.27l-2.93-4.94l1.23-1.91L12.57,13.18z M15,24.02
		c-1.07,0-1.93-0.87-1.93-1.93s0.87-1.93,1.93-1.93s1.93,0.87,1.93,1.93S16.07,24.02,15,24.02z M22.09,13.07
		c1.07,0,1.93,0.87,1.93,1.93s-0.87,1.93-1.93,1.93s-1.93-0.87-1.93-1.93S21.02,13.07,22.09,13.07z M15,5.98
		c1.07,0,1.93,0.87,1.93,1.93S16.07,9.85,15,9.85s-1.93-0.87-1.93-1.93S13.93,5.98,15,5.98z M12.71,9.09
		c0.16,0.31,0.37,0.58,0.63,0.8l-1.45,2.24l-1.55-0.78c0.09-0.27,0.15-0.55,0.15-0.85c0-0.2-0.02-0.39-0.07-0.57L12.71,9.09z
		 M5.98,10.49c0-1.07,0.87-1.93,1.93-1.93s1.93,0.87,1.93,1.93s-0.87,1.93-1.93,1.93S5.98,11.56,5.98,10.49z M9.5,12.52
		c0.22-0.17,0.41-0.37,0.56-0.6l1.49,0.74l-1.02,1.58L9.5,12.52z"/>
</g>
</svg>
