<?xml version="1.0" encoding="utf-8"?>
<!-- Generator: Adobe Illustrator 24.0.2, SVG Export Plug-In . SVG Version: 6.00 Build 0)  -->
<svg version="1.1" id="Layer_1" xmlns="http://www.w3.org/2000/svg" xmlns:xlink="http://www.w3.org/1999/xlink" x="0px" y="0px"
	 viewBox="0 0 30 30" style="enable-background:new 0 0 30 30;" xml:space="preserve">
<style type="text/css">
	.st0{opacity:0;fill:#FFFFFF;}
	.st1{fill:#3099f1;}
</style>
<g>
	<rect class="st0" width="30" height="30"/>
	<g>
		<path class="st1" d="M21.52,7.58c-0.5-0.27-3.63-1.96-5.35-3.03C15.87,4.24,15.46,4.04,15,4.04s-0.87,0.2-1.17,0.51
			c-1.72,1.08-4.85,2.76-5.35,3.03H5.34v15.78h19.33V7.58H21.52z M15.72,5.01C15.72,5.01,15.72,5.01,15.72,5.01
			c0.08,0.09,0.17,0.23,0.21,0.4c0,0.01,0.01,0.03,0.01,0.04c0.01,0.06,0.02,0.13,0.02,0.2c0,0.53-0.43,0.97-0.97,0.97
			s-0.97-0.43-0.97-0.97c0-0.07,0.01-0.14,0.02-0.2c0-0.01,0.01-0.03,0.01-0.04c0.05-0.17,0.13-0.3,0.21-0.39c0,0,0,0,0-0.01
			c0.18-0.2,0.43-0.32,0.72-0.32S15.54,4.81,15.72,5.01z M13.39,5.57c0,0.03,0,0.05,0,0.08c0,0.89,0.72,1.61,1.61,1.61
			s1.61-0.72,1.61-1.61c0-0.03,0-0.05,0-0.08c1.16,0.69,2.59,1.48,3.56,2.01H9.83C10.8,7.05,12.23,6.26,13.39,5.57z M8.56,8.23
			h12.89h2.58v1.61H5.98V8.23H8.56z M5.98,22.72V10.48h18.04v12.24H5.98z"/>
		<circle class="st1" cx="12.75" cy="13.06" r="0.32"/>
		<circle class="st1" cx="15" cy="13.06" r="0.32"/>
		<circle class="st1" cx="17.25" cy="13.06" r="0.32"/>
		<circle class="st1" cx="19.51" cy="13.06" r="0.32"/>
		<circle class="st1" cx="21.76" cy="13.06" r="0.32"/>
		<circle class="st1" cx="8.24" cy="15.64" r="0.32"/>
		<circle class="st1" cx="10.49" cy="15.64" r="0.32"/>
		<circle class="st1" cx="12.75" cy="15.64" r="0.32"/>
		<circle class="st1" cx="15" cy="15.64" r="0.32"/>
		<circle class="st1" cx="17.25" cy="15.64" r="0.32"/>
		<circle class="st1" cx="19.51" cy="15.64" r="0.32"/>
		<circle class="st1" cx="21.76" cy="15.64" r="0.32"/>
		<circle class="st1" cx="8.24" cy="17.89" r="0.32"/>
		<circle class="st1" cx="10.49" cy="17.89" r="0.32"/>
		<circle class="st1" cx="12.75" cy="17.89" r="0.32"/>
		<circle class="st1" cx="15" cy="17.89" r="0.32"/>
		<circle class="st1" cx="17.25" cy="17.89" r="0.32"/>
		<circle class="st1" cx="19.51" cy="17.89" r="0.32"/>
		<circle class="st1" cx="21.76" cy="17.89" r="0.32"/>
		<circle class="st1" cx="8.24" cy="20.47" r="0.32"/>
		<circle class="st1" cx="10.49" cy="20.47" r="0.32"/>
		<circle class="st1" cx="12.75" cy="20.47" r="0.32"/>
		<circle class="st1" cx="15" cy="20.47" r="0.32"/>
		<circle class="st1" cx="17.25" cy="20.47" r="0.32"/>
	</g>
</g>
</svg>
