<?xml version="1.0" encoding="utf-8"?>
<!-- Generator: Adobe Illustrator 24.0.2, SVG Export Plug-In . SVG Version: 6.00 Build 0)  -->
<svg version="1.1" id="Layer_1" xmlns="http://www.w3.org/2000/svg" xmlns:xlink="http://www.w3.org/1999/xlink" x="0px" y="0px"
	 viewBox="0 0 450 300" style="enable-background:new 0 0 450 300;" xml:space="preserve">
<style type="text/css">
	.st0{fill-rule:evenodd;clip-rule:evenodd;fill:#E2E8F5;}
	.st1{fill-rule:evenodd;clip-rule:evenodd;fill:#BFCCE8;}
	.st2{fill-rule:evenodd;clip-rule:evenodd;fill:#90A9D5;}
	.st3{fill-rule:evenodd;clip-rule:evenodd;fill:#B6C7E6;}
	.st4{fill-rule:evenodd;clip-rule:evenodd;fill:#E6E4EB;}
	.st5{fill-rule:evenodd;clip-rule:evenodd;fill:#0F1630;stroke:#0E1632;stroke-width:0.1488;stroke-miterlimit:22.9256;}
	.st6{fill-rule:evenodd;clip-rule:evenodd;fill:#CEC9D0;}
	.st7{fill-rule:evenodd;clip-rule:evenodd;fill:#FFFFFF;}
	.st8{fill-rule:evenodd;clip-rule:evenodd;fill:#E8685B;}
	.st9{fill-rule:evenodd;clip-rule:evenodd;fill:#0F1630;}
	.st10{fill-rule:evenodd;clip-rule:evenodd;fill:#3D4155;}
	.st11{fill-rule:evenodd;clip-rule:evenodd;fill:#545A6C;}
	.st12{fill-rule:evenodd;clip-rule:evenodd;fill:#F4AD85;}
	.st13{fill-rule:evenodd;clip-rule:evenodd;fill:#ED9072;}
	.st14{fill-rule:evenodd;clip-rule:evenodd;fill:#0E1632;}
	.st15{fill-rule:evenodd;clip-rule:evenodd;fill:#010518;}
	.st16{fill-rule:evenodd;clip-rule:evenodd;fill:#05304B;}
	.st17{fill-rule:evenodd;clip-rule:evenodd;fill:#0076BD;}
	.st18{fill-rule:evenodd;clip-rule:evenodd;fill:#171C3A;}
	.st19{fill-rule:evenodd;clip-rule:evenodd;fill:#C9C4D1;}
	.st20{fill-rule:evenodd;clip-rule:evenodd;fill:#1C2344;}
	.st21{fill-rule:evenodd;clip-rule:evenodd;fill:#101937;}
	.st22{fill-rule:evenodd;clip-rule:evenodd;fill:#383D5D;}
	.st23{fill-rule:evenodd;clip-rule:evenodd;fill:#01020E;}
	.st24{fill-rule:evenodd;clip-rule:evenodd;fill:#E2E1E7;}
	.st25{fill-rule:evenodd;clip-rule:evenodd;fill:#B92F6D;}
	.st26{fill-rule:evenodd;clip-rule:evenodd;fill:#E74D91;}
	.st27{fill-rule:evenodd;clip-rule:evenodd;fill:#ACABBB;}
	.st28{fill-rule:evenodd;clip-rule:evenodd;fill:#DFF0F2;}
	.st29{fill-rule:evenodd;clip-rule:evenodd;fill:#004A82;}
	.st30{fill-rule:evenodd;clip-rule:evenodd;fill:#A8A6B5;}
	.st31{fill-rule:evenodd;clip-rule:evenodd;fill:#96929F;}
	.st32{fill-rule:evenodd;clip-rule:evenodd;fill:#F0EEF0;}
	.st33{fill-rule:evenodd;clip-rule:evenodd;fill:#D2CED6;}
	.st34{fill-rule:evenodd;clip-rule:evenodd;fill:#484E6A;}
	.st35{fill-rule:evenodd;clip-rule:evenodd;fill:#1A293D;}
	.st36{fill:#E4EBF7;}
	.st37{fill:#FFFFFF;}
	.st38{fill:#98B2D8;}
	.st39{fill:#B1C3E8;}
	.st40{fill:#B7CAE5;}
	.st41{fill:#97B3D1;}
	.st42{fill:#CED9EA;}
	.st43{fill:#B6C5DD;}
	.st44{fill:#5D7CA0;}
	.st45{fill:#799CBF;}
	.st46{fill:#F2F4F9;}
	.st47{fill:#C1CFE5;}
	.st48{fill:url(#SVGID_1_);}
	.st49{opacity:0.22;fill:#1F395E;}
	.st50{fill:url(#SVGID_2_);}
	.st51{fill:url(#SVGID_3_);}
	.st52{fill:#1F395E;}
	.st53{fill:url(#SVGID_4_);}
	.st54{fill:#3150BC;}
	.st55{fill:#FEB19E;}
	.st56{fill:#FF856A;}
	.st57{fill:url(#SVGID_5_);}
	.st58{fill:#FFFFFF;stroke:#0F22D3;stroke-width:1.1335;stroke-miterlimit:10;}
	.st59{opacity:0.6;fill:#9ABCED;}
	.st60{fill:#9ABCED;}
	.st61{fill:#C1C8D3;}
	.st62{fill:url(#SVGID_6_);}
	.st63{fill:url(#SVGID_7_);}
	.st64{fill:#4F7EB7;}
	.st65{opacity:0.71;fill:#7CA6D8;}
	.st66{fill:#EA9BA1;}
	.st67{opacity:0.5;}
	.st68{fill:#7CA6D8;}
	.st69{fill:#E83F54;}
	.st70{opacity:0.5;fill:#9ABCED;}
	.st71{fill-rule:evenodd;clip-rule:evenodd;fill:#E1E8F6;}
	.st72{fill-rule:evenodd;clip-rule:evenodd;fill:#C0CDEA;}
	.st73{fill-rule:evenodd;clip-rule:evenodd;fill:#00000F;}
	.st74{fill-rule:evenodd;clip-rule:evenodd;fill:#626687;}
	.st75{fill-rule:evenodd;clip-rule:evenodd;fill:#101537;}
	.st76{fill-rule:evenodd;clip-rule:evenodd;fill:#C7CAE0;}
	.st77{fill-rule:evenodd;clip-rule:evenodd;fill:#BEC4DC;}
	.st78{fill-rule:evenodd;clip-rule:evenodd;fill:#B5B9D1;}
	.st79{fill-rule:evenodd;clip-rule:evenodd;fill:#CCD3E5;}
	.st80{fill-rule:evenodd;clip-rule:evenodd;fill:#BABFD6;}
	.st81{fill-rule:evenodd;clip-rule:evenodd;fill:#B0B7CF;}
	.st82{fill-rule:evenodd;clip-rule:evenodd;fill:#B0B7CE;}
	.st83{fill-rule:evenodd;clip-rule:evenodd;fill:#DBE1F1;}
	.st84{fill-rule:evenodd;clip-rule:evenodd;fill:#D6DCEA;}
	.st85{fill-rule:evenodd;clip-rule:evenodd;fill:#C7CADE;}
	.st86{fill-rule:evenodd;clip-rule:evenodd;fill:#C7CADB;}
	.st87{fill-rule:evenodd;clip-rule:evenodd;fill:#BDC1D5;}
	.st88{fill-rule:evenodd;clip-rule:evenodd;fill:#B5BED8;}
	.st89{fill-rule:evenodd;clip-rule:evenodd;fill:#CED2E1;}
	.st90{fill-rule:evenodd;clip-rule:evenodd;fill:#B6B7CB;}
	.st91{fill-rule:evenodd;clip-rule:evenodd;fill:#AAAEC3;}
	.st92{fill-rule:evenodd;clip-rule:evenodd;fill:#EAEEF4;}
	.st93{fill-rule:evenodd;clip-rule:evenodd;fill:#EC6957;}
	.st94{fill-rule:evenodd;clip-rule:evenodd;fill:#D84743;}
	.st95{fill-rule:evenodd;clip-rule:evenodd;fill:#EE9073;}
	.st96{fill-rule:evenodd;clip-rule:evenodd;fill:#DBD7D7;}
	.st97{fill-rule:evenodd;clip-rule:evenodd;fill:#3B405F;}
	.st98{fill-rule:evenodd;clip-rule:evenodd;fill:#E27E67;}
	.st99{fill-rule:evenodd;clip-rule:evenodd;fill:#F5AC83;}
	.st100{fill-rule:evenodd;clip-rule:evenodd;fill:#F6F5F4;}
	.st101{fill-rule:evenodd;clip-rule:evenodd;fill:#080321;}
	.st102{fill-rule:evenodd;clip-rule:evenodd;fill:#DBE2F3;}
	.st103{fill-rule:evenodd;clip-rule:evenodd;fill:#EAEEF8;}
	.st104{fill-rule:evenodd;clip-rule:evenodd;fill:#003053;}
	.st105{fill-rule:evenodd;clip-rule:evenodd;fill:#1874BA;}
	.st106{fill-rule:evenodd;clip-rule:evenodd;fill:#B83470;}
	.st107{fill-rule:evenodd;clip-rule:evenodd;fill:#E13C83;}
	.st108{fill-rule:evenodd;clip-rule:evenodd;fill:#E94D90;}
	.st109{fill-rule:evenodd;clip-rule:evenodd;fill:#EE788F;}
	.st110{fill-rule:evenodd;clip-rule:evenodd;fill:#F5C8B4;}
	.st111{fill-rule:evenodd;clip-rule:evenodd;fill:#F4BCA3;}
	.st112{fill-rule:evenodd;clip-rule:evenodd;fill:#E0E7F5;}
	.st113{fill-rule:evenodd;clip-rule:evenodd;fill:#9EB1D8;}
	.st114{fill-rule:evenodd;clip-rule:evenodd;fill:#C8D2EB;}
	.st115{fill-rule:evenodd;clip-rule:evenodd;fill:#B0C0E3;}
	.st116{fill-rule:evenodd;clip-rule:evenodd;fill:#BCC9E7;}
	.st117{fill-rule:evenodd;clip-rule:evenodd;fill:#B3C4E5;}
	.st118{fill-rule:evenodd;clip-rule:evenodd;fill:#EAF1F2;}
	.st119{fill-rule:evenodd;clip-rule:evenodd;fill:#BFCCE9;}
	.st120{fill-rule:evenodd;clip-rule:evenodd;fill:#141A33;}
	.st121{fill-rule:evenodd;clip-rule:evenodd;fill:#0E173F;}
	.st122{fill-rule:evenodd;clip-rule:evenodd;fill:#030822;}
	.st123{fill-rule:evenodd;clip-rule:evenodd;fill:#E03C82;}
	.st124{fill-rule:evenodd;clip-rule:evenodd;fill:#B73470;}
	.st125{fill-rule:evenodd;clip-rule:evenodd;fill:#2C3049;}
	.st126{fill-rule:evenodd;clip-rule:evenodd;fill:#F4AB82;}
	.st127{fill-rule:evenodd;clip-rule:evenodd;fill:#ED8F73;}
	.st128{fill-rule:evenodd;clip-rule:evenodd;fill:#301814;}
	.st129{fill-rule:evenodd;clip-rule:evenodd;fill:#E84D8F;}
	.st130{fill-rule:evenodd;clip-rule:evenodd;fill:#E8695B;}
	.st131{fill-rule:evenodd;clip-rule:evenodd;fill:#00000F;stroke:#1A1A18;stroke-width:0.3835;stroke-miterlimit:22.9256;}
	.st132{fill-rule:evenodd;clip-rule:evenodd;fill:#E17E67;}
	.st133{fill-rule:evenodd;clip-rule:evenodd;fill:#EC7862;}
	.st134{fill-rule:evenodd;clip-rule:evenodd;fill:#563F2F;}
	.st135{fill-rule:evenodd;clip-rule:evenodd;fill:#A26E50;}
	.st136{fill-rule:evenodd;clip-rule:evenodd;fill:#EF8971;}
	.st137{fill-rule:evenodd;clip-rule:evenodd;fill:#F5F4F3;}
	.st138{fill-rule:evenodd;clip-rule:evenodd;fill:#CEC8CF;}
	.st139{fill-rule:evenodd;clip-rule:evenodd;fill:#E9574D;}
	.st140{fill-rule:evenodd;clip-rule:evenodd;fill:#D74743;}
	.st141{fill-rule:evenodd;clip-rule:evenodd;fill:#3F4154;}
	.st142{fill-rule:evenodd;clip-rule:evenodd;fill:#575A6D;}
	.st143{fill-rule:evenodd;clip-rule:evenodd;fill:#D6BCA3;}
	.st144{fill-rule:evenodd;clip-rule:evenodd;fill:#BE8762;}
	.st145{fill-rule:evenodd;clip-rule:evenodd;fill:#D39E80;}
	.st146{fill-rule:evenodd;clip-rule:evenodd;fill:#1C2B3F;}
	.st147{fill-rule:evenodd;clip-rule:evenodd;fill:#1874B9;}
	.st148{fill-rule:evenodd;clip-rule:evenodd;fill:#002846;}
	.st149{fill-rule:evenodd;clip-rule:evenodd;fill:#A7A5B5;}
	.st150{fill-rule:evenodd;clip-rule:evenodd;fill:#9794A1;}
	.st151{fill-rule:evenodd;clip-rule:evenodd;fill:#F2F1F3;}
	.st152{fill-rule:evenodd;clip-rule:evenodd;fill:#D3D0D7;}
	.st153{fill-rule:evenodd;clip-rule:evenodd;fill:#3B3A3A;}
	.st154{fill-rule:evenodd;clip-rule:evenodd;fill:#242525;}
	.st155{fill-rule:evenodd;clip-rule:evenodd;fill:#C7DDE0;}
	.st156{fill-rule:evenodd;clip-rule:evenodd;fill:#7A9196;}
	.st157{fill-rule:evenodd;clip-rule:evenodd;fill:#E3E0E7;}
	.st158{fill-rule:evenodd;clip-rule:evenodd;fill:#ADAAB9;}
	.st159{fill:#FF7D6C;}
	.st160{fill:#80739B;}
	.st161{fill:#65CBC2;}
	.st162{fill:#FDC97A;}
	.st163{fill:#F6931D;}
	.st164{fill:#C1B49A;}
	.st165{fill:#2DA9E3;stroke:#FFFFFF;stroke-width:0.3828;stroke-miterlimit:10;}
	.st166{opacity:0.39;}
	.st167{opacity:0.64;fill:#D0C3E8;}
	.st168{opacity:0.31;fill:#B29CDA;}
	.st169{opacity:0.24;}
	.st170{clip-path:url(#SVGID_9_);}
	.st171{fill:none;stroke:#FFFFFF;stroke-width:1.4326;stroke-miterlimit:10;}
	.st172{clip-path:url(#SVGID_11_);}
	.st173{clip-path:url(#SVGID_13_);}
	.st174{opacity:0.3;fill:#D0C3E8;}
	.st175{fill:#32B4C5;}
	.st176{fill:#4DCFE0;}
	.st177{fill:#60E2F3;}
	.st178{fill:#39306C;}
	.st179{fill:#4B4582;}
	.st180{opacity:0.74;}
	.st181{fill:#DF2D76;}
	.st182{fill:#F6327A;}
	.st183{fill:#221B4C;}
	.st184{fill:none;stroke:#4B4582;stroke-width:0.8791;stroke-linecap:round;stroke-linejoin:round;stroke-miterlimit:10;}
	.st185{fill:none;stroke:#4B4582;stroke-width:0.615;stroke-linecap:round;stroke-linejoin:round;stroke-miterlimit:10;}
	.st186{fill:none;stroke:#FFFFFF;stroke-width:1.4967;stroke-linecap:round;stroke-linejoin:round;stroke-miterlimit:10;}
	.st187{fill:#DC3178;}
	.st188{fill:#F3AD97;}
	.st189{fill:#FFB89E;}
	.st190{fill:none;stroke:#F6327A;stroke-width:0.9457;stroke-miterlimit:10;}
	.st191{fill:#47417F;}
	.st192{fill:#5E5895;}
	.st193{opacity:0.07;}
	.st194{fill:none;stroke:#4B4582;stroke-width:0.8988;stroke-linecap:round;stroke-linejoin:round;stroke-miterlimit:10;}
	.st195{fill:none;stroke:#4B4582;stroke-width:1.7976;stroke-linecap:round;stroke-linejoin:round;stroke-miterlimit:10;}
	.st196{fill:none;stroke:#4B4582;stroke-width:1.2564;stroke-linecap:round;stroke-linejoin:round;stroke-miterlimit:10;}
</style>
<g>
	<path class="st71" d="M53.89,282.33C24.25,282.33,0,258.08,0,228.43v0c0-29.64,24.25-53.89,53.89-53.89l0,0
		c12.53,0,22.79-10.25,22.79-22.79l0,0c0-12.53-10.25-22.79-22.79-22.79h-2.71c-13.03,0-23.69-10.66-23.69-23.69v0
		c0-13.03,10.66-23.69,23.69-23.69h8.32c5.07,0,9.22-4.15,9.22-9.22l0,0c0-5.07-4.15-9.22-9.22-9.22h-6.11
		c-3.5,0-6.37-2.86-6.37-6.37v0c0-3.5,2.86-6.37,6.37-6.37h41.09c5.5,0,10-4.5,10-10l0,0c0-5.5-4.5-10-10-10H82.19
		c-3.5,0-6.37-2.86-6.37-6.37v0c0-3.5,2.86-6.37,6.37-6.37h155.3c4.57,0,8.31,3.74,8.31,8.31v0c0,4.57-3.74,8.31-8.31,8.31h-25.2
		c-7.18,0-13.05,5.87-13.05,13.05l0,0c0,7.18,5.87,13.05,13.05,13.05h44.55c4.57,0,8.31,3.74,8.31,8.31v0
		c0,4.57-3.74,8.31-8.31,8.31h-7.98c-6.62,0-12.04,5.42-12.04,12.04l0,0c0,6.62,5.42,12.04,12.04,12.04h91.71
		c17,0,30.91,13.91,30.91,30.91v0c0,17-13.91,30.91-30.91,30.91H318.9c-16.35,0-29.73,13.38-29.73,29.73l0,0
		c0,16.35,13.38,29.73,29.73,29.73h101.12c16.49,0,29.98,13.49,29.98,29.98l0,0c0,16.49-13.49,29.98-29.98,29.98
		C334.71,282.33,139.2,282.33,53.89,282.33L53.89,282.33z M258.75,34.29c4.59,0,8.31-3.72,8.31-8.31c0-4.59-3.72-8.31-8.31-8.31
		c-4.59,0-8.31,3.72-8.31,8.31C250.44,30.57,254.16,34.29,258.75,34.29L258.75,34.29z M35.52,63.14c3.52,0,6.37-2.85,6.37-6.37
		c0-3.52-2.85-6.37-6.37-6.37c-3.51,0-6.36,2.85-6.36,6.37C29.16,60.29,32.01,63.14,35.52,63.14z"/>
	<path class="st72" d="M295.28,109.95h53.38c1.98,0,3.6,1.62,3.6,3.6v21.43c0,1.98-1.62,3.6-3.6,3.6h-53.38
		c-1.98,0-3.6-1.62-3.6-3.6v-21.43C291.68,111.57,293.29,109.95,295.28,109.95z"/>
	<g>
		<polygon class="st72" points="74.3,128.71 68.54,130.28 78.01,139.74 232.47,139.74 227.03,130.31 		"/>
		<path class="st73" d="M67.79,126.39h159.29c0.45,0,0.82,0.37,0.82,0.82v2.24c0,0.45-0.37,0.82-0.82,0.82H67.79
			c-0.45,0-0.82-0.37-0.82-0.82v-2.24C66.97,126.76,67.34,126.39,67.79,126.39z"/>
		<path class="st74" d="M97.98,133.61h4.69c0.34,0,0.61,0.27,0.61,0.61v8.09c0,0.34-0.27,0.61-0.61,0.61h-4.69
			c-0.34,0-0.61-0.27-0.61-0.61v-8.09C97.37,133.88,97.65,133.61,97.98,133.61z"/>
		<path class="st74" d="M192.21,133.61h4.69c0.34,0,0.61,0.27,0.61,0.61v8.09c0,0.34-0.27,0.61-0.61,0.61h-4.69
			c-0.33,0-0.61-0.27-0.61-0.61v-8.09C191.6,133.88,191.88,133.61,192.21,133.61z"/>
		<path class="st73" d="M191.53,128.63h6.06c0.39,0,0.71,0.32,0.71,0.71v5.46c0,0.39-0.32,0.71-0.71,0.71h-6.06
			c-0.39,0-0.71-0.32-0.71-0.71v-5.46C190.82,128.95,191.13,128.63,191.53,128.63z"/>
		<polygon class="st72" points="74.3,82.59 68.54,84.16 78.01,93.62 232.47,93.62 227.03,84.19 		"/>
		<path class="st73" d="M67.79,80.27h159.29c0.45,0,0.82,0.37,0.82,0.82v2.24c0,0.45-0.37,0.82-0.82,0.82H67.79
			c-0.45,0-0.82-0.37-0.82-0.82v-2.24C66.97,80.64,67.34,80.27,67.79,80.27z"/>
		<path class="st74" d="M97.98,87.48h4.69c0.34,0,0.61,0.27,0.61,0.61v8.09c0,0.34-0.27,0.61-0.61,0.61h-4.69
			c-0.34,0-0.61-0.27-0.61-0.61v-8.09C97.37,87.76,97.65,87.48,97.98,87.48z"/>
		<path class="st74" d="M192.21,87.48h4.69c0.34,0,0.61,0.27,0.61,0.61v8.09c0,0.34-0.27,0.61-0.61,0.61h-4.69
			c-0.33,0-0.61-0.27-0.61-0.61v-8.09C191.6,87.76,191.88,87.48,192.21,87.48z"/>
		<path class="st73" d="M222.3,80.52h-37.09c-0.49,0-0.9-0.4-0.9-0.9v-4.11c0-0.49,0.4-0.9,0.9-0.9h37.09c0.49,0,0.9,0.4,0.9,0.9
			v4.11C223.2,80.11,222.8,80.52,222.3,80.52z"/>
		<path class="st75" d="M217.83,69.03h-28.22c-0.49,0-0.89,0.4-0.89,0.89v4.06c0,0.49,0.4,0.89,0.89,0.89h28.22
			c0.49,0,0.89-0.4,0.89-0.89v-4.06C218.71,69.43,218.31,69.03,217.83,69.03z"/>
		<path class="st73" d="M191.21,54.45L177.1,78.88c-0.24,0.42-0.1,0.97,0.32,1.21l3.52,2.03c0.42,0.24,0.97,0.1,1.21-0.32
			l14.11-24.44c0.24-0.42,0.1-0.97-0.32-1.21l-3.52-2.03C192,53.88,191.46,54.02,191.21,54.45z"/>
		<path class="st73" d="M214.81,69.28h-19.05c-0.29,0-0.53-0.24-0.53-0.53V66.3c0-0.29,0.24-0.53,0.53-0.53h19.05
			c0.29,0,0.53,0.24,0.53,0.53v2.45C215.35,69.04,215.11,69.28,214.81,69.28z"/>
		<path class="st73" d="M184.84,54.7l-14.11,24.44c-0.24,0.42-0.1,0.97,0.33,1.21l3.52,2.03c0.42,0.24,0.97,0.1,1.21-0.32
			l14.11-24.44c0.24-0.42,0.1-0.97-0.33-1.21l-3.52-2.03C185.63,54.13,185.08,54.28,184.84,54.7z"/>
		<path class="st73" d="M191.53,82.51h6.06c0.39,0,0.71,0.32,0.71,0.71v5.46c0,0.39-0.32,0.71-0.71,0.71h-6.06
			c-0.39,0-0.71-0.32-0.71-0.71v-5.46C190.82,82.83,191.13,82.51,191.53,82.51z"/>
		<g>
			<path class="st76" d="M112.75,53.45h15.19c0.71,0,1.3,0.58,1.3,1.3v24.22c0,0.71-0.58,1.3-1.3,1.3h-15.19
				c-0.71,0-1.3-0.58-1.3-1.3V54.75C111.45,54.03,112.04,53.45,112.75,53.45z"/>
			<path class="st77" d="M131.28,53.45H139c0.36,0,0.66,0.3,0.66,0.66v25.5c0,0.36-0.3,0.66-0.66,0.66h-7.71
				c-0.36,0-0.66-0.3-0.66-0.66v-25.5C130.63,53.75,130.92,53.45,131.28,53.45z"/>
			<path class="st78" d="M137.78,48.39h8.98c0.42,0,0.77,0.34,0.77,0.77V79.5c0,0.42-0.34,0.77-0.77,0.77h-8.98
				c-0.42,0-0.77-0.35-0.77-0.77V49.16C137.02,48.74,137.36,48.39,137.78,48.39z"/>
			<path class="st79" d="M134.5,67.85h15.55c0.5,0,0.91,0.41,0.91,0.91v10.61c0,0.5-0.41,0.91-0.91,0.91H134.5
				c-0.5,0-0.91-0.41-0.91-0.91V68.75C133.59,68.25,134,67.85,134.5,67.85z"/>
			<path class="st76" d="M153.6,57.52h7.71c0.36,0,0.66,0.3,0.66,0.66v21.43c0,0.36-0.3,0.66-0.66,0.66h-7.71
				c-0.36,0-0.66-0.3-0.66-0.66V58.17C152.95,57.81,153.24,57.52,153.6,57.52z"/>
			<path class="st80" d="M115.71,59.46h9.27c0.48,0,0.87,0.39,0.87,0.87v5.08c0,0.48-0.39,0.87-0.87,0.87h-9.27
				c-0.48,0-0.87-0.39-0.87-0.87v-5.08C114.84,59.85,115.23,59.46,115.71,59.46z"/>
			<path class="st80" d="M115.57,67.85h9.55c0.4,0,0.73,0.33,0.73,0.73v0.7c0,0.4-0.33,0.73-0.73,0.73h-9.55
				c-0.4,0-0.73-0.33-0.73-0.73v-0.7C114.84,68.18,115.17,67.85,115.57,67.85z"/>
			<path class="st80" d="M115.57,72.05h9.55c0.4,0,0.73,0.33,0.73,0.73v0.7c0,0.4-0.33,0.73-0.73,0.73h-9.55
				c-0.4,0-0.73-0.33-0.73-0.73v-0.7C114.84,72.38,115.17,72.05,115.57,72.05z"/>
			<path class="st81" d="M157.46,71.14c1.04,0,1.9-1.01,1.9-2.25c0-1.24-0.85-2.25-1.9-2.25c-1.04,0-1.9,1.01-1.9,2.25
				C155.56,70.13,156.42,71.14,157.46,71.14z"/>
		</g>
		<g>
			<path class="st82" d="M128.78,106.59h0.71v-1.33h-0.24c-0.44,0-0.8-0.43-0.8-0.95v0c0-0.52,0.36-0.95,0.8-0.95h0.88v-5.61
				c0-0.52,0.36-0.95,0.8-0.95h0c0.44,0,0.8,0.43,0.8,0.95v5.61h0.88c0.44,0,0.8,0.43,0.8,0.95v0c0,0.52-0.36,0.95-0.8,0.95h-0.24
				v1.33h0.71c0.49,0,0.9,0.48,0.9,1.06v17.67c0,0.59-0.4,1.06-0.9,1.06h-4.3c-0.49,0-0.9-0.48-0.9-1.06v-17.67
				C127.88,107.07,128.29,106.59,128.78,106.59z"/>
			<path class="st82" d="M121.83,108.67h0.63v-1.19h-0.22c-0.4,0-0.72-0.38-0.72-0.85v0c0-0.47,0.32-0.85,0.72-0.85h0.78v-5.02
				c0-0.47,0.32-0.85,0.72-0.85l0,0c0.4,0,0.72,0.38,0.72,0.85v5.02h0.79c0.4,0,0.72,0.38,0.72,0.85v0c0,0.47-0.32,0.85-0.72,0.85
				h-0.22v1.19h0.63c0.44,0,0.8,0.43,0.8,0.95v15.82c0,0.52-0.36,0.95-0.8,0.95h-3.85c-0.44,0-0.8-0.43-0.8-0.95v-15.82
				C121.03,109.1,121.39,108.67,121.83,108.67z"/>
			<path class="st83" d="M109.95,107.68h10.6c0.5,0,0.9,0.41,0.9,0.9v16.9c0,0.5-0.41,0.9-0.9,0.9h-10.6c-0.5,0-0.9-0.41-0.9-0.9
				v-16.9C109.05,108.09,109.45,107.68,109.95,107.68z"/>
			<path class="st84" d="M112.02,111.87h6.47c0.33,0,0.61,0.27,0.61,0.61v3.54c0,0.33-0.27,0.61-0.61,0.61h-6.47
				c-0.33,0-0.61-0.27-0.61-0.61v-3.54C111.41,112.15,111.68,111.87,112.02,111.87z"/>
			<path class="st84" d="M111.92,117.73h6.66c0.28,0,0.51,0.23,0.51,0.51v0.49c0,0.28-0.23,0.51-0.51,0.51h-6.66
				c-0.28,0-0.51-0.23-0.51-0.51v-0.49C111.41,117.96,111.64,117.73,111.92,117.73z"/>
			<path class="st84" d="M111.92,120.66h6.66c0.28,0,0.51,0.23,0.51,0.51v0.49c0,0.28-0.23,0.51-0.51,0.51h-6.66
				c-0.28,0-0.51-0.23-0.51-0.51v-0.49C111.41,120.89,111.64,120.66,111.92,120.66z"/>
			<path class="st85" d="M123.05,114.9h6.51c0.31,0,0.56,0.25,0.56,0.56v10.38c0,0.31-0.25,0.56-0.56,0.56h-6.51
				c-0.31,0-0.56-0.25-0.56-0.56v-10.38C122.5,115.15,122.75,114.9,123.05,114.9z"/>
			<path class="st85" d="M136.13,109.35h13.39c0.63,0,1.14,0.51,1.14,1.14v14.76c0,0.63-0.52,1.14-1.14,1.14h-13.39
				c-0.63,0-1.14-0.51-1.14-1.14v-14.76C134.99,109.86,135.5,109.35,136.13,109.35z"/>
			<path class="st83" d="M132.66,114.9h6.51c0.31,0,0.56,0.25,0.56,0.56v10.38c0,0.31-0.25,0.56-0.56,0.56h-6.51
				c-0.31,0-0.56-0.25-0.56-0.56v-10.38C132.1,115.15,132.35,114.9,132.66,114.9z"/>
		</g>
		<g>
			<path class="st86" d="M208.33,105.3h-15.19c-0.71,0-1.3,0.58-1.3,1.3v18.5c0,0.71,0.58,1.3,1.3,1.3h15.19
				c0.71,0,1.3-0.58,1.3-1.3v-18.5C209.63,105.88,209.05,105.3,208.33,105.3z"/>
			<path class="st87" d="M189.8,105.3h-7.71c-0.36,0-0.66,0.3-0.66,0.66v19.77c0,0.36,0.3,0.66,0.66,0.66h7.71
				c0.36,0,0.66-0.3,0.66-0.66v-19.77C190.46,105.6,190.16,105.3,189.8,105.3z"/>
			<path class="st88" d="M183.3,101.32h-8.98c-0.42,0-0.77,0.35-0.77,0.77v23.53c0,0.42,0.34,0.77,0.77,0.77h8.98
				c0.42,0,0.77-0.34,0.77-0.77v-23.53C184.07,101.67,183.72,101.32,183.3,101.32z"/>
			<path class="st89" d="M186.78,116.62h-15.94c-0.39,0-0.71,0.32-0.71,0.71v8.34c0,0.39,0.32,0.71,0.71,0.71h15.94
				c0.39,0,0.71-0.32,0.71-0.71v-8.34C187.5,116.94,187.18,116.62,186.78,116.62z"/>
			<path class="st86" d="M167.48,108.5h-7.71c-0.36,0-0.66,0.3-0.66,0.66v16.58c0,0.36,0.3,0.66,0.66,0.66h7.71
				c0.36,0,0.66-0.3,0.66-0.66v-16.58C168.14,108.79,167.84,108.5,167.48,108.5z"/>
			<path class="st90" d="M205.56,110.03h-9.64c-0.38,0-0.69,0.31-0.69,0.69v3.99c0,0.38,0.31,0.69,0.69,0.69h9.64
				c0.38,0,0.69-0.31,0.69-0.69v-3.99C206.25,110.33,205.94,110.03,205.56,110.03z"/>
			<path class="st90" d="M205.67,116.62h-9.86c-0.32,0-0.58,0.26-0.58,0.58v0.55c0,0.32,0.26,0.58,0.58,0.58h9.86
				c0.32,0,0.58-0.26,0.58-0.58v-0.55C206.25,116.88,205.99,116.62,205.67,116.62z"/>
			<path class="st90" d="M205.67,119.93h-9.86c-0.32,0-0.58,0.26-0.58,0.58v0.55c0,0.32,0.26,0.58,0.58,0.58h9.86
				c0.32,0,0.58-0.26,0.58-0.58v-0.55C206.25,120.19,205.99,119.93,205.67,119.93z"/>
			<path class="st91" d="M163.62,119.22c1.04,0,1.9-0.8,1.9-1.77c0-0.98-0.85-1.77-1.9-1.77c-1.04,0-1.9,0.8-1.9,1.77
				C161.73,118.42,162.58,119.22,163.62,119.22z"/>
		</g>
		<path class="st73" d="M97,128.63h6.06c0.39,0,0.71,0.32,0.71,0.71v5.46c0,0.39-0.32,0.71-0.71,0.71H97
			c-0.39,0-0.71-0.32-0.71-0.71v-5.46C96.29,128.95,96.61,128.63,97,128.63z"/>
		<path class="st73" d="M97,82.51h6.06c0.39,0,0.71,0.32,0.71,0.71v5.46c0,0.39-0.32,0.71-0.71,0.71H97c-0.39,0-0.71-0.32-0.71-0.71
			v-5.46C96.29,82.83,96.61,82.51,97,82.51z"/>
	</g>
	<g>
		<path class="st75" d="M132.63,170.51l1.3,6.84c0,0,8.31,4.59,9.14,12.8c1.11,10.97,2.97,25.92,5.64,35.86
			c1.85,6.91,4.57,15.02,7.16,22.43h-10.34c-4.59-11.91-9.2-26.6-11.36-40.62C129.38,176.72,132.63,170.51,132.63,170.51z"/>
		<path class="st73" d="M129.15,161.36c4.61,3.31,12.11,9.4,13.47,24.13c0.37,4.05,0.88,9.05,1.53,14.32
			c-1.26,4.77-1.99,11.63-0.92,21.19c1.23,10.92,3.3,20.09,5.6,27.44h-3.3c-4.59-11.91-9.2-26.6-11.36-40.62
			c-3.61-23.48-2.65-32.77-1.96-35.91C132.8,171.75,128.49,161.56,129.15,161.36z"/>
		<path class="st92" d="M129.02,176.55c-2.84-1.78-7.72-22.46-10.8-19.13c-3.08,3.32-16.13,6.2-17.83,6.93
			c-1.7,0.73,11.74,50.46,22.87,55.18c4.12,1.74,6.68-0.07,8.26-3.73C134.38,209.21,136.4,181.19,129.02,176.55z"/>
		<path class="st93" d="M113.55,167.97l0.53,0.92c0,0,7.57,22.89,7.25,41.23c-0.31,18.34-9.56,2.66-9.41,1.1
			c0.16-1.57,1.8-31.43,0.19-42.21C112.12,169.01,112.24,167.56,113.55,167.97z"/>
		<path class="st94" d="M113.55,167.97l0.53,0.92c0,0,0.28,0.84,0.72,2.31c-0.56,0.4-1.24,1.37-1.22,3.67
			c0.03,3.24-0.22,15.87,6.92,22.3c0.57,4.33,0.91,8.76,0.83,12.95c-0.31,18.34-9.56,2.66-9.41,1.1c0.16-1.57,1.8-31.43,0.19-42.21
			C112.12,169.01,112.24,167.56,113.55,167.97z"/>
		<path class="st75" d="M117.95,156.73c0,0,7.49,17.52,4.66,37.59c-2.82,20.07-8.78,35.43-8.78,35.43v18.69h24.93
			c-0.33-5.18-0.32-11.23,0.32-18.22C141.12,207.96,147.39,160.62,117.95,156.73z"/>
		<path class="st73" d="M123.18,188.03c-0.09,2.06-0.27,4.16-0.57,6.29c-2.82,20.07-8.78,35.43-8.78,35.43v18.69h12
			c-4.03-27.95,4.42-49.37,5.42-54.73c1.02-5.45,1.05-7.66,1.05-7.66l-6.34-6.42l-0.76,8.1
			C125.2,187.73,124.44,187.84,123.18,188.03z"/>
		<path class="st75" d="M122.33,248.45c-0.64-4.41-1.28-8.19-1.49-10.61c-2.9-32.52-1.45-54.29-23.74-80
			c-5.21,0.98-13.39,5.4-13.39,5.4c-4.13,2.11-9.28,5.9-9.97,10.58c-0.97,6.65,6.41,29.68,10.95,44.11
			c3.39,10.78,2.28,21.31,0.38,30.52H122.33z"/>
		<path class="st73" d="M91.82,248.45c0.16-2.16,0.39-4.36,0.69-6.57c3.45-25.32-4.71-55.08-4.71-55.08l-3.75,3.19l-6.95,2.77
			c2.3,8.45,5.31,17.9,7.6,25.18c3.39,10.78,2.28,21.31,0.38,30.52H91.82z"/>
		<path class="st95" d="M100.04,136.3l0.22,5.21c0,0,0,10.68,0,12.3c0,0.78-0.73,1.91-2.02,2.9c1.92,2.09,6.66,6.93,9.64,7.39
			c3.8,0.59,8.19-1.1,9.29-2.04c0.77-0.66,0.84-4.06,1.29-5.97c-0.35-0.1,0.05,0.01-0.31-0.11c-0.93-0.31-1.81-0.75-2.38-1.37
			c-1.78-1.95-1.7-10.62,0.08-12.89C117.64,139.46,100.04,136.3,100.04,136.3z"/>
		<path class="st96" d="M114.29,161.72l-2.15-1.16c0,0-0.18,2.37-0.44,2.45c-0.25,0.08-0.6-1.49-1.53-2.06
			c-0.93-0.57-3.41,2.82-3.41,2.82s0.92,2.65,2.26,2.84c1.33,0.2,5.35,0.64,5.4-0.56C114.47,164.85,114.29,161.72,114.29,161.72z"/>
		<path class="st94" d="M111.53,164.58c0,0-1.9-0.14-3.49-1.16c-1.59-1.02-2.76,0.25-2.76,0.25l1.53,1.73l0.12,0.73
			c0,0,2.28-0.4,3.73,0.65C112.09,167.85,111.53,164.58,111.53,164.58z"/>
		<path class="st97" d="M118.22,157.42c0,0,10.27,25.01-0.15,58.93l0.03,2.59c0,0,8.67-15.78,12.75-28.64c0,0,0.35-1.22-0.51-1.76
			c-0.86-0.55-2.63-1.78-3.61-1.78c-0.98,0,0.51-1.27,4.35,0.37c0,0,0.94-0.19,1.21-1.06c0.28-0.86-0.87-15.25-11.11-28.69
			c0,0-0.15-0.37-0.91-0.59C119.5,156.57,117.97,156.13,118.22,157.42z"/>
		<path class="st7" d="M99.21,154.23c0,0,2.7,4.86,9.88,6.11c0,0,1.53,0.31,1.53,1.76s-4.23,5.37-4.62,7.49
			c-0.39,2.12-9.02-8.9-9.57-12.34C96.43,157.24,97.84,154.62,99.21,154.23z"/>
		<path class="st93" d="M114.53,164.71c0,0-0.82-0.65-1.49-0.65c-0.67,0-1.88,0-2.39,0.45c-0.51,0.45-1.11,1.49-1.16,1.82
			c-0.04,0.33,2,2.35,2.63,2.66c0.63,0.31,1.29-0.19,1.96-0.12C114.74,168.97,114.94,165.41,114.53,164.71z"/>
		<path class="st94" d="M111.38,164.19c-0.29,0.07-0.56,0.17-0.73,0.33c-0.51,0.45-1.11,1.49-1.16,1.82c-0.04,0.33,2,2.35,2.63,2.66
			c0.63,0.31,1.29-0.19,1.96-0.12c0.17,0.02,0.31-0.19,0.41-0.53C109.72,167.63,111.06,164.77,111.38,164.19z"/>
		<path class="st97" d="M97.1,157.84c0,0,20.43,14.33,22.29,63.74c0,0,0.09,1.01-0.42,1.09c-0.51,0.08-9.76-26.38-15.71-31.08
			c0,0-0.94-0.71-0.55-1.76c0.39-1.06,3.25-3.1,4.59-3.84c1.33-0.74-3.76,0.04-5.6,1.02c-1.84,0.98-3.06,0-4.27-1.84
			c-1.21-1.84,0.41-22.73-4.73-26.02c0,0-0.15-0.31,0.09-0.55c0.24-0.24,3.04-1.06,3.21-1.08C96.17,157.49,96.68,157.45,97.1,157.84
			z"/>
		<path class="st7" d="M116.18,154.05c0,0-0.17,4.36-3.57,5.9c0,0-0.93,0.47-0.17,1.32c0.76,0.85,1.88,4.2,2.22,5.7
			c0.34,1.5,4.54-6.12,4.24-10.8C118.9,156.17,117.32,154.36,116.18,154.05z"/>
		<path class="st75" d="M77.04,173.2c0,0,0.45-5.92-2.63-1.58c-3.08,4.34-13.08,62.97-11.75,68.63c0.32,1.38,2.12,4.39,4.76,8.2
			h15.34c-2.63-4.32-4.82-8.09-5.79-10.11c-3.23-6.72,9.54-35.08,10.61-40.18C88.64,193.05,88.75,178.79,77.04,173.2z"/>
		<path class="st73" d="M76.97,238.33c-2.2-4.58,3.02-19.19,6.91-29.66c0.45-1.22,0.89-2.38,1.29-3.47c1.22-3.27,2.14-5.83,2.4-7.05
			c0.08-0.4,0.16-0.85,0.23-1.34c0.1-0.75,0.17-1.6,0.21-2.52c0.05-1.35,0.92-2.07,0.74-3.66c-0.75-6.35-4.07-8.73-4.88-8
			c-0.82,0.74-0.3,6.46-0.48,7.86c-0.15,1.12-0.29,2.65-0.64,4.85c-0.12,0.75-0.26,1.58-0.44,2.49c-0.29,1.52-0.67,3.28-1.18,5.32
			c-0.7,2.81-1.64,6.15-2.92,10.14c-6.44,20.13-0.74,25.98-0.74,25.98C77.27,238.94,77.11,238.63,76.97,238.33L76.97,238.33z
			 M62.55,239.49c0.02,0.3,0.05,0.56,0.1,0.75c0.32,1.38,2.12,4.39,4.76,8.2h1.64C65.26,243.38,62.58,239.53,62.55,239.49z"/>
		<path class="st73" d="M131.07,100.21c0,0,3.34,3.79,3.41,6.67c0.08,2.88-3.71,15.24-3.71,17.13c0,1.9-3.09,1.36-3.4-1.33
			C127.05,120,119.77,104.46,131.07,100.21z"/>
		<path class="st98" d="M128.6,122.56c-3.37,0-6.09,2.73-6.09,6.09c0,3.37,2.73,6.09,6.09,6.09c3.37,0,6.09-2.73,6.09-6.09
			C134.7,125.29,131.97,122.56,128.6,122.56z"/>
		<path class="st98" d="M86.85,122.56c-3.37,0-6.09,2.73-6.09,6.09c0,3.37,2.73,6.09,6.09,6.09c3.37,0,6.09-2.73,6.09-6.09
			C92.95,125.29,90.22,122.56,86.85,122.56z"/>
		<path class="st99" d="M109.12,91.74L109.12,91.74c-11.48,0-20.87,9.39-20.87,20.87v18.97c0,11.48,9.39,20.87,20.87,20.87l0,0
			c11.48,0,20.87-9.39,20.87-20.87v-18.97C129.99,101.14,120.6,91.74,109.12,91.74z"/>
		<path class="st95" d="M88.77,108.01c-0.34,1.48-0.52,3.03-0.52,4.61v18.97c0,11.48,9.39,20.87,20.87,20.87
			c-22.31-4.4-15.14-32.66-8.27-35.12c6.87-2.46,21.45-3.04,25.42-2.3c3.32,0.62,3.69,3.15,3.73,3.97v-6.39
			c0-2.35-0.4-4.62-1.12-6.74c-4.18-0.61-15.23,0.05-25.3,0.05C97.8,105.93,92.87,106.84,88.77,108.01L88.77,108.01z M109.12,152.46
			"/>
		<path class="st75" d="M88.25,128.14c0,0,4.99-3.78,3.93-11.06c0,0,3.71-4.84,1.36-8.64c0,0,20.56,4.62,33.33,0.41
			c12.76-4.21,11.55-20.13,3.67-27.33c-3.76-3.43-7.31-3.94-8.87-1.81c-9.04,12.32-40.25-1.36-35.54,19.89c0,0-8.36,5.28-0.47,23.08
			C85.65,122.7,88.8,122.31,88.25,128.14z"/>
		<path class="st73" d="M88.25,128.14c0,0,4.99-3.78,3.93-11.06c0,0,3.71-4.84,1.36-8.64c0,0,8.67,1.95,18.24,2.16
			c-7.95-1.34-15.66-4.56-21.33-10.39c-3.19-3.27-3.99-6.38-3.71-9.04c-1.15,1.92-1.47,4.61-0.62,8.44c0,0-8.36,5.28-0.47,23.08
			C85.65,122.7,88.8,122.31,88.25,128.14z"/>
		<path class="st97" d="M89.77,88.4c5.59,22.23,27.7,20.76,46.6,8.77c0.44-4.04-0.61-8.36-2.76-11.88l-0.07-0.03
			c-14.58,19.83-37.44,17.85-41.92,2.36C90.96,87.84,90.34,88.1,89.77,88.4z"/>
	</g>
	<g>
		<path class="st75" d="M228.33,170.51l-1.3,6.84c0,0-8.31,4.59-9.14,12.8c-1.11,10.97-2.97,25.92-5.64,35.86
			c-1.85,6.91-4.57,15.02-7.16,22.43h10.34c4.59-11.91,9.2-26.6,11.36-40.62C231.57,176.72,228.33,170.51,228.33,170.51z"/>
		<path class="st73" d="M231.81,161.36c-4.61,3.31-12.11,9.4-13.47,24.13c-0.37,4.05-0.88,9.05-1.52,14.32
			c1.26,4.77,1.99,11.63,0.91,21.19c-1.23,10.92-3.3,20.09-5.6,27.44h3.3c4.59-11.91,9.2-26.6,11.36-40.62
			c3.61-23.48,2.65-32.77,1.96-35.91C228.15,171.75,232.47,161.56,231.81,161.36z"/>
		<path class="st96" d="M283.48,174l-8.59-10.87l-1.9-1.63l-19.09-7.18l-8.83,1.38h0c0,0-8.81,4.29-9.56,4.25
			c-0.08,0-0.21-0.05-0.37-0.14l-5.21,14.99c0,0-3.16,21.72-3.61,23.19c-0.45,1.48-0.83,22.31,0.81,25.3
			c1.64,2.99,0.25,7.63,6.57,9.57c6.32,1.95,19.85,5.71,28.93-3.89c9.08-9.6,10.97-14.92,13.24-18.17
			C278.13,207.57,283.48,174,283.48,174z"/>
		<path class="st100" d="M231.93,176.55c2.84-1.78,10.58-23.56,13.67-20.24c3.08,3.32,17.49,4.75,19.19,5.48
			c1.7,0.73-15.97,53.02-27.1,57.73c-4.12,1.74-6.68-0.07-8.26-3.73C226.58,209.21,224.56,181.19,231.93,176.55z"/>
		<path class="st93" d="M247.4,167.97l-0.53,0.92c0,0-7.57,22.89-7.25,41.23s9.56,2.66,9.41,1.1c-0.16-1.57-1.8-31.43-0.19-42.21
			C248.83,169.01,248.72,167.56,247.4,167.97z"/>
		<path class="st94" d="M247.4,167.97l-0.53,0.92c0,0-0.28,0.84-0.72,2.31c0.56,0.4,1.24,1.37,1.22,3.67
			c-0.03,3.24,0.22,15.87-6.92,22.3c-0.57,4.33-0.91,8.76-0.83,12.95c0.31,18.34,9.56,2.66,9.41,1.1
			c-0.16-1.57-1.8-31.43-0.19-42.21C248.83,169.01,248.72,167.56,247.4,167.97z"/>
		<path class="st75" d="M243.01,156.73c0,0-7.49,17.52-4.66,37.59c2.82,20.07,8.78,35.43,8.78,35.43v18.69h-24.93
			c0.33-5.18,0.32-11.23-0.32-18.22C219.84,207.96,213.56,160.62,243.01,156.73z"/>
		<path class="st73" d="M237.77,188.03c0.09,2.06,0.27,4.16,0.57,6.29c2.82,20.07,8.78,35.43,8.78,35.43v18.69h-12
			c4.03-27.95-4.42-49.37-5.42-54.73c-1.02-5.45-1.05-7.66-1.05-7.66l6.34-6.42l0.76,8.1C235.76,187.73,236.52,187.84,237.77,188.03
			z"/>
		<path class="st75" d="M238.62,248.45c0.64-4.41,1.28-8.19,1.49-10.61c2.9-32.52,1.45-54.29,23.74-80
			c5.21,0.98,13.39,5.4,13.39,5.4c4.13,2.11,9.28,5.9,9.97,10.58c0.97,6.65-6.41,29.68-10.95,44.11
			c-3.39,10.78-2.28,21.31-0.38,30.52H238.62z"/>
		<path class="st73" d="M269.13,248.45c-0.15-2.16-0.39-4.36-0.69-6.57c-3.45-25.32,4.71-55.08,4.71-55.08l3.75,3.19l6.95,2.77
			c-2.3,8.45-5.31,17.9-7.6,25.18c-3.39,10.78-2.28,21.31-0.38,30.52H269.13z"/>
		<path class="st95" d="M260.91,136.3l-0.22,5.21c0,0,0,10.68,0,12.3c0,0.78,0.73,1.91,2.02,2.9c-1.92,2.09-6.66,6.93-9.64,7.39
			c-3.8,0.59-8.19-1.1-9.29-2.04c-0.77-0.66-0.84-4.06-1.29-5.97c0.35-0.1-0.05,0.01,0.31-0.11c0.93-0.31,1.81-0.75,2.38-1.37
			c1.78-1.95,1.7-10.62-0.08-12.89C243.32,139.46,260.91,136.3,260.91,136.3z"/>
		<path class="st96" d="M246.66,161.72l2.15-1.16c0,0,0.18,2.37,0.44,2.45c0.25,0.08,0.6-1.49,1.53-2.06
			c0.93-0.57,3.41,2.82,3.41,2.82s-0.92,2.65-2.26,2.84c-1.33,0.2-5.35,0.64-5.4-0.56C246.49,164.85,246.66,161.72,246.66,161.72z"
			/>
		<path class="st94" d="M249.43,164.58c0,0,1.9-0.14,3.49-1.16c1.59-1.02,2.76,0.25,2.76,0.25l-1.53,1.73l-0.12,0.73
			c0,0-2.28-0.4-3.73,0.65C248.86,167.85,249.43,164.58,249.43,164.58z"/>
		<path class="st97" d="M242.73,157.42c0,0-10.27,25.01,0.15,58.93l-0.03,2.59c0,0-8.67-15.78-12.75-28.64c0,0-0.35-1.22,0.51-1.76
			c0.86-0.55,2.63-1.78,3.61-1.78c0.98,0-0.51-1.27-4.35,0.37c0,0-0.94-0.19-1.22-1.06c-0.28-0.86,0.87-15.25,11.11-28.69
			c0,0,0.15-0.37,0.91-0.59C241.45,156.57,242.98,156.13,242.73,157.42z"/>
		<path class="st7" d="M261.74,154.23c0,0-2.7,4.86-9.87,6.11c0,0-1.53,0.31-1.53,1.76s4.23,5.37,4.62,7.49
			c0.39,2.12,9.02-8.9,9.57-12.34C264.53,157.24,263.11,154.62,261.74,154.23z"/>
		<path class="st93" d="M246.43,164.71c0,0,0.82-0.65,1.49-0.65c0.67,0,1.88,0,2.39,0.45c0.51,0.45,1.11,1.49,1.16,1.82
			c0.04,0.33-2,2.35-2.63,2.66c-0.63,0.31-1.29-0.19-1.96-0.12C246.21,168.97,246.01,165.41,246.43,164.71z"/>
		<path class="st94" d="M249.57,164.19c0.29,0.07,0.56,0.17,0.73,0.33c0.51,0.45,1.11,1.49,1.16,1.82c0.04,0.33-2,2.35-2.63,2.66
			c-0.63,0.31-1.29-0.19-1.96-0.12c-0.17,0.02-0.31-0.19-0.41-0.53C251.24,167.63,249.89,164.77,249.57,164.19z"/>
		<path class="st97" d="M263.85,157.84c0,0-20.42,14.33-22.29,63.74c0,0-0.09,1.01,0.42,1.09c0.51,0.08,9.76-26.38,15.71-31.08
			c0,0,0.94-0.71,0.55-1.76c-0.39-1.06-3.25-3.1-4.59-3.84c-1.33-0.74,3.76,0.04,5.6,1.02c1.84,0.98,3.06,0,4.27-1.84
			c1.22-1.84-0.41-22.73,4.73-26.02c0,0,0.15-0.31-0.09-0.55c-0.24-0.24-3.04-1.06-3.21-1.08
			C264.78,157.49,264.27,157.45,263.85,157.84z"/>
		<path class="st7" d="M244.78,154.05c0,0,0.17,4.36,3.57,5.9c0,0,0.93,0.47,0.17,1.32c-0.76,0.85-1.88,4.2-2.22,5.7
			c-0.34,1.5-4.54-6.12-4.24-10.8C242.06,156.17,243.63,154.36,244.78,154.05z"/>
		<path class="st75" d="M281.53,169.88c0,0-2.51-5.38,1.9-2.41c4.41,2.97,34.49,54.28,35.25,60.05c0.33,2.47-1.83,11.26-4.84,20.93
			h-12.27c1.48-7.37,2.77-14.53,3.04-17.65c0.65-7.43-21.32-29.45-24.12-33.84C277.69,192.56,272.55,179.25,281.53,169.88z"/>
		<path class="st73" d="M304.61,230.79c0.44-5.06-9.61-16.88-16.95-25.3c-0.86-0.98-1.67-1.92-2.44-2.79
			c-2.3-2.63-4.07-4.7-4.74-5.75c-0.22-0.34-0.45-0.73-0.69-1.18c-0.36-0.66-0.73-1.43-1.09-2.29c-0.52-1.25-3.96-5.73-4.36-7.29
			c0.31-2.37,3.09-5.48,4.11-5.08c1.02,0.4,2.56,5.94,3.23,7.18c0.53,0.99,1.21,2.38,2.32,4.31c0.38,0.66,0.81,1.38,1.29,2.18
			c0.81,1.32,1.79,2.83,2.99,4.56c1.65,2.38,3.71,5.18,6.31,8.46c13.14,16.55,9.87,24.04,9.87,24.04
			C304.53,231.47,304.58,231.12,304.61,230.79L304.61,230.79z M318.5,226.78c0.09,0.29,0.15,0.54,0.18,0.74
			c0.33,2.47-1.83,11.26-4.84,20.93h-1.62C315.72,237.77,318.48,226.86,318.5,226.78z"/>
		<g>
			<path class="st73" d="M228.64,108.61l0.33,3.53c0,0,1.32,1.42,6,0.96c4.68-0.46,44.08,1.12,44.08,1.12s0.54,0.22,1.09-0.53
				c0.55-0.76-2.31-11.02-2.31-11.02L228.64,108.61z"/>
			<path class="st98" d="M232.05,119.29c3.65,0,6.6,2.95,6.6,6.6c0,3.65-2.95,6.6-6.6,6.6c-3.64,0-6.6-2.96-6.6-6.6
				C225.45,122.25,228.41,119.29,232.05,119.29z"/>
			<path class="st98" d="M277.27,119.29c3.64,0,6.6,2.95,6.6,6.6c0,3.65-2.96,6.6-6.6,6.6c-3.65,0-6.6-2.96-6.6-6.6
				C270.67,122.25,273.62,119.29,277.27,119.29z"/>
			<path class="st99" d="M253.15,85.92L253.15,85.92c12.43,0,22.61,10.17,22.61,22.61v20.55c0,12.43-10.17,22.61-22.61,22.61l0,0
				c-12.43,0-22.61-10.17-22.61-22.61v-20.55C230.54,96.09,240.71,85.92,253.15,85.92z"/>
			<path class="st95" d="M275.2,103.53c0.37,1.61,0.56,3.28,0.56,4.99v20.54c0,12.43-10.17,22.61-22.61,22.61
				c24.16-4.77,16.4-35.37,8.96-38.04c-7.44-2.67-23.23-3.3-27.53-2.49c-3.6,0.67-4,3.42-4.04,4.3v-6.92c0-2.55,0.43-5.01,1.22-7.3
				c4.53-0.66,20.79-2.5,29.37-2.5C269.71,98.73,270.75,102.26,275.2,103.53L275.2,103.53z M253.15,151.68"/>
			<path class="st73" d="M267.69,99.45c-0.68,3.96,3.36,18.23,5.36,19.86c0,0-1.61,4.82,2.04,6.49c0,0-1.01-6.28,3.91-6.28
				l0.84-9.85l-4.31-8.89L267.69,99.45z"/>
			<path class="st75" d="M280.13,113.68c0,0,9.8-22.3-10.8-25.71c0,0-5.63-10.63-16.46-7.74c-10.83,2.89-17.65,2.94-22.62-1.78
				c0,0-2.7,5.32,0.78,9.86c0,0-3.3,1.33-4.21,5.41c-0.91,4.09-4.51,3.96-4.51,3.96s1.83,1.97,5.08,1.32c0,0-1.86,8.78,1.57,13.12
				c0,0,0.47-3.64,8.5-3.54c8.03,0.11,14.49,1.12,18.37-4.45c0,0-0.8,3.55-4.17,5.32c0,0,10.35,0,12.96-7.71
				C265.21,112.28,276.2,109.46,280.13,113.68z"/>
			<path class="st97" d="M279.21,92.82c-0.57-0.65-1.23-1.26-2-1.81c-7.29,0.81-20.12,0.47-27.34-10.02
				c-5.89,1.36-10.48,1.69-14.21,0.59C240.68,88.78,255,104.42,279.21,92.82z"/>
			<path class="st101" d="M280.13,113.68c0,0,2.48-5.65,2.32-11.7c-4.11,3.2-10.66,5.54-17.32-3.41c0,0-2.13,8.58-13.47,10.89
				c0,0,10.35,0,12.96-7.71C265.21,112.28,276.2,109.46,280.13,113.68z"/>
		</g>
	</g>
	<g>
		<path class="st75" d="M151.25,141.59c-0.88-9.2,10.09-36.51,17.1-48.98c7.01-12.47,19.43-11.42,22.61-7.84
			c0,0,18.02-5.28,25.51,6.52c4.67,7.37,6.06,24.78,5.94,40.52c-0.11,14.5-6.01,22.21-14.36,25.63c2.25-6.31,0.5-10.47,0.5-10.47
			c0.99,4.21-1.48,10.62-1.59,10.89c-0.81,0.29-1.63,0.55-2.48,0.76c2.05-6.53,0.52-11.43,0.52-11.43
			c-0.49,4.31-3.38,9.29-5.36,12.27C179.04,161.58,151.8,147.32,151.25,141.59z"/>
		<path class="st101" d="M221.92,115.41c0.39,5.35,0.53,10.97,0.49,16.4c-0.04,4.93-0.75,9.07-1.99,12.53
			c-21.51-10.29-43-21.67-43-21.67c-1.98-3.88,2.74-24.54,2.74-24.54S191.87,122.43,221.92,115.41z"/>
		<path class="st73" d="M218.66,148.19c-2.55,4.5-6.25,7.46-10.62,9.25c2.25-6.31,0.5-10.47,0.5-10.47
			c0.99,4.22-1.48,10.63-1.59,10.89c-0.81,0.29-1.63,0.55-2.48,0.76c2.05-6.53,0.52-11.43,0.52-11.43
			c-0.49,4.31-3.38,9.29-5.36,12.27c-14.35,1.48-31.91-4.99-41.44-10.99c-0.01-0.07-5.25-32.05,8.31-35.6
			c13.57-3.55,26.01,19.06,26.01,19.06l10.28-4.92C202.81,127.02,218.66,133.71,218.66,148.19z"/>
		<path class="st73" d="M202.48,253.99c-0.44-4.9-0.86-8.93-1.24-11.62c-0.31-2.2-1.95-2.86-3.27-3.21
			c-1.07-1.1-6.52-1.12-18.43-0.92c-11.91-0.2-17.36-0.18-18.43,0.92c-1.32,0.35-2.96,1-3.27,3.21c-0.38,2.69-0.8,6.72-1.24,11.62
			H202.48z"/>
		<path class="st7" d="M179.54,243.57c3.93,0,7.87-0.25,14.61-0.75c7.51-0.56,6.91-4.58,6.89-9.44
			c-0.09-21.16,2.93-27.24,4.71-32.94c2.24-7.16,5.03-27.64,0.69-32.53c-5.32-6.01-13.81-7.34-13.81-7.34l-6.11,2.52l-6.98,2.55
			l0,1.26v-0.18v0.18v-1.26l-6.98-2.55l-6.11-2.52c0,0-8.5,1.3-13.82,7.31c-4.34,4.9-1.54,25.41,0.7,32.57
			c1.78,5.7,4.81,11.77,4.71,32.94c-0.02,4.86-0.62,8.88,6.89,9.44C171.67,243.32,175.61,243.57,179.54,243.57z"/>
		<path class="st102" d="M189.78,243.13c1.32-0.09,2.77-0.2,4.37-0.32c7.51-0.56,6.91-4.58,6.89-9.44
			c-0.09-21.16,2.93-27.24,4.71-32.94c0.84-2.69,1.76-7.27,2.35-12.2c-1.52-2.96-2.86-4.93-3.9-5.78c0,0-0.88-0.09-1.14,1.41
			c-0.26,1.5-2.55,11.8-4.32,14.44c-1.76,2.64-8.28,2.82-18.41,2.82c-10.13,0-22.99-1.59-26.86-6.61c-0.44-0.57-1-0.72-1.64-0.51
			c0.47,2.59,0.99,4.84,1.49,6.43c0.78,2.49,1.79,5.05,2.68,8.91l0.55-1.04c0,0-0.62-3.75,2.81-3.75c3.44,0,27.74,1.15,34.08,5.9
			C199.8,215.21,197.18,240.67,189.78,243.13z"/>
		<path class="st72" d="M191.05,160.37c0.04-0.23-0.26-2.85-0.26-2.85s-2.08-1.67-5.97-0.93c-3.89,0.74-5.28,0.86-5.28,0.86
			s-1.38-0.12-5.28-0.86c-3.89-0.74-5.97,0.93-5.97,0.93s-0.3,2.62-0.26,2.85c0.55,3.82,11.51,5.82,11.51,5.82
			S190.51,164.19,191.05,160.37z"/>
		<path class="st95" d="M187.18,139.49l-0.22,5.24c0,0,0,10.74,0,12.37c0,0.79,0.73,1.93,2.03,2.92c-1.14,1.23-3.25,3.42-5.41,5.11
			h-8.08c-2.16-1.69-4.27-3.88-5.41-5.11c1.3-0.99,2.03-2.13,2.03-2.92c0-1.63,0-12.37,0-12.37l-0.22-5.24c0,0,3.76,0.67,7.64,1.63
			C183.42,140.17,187.18,139.49,187.18,139.49z"/>
		<path class="st98" d="M167.44,119.82c3.19,0.73,5.18,3.91,4.44,7.1c-0.73,3.19-3.91,5.18-7.1,4.44c-3.19-0.73-5.18-3.91-4.44-7.1
			C161.08,121.07,164.26,119.09,167.44,119.82z"/>
		<path class="st98" d="M204.72,128.41c3.19,0.73,5.18,3.91,4.44,7.1c-0.73,3.19-3.91,5.18-7.1,4.44c-3.19-0.73-5.17-3.91-4.44-7.1
			C198.36,129.66,201.54,127.68,204.72,128.41z"/>
		<path class="st99" d="M191.53,94.64L191.53,94.64c10.87,2.5,17.72,13.45,15.21,24.32l-4.14,17.96
			c-2.51,10.87-13.45,17.72-24.32,15.21l0,0c-10.87-2.5-17.72-13.45-15.21-24.32l4.14-17.96C169.71,98.98,180.66,92.13,191.53,94.64
			z"/>
		<path class="st95" d="M191.53,94.64L191.53,94.64c10.87,2.5,17.72,13.45,15.21,24.32l-4.14,17.97
			c-2.51,10.87-13.45,17.72-24.32,15.21h0c-0.33-0.08-0.66-0.16-0.99-0.25c9.45-0.02,14.88-3.14,17.59-7.42
			c10.09-15.96-8.16-23.1-13.98-30.83c-1.99-2.64-2.47-4.63-2.47-4.63c-2.35,4.13-9,6.41-12.75,7.41l1.51-6.57
			C169.71,98.98,180.66,92.13,191.53,94.64z"/>
		<path class="st101" d="M207.08,129.09l-3.83-2.75c0,0-3.46,4.62,0.11,7.32l0.57-2.46C204.21,129.96,205.15,128.64,207.08,129.09z"
			/>
		<path class="st75" d="M179.65,99.21c0,0-1.3,15.28,26.24,29.47l4.61-21.46l-12.54-14l-15.06-1.4c0,0-9.04,3.34-10.03,4.28
			c-0.99,0.94-8.73,13.76-8.73,13.76l2.36,3.02C166.51,112.87,173.47,111.48,179.65,99.21z"/>
		<path class="st101" d="M179.68,100.33c0.31,3.78,3.11,16.44,26.21,28.35l2.6-12.1c-20.17-1.51-28.34-18.44-28.34-18.44
			S179.97,98.97,179.68,100.33z"/>
		<path class="st97" d="M181.16,82.66c3.52-0.66,6.72-0.04,8.65,1.17c3.7,24.63,22.3,26.77,31.61,26.25
			c0.06,0.5,0.11,1.01,0.16,1.52C186.43,115.22,181.6,92.63,181.16,82.66z"/>
		<path class="st98" d="M184.1,169.27c0,0-1.83,3.74-2.64,4.32c-0.8,0.57,1.33,27.4,3.77,40.54c2.44,13.14-5.15,18.55-5.15,18.55
			s-8.18-5.41-5.73-18.55c2.44-13.14,4.06-39.97,3.26-40.54c-0.8-0.57-2.64-4.32-2.64-4.32l4.56-3.38L184.1,169.27z"/>
		<path class="st94" d="M184.1,169.27c0,0-1.83,3.74-2.64,4.32c-0.8,0.57,1.33,27.4,3.77,40.54c2.44,13.14-5.15,18.55-5.15,18.55
			s-8.18-5.41-5.73-18.55c0.34-1.8,0.66-3.95,0.97-6.3c8.31-5.98,5.51-27.25,5-29.97c-0.51-2.73-2.52-2.33-2.52-2.33
			c-0.01-1.16-0.07-1.85-0.19-1.93c-0.17-0.12-0.38-0.38-0.62-0.72c0.02,0,3.02,0.39,3.63-0.67c0.61-1.07-0.46-3.48-1.76-3.36
			c-0.91,0.08-2.02,1.82-2.61,2.86c-0.28-0.48-0.54-0.98-0.76-1.39l-0.21-1.26l4.24-3.15L184.1,169.27z"/>
		<path class="st103" d="M190.79,157.52c0,0-2.72,4.89-9.94,6.15c0,0-1.54,0.32-1.54,1.77s4.26,5.4,4.65,7.53
			c0.39,2.13,9.07-8.95,9.62-12.42C193.59,160.56,192.17,157.91,190.79,157.52z"/>
		<path class="st103" d="M168.29,157.52c0,0,2.72,4.89,9.94,6.15c0,0,1.54,0.32,1.54,1.77s-4.26,5.4-4.65,7.53
			c-0.39,2.13-9.07-8.95-9.62-12.42C165.49,160.56,166.91,157.91,168.29,157.52z"/>
		<path class="st7" d="M202.17,164.75c0,0,10.4,4.8,18.33,25.94c7.93,21.14,8.1,38.4,8.1,45.44c0,7.05-11.8,23.97-17.26,27.3
			c0,0-0.74,0.57-1.76,0.44c-1.02-0.13-2.29-2.64-2.29-3.74c0-1.1,5.9-7.22,10.3-17.53c4.4-10.3-3.69-37.31-11.84-45.03
			C196.92,189.21,195.5,174.98,202.17,164.75z"/>
		<path class="st102" d="M218.13,241.03c3.09-11.25-4.61-36.1-12.38-43.46c-1.85-1.75-3.37-3.75-4.56-5.92
			c0.95-3.43,1.72-6.96,1.87-7.79c0.26-1.5,1.14-1.41,1.14-1.41c2.99,2.47,8.45,14.09,13.56,32.23
			C222.87,232.83,218.13,241.03,218.13,241.03L218.13,241.03z"/>
		<path class="st7" d="M156.91,164.75c0,0-10.4,4.8-18.33,25.94c-7.93,21.14-8.1,38.4-8.1,45.44c0,7.05,11.8,23.97,17.26,27.3
			c0,0,0.74,0.57,1.76,0.44c1.02-0.13,2.29-2.64,2.29-3.74c0-1.1-5.9-7.22-10.3-17.53c-4.4-10.3,3.69-37.31,11.84-45.03
			C162.17,189.21,163.59,174.98,156.91,164.75z"/>
		<path class="st102" d="M140.5,238.78c-1.68-12.02,5.55-34.31,12.83-41.21c0.56-0.53,1.08-1.07,1.58-1.64
			c-0.56-0.44-1.04-0.91-1.43-1.41C149.6,189.5,136.4,216.81,140.5,238.78L140.5,238.78z"/>
	</g>
	<g>
		<g>
			<g>
				<path class="st104" d="M48.61,168.39c-7.49-7.63-13.07,2.06-12.29,11.79c0.78,9.73,9.58,44.41,6.89,56.21
					c-1.04,4.57-0.06,4.35,1.64,1.45C53.32,223.36,58.93,178.89,48.61,168.39z"/>
				<path class="st105" d="M42.84,239.69c0.14,0.45,0.53,0.26,1.08-0.45c9.96-27.03-0.39-68.98-0.42-69.11
					c-0.06-0.23-0.29-0.37-0.52-0.32c-0.23,0.06-0.37,0.29-0.32,0.52C42.7,170.47,53.19,212.98,42.84,239.69z"/>
			</g>
			<g>
				<path class="st105" d="M30.12,185.2c-7.9-4.18-9.89,4.95-6.81,12.5c3.08,7.55,18.86,32.95,19.69,43.03
					c0.32,3.91,1.05,3.48,1.67,0.74C47.77,227.8,40.99,190.96,30.12,185.2z"/>
				<path class="st104" d="M43.54,243.46c0.23,0.32,0.49,0.07,0.75-0.63c1.1-24.05-17.74-54.84-17.8-54.94
					c-0.1-0.17-0.33-0.22-0.49-0.12c-0.17,0.1-0.22,0.32-0.12,0.49C25.94,188.35,45.04,219.57,43.54,243.46z"/>
			</g>
			<g>
				<path class="st105" d="M63.5,195.76c7.65-3.34,8.87,5.3,5.47,12.13c-3.4,6.82-19.89,29.38-21.38,38.72
					c-0.58,3.62-1.23,3.17-1.61,0.57C44.06,234.21,52.96,200.36,63.5,195.76z"/>
				<path class="st104" d="M46.89,249.1c-0.24,0.29-0.46,0.03-0.65-0.64c0.66-22.49,20.39-49.86,20.45-49.95
					c0.11-0.15,0.32-0.19,0.47-0.08c0.15,0.11,0.19,0.32,0.08,0.47C67.18,198.99,47.18,226.73,46.89,249.1z"/>
			</g>
		</g>
		<g>
			<path class="st75" d="M36.61,228.29h22.42c0.67,0,1.22,0.55,1.22,1.22v5.54c0,0.67-0.55,1.22-1.22,1.22H36.61
				c-0.67,0-1.22-0.55-1.22-1.22v-5.54C35.39,228.84,35.94,228.29,36.61,228.29z"/>
			<polygon class="st75" points="40.46,232.79 55.19,232.79 59.04,236.26 55.9,248.37 47.82,248.37 39.75,248.37 36.61,236.26 			
				"/>
			<polygon class="st73" points="59.04,236.26 58.39,238.75 37.26,238.75 36.61,236.26 			"/>
		</g>
	</g>
	<g>
		<path class="st106" d="M195.51,237.05h25.4c1.57,0,2.99,0.64,4.02,1.67c1.03,1.03,1.67,2.46,1.67,4.02c0,1.57-0.64,2.99-1.67,4.02
			c-1.03,1.03-2.46,1.67-4.02,1.67h-25.4c-1.57,0-2.99-0.64-4.02-1.67c-1.03-1.03-1.67-2.46-1.67-4.02c0-1.57,0.64-2.99,1.67-4.02
			C192.52,237.69,193.95,237.05,195.51,237.05z"/>
		<path class="st7" d="M240.38,237.72h-21.07c-2.77,0-5.03,2.27-5.03,5.03l0,0c0,2.77,2.26,5.03,5.03,5.03h21.07V237.72z"/>
		<path class="st107" d="M240.38,237.05c0.37,0,0.66,0.3,0.66,0.66c0,0.37-0.3,0.66-0.66,0.66h-21.07c-1.2,0-2.29,0.49-3.09,1.28
			c-0.79,0.79-1.28,1.88-1.28,3.09c0,1.2,0.49,2.29,1.28,3.09c0.79,0.79,1.88,1.28,3.09,1.28h21.07c0.37,0,0.66,0.3,0.66,0.66
			c0,0.37-0.3,0.66-0.66,0.66h-21.07c-1.57,0-2.99-0.64-4.02-1.67c-1.03-1.03-1.67-2.46-1.67-4.02c0-1.57,0.64-2.99,1.67-4.02
			c1.03-1.03,2.46-1.67,4.02-1.67H240.38z"/>
		<path class="st107" d="M197.27,242.75c0-1.57,0.64-2.99,1.67-4.02c1.03-1.03,2.46-1.67,4.02-1.67h-4.95
			c-1.57,0-2.99,0.64-4.02,1.67c-1.03,1.03-1.67,2.46-1.67,4.02c0,1.57,0.64,2.99,1.67,4.02c1.03,1.03,2.46,1.67,4.02,1.67h4.95
			c-1.57,0-2.99-0.64-4.02-1.67C197.91,245.74,197.27,244.32,197.27,242.75z"/>
		<path class="st107" d="M204.45,242.75c0-1.57,0.64-2.99,1.67-4.02c1.03-1.03,2.46-1.67,4.02-1.67h-4.95
			c-1.57,0-2.99,0.64-4.02,1.67c-1.03,1.03-1.67,2.46-1.67,4.02c0,1.57,0.64,2.99,1.67,4.02c1.03,1.03,2.46,1.67,4.02,1.67h4.95
			c-1.57,0-2.99-0.64-4.02-1.67C205.09,245.74,204.45,244.32,204.45,242.75z"/>
	</g>
	<g>
		<path class="st107" d="M232.23,226.55h-23.48c-1.45,0-2.77,0.59-3.72,1.55c-0.95,0.95-1.55,2.27-1.55,3.72
			c0,1.45,0.59,2.77,1.55,3.72c0.95,0.95,2.27,1.55,3.72,1.55h23.48c1.45,0,2.77-0.59,3.72-1.55c0.95-0.95,1.55-2.27,1.55-3.72
			c0-1.45-0.59-2.77-1.55-3.72C235,227.14,233.68,226.55,232.23,226.55z"/>
		<path class="st7" d="M190.76,227.16h19.48c2.56,0,4.65,2.09,4.65,4.65l0,0c0,2.56-2.09,4.65-4.65,4.65h-19.48V227.16z"/>
		<path class="st108" d="M190.76,226.55c-0.34,0-0.61,0.27-0.61,0.61c0,0.34,0.27,0.61,0.61,0.61h19.48c1.11,0,2.12,0.45,2.85,1.19
			c0.73,0.73,1.19,1.74,1.19,2.85s-0.45,2.12-1.19,2.85c-0.73,0.73-1.74,1.19-2.85,1.19h-19.48c-0.34,0-0.61,0.27-0.61,0.61
			c0,0.34,0.27,0.61,0.61,0.61h19.48c1.45,0,2.77-0.59,3.72-1.55c0.95-0.95,1.55-2.27,1.55-3.72c0-1.45-0.59-2.77-1.55-3.72
			c-0.95-0.95-2.27-1.55-3.72-1.55H190.76z"/>
		<path class="st108" d="M234.47,231.81c0-1.45-0.59-2.77-1.55-3.72c-0.95-0.95-2.27-1.55-3.72-1.55h1.28
			c1.45,0,2.77,0.59,3.72,1.55c0.95,0.95,1.55,2.27,1.55,3.72c0,1.45-0.59,2.77-1.55,3.72c-0.95,0.95-2.27,1.55-3.72,1.55h-1.28
			c1.45,0,2.77-0.59,3.72-1.55C233.87,234.58,234.47,233.26,234.47,231.81z"/>
		<path class="st108" d="M219.24,231.81c0-1.45-0.59-2.77-1.55-3.72c-0.95-0.95-2.27-1.55-3.72-1.55h1.28
			c1.45,0,2.77,0.59,3.72,1.55c0.95,0.95,1.55,2.27,1.55,3.72c0,1.45-0.59,2.77-1.55,3.72c-0.95,0.95-2.27,1.55-3.72,1.55h-1.28
			c1.45,0,2.77-0.59,3.72-1.55C218.65,234.58,219.24,233.26,219.24,231.81z"/>
	</g>
	<path class="st109" d="M60.98,260.76H298.1c1.58,0,2.88,1.4,2.88,3.12v15.33c0,1.71-1.3,3.12-2.88,3.12H60.98
		c-1.58,0-2.88-1.4-2.88-3.12v-15.33C58.11,262.16,59.4,260.76,60.98,260.76z"/>
	<path class="st108" d="M76.95,282.33h6.16v-15.97h-6.16V282.33L76.95,282.33z M274.25,282.33h7.89v-15.97h-7.89V282.33
		L274.25,282.33z M162.34,282.33h107.97v-15.97H162.34V282.33L162.34,282.33z M141.9,282.33h7.89v-15.97h-7.89V282.33L141.9,282.33z
		 M128.99,282.33h4.66v-15.97h-4.66V282.33z"/>
	<path class="st73" d="M60.98,260.76H298.1c1.58,0,2.88,1.4,2.88,3.12v6.56H58.11v-6.56C58.11,262.16,59.4,260.76,60.98,260.76z"/>
	<path class="st110" d="M31.32,248.45h296.45c1.38,0,2.5,1.22,2.5,2.71v12.9c0,1.49-1.13,2.71-2.5,2.71H31.32
		c-1.37,0-2.5-1.22-2.5-2.71v-12.9C28.82,249.66,29.94,248.45,31.32,248.45z"/>
	<path class="st111" d="M309.98,248.45h8.65v18.32h-8.65V248.45L309.98,248.45z M201.61,248.45h6.55v18.32h-6.55V248.45
		L201.61,248.45z M45.44,248.45h11.08v18.32H45.44V248.45L45.44,248.45z M62.06,248.45h99.24v18.32H62.06V248.45L62.06,248.45z
		 M178.94,248.45h11.08v18.32h-11.08V248.45z"/>
	<path class="st97" d="M62.63,275.16c0.77,0,1.4,0.68,1.4,1.52c0,0.84-0.63,1.52-1.4,1.52c-0.77,0-1.4-0.68-1.4-1.52
		C61.23,275.84,61.86,275.16,62.63,275.16z"/>
	<path class="st97" d="M296.45,275.16c0.77,0,1.4,0.68,1.4,1.52c0,0.84-0.63,1.52-1.4,1.52c-0.77,0-1.4-0.68-1.4-1.52
		C295.05,275.84,295.68,275.16,296.45,275.16z"/>
	<path class="st7" d="M330.27,253.47h-111.7l-5.29,3.31c-0.07,0.04-0.15,0.06-0.22,0.06v0H28.82v-0.97h184.12l5.25-3.28
		c0.07-0.06,0.16-0.09,0.26-0.09h111.82V253.47z"/>
	<path class="st7" d="M434.76,258.3c0-0.32-0.26-0.57-0.57-0.57c-0.32,0-0.57,0.26-0.57,0.57v1.34h-1.34
		c-0.32,0-0.57,0.26-0.57,0.57c0,0.32,0.26,0.57,0.57,0.57h1.34v1.34c0,0.32,0.26,0.57,0.57,0.57c0.32,0,0.57-0.26,0.57-0.57v-1.34
		h1.34c0.32,0,0.57-0.26,0.57-0.57c0-0.32-0.26-0.57-0.57-0.57h-1.34V258.3z"/>
	<g>
		<path class="st97" d="M326.77,142.16c0-0.32-0.25-0.57-0.57-0.57c-0.32,0-0.57,0.26-0.57,0.57v1.34h-1.34
			c-0.31,0-0.57,0.26-0.57,0.57c0,0.32,0.26,0.57,0.57,0.57h1.34v1.34c0,0.32,0.26,0.57,0.57,0.57c0.32,0,0.57-0.26,0.57-0.57v-1.34
			h1.34c0.32,0,0.57-0.26,0.57-0.57c0-0.32-0.26-0.57-0.57-0.57h-1.34V142.16z"/>
		<path class="st7" d="M404.46,240.58c0-0.32-0.26-0.57-0.57-0.57c-0.32,0-0.57,0.26-0.57,0.57v1.34h-1.34
			c-0.32,0-0.57,0.26-0.57,0.57c0,0.32,0.26,0.57,0.57,0.57h1.34v1.34c0,0.31,0.26,0.57,0.57,0.57c0.32,0,0.57-0.26,0.57-0.57v-1.34
			h1.34c0.32,0,0.57-0.26,0.57-0.57c0-0.32-0.26-0.57-0.57-0.57h-1.34V240.58z"/>
		<path class="st97" d="M372.95,246.4c0-0.32-0.26-0.57-0.57-0.57c-0.32,0-0.57,0.26-0.57,0.57v1.34h-1.34
			c-0.32,0-0.57,0.26-0.57,0.57c0,0.32,0.26,0.57,0.57,0.57h1.34v1.34c0,0.31,0.26,0.57,0.57,0.57c0.32,0,0.57-0.26,0.57-0.57v-1.34
			h1.34c0.32,0,0.57-0.26,0.57-0.57c0-0.32-0.26-0.57-0.57-0.57h-1.34V246.4z"/>
		<path class="st97" d="M84.05,153.21c0-0.32-0.26-0.57-0.57-0.57s-0.57,0.26-0.57,0.57v1.34h-1.34c-0.32,0-0.57,0.26-0.57,0.57
			c0,0.32,0.26,0.57,0.57,0.57h1.34v1.34c0,0.32,0.26,0.57,0.57,0.57s0.57-0.26,0.57-0.57v-1.34h1.34c0.32,0,0.57-0.26,0.57-0.57
			c0-0.32-0.26-0.57-0.57-0.57h-1.34V153.21z"/>
		<path class="st97" d="M10.83,233.09c0-0.32-0.26-0.57-0.57-0.57c-0.32,0-0.57,0.26-0.57,0.57v1.34H8.34
			c-0.32,0-0.57,0.26-0.57,0.57c0,0.32,0.26,0.57,0.57,0.57h1.34v1.34c0,0.31,0.26,0.57,0.57,0.57c0.32,0,0.57-0.26,0.57-0.57v-1.34
			h1.34c0.32,0,0.57-0.26,0.57-0.57c0-0.32-0.26-0.57-0.57-0.57h-1.34V233.09z"/>
		<path class="st97" d="M51.43,101.28c0-0.32-0.26-0.57-0.57-0.57c-0.32,0-0.57,0.26-0.57,0.57v1.34h-1.34
			c-0.32,0-0.57,0.26-0.57,0.57s0.26,0.57,0.57,0.57h1.34v1.34c0,0.32,0.26,0.57,0.57,0.57c0.32,0,0.57-0.26,0.57-0.57v-1.34h1.34
			c0.32,0,0.57-0.26,0.57-0.57s-0.26-0.57-0.57-0.57h-1.34V101.28z"/>
		<path class="st97" d="M89.85,64.01c0-0.32-0.26-0.57-0.57-0.57s-0.57,0.26-0.57,0.57v1.34h-1.34c-0.32,0-0.57,0.26-0.57,0.57
			c0,0.32,0.26,0.57,0.57,0.57h1.34v1.34c0,0.32,0.26,0.57,0.57,0.57s0.57-0.26,0.57-0.57V66.5h1.34c0.31,0,0.57-0.26,0.57-0.57
			c0-0.32-0.26-0.57-0.57-0.57h-1.34V64.01z"/>
		<path class="st97" d="M181.72,30.06c0-0.32-0.26-0.57-0.57-0.57c-0.32,0-0.57,0.26-0.57,0.57v1.34h-1.34
			c-0.32,0-0.57,0.26-0.57,0.57c0,0.32,0.26,0.57,0.57,0.57h1.34v1.34c0,0.32,0.26,0.57,0.57,0.57c0.32,0,0.57-0.26,0.57-0.57v-1.34
			h1.34c0.32,0,0.57-0.26,0.57-0.57c0-0.32-0.26-0.57-0.57-0.57h-1.34V30.06z"/>
		<path class="st7" d="M293.64,147.13c0-0.32-0.26-0.57-0.57-0.57c-0.32,0-0.57,0.26-0.57,0.57v1.34h-1.34
			c-0.32,0-0.57,0.26-0.57,0.57c0,0.32,0.26,0.57,0.57,0.57h1.34v1.34c0,0.32,0.25,0.57,0.57,0.57c0.32,0,0.57-0.26,0.57-0.57v-1.34
			h1.34c0.32,0,0.57-0.26,0.57-0.57c0-0.32-0.25-0.57-0.57-0.57h-1.34V147.13z"/>
		<path class="st7" d="M346.23,237.66c0-0.32-0.26-0.57-0.57-0.57c-0.32,0-0.57,0.26-0.57,0.57v1.34h-1.34
			c-0.32,0-0.57,0.26-0.57,0.57c0,0.32,0.26,0.57,0.57,0.57h1.34v1.34c0,0.32,0.26,0.57,0.57,0.57c0.32,0,0.57-0.26,0.57-0.57v-1.34
			h1.34c0.32,0,0.57-0.26,0.57-0.57c0-0.32-0.26-0.57-0.57-0.57h-1.34V237.66z"/>
		<path class="st7" d="M72.64,103.86c0-0.32-0.26-0.57-0.57-0.57s-0.57,0.26-0.57,0.57v1.34h-1.34c-0.32,0-0.57,0.26-0.57,0.57
			c0,0.32,0.26,0.57,0.57,0.57h1.34v1.34c0,0.32,0.26,0.57,0.57,0.57s0.57-0.26,0.57-0.57v-1.34h1.34c0.32,0,0.57-0.26,0.57-0.57
			c0-0.32-0.26-0.57-0.57-0.57h-1.34V103.86z"/>
		<path class="st7" d="M137.87,29.31c0-0.32-0.26-0.57-0.57-0.57c-0.32,0-0.57,0.26-0.57,0.57v1.34h-1.34
			c-0.32,0-0.57,0.26-0.57,0.57c0,0.32,0.26,0.57,0.57,0.57h1.34v1.34c0,0.32,0.26,0.57,0.57,0.57c0.32,0,0.57-0.26,0.57-0.57v-1.34
			h1.34c0.31,0,0.57-0.26,0.57-0.57c0-0.32-0.26-0.57-0.57-0.57h-1.34V29.31z"/>
		<path class="st7" d="M73.31,57.93c0-0.32-0.26-0.57-0.57-0.57s-0.57,0.26-0.57,0.57v1.34h-1.34c-0.32,0-0.57,0.26-0.57,0.57
			c0,0.32,0.26,0.57,0.57,0.57h1.34v1.34c0,0.32,0.26,0.57,0.57,0.57s0.57-0.26,0.57-0.57v-1.34h1.34c0.31,0,0.57-0.26,0.57-0.57
			c0-0.32-0.26-0.57-0.57-0.57h-1.34V57.93z"/>
		<path class="st7" d="M15.39,215.7c0-0.32-0.26-0.57-0.57-0.57c-0.32,0-0.57,0.26-0.57,0.57v1.34h-1.34
			c-0.32,0-0.57,0.26-0.57,0.57c0,0.32,0.26,0.57,0.57,0.57h1.34v1.34c0,0.32,0.26,0.57,0.57,0.57c0.32,0,0.57-0.26,0.57-0.57v-1.34
			h1.34c0.32,0,0.57-0.26,0.57-0.57c0-0.32-0.26-0.57-0.57-0.57h-1.34V215.7z"/>
		<path class="st7" d="M49.34,277.6c0-0.32-0.26-0.57-0.57-0.57c-0.32,0-0.57,0.26-0.57,0.57v1.34h-1.34
			c-0.32,0-0.57,0.26-0.57,0.57c0,0.32,0.26,0.57,0.57,0.57h1.34v1.34c0,0.32,0.26,0.57,0.57,0.57c0.32,0,0.57-0.26,0.57-0.57v-1.34
			h1.34c0.32,0,0.57-0.26,0.57-0.57c0-0.31-0.26-0.57-0.57-0.57h-1.34V277.6z"/>
		<path class="st7" d="M225.57,150.57c0-0.32-0.26-0.57-0.57-0.57s-0.57,0.26-0.57,0.57v1.34h-1.34c-0.32,0-0.57,0.26-0.57,0.57
			c0,0.32,0.26,0.57,0.57,0.57h1.34v1.34c0,0.32,0.26,0.57,0.57,0.57s0.57-0.26,0.57-0.57v-1.34h1.34c0.32,0,0.57-0.26,0.57-0.57
			c0-0.32-0.26-0.57-0.57-0.57h-1.34V150.57z"/>
		<path class="st7" d="M136.54,149.79c0-0.32-0.26-0.57-0.57-0.57c-0.32,0-0.57,0.26-0.57,0.57v1.34h-1.34
			c-0.32,0-0.57,0.26-0.57,0.57c0,0.32,0.26,0.57,0.57,0.57h1.34v1.34c0,0.32,0.26,0.57,0.57,0.57c0.32,0,0.57-0.26,0.57-0.57v-1.34
			h1.34c0.32,0,0.57-0.26,0.57-0.57c0-0.32-0.26-0.57-0.57-0.57h-1.34V149.79z"/>
		<path class="st7" d="M165.83,42.62c0-0.32-0.26-0.57-0.57-0.57c-0.32,0-0.57,0.26-0.57,0.57v1.34h-1.34
			c-0.32,0-0.57,0.26-0.57,0.57c0,0.32,0.26,0.57,0.57,0.57h1.34v1.34c0,0.32,0.26,0.57,0.57,0.57c0.32,0,0.57-0.26,0.57-0.57v-1.34
			h1.34c0.32,0,0.57-0.26,0.57-0.57c0-0.32-0.26-0.57-0.57-0.57h-1.34V42.62z"/>
		<path class="st97" d="M120.08,33.48c0-0.32-0.26-0.57-0.57-0.57c-0.32,0-0.57,0.26-0.57,0.57v1.34h-1.34
			c-0.32,0-0.57,0.26-0.57,0.57c0,0.32,0.26,0.57,0.57,0.57h1.34v1.34c0,0.32,0.26,0.57,0.57,0.57c0.32,0,0.57-0.26,0.57-0.57v-1.34
			h1.34c0.32,0,0.57-0.26,0.57-0.57c0-0.32-0.26-0.57-0.57-0.57h-1.34V33.48z"/>
		<path class="st97" d="M348.4,263.14c0-0.32-0.26-0.57-0.57-0.57c-0.32,0-0.57,0.26-0.57,0.57v1.34h-1.34
			c-0.32,0-0.57,0.26-0.57,0.57c0,0.32,0.26,0.57,0.57,0.57h1.34v1.34c0,0.32,0.26,0.57,0.57,0.57c0.32,0,0.57-0.26,0.57-0.57v-1.34
			h1.34c0.32,0,0.57-0.26,0.57-0.57c0-0.32-0.26-0.57-0.57-0.57h-1.34V263.14z"/>
	</g>
	<path class="st7" d="M293.84,108.2h53.38c1.98,0,3.6,1.62,3.6,3.6v21.43c0,1.98-1.62,3.6-3.6,3.6h-53.38c-1.98,0-3.6-1.62-3.6-3.6
		V111.8C290.24,109.82,291.86,108.2,293.84,108.2z"/>
	<path class="st107" d="M297.73,124.12c1.48,0,2.83,0.6,3.8,1.58c0.97,0.97,1.58,2.32,1.58,3.8c0,1.49-0.6,2.83-1.58,3.81
		c-0.97,0.97-2.32,1.58-3.8,1.58c-1.49,0-2.83-0.6-3.8-1.58c-0.97-0.97-1.58-2.32-1.58-3.81c0-1.49,0.6-2.83,1.58-3.8
		C294.9,124.72,296.24,124.12,297.73,124.12L297.73,124.12z M300.87,126.36c-0.8-0.8-1.91-1.3-3.14-1.3c-1.23,0-2.34,0.5-3.14,1.3
		c-0.8,0.8-1.3,1.91-1.3,3.14c0,1.23,0.5,2.34,1.3,3.14c0.8,0.8,1.91,1.3,3.14,1.3c1.23,0,2.33-0.5,3.14-1.3
		c0.8-0.8,1.3-1.91,1.3-3.14C302.17,128.28,301.67,127.17,300.87,126.36z"/>
	<path class="st107" d="M297.73,126.37c0.86,0,1.65,0.35,2.22,0.92c0.57,0.57,0.92,1.35,0.92,2.22c0,0.87-0.35,1.65-0.92,2.22
		c-0.57,0.57-1.35,0.92-2.22,0.92c-0.87,0-1.65-0.35-2.22-0.92c-0.57-0.57-0.92-1.35-0.92-2.22c0-0.87,0.35-1.65,0.92-2.22
		C296.08,126.72,296.86,126.37,297.73,126.37L297.73,126.37z M299.28,127.95c-0.4-0.4-0.95-0.64-1.55-0.64
		c-0.61,0-1.15,0.25-1.55,0.64c-0.4,0.4-0.64,0.94-0.64,1.55c0,0.61,0.24,1.15,0.64,1.55c0.4,0.4,0.95,0.64,1.55,0.64
		c0.6,0,1.15-0.25,1.55-0.64c0.4-0.4,0.64-0.94,0.64-1.55C299.92,128.9,299.67,128.35,299.28,127.95z"/>
	<path class="st107" d="M297.73,130.46c0.53,0,0.96-0.43,0.96-0.96c0-0.53-0.43-0.96-0.96-0.96c-0.53,0-0.96,0.43-0.96,0.96
		C296.77,130.03,297.2,130.46,297.73,130.46z"/>
	<path class="st71" d="M295.19,111.2h50.68c0.37,0,0.66,0.3,0.66,0.67v0c0,0.37-0.3,0.67-0.66,0.67h-50.68
		c-0.37,0-0.67-0.3-0.67-0.67v0C294.53,111.5,294.82,111.2,295.19,111.2z"/>
	<path class="st71" d="M295.19,115.27h50.68c0.37,0,0.66,0.3,0.66,0.67v0c0,0.37-0.3,0.67-0.66,0.67h-50.68
		c-0.37,0-0.67-0.3-0.67-0.67v0C294.53,115.57,294.82,115.27,295.19,115.27z"/>
	<path class="st71" d="M295.19,119.35h50.68c0.37,0,0.66,0.3,0.66,0.67v0c0,0.37-0.3,0.67-0.66,0.67h-50.68
		c-0.37,0-0.67-0.3-0.67-0.67v0C294.53,119.65,294.82,119.35,295.19,119.35z"/>
	<path class="st71" d="M306.67,123.43h39.19c0.37,0,0.66,0.3,0.66,0.67v0c0,0.37-0.3,0.67-0.66,0.67h-39.19
		c-0.37,0-0.67-0.3-0.67-0.67v0C306.01,123.73,306.31,123.43,306.67,123.43z"/>
	<path class="st71" d="M306.67,127.67h39.19c0.37,0,0.66,0.3,0.66,0.67l0,0c0,0.37-0.3,0.67-0.66,0.67h-39.19
		c-0.37,0-0.67-0.3-0.67-0.67l0,0C306.01,127.97,306.31,127.67,306.67,127.67z"/>
	<path class="st71" d="M306.67,131.91h39.19c0.37,0,0.66,0.3,0.66,0.67l0,0c0,0.37-0.3,0.67-0.66,0.67h-39.19
		c-0.37,0-0.67-0.3-0.67-0.67l0,0C306.01,132.21,306.31,131.91,306.67,131.91z"/>
</g>
</svg>
