<?xml version="1.0" encoding="utf-8"?>
<!-- Generator: Adobe Illustrator 24.0.2, SVG Export Plug-In . SVG Version: 6.00 Build 0)  -->
<svg version="1.1" id="Layer_1" xmlns="http://www.w3.org/2000/svg" xmlns:xlink="http://www.w3.org/1999/xlink" x="0px" y="0px"
	 viewBox="0 0 165 165" style="enable-background:new 0 0 165 165;" xml:space="preserve">
<style type="text/css">
	.st0{opacity:0;fill-rule:evenodd;clip-rule:evenodd;fill:#29A9E1;}
	.st1{fill-rule:evenodd;clip-rule:evenodd;fill:#E4E5E6;}
</style>
<g>
	<rect class="st0" width="165" height="165"/>
	<path class="st1" d="M9.27,6.54c0.22-0.22,0.22-0.59,0-0.81c-0.22-0.22-0.59-0.22-0.81,0L7.5,6.69L6.54,5.73
		c-0.22-0.22-0.59-0.22-0.81,0c-0.22,0.22-0.22,0.59,0,0.81L6.69,7.5L5.73,8.46c-0.22,0.22-0.22,0.59,0,0.81
		c0.22,0.22,0.59,0.22,0.81,0L7.5,8.31l0.96,0.96c0.22,0.22,0.59,0.22,0.81,0c0.22-0.22,0.22-0.59,0-0.81L8.31,7.5L9.27,6.54z"/>
	<path class="st1" d="M24.27,6.54c0.22-0.22,0.22-0.59,0-0.81c-0.22-0.22-0.59-0.22-0.81,0L22.5,6.69l-0.96-0.96
		c-0.22-0.22-0.59-0.22-0.81,0c-0.22,0.22-0.22,0.59,0,0.81l0.96,0.96l-0.96,0.96c-0.22,0.22-0.22,0.59,0,0.81
		c0.22,0.22,0.59,0.22,0.81,0l0.96-0.96l0.96,0.96c0.22,0.22,0.59,0.22,0.81,0c0.22-0.22,0.22-0.59,0-0.81L23.31,7.5L24.27,6.54z"/>
	<path class="st1" d="M39.27,6.54c0.22-0.22,0.22-0.59,0-0.81c-0.22-0.22-0.59-0.22-0.81,0L37.5,6.69l-0.96-0.96
		c-0.22-0.22-0.59-0.22-0.81,0c-0.22,0.22-0.22,0.59,0,0.81l0.96,0.96l-0.96,0.96c-0.22,0.22-0.22,0.59,0,0.81
		c0.22,0.22,0.59,0.22,0.81,0l0.96-0.96l0.96,0.96c0.22,0.22,0.59,0.22,0.81,0c0.22-0.22,0.22-0.59,0-0.81L38.31,7.5L39.27,6.54z"/>
	<path class="st1" d="M54.27,6.54c0.22-0.22,0.22-0.59,0-0.81c-0.22-0.22-0.59-0.22-0.81,0L52.5,6.69l-0.96-0.96
		c-0.22-0.22-0.59-0.22-0.81,0c-0.22,0.22-0.22,0.59,0,0.81l0.96,0.96l-0.96,0.96c-0.22,0.22-0.22,0.59,0,0.81
		c0.22,0.22,0.59,0.22,0.81,0l0.96-0.96l0.96,0.96c0.22,0.22,0.59,0.22,0.81,0c0.22-0.22,0.22-0.59,0-0.81L53.31,7.5L54.27,6.54z"/>
	<path class="st1" d="M69.27,6.54c0.22-0.22,0.22-0.59,0-0.81c-0.22-0.22-0.59-0.22-0.81,0L67.5,6.69l-0.96-0.96
		c-0.22-0.22-0.59-0.22-0.81,0c-0.22,0.22-0.22,0.59,0,0.81l0.96,0.96l-0.96,0.96c-0.22,0.22-0.22,0.59,0,0.81
		c0.22,0.22,0.59,0.22,0.81,0l0.96-0.96l0.96,0.96c0.22,0.22,0.59,0.22,0.81,0c0.22-0.22,0.22-0.59,0-0.81L68.31,7.5L69.27,6.54z"/>
	<path class="st1" d="M84.27,6.54c0.22-0.22,0.22-0.59,0-0.81c-0.22-0.22-0.59-0.22-0.81,0L82.5,6.69l-0.96-0.96
		c-0.22-0.22-0.59-0.22-0.81,0c-0.22,0.22-0.22,0.59,0,0.81l0.96,0.96l-0.96,0.96c-0.22,0.22-0.22,0.59,0,0.81
		c0.22,0.22,0.59,0.22,0.81,0l0.96-0.96l0.96,0.96c0.22,0.22,0.59,0.22,0.81,0c0.22-0.22,0.22-0.59,0-0.81L83.31,7.5L84.27,6.54z"/>
	<path class="st1" d="M99.27,6.54c0.22-0.22,0.22-0.59,0-0.81c-0.22-0.22-0.59-0.22-0.81,0L97.5,6.69l-0.96-0.96
		c-0.22-0.22-0.59-0.22-0.81,0c-0.22,0.22-0.22,0.59,0,0.81l0.96,0.96l-0.96,0.96c-0.22,0.22-0.22,0.59,0,0.81
		c0.22,0.22,0.59,0.22,0.81,0l0.96-0.96l0.96,0.96c0.22,0.22,0.59,0.22,0.81,0c0.22-0.22,0.22-0.59,0-0.81L98.31,7.5L99.27,6.54z"/>
	<path class="st1" d="M114.27,6.54c0.22-0.22,0.22-0.59,0-0.81c-0.22-0.22-0.59-0.22-0.81,0l-0.96,0.96l-0.96-0.96
		c-0.22-0.22-0.59-0.22-0.81,0c-0.22,0.22-0.22,0.59,0,0.81l0.96,0.96l-0.96,0.96c-0.22,0.22-0.22,0.59,0,0.81
		c0.22,0.22,0.59,0.22,0.81,0l0.96-0.96l0.96,0.96c0.22,0.22,0.59,0.22,0.81,0c0.22-0.22,0.22-0.59,0-0.81l-0.96-0.96L114.27,6.54z"
		/>
	<path class="st1" d="M129.27,6.54c0.22-0.22,0.22-0.59,0-0.81c-0.22-0.22-0.59-0.22-0.81,0l-0.96,0.96l-0.96-0.96
		c-0.22-0.22-0.59-0.22-0.81,0c-0.22,0.22-0.22,0.59,0,0.81l0.96,0.96l-0.96,0.96c-0.22,0.22-0.22,0.59,0,0.81
		c0.22,0.22,0.59,0.22,0.81,0l0.96-0.96l0.96,0.96c0.22,0.22,0.59,0.22,0.81,0c0.22-0.22,0.22-0.59,0-0.81l-0.96-0.96L129.27,6.54z"
		/>
	<path class="st1" d="M144.27,6.54c0.22-0.22,0.22-0.59,0-0.81c-0.22-0.22-0.59-0.22-0.81,0l-0.96,0.96l-0.96-0.96
		c-0.22-0.22-0.59-0.22-0.81,0c-0.22,0.22-0.22,0.59,0,0.81l0.96,0.96l-0.96,0.96c-0.22,0.22-0.22,0.59,0,0.81
		c0.22,0.22,0.59,0.22,0.81,0l0.96-0.96l0.96,0.96c0.22,0.22,0.59,0.22,0.81,0c0.22-0.22,0.22-0.59,0-0.81l-0.96-0.96L144.27,6.54z"
		/>
	<path class="st1" d="M159.27,6.54c0.22-0.22,0.22-0.59,0-0.81c-0.22-0.22-0.59-0.22-0.81,0l-0.96,0.96l-0.96-0.96
		c-0.22-0.22-0.59-0.22-0.81,0c-0.22,0.22-0.22,0.59,0,0.81l0.96,0.96l-0.96,0.96c-0.22,0.22-0.22,0.59,0,0.81
		c0.22,0.22,0.59,0.22,0.81,0l0.96-0.96l0.96,0.96c0.22,0.22,0.59,0.22,0.81,0c0.22-0.22,0.22-0.59,0-0.81l-0.96-0.96L159.27,6.54z"
		/>
	<path class="st1" d="M9.27,21.54c0.22-0.22,0.22-0.59,0-0.81c-0.22-0.22-0.59-0.22-0.81,0L7.5,21.69l-0.96-0.96
		c-0.22-0.22-0.59-0.22-0.81,0c-0.22,0.22-0.22,0.59,0,0.81l0.96,0.96l-0.96,0.96c-0.22,0.22-0.22,0.59,0,0.81
		c0.22,0.22,0.59,0.22,0.81,0l0.96-0.96l0.96,0.96c0.22,0.22,0.59,0.22,0.81,0c0.22-0.22,0.22-0.59,0-0.81L8.31,22.5L9.27,21.54z"/>
	<path class="st1" d="M24.27,21.54c0.22-0.22,0.22-0.59,0-0.81c-0.22-0.22-0.59-0.22-0.81,0l-0.96,0.96l-0.96-0.96
		c-0.22-0.22-0.59-0.22-0.81,0c-0.22,0.22-0.22,0.59,0,0.81l0.96,0.96l-0.96,0.96c-0.22,0.22-0.22,0.59,0,0.81
		c0.22,0.22,0.59,0.22,0.81,0l0.96-0.96l0.96,0.96c0.22,0.22,0.59,0.22,0.81,0c0.22-0.22,0.22-0.59,0-0.81l-0.96-0.96L24.27,21.54z"
		/>
	<path class="st1" d="M39.27,21.54c0.22-0.22,0.22-0.59,0-0.81c-0.22-0.22-0.59-0.22-0.81,0l-0.96,0.96l-0.96-0.96
		c-0.22-0.22-0.59-0.22-0.81,0c-0.22,0.22-0.22,0.59,0,0.81l0.96,0.96l-0.96,0.96c-0.22,0.22-0.22,0.59,0,0.81
		c0.22,0.22,0.59,0.22,0.81,0l0.96-0.96l0.96,0.96c0.22,0.22,0.59,0.22,0.81,0c0.22-0.22,0.22-0.59,0-0.81l-0.96-0.96L39.27,21.54z"
		/>
	<path class="st1" d="M54.27,21.54c0.22-0.22,0.22-0.59,0-0.81c-0.22-0.22-0.59-0.22-0.81,0l-0.96,0.96l-0.96-0.96
		c-0.22-0.22-0.59-0.22-0.81,0c-0.22,0.22-0.22,0.59,0,0.81l0.96,0.96l-0.96,0.96c-0.22,0.22-0.22,0.59,0,0.81
		c0.22,0.22,0.59,0.22,0.81,0l0.96-0.96l0.96,0.96c0.22,0.22,0.59,0.22,0.81,0c0.22-0.22,0.22-0.59,0-0.81l-0.96-0.96L54.27,21.54z"
		/>
	<path class="st1" d="M69.27,21.54c0.22-0.22,0.22-0.59,0-0.81c-0.22-0.22-0.59-0.22-0.81,0l-0.96,0.96l-0.96-0.96
		c-0.22-0.22-0.59-0.22-0.81,0c-0.22,0.22-0.22,0.59,0,0.81l0.96,0.96l-0.96,0.96c-0.22,0.22-0.22,0.59,0,0.81
		c0.22,0.22,0.59,0.22,0.81,0l0.96-0.96l0.96,0.96c0.22,0.22,0.59,0.22,0.81,0c0.22-0.22,0.22-0.59,0-0.81l-0.96-0.96L69.27,21.54z"
		/>
	<path class="st1" d="M84.27,21.54c0.22-0.22,0.22-0.59,0-0.81c-0.22-0.22-0.59-0.22-0.81,0l-0.96,0.96l-0.96-0.96
		c-0.22-0.22-0.59-0.22-0.81,0c-0.22,0.22-0.22,0.59,0,0.81l0.96,0.96l-0.96,0.96c-0.22,0.22-0.22,0.59,0,0.81
		c0.22,0.22,0.59,0.22,0.81,0l0.96-0.96l0.96,0.96c0.22,0.22,0.59,0.22,0.81,0c0.22-0.22,0.22-0.59,0-0.81l-0.96-0.96L84.27,21.54z"
		/>
	<path class="st1" d="M99.27,21.54c0.22-0.22,0.22-0.59,0-0.81c-0.22-0.22-0.59-0.22-0.81,0l-0.96,0.96l-0.96-0.96
		c-0.22-0.22-0.59-0.22-0.81,0c-0.22,0.22-0.22,0.59,0,0.81l0.96,0.96l-0.96,0.96c-0.22,0.22-0.22,0.59,0,0.81
		c0.22,0.22,0.59,0.22,0.81,0l0.96-0.96l0.96,0.96c0.22,0.22,0.59,0.22,0.81,0c0.22-0.22,0.22-0.59,0-0.81l-0.96-0.96L99.27,21.54z"
		/>
	<path class="st1" d="M114.27,21.54c0.22-0.22,0.22-0.59,0-0.81c-0.22-0.22-0.59-0.22-0.81,0l-0.96,0.96l-0.96-0.96
		c-0.22-0.22-0.59-0.22-0.81,0c-0.22,0.22-0.22,0.59,0,0.81l0.96,0.96l-0.96,0.96c-0.22,0.22-0.22,0.59,0,0.81
		c0.22,0.22,0.59,0.22,0.81,0l0.96-0.96l0.96,0.96c0.22,0.22,0.59,0.22,0.81,0c0.22-0.22,0.22-0.59,0-0.81l-0.96-0.96L114.27,21.54z
		"/>
	<path class="st1" d="M129.27,21.54c0.22-0.22,0.22-0.59,0-0.81c-0.22-0.22-0.59-0.22-0.81,0l-0.96,0.96l-0.96-0.96
		c-0.22-0.22-0.59-0.22-0.81,0c-0.22,0.22-0.22,0.59,0,0.81l0.96,0.96l-0.96,0.96c-0.22,0.22-0.22,0.59,0,0.81
		c0.22,0.22,0.59,0.22,0.81,0l0.96-0.96l0.96,0.96c0.22,0.22,0.59,0.22,0.81,0c0.22-0.22,0.22-0.59,0-0.81l-0.96-0.96L129.27,21.54z
		"/>
	<path class="st1" d="M144.27,21.54c0.22-0.22,0.22-0.59,0-0.81c-0.22-0.22-0.59-0.22-0.81,0l-0.96,0.96l-0.96-0.96
		c-0.22-0.22-0.59-0.22-0.81,0c-0.22,0.22-0.22,0.59,0,0.81l0.96,0.96l-0.96,0.96c-0.22,0.22-0.22,0.59,0,0.81
		c0.22,0.22,0.59,0.22,0.81,0l0.96-0.96l0.96,0.96c0.22,0.22,0.59,0.22,0.81,0c0.22-0.22,0.22-0.59,0-0.81l-0.96-0.96L144.27,21.54z
		"/>
	<path class="st1" d="M159.27,21.54c0.22-0.22,0.22-0.59,0-0.81c-0.22-0.22-0.59-0.22-0.81,0l-0.96,0.96l-0.96-0.96
		c-0.22-0.22-0.59-0.22-0.81,0c-0.22,0.22-0.22,0.59,0,0.81l0.96,0.96l-0.96,0.96c-0.22,0.22-0.22,0.59,0,0.81
		c0.22,0.22,0.59,0.22,0.81,0l0.96-0.96l0.96,0.96c0.22,0.22,0.59,0.22,0.81,0c0.22-0.22,0.22-0.59,0-0.81l-0.96-0.96L159.27,21.54z
		"/>
	<path class="st1" d="M9.27,36.54c0.22-0.22,0.22-0.59,0-0.81c-0.22-0.22-0.59-0.22-0.81,0L7.5,36.69l-0.96-0.96
		c-0.22-0.22-0.59-0.22-0.81,0c-0.22,0.22-0.22,0.59,0,0.81l0.96,0.96l-0.96,0.96c-0.22,0.22-0.22,0.59,0,0.81
		c0.22,0.22,0.59,0.22,0.81,0l0.96-0.96l0.96,0.96c0.22,0.22,0.59,0.22,0.81,0c0.22-0.22,0.22-0.59,0-0.81L8.31,37.5L9.27,36.54z"/>
	<path class="st1" d="M24.27,36.54c0.22-0.22,0.22-0.59,0-0.81c-0.22-0.22-0.59-0.22-0.81,0l-0.96,0.96l-0.96-0.96
		c-0.22-0.22-0.59-0.22-0.81,0c-0.22,0.22-0.22,0.59,0,0.81l0.96,0.96l-0.96,0.96c-0.22,0.22-0.22,0.59,0,0.81
		c0.22,0.22,0.59,0.22,0.81,0l0.96-0.96l0.96,0.96c0.22,0.22,0.59,0.22,0.81,0c0.22-0.22,0.22-0.59,0-0.81l-0.96-0.96L24.27,36.54z"
		/>
	<path class="st1" d="M39.27,36.54c0.22-0.22,0.22-0.59,0-0.81c-0.22-0.22-0.59-0.22-0.81,0l-0.96,0.96l-0.96-0.96
		c-0.22-0.22-0.59-0.22-0.81,0c-0.22,0.22-0.22,0.59,0,0.81l0.96,0.96l-0.96,0.96c-0.22,0.22-0.22,0.59,0,0.81
		c0.22,0.22,0.59,0.22,0.81,0l0.96-0.96l0.96,0.96c0.22,0.22,0.59,0.22,0.81,0c0.22-0.22,0.22-0.59,0-0.81l-0.96-0.96L39.27,36.54z"
		/>
	<path class="st1" d="M54.27,36.54c0.22-0.22,0.22-0.59,0-0.81c-0.22-0.22-0.59-0.22-0.81,0l-0.96,0.96l-0.96-0.96
		c-0.22-0.22-0.59-0.22-0.81,0c-0.22,0.22-0.22,0.59,0,0.81l0.96,0.96l-0.96,0.96c-0.22,0.22-0.22,0.59,0,0.81
		c0.22,0.22,0.59,0.22,0.81,0l0.96-0.96l0.96,0.96c0.22,0.22,0.59,0.22,0.81,0c0.22-0.22,0.22-0.59,0-0.81l-0.96-0.96L54.27,36.54z"
		/>
	<path class="st1" d="M69.27,36.54c0.22-0.22,0.22-0.59,0-0.81c-0.22-0.22-0.59-0.22-0.81,0l-0.96,0.96l-0.96-0.96
		c-0.22-0.22-0.59-0.22-0.81,0c-0.22,0.22-0.22,0.59,0,0.81l0.96,0.96l-0.96,0.96c-0.22,0.22-0.22,0.59,0,0.81
		c0.22,0.22,0.59,0.22,0.81,0l0.96-0.96l0.96,0.96c0.22,0.22,0.59,0.22,0.81,0c0.22-0.22,0.22-0.59,0-0.81l-0.96-0.96L69.27,36.54z"
		/>
	<path class="st1" d="M84.27,36.54c0.22-0.22,0.22-0.59,0-0.81c-0.22-0.22-0.59-0.22-0.81,0l-0.96,0.96l-0.96-0.96
		c-0.22-0.22-0.59-0.22-0.81,0c-0.22,0.22-0.22,0.59,0,0.81l0.96,0.96l-0.96,0.96c-0.22,0.22-0.22,0.59,0,0.81
		c0.22,0.22,0.59,0.22,0.81,0l0.96-0.96l0.96,0.96c0.22,0.22,0.59,0.22,0.81,0c0.22-0.22,0.22-0.59,0-0.81l-0.96-0.96L84.27,36.54z"
		/>
	<path class="st1" d="M99.27,36.54c0.22-0.22,0.22-0.59,0-0.81c-0.22-0.22-0.59-0.22-0.81,0l-0.96,0.96l-0.96-0.96
		c-0.22-0.22-0.59-0.22-0.81,0c-0.22,0.22-0.22,0.59,0,0.81l0.96,0.96l-0.96,0.96c-0.22,0.22-0.22,0.59,0,0.81
		c0.22,0.22,0.59,0.22,0.81,0l0.96-0.96l0.96,0.96c0.22,0.22,0.59,0.22,0.81,0c0.22-0.22,0.22-0.59,0-0.81l-0.96-0.96L99.27,36.54z"
		/>
	<path class="st1" d="M114.27,36.54c0.22-0.22,0.22-0.59,0-0.81c-0.22-0.22-0.59-0.22-0.81,0l-0.96,0.96l-0.96-0.96
		c-0.22-0.22-0.59-0.22-0.81,0c-0.22,0.22-0.22,0.59,0,0.81l0.96,0.96l-0.96,0.96c-0.22,0.22-0.22,0.59,0,0.81
		c0.22,0.22,0.59,0.22,0.81,0l0.96-0.96l0.96,0.96c0.22,0.22,0.59,0.22,0.81,0c0.22-0.22,0.22-0.59,0-0.81l-0.96-0.96L114.27,36.54z
		"/>
	<path class="st1" d="M129.27,36.54c0.22-0.22,0.22-0.59,0-0.81c-0.22-0.22-0.59-0.22-0.81,0l-0.96,0.96l-0.96-0.96
		c-0.22-0.22-0.59-0.22-0.81,0c-0.22,0.22-0.22,0.59,0,0.81l0.96,0.96l-0.96,0.96c-0.22,0.22-0.22,0.59,0,0.81
		c0.22,0.22,0.59,0.22,0.81,0l0.96-0.96l0.96,0.96c0.22,0.22,0.59,0.22,0.81,0c0.22-0.22,0.22-0.59,0-0.81l-0.96-0.96L129.27,36.54z
		"/>
	<path class="st1" d="M144.27,36.54c0.22-0.22,0.22-0.59,0-0.81c-0.22-0.22-0.59-0.22-0.81,0l-0.96,0.96l-0.96-0.96
		c-0.22-0.22-0.59-0.22-0.81,0c-0.22,0.22-0.22,0.59,0,0.81l0.96,0.96l-0.96,0.96c-0.22,0.22-0.22,0.59,0,0.81
		c0.22,0.22,0.59,0.22,0.81,0l0.96-0.96l0.96,0.96c0.22,0.22,0.59,0.22,0.81,0c0.22-0.22,0.22-0.59,0-0.81l-0.96-0.96L144.27,36.54z
		"/>
	<path class="st1" d="M159.27,36.54c0.22-0.22,0.22-0.59,0-0.81c-0.22-0.22-0.59-0.22-0.81,0l-0.96,0.96l-0.96-0.96
		c-0.22-0.22-0.59-0.22-0.81,0c-0.22,0.22-0.22,0.59,0,0.81l0.96,0.96l-0.96,0.96c-0.22,0.22-0.22,0.59,0,0.81
		c0.22,0.22,0.59,0.22,0.81,0l0.96-0.96l0.96,0.96c0.22,0.22,0.59,0.22,0.81,0c0.22-0.22,0.22-0.59,0-0.81l-0.96-0.96L159.27,36.54z
		"/>
	<path class="st1" d="M9.27,51.54c0.22-0.22,0.22-0.59,0-0.81c-0.22-0.22-0.59-0.22-0.81,0L7.5,51.69l-0.96-0.96
		c-0.22-0.22-0.59-0.22-0.81,0c-0.22,0.22-0.22,0.59,0,0.81l0.96,0.96l-0.96,0.96c-0.22,0.22-0.22,0.59,0,0.81
		c0.22,0.22,0.59,0.22,0.81,0l0.96-0.96l0.96,0.96c0.22,0.22,0.59,0.22,0.81,0c0.22-0.22,0.22-0.59,0-0.81L8.31,52.5L9.27,51.54z"/>
	<path class="st1" d="M24.27,51.54c0.22-0.22,0.22-0.59,0-0.81c-0.22-0.22-0.59-0.22-0.81,0l-0.96,0.96l-0.96-0.96
		c-0.22-0.22-0.59-0.22-0.81,0c-0.22,0.22-0.22,0.59,0,0.81l0.96,0.96l-0.96,0.96c-0.22,0.22-0.22,0.59,0,0.81
		c0.22,0.22,0.59,0.22,0.81,0l0.96-0.96l0.96,0.96c0.22,0.22,0.59,0.22,0.81,0c0.22-0.22,0.22-0.59,0-0.81l-0.96-0.96L24.27,51.54z"
		/>
	<path class="st1" d="M39.27,51.54c0.22-0.22,0.22-0.59,0-0.81c-0.22-0.22-0.59-0.22-0.81,0l-0.96,0.96l-0.96-0.96
		c-0.22-0.22-0.59-0.22-0.81,0c-0.22,0.22-0.22,0.59,0,0.81l0.96,0.96l-0.96,0.96c-0.22,0.22-0.22,0.59,0,0.81
		c0.22,0.22,0.59,0.22,0.81,0l0.96-0.96l0.96,0.96c0.22,0.22,0.59,0.22,0.81,0c0.22-0.22,0.22-0.59,0-0.81l-0.96-0.96L39.27,51.54z"
		/>
	<path class="st1" d="M54.27,51.54c0.22-0.22,0.22-0.59,0-0.81c-0.22-0.22-0.59-0.22-0.81,0l-0.96,0.96l-0.96-0.96
		c-0.22-0.22-0.59-0.22-0.81,0c-0.22,0.22-0.22,0.59,0,0.81l0.96,0.96l-0.96,0.96c-0.22,0.22-0.22,0.59,0,0.81
		c0.22,0.22,0.59,0.22,0.81,0l0.96-0.96l0.96,0.96c0.22,0.22,0.59,0.22,0.81,0c0.22-0.22,0.22-0.59,0-0.81l-0.96-0.96L54.27,51.54z"
		/>
	<path class="st1" d="M69.27,51.54c0.22-0.22,0.22-0.59,0-0.81c-0.22-0.22-0.59-0.22-0.81,0l-0.96,0.96l-0.96-0.96
		c-0.22-0.22-0.59-0.22-0.81,0c-0.22,0.22-0.22,0.59,0,0.81l0.96,0.96l-0.96,0.96c-0.22,0.22-0.22,0.59,0,0.81
		c0.22,0.22,0.59,0.22,0.81,0l0.96-0.96l0.96,0.96c0.22,0.22,0.59,0.22,0.81,0c0.22-0.22,0.22-0.59,0-0.81l-0.96-0.96L69.27,51.54z"
		/>
	<path class="st1" d="M84.27,51.54c0.22-0.22,0.22-0.59,0-0.81c-0.22-0.22-0.59-0.22-0.81,0l-0.96,0.96l-0.96-0.96
		c-0.22-0.22-0.59-0.22-0.81,0c-0.22,0.22-0.22,0.59,0,0.81l0.96,0.96l-0.96,0.96c-0.22,0.22-0.22,0.59,0,0.81
		c0.22,0.22,0.59,0.22,0.81,0l0.96-0.96l0.96,0.96c0.22,0.22,0.59,0.22,0.81,0c0.22-0.22,0.22-0.59,0-0.81l-0.96-0.96L84.27,51.54z"
		/>
	<path class="st1" d="M99.27,51.54c0.22-0.22,0.22-0.59,0-0.81c-0.22-0.22-0.59-0.22-0.81,0l-0.96,0.96l-0.96-0.96
		c-0.22-0.22-0.59-0.22-0.81,0c-0.22,0.22-0.22,0.59,0,0.81l0.96,0.96l-0.96,0.96c-0.22,0.22-0.22,0.59,0,0.81
		c0.22,0.22,0.59,0.22,0.81,0l0.96-0.96l0.96,0.96c0.22,0.22,0.59,0.22,0.81,0c0.22-0.22,0.22-0.59,0-0.81l-0.96-0.96L99.27,51.54z"
		/>
	<path class="st1" d="M114.27,51.54c0.22-0.22,0.22-0.59,0-0.81c-0.22-0.22-0.59-0.22-0.81,0l-0.96,0.96l-0.96-0.96
		c-0.22-0.22-0.59-0.22-0.81,0c-0.22,0.22-0.22,0.59,0,0.81l0.96,0.96l-0.96,0.96c-0.22,0.22-0.22,0.59,0,0.81
		c0.22,0.22,0.59,0.22,0.81,0l0.96-0.96l0.96,0.96c0.22,0.22,0.59,0.22,0.81,0c0.22-0.22,0.22-0.59,0-0.81l-0.96-0.96L114.27,51.54z
		"/>
	<path class="st1" d="M129.27,51.54c0.22-0.22,0.22-0.59,0-0.81c-0.22-0.22-0.59-0.22-0.81,0l-0.96,0.96l-0.96-0.96
		c-0.22-0.22-0.59-0.22-0.81,0c-0.22,0.22-0.22,0.59,0,0.81l0.96,0.96l-0.96,0.96c-0.22,0.22-0.22,0.59,0,0.81
		c0.22,0.22,0.59,0.22,0.81,0l0.96-0.96l0.96,0.96c0.22,0.22,0.59,0.22,0.81,0c0.22-0.22,0.22-0.59,0-0.81l-0.96-0.96L129.27,51.54z
		"/>
	<path class="st1" d="M144.27,51.54c0.22-0.22,0.22-0.59,0-0.81c-0.22-0.22-0.59-0.22-0.81,0l-0.96,0.96l-0.96-0.96
		c-0.22-0.22-0.59-0.22-0.81,0c-0.22,0.22-0.22,0.59,0,0.81l0.96,0.96l-0.96,0.96c-0.22,0.22-0.22,0.59,0,0.81
		c0.22,0.22,0.59,0.22,0.81,0l0.96-0.96l0.96,0.96c0.22,0.22,0.59,0.22,0.81,0c0.22-0.22,0.22-0.59,0-0.81l-0.96-0.96L144.27,51.54z
		"/>
	<path class="st1" d="M159.27,51.54c0.22-0.22,0.22-0.59,0-0.81c-0.22-0.22-0.59-0.22-0.81,0l-0.96,0.96l-0.96-0.96
		c-0.22-0.22-0.59-0.22-0.81,0c-0.22,0.22-0.22,0.59,0,0.81l0.96,0.96l-0.96,0.96c-0.22,0.22-0.22,0.59,0,0.81
		c0.22,0.22,0.59,0.22,0.81,0l0.96-0.96l0.96,0.96c0.22,0.22,0.59,0.22,0.81,0c0.22-0.22,0.22-0.59,0-0.81l-0.96-0.96L159.27,51.54z
		"/>
	<path class="st1" d="M9.27,66.54c0.22-0.22,0.22-0.59,0-0.81c-0.22-0.22-0.59-0.22-0.81,0L7.5,66.69l-0.96-0.96
		c-0.22-0.22-0.59-0.22-0.81,0c-0.22,0.22-0.22,0.59,0,0.81l0.96,0.96l-0.96,0.96c-0.22,0.22-0.22,0.59,0,0.81
		c0.22,0.22,0.59,0.22,0.81,0l0.96-0.96l0.96,0.96c0.22,0.22,0.59,0.22,0.81,0c0.22-0.22,0.22-0.59,0-0.81L8.31,67.5L9.27,66.54z"/>
	<path class="st1" d="M24.27,66.54c0.22-0.22,0.22-0.59,0-0.81c-0.22-0.22-0.59-0.22-0.81,0l-0.96,0.96l-0.96-0.96
		c-0.22-0.22-0.59-0.22-0.81,0c-0.22,0.22-0.22,0.59,0,0.81l0.96,0.96l-0.96,0.96c-0.22,0.22-0.22,0.59,0,0.81
		c0.22,0.22,0.59,0.22,0.81,0l0.96-0.96l0.96,0.96c0.22,0.22,0.59,0.22,0.81,0c0.22-0.22,0.22-0.59,0-0.81l-0.96-0.96L24.27,66.54z"
		/>
	<path class="st1" d="M39.27,66.54c0.22-0.22,0.22-0.59,0-0.81c-0.22-0.22-0.59-0.22-0.81,0l-0.96,0.96l-0.96-0.96
		c-0.22-0.22-0.59-0.22-0.81,0c-0.22,0.22-0.22,0.59,0,0.81l0.96,0.96l-0.96,0.96c-0.22,0.22-0.22,0.59,0,0.81
		c0.22,0.22,0.59,0.22,0.81,0l0.96-0.96l0.96,0.96c0.22,0.22,0.59,0.22,0.81,0c0.22-0.22,0.22-0.59,0-0.81l-0.96-0.96L39.27,66.54z"
		/>
	<path class="st1" d="M54.27,66.54c0.22-0.22,0.22-0.59,0-0.81c-0.22-0.22-0.59-0.22-0.81,0l-0.96,0.96l-0.96-0.96
		c-0.22-0.22-0.59-0.22-0.81,0c-0.22,0.22-0.22,0.59,0,0.81l0.96,0.96l-0.96,0.96c-0.22,0.22-0.22,0.59,0,0.81
		c0.22,0.22,0.59,0.22,0.81,0l0.96-0.96l0.96,0.96c0.22,0.22,0.59,0.22,0.81,0c0.22-0.22,0.22-0.59,0-0.81l-0.96-0.96L54.27,66.54z"
		/>
	<path class="st1" d="M69.27,66.54c0.22-0.22,0.22-0.59,0-0.81c-0.22-0.22-0.59-0.22-0.81,0l-0.96,0.96l-0.96-0.96
		c-0.22-0.22-0.59-0.22-0.81,0c-0.22,0.22-0.22,0.59,0,0.81l0.96,0.96l-0.96,0.96c-0.22,0.22-0.22,0.59,0,0.81
		c0.22,0.22,0.59,0.22,0.81,0l0.96-0.96l0.96,0.96c0.22,0.22,0.59,0.22,0.81,0c0.22-0.22,0.22-0.59,0-0.81l-0.96-0.96L69.27,66.54z"
		/>
	<path class="st1" d="M84.27,66.54c0.22-0.22,0.22-0.59,0-0.81c-0.22-0.22-0.59-0.22-0.81,0l-0.96,0.96l-0.96-0.96
		c-0.22-0.22-0.59-0.22-0.81,0c-0.22,0.22-0.22,0.59,0,0.81l0.96,0.96l-0.96,0.96c-0.22,0.22-0.22,0.59,0,0.81
		c0.22,0.22,0.59,0.22,0.81,0l0.96-0.96l0.96,0.96c0.22,0.22,0.59,0.22,0.81,0c0.22-0.22,0.22-0.59,0-0.81l-0.96-0.96L84.27,66.54z"
		/>
	<path class="st1" d="M99.27,66.54c0.22-0.22,0.22-0.59,0-0.81c-0.22-0.22-0.59-0.22-0.81,0l-0.96,0.96l-0.96-0.96
		c-0.22-0.22-0.59-0.22-0.81,0c-0.22,0.22-0.22,0.59,0,0.81l0.96,0.96l-0.96,0.96c-0.22,0.22-0.22,0.59,0,0.81
		c0.22,0.22,0.59,0.22,0.81,0l0.96-0.96l0.96,0.96c0.22,0.22,0.59,0.22,0.81,0c0.22-0.22,0.22-0.59,0-0.81l-0.96-0.96L99.27,66.54z"
		/>
	<path class="st1" d="M114.27,66.54c0.22-0.22,0.22-0.59,0-0.81c-0.22-0.22-0.59-0.22-0.81,0l-0.96,0.96l-0.96-0.96
		c-0.22-0.22-0.59-0.22-0.81,0c-0.22,0.22-0.22,0.59,0,0.81l0.96,0.96l-0.96,0.96c-0.22,0.22-0.22,0.59,0,0.81
		c0.22,0.22,0.59,0.22,0.81,0l0.96-0.96l0.96,0.96c0.22,0.22,0.59,0.22,0.81,0c0.22-0.22,0.22-0.59,0-0.81l-0.96-0.96L114.27,66.54z
		"/>
	<path class="st1" d="M129.27,66.54c0.22-0.22,0.22-0.59,0-0.81c-0.22-0.22-0.59-0.22-0.81,0l-0.96,0.96l-0.96-0.96
		c-0.22-0.22-0.59-0.22-0.81,0c-0.22,0.22-0.22,0.59,0,0.81l0.96,0.96l-0.96,0.96c-0.22,0.22-0.22,0.59,0,0.81
		c0.22,0.22,0.59,0.22,0.81,0l0.96-0.96l0.96,0.96c0.22,0.22,0.59,0.22,0.81,0c0.22-0.22,0.22-0.59,0-0.81l-0.96-0.96L129.27,66.54z
		"/>
	<path class="st1" d="M144.27,66.54c0.22-0.22,0.22-0.59,0-0.81c-0.22-0.22-0.59-0.22-0.81,0l-0.96,0.96l-0.96-0.96
		c-0.22-0.22-0.59-0.22-0.81,0c-0.22,0.22-0.22,0.59,0,0.81l0.96,0.96l-0.96,0.96c-0.22,0.22-0.22,0.59,0,0.81
		c0.22,0.22,0.59,0.22,0.81,0l0.96-0.96l0.96,0.96c0.22,0.22,0.59,0.22,0.81,0c0.22-0.22,0.22-0.59,0-0.81l-0.96-0.96L144.27,66.54z
		"/>
	<path class="st1" d="M159.27,66.54c0.22-0.22,0.22-0.59,0-0.81c-0.22-0.22-0.59-0.22-0.81,0l-0.96,0.96l-0.96-0.96
		c-0.22-0.22-0.59-0.22-0.81,0c-0.22,0.22-0.22,0.59,0,0.81l0.96,0.96l-0.96,0.96c-0.22,0.22-0.22,0.59,0,0.81
		c0.22,0.22,0.59,0.22,0.81,0l0.96-0.96l0.96,0.96c0.22,0.22,0.59,0.22,0.81,0c0.22-0.22,0.22-0.59,0-0.81l-0.96-0.96L159.27,66.54z
		"/>
	<path class="st1" d="M9.27,81.54c0.22-0.22,0.22-0.59,0-0.81c-0.22-0.22-0.59-0.22-0.81,0L7.5,81.69l-0.96-0.96
		c-0.22-0.22-0.59-0.22-0.81,0c-0.22,0.22-0.22,0.59,0,0.81l0.96,0.96l-0.96,0.96c-0.22,0.22-0.22,0.59,0,0.81
		c0.22,0.22,0.59,0.22,0.81,0l0.96-0.96l0.96,0.96c0.22,0.22,0.59,0.22,0.81,0c0.22-0.22,0.22-0.59,0-0.81L8.31,82.5L9.27,81.54z"/>
	<path class="st1" d="M24.27,81.54c0.22-0.22,0.22-0.59,0-0.81c-0.22-0.22-0.59-0.22-0.81,0l-0.96,0.96l-0.96-0.96
		c-0.22-0.22-0.59-0.22-0.81,0c-0.22,0.22-0.22,0.59,0,0.81l0.96,0.96l-0.96,0.96c-0.22,0.22-0.22,0.59,0,0.81
		c0.22,0.22,0.59,0.22,0.81,0l0.96-0.96l0.96,0.96c0.22,0.22,0.59,0.22,0.81,0c0.22-0.22,0.22-0.59,0-0.81l-0.96-0.96L24.27,81.54z"
		/>
	<path class="st1" d="M39.27,81.54c0.22-0.22,0.22-0.59,0-0.81c-0.22-0.22-0.59-0.22-0.81,0l-0.96,0.96l-0.96-0.96
		c-0.22-0.22-0.59-0.22-0.81,0c-0.22,0.22-0.22,0.59,0,0.81l0.96,0.96l-0.96,0.96c-0.22,0.22-0.22,0.59,0,0.81
		c0.22,0.22,0.59,0.22,0.81,0l0.96-0.96l0.96,0.96c0.22,0.22,0.59,0.22,0.81,0c0.22-0.22,0.22-0.59,0-0.81l-0.96-0.96L39.27,81.54z"
		/>
	<path class="st1" d="M54.27,81.54c0.22-0.22,0.22-0.59,0-0.81c-0.22-0.22-0.59-0.22-0.81,0l-0.96,0.96l-0.96-0.96
		c-0.22-0.22-0.59-0.22-0.81,0c-0.22,0.22-0.22,0.59,0,0.81l0.96,0.96l-0.96,0.96c-0.22,0.22-0.22,0.59,0,0.81
		c0.22,0.22,0.59,0.22,0.81,0l0.96-0.96l0.96,0.96c0.22,0.22,0.59,0.22,0.81,0c0.22-0.22,0.22-0.59,0-0.81l-0.96-0.96L54.27,81.54z"
		/>
	<path class="st1" d="M69.27,81.54c0.22-0.22,0.22-0.59,0-0.81c-0.22-0.22-0.59-0.22-0.81,0l-0.96,0.96l-0.96-0.96
		c-0.22-0.22-0.59-0.22-0.81,0c-0.22,0.22-0.22,0.59,0,0.81l0.96,0.96l-0.96,0.96c-0.22,0.22-0.22,0.59,0,0.81
		c0.22,0.22,0.59,0.22,0.81,0l0.96-0.96l0.96,0.96c0.22,0.22,0.59,0.22,0.81,0c0.22-0.22,0.22-0.59,0-0.81l-0.96-0.96L69.27,81.54z"
		/>
	<path class="st1" d="M84.27,81.54c0.22-0.22,0.22-0.59,0-0.81c-0.22-0.22-0.59-0.22-0.81,0l-0.96,0.96l-0.96-0.96
		c-0.22-0.22-0.59-0.22-0.81,0c-0.22,0.22-0.22,0.59,0,0.81l0.96,0.96l-0.96,0.96c-0.22,0.22-0.22,0.59,0,0.81
		c0.22,0.22,0.59,0.22,0.81,0l0.96-0.96l0.96,0.96c0.22,0.22,0.59,0.22,0.81,0c0.22-0.22,0.22-0.59,0-0.81l-0.96-0.96L84.27,81.54z"
		/>
	<path class="st1" d="M99.27,81.54c0.22-0.22,0.22-0.59,0-0.81c-0.22-0.22-0.59-0.22-0.81,0l-0.96,0.96l-0.96-0.96
		c-0.22-0.22-0.59-0.22-0.81,0c-0.22,0.22-0.22,0.59,0,0.81l0.96,0.96l-0.96,0.96c-0.22,0.22-0.22,0.59,0,0.81
		c0.22,0.22,0.59,0.22,0.81,0l0.96-0.96l0.96,0.96c0.22,0.22,0.59,0.22,0.81,0c0.22-0.22,0.22-0.59,0-0.81l-0.96-0.96L99.27,81.54z"
		/>
	<path class="st1" d="M114.27,81.54c0.22-0.22,0.22-0.59,0-0.81c-0.22-0.22-0.59-0.22-0.81,0l-0.96,0.96l-0.96-0.96
		c-0.22-0.22-0.59-0.22-0.81,0c-0.22,0.22-0.22,0.59,0,0.81l0.96,0.96l-0.96,0.96c-0.22,0.22-0.22,0.59,0,0.81
		c0.22,0.22,0.59,0.22,0.81,0l0.96-0.96l0.96,0.96c0.22,0.22,0.59,0.22,0.81,0c0.22-0.22,0.22-0.59,0-0.81l-0.96-0.96L114.27,81.54z
		"/>
	<path class="st1" d="M129.27,81.54c0.22-0.22,0.22-0.59,0-0.81c-0.22-0.22-0.59-0.22-0.81,0l-0.96,0.96l-0.96-0.96
		c-0.22-0.22-0.59-0.22-0.81,0c-0.22,0.22-0.22,0.59,0,0.81l0.96,0.96l-0.96,0.96c-0.22,0.22-0.22,0.59,0,0.81
		c0.22,0.22,0.59,0.22,0.81,0l0.96-0.96l0.96,0.96c0.22,0.22,0.59,0.22,0.81,0c0.22-0.22,0.22-0.59,0-0.81l-0.96-0.96L129.27,81.54z
		"/>
	<path class="st1" d="M144.27,81.54c0.22-0.22,0.22-0.59,0-0.81c-0.22-0.22-0.59-0.22-0.81,0l-0.96,0.96l-0.96-0.96
		c-0.22-0.22-0.59-0.22-0.81,0c-0.22,0.22-0.22,0.59,0,0.81l0.96,0.96l-0.96,0.96c-0.22,0.22-0.22,0.59,0,0.81
		c0.22,0.22,0.59,0.22,0.81,0l0.96-0.96l0.96,0.96c0.22,0.22,0.59,0.22,0.81,0c0.22-0.22,0.22-0.59,0-0.81l-0.96-0.96L144.27,81.54z
		"/>
	<path class="st1" d="M159.27,81.54c0.22-0.22,0.22-0.59,0-0.81c-0.22-0.22-0.59-0.22-0.81,0l-0.96,0.96l-0.96-0.96
		c-0.22-0.22-0.59-0.22-0.81,0c-0.22,0.22-0.22,0.59,0,0.81l0.96,0.96l-0.96,0.96c-0.22,0.22-0.22,0.59,0,0.81
		c0.22,0.22,0.59,0.22,0.81,0l0.96-0.96l0.96,0.96c0.22,0.22,0.59,0.22,0.81,0c0.22-0.22,0.22-0.59,0-0.81l-0.96-0.96L159.27,81.54z
		"/>
	<path class="st1" d="M9.27,96.54c0.22-0.22,0.22-0.59,0-0.81c-0.22-0.22-0.59-0.22-0.81,0L7.5,96.69l-0.96-0.96
		c-0.22-0.22-0.59-0.22-0.81,0c-0.22,0.22-0.22,0.59,0,0.81l0.96,0.96l-0.96,0.96c-0.22,0.22-0.22,0.59,0,0.81
		c0.22,0.22,0.59,0.22,0.81,0l0.96-0.96l0.96,0.96c0.22,0.22,0.59,0.22,0.81,0c0.22-0.22,0.22-0.59,0-0.81L8.31,97.5L9.27,96.54z"/>
	<path class="st1" d="M24.27,96.54c0.22-0.22,0.22-0.59,0-0.81c-0.22-0.22-0.59-0.22-0.81,0l-0.96,0.96l-0.96-0.96
		c-0.22-0.22-0.59-0.22-0.81,0c-0.22,0.22-0.22,0.59,0,0.81l0.96,0.96l-0.96,0.96c-0.22,0.22-0.22,0.59,0,0.81
		c0.22,0.22,0.59,0.22,0.81,0l0.96-0.96l0.96,0.96c0.22,0.22,0.59,0.22,0.81,0c0.22-0.22,0.22-0.59,0-0.81l-0.96-0.96L24.27,96.54z"
		/>
	<path class="st1" d="M39.27,96.54c0.22-0.22,0.22-0.59,0-0.81c-0.22-0.22-0.59-0.22-0.81,0l-0.96,0.96l-0.96-0.96
		c-0.22-0.22-0.59-0.22-0.81,0c-0.22,0.22-0.22,0.59,0,0.81l0.96,0.96l-0.96,0.96c-0.22,0.22-0.22,0.59,0,0.81
		c0.22,0.22,0.59,0.22,0.81,0l0.96-0.96l0.96,0.96c0.22,0.22,0.59,0.22,0.81,0c0.22-0.22,0.22-0.59,0-0.81l-0.96-0.96L39.27,96.54z"
		/>
	<path class="st1" d="M54.27,96.54c0.22-0.22,0.22-0.59,0-0.81c-0.22-0.22-0.59-0.22-0.81,0l-0.96,0.96l-0.96-0.96
		c-0.22-0.22-0.59-0.22-0.81,0c-0.22,0.22-0.22,0.59,0,0.81l0.96,0.96l-0.96,0.96c-0.22,0.22-0.22,0.59,0,0.81
		c0.22,0.22,0.59,0.22,0.81,0l0.96-0.96l0.96,0.96c0.22,0.22,0.59,0.22,0.81,0c0.22-0.22,0.22-0.59,0-0.81l-0.96-0.96L54.27,96.54z"
		/>
	<path class="st1" d="M69.27,96.54c0.22-0.22,0.22-0.59,0-0.81c-0.22-0.22-0.59-0.22-0.81,0l-0.96,0.96l-0.96-0.96
		c-0.22-0.22-0.59-0.22-0.81,0c-0.22,0.22-0.22,0.59,0,0.81l0.96,0.96l-0.96,0.96c-0.22,0.22-0.22,0.59,0,0.81
		c0.22,0.22,0.59,0.22,0.81,0l0.96-0.96l0.96,0.96c0.22,0.22,0.59,0.22,0.81,0c0.22-0.22,0.22-0.59,0-0.81l-0.96-0.96L69.27,96.54z"
		/>
	<path class="st1" d="M84.27,96.54c0.22-0.22,0.22-0.59,0-0.81c-0.22-0.22-0.59-0.22-0.81,0l-0.96,0.96l-0.96-0.96
		c-0.22-0.22-0.59-0.22-0.81,0c-0.22,0.22-0.22,0.59,0,0.81l0.96,0.96l-0.96,0.96c-0.22,0.22-0.22,0.59,0,0.81
		c0.22,0.22,0.59,0.22,0.81,0l0.96-0.96l0.96,0.96c0.22,0.22,0.59,0.22,0.81,0c0.22-0.22,0.22-0.59,0-0.81l-0.96-0.96L84.27,96.54z"
		/>
	<path class="st1" d="M99.27,96.54c0.22-0.22,0.22-0.59,0-0.81c-0.22-0.22-0.59-0.22-0.81,0l-0.96,0.96l-0.96-0.96
		c-0.22-0.22-0.59-0.22-0.81,0c-0.22,0.22-0.22,0.59,0,0.81l0.96,0.96l-0.96,0.96c-0.22,0.22-0.22,0.59,0,0.81
		c0.22,0.22,0.59,0.22,0.81,0l0.96-0.96l0.96,0.96c0.22,0.22,0.59,0.22,0.81,0c0.22-0.22,0.22-0.59,0-0.81l-0.96-0.96L99.27,96.54z"
		/>
	<path class="st1" d="M114.27,96.54c0.22-0.22,0.22-0.59,0-0.81c-0.22-0.22-0.59-0.22-0.81,0l-0.96,0.96l-0.96-0.96
		c-0.22-0.22-0.59-0.22-0.81,0c-0.22,0.22-0.22,0.59,0,0.81l0.96,0.96l-0.96,0.96c-0.22,0.22-0.22,0.59,0,0.81
		c0.22,0.22,0.59,0.22,0.81,0l0.96-0.96l0.96,0.96c0.22,0.22,0.59,0.22,0.81,0c0.22-0.22,0.22-0.59,0-0.81l-0.96-0.96L114.27,96.54z
		"/>
	<path class="st1" d="M129.27,96.54c0.22-0.22,0.22-0.59,0-0.81c-0.22-0.22-0.59-0.22-0.81,0l-0.96,0.96l-0.96-0.96
		c-0.22-0.22-0.59-0.22-0.81,0c-0.22,0.22-0.22,0.59,0,0.81l0.96,0.96l-0.96,0.96c-0.22,0.22-0.22,0.59,0,0.81
		c0.22,0.22,0.59,0.22,0.81,0l0.96-0.96l0.96,0.96c0.22,0.22,0.59,0.22,0.81,0c0.22-0.22,0.22-0.59,0-0.81l-0.96-0.96L129.27,96.54z
		"/>
	<path class="st1" d="M144.27,96.54c0.22-0.22,0.22-0.59,0-0.81c-0.22-0.22-0.59-0.22-0.81,0l-0.96,0.96l-0.96-0.96
		c-0.22-0.22-0.59-0.22-0.81,0c-0.22,0.22-0.22,0.59,0,0.81l0.96,0.96l-0.96,0.96c-0.22,0.22-0.22,0.59,0,0.81
		c0.22,0.22,0.59,0.22,0.81,0l0.96-0.96l0.96,0.96c0.22,0.22,0.59,0.22,0.81,0c0.22-0.22,0.22-0.59,0-0.81l-0.96-0.96L144.27,96.54z
		"/>
	<path class="st1" d="M159.27,96.54c0.22-0.22,0.22-0.59,0-0.81c-0.22-0.22-0.59-0.22-0.81,0l-0.96,0.96l-0.96-0.96
		c-0.22-0.22-0.59-0.22-0.81,0c-0.22,0.22-0.22,0.59,0,0.81l0.96,0.96l-0.96,0.96c-0.22,0.22-0.22,0.59,0,0.81
		c0.22,0.22,0.59,0.22,0.81,0l0.96-0.96l0.96,0.96c0.22,0.22,0.59,0.22,0.81,0c0.22-0.22,0.22-0.59,0-0.81l-0.96-0.96L159.27,96.54z
		"/>
	<path class="st1" d="M9.27,111.54c0.22-0.22,0.22-0.59,0-0.81c-0.22-0.22-0.59-0.22-0.81,0l-0.96,0.96l-0.96-0.96
		c-0.22-0.22-0.59-0.22-0.81,0c-0.22,0.22-0.22,0.59,0,0.81l0.96,0.96l-0.96,0.96c-0.22,0.22-0.22,0.59,0,0.81
		c0.22,0.22,0.59,0.22,0.81,0l0.96-0.96l0.96,0.96c0.22,0.22,0.59,0.22,0.81,0c0.22-0.22,0.22-0.59,0-0.81l-0.96-0.96L9.27,111.54z"
		/>
	<path class="st1" d="M24.27,111.54c0.22-0.22,0.22-0.59,0-0.81c-0.22-0.22-0.59-0.22-0.81,0l-0.96,0.96l-0.96-0.96
		c-0.22-0.22-0.59-0.22-0.81,0c-0.22,0.22-0.22,0.59,0,0.81l0.96,0.96l-0.96,0.96c-0.22,0.22-0.22,0.59,0,0.81
		c0.22,0.22,0.59,0.22,0.81,0l0.96-0.96l0.96,0.96c0.22,0.22,0.59,0.22,0.81,0c0.22-0.22,0.22-0.59,0-0.81l-0.96-0.96L24.27,111.54z
		"/>
	<path class="st1" d="M39.27,111.54c0.22-0.22,0.22-0.59,0-0.81c-0.22-0.22-0.59-0.22-0.81,0l-0.96,0.96l-0.96-0.96
		c-0.22-0.22-0.59-0.22-0.81,0c-0.22,0.22-0.22,0.59,0,0.81l0.96,0.96l-0.96,0.96c-0.22,0.22-0.22,0.59,0,0.81
		c0.22,0.22,0.59,0.22,0.81,0l0.96-0.96l0.96,0.96c0.22,0.22,0.59,0.22,0.81,0c0.22-0.22,0.22-0.59,0-0.81l-0.96-0.96L39.27,111.54z
		"/>
	<path class="st1" d="M54.27,111.54c0.22-0.22,0.22-0.59,0-0.81c-0.22-0.22-0.59-0.22-0.81,0l-0.96,0.96l-0.96-0.96
		c-0.22-0.22-0.59-0.22-0.81,0c-0.22,0.22-0.22,0.59,0,0.81l0.96,0.96l-0.96,0.96c-0.22,0.22-0.22,0.59,0,0.81
		c0.22,0.22,0.59,0.22,0.81,0l0.96-0.96l0.96,0.96c0.22,0.22,0.59,0.22,0.81,0c0.22-0.22,0.22-0.59,0-0.81l-0.96-0.96L54.27,111.54z
		"/>
	<path class="st1" d="M69.27,111.54c0.22-0.22,0.22-0.59,0-0.81c-0.22-0.22-0.59-0.22-0.81,0l-0.96,0.96l-0.96-0.96
		c-0.22-0.22-0.59-0.22-0.81,0c-0.22,0.22-0.22,0.59,0,0.81l0.96,0.96l-0.96,0.96c-0.22,0.22-0.22,0.59,0,0.81
		c0.22,0.22,0.59,0.22,0.81,0l0.96-0.96l0.96,0.96c0.22,0.22,0.59,0.22,0.81,0c0.22-0.22,0.22-0.59,0-0.81l-0.96-0.96L69.27,111.54z
		"/>
	<path class="st1" d="M84.27,111.54c0.22-0.22,0.22-0.59,0-0.81c-0.22-0.22-0.59-0.22-0.81,0l-0.96,0.96l-0.96-0.96
		c-0.22-0.22-0.59-0.22-0.81,0c-0.22,0.22-0.22,0.59,0,0.81l0.96,0.96l-0.96,0.96c-0.22,0.22-0.22,0.59,0,0.81
		c0.22,0.22,0.59,0.22,0.81,0l0.96-0.96l0.96,0.96c0.22,0.22,0.59,0.22,0.81,0c0.22-0.22,0.22-0.59,0-0.81l-0.96-0.96L84.27,111.54z
		"/>
	<path class="st1" d="M99.27,111.54c0.22-0.22,0.22-0.59,0-0.81c-0.22-0.22-0.59-0.22-0.81,0l-0.96,0.96l-0.96-0.96
		c-0.22-0.22-0.59-0.22-0.81,0c-0.22,0.22-0.22,0.59,0,0.81l0.96,0.96l-0.96,0.96c-0.22,0.22-0.22,0.59,0,0.81
		c0.22,0.22,0.59,0.22,0.81,0l0.96-0.96l0.96,0.96c0.22,0.22,0.59,0.22,0.81,0c0.22-0.22,0.22-0.59,0-0.81l-0.96-0.96L99.27,111.54z
		"/>
	<path class="st1" d="M114.27,111.54c0.22-0.22,0.22-0.59,0-0.81c-0.22-0.22-0.59-0.22-0.81,0l-0.96,0.96l-0.96-0.96
		c-0.22-0.22-0.59-0.22-0.81,0c-0.22,0.22-0.22,0.59,0,0.81l0.96,0.96l-0.96,0.96c-0.22,0.22-0.22,0.59,0,0.81
		c0.22,0.22,0.59,0.22,0.81,0l0.96-0.96l0.96,0.96c0.22,0.22,0.59,0.22,0.81,0c0.22-0.22,0.22-0.59,0-0.81l-0.96-0.96L114.27,111.54
		z"/>
	<path class="st1" d="M129.27,111.54c0.22-0.22,0.22-0.59,0-0.81c-0.22-0.22-0.59-0.22-0.81,0l-0.96,0.96l-0.96-0.96
		c-0.22-0.22-0.59-0.22-0.81,0c-0.22,0.22-0.22,0.59,0,0.81l0.96,0.96l-0.96,0.96c-0.22,0.22-0.22,0.59,0,0.81
		c0.22,0.22,0.59,0.22,0.81,0l0.96-0.96l0.96,0.96c0.22,0.22,0.59,0.22,0.81,0c0.22-0.22,0.22-0.59,0-0.81l-0.96-0.96L129.27,111.54
		z"/>
	<path class="st1" d="M144.27,111.54c0.22-0.22,0.22-0.59,0-0.81c-0.22-0.22-0.59-0.22-0.81,0l-0.96,0.96l-0.96-0.96
		c-0.22-0.22-0.59-0.22-0.81,0c-0.22,0.22-0.22,0.59,0,0.81l0.96,0.96l-0.96,0.96c-0.22,0.22-0.22,0.59,0,0.81
		c0.22,0.22,0.59,0.22,0.81,0l0.96-0.96l0.96,0.96c0.22,0.22,0.59,0.22,0.81,0c0.22-0.22,0.22-0.59,0-0.81l-0.96-0.96L144.27,111.54
		z"/>
	<path class="st1" d="M159.27,111.54c0.22-0.22,0.22-0.59,0-0.81c-0.22-0.22-0.59-0.22-0.81,0l-0.96,0.96l-0.96-0.96
		c-0.22-0.22-0.59-0.22-0.81,0c-0.22,0.22-0.22,0.59,0,0.81l0.96,0.96l-0.96,0.96c-0.22,0.22-0.22,0.59,0,0.81
		c0.22,0.22,0.59,0.22,0.81,0l0.96-0.96l0.96,0.96c0.22,0.22,0.59,0.22,0.81,0c0.22-0.22,0.22-0.59,0-0.81l-0.96-0.96L159.27,111.54
		z"/>
	<path class="st1" d="M9.27,126.54c0.22-0.22,0.22-0.59,0-0.81c-0.22-0.22-0.59-0.22-0.81,0l-0.96,0.96l-0.96-0.96
		c-0.22-0.22-0.59-0.22-0.81,0c-0.22,0.22-0.22,0.59,0,0.81l0.96,0.96l-0.96,0.96c-0.22,0.22-0.22,0.59,0,0.81
		c0.22,0.22,0.59,0.22,0.81,0l0.96-0.96l0.96,0.96c0.22,0.22,0.59,0.22,0.81,0c0.22-0.22,0.22-0.59,0-0.81l-0.96-0.96L9.27,126.54z"
		/>
	<path class="st1" d="M24.27,126.54c0.22-0.22,0.22-0.59,0-0.81c-0.22-0.22-0.59-0.22-0.81,0l-0.96,0.96l-0.96-0.96
		c-0.22-0.22-0.59-0.22-0.81,0c-0.22,0.22-0.22,0.59,0,0.81l0.96,0.96l-0.96,0.96c-0.22,0.22-0.22,0.59,0,0.81
		c0.22,0.22,0.59,0.22,0.81,0l0.96-0.96l0.96,0.96c0.22,0.22,0.59,0.22,0.81,0c0.22-0.22,0.22-0.59,0-0.81l-0.96-0.96L24.27,126.54z
		"/>
	<path class="st1" d="M39.27,126.54c0.22-0.22,0.22-0.59,0-0.81c-0.22-0.22-0.59-0.22-0.81,0l-0.96,0.96l-0.96-0.96
		c-0.22-0.22-0.59-0.22-0.81,0c-0.22,0.22-0.22,0.59,0,0.81l0.96,0.96l-0.96,0.96c-0.22,0.22-0.22,0.59,0,0.81
		c0.22,0.22,0.59,0.22,0.81,0l0.96-0.96l0.96,0.96c0.22,0.22,0.59,0.22,0.81,0c0.22-0.22,0.22-0.59,0-0.81l-0.96-0.96L39.27,126.54z
		"/>
	<path class="st1" d="M54.27,126.54c0.22-0.22,0.22-0.59,0-0.81c-0.22-0.22-0.59-0.22-0.81,0l-0.96,0.96l-0.96-0.96
		c-0.22-0.22-0.59-0.22-0.81,0c-0.22,0.22-0.22,0.59,0,0.81l0.96,0.96l-0.96,0.96c-0.22,0.22-0.22,0.59,0,0.81
		c0.22,0.22,0.59,0.22,0.81,0l0.96-0.96l0.96,0.96c0.22,0.22,0.59,0.22,0.81,0c0.22-0.22,0.22-0.59,0-0.81l-0.96-0.96L54.27,126.54z
		"/>
	<path class="st1" d="M69.27,126.54c0.22-0.22,0.22-0.59,0-0.81c-0.22-0.22-0.59-0.22-0.81,0l-0.96,0.96l-0.96-0.96
		c-0.22-0.22-0.59-0.22-0.81,0c-0.22,0.22-0.22,0.59,0,0.81l0.96,0.96l-0.96,0.96c-0.22,0.22-0.22,0.59,0,0.81
		c0.22,0.22,0.59,0.22,0.81,0l0.96-0.96l0.96,0.96c0.22,0.22,0.59,0.22,0.81,0c0.22-0.22,0.22-0.59,0-0.81l-0.96-0.96L69.27,126.54z
		"/>
	<path class="st1" d="M84.27,126.54c0.22-0.22,0.22-0.59,0-0.81c-0.22-0.22-0.59-0.22-0.81,0l-0.96,0.96l-0.96-0.96
		c-0.22-0.22-0.59-0.22-0.81,0c-0.22,0.22-0.22,0.59,0,0.81l0.96,0.96l-0.96,0.96c-0.22,0.22-0.22,0.59,0,0.81
		c0.22,0.22,0.59,0.22,0.81,0l0.96-0.96l0.96,0.96c0.22,0.22,0.59,0.22,0.81,0c0.22-0.22,0.22-0.59,0-0.81l-0.96-0.96L84.27,126.54z
		"/>
	<path class="st1" d="M99.27,126.54c0.22-0.22,0.22-0.59,0-0.81c-0.22-0.22-0.59-0.22-0.81,0l-0.96,0.96l-0.96-0.96
		c-0.22-0.22-0.59-0.22-0.81,0c-0.22,0.22-0.22,0.59,0,0.81l0.96,0.96l-0.96,0.96c-0.22,0.22-0.22,0.59,0,0.81
		c0.22,0.22,0.59,0.22,0.81,0l0.96-0.96l0.96,0.96c0.22,0.22,0.59,0.22,0.81,0c0.22-0.22,0.22-0.59,0-0.81l-0.96-0.96L99.27,126.54z
		"/>
	<path class="st1" d="M114.27,126.54c0.22-0.22,0.22-0.59,0-0.81c-0.22-0.22-0.59-0.22-0.81,0l-0.96,0.96l-0.96-0.96
		c-0.22-0.22-0.59-0.22-0.81,0c-0.22,0.22-0.22,0.59,0,0.81l0.96,0.96l-0.96,0.96c-0.22,0.22-0.22,0.59,0,0.81
		c0.22,0.22,0.59,0.22,0.81,0l0.96-0.96l0.96,0.96c0.22,0.22,0.59,0.22,0.81,0c0.22-0.22,0.22-0.59,0-0.81l-0.96-0.96L114.27,126.54
		z"/>
	<path class="st1" d="M129.27,126.54c0.22-0.22,0.22-0.59,0-0.81c-0.22-0.22-0.59-0.22-0.81,0l-0.96,0.96l-0.96-0.96
		c-0.22-0.22-0.59-0.22-0.81,0c-0.22,0.22-0.22,0.59,0,0.81l0.96,0.96l-0.96,0.96c-0.22,0.22-0.22,0.59,0,0.81
		c0.22,0.22,0.59,0.22,0.81,0l0.96-0.96l0.96,0.96c0.22,0.22,0.59,0.22,0.81,0c0.22-0.22,0.22-0.59,0-0.81l-0.96-0.96L129.27,126.54
		z"/>
	<path class="st1" d="M144.27,126.54c0.22-0.22,0.22-0.59,0-0.81c-0.22-0.22-0.59-0.22-0.81,0l-0.96,0.96l-0.96-0.96
		c-0.22-0.22-0.59-0.22-0.81,0c-0.22,0.22-0.22,0.59,0,0.81l0.96,0.96l-0.96,0.96c-0.22,0.22-0.22,0.59,0,0.81
		c0.22,0.22,0.59,0.22,0.81,0l0.96-0.96l0.96,0.96c0.22,0.22,0.59,0.22,0.81,0c0.22-0.22,0.22-0.59,0-0.81l-0.96-0.96L144.27,126.54
		z"/>
	<path class="st1" d="M159.27,126.54c0.22-0.22,0.22-0.59,0-0.81c-0.22-0.22-0.59-0.22-0.81,0l-0.96,0.96l-0.96-0.96
		c-0.22-0.22-0.59-0.22-0.81,0c-0.22,0.22-0.22,0.59,0,0.81l0.96,0.96l-0.96,0.96c-0.22,0.22-0.22,0.59,0,0.81
		c0.22,0.22,0.59,0.22,0.81,0l0.96-0.96l0.96,0.96c0.22,0.22,0.59,0.22,0.81,0c0.22-0.22,0.22-0.59,0-0.81l-0.96-0.96L159.27,126.54
		z"/>
	<path class="st1" d="M9.27,141.54c0.22-0.22,0.22-0.59,0-0.81c-0.22-0.22-0.59-0.22-0.81,0l-0.96,0.96l-0.96-0.96
		c-0.22-0.22-0.59-0.22-0.81,0c-0.22,0.22-0.22,0.59,0,0.81l0.96,0.96l-0.96,0.96c-0.22,0.22-0.22,0.59,0,0.81
		c0.22,0.22,0.59,0.22,0.81,0l0.96-0.96l0.96,0.96c0.22,0.22,0.59,0.22,0.81,0c0.22-0.22,0.22-0.59,0-0.81l-0.96-0.96L9.27,141.54z"
		/>
	<path class="st1" d="M24.27,141.54c0.22-0.22,0.22-0.59,0-0.81c-0.22-0.22-0.59-0.22-0.81,0l-0.96,0.96l-0.96-0.96
		c-0.22-0.22-0.59-0.22-0.81,0c-0.22,0.22-0.22,0.59,0,0.81l0.96,0.96l-0.96,0.96c-0.22,0.22-0.22,0.59,0,0.81
		c0.22,0.22,0.59,0.22,0.81,0l0.96-0.96l0.96,0.96c0.22,0.22,0.59,0.22,0.81,0c0.22-0.22,0.22-0.59,0-0.81l-0.96-0.96L24.27,141.54z
		"/>
	<path class="st1" d="M39.27,141.54c0.22-0.22,0.22-0.59,0-0.81c-0.22-0.22-0.59-0.22-0.81,0l-0.96,0.96l-0.96-0.96
		c-0.22-0.22-0.59-0.22-0.81,0c-0.22,0.22-0.22,0.59,0,0.81l0.96,0.96l-0.96,0.96c-0.22,0.22-0.22,0.59,0,0.81
		c0.22,0.22,0.59,0.22,0.81,0l0.96-0.96l0.96,0.96c0.22,0.22,0.59,0.22,0.81,0c0.22-0.22,0.22-0.59,0-0.81l-0.96-0.96L39.27,141.54z
		"/>
	<path class="st1" d="M54.27,141.54c0.22-0.22,0.22-0.59,0-0.81c-0.22-0.22-0.59-0.22-0.81,0l-0.96,0.96l-0.96-0.96
		c-0.22-0.22-0.59-0.22-0.81,0c-0.22,0.22-0.22,0.59,0,0.81l0.96,0.96l-0.96,0.96c-0.22,0.22-0.22,0.59,0,0.81
		c0.22,0.22,0.59,0.22,0.81,0l0.96-0.96l0.96,0.96c0.22,0.22,0.59,0.22,0.81,0c0.22-0.22,0.22-0.59,0-0.81l-0.96-0.96L54.27,141.54z
		"/>
	<path class="st1" d="M69.27,141.54c0.22-0.22,0.22-0.59,0-0.81c-0.22-0.22-0.59-0.22-0.81,0l-0.96,0.96l-0.96-0.96
		c-0.22-0.22-0.59-0.22-0.81,0c-0.22,0.22-0.22,0.59,0,0.81l0.96,0.96l-0.96,0.96c-0.22,0.22-0.22,0.59,0,0.81
		c0.22,0.22,0.59,0.22,0.81,0l0.96-0.96l0.96,0.96c0.22,0.22,0.59,0.22,0.81,0c0.22-0.22,0.22-0.59,0-0.81l-0.96-0.96L69.27,141.54z
		"/>
	<path class="st1" d="M84.27,141.54c0.22-0.22,0.22-0.59,0-0.81c-0.22-0.22-0.59-0.22-0.81,0l-0.96,0.96l-0.96-0.96
		c-0.22-0.22-0.59-0.22-0.81,0c-0.22,0.22-0.22,0.59,0,0.81l0.96,0.96l-0.96,0.96c-0.22,0.22-0.22,0.59,0,0.81
		c0.22,0.22,0.59,0.22,0.81,0l0.96-0.96l0.96,0.96c0.22,0.22,0.59,0.22,0.81,0c0.22-0.22,0.22-0.59,0-0.81l-0.96-0.96L84.27,141.54z
		"/>
	<path class="st1" d="M99.27,141.54c0.22-0.22,0.22-0.59,0-0.81c-0.22-0.22-0.59-0.22-0.81,0l-0.96,0.96l-0.96-0.96
		c-0.22-0.22-0.59-0.22-0.81,0c-0.22,0.22-0.22,0.59,0,0.81l0.96,0.96l-0.96,0.96c-0.22,0.22-0.22,0.59,0,0.81
		c0.22,0.22,0.59,0.22,0.81,0l0.96-0.96l0.96,0.96c0.22,0.22,0.59,0.22,0.81,0c0.22-0.22,0.22-0.59,0-0.81l-0.96-0.96L99.27,141.54z
		"/>
	<path class="st1" d="M114.27,141.54c0.22-0.22,0.22-0.59,0-0.81c-0.22-0.22-0.59-0.22-0.81,0l-0.96,0.96l-0.96-0.96
		c-0.22-0.22-0.59-0.22-0.81,0c-0.22,0.22-0.22,0.59,0,0.81l0.96,0.96l-0.96,0.96c-0.22,0.22-0.22,0.59,0,0.81
		c0.22,0.22,0.59,0.22,0.81,0l0.96-0.96l0.96,0.96c0.22,0.22,0.59,0.22,0.81,0c0.22-0.22,0.22-0.59,0-0.81l-0.96-0.96L114.27,141.54
		z"/>
	<path class="st1" d="M129.27,141.54c0.22-0.22,0.22-0.59,0-0.81c-0.22-0.22-0.59-0.22-0.81,0l-0.96,0.96l-0.96-0.96
		c-0.22-0.22-0.59-0.22-0.81,0c-0.22,0.22-0.22,0.59,0,0.81l0.96,0.96l-0.96,0.96c-0.22,0.22-0.22,0.59,0,0.81
		c0.22,0.22,0.59,0.22,0.81,0l0.96-0.96l0.96,0.96c0.22,0.22,0.59,0.22,0.81,0c0.22-0.22,0.22-0.59,0-0.81l-0.96-0.96L129.27,141.54
		z"/>
	<path class="st1" d="M144.27,141.54c0.22-0.22,0.22-0.59,0-0.81c-0.22-0.22-0.59-0.22-0.81,0l-0.96,0.96l-0.96-0.96
		c-0.22-0.22-0.59-0.22-0.81,0c-0.22,0.22-0.22,0.59,0,0.81l0.96,0.96l-0.96,0.96c-0.22,0.22-0.22,0.59,0,0.81
		c0.22,0.22,0.59,0.22,0.81,0l0.96-0.96l0.96,0.96c0.22,0.22,0.59,0.22,0.81,0c0.22-0.22,0.22-0.59,0-0.81l-0.96-0.96L144.27,141.54
		z"/>
	<path class="st1" d="M159.27,141.54c0.22-0.22,0.22-0.59,0-0.81c-0.22-0.22-0.59-0.22-0.81,0l-0.96,0.96l-0.96-0.96
		c-0.22-0.22-0.59-0.22-0.81,0c-0.22,0.22-0.22,0.59,0,0.81l0.96,0.96l-0.96,0.96c-0.22,0.22-0.22,0.59,0,0.81
		c0.22,0.22,0.59,0.22,0.81,0l0.96-0.96l0.96,0.96c0.22,0.22,0.59,0.22,0.81,0c0.22-0.22,0.22-0.59,0-0.81l-0.96-0.96L159.27,141.54
		z"/>
	<path class="st1" d="M9.27,156.54c0.22-0.22,0.22-0.59,0-0.81c-0.22-0.22-0.59-0.22-0.81,0l-0.96,0.96l-0.96-0.96
		c-0.22-0.22-0.59-0.22-0.81,0c-0.22,0.22-0.22,0.59,0,0.81l0.96,0.96l-0.96,0.96c-0.22,0.22-0.22,0.59,0,0.81
		c0.22,0.22,0.59,0.22,0.81,0l0.96-0.96l0.96,0.96c0.22,0.22,0.59,0.22,0.81,0c0.22-0.22,0.22-0.59,0-0.81l-0.96-0.96L9.27,156.54z"
		/>
	<path class="st1" d="M24.27,156.54c0.22-0.22,0.22-0.59,0-0.81c-0.22-0.22-0.59-0.22-0.81,0l-0.96,0.96l-0.96-0.96
		c-0.22-0.22-0.59-0.22-0.81,0c-0.22,0.22-0.22,0.59,0,0.81l0.96,0.96l-0.96,0.96c-0.22,0.22-0.22,0.59,0,0.81
		c0.22,0.22,0.59,0.22,0.81,0l0.96-0.96l0.96,0.96c0.22,0.22,0.59,0.22,0.81,0c0.22-0.22,0.22-0.59,0-0.81l-0.96-0.96L24.27,156.54z
		"/>
	<path class="st1" d="M39.27,156.54c0.22-0.22,0.22-0.59,0-0.81c-0.22-0.22-0.59-0.22-0.81,0l-0.96,0.96l-0.96-0.96
		c-0.22-0.22-0.59-0.22-0.81,0c-0.22,0.22-0.22,0.59,0,0.81l0.96,0.96l-0.96,0.96c-0.22,0.22-0.22,0.59,0,0.81
		c0.22,0.22,0.59,0.22,0.81,0l0.96-0.96l0.96,0.96c0.22,0.22,0.59,0.22,0.81,0c0.22-0.22,0.22-0.59,0-0.81l-0.96-0.96L39.27,156.54z
		"/>
	<path class="st1" d="M54.27,156.54c0.22-0.22,0.22-0.59,0-0.81c-0.22-0.22-0.59-0.22-0.81,0l-0.96,0.96l-0.96-0.96
		c-0.22-0.22-0.59-0.22-0.81,0c-0.22,0.22-0.22,0.59,0,0.81l0.96,0.96l-0.96,0.96c-0.22,0.22-0.22,0.59,0,0.81
		c0.22,0.22,0.59,0.22,0.81,0l0.96-0.96l0.96,0.96c0.22,0.22,0.59,0.22,0.81,0c0.22-0.22,0.22-0.59,0-0.81l-0.96-0.96L54.27,156.54z
		"/>
	<path class="st1" d="M69.27,156.54c0.22-0.22,0.22-0.59,0-0.81c-0.22-0.22-0.59-0.22-0.81,0l-0.96,0.96l-0.96-0.96
		c-0.22-0.22-0.59-0.22-0.81,0c-0.22,0.22-0.22,0.59,0,0.81l0.96,0.96l-0.96,0.96c-0.22,0.22-0.22,0.59,0,0.81
		c0.22,0.22,0.59,0.22,0.81,0l0.96-0.96l0.96,0.96c0.22,0.22,0.59,0.22,0.81,0c0.22-0.22,0.22-0.59,0-0.81l-0.96-0.96L69.27,156.54z
		"/>
	<path class="st1" d="M84.27,156.54c0.22-0.22,0.22-0.59,0-0.81c-0.22-0.22-0.59-0.22-0.81,0l-0.96,0.96l-0.96-0.96
		c-0.22-0.22-0.59-0.22-0.81,0c-0.22,0.22-0.22,0.59,0,0.81l0.96,0.96l-0.96,0.96c-0.22,0.22-0.22,0.59,0,0.81
		c0.22,0.22,0.59,0.22,0.81,0l0.96-0.96l0.96,0.96c0.22,0.22,0.59,0.22,0.81,0c0.22-0.22,0.22-0.59,0-0.81l-0.96-0.96L84.27,156.54z
		"/>
	<path class="st1" d="M99.27,156.54c0.22-0.22,0.22-0.59,0-0.81c-0.22-0.22-0.59-0.22-0.81,0l-0.96,0.96l-0.96-0.96
		c-0.22-0.22-0.59-0.22-0.81,0c-0.22,0.22-0.22,0.59,0,0.81l0.96,0.96l-0.96,0.96c-0.22,0.22-0.22,0.59,0,0.81
		c0.22,0.22,0.59,0.22,0.81,0l0.96-0.96l0.96,0.96c0.22,0.22,0.59,0.22,0.81,0c0.22-0.22,0.22-0.59,0-0.81l-0.96-0.96L99.27,156.54z
		"/>
	<path class="st1" d="M114.27,156.54c0.22-0.22,0.22-0.59,0-0.81c-0.22-0.22-0.59-0.22-0.81,0l-0.96,0.96l-0.96-0.96
		c-0.22-0.22-0.59-0.22-0.81,0c-0.22,0.22-0.22,0.59,0,0.81l0.96,0.96l-0.96,0.96c-0.22,0.22-0.22,0.59,0,0.81
		c0.22,0.22,0.59,0.22,0.81,0l0.96-0.96l0.96,0.96c0.22,0.22,0.59,0.22,0.81,0c0.22-0.22,0.22-0.59,0-0.81l-0.96-0.96L114.27,156.54
		z"/>
	<path class="st1" d="M129.27,156.54c0.22-0.22,0.22-0.59,0-0.81c-0.22-0.22-0.59-0.22-0.81,0l-0.96,0.96l-0.96-0.96
		c-0.22-0.22-0.59-0.22-0.81,0c-0.22,0.22-0.22,0.59,0,0.81l0.96,0.96l-0.96,0.96c-0.22,0.22-0.22,0.59,0,0.81
		c0.22,0.22,0.59,0.22,0.81,0l0.96-0.96l0.96,0.96c0.22,0.22,0.59,0.22,0.81,0c0.22-0.22,0.22-0.59,0-0.81l-0.96-0.96L129.27,156.54
		z"/>
	<path class="st1" d="M144.27,156.54c0.22-0.22,0.22-0.59,0-0.81c-0.22-0.22-0.59-0.22-0.81,0l-0.96,0.96l-0.96-0.96
		c-0.22-0.22-0.59-0.22-0.81,0c-0.22,0.22-0.22,0.59,0,0.81l0.96,0.96l-0.96,0.96c-0.22,0.22-0.22,0.59,0,0.81
		c0.22,0.22,0.59,0.22,0.81,0l0.96-0.96l0.96,0.96c0.22,0.22,0.59,0.22,0.81,0c0.22-0.22,0.22-0.59,0-0.81l-0.96-0.96L144.27,156.54
		z"/>
	<path class="st1" d="M159.27,156.54c0.22-0.22,0.22-0.59,0-0.81c-0.22-0.22-0.59-0.22-0.81,0l-0.96,0.96l-0.96-0.96
		c-0.22-0.22-0.59-0.22-0.81,0c-0.22,0.22-0.22,0.59,0,0.81l0.96,0.96l-0.96,0.96c-0.22,0.22-0.22,0.59,0,0.81
		c0.22,0.22,0.59,0.22,0.81,0l0.96-0.96l0.96,0.96c0.22,0.22,0.59,0.22,0.81,0c0.22-0.22,0.22-0.59,0-0.81l-0.96-0.96L159.27,156.54
		z"/>
</g>
</svg>
