<?xml version="1.0" encoding="utf-8"?>
<!-- Generator: Adobe Illustrator 24.0.2, SVG Export Plug-In . SVG Version: 6.00 Build 0)  -->
<svg version="1.1" id="Layer_1" xmlns="http://www.w3.org/2000/svg" xmlns:xlink="http://www.w3.org/1999/xlink" x="0px" y="0px"
	 viewBox="0 0 450 300" style="enable-background:new 0 0 450 300;" xml:space="preserve">
<style type="text/css">
	.st0{fill-rule:evenodd;clip-rule:evenodd;fill:#E2E8F5;}
	.st1{fill-rule:evenodd;clip-rule:evenodd;fill:#BFCCE8;}
	.st2{fill-rule:evenodd;clip-rule:evenodd;fill:#90A9D5;}
	.st3{fill-rule:evenodd;clip-rule:evenodd;fill:#B6C7E6;}
	.st4{fill-rule:evenodd;clip-rule:evenodd;fill:#E6E4EB;}
	.st5{fill-rule:evenodd;clip-rule:evenodd;fill:#0F1630;stroke:#0E1632;stroke-width:0.1488;stroke-miterlimit:22.9256;}
	.st6{fill-rule:evenodd;clip-rule:evenodd;fill:#CEC9D0;}
	.st7{fill-rule:evenodd;clip-rule:evenodd;fill:#FFFFFF;}
	.st8{fill-rule:evenodd;clip-rule:evenodd;fill:#E8685B;}
	.st9{fill-rule:evenodd;clip-rule:evenodd;fill:#0F1630;}
	.st10{fill-rule:evenodd;clip-rule:evenodd;fill:#3D4155;}
	.st11{fill-rule:evenodd;clip-rule:evenodd;fill:#545A6C;}
	.st12{fill-rule:evenodd;clip-rule:evenodd;fill:#F4AD85;}
	.st13{fill-rule:evenodd;clip-rule:evenodd;fill:#ED9072;}
	.st14{fill-rule:evenodd;clip-rule:evenodd;fill:#0E1632;}
	.st15{fill-rule:evenodd;clip-rule:evenodd;fill:#010518;}
	.st16{fill-rule:evenodd;clip-rule:evenodd;fill:#05304B;}
	.st17{fill-rule:evenodd;clip-rule:evenodd;fill:#0076BD;}
	.st18{fill-rule:evenodd;clip-rule:evenodd;fill:#171C3A;}
	.st19{fill-rule:evenodd;clip-rule:evenodd;fill:#C9C4D1;}
	.st20{fill-rule:evenodd;clip-rule:evenodd;fill:#1C2344;}
	.st21{fill-rule:evenodd;clip-rule:evenodd;fill:#101937;}
	.st22{fill-rule:evenodd;clip-rule:evenodd;fill:#383D5D;}
	.st23{fill-rule:evenodd;clip-rule:evenodd;fill:#01020E;}
	.st24{fill-rule:evenodd;clip-rule:evenodd;fill:#E2E1E7;}
	.st25{fill-rule:evenodd;clip-rule:evenodd;fill:#B92F6D;}
	.st26{fill-rule:evenodd;clip-rule:evenodd;fill:#E74D91;}
	.st27{fill-rule:evenodd;clip-rule:evenodd;fill:#ACABBB;}
	.st28{fill-rule:evenodd;clip-rule:evenodd;fill:#DFF0F2;}
	.st29{fill-rule:evenodd;clip-rule:evenodd;fill:#004A82;}
	.st30{fill-rule:evenodd;clip-rule:evenodd;fill:#A8A6B5;}
	.st31{fill-rule:evenodd;clip-rule:evenodd;fill:#96929F;}
	.st32{fill-rule:evenodd;clip-rule:evenodd;fill:#F0EEF0;}
	.st33{fill-rule:evenodd;clip-rule:evenodd;fill:#D2CED6;}
	.st34{fill-rule:evenodd;clip-rule:evenodd;fill:#484E6A;}
	.st35{fill-rule:evenodd;clip-rule:evenodd;fill:#1A293D;}
	.st36{fill:#E4EBF7;}
	.st37{fill:#FFFFFF;}
	.st38{fill:#98B2D8;}
	.st39{fill:#B1C3E8;}
	.st40{fill:#B7CAE5;}
	.st41{fill:#97B3D1;}
	.st42{fill:#CED9EA;}
	.st43{fill:#B6C5DD;}
	.st44{fill:#5D7CA0;}
	.st45{fill:#799CBF;}
	.st46{fill:#F2F4F9;}
	.st47{fill:#C1CFE5;}
	.st48{fill:url(#SVGID_1_);}
	.st49{opacity:0.22;fill:#1F395E;}
	.st50{fill:url(#SVGID_2_);}
	.st51{fill:url(#SVGID_3_);}
	.st52{fill:#1F395E;}
	.st53{fill:url(#SVGID_4_);}
	.st54{fill:#3150BC;}
	.st55{fill:#FEB19E;}
	.st56{fill:#FF856A;}
	.st57{fill:url(#SVGID_5_);}
	.st58{fill:#FFFFFF;stroke:#0F22D3;stroke-width:1.1335;stroke-miterlimit:10;}
	.st59{opacity:0.6;fill:#9ABCED;}
	.st60{fill:#9ABCED;}
	.st61{fill:#C1C8D3;}
	.st62{fill:url(#SVGID_6_);}
	.st63{fill:url(#SVGID_7_);}
	.st64{fill:#4F7EB7;}
	.st65{opacity:0.71;fill:#7CA6D8;}
	.st66{fill:#EA9BA1;}
	.st67{opacity:0.5;}
	.st68{fill:#7CA6D8;}
	.st69{fill:#E83F54;}
	.st70{opacity:0.5;fill:#9ABCED;}
	.st71{fill-rule:evenodd;clip-rule:evenodd;fill:#E1E8F6;}
	.st72{fill-rule:evenodd;clip-rule:evenodd;fill:#C0CDEA;}
	.st73{fill-rule:evenodd;clip-rule:evenodd;fill:#00000F;}
	.st74{fill-rule:evenodd;clip-rule:evenodd;fill:#626687;}
	.st75{fill-rule:evenodd;clip-rule:evenodd;fill:#101537;}
	.st76{fill-rule:evenodd;clip-rule:evenodd;fill:#C7CAE0;}
	.st77{fill-rule:evenodd;clip-rule:evenodd;fill:#BEC4DC;}
	.st78{fill-rule:evenodd;clip-rule:evenodd;fill:#B5B9D1;}
	.st79{fill-rule:evenodd;clip-rule:evenodd;fill:#CCD3E5;}
	.st80{fill-rule:evenodd;clip-rule:evenodd;fill:#BABFD6;}
	.st81{fill-rule:evenodd;clip-rule:evenodd;fill:#B0B7CF;}
	.st82{fill-rule:evenodd;clip-rule:evenodd;fill:#B0B7CE;}
	.st83{fill-rule:evenodd;clip-rule:evenodd;fill:#DBE1F1;}
	.st84{fill-rule:evenodd;clip-rule:evenodd;fill:#D6DCEA;}
	.st85{fill-rule:evenodd;clip-rule:evenodd;fill:#C7CADE;}
	.st86{fill-rule:evenodd;clip-rule:evenodd;fill:#C7CADB;}
	.st87{fill-rule:evenodd;clip-rule:evenodd;fill:#BDC1D5;}
	.st88{fill-rule:evenodd;clip-rule:evenodd;fill:#B5BED8;}
	.st89{fill-rule:evenodd;clip-rule:evenodd;fill:#CED2E1;}
	.st90{fill-rule:evenodd;clip-rule:evenodd;fill:#B6B7CB;}
	.st91{fill-rule:evenodd;clip-rule:evenodd;fill:#AAAEC3;}
	.st92{fill-rule:evenodd;clip-rule:evenodd;fill:#EAEEF4;}
	.st93{fill-rule:evenodd;clip-rule:evenodd;fill:#EC6957;}
	.st94{fill-rule:evenodd;clip-rule:evenodd;fill:#D84743;}
	.st95{fill-rule:evenodd;clip-rule:evenodd;fill:#EE9073;}
	.st96{fill-rule:evenodd;clip-rule:evenodd;fill:#DBD7D7;}
	.st97{fill-rule:evenodd;clip-rule:evenodd;fill:#3B405F;}
	.st98{fill-rule:evenodd;clip-rule:evenodd;fill:#E27E67;}
	.st99{fill-rule:evenodd;clip-rule:evenodd;fill:#F5AC83;}
	.st100{fill-rule:evenodd;clip-rule:evenodd;fill:#F6F5F4;}
	.st101{fill-rule:evenodd;clip-rule:evenodd;fill:#080321;}
	.st102{fill-rule:evenodd;clip-rule:evenodd;fill:#DBE2F3;}
	.st103{fill-rule:evenodd;clip-rule:evenodd;fill:#EAEEF8;}
	.st104{fill-rule:evenodd;clip-rule:evenodd;fill:#003053;}
	.st105{fill-rule:evenodd;clip-rule:evenodd;fill:#1874BA;}
	.st106{fill-rule:evenodd;clip-rule:evenodd;fill:#B83470;}
	.st107{fill-rule:evenodd;clip-rule:evenodd;fill:#E13C83;}
	.st108{fill-rule:evenodd;clip-rule:evenodd;fill:#E94D90;}
	.st109{fill-rule:evenodd;clip-rule:evenodd;fill:#EE788F;}
	.st110{fill-rule:evenodd;clip-rule:evenodd;fill:#F5C8B4;}
	.st111{fill-rule:evenodd;clip-rule:evenodd;fill:#F4BCA3;}
	.st112{fill-rule:evenodd;clip-rule:evenodd;fill:#E0E7F5;}
	.st113{fill-rule:evenodd;clip-rule:evenodd;fill:#9EB1D8;}
	.st114{fill-rule:evenodd;clip-rule:evenodd;fill:#C8D2EB;}
	.st115{fill-rule:evenodd;clip-rule:evenodd;fill:#B0C0E3;}
	.st116{fill-rule:evenodd;clip-rule:evenodd;fill:#BCC9E7;}
	.st117{fill-rule:evenodd;clip-rule:evenodd;fill:#B3C4E5;}
	.st118{fill-rule:evenodd;clip-rule:evenodd;fill:#EAF1F2;}
	.st119{fill-rule:evenodd;clip-rule:evenodd;fill:#BFCCE9;}
	.st120{fill-rule:evenodd;clip-rule:evenodd;fill:#141A33;}
	.st121{fill-rule:evenodd;clip-rule:evenodd;fill:#0E173F;}
	.st122{fill-rule:evenodd;clip-rule:evenodd;fill:#030822;}
	.st123{fill-rule:evenodd;clip-rule:evenodd;fill:#E03C82;}
	.st124{fill-rule:evenodd;clip-rule:evenodd;fill:#B73470;}
	.st125{fill-rule:evenodd;clip-rule:evenodd;fill:#2C3049;}
	.st126{fill-rule:evenodd;clip-rule:evenodd;fill:#F4AB82;}
	.st127{fill-rule:evenodd;clip-rule:evenodd;fill:#ED8F73;}
	.st128{fill-rule:evenodd;clip-rule:evenodd;fill:#301814;}
	.st129{fill-rule:evenodd;clip-rule:evenodd;fill:#E84D8F;}
	.st130{fill-rule:evenodd;clip-rule:evenodd;fill:#E8695B;}
	.st131{fill-rule:evenodd;clip-rule:evenodd;fill:#00000F;stroke:#1A1A18;stroke-width:0.3835;stroke-miterlimit:22.9256;}
	.st132{fill-rule:evenodd;clip-rule:evenodd;fill:#E17E67;}
	.st133{fill-rule:evenodd;clip-rule:evenodd;fill:#EC7862;}
	.st134{fill-rule:evenodd;clip-rule:evenodd;fill:#563F2F;}
	.st135{fill-rule:evenodd;clip-rule:evenodd;fill:#A26E50;}
	.st136{fill-rule:evenodd;clip-rule:evenodd;fill:#EF8971;}
	.st137{fill-rule:evenodd;clip-rule:evenodd;fill:#F5F4F3;}
	.st138{fill-rule:evenodd;clip-rule:evenodd;fill:#CEC8CF;}
	.st139{fill-rule:evenodd;clip-rule:evenodd;fill:#E9574D;}
	.st140{fill-rule:evenodd;clip-rule:evenodd;fill:#D74743;}
	.st141{fill-rule:evenodd;clip-rule:evenodd;fill:#3F4154;}
	.st142{fill-rule:evenodd;clip-rule:evenodd;fill:#575A6D;}
	.st143{fill-rule:evenodd;clip-rule:evenodd;fill:#D6BCA3;}
	.st144{fill-rule:evenodd;clip-rule:evenodd;fill:#BE8762;}
	.st145{fill-rule:evenodd;clip-rule:evenodd;fill:#D39E80;}
	.st146{fill-rule:evenodd;clip-rule:evenodd;fill:#1C2B3F;}
	.st147{fill-rule:evenodd;clip-rule:evenodd;fill:#1874B9;}
	.st148{fill-rule:evenodd;clip-rule:evenodd;fill:#002846;}
	.st149{fill-rule:evenodd;clip-rule:evenodd;fill:#A7A5B5;}
	.st150{fill-rule:evenodd;clip-rule:evenodd;fill:#9794A1;}
	.st151{fill-rule:evenodd;clip-rule:evenodd;fill:#F2F1F3;}
	.st152{fill-rule:evenodd;clip-rule:evenodd;fill:#D3D0D7;}
	.st153{fill-rule:evenodd;clip-rule:evenodd;fill:#3B3A3A;}
	.st154{fill-rule:evenodd;clip-rule:evenodd;fill:#242525;}
	.st155{fill-rule:evenodd;clip-rule:evenodd;fill:#C7DDE0;}
	.st156{fill-rule:evenodd;clip-rule:evenodd;fill:#7A9196;}
	.st157{fill-rule:evenodd;clip-rule:evenodd;fill:#E3E0E7;}
	.st158{fill-rule:evenodd;clip-rule:evenodd;fill:#ADAAB9;}
	.st159{fill:#FF7D6C;}
	.st160{fill:#80739B;}
	.st161{fill:#65CBC2;}
	.st162{fill:#FDC97A;}
	.st163{fill:#F6931D;}
	.st164{fill:#C1B49A;}
	.st165{fill:#2DA9E3;stroke:#FFFFFF;stroke-width:0.3828;stroke-miterlimit:10;}
	.st166{opacity:0.39;}
	.st167{opacity:0.64;fill:#D0C3E8;}
	.st168{opacity:0.31;fill:#B29CDA;}
	.st169{opacity:0.24;}
	.st170{clip-path:url(#SVGID_9_);}
	.st171{fill:none;stroke:#FFFFFF;stroke-width:1.4326;stroke-miterlimit:10;}
	.st172{clip-path:url(#SVGID_11_);}
	.st173{clip-path:url(#SVGID_13_);}
	.st174{opacity:0.3;fill:#D0C3E8;}
	.st175{fill:#32B4C5;}
	.st176{fill:#4DCFE0;}
	.st177{fill:#60E2F3;}
	.st178{fill:#39306C;}
	.st179{fill:#4B4582;}
	.st180{opacity:0.74;}
	.st181{fill:#DF2D76;}
	.st182{fill:#F6327A;}
	.st183{fill:#221B4C;}
	.st184{fill:none;stroke:#4B4582;stroke-width:0.8791;stroke-linecap:round;stroke-linejoin:round;stroke-miterlimit:10;}
	.st185{fill:none;stroke:#4B4582;stroke-width:0.615;stroke-linecap:round;stroke-linejoin:round;stroke-miterlimit:10;}
	.st186{fill:none;stroke:#FFFFFF;stroke-width:1.4967;stroke-linecap:round;stroke-linejoin:round;stroke-miterlimit:10;}
	.st187{fill:#DC3178;}
	.st188{fill:#F3AD97;}
	.st189{fill:#FFB89E;}
	.st190{fill:none;stroke:#F6327A;stroke-width:0.9457;stroke-miterlimit:10;}
	.st191{fill:#47417F;}
	.st192{fill:#5E5895;}
	.st193{opacity:0.07;}
	.st194{fill:none;stroke:#4B4582;stroke-width:0.8988;stroke-linecap:round;stroke-linejoin:round;stroke-miterlimit:10;}
	.st195{fill:none;stroke:#4B4582;stroke-width:1.7976;stroke-linecap:round;stroke-linejoin:round;stroke-miterlimit:10;}
	.st196{fill:none;stroke:#4B4582;stroke-width:1.2564;stroke-linecap:round;stroke-linejoin:round;stroke-miterlimit:10;}
</style>
<g>
	<g>
		<g>
			<path class="st0" d="M102.48,193.52H66.13h-0.95c-20.07,0-36.5,16.42-36.5,36.5l0,0c0,20.07,16.42,36.5,36.5,36.5h106.55h18.35
				h190.47c32.51,0,59.1-26.59,59.1-59.1l0,0c0-32.5-26.59-59.1-59.1-59.1h0c-13.74,0-24.99-11.24-24.99-24.99l0,0
				c0-13.74,11.24-24.99,24.99-24.99h30.07c14.29,0,25.98-11.69,25.98-25.98l0,0c0-14.29-11.69-25.98-25.98-25.98H372.6
				c-5.56,0-10.11-4.55-10.11-10.11l0,0c0-5.56,4.55-10.11,10.11-10.11h6.7c3.84,0,6.98-3.14,6.98-6.98v0
				c0-3.84-3.14-6.98-6.98-6.98h-25.12c0,0-9.6,0-18.86,0c-9.26,0-10.3,10.94-33.7,10.94c-36.18,0-31.25,0-67.43,0
				c-5.01,0-9.11,4.1-9.11,9.11v0c0,5.01,4.1,9.11,9.11,9.11h8.75c7.26,0,13.2,5.94,13.2,13.2v0c0,7.26-5.94,13.2-13.2,13.2h-13.16
				c-35.55,0-40.57,9.29-46.8,27.77c-6.23,18.48-38.56,19.97-38.56,19.97h-44.21c-10.94,0-19.89,8.95-19.89,19.89v0
				c0,10.94,8.95,19.89,19.89,19.89h2.28c10.52,0,19.13,8.61,19.13,19.13l0,0C121.61,184.91,113.01,193.52,102.48,193.52
				L102.48,193.52z M398.9,26.15c-3.86,0-6.98-3.13-6.98-6.98c0-3.86,3.13-6.98,6.98-6.98c3.85,0,6.98,3.13,6.98,6.98
				C405.88,23.03,402.75,26.15,398.9,26.15z"/>
			<g>
				<path class="st1" d="M105.62,266.51h3.2v-19.4l12.11,12.11l-7.29,7.29h3.01l5.78-5.78l5.78,5.78h3.01l-7.29-7.29l12.11-12.11
					v19.4h3.2V115.48h-3.2v3.68l-3.68-3.68h-3.01l6.69,6.69v0.18l-13.62,13.62l-13.62-13.62v-0.18l6.69-6.69h-3.01l-3.68,3.68v-3.68
					h-3.2v40.04c1.1,0.18,2.17,0.46,3.2,0.83v-0.54l0.88,0.88c4.74,1.95,8.55,5.75,10.49,10.49l0.74,0.74l-0.34,0.34
					c0.26,0.77,0.48,1.56,0.64,2.37l1.2-1.2l13.62,13.62v0.18l-13.62,13.62l-7.75-7.75c-0.55,0.46-1.13,0.89-1.73,1.28l7.98,7.98
					l-12.11,12.11v-18.03c-1.03,0.36-2.1,0.64-3.2,0.82V266.51L105.62,266.51z M108.82,240.9v-24.23l12.11,12.11L108.82,240.9
					L108.82,240.9z M108.82,149.6v-24.23l12.11,12.11L108.82,149.6L108.82,149.6z M136.06,125.37v24.23l-12.11-12.11L136.06,125.37
					L136.06,125.37z M136.06,155.81v24.23l-12.11-12.11L136.06,155.81L136.06,155.81z M136.06,186.24v24.23l-12.11-12.11
					L136.06,186.24L136.06,186.24z M136.06,216.68v24.23l-12.11-12.11L136.06,216.68L136.06,216.68z M108.82,152.61l13.62-13.62
					l13.62,13.62v0.18l-13.62,13.62l-13.62-13.62V152.61L108.82,152.61z M108.82,213.48l13.62-13.62l13.62,13.62v0.18l-13.62,13.62
					l-13.62-13.62V213.48L108.82,213.48z M108.82,243.92l13.62-13.62l13.62,13.62v0.18l-13.62,13.62l-13.62-13.62V243.92z"/>
				<path class="st1" d="M329.09,266.51h3.19v-19.4l12.11,12.11l-7.29,7.29h3.01l5.78-5.78l5.78,5.78h3.01l-7.29-7.29l12.11-12.11
					v19.4h3.2V140.78c-1.2-1.22-2.27-2.56-3.2-4v12.82l-12.11-12.11l8.75-8.75c-0.19-0.85-0.33-1.71-0.43-2.58l-9.82,9.82
					l-13.62-13.62v-0.18l13.62-13.62l10.11,10.11c0.16-0.82,0.35-1.63,0.59-2.42l-9.19-9.19l12.11-12.11v14.94
					c0.93-1.44,2-2.78,3.2-4V38.42c-0.15-0.69-0.23-1.42-0.23-2.15l0,0c0-0.74,0.08-1.46,0.23-2.15V12.19h-3.2v15.66l-12.11-12.11
					l3.55-3.55h-3.01l-2.04,2.04l-2.04-2.04h-3.01l3.55,3.55l-12.11,12.11V12.63c-1.13,0.34-2.16,0.85-3.19,1.48V266.51
					L329.09,266.51z M332.29,240.9v-24.23l12.11,12.11L332.29,240.9L332.29,240.9z M332.29,210.47v-24.23l12.11,12.11L332.29,210.47
					L332.29,210.47z M332.29,180.03v-24.23l12.11,12.11L332.29,180.03L332.29,180.03z M332.29,149.6v-24.23l12.11,12.11
					L332.29,149.6L332.29,149.6z M332.29,119.16V94.93l12.11,12.11L332.29,119.16L332.29,119.16z M332.29,88.73V64.5l12.11,12.11
					L332.29,88.73L332.29,88.73z M332.29,58.29V34.06l12.11,12.11L332.29,58.29L332.29,58.29z M359.53,34.06v24.23l-12.11-12.11
					L359.53,34.06L359.53,34.06z M359.53,64.5v24.23l-12.11-12.11L359.53,64.5L359.53,64.5z M359.53,155.81v24.23l-12.11-12.11
					L359.53,155.81L359.53,155.81z M359.53,186.24v24.23l-12.11-12.11L359.53,186.24L359.53,186.24z M359.53,216.68v24.23
					l-12.11-12.11L359.53,216.68L359.53,216.68z M332.29,30.87l13.62-13.62l13.62,13.62v0.18l-13.62,13.62l-13.62-13.62V30.87
					L332.29,30.87z M332.29,61.3l13.62-13.62l13.62,13.62v0.18l-13.62,13.62l-13.62-13.62V61.3L332.29,61.3z M332.29,91.74
					l13.62-13.62l13.62,13.62v0.18l-13.62,13.62l-13.62-13.62V91.74L332.29,91.74z M332.29,152.61l13.62-13.62l13.62,13.62v0.18
					l-13.62,13.62l-13.62-13.62V152.61L332.29,152.61z M332.29,183.05l13.62-13.62l13.62,13.62v0.18l-13.62,13.62l-13.62-13.62
					V183.05L332.29,183.05z M332.29,213.48l13.62-13.62l13.62,13.62v0.18l-13.62,13.62l-13.62-13.62V213.48L332.29,213.48z
					 M332.29,243.92l13.62-13.62l13.62,13.62v0.18l-13.62,13.62l-13.62-13.62V243.92z"/>
				<path class="st1" d="M94.31,193.52h-4.71v5.77l-5.77-5.77H79.4l10.21,10.21V204l-20.07,20.07L49.47,204v-0.27l9.71-9.71
					c-2.05,0.34-4.05,0.86-5.97,1.53l-3.74,3.74v-2.19c-1.64,0.79-3.21,1.7-4.71,2.71v60.4c1.49,1.02,3.07,1.93,4.71,2.71v-9.65
					l13.14,13.14c0.85,0.06,1.71,0.09,2.58,0.09h1.95l-17.67-17.67v-0.27l20.07-20.07l20.07,20.07v0.27l-17.67,17.67h4.44
					l13.23-13.23v13.23h4.71V193.52L94.31,193.52z M94.31,116.38c-4.73,1.48-8.71,4.68-11.2,8.86l6.49-6.49v33.43
					c1.45,0.92,3.03,1.66,4.71,2.19V116.38L94.31,116.38z M49.47,244.14v-35.7l17.85,17.85L49.47,244.14L49.47,244.14z
					 M89.61,208.44v35.7l-17.85-17.85L89.61,208.44z"/>
				<path class="st1" d="M374.03,266.51h4.71v-13.23l12.29,12.29c1.23-0.22,2.45-0.49,3.65-0.79l-15.94-15.95v-0.27l20.07-20.07
					l20.07,20.07v0.27l-10.84,10.84c5.82-3.08,11.07-7.11,15.55-11.87v-80.81c-2.03-2.16-4.22-4.17-6.55-6.01l-18.22,18.22
					l-20.07-20.07v-0.27l10-10c-1.32-0.19-2.66-0.33-4.01-0.42l-5.98,5.98v-6.2c-1.62-0.12-3.19-0.39-4.71-0.8V266.51L374.03,266.51
					z M374.03,99.21c1.52-0.41,3.09-0.69,4.71-0.81V73.9l17.85,17.85L390,98.34h4.44l4.37-4.37l4.37,4.37h4.44l-6.59-6.59
					l17.85-17.85v23.09c1.65-0.56,3.22-1.27,4.71-2.13V49.87c-1.48-0.86-3.06-1.58-4.71-2.13v17.02l-17.85-17.85l0.53-0.53h-5.49
					l0.53,0.53l-17.85,17.85V46.38h-4.71V99.21L374.03,99.21z M374.03,26.15h5.27c0.31,0,0.61-0.02,0.91-0.06l-1.47-1.47v-0.27
					l7.23-7.23c-0.33-1.06-0.9-2.01-1.65-2.78l-5.58,5.58v-7.72h-4.71V26.15L374.03,26.15z M378.74,244.14v-35.7l17.85,17.85
					L378.74,244.14L378.74,244.14z M378.74,199.29v-35.7l17.85,17.85L378.74,199.29L378.74,199.29z M418.88,163.59v35.7
					l-17.85-17.85L418.88,163.59L418.88,163.59z M418.88,208.44v35.7l-17.85-17.85L418.88,208.44L418.88,208.44z M378.74,69.2
					l20.07-20.07l20.07,20.07v0.27l-20.07,20.07l-20.07-20.07V69.2L378.74,69.2z M378.74,203.73l20.07-20.07l20.07,20.07V204
					l-20.07,20.07L378.74,204V203.73z"/>
			</g>
			<g>
				<g>
					<path class="st2" d="M119.5,208.42H87.4c-1.3,0-2.36,1.06-2.36,2.36v22.64c0,1.3,1.06,2.36,2.36,2.36h32.1
						c1.3,0,2.36-1.06,2.36-2.36v-22.64C121.87,209.49,120.8,208.42,119.5,208.42z"/>
					<path class="st3" d="M140.56,208.42h-32.1c-1.3,0-2.36,1.06-2.36,2.36v22.64c0,1.3,1.06,2.36,2.36,2.36h32.1
						c1.3,0,2.36-1.06,2.36-2.36v-22.64C142.93,209.49,141.87,208.42,140.56,208.42z"/>
					<path class="st2" d="M136.4,217.46h-23.76c-0.74,0-1.35,0.61-1.35,1.35v6.59c0,0.74,0.61,1.35,1.35,1.35h23.76
						c0.74,0,1.35-0.61,1.35-1.35v-6.59C137.75,218.07,137.14,217.46,136.4,217.46z"/>
					<path class="st4" d="M126.02,219.04h-11.69c-0.16,0-0.29,0.13-0.29,0.29v1.44c0,0.16,0.13,0.29,0.29,0.29h11.69
						c0.16,0,0.29-0.13,0.29-0.29v-1.44C126.32,219.17,126.18,219.04,126.02,219.04z"/>
					<path class="st4" d="M120.11,222.25h-5.77c-0.16,0-0.29,0.13-0.29,0.29v1.44c0,0.16,0.13,0.29,0.29,0.29h5.77
						c0.16,0,0.29-0.13,0.29-0.29v-1.44C120.4,222.38,120.27,222.25,120.11,222.25z"/>
				</g>
				<g>
					<path class="st2" d="M108.42,235.79h38.46c1.56,0,2.83,1.28,2.83,2.83v27.13c0,1.56-1.28,2.83-2.83,2.83h-38.46
						c-1.56,0-2.83-1.28-2.83-2.83v-27.13C105.59,237.07,106.86,235.79,108.42,235.79z"/>
					<path class="st3" d="M83.18,235.79h38.46c1.56,0,2.83,1.28,2.83,2.83v27.13c0,1.56-1.27,2.83-2.83,2.83H83.18
						c-1.56,0-2.83-1.28-2.83-2.83v-27.13C80.35,237.07,81.62,235.79,83.18,235.79z"/>
					<path class="st2" d="M88.18,246.62h28.48c0.89,0,1.62,0.73,1.62,1.62v7.9c0,0.89-0.73,1.62-1.62,1.62H88.18
						c-0.89,0-1.62-0.73-1.62-1.62v-7.9C86.56,247.35,87.29,246.62,88.18,246.62z"/>
					<path class="st4" d="M100.61,248.51h14c0.19,0,0.35,0.16,0.35,0.35v1.72c0,0.19-0.16,0.35-0.35,0.35h-14
						c-0.19,0-0.35-0.16-0.35-0.35v-1.72C100.26,248.67,100.41,248.51,100.61,248.51z"/>
					<path class="st4" d="M107.69,252.36h6.92c0.19,0,0.35,0.16,0.35,0.35v1.72c0,0.19-0.16,0.35-0.35,0.35h-6.92
						c-0.19,0-0.35-0.16-0.35-0.35v-1.72C107.34,252.52,107.5,252.36,107.69,252.36z"/>
				</g>
			</g>
			<path class="st1" d="M284.41,88.61c0.95-0.95,2.1-1.72,3.37-2.25c1.22-0.51,2.56-0.79,3.97-0.79c1.4,0,2.74,0.28,3.97,0.79
				c1.27,0.53,2.42,1.3,3.37,2.25c0.95,0.95,1.73,2.1,2.25,3.37c0.51,1.22,0.79,2.56,0.79,3.96c0,1.4-0.28,2.74-0.79,3.97
				c-0.53,1.27-1.3,2.42-2.25,3.37c-0.95,0.95-2.1,1.72-3.37,2.25c-1.22,0.51-2.56,0.79-3.97,0.79c-1.4,0-2.74-0.28-3.97-0.79
				c-1.27-0.53-2.42-1.3-3.37-2.25c-0.95-0.95-1.73-2.1-2.25-3.37c-0.51-1.22-0.79-2.56-0.79-3.97c0-1.4,0.28-2.74,0.79-3.96
				C282.69,90.71,283.46,89.57,284.41,88.61L284.41,88.61z M288.15,87.25c-1.15,0.48-2.18,1.18-3.05,2.05
				c-0.87,0.87-1.57,1.91-2.05,3.05c-0.46,1.11-0.71,2.32-0.71,3.6c0,1.28,0.25,2.49,0.71,3.6c0.48,1.15,1.18,2.18,2.05,3.05
				c0.87,0.87,1.91,1.57,3.05,2.05c1.11,0.46,2.32,0.71,3.6,0.71c1.28,0,2.49-0.25,3.6-0.71c1.15-0.48,2.19-1.18,3.06-2.05
				c0.87-0.87,1.57-1.91,2.04-3.05c0.46-1.11,0.71-2.32,0.71-3.6c0-1.28-0.25-2.49-0.71-3.6c-0.48-1.15-1.18-2.18-2.04-3.05
				c-0.87-0.87-1.91-1.57-3.05-2.05c-1.11-0.46-2.32-0.71-3.6-0.71C290.47,86.54,289.25,86.79,288.15,87.25L288.15,87.25z
				 M287,79.61c-0.65,0.19-1.29,0.42-1.91,0.68c-0.63,0.27-1.25,0.58-1.84,0.92c-0.6,0.35-1.18,0.73-1.73,1.15
				c-0.56,0.42-1.08,0.87-1.58,1.35c-0.18,0.17-0.4,0.27-0.62,0.3c-0.23,0.03-0.47-0.02-0.68-0.14c-1.52-0.88-3.12-1.75-4.62-2.67
				c-0.07-0.04-0.15-0.06-0.22-0.07c-0.09-0.01-0.17,0-0.25,0.02c-0.08,0.02-0.16,0.06-0.23,0.11c-0.07,0.05-0.12,0.12-0.17,0.19
				c-1.11,1.68-2.23,3.85-3.25,5.63c-0.04,0.08-0.07,0.16-0.08,0.24c-0.01,0.09,0,0.18,0.02,0.26c0.02,0.08,0.06,0.16,0.11,0.23
				c0.05,0.07,0.12,0.12,0.19,0.17c1.37,0.91,3.14,1.81,4.59,2.65c0.21,0.12,0.37,0.31,0.46,0.51c0.03,0.07,0.05,0.15,0.07,0.23
				l0.09,0.03l-0.11,0.43c-0.08,0.34-0.16,0.67-0.22,1.01c-0.06,0.33-0.11,0.67-0.15,1.02c-0.04,0.35-0.07,0.69-0.09,1.03
				c-0.02,0.33-0.03,0.68-0.03,1.04c0,0.36,0.01,0.71,0.03,1.04c0.02,0.34,0.05,0.69,0.09,1.03c0.04,0.36,0.1,0.7,0.15,1.02
				c0.06,0.34,0.14,0.67,0.22,1.01c0.06,0.25,0.03,0.5-0.07,0.72c-0.1,0.22-0.27,0.4-0.49,0.51l-4.06,2.35l0,0l-0.48,0.28
				c-0.08,0.04-0.14,0.1-0.19,0.17c-0.05,0.07-0.09,0.15-0.11,0.23c-0.02,0.09-0.03,0.18-0.02,0.26c0.01,0.08,0.04,0.16,0.08,0.24
				l3.01,5.21l0,0l0.24,0.42c0.04,0.08,0.1,0.14,0.17,0.19c0.07,0.05,0.15,0.09,0.23,0.11c0.09,0.02,0.18,0.03,0.26,0.02
				c0.08-0.01,0.16-0.04,0.24-0.08c1.46-0.91,3.1-1.79,4.6-2.65c0.21-0.12,0.45-0.16,0.67-0.14c0.23,0.03,0.45,0.13,0.62,0.29l0,0
				c0.5,0.48,1.03,0.93,1.58,1.35c0.55,0.42,1.13,0.8,1.73,1.15c0.59,0.34,1.21,0.65,1.85,0.92c0.63,0.27,1.28,0.5,1.95,0.69
				c0.24,0.07,0.43,0.21,0.57,0.39c0.14,0.19,0.22,0.42,0.22,0.66l0,5.3c0,0.09,0.02,0.17,0.05,0.25c0.03,0.08,0.08,0.15,0.14,0.21
				c0.06,0.06,0.13,0.11,0.21,0.14c0.08,0.03,0.16,0.05,0.25,0.05H295c0.09,0,0.17-0.02,0.25-0.05c0.08-0.03,0.15-0.08,0.21-0.14
				c0.06-0.06,0.11-0.14,0.14-0.21c0.03-0.08,0.05-0.16,0.05-0.25v-5.3c0-0.25,0.09-0.49,0.24-0.67c0.15-0.19,0.36-0.33,0.6-0.39
				c0.65-0.19,1.29-0.41,1.91-0.68c0.63-0.27,1.25-0.58,1.84-0.92c0.6-0.35,1.18-0.73,1.73-1.15c0.56-0.42,1.08-0.87,1.58-1.35
				c0.18-0.18,0.42-0.28,0.65-0.3c0.24-0.02,0.49,0.04,0.7,0.17l4.54,2.62c0.08,0.04,0.16,0.07,0.24,0.08
				c0.08,0.01,0.17,0,0.26-0.02c0.09-0.02,0.16-0.06,0.23-0.11c0.07-0.05,0.12-0.11,0.17-0.19c1.08-1.88,2.17-3.75,3.25-5.63
				c0.04-0.08,0.07-0.16,0.08-0.24c0.01-0.09,0-0.17-0.02-0.26c-0.02-0.09-0.06-0.17-0.11-0.23c-0.05-0.07-0.11-0.12-0.19-0.17
				l-4.59-2.65c-0.21-0.12-0.37-0.3-0.46-0.51c-0.02-0.06-0.04-0.11-0.06-0.17l-0.12-0.02l0.12-0.49c0.08-0.34,0.16-0.67,0.22-1.01
				c0.06-0.33,0.11-0.67,0.16-1.02c0.04-0.35,0.07-0.69,0.09-1.03c0.02-0.33,0.03-0.68,0.03-1.04c0-0.36-0.01-0.71-0.03-1.04
				c-0.02-0.34-0.05-0.68-0.09-1.03c-0.04-0.36-0.1-0.7-0.16-1.03c-0.06-0.33-0.13-0.67-0.22-1.01c-0.06-0.25-0.03-0.5,0.07-0.72
				c0.1-0.21,0.27-0.4,0.49-0.51l4.55-2.63c0.07-0.04,0.14-0.1,0.19-0.17c0.05-0.07,0.09-0.15,0.11-0.23
				c0.02-0.09,0.03-0.18,0.02-0.26c-0.01-0.08-0.04-0.16-0.08-0.24c-1.11-1.65-2.22-3.86-3.25-5.63c-0.04-0.08-0.1-0.14-0.17-0.19
				c-0.07-0.05-0.15-0.09-0.23-0.11c-0.09-0.02-0.18-0.03-0.26-0.02c-0.08,0.01-0.16,0.04-0.24,0.08l-4.6,2.65
				c-0.22,0.13-0.46,0.17-0.69,0.14c-0.23-0.03-0.45-0.14-0.62-0.31c-0.5-0.48-1.03-0.93-1.57-1.34c-0.55-0.41-1.12-0.79-1.72-1.14
				c-0.59-0.34-1.21-0.65-1.85-0.92c-0.63-0.27-1.28-0.5-1.94-0.69c-0.24-0.07-0.43-0.21-0.57-0.39c-0.14-0.19-0.22-0.42-0.22-0.66
				l0-5.3c0-0.09-0.02-0.17-0.05-0.25c-0.03-0.08-0.08-0.15-0.15-0.21c-0.06-0.06-0.13-0.11-0.21-0.15
				c-0.08-0.03-0.16-0.05-0.25-0.05h-6.51c-0.09,0-0.17,0.02-0.25,0.05c-0.08,0.03-0.15,0.08-0.21,0.14
				c-0.12,0.12-0.19,0.28-0.19,0.46v5.3c0,0.25-0.09,0.49-0.23,0.67C287.45,79.42,287.24,79.56,287,79.61L287,79.61z M284.71,79.41
				c-0.67,0.28-1.32,0.61-1.94,0.97c-0.64,0.37-1.25,0.77-1.83,1.21c-0.58,0.44-1.14,0.91-1.67,1.42c-0.02,0.02-0.05,0.03-0.07,0.03
				c-0.03,0-0.06,0-0.08-0.02c-1.54-0.89-3.09-1.78-4.63-2.68c-0.18-0.1-0.38-0.16-0.58-0.18c-0.21-0.02-0.41-0.01-0.61,0.05
				c-0.2,0.05-0.4,0.15-0.57,0.28c-0.16,0.13-0.31,0.28-0.42,0.47c-1.12,1.81-2.18,3.78-3.25,5.63c-0.11,0.19-0.18,0.39-0.2,0.6
				c-0.03,0.21-0.01,0.43,0.04,0.63c0.05,0.2,0.15,0.4,0.28,0.57c0.13,0.16,0.28,0.31,0.47,0.42c1.48,0.91,3.08,1.78,4.59,2.65
				c0.02,0.01,0.04,0.04,0.05,0.06c0.01,0.03,0.01,0.05,0.01,0.08l-0.11,0.43l0.01,0c-0.05,0.21-0.09,0.42-0.13,0.63
				c-0.07,0.37-0.12,0.73-0.17,1.08c-0.04,0.35-0.08,0.71-0.1,1.09c-0.02,0.37-0.03,0.74-0.03,1.1c0,0.36,0.01,0.72,0.03,1.1
				c0.02,0.37,0.06,0.74,0.1,1.09c0.04,0.35,0.1,0.72,0.17,1.08c0.07,0.37,0.14,0.72,0.23,1.07c0.01,0.03,0,0.06-0.01,0.08
				c-0.01,0.03-0.03,0.05-0.06,0.06c-1.69,0.9-3.4,1.96-5.07,2.93l0.06,0.07l-0.05,0.06c-0.13,0.17-0.22,0.36-0.28,0.57
				c-0.05,0.2-0.07,0.42-0.04,0.63c0.03,0.21,0.09,0.41,0.2,0.6l3.5,6.06l0.06-0.04c0.04,0.03,0.07,0.06,0.11,0.09
				c0.17,0.13,0.36,0.23,0.57,0.28c0.2,0.05,0.42,0.07,0.63,0.04c0.2-0.03,0.4-0.09,0.58-0.19c1.53-0.81,3.1-1.79,4.61-2.66
				c0.02-0.01,0.05-0.02,0.08-0.01c0.03,0,0.06,0.02,0.08,0.03c0.53,0.51,1.08,0.98,1.67,1.42c0.58,0.44,1.19,0.84,1.83,1.21
				c0.63,0.36,1.28,0.69,1.95,0.98c0.67,0.28,1.36,0.53,2.06,0.73c0.03,0.01,0.05,0.02,0.07,0.05c0.02,0.02,0.03,0.05,0.03,0.08v5.3
				c0,0.22,0.04,0.43,0.12,0.62c0.08,0.2,0.2,0.38,0.35,0.53c0.15,0.15,0.33,0.27,0.52,0.35c0.19,0.08,0.4,0.12,0.62,0.12H295
				c0.22,0,0.43-0.04,0.62-0.12c0.2-0.08,0.37-0.2,0.53-0.35c0.15-0.15,0.27-0.33,0.35-0.53c0.08-0.19,0.12-0.4,0.12-0.62v-5.3
				c0-0.03,0.01-0.06,0.03-0.08c0.02-0.02,0.04-0.04,0.07-0.04l0.02-0.01c0.71-0.2,1.39-0.45,2.04-0.73
				c0.67-0.28,1.32-0.61,1.94-0.97c0.64-0.37,1.25-0.77,1.83-1.21c0.58-0.44,1.14-0.92,1.67-1.42c0.02-0.02,0.05-0.03,0.08-0.04
				c0.03,0,0.06,0,0.08,0.02l4.59,2.65c0.19,0.11,0.39,0.17,0.6,0.2c0.21,0.03,0.43,0.01,0.63-0.04c0.2-0.05,0.4-0.15,0.57-0.28
				c0.16-0.12,0.3-0.28,0.41-0.46c1.21-1.94,2.35-4.07,3.5-6.06l-0.06-0.04c0.01-0.05,0.02-0.1,0.03-0.15
				c0.03-0.21,0.01-0.43-0.04-0.63c-0.05-0.2-0.15-0.4-0.28-0.57c-0.13-0.16-0.28-0.31-0.47-0.42l-4.59-2.65
				c-0.02-0.01-0.04-0.04-0.05-0.06c-0.01-0.03-0.01-0.06-0.01-0.08l0.12-0.49l-0.01,0c0.04-0.19,0.08-0.38,0.12-0.58
				c0.07-0.37,0.12-0.73,0.17-1.08c0.04-0.35,0.08-0.72,0.1-1.09c0.02-0.37,0.03-0.74,0.03-1.1c0-0.36-0.01-0.72-0.03-1.1
				c-0.02-0.37-0.06-0.74-0.1-1.09c-0.04-0.35-0.1-0.71-0.17-1.08c-0.07-0.36-0.14-0.72-0.23-1.06c-0.01-0.03,0-0.06,0.01-0.09
				c0.01-0.02,0.03-0.05,0.06-0.06l4.59-2.65c0.19-0.11,0.35-0.25,0.47-0.42c0.13-0.17,0.23-0.37,0.28-0.57
				c0.05-0.2,0.07-0.42,0.04-0.63c-0.03-0.2-0.09-0.4-0.19-0.59c-1.09-2.02-2.35-4.07-3.5-6.07l-0.07,0.04
				c-0.04-0.03-0.07-0.06-0.11-0.09c-0.17-0.13-0.37-0.22-0.57-0.28c-0.2-0.05-0.42-0.07-0.63-0.04c-0.21,0.03-0.41,0.09-0.6,0.2
				l-0.34,0.2l0,0l-4.26,2.46c-0.03,0.02-0.05,0.02-0.08,0.02c-0.03,0-0.05-0.02-0.07-0.04L304.2,83c-0.52-0.5-1.08-0.98-1.66-1.42
				c-0.58-0.44-1.19-0.84-1.82-1.2c-0.63-0.36-1.28-0.69-1.95-0.98c-0.67-0.28-1.36-0.53-2.06-0.73c-0.03-0.01-0.05-0.02-0.07-0.05
				c-0.02-0.02-0.03-0.05-0.03-0.08v-5.3c0-0.22-0.04-0.43-0.12-0.62c-0.08-0.2-0.2-0.38-0.35-0.53c-0.15-0.15-0.33-0.27-0.52-0.35
				c-0.19-0.08-0.4-0.12-0.62-0.12h-6.51c-0.22,0-0.43,0.04-0.62,0.12c-0.2,0.08-0.37,0.2-0.53,0.35c-0.29,0.29-0.48,0.7-0.48,1.14
				v5.3c0,0.03-0.01,0.06-0.03,0.08c-0.02,0.02-0.04,0.04-0.07,0.04l-0.02,0.01C286.05,78.89,285.37,79.14,284.71,79.41z"/>
			<path class="st1" d="M15.56,140.62c0.95-0.95,2.1-1.72,3.37-2.25c1.22-0.51,2.56-0.79,3.97-0.79c1.4,0,2.74,0.28,3.97,0.79
				c1.27,0.53,2.42,1.3,3.37,2.25c0.95,0.95,1.72,2.1,2.25,3.37c0.51,1.22,0.79,2.56,0.79,3.96c0,1.4-0.28,2.74-0.79,3.97
				c-0.53,1.27-1.3,2.42-2.25,3.37c-0.95,0.95-2.1,1.72-3.37,2.25c-1.22,0.51-2.56,0.79-3.97,0.79c-1.4,0-2.74-0.28-3.97-0.79
				c-1.27-0.53-2.42-1.3-3.37-2.25s-1.72-2.1-2.25-3.37c-0.51-1.22-0.79-2.56-0.79-3.97c0-1.4,0.28-2.74,0.79-3.96
				C13.84,142.72,14.61,141.58,15.56,140.62L15.56,140.62z M19.3,139.26c-1.15,0.48-2.18,1.18-3.05,2.05
				c-0.87,0.87-1.57,1.91-2.05,3.05c-0.46,1.11-0.71,2.32-0.71,3.6c0,1.28,0.25,2.49,0.71,3.6c0.48,1.15,1.18,2.18,2.05,3.05
				c0.87,0.87,1.91,1.57,3.05,2.05c1.11,0.46,2.32,0.71,3.6,0.71c1.28,0,2.49-0.25,3.6-0.71c1.15-0.48,2.19-1.18,3.06-2.05
				c0.87-0.87,1.57-1.91,2.05-3.05c0.46-1.11,0.71-2.32,0.71-3.6c0-1.28-0.25-2.49-0.71-3.6c-0.48-1.15-1.18-2.18-2.05-3.05
				c-0.87-0.87-1.91-1.57-3.05-2.05c-1.11-0.46-2.32-0.71-3.6-0.71C21.62,138.55,20.4,138.8,19.3,139.26L19.3,139.26z M18.15,131.63
				c-0.65,0.19-1.29,0.42-1.91,0.68c-0.63,0.27-1.25,0.58-1.84,0.92c-0.6,0.35-1.18,0.73-1.73,1.15c-0.56,0.42-1.08,0.87-1.58,1.35
				c-0.18,0.17-0.4,0.27-0.62,0.3c-0.23,0.03-0.47-0.02-0.68-0.14c-1.52-0.88-3.12-1.75-4.62-2.67c-0.07-0.04-0.15-0.06-0.22-0.07
				c-0.09-0.01-0.17,0-0.25,0.02c-0.08,0.02-0.16,0.06-0.23,0.11c-0.07,0.05-0.12,0.12-0.17,0.19c-1.11,1.68-2.22,3.85-3.25,5.63
				c-0.04,0.08-0.07,0.16-0.08,0.24c-0.01,0.09,0,0.18,0.02,0.26c0.02,0.08,0.06,0.16,0.11,0.23c0.05,0.07,0.12,0.12,0.19,0.17
				c1.37,0.91,3.14,1.81,4.59,2.65c0.21,0.12,0.37,0.31,0.46,0.51c0.03,0.07,0.05,0.15,0.07,0.23l0.09,0.03l-0.11,0.43
				c-0.08,0.34-0.16,0.67-0.22,1.01c-0.06,0.33-0.11,0.67-0.15,1.02c-0.04,0.35-0.07,0.69-0.09,1.03c-0.02,0.33-0.03,0.68-0.03,1.04
				c0,0.36,0.01,0.71,0.03,1.04c0.02,0.34,0.05,0.69,0.09,1.03c0.04,0.36,0.1,0.7,0.16,1.02c0.06,0.34,0.13,0.67,0.22,1.01
				c0.06,0.25,0.03,0.5-0.07,0.72c-0.1,0.22-0.27,0.4-0.49,0.51l-4.06,2.35l0,0l-0.48,0.28c-0.08,0.04-0.14,0.1-0.19,0.17
				c-0.05,0.07-0.09,0.15-0.11,0.23c-0.02,0.09-0.03,0.18-0.02,0.26c0.01,0.08,0.04,0.16,0.08,0.24l3.01,5.21l0,0l0.24,0.42
				c0.04,0.08,0.1,0.14,0.17,0.19c0.07,0.05,0.15,0.09,0.23,0.11c0.09,0.02,0.18,0.03,0.26,0.02c0.08-0.01,0.16-0.04,0.24-0.08
				c1.46-0.91,3.1-1.79,4.6-2.65c0.21-0.12,0.45-0.16,0.67-0.14c0.23,0.03,0.45,0.13,0.62,0.29l0,0c0.5,0.48,1.03,0.93,1.58,1.35
				c0.55,0.42,1.13,0.8,1.73,1.15c0.59,0.34,1.21,0.65,1.85,0.92c0.63,0.27,1.28,0.5,1.95,0.69c0.24,0.07,0.43,0.21,0.57,0.39
				c0.14,0.19,0.22,0.42,0.22,0.66l0,5.3c0,0.09,0.02,0.17,0.05,0.25c0.03,0.08,0.08,0.15,0.14,0.21c0.06,0.06,0.13,0.11,0.21,0.15
				c0.08,0.03,0.16,0.05,0.25,0.05h6.51c0.09,0,0.17-0.02,0.25-0.05c0.08-0.03,0.15-0.08,0.21-0.14c0.06-0.06,0.11-0.14,0.14-0.22
				c0.03-0.08,0.05-0.16,0.05-0.25v-5.3c0-0.25,0.09-0.49,0.24-0.67c0.15-0.19,0.36-0.33,0.6-0.39c0.65-0.19,1.29-0.42,1.91-0.68
				c0.63-0.27,1.25-0.58,1.84-0.92c0.6-0.35,1.18-0.73,1.73-1.15c0.56-0.42,1.08-0.87,1.58-1.35c0.18-0.18,0.42-0.28,0.65-0.3
				c0.24-0.02,0.49,0.04,0.7,0.17l4.54,2.62c0.07,0.04,0.16,0.07,0.24,0.08c0.09,0.01,0.17,0,0.26-0.02
				c0.08-0.02,0.16-0.06,0.23-0.11c0.07-0.05,0.12-0.11,0.17-0.19c1.08-1.88,2.17-3.75,3.25-5.63c0.04-0.08,0.07-0.16,0.08-0.24
				c0.01-0.08,0-0.17-0.02-0.26c-0.02-0.09-0.06-0.17-0.11-0.23c-0.05-0.07-0.11-0.12-0.19-0.17l-4.59-2.65
				c-0.21-0.12-0.37-0.3-0.46-0.51c-0.02-0.06-0.04-0.12-0.06-0.18l-0.12-0.02l0.12-0.49c0.08-0.34,0.16-0.67,0.22-1.01
				c0.06-0.33,0.11-0.67,0.16-1.02c0.04-0.35,0.07-0.69,0.09-1.03c0.02-0.33,0.03-0.68,0.03-1.04c0-0.36-0.01-0.71-0.03-1.04
				c-0.02-0.34-0.05-0.68-0.09-1.03c-0.04-0.36-0.1-0.7-0.16-1.03c-0.06-0.33-0.13-0.67-0.22-1.01c-0.06-0.25-0.03-0.5,0.07-0.72
				c0.1-0.21,0.27-0.4,0.49-0.51l4.55-2.63c0.08-0.04,0.14-0.1,0.19-0.17c0.05-0.07,0.09-0.15,0.11-0.23
				c0.02-0.09,0.03-0.18,0.02-0.26c-0.01-0.08-0.04-0.16-0.08-0.24c-1.11-1.65-2.22-3.86-3.25-5.63c-0.04-0.08-0.1-0.14-0.17-0.19
				c-0.07-0.05-0.15-0.09-0.23-0.11c-0.09-0.02-0.18-0.03-0.26-0.02c-0.08,0.01-0.16,0.04-0.24,0.08l-4.6,2.65
				c-0.22,0.13-0.46,0.17-0.69,0.14c-0.23-0.03-0.45-0.14-0.62-0.31c-0.5-0.48-1.03-0.93-1.57-1.34c-0.55-0.41-1.12-0.79-1.72-1.14
				c-0.59-0.34-1.21-0.65-1.85-0.92c-0.63-0.27-1.28-0.5-1.95-0.69c-0.24-0.07-0.43-0.21-0.57-0.39c-0.14-0.18-0.22-0.42-0.22-0.66
				l0-5.3c0-0.09-0.02-0.17-0.05-0.25c-0.03-0.08-0.08-0.15-0.14-0.21c-0.06-0.06-0.13-0.11-0.21-0.15
				c-0.08-0.03-0.16-0.05-0.25-0.05h-6.51c-0.09,0-0.17,0.02-0.25,0.05c-0.08,0.03-0.15,0.08-0.21,0.14
				c-0.12,0.12-0.19,0.28-0.19,0.46v5.3c0,0.25-0.09,0.49-0.23,0.67C18.6,131.43,18.39,131.57,18.15,131.63L18.15,131.63z
				 M15.86,131.42c-0.67,0.28-1.32,0.61-1.94,0.97c-0.64,0.37-1.25,0.77-1.83,1.21c-0.58,0.44-1.14,0.91-1.67,1.42
				c-0.02,0.02-0.05,0.03-0.07,0.03c-0.03,0-0.06,0-0.08-0.02c-1.54-0.89-3.09-1.78-4.63-2.68c-0.18-0.1-0.38-0.16-0.58-0.18
				c-0.21-0.02-0.41-0.01-0.61,0.05c-0.2,0.05-0.4,0.15-0.57,0.28c-0.16,0.13-0.31,0.28-0.42,0.47c-1.12,1.81-2.18,3.78-3.25,5.63
				c-0.11,0.19-0.18,0.39-0.2,0.6c-0.03,0.21-0.01,0.43,0.04,0.63c0.05,0.2,0.15,0.4,0.28,0.57c0.13,0.16,0.28,0.31,0.47,0.42
				c1.48,0.91,3.08,1.78,4.59,2.65c0.02,0.01,0.04,0.04,0.05,0.06c0.01,0.03,0.01,0.05,0.01,0.08l-0.11,0.43l0.01,0
				c-0.05,0.21-0.09,0.42-0.13,0.63c-0.07,0.37-0.12,0.73-0.17,1.08c-0.04,0.35-0.08,0.71-0.1,1.09c-0.02,0.37-0.03,0.74-0.03,1.1
				c0,0.36,0.01,0.72,0.03,1.1c0.02,0.37,0.06,0.74,0.1,1.09c0.04,0.35,0.1,0.72,0.17,1.08c0.07,0.36,0.14,0.72,0.23,1.07
				c0.01,0.03,0,0.06-0.01,0.08c-0.01,0.03-0.03,0.05-0.06,0.06c-1.69,0.9-3.4,1.96-5.07,2.93l0.06,0.07l-0.05,0.06
				c-0.13,0.17-0.22,0.36-0.28,0.57c-0.05,0.2-0.07,0.42-0.04,0.63c0.03,0.21,0.09,0.41,0.2,0.6l3.5,6.06l0.06-0.04
				c0.03,0.03,0.07,0.06,0.11,0.09c0.17,0.13,0.36,0.22,0.57,0.28c0.2,0.05,0.42,0.07,0.63,0.04c0.2-0.02,0.4-0.09,0.58-0.19
				c1.53-0.81,3.1-1.79,4.61-2.66c0.02-0.01,0.05-0.02,0.08-0.01c0.03,0,0.06,0.02,0.08,0.03c0.53,0.51,1.08,0.98,1.67,1.42
				c0.58,0.44,1.19,0.84,1.83,1.21c0.63,0.36,1.28,0.69,1.95,0.98c0.67,0.28,1.36,0.53,2.06,0.73c0.03,0.01,0.05,0.02,0.07,0.05
				c0.02,0.02,0.03,0.05,0.03,0.08v5.3c0,0.22,0.04,0.43,0.12,0.62c0.08,0.2,0.2,0.38,0.35,0.53c0.15,0.15,0.33,0.27,0.52,0.35
				c0.19,0.08,0.4,0.12,0.62,0.12h6.51c0.22,0,0.43-0.04,0.62-0.12c0.2-0.08,0.37-0.2,0.53-0.35c0.15-0.15,0.27-0.33,0.35-0.53
				c0.08-0.19,0.12-0.4,0.12-0.62v-5.3c0-0.03,0.01-0.06,0.03-0.08c0.02-0.02,0.04-0.04,0.07-0.04l0.02-0.01
				c0.71-0.2,1.39-0.45,2.04-0.73c0.67-0.29,1.32-0.61,1.94-0.97c0.64-0.37,1.25-0.77,1.83-1.21c0.58-0.44,1.14-0.92,1.67-1.42
				c0.02-0.02,0.05-0.03,0.08-0.04c0.03,0,0.06,0,0.08,0.02l4.59,2.65c0.19,0.11,0.39,0.17,0.6,0.2c0.21,0.03,0.43,0.01,0.63-0.04
				c0.2-0.05,0.4-0.15,0.57-0.28c0.16-0.12,0.3-0.28,0.41-0.46c1.21-1.94,2.35-4.06,3.5-6.06l-0.06-0.04
				c0.01-0.05,0.02-0.1,0.03-0.15c0.03-0.21,0.01-0.43-0.04-0.63c-0.05-0.2-0.15-0.4-0.28-0.57c-0.13-0.17-0.28-0.31-0.47-0.42
				l-4.59-2.65c-0.02-0.01-0.04-0.03-0.05-0.06c-0.01-0.03-0.01-0.06-0.01-0.08l0.12-0.49l-0.01,0c0.04-0.19,0.08-0.38,0.12-0.58
				c0.07-0.37,0.12-0.73,0.17-1.08c0.04-0.35,0.08-0.72,0.1-1.09c0.02-0.37,0.03-0.74,0.03-1.1c0-0.36-0.01-0.72-0.03-1.1
				c-0.02-0.37-0.06-0.74-0.1-1.09c-0.04-0.35-0.1-0.71-0.17-1.08c-0.07-0.36-0.14-0.72-0.23-1.06c-0.01-0.03,0-0.06,0.01-0.09
				c0.01-0.03,0.03-0.05,0.06-0.06l4.59-2.65c0.19-0.11,0.35-0.25,0.47-0.42c0.13-0.17,0.23-0.37,0.28-0.57
				c0.05-0.2,0.07-0.42,0.04-0.63c-0.03-0.2-0.09-0.4-0.19-0.59c-1.09-2.03-2.35-4.07-3.5-6.07l-0.07,0.04
				c-0.04-0.03-0.07-0.06-0.11-0.09c-0.17-0.13-0.36-0.22-0.57-0.28c-0.2-0.05-0.42-0.07-0.63-0.04c-0.21,0.03-0.41,0.09-0.6,0.2
				l-0.34,0.2l0,0l-4.26,2.46c-0.03,0.01-0.05,0.02-0.08,0.02c-0.03,0-0.05-0.02-0.07-0.04l-0.01-0.01
				c-0.52-0.5-1.08-0.98-1.66-1.42c-0.58-0.44-1.19-0.84-1.82-1.2c-0.63-0.36-1.28-0.69-1.95-0.98c-0.67-0.28-1.36-0.53-2.06-0.73
				c-0.03-0.01-0.05-0.02-0.07-0.05c-0.02-0.02-0.03-0.05-0.03-0.08v-5.3c0-0.22-0.04-0.43-0.12-0.62c-0.08-0.2-0.2-0.38-0.35-0.53
				c-0.15-0.15-0.33-0.27-0.52-0.35c-0.19-0.08-0.4-0.12-0.62-0.12h-6.51c-0.22,0-0.43,0.04-0.62,0.12c-0.2,0.08-0.37,0.2-0.53,0.35
				c-0.29,0.29-0.48,0.7-0.48,1.14v5.3c0,0.03-0.01,0.06-0.03,0.08c-0.02,0.02-0.04,0.04-0.07,0.04l-0.02,0.01
				C17.2,130.9,16.52,131.15,15.86,131.42z"/>
			<path class="st1" d="M55.94,171.27L55.94,171.27L55.94,171.27z M58.22,162.55c0.8-0.8,1.9-1.29,3.11-1.29
				c1.22,0,2.32,0.49,3.11,1.29c0.8,0.8,1.29,1.9,1.29,3.11c0,1.22-0.49,2.32-1.29,3.11c-0.8,0.8-1.9,1.29-3.11,1.29
				c-1.22,0-2.32-0.49-3.11-1.29c-0.8-0.8-1.29-1.9-1.29-3.11C56.94,164.45,57.43,163.35,58.22,162.55L58.22,162.55z M59.18,158.19
				c-0.61,0.18-1.19,0.42-1.73,0.73c-0.55,0.32-1.06,0.7-1.51,1.14c-0.09,0.09-0.22,0.1-0.32,0.04l-2.05-1.18l-0.01-0.01
				c-0.12-0.06-0.25-0.07-0.37-0.04c-0.13,0.03-0.24,0.12-0.31,0.24l-0.01,0.01l-1.44,2.49c-0.07,0.12-0.08,0.26-0.05,0.39
				c0.03,0.13,0.11,0.24,0.23,0.31l0.01,0.01l2.03,1.17c0.11,0.06,0.16,0.19,0.13,0.3h0c-0.07,0.3-0.13,0.61-0.17,0.93
				c-0.04,0.31-0.06,0.63-0.06,0.95c0,0.32,0.02,0.64,0.06,0.95c0.04,0.32,0.1,0.63,0.17,0.93c0.03,0.13-0.03,0.25-0.14,0.31
				l-2.03,1.17v0c-0.12,0.07-0.2,0.18-0.23,0.31c-0.03,0.13-0.02,0.26,0.05,0.38l1.45,2.51h0c0.07,0.12,0.18,0.2,0.31,0.23
				c0.13,0.03,0.26,0.02,0.38-0.05l0.02-0.01l2.03-1.17c0.11-0.06,0.24-0.04,0.32,0.04c0.45,0.44,0.96,0.82,1.51,1.14
				c0.54,0.31,1.12,0.56,1.74,0.74c0.12,0.03,0.2,0.14,0.2,0.26v2.36c0,0.14,0.06,0.27,0.15,0.36c0.09,0.09,0.22,0.15,0.36,0.15h2.9
				c0.14,0,0.27-0.06,0.36-0.15c0.09-0.09,0.15-0.22,0.15-0.36v-2.36c0-0.13,0.09-0.23,0.21-0.26c0.61-0.18,1.19-0.42,1.73-0.73
				c0.55-0.32,1.06-0.7,1.51-1.14c0.09-0.09,0.23-0.1,0.34-0.03l2.03,1.17c0.12,0.07,0.26,0.08,0.38,0.05
				c0.13-0.03,0.24-0.12,0.31-0.23l0.01-0.01l1.44-2.49h0c0.07-0.12,0.08-0.26,0.05-0.38c-0.03-0.13-0.11-0.24-0.23-0.31l-2.04-1.18
				c-0.11-0.06-0.16-0.18-0.13-0.3h0c0.07-0.3,0.13-0.61,0.17-0.93c0.04-0.31,0.06-0.63,0.06-0.95c0-0.32-0.02-0.64-0.06-0.95
				c-0.04-0.32-0.1-0.63-0.17-0.93c-0.03-0.13,0.03-0.25,0.14-0.31l2.03-1.17c0.12-0.07,0.2-0.18,0.23-0.31
				c0.03-0.13,0.02-0.26-0.05-0.38l-0.01-0.01l-1.44-2.49h0c-0.07-0.12-0.18-0.2-0.31-0.24c-0.13-0.03-0.26-0.02-0.38,0.05l0,0
				l-2.05,1.18c-0.11,0.06-0.24,0.04-0.33-0.05c-0.45-0.44-0.96-0.82-1.51-1.14c-0.54-0.31-1.12-0.56-1.74-0.74
				c-0.12-0.03-0.2-0.14-0.2-0.26v-2.36c0-0.14-0.06-0.27-0.15-0.36c-0.09-0.09-0.22-0.15-0.36-0.15h-2.9
				c-0.14,0-0.27,0.06-0.36,0.15c-0.09,0.09-0.15,0.22-0.15,0.36v2.36C59.38,158.06,59.29,158.16,59.18,158.19z"/>
			<path class="st1" d="M150.62,97.59c0-0.42-0.34-0.76-0.75-0.76c-0.42,0-0.76,0.34-0.76,0.76v1.78h-1.78
				c-0.42,0-0.76,0.34-0.76,0.76c0,0.42,0.34,0.75,0.76,0.75h1.78v1.78c0,0.42,0.34,0.75,0.76,0.75c0.42,0,0.75-0.34,0.75-0.75
				v-1.78h1.78c0.42,0,0.75-0.34,0.75-0.75c0-0.42-0.34-0.76-0.75-0.76h-1.78V97.59z"/>
			<path class="st1" d="M196.97,48.5L196.97,48.5L196.97,48.5z M199.26,39.79c0.8-0.8,1.9-1.29,3.11-1.29
				c1.22,0,2.32,0.49,3.11,1.29c0.8,0.8,1.29,1.9,1.29,3.11c0,1.22-0.49,2.32-1.29,3.11c-0.8,0.8-1.9,1.29-3.11,1.29
				c-1.22,0-2.32-0.49-3.11-1.29c-0.8-0.8-1.29-1.9-1.29-3.11C197.97,41.69,198.47,40.59,199.26,39.79L199.26,39.79z M200.21,35.42
				c-0.61,0.18-1.19,0.42-1.73,0.73c-0.55,0.32-1.06,0.7-1.51,1.14c-0.09,0.09-0.22,0.1-0.32,0.04l-2.05-1.18l-0.01-0.01
				c-0.12-0.06-0.25-0.08-0.37-0.04c-0.13,0.03-0.24,0.12-0.31,0.24l-0.01,0.01l-1.44,2.49c-0.07,0.12-0.08,0.26-0.05,0.39
				c0.03,0.13,0.12,0.24,0.24,0.31l0.01,0.01l2.03,1.17c0.11,0.06,0.16,0.18,0.13,0.3h0c-0.07,0.3-0.13,0.61-0.17,0.93
				c-0.04,0.31-0.06,0.63-0.06,0.95c0,0.32,0.02,0.64,0.06,0.95c0.04,0.32,0.1,0.63,0.17,0.93c0.03,0.13-0.03,0.25-0.14,0.31
				l-2.03,1.17l0,0c-0.12,0.07-0.2,0.18-0.24,0.31c-0.03,0.13-0.02,0.27,0.05,0.38l1.45,2.51l0,0c0.07,0.12,0.18,0.2,0.31,0.24
				c0.13,0.03,0.26,0.02,0.38-0.05l0.02-0.01l2.03-1.17c0.11-0.06,0.24-0.04,0.32,0.04c0.45,0.44,0.96,0.82,1.51,1.14
				c0.54,0.31,1.12,0.56,1.74,0.74c0.12,0.03,0.2,0.14,0.2,0.26V53c0,0.14,0.06,0.27,0.15,0.36c0.09,0.09,0.22,0.15,0.36,0.15h2.9
				c0.14,0,0.27-0.06,0.36-0.15c0.09-0.09,0.15-0.22,0.15-0.36v-2.36c0-0.13,0.09-0.23,0.21-0.26c0.61-0.18,1.19-0.42,1.73-0.73
				c0.55-0.32,1.06-0.7,1.51-1.14c0.09-0.09,0.23-0.1,0.34-0.03l2.03,1.17c0.12,0.07,0.26,0.08,0.38,0.05
				c0.13-0.03,0.24-0.11,0.31-0.24l0.01-0.01l1.44-2.49h0c0.07-0.12,0.08-0.26,0.05-0.38c-0.03-0.13-0.11-0.24-0.23-0.31l-2.04-1.18
				c-0.11-0.06-0.16-0.18-0.13-0.3h0c0.07-0.3,0.13-0.61,0.17-0.93c0.04-0.31,0.06-0.63,0.06-0.95c0-0.32-0.02-0.64-0.06-0.95
				c-0.04-0.32-0.1-0.63-0.17-0.93c-0.03-0.13,0.03-0.25,0.14-0.31l2.03-1.17c0.12-0.07,0.2-0.18,0.23-0.31
				c0.03-0.13,0.02-0.26-0.05-0.38l-0.01-0.02l-1.44-2.49h0c-0.07-0.12-0.18-0.2-0.31-0.24c-0.13-0.03-0.26-0.02-0.38,0.05l0,0
				l-2.05,1.18c-0.11,0.06-0.24,0.04-0.33-0.04c-0.45-0.44-0.96-0.82-1.51-1.14c-0.54-0.31-1.12-0.56-1.74-0.74
				c-0.12-0.03-0.2-0.14-0.2-0.26V32.8c0-0.14-0.06-0.27-0.15-0.36c-0.09-0.09-0.22-0.15-0.36-0.15h-2.9
				c-0.14,0-0.27,0.06-0.36,0.15c-0.09,0.09-0.15,0.22-0.15,0.36v2.36C200.42,35.29,200.33,35.4,200.21,35.42z"/>
			<path class="st1" d="M444.62,28.61c0-0.42-0.34-0.76-0.75-0.76s-0.75,0.34-0.75,0.76v1.78h-1.78c-0.42,0-0.76,0.34-0.76,0.76
				c0,0.42,0.34,0.75,0.76,0.75h1.78v1.78c0,0.42,0.34,0.75,0.75,0.75s0.75-0.34,0.75-0.75v-1.78h1.78c0.42,0,0.75-0.34,0.75-0.75
				c0-0.42-0.34-0.76-0.75-0.76h-1.78V28.61z"/>
			<path class="st1" d="M4.42,225.62c0-0.42-0.34-0.76-0.75-0.76c-0.42,0-0.75,0.34-0.75,0.76v1.78H1.14
				c-0.42,0-0.76,0.34-0.76,0.75c0,0.42,0.34,0.76,0.76,0.76h1.78v1.78c0,0.42,0.34,0.75,0.75,0.75c0.42,0,0.75-0.34,0.75-0.75
				v-1.78H6.2c0.42,0,0.75-0.34,0.75-0.76c0-0.42-0.34-0.75-0.75-0.75H4.42V225.62z"/>
			<path class="st1" d="M245.18,88.45L245.18,88.45L245.18,88.45z M247.47,79.73c0.8-0.8,1.9-1.29,3.11-1.29
				c1.22,0,2.32,0.49,3.11,1.29c0.8,0.8,1.29,1.9,1.29,3.11c0,1.22-0.49,2.32-1.29,3.11c-0.8,0.8-1.9,1.29-3.11,1.29
				c-1.22,0-2.32-0.49-3.11-1.29c-0.8-0.8-1.29-1.9-1.29-3.11C246.18,81.63,246.67,80.53,247.47,79.73L247.47,79.73z M248.42,75.37
				c-0.61,0.18-1.19,0.42-1.73,0.74c-0.55,0.32-1.06,0.7-1.51,1.14c-0.09,0.09-0.22,0.1-0.32,0.04l-2.05-1.18l-0.01-0.01
				c-0.12-0.06-0.25-0.08-0.37-0.04c-0.13,0.03-0.24,0.11-0.31,0.23l-0.01,0.01l-1.44,2.49c-0.07,0.12-0.08,0.26-0.05,0.39
				c0.03,0.13,0.12,0.24,0.24,0.31l0.01,0.01l2.03,1.17c0.11,0.06,0.15,0.18,0.13,0.3h0c-0.08,0.3-0.13,0.61-0.17,0.93
				c-0.04,0.31-0.06,0.63-0.06,0.95c0,0.32,0.02,0.64,0.06,0.95c0.04,0.32,0.1,0.63,0.17,0.93c0.03,0.13-0.03,0.25-0.14,0.31
				l-2.03,1.17l0,0c-0.12,0.07-0.2,0.18-0.24,0.31c-0.03,0.13-0.02,0.27,0.05,0.38l1.45,2.51v0c0.07,0.12,0.18,0.2,0.31,0.24
				c0.13,0.03,0.26,0.02,0.38-0.05l0.02-0.01l2.03-1.17c0.11-0.06,0.24-0.04,0.32,0.04c0.45,0.44,0.96,0.82,1.51,1.14
				c0.54,0.31,1.12,0.56,1.74,0.74c0.12,0.03,0.2,0.14,0.2,0.26v2.36c0,0.14,0.06,0.27,0.15,0.36c0.09,0.09,0.22,0.15,0.36,0.15h2.9
				c0.14,0,0.27-0.06,0.36-0.15c0.09-0.09,0.15-0.22,0.15-0.36v-2.36c0-0.13,0.09-0.24,0.21-0.26c0.61-0.18,1.19-0.42,1.73-0.73
				c0.55-0.32,1.06-0.7,1.51-1.14c0.09-0.09,0.23-0.1,0.34-0.03l2.03,1.17c0.12,0.07,0.26,0.08,0.38,0.05
				c0.13-0.03,0.24-0.11,0.31-0.24l0.01-0.01l1.44-2.49l0,0c0.07-0.12,0.08-0.26,0.05-0.38c-0.03-0.13-0.12-0.24-0.23-0.31
				l-2.04-1.18c-0.11-0.06-0.15-0.18-0.13-0.3l0,0c0.07-0.3,0.13-0.61,0.17-0.93c0.04-0.31,0.06-0.63,0.06-0.95
				c0-0.32-0.02-0.64-0.06-0.95c-0.04-0.32-0.1-0.63-0.17-0.93c-0.03-0.13,0.03-0.25,0.14-0.31l2.03-1.17
				c0.12-0.07,0.2-0.18,0.23-0.31c0.03-0.13,0.02-0.26-0.05-0.38l-0.01-0.01l-1.44-2.49l0,0c-0.07-0.12-0.18-0.2-0.31-0.23
				c-0.13-0.03-0.26-0.02-0.38,0.05l0,0l-2.05,1.18c-0.11,0.06-0.24,0.04-0.33-0.04c-0.45-0.44-0.96-0.82-1.51-1.14
				c-0.54-0.31-1.12-0.56-1.74-0.74c-0.12-0.03-0.2-0.14-0.2-0.26v-2.36c0-0.14-0.06-0.27-0.15-0.36c-0.09-0.09-0.22-0.15-0.36-0.15
				h-2.9c-0.14,0-0.27,0.06-0.36,0.15c-0.09,0.09-0.15,0.22-0.15,0.36v2.36C248.63,75.23,248.54,75.34,248.42,75.37z"/>
			<path class="st1" d="M217.7,77.2c0-0.42-0.34-0.76-0.76-0.76c-0.42,0-0.75,0.34-0.75,0.76v1.78h-1.78
				c-0.42,0-0.76,0.34-0.76,0.76c0,0.42,0.34,0.76,0.76,0.76h1.78v1.78c0,0.42,0.34,0.75,0.75,0.75c0.42,0,0.76-0.34,0.76-0.75
				v-1.78h1.78c0.42,0,0.75-0.34,0.75-0.76c0-0.42-0.34-0.76-0.75-0.76h-1.78V77.2z"/>
			<path class="st1" d="M220.78,160.82c0-0.42-0.34-0.75-0.75-0.75c-0.42,0-0.76,0.34-0.76,0.75v1.78h-1.78
				c-0.42,0-0.75,0.34-0.75,0.76c0,0.42,0.34,0.76,0.75,0.76h1.78v1.78c0,0.42,0.34,0.76,0.76,0.76c0.42,0,0.75-0.34,0.75-0.76
				v-1.78h1.78c0.42,0,0.76-0.34,0.76-0.76c0-0.42-0.34-0.76-0.76-0.76h-1.78V160.82z"/>
			<path class="st1" d="M154.59,123.37c0-0.42-0.34-0.76-0.76-0.76s-0.76,0.34-0.76,0.76v1.78h-1.78c-0.42,0-0.76,0.34-0.76,0.76
				c0,0.42,0.34,0.76,0.76,0.76h1.78v1.78c0,0.42,0.34,0.76,0.76,0.76s0.76-0.34,0.76-0.76v-1.78h1.78c0.42,0,0.76-0.34,0.76-0.76
				c0-0.42-0.34-0.76-0.76-0.76h-1.78V123.37z"/>
		</g>
		<path class="st1" d="M405.63,118.9c0-0.42-0.34-0.75-0.75-0.75c-0.42,0-0.76,0.34-0.76,0.75v1.78h-1.78
			c-0.42,0-0.76,0.34-0.76,0.76c0,0.42,0.34,0.76,0.76,0.76h1.78v1.78c0,0.42,0.34,0.76,0.76,0.76c0.42,0,0.75-0.34,0.75-0.76v-1.78
			h1.78c0.42,0,0.76-0.34,0.76-0.76c0-0.42-0.34-0.76-0.76-0.76h-1.78V118.9z"/>
	</g>
	<g>
		<g>
			<path class="st5" d="M294.86,174.6c0,0,4.5,1.49,8.05,5.8c2.01,2.44,26.56,49.48,28.14,52.54c1.58,3.06,1.57,10.8-2.15,15.57
				c-1.44,1.85-5.6,7.03-10.13,12.67h-14.71c5.34-8.01,12.32-18.5,12.82-19.34c0.82-1.38,1.23-2.71-0.27-5.04
				c-1.49-2.33-21.15-26.29-21.15-26.29S285.8,183.49,294.86,174.6z"/>
			<path class="st6" d="M269.04,170.82c0,0,24.76,3.52,25.83,3.78c1.07,0.26,2.87,2.75,3.85,4.43c0.97,1.68,2.12,25.85,2.67,32.61
				c0.55,6.77-1.63,36.27-0.98,44.19c0.11,1.31,0.31,3.17,0.57,5.34h-74.06c-0.95-8.76-7.55-36.18-8.09-42.76
				c-0.55-6.77-3.36-30.8-2.67-32.61c0.69-1.82,2.07-4.57,3.08-5c1.01-0.43,25.15-7.96,25.15-7.96l12.38,1.37L269.04,170.82z"/>
			<path class="st7" d="M269.04,170.82c0,0,1.64,0.23,4.09,0.58c-0.11,0.6-0.4,1.16-0.85,1.68c-9.62,11.02-19.45,11.83-30.73,2.52
				c-0.53-0.44-0.91-0.95-1.11-1.53c2.37-0.74,3.95-1.23,3.95-1.23l12.38,1.37L269.04,170.82z"/>
			<path class="st8" d="M264.71,146.97l0.21,6.16c0,0,1.03,12.58,1.19,14.49c0.08,0.92,1.14,2.18,2.93,3.2
				c-8.09,9.28-15.16,9.86-24.66,2.02c1.6-1.3,2.45-2.71,2.37-3.63c-0.16-1.91-1.19-14.49-1.19-14.49l-0.79-6.12
				c0,0,4.97,0.39,10.12,1.09C259.87,148.17,264.71,146.97,264.71,146.97z"/>
			<path class="st9" d="M271.08,171.11c0,0-2.86,12.37-3.08,14.89c-0.21,2.52-3.58,27.86-3.22,32.15
				c0.16,1.95,4.03,21.76,8.25,43.03h33.73c-0.83-5.19-1.54-9.66-1.92-12.18c-1.37-9.08-2.29-27.94-1.99-39.6
				c0.3-11.65-2.6-29.14-2.94-30.8c-0.35-1.66-3.65-3.73-4.68-4.12L271.08,171.11z"/>
			<path class="st10" d="M267.39,191.3c-1.01,8.35-2.87,23.62-2.61,26.85c0,0,16.41-17.86,16.16-19.62
				c-0.25-1.76-6.92-14.9-6.92-14.9S271.15,186.92,267.39,191.3z"/>
			<path class="st11" d="M270.26,170.99c0,0,0.73-0.65,0.99-0.67c0.26-0.02,4.71,1.49,4.71,1.49s6.49,10.21,6.6,11.51
				c0.11,1.3-15.95,14.44-15.95,14.44l1.42-12.01c0,0,2.33-11.74,3.05-14.64L270.26,170.99z"/>
			<path class="st9" d="M219.51,180.78c0,0-4.2,2.2-7,7.03c-1.58,2.73-18.15,53.14-19.21,56.42c-1.06,3.28,0.21,10.92,4.65,15.01
				c0.48,0.44,1.21,1.11,2.13,1.94h18.36c-4.86-5.21-9.26-9.95-9.71-10.48c-1.03-1.23-1.65-2.48-0.56-5.02
				c1.09-2.54,16.58-29.39,16.58-29.39S229.91,188.07,219.51,180.78z"/>
			<path class="st9" d="M242.41,173.46c0,0,4.84,11.74,5.46,14.19c0.62,2.45,8.06,26.91,8.42,31.19c0.16,1.9-0.41,21.22-1.09,42.33
				h-33.37c-0.01-2.2-0.03-4.05-0.05-5.37c-0.13-9.18-2.29-27.94-4.48-39.39c-2.19-11.45-2.18-29.17-2.11-30.86
				c0.07-1.69,2.99-4.28,3.94-4.82L242.41,173.46z"/>
			<path class="st10" d="M249.34,192.78c2.36,8.08,6.68,22.83,6.94,26.07c0,0-19.1-14.95-19.14-16.73
				c-0.04-1.78,4.41-15.83,4.41-15.83S244.92,189.07,249.34,192.78z"/>
			<path class="st11" d="M243.2,173.21c0,0-0.82-0.52-1.08-0.5c-0.26,0.02-4.41,2.23-4.41,2.23s-4.75,11.13-4.64,12.43
				c0.11,1.3,18.08,11.65,18.08,11.65l-3.36-11.62c0,0-4.21-11.2-5.39-13.94L243.2,173.21z"/>
		</g>
		<g>
			<path class="st8" d="M234.11,150.73c-0.12,0.03-0.25,0.06-0.37,0.1l0,0v0c-2.22,0.68-3.76,2.82-3.58,5.24
				c0.2,2.81,2.64,4.92,5.45,4.71c2.81-0.2,4.92-2.64,4.71-5.45c-0.12-1.63-0.99-3.03-2.25-3.87c0.27,1.49,0.2,3.36-1.7,3.72
				l-0.21-2.93C236.07,151.07,234.91,150.62,234.11,150.73z"/>
			<path class="st8" d="M270.71,147.39c0.13,0.01,0.25,0.02,0.38,0.03l0,0v0c2.3,0.27,4.2,2.1,4.47,4.5c0.31,2.8-1.71,5.31-4.5,5.62
				c-2.8,0.31-5.31-1.71-5.62-4.5c-0.18-1.63,0.43-3.16,1.51-4.21c0.01,1.51,0.42,3.34,2.34,3.35l-0.32-2.92
				C268.84,148.08,269.9,147.43,270.71,147.39z"/>
		</g>
		<path class="st12" d="M250.1,123.72L250.1,123.72c-9.55,0.87-16.65,9.4-15.78,18.95l1.44,15.79c0.87,9.55,9.4,16.65,18.95,15.78
			l0,0c9.55-0.87,16.65-9.4,15.78-18.95l-1.44-15.79C268.18,129.95,259.65,122.85,250.1,123.72z"/>
		<path class="st13" d="M235.39,134.9c-0.92,2.4-1.32,5.05-1.07,7.77l1.44,15.79c0.82,8.99,8.43,15.82,17.29,15.85
			c-10.1-0.78-11.96-12.71-12.74-18.99c-0.77-6.28,1.58-7.69,2.52-8c0.94-0.31,15.6-2.74,18.84-3.12c3.24-0.37,4.88,1.43,4.88,1.43
			l1.36-1.99l-1.31-4.24c0,0,1.12,0.04,2.44,0c-0.11-1.13-0.33-2.23-0.64-3.28c-1.87-0.66-3.98-1.46-5.73-2.59
			c-3.87-2.5-22.33,0.62-25.33,0.62C236.89,134.17,236.22,134.44,235.39,134.9z"/>
		<path class="st14" d="M267.97,147.88c0,0,0.11,1.16,0.2,2.24c0.1,1.08,1.21,2.19,2.03,2.11l-0.22-2.45c0,0,0.19-1.84,2.41-2.04
			c6.12-8.48,4.08-20.87-3.81-26.67c-7.89-5.8-23.59-4.79-26.25-3.63c-2.65,1.16-5.05,6.06-5.05,6.06s-2.51-1.86-4.57-0.59
			c-2.06,1.27-8.03,15.53-7.72,18.93c0.31,3.4,7.51,9.54,7.51,9.54c2.23-0.2,2.74,1.57,2.74,1.57l0.22,2.45
			c0.83-0.08,1.72-1.37,1.62-2.45c-0.1-1.08-0.2-2.24-0.2-2.24c0.08-0.04,0.15-0.09,0.23-0.13c2.11-1.37,1.69-5.55,1.69-5.55
			l-1.94-2.72l3.85-5.07l4.43-1.46l10.07,0.39c0,0,11.87,1.48,10.83,4.93C265.01,144.57,267.97,147.88,267.97,147.88z"/>
		<path class="st15" d="M267.97,147.88c0.12,1.33,1.01,7.27,2.56,7.13c4.62-9.73,8.88-19.88,2-29.85
			c-0.81,6.41-7.2,10.33-13.6,11.67c3.39,0.74,7.77,2.12,7.12,4.28C265.01,144.57,267.97,147.88,267.97,147.88L267.97,147.88z
			 M225.45,138.87c-0.33,1.28-0.5,2.33-0.44,2.98c0.24,2.62,8.96,15.27,10.9,18.15c1.01-0.09,1.14-7.59,0.99-9.28
			c0.08-0.04,0.15-0.09,0.23-0.13c2.11-1.37,1.69-5.55,1.69-5.55l-1.94-2.72l3.85-5.07l4.23-1.39c-2.13-0.86-2.74-1.76-2.74-1.76
			C233.47,142.95,228.4,142.46,225.45,138.87z"/>
		<path class="st14" d="M232.65,148.16c0,0-7.3-15.84,7.39-18.54c0,0,3.89-7.68,11.68-5.75c7.79,1.93,12.67,1.87,16.16-1.57
			c0,0,2,3.77-0.43,7.07c7.38,5.72,4.81,13.06,1.8,17.02c-1.21-8.21-22.83,0.93-25.66-6.96
			C243.32,146.96,235.41,145.08,232.65,148.16z"/>
		<path class="st15" d="M232.65,148.16c0,0-1.46-3.16-1.76-6.9c2.84-0.27,6.52-2.31,11.31-7.15c0,0,1.95,2.87,10.98,3.24
			c5.48,0.23,12.45-1.8,16.38-6.03c4.7,5.35,2.38,11.54-0.31,15.06c-1.21-8.21-22.83,0.93-25.66-6.96
			C243.32,146.96,235.41,145.08,232.65,148.16z"/>
	</g>
	<g>
		<g>
			<path class="st16" d="M445.01,149.86c-3.09-11.58-13.88-5.21-18.5,4.7c-4.62,9.92-15.2,48.6-24.36,58.62
				c-3.55,3.88-2.46,4.21,0.8,2.32C419.21,206.07,449.26,165.81,445.01,149.86z"/>
			<path class="st17" d="M399.97,216.2c-0.11,0.52,0.38,0.55,1.31,0.16c24.66-20.85,37.75-67.47,37.79-67.62
				c0.07-0.26-0.08-0.52-0.33-0.6c-0.26-0.07-0.52,0.08-0.6,0.33C438.09,148.62,424.82,195.88,399.97,216.2z"/>
		</g>
		<g>
			<path class="st17" d="M417.69,156.04c-5.39-8.45-12.38-0.64-13.55,8.42c-1.17,9.07,0.17,42.55-4.59,52.84
				c-1.84,3.99-0.9,3.97,1.22,1.64C411.34,207.33,425.1,167.67,417.69,156.04z"/>
			<path class="st16" d="M398.57,220.26c0.04,0.44,0.44,0.34,1.08-0.2c14.37-22.84,13.02-63.28,13.02-63.41
				c-0.01-0.22-0.19-0.4-0.41-0.39c-0.22,0.01-0.4,0.19-0.39,0.42C411.86,156.8,413.23,197.8,398.57,220.26z"/>
		</g>
		<g>
			<path class="st17" d="M444.4,184.78c9.31,0.97,5.71,10.07-1.37,14.85c-7.09,4.77-35.64,17.65-42.25,25.93
				c-2.56,3.21-2.95,2.41-1.89-0.33C404.18,211.53,431.58,183.45,444.4,184.78z"/>
			<path class="st16" d="M398.72,227.62c-0.39,0.15-0.47-0.23-0.28-0.99c13.08-21.56,47.45-37.35,47.55-37.4
				c0.19-0.09,0.41-0.01,0.5,0.18c0.09,0.19,0.01,0.41-0.18,0.5C446.2,189.97,411.36,205.97,398.72,227.62z"/>
		</g>
	</g>
	<g>
		<path class="st14" d="M311.41,173.15l-2.31,20.32c0,0,3.49,47.58,5.21,67.72h25.95l0.57-80.98L311.41,173.15z"/>
		<path class="st14" d="M325.17,190.77l-1.14,7.18l2.27,63.23h31.63c0.53-4.38,1-8.12,1.39-10.82c2.38-16.63,3.19-39.75,3.18-45.22
			c-0.01-5.47-6.35-13.59-8.52-14.18C351.8,190.37,325.17,190.77,325.17,190.77z"/>
		<path class="st18" d="M314.59,93.14c0,0-1.08-2.01-1.93-1.63c-0.85,0.38-29.5,42.52-30.47,46.15c-0.97,3.63-0.57,10.05,4.97,18.98
			c5.54,8.92,17.4,30.82,17.82,31.29c0.42,0.47,6.9-3.92,7.59-5.15c0,0,0.28-0.4-0.13-1.22c-0.42-0.82-14.52-34.22-15.41-36.62
			c-0.89-2.4,24.23-32.13,25.43-34.51C323.66,108.04,328.28,95.57,314.59,93.14z"/>
		<path class="st19" d="M337.55,81.07l-12.47,8.91c0,0-8.9,34.84-8.93,36.42c-0.04,1.58-3.44,20.8-3.44,20.8s12.47,4.95,14.26,0.2
			c1.78-4.75,21.78-38.81,22.77-44.15c0.99-5.35-1.39-18.02-2.57-19.4C345.96,82.45,337.55,81.07,337.55,81.07z"/>
		<path class="st18" d="M324.99,86.94c0,0-11.3,3.98-12.34,4.57c-1.04,0.59-7.14,22.83-7.64,24.91c-0.5,2.08,2.77,40.19,2.77,43.56
			c0,3.37-4.26,45.44-4.36,46.13c-0.1,0.69,0.3,1.49,1.29,1.49s12.08-20.89,12.97-23.26c0.89-2.38-1.99-38.21-1.99-38.21l7.54-51.28
			L324.99,86.94z"/>
		<path class="st20" d="M358.53,92.57c0,0,16.19,16.32,16.79,17.31c0.59,0.99-16.23,56.73-16.43,59.3
			c-0.2,2.57,8.32,40.49,8.61,41.48c0,0,0.05,0.4-0.25,0.99c-0.3,0.59-0.99,0.94-1.34,1.19c-0.35,0.25-39.95-6.14-43.11-8.12
			c-3.17-1.98-10-32.77-10-36.93s2.39-20.07,2.39-20.07l19.48-32.99C334.68,114.73,348.75,93.62,358.53,92.57z"/>
		<path class="st21" d="M355.96,90.01c0,0,18.76,18.89,19.35,19.88c0.59,0.99-16.23,56.73-16.43,59.3
			c-0.2,2.57,8.32,40.49,8.61,41.48c0,0,0.05,0.4-0.25,0.99c-0.3,0.59-0.99,0.94-1.34,1.19c-0.18,0.13-10.71-1.5-21.34-3.37
			c9.22-13.29,8.74-35.32,7.94-36.66c-0.94-1.56-5.86-4.93-5.12-5.18c0.75-0.25,5.8-0.37,6.18-1.62c0.37-1.25,7.48-40.72,7.48-40.72
			l4.75-3.2c0,0,2.12-15.35,0.62-17.59c-1.49-2.24-11.37-10.74-11.45-10.81C356.19,93.09,354.82,90.13,355.96,90.01z"/>
		<path class="st22" d="M373.05,107.39c0,0,2.45,1.95,4.15,4.17c1.7,2.21,22.82,46.38,23.26,50.52c0.44,4.14-1.11,11.11-8.72,19.93
			c-7.61,8.81-24.38,30.75-24.93,31.2c-0.54,0.45-6.88-5.49-7.43-6.95c0,0-0.24-0.49,0.36-1.32c0.6-0.83,21.81-34.98,23.2-37.45
			c1.39-2.47-20.99-39.38-21.89-42.19C360.14,122.48,357.63,107.69,373.05,107.39z"/>
		<path class="st13" d="M349.4,65.56c0.11,6.17-1.49,12.55-1.08,18.73c0.08,1.26,0.69,1.68,2.24,2.69
			c2.15,3.21-3.74,13.35-7.61,13.95c-0.26,0.04-6.57-4.91-11.04-6.06c-2.29-0.59-4.18,2.34-4.36,2.22
			c-0.93-0.68,1.07-5.92,0.42-7.91c0.79-0.21,1.49-1.97,2.04-2.48c3.62-3.34,2.44-11.68-0.53-14.83
			C327.27,69.51,349.4,65.56,349.4,65.56z"/>
		<path class="st7" d="M353.48,89.4c-0.49,1.4-12.46,17.37-12.46,17.37s-0.43,0.57-1.05-0.15c-0.62-0.73-8-11.02-8-11.02l16.38-12.2
			l-0.37-2.81C348.21,80.33,353.99,87.97,353.48,89.4z"/>
		<path class="st7" d="M331.53,84.21c0-0.01-0.02-0.02-0.06-0.03c-5.6-0.4-6.45,15.47-5.46,18.57c0.01,0.02,3.4-5.19,5.74-7.26
			C332.81,94.55,329.5,87.39,331.53,84.21z"/>
		<path class="st22" d="M352.07,84.84c0,0-20.94,25.96-22.42,28.13c-1.48,2.18-12.87,29.01-14.45,34.75c0,0,17.52-21.88,20-23.86
			c2.47-1.98,11.63-9.6,11.63-9.6s0.25-0.5,0.12-0.84c-0.12-0.35-2.67-6.11-2.67-6.11s7.62,1.14,8.32,1.09
			c0.69-0.05,4.12-17.06,4.21-17.55C356.9,90.35,352.07,84.84,352.07,84.84z"/>
		<path class="st22" d="M331.58,84.17c0,0-5.54,1.28-6.43,1.78c-0.89,0.49-7.92,12.18-8.12,13.17c0,0-0.1,0.47,0.3,0.67
			c0.4,0.2,1.86,1.11,2.01,1.26c0.15,0.15-2.45,0.45-2.45,0.45s-0.3,0.11-0.25,0.57c0.05,0.46-0.94,44.06-0.94,44.06
			s8.64-48.21,9.92-51.38c1.28-3.17,4.72-8.19,4.72-8.19L331.58,84.17z"/>
		<path class="st8" d="M322.16,56.58c2.73-0.01,4.95,2.18,4.97,4.91c0.01,2.73-2.18,4.95-4.91,4.96c-2.73,0.02-4.95-2.18-4.96-4.91
			C317.23,58.82,319.43,56.59,322.16,56.58z"/>
		<path class="st8" d="M355.11,56.39c2.73-0.02,4.95,2.18,4.96,4.91c0.01,2.73-2.18,4.95-4.91,4.96c-2.73,0.02-4.95-2.18-4.96-4.91
			C350.19,58.63,352.39,56.41,355.11,56.39z"/>
		<path class="st12" d="M336.93,31.2L336.93,31.2c9.3-0.06,16.95,8.2,17.01,18.34l0.09,16.76c0.05,10.14-7.52,18.49-16.82,18.55v0
			c-9.3,0.06-16.95-8.2-17.01-18.34l-0.09-16.76C320.06,39.6,327.63,31.26,336.93,31.2z"/>
		<path class="st13" d="M353.28,44.56c0.42,1.59,0.65,3.26,0.66,4.98l0.09,16.76c0.05,9.33-6.35,17.13-14.61,18.37
			c-0.81,0.08-1.33,0.14-1.44,0.15l-0.01,0c9.24-0.91,11.19-13.05,11.19-16.71c0-3.66,0-0.52,0-9.5c0-8.98-4.97-9.92-8.37-9.92
			s-14.69,0-16.87,0c-2.18,0-2.96,2.01-2.96,2.01l-0.84-0.64l0-0.32c-0.03-5.37,2.08-10.24,5.45-13.64
			c8.47,1.65,22.55,4.47,23.52,5.07C349.62,41.51,351.34,42.93,353.28,44.56z"/>
		<path class="st23" d="M317.81,44.71l3.04,3.05c0,0,1.46-5.67,13.71-3.92c12.25,1.75-11.3-11.38-13.96-9.95
			C317.92,35.32,315.6,39.54,317.81,44.71z"/>
		<path class="st14" d="M349.63,44.98c0,0-12.06,1.32-18.19-2.57c-6.14-3.9-11.33-5.7-12.9-3.59c-1.49,2.01,4.51,7.43,2.09,16.65
			c-0.13,0.5-0.45,9.03-0.63,9.55c-0.06-3.34-1.13-11.86-2.23-14c-3.3-6.37-8.46-11.16-1.76-20.71c4.12-5.86,11.1-8.61,14.35-5.64
			c10.58,9.67,25.15-2.89,25.24,13.12c0,0,7.85,2.64,0.55,18.7c-1.65,0.01-2.16,1.26-2.16,2.32l0.06,8.57
			C348.17,67.38,348.05,51.93,349.63,44.98z"/>
	</g>
	<g>
		<g>
			<path class="st24" d="M344.44,254.81h34.11c1.65,0,3-1.35,3-3v-58.65c0-1.65-1.35-3-3-3h-34.11c-1.65,0-3,1.35-3,3v58.65
				C341.44,253.46,342.79,254.81,344.44,254.81z"/>
			<path class="st7" d="M379.3,254.81h27.6c1.39,0,2.52-1.14,2.52-2.52v-59.6c0-1.39-1.14-2.52-2.52-2.52h-27.6
				c-1.39,0-2.52,1.14-2.52,2.52v59.6C376.78,253.67,377.92,254.81,379.3,254.81z"/>
			<path class="st7" d="M334.61,214.71h35.34c0-6.33,6.83-7.03,6.83-7.03h-35.34C341.44,207.68,334.61,208.38,334.61,214.71z"/>
			<path class="st25" d="M341.44,244.4h36.57c1.09,0,1.97,0.89,1.97,1.97v12.83c0,1.09-0.89,1.97-1.97,1.97h-36.57
				c-1.09,0-1.97-0.89-1.97-1.97v-12.83C339.46,245.29,340.35,244.4,341.44,244.4z"/>
			<path class="st26" d="M376.86,244.4h8.02h0h0h0.01c0.18,0,2.14,0.08,3.23,2.47c1.15,2.51,1.03,5.02,4.44,5.02
				c3.23,0-1.43,0,1.47,0c3.41,0,3.32-2.57,4.44-5.02c1.12-2.45,3.05-2.47,3.24-2.47h0.01h0h0h7.61c1.09,0,1.97,0.89,1.97,1.97
				v12.83c0,1.09-0.89,1.97-1.97,1.97h-32.48c-1.09,0-1.97-0.89-1.97-1.97v-12.83C374.89,245.29,375.78,244.4,376.86,244.4z"/>
			<path class="st7" d="M334.61,236.86h35.34c0-6.33,6.83-7.03,6.83-7.03h-35.34C341.44,229.83,334.61,230.53,334.61,236.86z"/>
			<path class="st27" d="M415.17,226.3h-32.14c0-6.33-6.25-7.03-6.25-7.03h32.14C408.92,219.27,415.17,219.97,415.17,226.3z"/>
			<path class="st24" d="M381.89,197.18h24.64c0.6,0,1.09,0.49,1.09,1.09l0,0c0,0.6-0.49,1.09-1.09,1.09h-24.64
				c-0.6,0-1.09-0.49-1.09-1.09l0,0C380.81,197.67,381.3,197.18,381.89,197.18z"/>
			<path class="st24" d="M381.89,209.15h24.64c0.6,0,1.09,0.49,1.09,1.09l0,0c0,0.6-0.49,1.09-1.09,1.09h-24.64
				c-0.6,0-1.09-0.49-1.09-1.09l0,0C380.81,209.64,381.3,209.15,381.89,209.15z"/>
			<path class="st24" d="M381.89,234.14h24.64c0.6,0,1.09,0.49,1.09,1.09l0,0c0,0.6-0.49,1.09-1.09,1.09h-24.64
				c-0.6,0-1.09-0.49-1.09-1.09l0,0C380.81,234.63,381.3,234.14,381.89,234.14z"/>
			<path class="st27" d="M346.66,196.3h23.8c0.6,0,1.09,0.49,1.09,1.09l0,0c0,0.6-0.49,1.09-1.09,1.09h-23.8
				c-0.6,0-1.09-0.49-1.09-1.09l0,0C345.58,196.79,346.06,196.3,346.66,196.3z"/>
			<path class="st27" d="M346.66,223.25h23.8c0.6,0,1.09,0.49,1.09,1.09v0c0,0.6-0.49,1.09-1.09,1.09h-23.8
				c-0.6,0-1.09-0.49-1.09-1.09v0C345.58,223.74,346.06,223.25,346.66,223.25z"/>
			<path class="st27" d="M346.66,240.5h23.8c0.6,0,1.09,0.49,1.09,1.09l0,0c0,0.6-0.49,1.09-1.09,1.09h-23.8
				c-0.6,0-1.09-0.49-1.09-1.09l0,0C345.58,240.99,346.06,240.5,346.66,240.5z"/>
		</g>
		<g>
			<path class="st24" d="M326.96,257.32h20.64c1,0,1.81-0.82,1.81-1.81v-35.49c0-1-0.82-1.81-1.81-1.81h-20.64
				c-1,0-1.81,0.82-1.81,1.81v35.49C325.14,256.51,325.96,257.32,326.96,257.32z"/>
			<path class="st7" d="M348.06,257.32h16.7c0.84,0,1.53-0.69,1.53-1.53v-36.07c0-0.84-0.69-1.53-1.53-1.53h-16.7
				c-0.84,0-1.53,0.69-1.53,1.53v36.07C346.53,256.64,347.22,257.32,348.06,257.32z"/>
			<path class="st7" d="M321.01,233.06h21.39c0-3.83,4.13-4.26,4.13-4.26h-21.39C325.14,228.8,321.01,229.23,321.01,233.06z"/>
			<path class="st25" d="M325.14,251.03h22.13c0.66,0,1.2,0.54,1.2,1.19v7.76c0,0.66-0.54,1.2-1.2,1.2h-22.13
				c-0.66,0-1.19-0.54-1.19-1.2v-7.76C323.95,251.56,324.49,251.03,325.14,251.03z"/>
			<path class="st26" d="M346.58,251.03h4.85h0h0h0c0.11,0,1.29,0.05,1.96,1.49c0.7,1.52,0.62,3.04,2.69,3.04c1.96,0-0.87,0,0.89,0
				c2.07,0,2.01-1.55,2.69-3.04c0.68-1.48,1.85-1.49,1.96-1.49h0h0h0h4.6c0.66,0,1.19,0.54,1.19,1.19v7.76c0,0.66-0.54,1.2-1.19,1.2
				h-19.65c-0.66,0-1.2-0.54-1.2-1.2v-7.76C345.38,251.56,345.92,251.03,346.58,251.03z"/>
			<path class="st7" d="M321.01,246.46h21.39c0-3.83,4.13-4.26,4.13-4.26h-21.39C325.14,242.21,321.01,242.63,321.01,246.46z"/>
			<path class="st27" d="M369.76,240.07h-19.45c0-3.83-3.78-4.26-3.78-4.26h19.45C365.98,235.82,369.76,236.24,369.76,240.07z"/>
			<path class="st24" d="M349.62,222.45h14.91c0.36,0,0.66,0.3,0.66,0.66l0,0c0,0.36-0.3,0.66-0.66,0.66h-14.91
				c-0.36,0-0.66-0.3-0.66-0.66l0,0C348.97,222.75,349.26,222.45,349.62,222.45z"/>
			<path class="st24" d="M349.62,229.69h14.91c0.36,0,0.66,0.3,0.66,0.66l0,0c0,0.36-0.3,0.66-0.66,0.66h-14.91
				c-0.36,0-0.66-0.3-0.66-0.66l0,0C348.97,229.99,349.26,229.69,349.62,229.69z"/>
			<path class="st24" d="M349.62,244.81h14.91c0.36,0,0.66,0.3,0.66,0.66l0,0c0,0.36-0.3,0.66-0.66,0.66h-14.91
				c-0.36,0-0.66-0.3-0.66-0.66l0,0C348.97,245.11,349.26,244.81,349.62,244.81z"/>
			<path class="st27" d="M328.3,221.92h14.4c0.36,0,0.66,0.3,0.66,0.66v0c0,0.36-0.3,0.66-0.66,0.66h-14.4
				c-0.36,0-0.66-0.3-0.66-0.66v0C327.65,222.21,327.94,221.92,328.3,221.92z"/>
			<path class="st27" d="M328.3,238.23h14.4c0.36,0,0.66,0.3,0.66,0.66v0c0,0.36-0.3,0.66-0.66,0.66h-14.4
				c-0.36,0-0.66-0.3-0.66-0.66v0C327.65,238.53,327.94,238.23,328.3,238.23z"/>
			<path class="st27" d="M328.3,248.67h14.4c0.36,0,0.66,0.3,0.66,0.66l0,0c0,0.36-0.3,0.66-0.66,0.66h-14.4
				c-0.36,0-0.66-0.3-0.66-0.66l0,0C327.65,248.96,327.94,248.67,328.3,248.67z"/>
		</g>
	</g>
	<g>
		<path class="st14" d="M95.46,165.04l28.24,0.13c0.37,0,0.67,0.3,0.67,0.67l-0.01,2.95c0,0.37-0.3,0.67-0.67,0.67l-28.24-0.13
			c-0.37,0-0.67-0.3-0.67-0.67l0.01-2.95C94.79,165.34,95.09,165.04,95.46,165.04L95.46,165.04z M123.02,166.52l-26.89-0.13l0,1.61
			l26.89,0.13L123.02,166.52z"/>
		<g>
			<path class="st14" d="M58.37,207.23l37.3-42.51c0.24-0.28,0.67-0.31,0.95-0.06l2.22,1.95c0.28,0.24,0.31,0.67,0.06,0.95
				l-37.3,42.51c-0.24,0.28-0.67,0.31-0.95,0.06l-2.22-1.95C58.15,207.93,58.12,207.51,58.37,207.23L58.37,207.23z M96.24,166.11
				l-36.42,41.5l1.21,1.06l36.42-41.5L96.24,166.11z"/>
			<path class="st22" d="M95.84,163.52c2.06-0.26,3.94,1.2,4.2,3.26c0.26,2.06-1.2,3.94-3.26,4.2c-2.06,0.26-3.94-1.2-4.2-3.26
				C92.32,165.66,93.78,163.78,95.84,163.52z"/>
			<path class="st14" d="M58.34,207.43l26.23,50.11c0.17,0.33,0.58,0.46,0.91,0.29l2.62-1.37c0.33-0.17,0.46-0.58,0.29-0.91
				l-26.23-50.11c-0.17-0.33-0.58-0.46-0.91-0.29l-2.62,1.37C58.3,206.69,58.17,207.1,58.34,207.43L58.34,207.43z M85.46,256.31
				L59.85,207.4l1.42-0.74l25.61,48.91L85.46,256.31z"/>
			<path class="st22" d="M84.46,258.74c1.94,0.74,4.11-0.23,4.85-2.17c0.74-1.94-0.23-4.11-2.17-4.85
				c-1.94-0.74-4.11,0.23-4.85,2.17C81.54,255.83,82.52,258,84.46,258.74z"/>
			<path class="st22" d="M60.49,203.81c2.06-0.26,3.94,1.2,4.2,3.26c0.26,2.06-1.2,3.94-3.26,4.2c-2.06,0.26-3.94-1.2-4.2-3.26
				C56.97,205.95,58.43,204.07,60.49,203.81z"/>
		</g>
		<path class="st22" d="M52.02,265.06h52.4c2.61,0,4.75-2.14,4.75-4.75v0c0-2.61-2.14-4.75-4.75-4.75h-52.4
			c-2.61,0-4.75,2.14-4.75,4.75v0C47.27,262.92,49.41,265.06,52.02,265.06z"/>
		<path class="st14" d="M70.69,265.06h52.4c2.61,0,4.75-2.14,4.75-4.75v0c0-2.61-2.14-4.75-4.75-4.75h-52.4
			c-2.61,0-4.75,2.14-4.75,4.75v0C65.94,262.92,68.08,265.06,70.69,265.06z"/>
		<path class="st7" d="M117.62,174.68h13.81c4.01,0,7.29-3.28,7.29-7.29h-28.38C110.34,171.4,113.62,174.68,117.62,174.68z"/>
		<path class="st28" d="M117.89,173.23h8.3c2.41,0,4.38-1.97,4.38-4.38h-17.05C113.51,171.26,115.48,173.23,117.89,173.23z"/>
		<path class="st22" d="M112.98,164.05h23.1c3.07,0,5.57,2.51,5.57,5.57h-34.25C107.41,166.56,109.91,164.05,112.98,164.05z"/>
		<path class="st23" d="M112.98,164.05h10.56c3.06,0,5.57,2.51,5.57,5.57h-21.71C107.41,166.56,109.91,164.05,112.98,164.05z"/>
	</g>
	<g>
		<path class="st1" d="M271.7,36.79h29.42c2.52,0,4.59,2.06,4.59,4.59v12.19v1.4v12.04c0,0.21-0.12,0.39-0.32,0.47
			c-0.2,0.08-0.41,0.04-0.56-0.11l-7.81-7.81H271.7c-2.52,0-4.58-2.06-4.58-4.59V41.38C267.12,38.86,269.18,36.79,271.7,36.79z"/>
		<g>
			<path class="st7" d="M268.22,33.81h29.42c1.43,0,2.73,0.58,3.67,1.52c0.94,0.94,1.52,2.24,1.52,3.67v25.63
				c0,0.23-0.07,0.44-0.19,0.62c-0.12,0.18-0.29,0.32-0.5,0.41h0c-0.21,0.09-0.43,0.11-0.64,0.07c-0.21-0.04-0.41-0.15-0.57-0.31
				l-7.64-7.64h-25.07c-1.43,0-2.73-0.58-3.67-1.52c-0.94-0.94-1.52-2.24-1.52-3.67V39c0-1.43,0.58-2.73,1.52-3.67
				C265.5,34.4,266.8,33.81,268.22,33.81L268.22,33.81z M297.65,35.02h-29.42c-1.09,0-2.09,0.45-2.81,1.17
				c-0.72,0.72-1.17,1.72-1.17,2.81V52.6c0,1.09,0.45,2.09,1.17,2.81c0.72,0.72,1.72,1.17,2.81,1.17h25.57l7.83,7.83V39
				c0-1.09-0.45-2.09-1.17-2.81C299.74,35.47,298.74,35.02,297.65,35.02z"/>
			<path class="st7" d="M267.98,38.88c-0.18,0-0.33-0.15-0.33-0.33c0-0.18,0.15-0.33,0.33-0.33h29.91c0.18,0,0.33,0.15,0.33,0.33
				c0,0.18-0.15,0.33-0.33,0.33H267.98z"/>
			<path class="st7" d="M267.98,42.11c-0.18,0-0.33-0.15-0.33-0.33c0-0.18,0.15-0.33,0.33-0.33h3.17c0.18,0,0.33,0.15,0.33,0.33
				c0,0.18-0.15,0.33-0.33,0.33H267.98L267.98,42.11z M275.37,42.11c-0.18,0-0.33-0.15-0.33-0.33c0-0.18,0.15-0.33,0.33-0.33h22.52
				c0.18,0,0.33,0.15,0.33,0.33c0,0.18-0.15,0.33-0.33,0.33H275.37z"/>
			<path class="st7" d="M267.98,45.35c-0.18,0-0.33-0.15-0.33-0.33c0-0.18,0.15-0.33,0.33-0.33h29.91c0.18,0,0.33,0.15,0.33,0.33
				c0,0.18-0.15,0.33-0.33,0.33H267.98z"/>
			<path class="st7" d="M276.3,49.73c-0.18,0-0.33-0.15-0.33-0.33c0-0.18,0.15-0.33,0.33-0.33h21.59c0.18,0,0.33,0.15,0.33,0.33
				c0,0.18-0.15,0.33-0.33,0.33H276.3z"/>
			<path class="st7" d="M285.94,53.23c-0.18,0-0.33-0.15-0.33-0.33c0-0.18,0.15-0.33,0.33-0.33h11.95c0.18,0,0.33,0.15,0.33,0.33
				c0,0.18-0.15,0.33-0.33,0.33H285.94z"/>
			<path class="st7" d="M279.09,53.23c-0.18,0-0.33-0.15-0.33-0.33c0-0.18,0.15-0.33,0.33-0.33h4.27c0.18,0,0.33,0.15,0.33,0.33
				c0,0.18-0.15,0.33-0.33,0.33H279.09z"/>
		</g>
	</g>
	<path class="st1" d="M441.55,264.61c0-0.42-0.34-0.75-0.76-0.75c-0.42,0-0.76,0.34-0.76,0.75v1.78h-1.78
		c-0.42,0-0.76,0.34-0.76,0.76c0,0.42,0.34,0.75,0.76,0.75h1.78v1.78c0,0.42,0.34,0.76,0.76,0.76c0.42,0,0.76-0.34,0.76-0.76v-1.78
		h1.78c0.42,0,0.75-0.34,0.75-0.75c0-0.42-0.34-0.76-0.75-0.76h-1.78V264.61z"/>
	<g>
		<g>
			<path class="st17" d="M146.72,252.66h-25.58c-1.05,0-2.01,0.43-2.7,1.12c-0.69,0.69-1.12,1.65-1.12,2.7
				c0,1.05,0.43,2.01,1.12,2.7c0.69,0.69,1.65,1.12,2.7,1.12h25.58c1.05,0,2.01-0.43,2.7-1.12c0.69-0.69,1.12-1.65,1.12-2.7
				c0-1.05-0.43-2.01-1.12-2.7C148.73,253.09,147.77,252.66,146.72,252.66z"/>
			<path class="st7" d="M89.49,253.11h32.72c1.86,0,3.38,1.52,3.38,3.38l0,0c0,1.86-1.52,3.38-3.38,3.38H89.49V253.11z"/>
			<path class="st29" d="M89.49,252.66c-0.25,0-0.45,0.2-0.45,0.45c0,0.25,0.2,0.44,0.45,0.44h32.72c0.81,0,1.54,0.33,2.07,0.86
				c0.53,0.53,0.86,1.27,0.86,2.07c0,0.81-0.33,1.54-0.86,2.07c-0.53,0.53-1.27,0.86-2.07,0.86H89.49c-0.25,0-0.45,0.2-0.45,0.45
				c0,0.25,0.2,0.44,0.45,0.44h32.72c1.05,0,2.01-0.43,2.7-1.12c0.69-0.69,1.12-1.65,1.12-2.7c0-1.05-0.43-2.01-1.12-2.7
				c-0.69-0.69-1.65-1.12-2.7-1.12H89.49z"/>
			<path class="st29" d="M145.54,256.48c0-1.05-0.43-2.01-1.12-2.7c-0.69-0.69-1.65-1.12-2.7-1.12h3.33c1.05,0,2.01,0.43,2.7,1.12
				c0.69,0.69,1.12,1.65,1.12,2.7c0,1.05-0.43,2.01-1.12,2.7c-0.69,0.69-1.65,1.12-2.7,1.12h-3.33c1.05,0,2.01-0.43,2.7-1.12
				C145.11,258.49,145.54,257.54,145.54,256.48z"/>
			<path class="st29" d="M140.72,256.48c0-1.05-0.43-2.01-1.12-2.7c-0.69-0.69-1.65-1.12-2.7-1.12h3.33c1.05,0,2.01,0.43,2.7,1.12
				c0.69,0.69,1.12,1.65,1.12,2.7c0,1.05-0.43,2.01-1.12,2.7c-0.69,0.69-1.65,1.12-2.7,1.12h-3.33c1.05,0,2.01-0.43,2.7-1.12
				C140.29,258.49,140.72,257.54,140.72,256.48z"/>
		</g>
		<g>
			<path class="st26" d="M96.22,245.96h22.4c0.92,0,1.76,0.38,2.37,0.98c0.61,0.61,0.98,1.44,0.98,2.37s-0.38,1.76-0.98,2.37
				c-0.61,0.61-1.44,0.98-2.37,0.98h-22.4c-0.92,0-1.76-0.38-2.37-0.98c-0.61-0.61-0.98-1.44-0.98-2.37s0.38-1.76,0.98-2.37
				C94.46,246.34,95.3,245.96,96.22,245.96z"/>
			<path class="st7" d="M146.33,246.35h-28.65c-1.63,0-2.96,1.33-2.96,2.96l0,0c0,1.63,1.33,2.96,2.96,2.96h28.65V246.35z"/>
			<path class="st25" d="M146.33,245.96c0.22,0,0.39,0.17,0.39,0.39c0,0.22-0.17,0.39-0.39,0.39h-28.65c-0.71,0-1.35,0.29-1.81,0.75
				c-0.47,0.47-0.75,1.11-0.75,1.81c0,0.71,0.29,1.35,0.75,1.81c0.47,0.46,1.11,0.75,1.81,0.75h28.65c0.22,0,0.39,0.17,0.39,0.39
				c0,0.22-0.17,0.39-0.39,0.39h-28.65c-0.92,0-1.76-0.38-2.37-0.98c-0.61-0.61-0.98-1.44-0.98-2.37s0.38-1.76,0.98-2.37
				c0.61-0.61,1.44-0.98,2.37-0.98H146.33z"/>
			<path class="st25" d="M97.25,249.31c0-0.92,0.38-1.76,0.98-2.37c0.61-0.61,1.44-0.98,2.37-0.98h-2.91
				c-0.92,0-1.76,0.38-2.37,0.98c-0.61,0.61-0.98,1.44-0.98,2.37s0.38,1.76,0.98,2.37c0.61,0.61,1.44,0.98,2.37,0.98h2.91
				c-0.92,0-1.76-0.38-2.37-0.98C97.63,251.07,97.25,250.23,97.25,249.31z"/>
			<path class="st25" d="M101.47,249.31c0-0.92,0.38-1.76,0.98-2.37c0.61-0.61,1.44-0.98,2.37-0.98h-2.91
				c-0.92,0-1.76,0.38-2.37,0.98c-0.61,0.61-0.98,1.44-0.98,2.37s0.38,1.76,0.98,2.37c0.61,0.61,1.44,0.98,2.37,0.98h2.91
				c-0.92,0-1.76-0.38-2.37-0.98C101.85,251.07,101.47,250.23,101.47,249.31z"/>
		</g>
	</g>
	<g>
		<path class="st30" d="M298.51,261.18H188.48c-1.92,0-3.59-1.57-3.7-3.49v0c-0.12-1.92,1.36-3.49,3.29-3.49H298.1
			c1.92,0,3.59,1.57,3.7,3.49v0C301.91,259.61,300.44,261.18,298.51,261.18z"/>
		<path class="st31" d="M298.51,261.18H188.48c-1.25,0-2.38-0.66-3.06-1.65c0.56-0.99,1.62-1.65,2.86-1.65h110.03
			c1.24,0,2.38,0.66,3.06,1.65C300.82,260.52,299.76,261.18,298.51,261.18z"/>
		<path class="st31" d="M300.81,254.19H212.8c-2.51,0-4.44-2.06-4.28-4.57l3.6-57.01c0.16-2.51,2.35-4.57,4.86-4.57h88.01
			c2.52,0,4.44,2.06,4.28,4.57l-3.6,57.01C305.51,252.13,303.33,254.19,300.81,254.19z"/>
		<path class="st7" d="M300.81,254.19H215.4c-2.51,0-4.44-2.06-4.28-4.57l3.6-57.01c0.16-2.51,2.35-4.57,4.86-4.57h85.41
			c2.51,0,4.44,2.06,4.28,4.57l-3.6,57.01C305.51,252.13,303.33,254.19,300.81,254.19z"/>
		<path class="st32" d="M296.16,254.19h-8.79l-72.86-58.24l0.21-3.34c0.06-1,0.45-1.93,1.04-2.68L296.16,254.19L296.16,254.19z
			 M225.63,188.04l79.48,63.53c0.32-0.59,0.52-1.25,0.56-1.95l0.56-8.86l-65.95-52.71H225.63z"/>
		<path class="st7" d="M208.48,261.18h-20c-1.92,0-3.59-1.57-3.7-3.49v0c-0.12-1.92,1.36-3.49,3.29-3.49h20
			c1.92,0,3.59,1.57,3.7,3.49v0C211.88,259.61,210.4,261.18,208.48,261.18z"/>
		<path class="st33" d="M299.95,255.94h-91.56c-0.96,0-1.79-0.79-1.85-1.75l0,0c-0.06-0.96,0.68-1.75,1.64-1.75h91.56
			c0.96,0,1.79,0.79,1.85,1.75v0C301.65,255.15,300.91,255.94,299.95,255.94z"/>
	</g>
	<g>
		<path class="st14" d="M195.74,183.56c-0.68-3.36-0.51-5.24,0.14-8.43l-14.43-1.22l20.08-8.8c0,0,4.26-5.23,6.27-10.37
			c2.01-5.14-3.44-18.2-5.49-21.44c-2.05-3.24-6.3-2.76-9.1-1c0,0-4.21-6.34-9.23-6.76c-5.02-0.42-20.98,1.05-25.62,12.76
			c-4.64,11.71,2.82,23.42-4.64,35.47c0,0-0.66,1.52,0.31,2.81c0.97,1.28,12.74,15.01,39.58,9.48
			C193.61,186.06,195.75,185.56,195.74,183.56L195.74,183.56z"/>
		<path class="st15" d="M176.83,187.15c1.48-16.14,2.52-30.16,2.52-30.16l-1.37-4.55c0,0-12.36,9.99-21.13-0.52
			c0.42,7.21,1.45,14.47-3.13,21.85c0,0-0.66,1.52,0.31,2.81l0.04,0.05l0.01,0.02l0.03,0.04l0.04,0.04l0.02,0.03l0.06,0.08l0,0
			l0.08,0.09l0.02,0.03l0.06,0.07l0.05,0.06l0.04,0.05l0.09,0.1l0.01,0.01l0.11,0.12l0.03,0.03l0.1,0.1l0.07,0.07l0.06,0.07
			l0.05,0.05l0.1,0.1l0.15,0.15l0.11,0.1l0.08,0.08c2.57,2.48,8.55,7.08,18.62,8.67l0.03,0
			C174.99,186.94,175.89,187.06,176.83,187.15L176.83,187.15z"/>
		<path class="st15" d="M195.74,183.56c-0.92-4.56-0.28-6.4,1-12.5l-22.96-3.61l-10.03,1.94c0,0-0.88,5.62-3.5,12.42
			c6.11,3.78,16.9,7.63,33.36,4.24C193.61,186.06,195.75,185.56,195.74,183.56L195.74,183.56z"/>
		<path class="st26" d="M165.28,184.55c6.35,1.99,15.04,4.38,22.53,8.06c0.52,0.26-0.54,2.25-0.06,2.51
			c0.73,0.41,1.95,1.35,3.29,2.67c3.5,3.46,10.62,30.53,9.98,33.23c-1.02,4.34-10.01,16.26-10.01,16.26c-1.79,3.45-4,8.47-6.17,13.9
			h-44.67c3.11-10.11,4.27-16.96,4.35-23.14h0c2.38-20.99-8.9-25.56-8.9-25.56l11.69-27.51c4.55-1.61,13.62-1,13.62-1
			C163.32,183.98,163.14,183.88,165.28,184.55z"/>
		<path class="st25" d="M184.83,261.18h-6.3c1.17-3.14,6.64-18.01,7.81-21.18c-5.31-0.92-12.63-2.19-13.91-2.5
			c-1.29-0.31-6.23,2.51-6.23,2.51l0.55-3.21l-5.3,5.34l9.06-16.93c0,0,14.79,3.34,17.93,3.91c3.14,0.57,1.23,0.14,1.81,0.09
			c1.75-4.92-1.11-6.29-0.77-8.67c0.34-2.38,0.44-25.46,0.44-25.46c1.91,0.99,2.77,3.14,3.86,6.54c0.71,2.23,4.49,16.92,6.05,25.61
			c0.37,2.07,0.67,3.61,0.85,4.85C197.17,241.02,189.3,250.02,184.83,261.18z"/>
		<path class="st8" d="M176.31,159.19l-2.24,6.72c0,0-3.38,15.85-4.16,17.91c-0.27,0.71-1.17,0.93-2.54,0.9
			c1.98,2.83,5.82,7.16,11.38,8.21c3.55,0.67,6.03,0.01,7.71-0.98c-1.19-0.63-2.32-1.37-2.32-1.98c0.05-5.41,0.98-14.93,3.91-16.69
			C191.41,171.26,176.31,159.19,176.31,159.19z"/>
		<path class="st7" d="M168.48,184.67c-0.8,0.11-1.88,0.03-3.2-0.12c1.37,1.97,3.57,4.18,7.11,6.43c8.76,5.55,12.98,2.53,14.31,1.1
			c-0.82-0.42-1.65-0.9-2.14-1.37l0,0C176.39,194.7,168.48,184.67,168.48,184.67L168.48,184.67z"/>
		<path class="st20" d="M187.46,192.44c0,0,3.49,35.16,3.07,38.13c-0.42,2.97-5.98,17.6-10.85,30.62h8.37
			c1.65-3.19,2.92-5.67,3.15-6.27c0.15-0.39,0.73-1.51,1.52-2.98c1.43-2.65,3.57-6.42,5.18-9.07c5.13-8.43,5.12-6.46,3.34-16.33
			c-1.56-8.69-6.36-24.76-7.07-26.99C193.08,196.14,188.36,192.19,187.46,192.44z"/>
		<path class="st14" d="M186.96,241.37c-1.15,3.22-2.49,6.88-3.88,10.64c2.55,0.22,4.58,0.48,5.3,0.76c2.55,1,2.81,2.14,2.81,2.14
			c0.15-0.39,0.73-1.51,1.52-2.98c1.43-2.65,3.57-6.42,5.18-9.07c1.54-2.53,2.62-4.13,3.33-5.39c-0.99,0.87-2.56,2.18-3.33,2.41
			C196.97,240.16,189.83,241.03,186.96,241.37z"/>
		<path class="st20" d="M163.97,183.8c0,0,6.41,31.05,7.29,40.08c0.88,9.03-1.95,15.49-5.12,22.27c-1.07,2.29-4.5,8.12-8.73,15.03
			h-19.74l2.11-48.78l-5.66-1.31c0.34-2.45,0.61-4.48,0.8-5.9l11.14-19.7C146.06,185.49,150.26,182.08,163.97,183.8z"/>
		<path class="st14" d="M151.97,198.75c-3.15,12.65-0.96,17.89-0.96,17.89l1.69-7.87c0,0,1.6,11.61,3.37,13.1
			c0.88,0.74,11.37,2.75,15.3,3.48c0.27,4.93-0.57,9.09-1.93,13.01c-2.82,0.29-19.8-2.1-20.61,3.38c-0.4,2.74-0.31-6.07-0.31-6.07
			l-1,25.51h-9.84l2.11-48.78l-5.66-1.31l0.02-0.12l0.02-0.11l0.02-0.11l0.02-0.11l0,0l0.02-0.11l0.02-0.11l0.02-0.11l0.02-0.11
			l0.02-0.11l0.01-0.11l0.01-0.11h0l0.01-0.11l0.01-0.11l0.01-0.11v0l0.01-0.11l0.01-0.1l0,0l0.01-0.1l0,0l0.01-0.1l0,0l0.01-0.1
			l0,0l0.01-0.1l0,0l0.01-0.1h0l0.01-0.1h0l0.01-0.1v0l0.01-0.1l0,0l0.01-0.1l0,0l0.01-0.1l0,0l0.01-0.1v0l0.01-0.1l0,0l0.01-0.1
			l0,0l0.01-0.09l0,0l0.01-0.09v0l0.01-0.09l0,0l0.01-0.09v0l0.01-0.09l0,0l0.01-0.09l0,0l0.01-0.09v0l0.01-0.09v0l0.01-0.09v0
			l0.01-0.09h0l0.01-0.09l0,0l0.01-0.09l0,0l0.01-0.09l0,0l0.01-0.08v0l0.01-0.08l0,0l0.01-0.08v0l0.01-0.08l0,0l0.01-0.08v0
			l0.01-0.08l0,0l0.01-0.08l0,0l0.01-0.08l0,0l0.01-0.08v0l0.01-0.08l0,0l0.01-0.08v0l0.01-0.08l0,0l0.01-0.07v0l0.01-0.07l0,0
			l0.01-0.07l0,0l0.01-0.07v0l0.01-0.07v0l0.01-0.07v0l0.01-0.07v0l0.01-0.07v0l0.01-0.07v0l0.01-0.07l6.03-10.67L151.97,198.75z"/>
		<path class="st22" d="M136.36,199.27c-3.61,9.87-4.6,43.74-1.62,61.92h15.85c-6.48-36.09,7.14-61.9,4.14-71.04
			C149.95,175.5,138.74,192.78,136.36,199.27z"/>
		<path class="st15" d="M199.77,165.89l1.77-0.77c0,0,2.99-3.67,5.14-7.88c-0.42,0.8-3.2,5.67-7.28,2.69
			c-4.43-3.24-4.61,1.89-4.61,1.89s2.68,3.05,4.24,3.76C199.23,165.67,199.48,165.77,199.77,165.89L199.77,165.89z M206.73,157.13
			L206.73,157.13L206.73,157.13L206.73,157.13z"/>
		<path class="st8" d="M197.89,162.94c-2.78-0.29-5.26,1.73-5.55,4.51s1.73,5.26,4.51,5.55c2.78,0.29,5.26-1.73,5.55-4.51
			C202.69,165.72,200.67,163.23,197.89,162.94z"/>
		<path class="st8" d="M162.69,159.36c-0.13,0.01-0.25,0.02-0.37,0.03l0,0h0c-2.29,0.28-4.16,2.11-4.41,4.5
			c-0.29,2.78,1.73,5.26,4.51,5.55c2.78,0.29,5.26-1.73,5.55-4.51c0.17-1.61-0.44-3.13-1.53-4.17c0,1.5-0.39,3.32-2.3,3.34l0.3-2.9
			C164.55,160.02,163.5,159.39,162.69,159.36z"/>
		<path class="st12" d="M184.46,135.86L184.46,135.86c-9.47-0.98-18.02,5.96-19,15.44l-1.62,15.65c-0.98,9.47,5.96,18.02,15.44,19
			l0,0c9.47,0.98,18.02-5.96,19-15.44l1.62-15.65C200.87,145.39,193.93,136.84,184.46,135.86z"/>
		<path class="st13" d="M165.17,154.04l-1.34,12.9c-0.82,7.93,3.91,15.21,11.03,17.95c-10.08-4.17-4.91-21.69-4.91-21.69
			c2.04-0.35,5.26-4.15,7.13-6.36c1.87-2.21,3.32-4.45,6.55-4.38c3.23,0.07,10.05,1.76,10.05,1.76c1.43,3.37,4.05,5.83,5.55,7.03
			l0.66-6.39c0.2-1.91,0.07-3.78-0.33-5.56c-0.42-0.24-0.85-0.49-1.3-0.75C184.4,140.76,172.63,147.07,165.17,154.04z"/>
		<path class="st15" d="M197.31,149.96l-2.8,1.19c0,0-2.61-1.61-5.64-0.91c0,0-6.15-2.26-9.4-1c-3.26,1.26-1.34-3.26-0.74-3.46
			c0.6-0.2,6.77-0.59,9.46-0.07c2.69,0.52,6.74,1.15,6.74,1.15L197.31,149.96z"/>
		<path class="st15" d="M164.57,158.52l1.66,0.29c0,0,1.15,5.25-2.1,5.29l0.3-2.9c0.02-0.2,0.01-0.39-0.03-0.56L164.57,158.52z"/>
		<path class="st14" d="M188.87,150.24c-2.53-3.41-6.66-4.11-9.88,0.68c-2.94,4.38-7.3,11.96-14.64,11.34l-0.04-0.13l0.02,0
			l0.41-4.89c0,0-0.62,0.16-1.37,0.34c-0.39-2.56-0.66-5.8-0.25-8.77c0.85-6.15,9.4-15.13,19.05-15.47
			c9.65-0.35,16.63,5.38,18.01,8.65c1.38,3.27,2.75,10.68,2.75,10.68l-1.7,2.43l-1.83,4.83c-4.44-4.32-3.98-8.4-5.91-10.46
			C192.44,148.36,190.88,148.35,188.87,150.24z"/>
		<path class="st15" d="M177.98,152.44c-2.91,4.4-7.09,10.38-13.64,9.82l-0.04-0.13l0.02,0l0.41-4.89c0,0-0.62,0.16-1.37,0.34
			c-0.06-0.42-0.13-0.86-0.18-1.32C170.59,158.41,177.96,152.46,177.98,152.44z"/>
		<path class="st34" d="M185.59,191.46c0,0,4.5,36.95,4.42,38.15c-0.09,1.2-1.29,6.98-1.29,6.98s2.17-3.65,2.71-6.67
			s1.96-23.46,1.96-23.46l-2.4-1.29l2.22-0.13l-3.67-11.48c0,0-0.42-0.85-1-1.19c-0.58-0.33-2.68-1.39-2.72-1.41
			c-0.03-0.02-0.56-0.07-0.82,0.1C185,191.06,185.44,191.36,185.59,191.46z"/>
		<path class="st34" d="M163.97,183.8c0,0,6.41,31.05,7.29,40.08c0.36,3.7,0.1,6.97-0.56,10.01c1.18-9.23-11.81-30.96-11.81-30.96
			l3.38-1.6l-4.53-2.04c0,0,2.09-11.69,2.22-13.64c0.13-1.9-0.88-2.25-0.93-2.27C160.51,183.44,162.15,183.57,163.97,183.8z"/>
		<path class="st23" d="M35.72,274.9h5.61c2.24,0,4.07-1.83,4.07-4.07l0,0c0-2.24-1.83-4.07-4.07-4.07H26.51
			c-1.77,0-3.23-1.45-3.23-3.23l0,0c0-1.78,1.45-3.23,3.23-3.23h391.66c1.78,0,3.23,1.45,3.23,3.23l0,0c0,1.78-1.45,3.23-3.23,3.23
			h-20.33c-2.24,0-4.07,1.83-4.07,4.07l0,0c0,2.24,1.83,4.07,4.07,4.07h4.76c3.55,0,6.45,2.91,6.45,6.46l0,0
			c0,3.55-2.91,6.46-6.45,6.46H35.72c-3.55,0-6.46-2.9-6.46-6.46l0,0C29.26,277.8,32.17,274.9,35.72,274.9L35.72,274.9z
			 M17.78,260.31c1.78,0,3.23,1.45,3.23,3.23c0,1.78-1.45,3.23-3.23,3.23c-1.78,0-3.23-1.45-3.23-3.23
			C14.56,261.75,16,260.31,17.78,260.31z"/>
	</g>
	<g>
		<path class="st35" d="M236.19,91.11h-29.42c-1.43,0-2.73,0.58-3.67,1.52c-0.94,0.94-1.52,2.24-1.52,3.67v25.63
			c0,0.23,0.07,0.44,0.19,0.62c0.12,0.18,0.29,0.32,0.5,0.41h0c0.21,0.09,0.43,0.11,0.64,0.07c0.21-0.04,0.41-0.15,0.57-0.31
			l7.64-7.64h25.07c1.43,0,2.73-0.58,3.67-1.52c0.94-0.94,1.52-2.24,1.52-3.67V96.3c0-1.43-0.58-2.73-1.52-3.67
			C238.92,91.7,237.62,91.11,236.19,91.11L236.19,91.11z M206.77,92.32h29.42c1.09,0,2.09,0.45,2.81,1.17
			c0.72,0.72,1.17,1.72,1.17,2.81v13.59c0,1.09-0.45,2.09-1.17,2.81c-0.72,0.72-1.72,1.17-2.81,1.17h-25.57l-7.83,7.83V96.3
			c0-1.09,0.45-2.09,1.17-2.81C204.68,92.77,205.68,92.32,206.77,92.32z"/>
		<path class="st35" d="M236.44,96.18c0.18,0,0.33-0.15,0.33-0.33c0-0.18-0.15-0.33-0.33-0.33h-29.91c-0.18,0-0.33,0.15-0.33,0.33
			c0,0.18,0.15,0.33,0.33,0.33H236.44z"/>
		<path class="st35" d="M236.44,99.41c0.18,0,0.33-0.15,0.33-0.33c0-0.18-0.15-0.33-0.33-0.33h-3.17c-0.18,0-0.33,0.15-0.33,0.33
			c0,0.18,0.15,0.33,0.33,0.33H236.44L236.44,99.41z M229.05,99.41c0.18,0,0.33-0.15,0.33-0.33c0-0.18-0.15-0.33-0.33-0.33h-22.53
			c-0.18,0-0.33,0.15-0.33,0.33c0,0.18,0.15,0.33,0.33,0.33H229.05z"/>
		<path class="st35" d="M236.44,102.64c0.18,0,0.33-0.15,0.33-0.33c0-0.18-0.15-0.33-0.33-0.33h-29.91c-0.18,0-0.33,0.15-0.33,0.33
			c0,0.18,0.15,0.33,0.33,0.33H236.44z"/>
		<path class="st35" d="M228.12,107.03c0.18,0,0.33-0.15,0.33-0.33c0-0.18-0.15-0.33-0.33-0.33h-21.59c-0.18,0-0.33,0.15-0.33,0.33
			c0,0.18,0.15,0.33,0.33,0.33H228.12z"/>
		<path class="st35" d="M218.48,110.53c0.18,0,0.33-0.15,0.33-0.33c0-0.18-0.15-0.33-0.33-0.33h-11.95c-0.18,0-0.33,0.15-0.33,0.33
			c0,0.18,0.15,0.33,0.33,0.33H218.48z"/>
		<path class="st35" d="M225.32,110.53c0.18,0,0.33-0.15,0.33-0.33c0-0.18-0.15-0.33-0.33-0.33h-4.27c-0.18,0-0.33,0.15-0.33,0.33
			c0,0.18,0.15,0.33,0.33,0.33H225.32z"/>
	</g>
</g>
</svg>
