<?xml version="1.0" encoding="utf-8"?>
<!-- Generator: Adobe Illustrator 24.0.2, SVG Export Plug-In . SVG Version: 6.00 Build 0)  -->
<svg version="1.1" id="Layer_1" xmlns="http://www.w3.org/2000/svg" xmlns:xlink="http://www.w3.org/1999/xlink" x="0px" y="0px"
	 viewBox="0 0 20 20" style="enable-background:new 0 0 20 20;" xml:space="preserve">
<style type="text/css">
	.st0{opacity:0;fill:#FFFFFF;}
	.st1{fill:#BCBEC0;}
</style>
<g>
	<path class="st0" d="M20,0.8v18.3c0,0.5-0.4,0.8-0.8,0.8H0.8C0.4,20,0,19.6,0,19.2L0,0.8C0,0.4,0.4,0,0.8,0l18.3,0
		C19.6,0,20,0.4,20,0.8z"/>
	<g transform="translate(2.3999999999999995 2.3999999999999995) scale(0.8)">
		<g>
			<path class="st1" d="M10.5,15l-4.2-5C6.1,9.7,6.1,9.3,6.3,9l4-5c0,0,0,0,0,0c0.3-0.3,0.8-0.4,1.2-0.1c0,0,0,0,0,0
				C11.9,4.1,12,4.7,11.7,5L8.1,9.5l3.7,4.5c0,0,0,0,0,0c0.3,0.4,0.2,0.9-0.1,1.2c-0.1,0.1-0.3,0.2-0.5,0.2
				C10.9,15.3,10.6,15.2,10.5,15z"/>
		</g>
	</g>
</g>
</svg>
