<?xml version="1.0" encoding="utf-8"?>
<!-- Generator: Adobe Illustrator 24.0.2, SVG Export Plug-In . SVG Version: 6.00 Build 0)  -->
<svg version="1.1" id="Layer_1" xmlns="http://www.w3.org/2000/svg" xmlns:xlink="http://www.w3.org/1999/xlink" x="0px" y="0px"
	 viewBox="0 0 30 30" style="enable-background:new 0 0 30 30;" xml:space="preserve">
<style type="text/css">
	.st0{opacity:0;fill:#FFFFFF;}
	.st1{fill:#BCBEC0;}
</style>
<g>
	<path class="st0" d="M1.2,0h27.5C29.4,0,30,0.6,30,1.2v27.5c0,0.7-0.6,1.2-1.2,1.2H1.2C0.6,30,0,29.4,0,28.8V1.2C0,0.6,0.6,0,1.2,0
		z"/>
	<g transform="translate(4.800000000000001 4.800000000000001) scale(0.6)">
		<g>
			<g>
				<path class="st1" d="M3.6,15.3h26.8c0.9,0,1.6,0.7,1.6,1.6v0.2c0,0.9-0.7,1.6-1.6,1.6H3.6C2.7,18.7,2,18,2,17.1v-0.2
					C2,16,2.7,15.3,3.6,15.3z"/>
				<path class="st1" d="M3.6,23.7h26.8c0.9,0,1.6,0.7,1.6,1.6v0.2c0,0.9-0.7,1.6-1.6,1.6H3.6C2.7,27,2,26.3,2,25.4v-0.2
					C2,24.4,2.7,23.7,3.6,23.7z"/>
				<path class="st1" d="M3.6,7h26.8C31.3,7,32,7.7,32,8.6v0.2c0,0.9-0.7,1.6-1.6,1.6H3.6C2.7,10.3,2,9.6,2,8.8V8.6
					C2,7.7,2.7,7,3.6,7z"/>
			</g>
		</g>
	</g>
</g>
</svg>
