<?xml version="1.0" encoding="utf-8"?>
<!-- Generator: Adobe Illustrator 24.0.2, SVG Export Plug-In . SVG Version: 6.00 Build 0)  -->
<svg version="1.1" id="Layer_1" xmlns="http://www.w3.org/2000/svg" xmlns:xlink="http://www.w3.org/1999/xlink" x="0px" y="0px"
	 viewBox="0 0 25 25" style="enable-background:new 0 0 25 25;" xml:space="preserve">
<style type="text/css">
	.st0{fill:#ffffff;}
	.st1{fill:#ffffff;enable-background:new    ;}
</style>
<g>
	<path id="path7752_2_" class="st0" d="M12.5,2c2.91,0,5.54,1.17,7.42,3.08C21.83,6.98,23,9.59,23,12.5c0,2.91-1.17,5.52-3.08,7.42
		C18.04,21.83,15.41,23,12.5,23c-2.91,0-5.52-1.17-7.42-3.08C3.17,18.02,2,15.41,2,12.5c0-2.91,1.17-5.52,3.08-7.42
		C6.96,3.17,9.59,2,12.5,2L12.5,2z M19.35,5.65c-1.76-1.76-4.18-2.84-6.85-2.84c-2.67,0-5.09,1.08-6.85,2.84
		C3.89,7.41,2.81,9.83,2.81,12.5s1.08,5.09,2.84,6.85c1.76,1.76,4.18,2.84,6.85,2.84c2.67,0,5.09-1.08,6.85-2.84
		c1.76-1.76,2.84-4.18,2.84-6.85C22.17,9.83,21.09,7.41,19.35,5.65L19.35,5.65z"/>
	<path id="path7890_2_" class="st1" d="M9.81,12.5c0-1.48,1.21-2.69,2.69-2.69c1.48,0,2.69,1.21,2.69,2.69
		c0,1.48-1.21,2.69-2.69,2.69C11.02,15.19,9.81,13.98,9.81,12.5L9.81,12.5z M15.28,7.24H9.72c-1.36,0-2.48,1.12-2.48,2.48v5.56
		c0,1.36,1.12,2.48,2.48,2.48h5.56c1.38,0,2.48-1.12,2.48-2.48V9.72C17.76,8.36,16.66,7.24,15.28,7.24L15.28,7.24z M9.72,7.85h5.56
		c1.04,0,1.87,0.83,1.87,1.87v5.56c0,1.04-0.83,1.87-1.87,1.87H9.72c-1.04,0-1.87-0.83-1.87-1.87V9.72C7.85,8.7,8.7,7.85,9.72,7.85
		L9.72,7.85L9.72,7.85z M15.83,8.64c-0.3,0-0.55,0.25-0.55,0.55c0,0.3,0.25,0.55,0.55,0.55c0.3,0,0.55-0.25,0.55-0.55
		C16.38,8.89,16.13,8.64,15.83,8.64L15.83,8.64z M15.89,12.5c0-1.87-1.53-3.39-3.39-3.39s-3.39,1.53-3.39,3.39
		c0,1.89,1.53,3.39,3.39,3.39S15.89,14.39,15.89,12.5L15.89,12.5z"/>
</g>
</svg>
