<?xml version="1.0" encoding="utf-8"?>
<!-- Generator: Adobe Illustrator 24.0.2, SVG Export Plug-In . SVG Version: 6.00 Build 0)  -->
<svg version="1.1" id="Layer_1" xmlns="http://www.w3.org/2000/svg" xmlns:xlink="http://www.w3.org/1999/xlink" x="0px" y="0px"
	 viewBox="0 0 25 25" style="enable-background:new 0 0 25 25;" xml:space="preserve">
<style type="text/css">
	.st0{fill:#ffffff;}
	.st1{fill:#ffffff;enable-background:new    ;}
</style>
<g>
	<path id="path7770_2_" class="st0" d="M12.5,2c2.91,0,5.52,1.19,7.42,3.08C21.83,6.98,23,9.62,23,12.5c0,2.91-1.17,5.52-3.08,7.42
		C18.02,21.81,15.41,23,12.5,23c-2.91,0-5.52-1.19-7.42-3.08C3.17,18.02,2,15.38,2,12.5c0-2.91,1.17-5.54,3.08-7.42S9.59,2,12.5,2
		L12.5,2z M19.35,5.67c-1.76-1.76-4.18-2.84-6.85-2.84S7.41,3.91,5.65,5.67c-1.76,1.76-2.84,4.18-2.84,6.85
		c0,2.67,1.08,5.09,2.84,6.85c1.76,1.76,4.18,2.84,6.85,2.84s5.09-1.08,6.85-2.84c1.76-1.76,2.84-4.18,2.84-6.85
		C22.19,9.83,21.11,7.41,19.35,5.67L19.35,5.67z"/>
	<path id="path7828_2_" class="st1" d="M17.76,10.27c0,0-0.11-0.76-0.42-1.1c-0.4-0.45-0.87-0.45-1.06-0.47
		C14.77,8.6,12.52,8.6,12.52,8.6H12.5c0,0-2.25,0-3.75,0.11C8.53,8.73,8.07,8.75,7.66,9.17c-0.32,0.34-0.42,1.1-0.42,1.1
		s-0.11,0.91-0.11,1.8v0.11v0.74c0,0.91,0.11,1.8,0.11,1.8s0.11,0.76,0.42,1.12c0.4,0.45,0.93,0.42,1.19,0.47
		c0.85,0.08,3.65,0.11,3.65,0.11s2.25-0.02,3.75-0.11c0.21-0.02,0.66-0.02,1.06-0.47c0.32-0.34,0.42-1.12,0.42-1.12
		s0.11-0.89,0.11-1.8v-0.7v-0.17C17.87,11.18,17.76,10.27,17.76,10.27L17.76,10.27L17.76,10.27z M14.3,12.39l-2.91,1.57v-2.42V10.8
		l1.32,0.72L14.3,12.39L14.3,12.39z"/>
</g>
</svg>
