<?xml version="1.0" encoding="utf-8"?>
<!-- Generator: Adobe Illustrator 24.0.2, SVG Export Plug-In . SVG Version: 6.00 Build 0)  -->
<svg version="1.1" id="Layer_1" xmlns="http://www.w3.org/2000/svg" xmlns:xlink="http://www.w3.org/1999/xlink" x="0px" y="0px"
	 viewBox="0 0 30 30" style="enable-background:new 0 0 30 30;" xml:space="preserve">
<style type="text/css">
	.st0{opacity:0;fill:#FFFFFF;}
	.st1{fill:#3099f1;}
	.st2{fill:#3099f1;}
	.st3{fill:#3099f1;}
</style>
<path class="st0" d="M1.25,0h27.5C29.44,0,30,0.56,30,1.25v27.5c0,0.69-0.56,1.25-1.25,1.25H1.25C0.56,30,0,29.44,0,28.75V1.25
	C0,0.56,0.56,0,1.25,0z"/>
<g>
	<g>
		<g>
			<path class="st1" d="M20.55,11.23c0.19,0,0.35-0.16,0.35-0.35V7.05c0-0.58-0.47-1.05-1.05-1.05H7.05C6.47,6,6,6.47,6,7.05v15.89
				C6,23.53,6.47,24,7.05,24h12.8c0.58,0,1.05-0.47,1.05-1.05v-2.59c0-0.19-0.16-0.35-0.35-0.35c-0.19,0-0.35,0.16-0.35,0.35v2.59
				c0,0.19-0.16,0.35-0.35,0.35H7.05c-0.19,0-0.35-0.16-0.35-0.35V7.05c0-0.19,0.16-0.35,0.35-0.35h12.8c0.19,0,0.35,0.16,0.35,0.35
				v3.82C20.2,11.07,20.36,11.23,20.55,11.23z"/>
		</g>
	</g>
	<g>
		<g>
			<path class="st1" d="M13.45,7.9c-1.78,0-3.23,1.45-3.23,3.23c0,0.93,0.39,1.76,1.02,2.35c0.01,0.01,0.02,0.02,0.04,0.04
				c0.58,0.53,1.34,0.85,2.18,0.85c0.84,0,1.61-0.32,2.18-0.85c0.01-0.01,0.03-0.02,0.04-0.04c0.62-0.59,1.02-1.43,1.02-2.35
				C16.69,9.35,15.24,7.9,13.45,7.9z M13.45,13.66c-0.57,0-1.1-0.19-1.53-0.52c0.31-0.55,0.89-0.89,1.53-0.89s1.22,0.34,1.53,0.89
				C14.56,13.47,14.03,13.66,13.45,13.66z M12.89,10.99v-0.23c0-0.31,0.25-0.56,0.56-0.56c0.31,0,0.56,0.25,0.56,0.56v0.23
				c0,0.31-0.25,0.56-0.56,0.56C13.14,11.55,12.89,11.3,12.89,10.99z M15.49,12.63c-0.26-0.38-0.62-0.68-1.04-0.87
				c0.17-0.21,0.26-0.48,0.26-0.77v-0.23c0-0.7-0.57-1.27-1.27-1.27s-1.27,0.57-1.27,1.27v0.23c0,0.29,0.1,0.56,0.26,0.77
				c-0.42,0.18-0.78,0.48-1.04,0.87c-0.31-0.42-0.49-0.94-0.49-1.5c0-1.4,1.14-2.53,2.53-2.53s2.53,1.14,2.53,2.53
				C15.98,11.69,15.8,12.21,15.49,12.63z"/>
		</g>
	</g>
	<g>
		<g>
			<path class="st1" d="M15.35,21.4h-1.9c-0.19,0-0.35,0.16-0.35,0.35s0.16,0.35,0.35,0.35h1.9c0.19,0,0.35-0.16,0.35-0.35
				S15.55,21.4,15.35,21.4z"/>
		</g>
	</g>
	<g>
		<g>
			<path class="st1" d="M15.35,19.43h-4.99c-0.19,0-0.35,0.16-0.35,0.35s0.16,0.35,0.35,0.35h4.99c0.19,0,0.35-0.16,0.35-0.35
				S15.55,19.43,15.35,19.43z"/>
		</g>
	</g>
	<g>
		<g>
			<path class="st1" d="M15.35,17.46h-4.99c-0.19,0-0.35,0.16-0.35,0.35s0.16,0.35,0.35,0.35h4.99c0.19,0,0.35-0.16,0.35-0.35
				S15.55,17.46,15.35,17.46z"/>
		</g>
	</g>
	<g>
		<g>
			<path class="st1" d="M9.11,15.6c-0.07-0.07-0.16-0.1-0.25-0.1c-0.09,0-0.18,0.04-0.25,0.1c-0.07,0.07-0.1,0.16-0.1,0.25
				c0,0.09,0.04,0.18,0.1,0.25c0.07,0.07,0.16,0.1,0.25,0.1c0.09,0,0.18-0.04,0.25-0.1c0.07-0.07,0.1-0.16,0.1-0.25
				C9.21,15.75,9.17,15.66,9.11,15.6z"/>
		</g>
	</g>
	<g>
		<g>
			<path class="st1" d="M9.11,17.56c-0.07-0.07-0.16-0.1-0.25-0.1c-0.09,0-0.18,0.04-0.25,0.1c-0.07,0.07-0.1,0.16-0.1,0.25
				s0.04,0.18,0.1,0.25c0.07,0.07,0.16,0.1,0.25,0.1c0.09,0,0.18-0.04,0.25-0.1c0.07-0.07,0.1-0.16,0.1-0.25S9.17,17.63,9.11,17.56z
				"/>
		</g>
	</g>
	<g>
		<g>
			<path class="st1" d="M9.11,19.53c-0.07-0.07-0.16-0.1-0.25-0.1c-0.09,0-0.18,0.04-0.25,0.1c-0.07,0.07-0.1,0.16-0.1,0.25
				s0.04,0.18,0.1,0.25c0.07,0.07,0.16,0.1,0.25,0.1c0.09,0,0.18-0.04,0.25-0.1c0.07-0.07,0.1-0.16,0.1-0.25S9.17,19.6,9.11,19.53z"
				/>
		</g>
	</g>
	<g>
		<g>
			<path class="st1" d="M15.35,15.49h-4.99c-0.19,0-0.35,0.16-0.35,0.35s0.16,0.35,0.35,0.35h4.99c0.19,0,0.35-0.16,0.35-0.35
				S15.55,15.49,15.35,15.49z"/>
		</g>
	</g>
	<g>
		<g>
			<path class="st1" d="M23.26,10.58c-0.34-0.2-0.74-0.25-1.12-0.15c-0.38,0.1-0.7,0.35-0.9,0.69l-4.42,7.66
				c-0.02,0.04-0.04,0.09-0.04,0.14l-0.31,2.79c-0.02,0.14,0.05,0.27,0.17,0.34c0.05,0.03,0.12,0.05,0.18,0.05
				c0.07,0,0.15-0.02,0.21-0.07l2.26-1.66c0.04-0.03,0.07-0.07,0.1-0.11l4.42-7.66C24.21,11.89,23.97,10.99,23.26,10.58z
				 M17.25,20.99l0.16-1.46l1.02,0.59L17.25,20.99z M18.94,19.61l-1.34-0.77l3.55-6.15l1.34,0.77L18.94,19.61z M23.19,12.25
				l-0.35,0.6l-1.34-0.77l0.35-0.6c0.1-0.18,0.27-0.31,0.47-0.36c0.2-0.05,0.41-0.03,0.59,0.08c0.18,0.1,0.31,0.27,0.36,0.47
				S23.3,12.07,23.19,12.25z"/>
		</g>
	</g>
</g>
</svg>
