<?xml version="1.0" encoding="utf-8"?>
<!-- Generator: Adobe Illustrator 24.0.2, SVG Export Plug-In . SVG Version: 6.00 Build 0)  -->
<svg version="1.1" id="Layer_1" xmlns="http://www.w3.org/2000/svg" xmlns:xlink="http://www.w3.org/1999/xlink" x="0px" y="0px"
	 viewBox="0 0 30 30" style="enable-background:new 0 0 30 30;" xml:space="preserve">
<style type="text/css">
	.st0{opacity:0;fill:#FFFFFF;}
	.st1{fill:#3099f1;}
	.st2{fill:#3099f1;}
	.st3{fill:#3099f1;}
</style>
<path class="st0" d="M1.25,0h27.5C29.44,0,30,0.56,30,1.25v27.5c0,0.69-0.56,1.25-1.25,1.25H1.25C0.56,30,0,29.44,0,28.75V1.25
	C0,0.56,0.56,0,1.25,0z"/>
<g>
	<g>
		<g>
			<path class="st1" d="M23.7,21.38l-3.5-3.5c-0.14-0.14-0.36-0.14-0.5,0l-0.15,0.15l-0.97-0.97c0.57-0.78,0.97-1.66,1.18-2.61
				c0.04-0.19-0.08-0.38-0.27-0.42c-0.19-0.04-0.38,0.08-0.42,0.27c-0.62,2.85-3.19,4.91-6.11,4.91c-3.45,0-6.26-2.81-6.26-6.26
				S9.51,6.7,12.96,6.7c3,0,5.59,2.14,6.15,5.08c0.04,0.19,0.22,0.32,0.41,0.28c0.19-0.04,0.32-0.22,0.28-0.41
				C19.18,8.38,16.3,6,12.96,6C9.12,6,6,9.12,6,12.96s3.12,6.96,6.96,6.96c1.47,0,2.92-0.47,4.1-1.34l0.97,0.97l-0.15,0.15
				c-0.14,0.14-0.14,0.36,0,0.5l3.5,3.5c0.2,0.2,0.45,0.29,0.71,0.29c0.26,0,0.52-0.1,0.71-0.29l0.9-0.9
				C24.1,22.41,24.1,21.77,23.7,21.38z M17.61,18.14c0.18-0.17,0.36-0.34,0.52-0.52l0.92,0.92l-0.52,0.52L17.61,18.14z M23.21,22.31
				l-0.9,0.9c-0.12,0.12-0.31,0.12-0.43,0l-3.25-3.25l1.33-1.33l3.25,3.25C23.33,22,23.33,22.19,23.21,22.31z"/>
		</g>
	</g>
	<g>
		<g>
			<path class="st1" d="M10.99,11.06h-1.5c-0.19,0-0.35,0.16-0.35,0.35c0,0.19,0.16,0.35,0.35,0.35h0.4v1.87
				c0,0.22-0.18,0.4-0.4,0.4c-0.22,0-0.4-0.18-0.4-0.4c0-0.19-0.16-0.35-0.35-0.35S8.4,13.44,8.4,13.64c0,0.61,0.49,1.1,1.1,1.1
				c0.61,0,1.1-0.49,1.1-1.1v-1.87h0.4c0.19,0,0.35-0.16,0.35-0.35C11.34,11.22,11.18,11.06,10.99,11.06z"/>
		</g>
	</g>
	<g>
		<g>
			<path class="st1" d="M13.05,11.06c-1.01,0-1.84,0.82-1.84,1.84s0.82,1.84,1.84,1.84s1.84-0.82,1.84-1.84S14.06,11.06,13.05,11.06
				z M13.05,14.03c-0.62,0-1.13-0.51-1.13-1.13c0-0.62,0.51-1.13,1.13-1.13s1.13,0.51,1.13,1.13S13.68,14.03,13.05,14.03z"/>
		</g>
	</g>
	<g>
		<g>
			<path class="st1" d="M17.53,12.19c0-0.62-0.5-1.13-1.12-1.13h-0.72c-0.19,0-0.35,0.16-0.35,0.35v1.55v1.55
				c0,0.19,0.16,0.35,0.35,0.35h0.72c0.62,0,1.13-0.5,1.13-1.13c0-0.3-0.12-0.57-0.31-0.77C17.41,12.76,17.53,12.49,17.53,12.19z
				 M16.4,14.16h-0.37v-0.84h0.37c0.23,0,0.42,0.19,0.42,0.42C16.83,13.97,16.64,14.16,16.4,14.16z M16.4,12.61h-0.37v-0.84h0.37
				c0.23,0,0.42,0.19,0.42,0.42C16.83,12.42,16.64,12.61,16.4,12.61z"/>
		</g>
	</g>
	<g>
		<g>
			<path class="st1" d="M19.57,12.61c-0.19,0-0.35,0.16-0.35,0.35l0,0.02c0,0.19,0.16,0.35,0.35,0.35c0,0,0,0,0,0
				c0.19,0,0.35-0.16,0.35-0.35l0-0.03C19.92,12.77,19.77,12.61,19.57,12.61z"/>
		</g>
	</g>
	<g>
		<g>
			<path class="st1" d="M16.64,9.28c-2.03-2.03-5.33-2.03-7.35,0c-0.14,0.14-0.14,0.36,0,0.5c0.14,0.14,0.36,0.14,0.5,0
				c1.75-1.75,4.61-1.75,6.36,0c0.07,0.07,0.16,0.1,0.25,0.1c0.09,0,0.18-0.03,0.25-0.1C16.78,9.64,16.78,9.42,16.64,9.28z"/>
		</g>
	</g>
	<g>
		<g>
			<path class="st1" d="M9.79,16.15L9.79,16.15C9.65,16,9.42,16,9.29,16.14c-0.14,0.14-0.14,0.36,0,0.5c0,0,0,0,0,0l0,0
				c0.07,0.07,0.16,0.1,0.25,0.1c0.09,0,0.18-0.03,0.25-0.1C9.93,16.51,9.93,16.29,9.79,16.15z"/>
		</g>
	</g>
	<g>
		<g>
			<path class="st1" d="M16.64,16.14c-0.14-0.14-0.36-0.14-0.5,0c-1.43,1.43-3.66,1.73-5.41,0.73c-0.17-0.1-0.38-0.04-0.48,0.13
				c-0.1,0.17-0.04,0.38,0.13,0.48c0.8,0.46,1.69,0.68,2.57,0.68c1.35,0,2.68-0.52,3.68-1.52C16.78,16.5,16.78,16.28,16.64,16.14z"
				/>
		</g>
	</g>
</g>
</svg>
