<?xml version="1.0" encoding="utf-8"?>
<!-- Generator: Adobe Illustrator 24.0.2, SVG Export Plug-In . SVG Version: 6.00 Build 0)  -->
<svg version="1.1" id="Layer_1" xmlns="http://www.w3.org/2000/svg" xmlns:xlink="http://www.w3.org/1999/xlink" x="0px" y="0px"
	 viewBox="0 0 30 30" style="enable-background:new 0 0 30 30;" xml:space="preserve">
<style type="text/css">
	.st0{opacity:0;fill:#FFFFFF;}
	.st1{fill:#BCBEC0;}
	.st2{fill:#ABADB0;}
</style>
<path class="st0" d="M1.25,0h27.5C29.44,0,30,0.56,30,1.25v27.5c0,0.69-0.56,1.25-1.25,1.25H1.25C0.56,30,0,29.44,0,28.75V1.25
	C0,0.56,0.56,0,1.25,0z"/>
<g>
	<g>
		<g>
			<path class="st2" d="M23.08,13.11l-1.26-0.21c-0.13-0.42-0.3-0.83-0.51-1.23l0.74-1.04c0.32-0.44,0.27-1.05-0.12-1.43l-1.12-1.12
				c-0.21-0.21-0.49-0.33-0.79-0.33c-0.23,0-0.45,0.07-0.64,0.21L18.34,8.7c-0.41-0.21-0.83-0.39-1.27-0.52l-0.21-1.25
				C16.77,6.39,16.3,6,15.76,6h-1.58c-0.55,0-1.01,0.39-1.1,0.93l-0.22,1.28c-0.42,0.13-0.83,0.3-1.22,0.52L10.6,7.98
				c-0.19-0.14-0.41-0.21-0.65-0.21c-0.3,0-0.58,0.12-0.79,0.33L8.05,9.22c-0.38,0.38-0.44,0.99-0.12,1.43l0.75,1.06
				c-0.21,0.39-0.37,0.8-0.5,1.23l-1.25,0.21C6.39,13.24,6,13.7,6,14.25v1.58c0,0.55,0.39,1.01,0.93,1.1l1.28,0.22
				c0.13,0.42,0.3,0.83,0.52,1.22L7.98,19.4c-0.32,0.44-0.27,1.05,0.12,1.43l1.12,1.12c0.21,0.21,0.49,0.33,0.79,0.33
				c0.23,0,0.45-0.07,0.64-0.21l1.06-0.75c0.38,0.2,0.78,0.36,1.19,0.49l0.21,1.26C13.2,23.61,13.66,24,14.2,24h1.59
				c0.55,0,1.01-0.39,1.1-0.93l0.21-1.26c0.42-0.13,0.83-0.3,1.23-0.51l1.04,0.74c0.19,0.14,0.41,0.21,0.65,0.21l0,0
				c0.3,0,0.58-0.12,0.79-0.33l1.12-1.12c0.38-0.38,0.44-0.99,0.12-1.43l-0.74-1.05c0.21-0.39,0.38-0.8,0.51-1.23l1.26-0.21
				c0.54-0.09,0.93-0.55,0.93-1.1v-1.58C24.01,13.66,23.62,13.2,23.08,13.11z M22.99,15.79c0,0.05-0.03,0.09-0.08,0.1l-1.58,0.26
				c-0.2,0.03-0.36,0.18-0.41,0.37c-0.14,0.55-0.36,1.08-0.65,1.58c-0.1,0.17-0.09,0.39,0.02,0.55l0.93,1.31
				c0.03,0.04,0.02,0.09-0.01,0.13l-1.12,1.12c-0.03,0.03-0.05,0.03-0.07,0.03c-0.02,0-0.04-0.01-0.06-0.02l-1.3-0.93
				c-0.16-0.12-0.38-0.12-0.55-0.02c-0.49,0.29-1.02,0.51-1.58,0.65c-0.2,0.05-0.34,0.21-0.37,0.41l-0.27,1.58
				c-0.01,0.05-0.05,0.08-0.1,0.08h-1.58c-0.05,0-0.09-0.03-0.1-0.08l-0.26-1.58c-0.03-0.2-0.18-0.36-0.37-0.41
				c-0.54-0.14-1.06-0.35-1.54-0.63c-0.08-0.05-0.17-0.07-0.26-0.07c-0.1,0-0.21,0.03-0.29,0.09l-1.32,0.94
				c-0.02,0.01-0.04,0.02-0.06,0.02c-0.02,0-0.05,0-0.07-0.03l-1.12-1.12C8.79,20.09,8.78,20.04,8.81,20l0.93-1.3
				c0.12-0.17,0.12-0.38,0.02-0.56c-0.29-0.49-0.52-1.02-0.66-1.57c-0.05-0.19-0.21-0.34-0.41-0.37L7.1,15.93
				c-0.05-0.01-0.08-0.05-0.08-0.1v-1.58c0-0.05,0.03-0.09,0.08-0.1l1.57-0.26c0.2-0.03,0.36-0.18,0.41-0.38
				c0.14-0.55,0.35-1.09,0.64-1.58c0.1-0.17,0.09-0.39-0.03-0.55l-0.94-1.32c-0.03-0.04-0.02-0.09,0.01-0.13l1.12-1.12
				c0.03-0.03,0.05-0.03,0.07-0.03c0.02,0,0.04,0.01,0.06,0.02l1.3,0.93c0.17,0.12,0.38,0.12,0.56,0.02
				c0.49-0.29,1.02-0.52,1.57-0.66c0.19-0.05,0.34-0.21,0.37-0.41l0.27-1.59c0.01-0.05,0.05-0.08,0.1-0.08h1.58
				c0.05,0,0.09,0.03,0.1,0.08l0.26,1.57c0.03,0.2,0.18,0.36,0.38,0.41c0.57,0.14,1.11,0.36,1.61,0.66c0.17,0.1,0.39,0.09,0.55-0.02
				l1.3-0.93c0.02-0.01,0.04-0.02,0.06-0.02c0.02,0,0.05,0,0.07,0.03l1.12,1.12c0.03,0.03,0.04,0.09,0.01,0.13l-0.93,1.3
				c-0.12,0.16-0.12,0.38-0.02,0.55c0.29,0.49,0.51,1.02,0.65,1.58c0.05,0.2,0.21,0.34,0.41,0.37l1.58,0.27
				c0.05,0.01,0.08,0.05,0.08,0.1L22.99,15.79L22.99,15.79z"/>
			<path class="st2" d="M15,11.11c-2.14,0-3.88,1.74-3.88,3.88s1.74,3.88,3.88,3.88s3.88-1.74,3.88-3.88S17.15,11.11,15,11.11z
				 M15,17.87c-1.58,0-2.87-1.29-2.87-2.87s1.29-2.87,2.87-2.87s2.87,1.29,2.87,2.87S16.58,17.87,15,17.87z"/>
		</g>
	</g>
</g>
</svg>
