<?xml version="1.0" encoding="UTF-8"?>
<svg width="383px" height="345px" viewBox="0 0 383 345" version="1.1" xmlns="http://www.w3.org/2000/svg" xmlns:xlink="http://www.w3.org/1999/xlink">
    <!-- Generator: Sketch 50.2 (55047) - http://www.bohemiancoding.com/sketch -->
    <title>sport</title>
    <desc>Created with Sketch.</desc>
    <defs>
        <linearGradient x1="50%" y1="100.125%" x2="50%" y2="0%" id="linearGradient-1">
            <stop stop-color="#808080" stop-opacity="0.25" offset="0%"></stop>
            <stop stop-color="#808080" stop-opacity="0.12" offset="54%"></stop>
            <stop stop-color="#808080" stop-opacity="0.1" offset="100%"></stop>
        </linearGradient>
        <linearGradient x1="50%" y1="100%" x2="50%" y2="0%" id="linearGradient-2">
            <stop stop-color="#808080" stop-opacity="0.25" offset="0%"></stop>
            <stop stop-color="#808080" stop-opacity="0.12" offset="54%"></stop>
            <stop stop-color="#808080" stop-opacity="0.1" offset="100%"></stop>
        </linearGradient>
        <linearGradient x1="50%" y1="100%" x2="50%" y2="-0.125%" id="linearGradient-3">
            <stop stop-color="#808080" stop-opacity="0.25" offset="0%"></stop>
            <stop stop-color="#808080" stop-opacity="0.12" offset="54%"></stop>
            <stop stop-color="#808080" stop-opacity="0.1" offset="100%"></stop>
        </linearGradient>
        <linearGradient x1="50.0074772%" y1="100%" x2="50.0074772%" y2="0%" id="linearGradient-4">
            <stop stop-color="#808080" stop-opacity="0.25" offset="0%"></stop>
            <stop stop-color="#808080" stop-opacity="0.12" offset="54%"></stop>
            <stop stop-color="#808080" stop-opacity="0.1" offset="100%"></stop>
        </linearGradient>
        <linearGradient x1="49.9357326%" y1="100.022952%" x2="49.9357326%" y2="-0.0688547165%" id="linearGradient-5">
            <stop stop-color="#808080" stop-opacity="0.25" offset="0%"></stop>
            <stop stop-color="#808080" stop-opacity="0.12" offset="54%"></stop>
            <stop stop-color="#808080" stop-opacity="0.1" offset="100%"></stop>
        </linearGradient>
        <path d="M11.9627586,1.84 L11.1724138,0.024 L0.868965517,4.116 C0.391347203,4.3044206 0.079025873,4.75333484 0.0786206897,5.252 L0.0786206897,16 L2.11448276,16 L2.11448276,5.744 L11.9627586,1.84 Z" id="path-6"></path>
        <linearGradient x1="49.9916206%" y1="100%" x2="49.9916206%" y2="0%" id="linearGradient-8">
            <stop stop-color="#808080" stop-opacity="0.25" offset="0%"></stop>
            <stop stop-color="#808080" stop-opacity="0.12" offset="54%"></stop>
            <stop stop-color="#808080" stop-opacity="0.1" offset="100%"></stop>
        </linearGradient>
        <linearGradient x1="50%" y1="100%" x2="50%" y2="-0.0366837858%" id="linearGradient-9">
            <stop stop-color="#000000" stop-opacity="0.12" offset="0%"></stop>
            <stop stop-color="#000000" stop-opacity="0.09" offset="55%"></stop>
            <stop stop-color="#000000" stop-opacity="0.02" offset="100%"></stop>
        </linearGradient>
    </defs>
    <g id="Page-1" stroke="none" stroke-width="1" fill="none" fill-rule="evenodd">
        <g id="sport" transform="translate(0.000000, -1.000000)">
            <path d="M123.088276,346 C208.541697,346 316,258.07099 316,172.944874 C316,87.8187574 208.541697,26 123.088276,26 C37.6348556,26 0,93.1617396 0,178.287856 C0,263.413972 37.6348556,346 123.088276,346 Z" id="Oval-Copy" fill="#00E470" fill-rule="nonzero" opacity="0.08"></path>
            <path d="M64.4151923,139 L352.584808,139 C355.347088,139 357.996234,140.099308 359.949461,142.05609 C361.902688,144.012871 363,146.666836 363,149.434142 L363,253 L54,253 L54,149.434142 C54,143.671525 58.6630404,139 64.4151923,139 Z"  fill="#DFDFDF" fill-rule="nonzero"></path>
            <path d="M40.880226,196.000002 L66.1237288,196.000002 C68.816819,196.000002 71,198.206894 71,200.929234 L71,253 L39.1638418,253 C37.4165002,253 36,251.568115 36,249.801796 L36,200.929234 C35.9999996,199.621227 36.5142909,198.366852 37.4296247,197.442326 C38.3449585,196.517801 39.5862734,195.998941 40.880226,196.000002 Z"  fill="#000000" fill-rule="nonzero" opacity="0.1"></path>
            <path d="M37.8762712,196.000002 L63.119774,196.000002 C64.4137266,195.998941 65.6550415,196.517801 66.5703753,197.442326 C67.4857091,198.366852 68.0000004,199.621227 68,200.929234 L68,253 L36.1638418,253 C34.4165002,253 33,251.568115 33,249.801796 L33,200.929234 C33,198.206894 35.183181,196.000002 37.8762712,196.000002 Z"  fill="#DFDFDF" fill-rule="nonzero"></path>
            <path d="M349.163842,196 L381,196 L381,248.070422 C381,250.792953 378.816819,253 376.123729,253 L350.876271,253 C348.183181,253 346,250.792953 346,248.070422 L346,199.198429 C346,197.431985 347.4165,196 349.163842,196 Z"  fill="#000000" fill-rule="nonzero" opacity="0.1" transform="translate(363.500000, 224.500000) rotate(-180.000000) translate(-363.500000, -224.500000) "></path>
            <path d="M351.160244,196 L383,196 L383,248.070422 C383,250.792953 380.816572,253 378.123178,253 L352.876822,253 C350.183428,253 348,250.792953 348,248.070422 L348,199.198429 C348,197.431985 349.41666,196 351.164199,196 L351.160244,196 Z"  fill="#DFDFDF" fill-rule="nonzero" transform="translate(365.500000, 224.500000) rotate(-180.000000) translate(-365.500000, -224.500000) "></path>
            <path d="M76.5297611,214 L341.470239,214 C343.467256,214 345.38248,214.79724 346.794584,216.216336 C348.206688,217.635432 349,219.560139 349,221.567044 L349,253 L69,253 L69,221.567044 C69,217.387881 72.3711888,214 76.5297611,214 Z"  fill="#CACACA" fill-rule="nonzero"></path>
            <rect id="Rectangle-path" fill="#CACACA" fill-rule="nonzero" x="48" y="253" width="11" height="11"></rect>
            <rect id="Rectangle-path" fill="#000000" fill-rule="nonzero" opacity="0.1" x="48" y="253" width="11" height="1"></rect>
            <rect id="Rectangle-path" fill="#CACACA" fill-rule="nonzero" transform="translate(363.500000, 258.500000) rotate(-180.000000) translate(-363.500000, -258.500000) " x="358" y="253" width="11" height="11"></rect>
            <rect id="Rectangle-path" fill="#000000" fill-rule="nonzero" opacity="0.1" transform="translate(363.500000, 252.991435) rotate(-180.000000) translate(-363.500000, -252.991435) " x="358" y="252.491435" width="11" height="1"></rect>
            <g id="1" opacity="0.7" transform="translate(115.000000, 166.000000)" fill="#000000" font-family="Lato-Regular, Lato" font-size="38.32" font-weight="normal">
                <text>
                    <tspan x="0.116666667" y="38.343617">1</tspan>
                </text>
            </g>
            <rect id="Rectangle-path" fill="#FDB797" fill-rule="nonzero" x="103" y="275" width="7" height="9"></rect>
            <rect id="Rectangle-path" fill="#FDB797" fill-rule="nonzero" x="127" y="275" width="7" height="9"></rect>
            <rect id="Rectangle-path" fill="#ADADAD" fill-rule="nonzero" x="96" y="198" width="45" height="16"></rect>
            <path d="M96,201.31 C96,201.31 112.790926,205 118.49801,205 C124.205094,205 141,201.31375 141,201.31375 L141,199 L96,199 L96,201.31 Z"  fill="#000000" fill-rule="nonzero" opacity="0.1"></path>
            <path d="M141,201.03777 C141,201.03777 124.210559,205 118.5,205 C112.789441,205 96,201.03777 96,201.03777 L96,173.789878 C96,167.745627 98.370529,161.948932 102.590098,157.675001 C106.809666,153.40107 112.532629,151 118.5,151 C130.926407,151 141,161.203376 141,173.789878 L141,201.03777 Z"  fill="#F55F44" fill-rule="nonzero"></path>
            <path d="M113,140 L124,140 L124,153.525424 C124,155.996664 121.993572,158 119.518519,158 L117.481481,158 C115.006428,158 113,155.996664 113,153.525424 L113,140 Z"  fill="#FDB797" fill-rule="nonzero"></path>
            <path d="M112.358733,278.725782 L100.693284,280.966554 C99.5958818,281.169392 98.543974,280.428865 98.3374214,279.308061 L86.1144187,212.37803 C85.7873656,210.591365 86.1679761,208.745009 87.1724556,207.245453 C88.1769351,205.745896 89.7229314,204.716081 91.4700806,204.382728 L98.5376698,203.033446 C99.6350724,202.830608 100.68698,203.571135 100.893533,204.691939 L113.964646,276.304302 C114.170911,277.425655 113.453706,278.507095 112.358733,278.725782 Z"  fill="#ADADAD" fill-rule="nonzero"></path>
            <path d="M124.707941,278.725782 L136.736141,280.966554 C137.867668,281.169392 138.952286,280.428865 139.165262,279.308061 L151.893858,211.703389 C152.522148,208.355823 150.296785,205.136506 146.922256,204.511231 L138.946641,203.033446 C137.815113,202.830608 136.730495,203.571135 136.51752,204.691939 L123.035896,276.304302 C122.823939,277.430859 123.572337,278.5147 124.707941,278.725782 Z"  fill="#ADADAD" fill-rule="nonzero"></path>
            <path d="M113,147.374013 C116.61294,148.208662 120.38706,148.208662 124,147.374013 L124,140 L113,140 L113,147.374013 Z"  fill="#000000" fill-rule="nonzero" opacity="0.1"></path>
            <circle id="Oval" fill="#333333" fill-rule="nonzero" cx="118.5" cy="120.5" r="23.5"></circle>
            <circle id="Oval" fill="#FDB797" fill-rule="nonzero" cx="118.5" cy="125.5" r="22.5"></circle>
            <path d="M103.278571,98.9781499 C107.653386,95.3582616 114.267881,94.7141824 117.561055,90.0670284 C118.932205,88.1347907 119.897238,85.4239509 122.209296,85 L122.277652,89.9447349 L129.680257,89.1742857 C128.538302,92.4354463 131.340918,95.570237 133.025704,98.5827342 C134.266078,100.807338 134.944324,103.308485 135,105.863275 C132.4306,107.428633 129.245992,105.7206 126.383062,104.811551 C123.604572,103.926961 120.645138,103.837279 117.733956,103.751674 C116.241788,103.645955 114.742437,103.729489 113.27068,104.000337 C112.005846,104.348712 110.773431,104.808378 109.587472,105.374101 C107.617197,106.189391 101.404799,109.364947 99.5752577,107.330798 C97.4964164,105.01945 101.593784,100.388602 103.278571,98.9781499 Z"  fill="#333333" fill-rule="nonzero"></path>
            <path d="M104.471017,114.291632 C105.692738,114.965566 107.035558,115.378047 108.417836,115.503995 C114.133501,116.303556 119.953652,115.634154 125.353633,113.556132 C126.237721,115.851539 128.396631,117.42761 130.689732,118.175234 C132.982834,118.922857 135.425914,118.963269 137.841367,118.983475 C138.372568,119.043794 138.909163,118.938134 139.380626,118.680385 C140.454161,117.936802 139.933181,116.255659 139.309584,115.079668 L136.199491,109.308821 C135.279882,107.603431 134.336592,105.865712 132.911791,104.572525 C131.127829,102.956041 128.759738,102.200335 126.423221,101.719431 C120.903746,100.595597 115.205472,100.79059 109.771594,102.289242 C103.965824,103.913808 96.5023906,109.353275 104.471017,114.291632 Z"  fill="#000000" fill-rule="nonzero" opacity="0.1"></path>
            <path d="M104.470908,114.288459 C105.692633,114.962847 107.035457,115.375606 108.417738,115.501638 C114.133421,116.301738 119.95359,115.631886 125.353588,113.552463 C126.237678,115.849417 128.396595,117.42655 130.689703,118.174678 C132.982812,118.922805 135.4259,118.963245 137.84136,118.983464 C138.372563,119.043823 138.90916,118.938093 139.380624,118.680169 C140.454162,117.936086 139.933181,116.25381 139.309581,115.077025 L136.203426,109.314422 C135.283814,107.607882 134.340522,105.868991 132.915716,104.574933 C131.131748,102.95736 128.76365,102.201144 126.427126,101.719916 C120.907634,100.595325 115.209343,100.790449 109.775448,102.290111 C103.965713,103.90364 96.5022568,109.346773 104.470908,114.288459 Z"  fill="#333333" fill-rule="nonzero"></path>
            <ellipse id="Oval" fill="#FDB797" fill-rule="nonzero" cx="141" cy="125.5" rx="2" ry="3.5"></ellipse>
            <ellipse id="Oval" fill="#FDB797" fill-rule="nonzero" cx="96" cy="125.5" rx="2" ry="3.5"></ellipse>
            <path d="M113,153.126299 C113,153.126299 85.018369,148.635158 90.7821702,193.215974 L94.1473223,206 L103.76931,205.596846 C103.76931,205.596846 97.5085615,190.732542 101.362835,180.818975 C105.217108,170.905408 113,153.126299 113,153.126299 Z"  fill="#F55F44" fill-rule="nonzero"></path>
            <path d="M124,153.126184 C124,153.126184 151.987995,148.636404 146.215862,193.219844 L142.850415,206 L133.227586,205.596968 C133.227586,205.596968 139.488882,190.737164 135.634271,180.826599 C131.779661,170.916033 124,153.126184 124,153.126184 Z"  fill="#F55F44" fill-rule="nonzero"></path>
            <circle id="Oval" fill="#FDB797" fill-rule="nonzero" cx="99.5" cy="206.5" r="5.5"></circle>
            <circle id="Oval" fill="#FDB797" fill-rule="nonzero" cx="138.5" cy="206.5" r="5.5"></circle>
            <path d="M104.646365,280 L107.353635,280 C110.472036,280 113,282.617973 113,285.847406 L113,288 L99,288 L99,285.847406 C99,282.617973 101.527964,280 104.646365,280 Z"  fill="#333333" fill-rule="nonzero"></path>
            <path d="M129.648709,280.000001 L132.355219,280.000001 C135.472745,280.000001 138,282.617974 138,285.847406 L138,288 L124,288 L124,285.847406 C124,284.295873 124.595255,282.807946 125.654707,281.711227 C126.714158,280.614509 128.15094,279.998922 129.648709,280.000001 Z"  fill="#333333" fill-rule="nonzero"></path>
            <path d="M100.549946,176 C100.549946,176 98.6165414,186.500407 102,191"  fill="#000000" fill-rule="nonzero" opacity="0.1"></path>
            <path d="M136.450054,176 C136.450054,176 138.383459,186.500407 135,191"  fill="#000000" fill-rule="nonzero" opacity="0.1"></path>
            <rect id="Rectangle-path" fill="#ADADAD" fill-rule="nonzero" x="201" y="177" width="45" height="33"></rect>
            <path d="M201,185.0945 C201,185.0945 217.789441,187 223.5,187 C229.210559,187 246,185.0945 246,185.0945 L246,177 L201,177 L201,185.0945 Z"  fill="#000000" fill-rule="nonzero" opacity="0.1"></path>
            <path d="M246,185.049927 C246,185.049927 229.210559,187 223.5,187 C217.789441,187 201,185.049927 201,185.049927 L201,152.409985 C201,140.033292 211.073593,130 223.5,130 C235.926407,130 246,140.033292 246,152.409985 L246,185.049927 Z"  fill="#24D272" fill-rule="nonzero"></path>
            <path d="M218,118 L229,118 L229,131.525424 C229,133.996664 226.993572,136 224.518519,136 L222.481481,136 C220.006428,136 218,133.996664 218,131.525424 L218,118 Z"  fill="#FDB797" fill-rule="nonzero"></path>
            <rect id="Rectangle-path" fill="#ADADAD" fill-rule="nonzero" x="201" y="198" width="16" height="110"></rect>
            <rect id="Rectangle-path" fill="#ADADAD" fill-rule="nonzero" x="230" y="198" width="16" height="110"></rect>
            <circle id="Oval" fill="#814E4D" fill-rule="nonzero" cx="223.5" cy="98.5" r="23.5"></circle>
            <circle id="Oval" fill="#FDB797" fill-rule="nonzero" cx="223.5" cy="103.5" r="22.5"></circle>
            <path d="M210.468701,93.291632 C211.690502,93.9655662 213.03341,94.3780467 214.415777,94.5039946 C220.131815,95.3035559 225.952345,94.6341543 231.352679,92.556132 C232.236824,94.8515386 234.395874,96.42761 236.689125,97.1752337 C238.982376,97.9228573 241.425616,97.9632694 243.841226,97.9834754 C244.372462,98.0437937 244.909092,97.9381343 245.380586,97.6803848 C246.45419,96.9368023 245.933176,95.2556595 245.309539,94.0796677 L242.199243,88.3088215 C241.279574,86.6034313 240.336223,84.8657115 238.911329,83.5725247 C237.127251,81.9560412 234.759005,81.2003351 232.422336,80.7194313 C226.902501,79.5955974 221.203856,79.7905897 215.769624,81.2892417 C209.967423,82.9097665 202.503502,88.3532748 210.468701,93.291632 Z"  fill="#000000" fill-rule="nonzero" opacity="0.1"></path>
            <path d="M210.468701,92.291632 C211.690502,92.9655662 213.03341,93.3780467 214.415777,93.5039946 C220.131815,94.3035559 225.952345,93.6341543 231.352679,91.556132 C232.236824,93.8515386 234.395874,95.42761 236.689125,96.1752337 C238.982376,96.9228573 241.425616,96.9632694 243.841226,96.9834754 C244.372462,97.0437937 244.909092,96.9381343 245.380586,96.6803848 C246.45419,95.9368023 245.933176,94.2556595 245.309539,93.0796677 L242.199243,87.3088215 C241.279574,85.6034313 240.336223,83.8657115 238.911329,82.5725247 C237.127251,80.9560412 234.759005,80.2003351 232.422336,79.7194313 C226.902501,78.5955974 221.203856,78.7905897 215.769624,80.2892417 C209.967423,81.9138077 202.503502,87.3532748 210.468701,92.291632 Z"  fill="#814E4D" fill-rule="nonzero"></path>
            <ellipse id="Oval" fill="#FDB797" fill-rule="nonzero" cx="246" cy="103.5" rx="2" ry="3.5"></ellipse>
            <ellipse id="Oval" fill="#FDB797" fill-rule="nonzero" cx="201" cy="103.5" rx="2" ry="3.5"></ellipse>
            <circle id="Oval" fill="#FDB797" fill-rule="nonzero" cx="284.5" cy="75.5" r="5.5"></circle>
            <path d="M224.388049,112.35583 C224.388049,112.35583 211.717063,116.737152 202,107 C202,107 202.791937,110.228551 204.138229,114.130543 C208.656932,122.617811 218.086575,127.27232 227.568467,125.695801 C237.050358,124.119281 244.468242,116.663596 246,107.170341 C243.727142,108.426109 227.096472,116.420239 224.388049,112.35583 Z M223.901008,118.198914 C221.485601,118.198914 219.50576,116.348934 219.50576,115.279353 C219.50576,114.209771 221.485601,114.304845 223.885169,114.304845 C226.284737,114.304845 228.264579,114.201848 228.264579,115.279353 C228.264579,116.356857 226.320374,118.198914 223.901008,118.198914 Z"  fill="#814E4D" fill-rule="nonzero"></path>
            <path d="M236,133.224232 C236,133.224232 262.120587,118.404321 278.197541,75 L286,79.9319444 C286,79.9319444 273.080524,135.242757 240.656882,148 L236,133.224232 Z"  fill="#24D272" fill-rule="nonzero"></path>
            <circle id="Oval" fill="#FDB797" fill-rule="nonzero" cx="163.5" cy="75.5" r="5.5"></circle>
            <path d="M211,133.224232 C211,133.224232 184.880952,118.404321 168.785714,75 L161,79.9319444 C161,79.9319444 173.928571,135.242757 206.361111,148 L211,133.224232 Z"  fill="#24D272" fill-rule="nonzero"></path>
            <path d="M207.648709,304.000001 L210.355219,304.000001 C213.472745,304.000001 216,306.617974 216,309.847406 L216,312 L202,312 L202,309.847406 C202,308.295873 202.595255,306.807946 203.654707,305.711227 C204.714158,304.614509 206.15094,303.998922 207.648709,304.000001 Z"  fill="#333333" fill-rule="nonzero"></path>
            <path d="M236.640034,304.000023 L239.344267,304.000023 C240.843495,303.995698 242.282692,304.610096 243.343915,305.707486 C244.405137,306.804876 245.001048,308.294943 244.999998,309.848506 L245,312 L231,312 L231.000001,309.848506 C230.99896,308.297766 231.592716,306.810171 232.65054,305.71325 C233.708365,304.61633 235.143524,304.000022 236.640034,304.000023 Z"  fill="#333333" fill-rule="nonzero"></path>
            <circle id="Oval" fill="url(#linearGradient-1)" fill-rule="nonzero" cx="172.5" cy="188.5" r="1.5"></circle>
            <circle id="Oval" fill="#FDD835" fill-rule="nonzero" cx="172.5" cy="189.5" r="1.5"></circle>
            <path d="M171.349293,189.506878 C171.356667,189.045553 171.732368,188.6311 172.306768,188.450644 C172.881168,188.270188 173.545571,188.357878 174,188.674122 C173.734499,188.250244 173.151589,187.984987 172.520041,188.000658 C171.888492,188.016329 171.330958,188.309885 171.104509,188.74597 C170.87806,189.182055 171.026674,189.675979 171.481828,190 C171.389247,189.844803 171.343998,189.676448 171.349293,189.506878 Z"  fill="#FFFFFF" fill-rule="nonzero" opacity="0.2"></path>
            <circle id="Oval" fill="url(#linearGradient-1)" fill-rule="nonzero" cx="177.5" cy="188.5" r="1.5"></circle>
            <circle id="Oval" fill="#FDD835" fill-rule="nonzero" cx="177.5" cy="189.5" r="1.5"></circle>
            <path d="M176.349293,189.506878 C176.356667,189.045553 176.732368,188.6311 177.306768,188.450644 C177.881168,188.270188 178.545571,188.357878 179,188.674122 C178.734499,188.250244 178.151589,187.984987 177.520041,188.000658 C176.888492,188.016329 176.330958,188.309885 176.104509,188.74597 C175.87806,189.182055 176.026674,189.675979 176.481828,190 C176.389247,189.844803 176.343998,189.676448 176.349293,189.506878 Z"  fill="#FFFFFF" fill-rule="nonzero" opacity="0.2"></path>
            <circle id="Oval" fill="url(#linearGradient-1)" fill-rule="nonzero" cx="164.5" cy="188.5" r="1.5"></circle>
            <circle id="Oval" fill="#FDD835" fill-rule="nonzero" cx="164.5" cy="189.5" r="1.5"></circle>
            <path d="M163.349293,189.506878 C163.356667,189.045553 163.732368,188.6311 164.306768,188.450644 C164.881168,188.270188 165.545571,188.357878 166,188.674122 C165.734499,188.250244 165.151589,187.984987 164.520041,188.000658 C163.888492,188.016329 163.330958,188.309885 163.104509,188.74597 C162.87806,189.182055 163.026674,189.675979 163.481828,190 C163.389247,189.844803 163.343998,189.676448 163.349293,189.506878 Z"  fill="#FFFFFF" fill-rule="nonzero" opacity="0.2"></path>
            <circle id="Oval" fill="url(#linearGradient-2)" fill-rule="nonzero" cx="170.5" cy="184.5" r="1.5"></circle>
            <circle id="Oval" fill="#FDD835" fill-rule="nonzero" cx="170.5" cy="185.5" r="1.5"></circle>
            <path d="M169.349293,185.506878 C169.356667,185.045553 169.732368,184.6311 170.306768,184.450644 C170.881168,184.270188 171.545571,184.357878 172,184.674122 C171.734499,184.250244 171.151589,183.984987 170.520041,184.000658 C169.888492,184.016329 169.330958,184.309885 169.104509,184.74597 C168.87806,185.182055 169.026674,185.675979 169.481828,186 C169.389247,185.844803 169.343998,185.676448 169.349293,185.506878 Z"  fill="#FFFFFF" fill-rule="nonzero" opacity="0.2"></path>
            <circle id="Oval" fill="url(#linearGradient-2)" fill-rule="nonzero" cx="179.5" cy="185.5" r="1.5"></circle>
            <circle id="Oval" fill="#FDD835" fill-rule="nonzero" cx="179.5" cy="185.5" r="1.5"></circle>
            <path d="M178.349293,185.506878 C178.356667,185.045553 178.732368,184.6311 179.306768,184.450644 C179.881168,184.270188 180.545571,184.357878 181,184.674122 C180.734499,184.250244 180.151589,183.984987 179.520041,184.000658 C178.888492,184.016329 178.330958,184.309885 178.104509,184.74597 C177.87806,185.182055 178.026674,185.675979 178.481828,186 C178.389247,185.844803 178.343998,185.676448 178.349293,185.506878 Z"  fill="#FFFFFF" fill-rule="nonzero" opacity="0.2"></path>
            <circle id="Oval" fill="url(#linearGradient-1)" fill-rule="nonzero" cx="177.5" cy="184.5" r="1.5"></circle>
            <circle id="Oval" fill="#FDD835" fill-rule="nonzero" cx="177.5" cy="184.5" r="1.5"></circle>
            <path d="M176.349293,184.506878 C176.356667,184.045553 176.732368,183.6311 177.306768,183.450644 C177.881168,183.270188 178.545571,183.357878 179,183.674122 C178.734499,183.250244 178.151589,182.984987 177.520041,183.000658 C176.888492,183.016329 176.330958,183.309885 176.104509,183.74597 C175.87806,184.182055 176.026674,184.675979 176.481828,185 C176.389247,184.844803 176.343998,184.676448 176.349293,184.506878 Z"  fill="#FFFFFF" fill-rule="nonzero" opacity="0.2"></path>
            <circle id="Oval" fill="url(#linearGradient-1)" fill-rule="nonzero" cx="178.5" cy="187.5" r="1.5"></circle>
            <circle id="Oval" fill="#FDD835" fill-rule="nonzero" cx="178.5" cy="187.5" r="1.5"></circle>
            <path d="M177.349293,187.506878 C177.356667,187.045553 177.732368,186.6311 178.306768,186.450644 C178.881168,186.270188 179.545571,186.357878 180,186.674122 C179.734499,186.250244 179.151589,185.984987 178.520041,186.000658 C177.888492,186.016329 177.330958,186.309885 177.104509,186.74597 C176.87806,187.182055 177.026674,187.675979 177.481828,188 C177.389247,187.844803 177.343998,187.676448 177.349293,187.506878 Z"  fill="#FFFFFF" fill-rule="nonzero" opacity="0.2"></path>
            <circle id="Oval" fill="url(#linearGradient-2)" fill-rule="nonzero" cx="174.5" cy="184.5" r="1.5"></circle>
            <circle id="Oval" fill="#FDD835" fill-rule="nonzero" cx="174.5" cy="185.5" r="1.5"></circle>
            <path d="M173.349293,185.506878 C173.356667,185.045553 173.732368,184.6311 174.306768,184.450644 C174.881168,184.270188 175.545571,184.357878 176,184.674122 C175.734499,184.250244 175.151589,183.984987 174.520041,184.000658 C173.888492,184.016329 173.330958,184.309885 173.104509,184.74597 C172.87806,185.182055 173.026674,185.675979 173.481828,186 C173.389247,185.844803 173.343998,185.676448 173.349293,185.506878 Z"  fill="#FFFFFF" fill-rule="nonzero" opacity="0.2"></path>
            <circle id="Oval" fill="url(#linearGradient-1)" fill-rule="nonzero" cx="174.5" cy="180.5" r="1.5"></circle>
            <circle id="Oval" fill="#FDD835" fill-rule="nonzero" cx="174.5" cy="180.5" r="1.5"></circle>
            <path d="M173.349293,180.506878 C173.356667,180.045553 173.732368,179.6311 174.306768,179.450644 C174.881168,179.270188 175.545571,179.357878 176,179.674122 C175.734499,179.250244 175.151589,178.984987 174.520041,179.000658 C173.888492,179.016329 173.330958,179.309885 173.104509,179.74597 C172.87806,180.182055 173.026674,180.675979 173.481828,181 C173.389247,180.844803 173.343998,180.676448 173.349293,180.506878 Z"  fill="#FFFFFF" fill-rule="nonzero" opacity="0.2"></path>
            <circle id="Oval" fill="url(#linearGradient-3)" fill-rule="nonzero" cx="181.5" cy="182.5" r="1.5"></circle>
            <circle id="Oval" fill="#FDD835" fill-rule="nonzero" cx="182.5" cy="182.5" r="1.5"></circle>
            <path d="M181.349293,182.506878 C181.356667,182.045553 181.732368,181.6311 182.306768,181.450644 C182.881168,181.270188 183.545571,181.357878 184,181.674122 C183.734499,181.250244 183.151589,180.984987 182.520041,181.000658 C181.888492,181.016329 181.330958,181.309885 181.104509,181.74597 C180.87806,182.182055 181.026674,182.675979 181.481828,183 C181.389247,182.844803 181.343998,182.676448 181.349293,182.506878 Z"  fill="#FFFFFF" fill-rule="nonzero" opacity="0.2"></path>
            <circle id="Oval" fill="url(#linearGradient-3)" fill-rule="nonzero" cx="181.5" cy="185.5" r="1.5"></circle>
            <circle id="Oval" fill="#FDD835" fill-rule="nonzero" cx="181.5" cy="185.5" r="1.5"></circle>
            <path d="M180.349293,185.506878 C180.356667,185.045553 180.732368,184.6311 181.306768,184.450644 C181.881168,184.270188 182.545571,184.357878 183,184.674122 C182.734499,184.250244 182.151589,183.984987 181.520041,184.000658 C180.888492,184.016329 180.330958,184.309885 180.104509,184.74597 C179.87806,185.182055 180.026674,185.675979 180.481828,186 C180.389247,185.844803 180.343998,185.676448 180.349293,185.506878 Z"  fill="#FFFFFF" fill-rule="nonzero" opacity="0.2"></path>
            <circle id="Oval" fill="url(#linearGradient-1)" fill-rule="nonzero" cx="184.5" cy="185.5" r="1.5"></circle>
            <circle id="Oval" fill="#FDD835" fill-rule="nonzero" cx="184.5" cy="185.5" r="1.5"></circle>
            <path d="M183.349293,185.506878 C183.356667,185.045553 183.732368,184.6311 184.306768,184.450644 C184.881168,184.270188 185.545571,184.357878 186,184.674122 C185.734499,184.250244 185.151589,183.984987 184.520041,184.000658 C183.888492,184.016329 183.330958,184.309885 183.104509,184.74597 C182.87806,185.182055 183.026674,185.675979 183.481828,186 C183.389247,185.844803 183.343998,185.676448 183.349293,185.506878 Z"  fill="#FFFFFF" fill-rule="nonzero" opacity="0.2"></path>
            <circle id="Oval" fill="url(#linearGradient-2)" fill-rule="nonzero" cx="183.5" cy="186.5" r="1.5"></circle>
            <circle id="Oval" fill="#FDD835" fill-rule="nonzero" cx="183.5" cy="186.5" r="1.5"></circle>
            <path d="M182.349293,186.506878 C182.356667,186.045553 182.732368,185.6311 183.306768,185.450644 C183.881168,185.270188 184.545571,185.357878 185,185.674122 C184.734499,185.250244 184.151589,184.984987 183.520041,185.000658 C182.888492,185.016329 182.330958,185.309885 182.104509,185.74597 C181.87806,186.182055 182.026674,186.675979 182.481828,187 C182.389247,186.844803 182.343998,186.676448 182.349293,186.506878 Z"  fill="#FFFFFF" fill-rule="nonzero" opacity="0.2"></path>
            <circle id="Oval" fill="url(#linearGradient-3)" fill-rule="nonzero" cx="172.5" cy="182.5" r="1.5"></circle>
            <circle id="Oval" fill="#FDD835" fill-rule="nonzero" cx="172.5" cy="182.5" r="1.5"></circle>
            <path d="M171.349293,182.506878 C171.356667,182.045553 171.732368,181.6311 172.306768,181.450644 C172.881168,181.270188 173.545571,181.357878 174,181.674122 C173.734499,181.250244 173.151589,180.984987 172.520041,181.000658 C171.888492,181.016329 171.330958,181.309885 171.104509,181.74597 C170.87806,182.182055 171.026674,182.675979 171.481828,183 C171.389247,182.844803 171.343998,182.676448 171.349293,182.506878 Z"  fill="#FFFFFF" fill-rule="nonzero" opacity="0.2"></path>
            <circle id="Oval" fill="url(#linearGradient-3)" fill-rule="nonzero" cx="170.5" cy="188.5" r="1.5"></circle>
            <circle id="Oval" fill="#FBC02D" fill-rule="nonzero" cx="170.5" cy="188.5" r="1.5"></circle>
            <path d="M169.349293,188.506878 C169.356667,188.045553 169.732368,187.6311 170.306768,187.450644 C170.881168,187.270188 171.545571,187.357878 172,187.674122 C171.734499,187.250244 171.151589,186.984987 170.520041,187.000658 C169.888492,187.016329 169.330958,187.309885 169.104509,187.74597 C168.87806,188.182055 169.026674,188.675979 169.481828,189 C169.389247,188.844803 169.343998,188.676448 169.349293,188.506878 Z"  fill="#FFFFFF" fill-rule="nonzero" opacity="0.2"></path>
            <circle id="Oval" fill="url(#linearGradient-1)" fill-rule="nonzero" cx="166.5" cy="188.5" r="1.5"></circle>
            <circle id="Oval" fill="#FBC02D" fill-rule="nonzero" cx="166.5" cy="189.5" r="1.5"></circle>
            <path d="M165.349293,189.506878 C165.356667,189.045553 165.732368,188.6311 166.306768,188.450644 C166.881168,188.270188 167.545571,188.357878 168,188.674122 C167.734499,188.250244 167.151589,187.984987 166.520041,188.000658 C165.888492,188.016329 165.330958,188.309885 165.104509,188.74597 C164.87806,189.182055 165.026674,189.675979 165.481828,190 C165.389247,189.844803 165.343998,189.676448 165.349293,189.506878 Z"  fill="#FFFFFF" fill-rule="nonzero" opacity="0.2"></path>
            <circle id="Oval" fill="url(#linearGradient-1)" fill-rule="nonzero" cx="168.5" cy="187.5" r="1.5"></circle>
            <circle id="Oval" fill="#FBC02D" fill-rule="nonzero" cx="168.5" cy="188.5" r="1.5"></circle>
            <path d="M167.349293,188.506878 C167.356667,188.045553 167.732368,187.6311 168.306768,187.450644 C168.881168,187.270188 169.545571,187.357878 170,187.674122 C169.734499,187.250244 169.151589,186.984987 168.520041,187.000658 C167.888492,187.016329 167.330958,187.309885 167.104509,187.74597 C166.87806,188.182055 167.026674,188.675979 167.481828,189 C167.389247,188.844803 167.343998,188.676448 167.349293,188.506878 Z"  fill="#FFFFFF" fill-rule="nonzero" opacity="0.2"></path>
            <circle id="Oval" fill="url(#linearGradient-1)" fill-rule="nonzero" cx="176.5" cy="186.5" r="1.5"></circle>
            <circle id="Oval" fill="#FBC02D" fill-rule="nonzero" cx="176.5" cy="186.5" r="1.5"></circle>
            <path d="M175.349293,186.506878 C175.356667,186.045553 175.732368,185.6311 176.306768,185.450644 C176.881168,185.270188 177.545571,185.357878 178,185.674122 C177.734499,185.250244 177.151589,184.984987 176.520041,185.000658 C175.888492,185.016329 175.330958,185.309885 175.104509,185.74597 C174.87806,186.182055 175.026674,186.675979 175.481828,187 C175.389247,186.844803 175.343998,186.676448 175.349293,186.506878 Z"  fill="#FFFFFF" fill-rule="nonzero" opacity="0.2"></path>
            <circle id="Oval" fill="url(#linearGradient-3)" fill-rule="nonzero" cx="176.5" cy="182.5" r="1.5"></circle>
            <circle id="Oval" fill="#FBC02D" fill-rule="nonzero" cx="176.5" cy="182.5" r="1.5"></circle>
            <path d="M175.349293,182.506878 C175.356667,182.045553 175.732368,181.6311 176.306768,181.450644 C176.881168,181.270188 177.545571,181.357878 178,181.674122 C177.734499,181.250244 177.151589,180.984987 176.520041,181.000658 C175.888492,181.016329 175.330958,181.309885 175.104509,181.74597 C174.87806,182.182055 175.026674,182.675979 175.481828,183 C175.389247,182.844803 175.343998,182.676448 175.349293,182.506878 Z"  fill="#FFFFFF" fill-rule="nonzero" opacity="0.2"></path>
            <circle id="Oval" fill="url(#linearGradient-3)" fill-rule="nonzero" cx="177.5" cy="185.5" r="1.5"></circle>
            <circle id="Oval" fill="#FBC02D" fill-rule="nonzero" cx="178.5" cy="185.5" r="1.5"></circle>
            <path d="M177.349293,185.506878 C177.356667,185.045553 177.732368,184.6311 178.306768,184.450644 C178.881168,184.270188 179.545571,184.357878 180,184.674122 C179.734499,184.250244 179.151589,183.984987 178.520041,184.000658 C177.888492,184.016329 177.330958,184.309885 177.104509,184.74597 C176.87806,185.182055 177.026674,185.675979 177.481828,186 C177.389247,185.844803 177.343998,185.676448 177.349293,185.506878 Z"  fill="#FFFFFF" fill-rule="nonzero" opacity="0.2"></path>
            <circle id="Oval" fill="url(#linearGradient-1)" fill-rule="nonzero" cx="176.5" cy="179.5" r="1.5"></circle>
            <circle id="Oval" fill="#FBC02D" fill-rule="nonzero" cx="176.5" cy="179.5" r="1.5"></circle>
            <path d="M175.349293,179.506878 C175.356667,179.045553 175.732368,178.6311 176.306768,178.450644 C176.881168,178.270188 177.545571,178.357878 178,178.674122 C177.734499,178.250244 177.151589,177.984987 176.520041,178.000658 C175.888492,178.016329 175.330958,178.309885 175.104509,178.74597 C174.87806,179.182055 175.026674,179.675979 175.481828,180 C175.389247,179.844803 175.343998,179.676448 175.349293,179.506878 Z"  fill="#FFFFFF" fill-rule="nonzero" opacity="0.2"></path>
            <circle id="Oval" fill="url(#linearGradient-3)" fill-rule="nonzero" cx="176.5" cy="180.5" r="1.5"></circle>
            <circle id="Oval" fill="#FBC02D" fill-rule="nonzero" cx="176.5" cy="181.5" r="1.5"></circle>
            <path d="M175.349293,181.506878 C175.356667,181.045553 175.732368,180.6311 176.306768,180.450644 C176.881168,180.270188 177.545571,180.357878 178,180.674122 C177.734499,180.250244 177.151589,179.984987 176.520041,180.000658 C175.888492,180.016329 175.330958,180.309885 175.104509,180.74597 C174.87806,181.182055 175.026674,181.675979 175.481828,182 C175.389247,181.844803 175.343998,181.676448 175.349293,181.506878 Z"  fill="#FFFFFF" fill-rule="nonzero" opacity="0.2"></path>
            <circle id="Oval" fill="url(#linearGradient-3)" fill-rule="nonzero" cx="178.5" cy="181.5" r="1.5"></circle>
            <circle id="Oval" fill="#FBC02D" fill-rule="nonzero" cx="178.5" cy="182.5" r="1.5"></circle>
            <path d="M177.349293,182.506878 C177.356667,182.045553 177.732368,181.6311 178.306768,181.450644 C178.881168,181.270188 179.545571,181.357878 180,181.674122 C179.734499,181.250244 179.151589,180.984987 178.520041,181.000658 C177.888492,181.016329 177.330958,181.309885 177.104509,181.74597 C176.87806,182.182055 177.026674,182.675979 177.481828,183 C177.389247,182.844803 177.343998,182.676448 177.349293,182.506878 Z"  fill="#FFFFFF" fill-rule="nonzero" opacity="0.2"></path>
            <circle id="Oval" fill="url(#linearGradient-1)" fill-rule="nonzero" cx="180.5" cy="181.5" r="1.5"></circle>
            <circle id="Oval" fill="#FBC02D" fill-rule="nonzero" cx="180.5" cy="181.5" r="1.5"></circle>
            <path d="M179.36565,181.514377 C179.372979,181.060068 179.746362,180.651918 180.317217,180.474207 C180.888072,180.296496 181.548375,180.382852 182,180.694286 C181.747729,180.262697 181.161312,179.987658 180.520604,180.000426 C179.879897,180.013194 179.314763,180.311182 179.094902,180.75218 C178.875042,181.193178 179.045016,181.687801 179.523711,182 C179.422622,181.848685 179.368638,181.682824 179.36565,181.514377 Z"  fill="#FFFFFF" fill-rule="nonzero" opacity="0.2"></path>
            <circle id="Oval" fill="url(#linearGradient-3)" fill-rule="nonzero" cx="180.5" cy="183.5" r="1.5"></circle>
            <circle id="Oval" fill="#FBC02D" fill-rule="nonzero" cx="180.5" cy="183.5" r="1.5"></circle>
            <path d="M179.349293,183.506878 C179.356667,183.045553 179.732368,182.6311 180.306768,182.450644 C180.881168,182.270188 181.545571,182.357878 182,182.674122 C181.734499,182.250244 181.151589,181.984987 180.520041,182.000658 C179.888492,182.016329 179.330958,182.309885 179.104509,182.74597 C178.87806,183.182055 179.026674,183.675979 179.481828,184 C179.389247,183.844803 179.343998,183.676448 179.349293,183.506878 Z"  fill="#FFFFFF" fill-rule="nonzero" opacity="0.2"></path>
            <circle id="Oval" fill="url(#linearGradient-2)" fill-rule="nonzero" cx="173.5" cy="181.5" r="1.5"></circle>
            <circle id="Oval" fill="#FBC02D" fill-rule="nonzero" cx="173.5" cy="181.5" r="1.5"></circle>
            <path d="M172.349293,181.506878 C172.356667,181.045553 172.732368,180.6311 173.306768,180.450644 C173.881168,180.270188 174.545571,180.357878 175,180.674122 C174.734499,180.250244 174.151589,179.984987 173.520041,180.000658 C172.888492,180.016329 172.330958,180.309885 172.104509,180.74597 C171.87806,181.182055 172.026674,181.675979 172.481828,182 C172.389247,181.844803 172.343998,181.676448 172.349293,181.506878 Z"  fill="#FFFFFF" fill-rule="nonzero" opacity="0.2"></path>
            <circle id="Oval" fill="url(#linearGradient-3)" fill-rule="nonzero" cx="168.5" cy="186.5" r="1.5"></circle>
            <circle id="Oval" fill="#FBC02D" fill-rule="nonzero" cx="168.5" cy="186.5" r="1.5"></circle>
            <path d="M167.349293,186.506878 C167.356667,186.045553 167.732368,185.6311 168.306768,185.450644 C168.881168,185.270188 169.545571,185.357878 170,185.674122 C169.734499,185.250244 169.151589,184.984987 168.520041,185.000658 C167.888492,185.016329 167.330958,185.309885 167.104509,185.74597 C166.87806,186.182055 167.026674,186.675979 167.481828,187 C167.389247,186.844803 167.343998,186.676448 167.349293,186.506878 Z"  fill="#FFFFFF" fill-rule="nonzero" opacity="0.2"></path>
            <circle id="Oval" fill="url(#linearGradient-1)" fill-rule="nonzero" cx="171.5" cy="183.5" r="1.5"></circle>
            <circle id="Oval" fill="#FBC02D" fill-rule="nonzero" cx="171.5" cy="183.5" r="1.5"></circle>
            <path d="M170.349293,183.506878 C170.356667,183.045553 170.732368,182.6311 171.306768,182.450644 C171.881168,182.270188 172.545571,182.357878 173,182.674122 C172.734499,182.250244 172.151589,181.984987 171.520041,182.000658 C170.888492,182.016329 170.330958,182.309885 170.104509,182.74597 C169.87806,183.182055 170.026674,183.675979 170.481828,184 C170.389247,183.844803 170.343998,183.676448 170.349293,183.506878 Z"  fill="#FFFFFF" fill-rule="nonzero" opacity="0.2"></path>
            <circle id="Oval" fill="url(#linearGradient-2)" fill-rule="nonzero" cx="165.5" cy="187.5" r="1.5"></circle>
            <circle id="Oval" fill="#FBC02D" fill-rule="nonzero" cx="165.5" cy="188.5" r="1.5"></circle>
            <path d="M165.349293,188.506878 C165.356667,188.045553 165.732368,187.6311 166.306768,187.450644 C166.881168,187.270188 167.545571,187.357878 168,187.674122 C167.734499,187.250244 167.151589,186.984987 166.520041,187.000658 C165.888492,187.016329 165.330958,187.309885 165.104509,187.74597 C164.87806,188.182055 165.026674,188.675979 165.481828,189 C165.389247,188.844803 165.343998,188.676448 165.349293,188.506878 Z"  fill="#FFFFFF" fill-rule="nonzero" opacity="0.2"></path>
            <circle id="Oval" fill="url(#linearGradient-3)" fill-rule="nonzero" cx="181.5" cy="186.5" r="1.5"></circle>
            <circle id="Oval" fill="#FBC02D" fill-rule="nonzero" cx="181.5" cy="186.5" r="1.5"></circle>
            <path d="M180.349293,186.506878 C180.356667,186.045553 180.732368,185.6311 181.306768,185.450644 C181.881168,185.270188 182.545571,185.357878 183,185.674122 C182.734499,185.250244 182.151589,184.984987 181.520041,185.000658 C180.888492,185.016329 180.330958,185.309885 180.104509,185.74597 C179.87806,186.182055 180.026674,186.675979 180.481828,187 C180.389247,186.844803 180.343998,186.676448 180.349293,186.506878 Z"  fill="#FFFFFF" fill-rule="nonzero" opacity="0.2"></path>
            <circle id="Oval" fill="url(#linearGradient-2)" fill-rule="nonzero" cx="173.5" cy="177.5" r="1.5"></circle>
            <circle id="Oval" fill="#FBC02D" fill-rule="nonzero" cx="174.5" cy="177.5" r="1.5"></circle>
            <path d="M173.349293,177.506878 C173.356667,177.045553 173.732368,176.6311 174.306768,176.450644 C174.881168,176.270188 175.545571,176.357878 176,176.674122 C175.734499,176.250244 175.151589,175.984987 174.520041,176.000658 C173.888492,176.016329 173.330958,176.309885 173.104509,176.74597 C172.87806,177.182055 173.026674,177.675979 173.481828,178 C173.389247,177.844803 173.343998,177.676448 173.349293,177.506878 Z"  fill="#FFFFFF" fill-rule="nonzero" opacity="0.2"></path>
            <circle id="Oval" fill="url(#linearGradient-1)" fill-rule="nonzero" cx="171.5" cy="181.5" r="1.5"></circle>
            <circle id="Oval" fill="#FBC02D" fill-rule="nonzero" cx="171.5" cy="181.5" r="1.5"></circle>
            <path d="M170.349293,181.506878 C170.356667,181.045553 170.732368,180.6311 171.306768,180.450644 C171.881168,180.270188 172.545571,180.357878 173,180.674122 C172.734499,180.250244 172.151589,179.984987 171.520041,180.000658 C170.888492,180.016329 170.330958,180.309885 170.104509,180.74597 C169.87806,181.182055 170.026674,181.675979 170.481828,182 C170.389247,181.844803 170.343998,181.676448 170.349293,181.506878 Z"  fill="#FFFFFF" fill-rule="nonzero" opacity="0.2"></path>
            <circle id="Oval" fill="url(#linearGradient-1)" fill-rule="nonzero" cx="168.5" cy="184.5" r="1.5"></circle>
            <circle id="Oval" fill="#FBC02D" fill-rule="nonzero" cx="168.5" cy="184.5" r="1.5"></circle>
            <path d="M167.349293,184.506878 C167.356667,184.045553 167.732368,183.6311 168.306768,183.450644 C168.881168,183.270188 169.545571,183.357878 170,183.674122 C169.734499,183.250244 169.151589,182.984987 168.520041,183.000658 C167.888492,183.016329 167.330958,183.309885 167.104509,183.74597 C166.87806,184.182055 167.026674,184.675979 167.481828,185 C167.389247,184.844803 167.343998,184.676448 167.349293,184.506878 Z"  fill="#FFFFFF" fill-rule="nonzero" opacity="0.2"></path>
            <circle id="Oval" fill="url(#linearGradient-1)" fill-rule="nonzero" cx="170.5" cy="187.5" r="1.5"></circle>
            <circle id="Oval" fill="#FBC02D" fill-rule="nonzero" cx="170.5" cy="187.5" r="1.5"></circle>
            <path d="M169.349293,187.506878 C169.356667,187.045553 169.732368,186.6311 170.306768,186.450644 C170.881168,186.270188 171.545571,186.357878 172,186.674122 C171.734499,186.250244 171.151589,185.984987 170.520041,186.000658 C169.888492,186.016329 169.330958,186.309885 169.104509,186.74597 C168.87806,187.182055 169.026674,187.675979 169.481828,188 C169.389247,187.844803 169.343998,187.676448 169.349293,187.506878 Z"  fill="#FFFFFF" fill-rule="nonzero" opacity="0.2"></path>
            <circle id="Oval" fill="url(#linearGradient-1)" fill-rule="nonzero" cx="172.5" cy="185.5" r="1.5"></circle>
            <circle id="Oval" fill="#FBC02D" fill-rule="nonzero" cx="172.5" cy="185.5" r="1.5"></circle>
            <path d="M171.349293,185.506878 C171.356667,185.045553 171.732368,184.6311 172.306768,184.450644 C172.881168,184.270188 173.545571,184.357878 174,184.674122 C173.734499,184.250244 173.151589,183.984987 172.520041,184.000658 C171.888492,184.016329 171.330958,184.309885 171.104509,184.74597 C170.87806,185.182055 171.026674,185.675979 171.481828,186 C171.389247,185.844803 171.343998,185.676448 171.349293,185.506878 Z"  fill="#FFFFFF" fill-rule="nonzero" opacity="0.2"></path>
            <circle id="Oval" fill="url(#linearGradient-1)" fill-rule="nonzero" cx="173.5" cy="187.5" r="1.5"></circle>
            <circle id="Oval" fill="#FBC02D" fill-rule="nonzero" cx="174.5" cy="187.5" r="1.5"></circle>
            <path d="M173.349293,187.506878 C173.356667,187.045553 173.732368,186.6311 174.306768,186.450644 C174.881168,186.270188 175.545571,186.357878 176,186.674122 C175.734499,186.250244 175.151589,185.984987 174.520041,186.000658 C173.888492,186.016329 173.330958,186.309885 173.104509,186.74597 C172.87806,187.182055 173.026674,187.675979 173.481828,188 C173.389247,187.844803 173.343998,187.676448 173.349293,187.506878 Z"  fill="#FFFFFF" fill-rule="nonzero" opacity="0.2"></path>
            <circle id="Oval" fill="url(#linearGradient-1)" fill-rule="nonzero" cx="186.5" cy="188.5" r="1.5"></circle>
            <circle id="Oval" fill="#FBC02D" fill-rule="nonzero" cx="186.5" cy="189.5" r="1.5"></circle>
            <path d="M185.349293,189.506878 C185.356667,189.045553 185.732368,188.6311 186.306768,188.450644 C186.881168,188.270188 187.545571,188.357878 188,188.674122 C187.734499,188.250244 187.151589,187.984987 186.520041,188.000658 C185.888492,188.016329 185.330958,188.309885 185.104509,188.74597 C184.87806,189.182055 185.026674,189.675979 185.481828,190 C185.389247,189.844803 185.343998,189.676448 185.349293,189.506878 Z"  fill="#FFFFFF" fill-rule="nonzero" opacity="0.2"></path>
            <circle id="Oval" fill="url(#linearGradient-1)" fill-rule="nonzero" cx="183.5" cy="188.5" r="1.5"></circle>
            <circle id="Oval" fill="#FBC02D" fill-rule="nonzero" cx="184.5" cy="188.5" r="1.5"></circle>
            <path d="M183.349293,188.506878 C183.356667,188.045553 183.732368,187.6311 184.306768,187.450644 C184.881168,187.270188 185.545571,187.357878 186,187.674122 C185.734499,187.250244 185.151589,186.984987 184.520041,187.000658 C183.888492,187.016329 183.330958,187.309885 183.104509,187.74597 C182.87806,188.182055 183.026674,188.675979 183.481828,189 C183.389247,188.844803 183.343998,188.676448 183.349293,188.506878 Z"  fill="#FFFFFF" fill-rule="nonzero" opacity="0.2"></path>
            <circle id="Oval" fill="url(#linearGradient-3)" fill-rule="nonzero" cx="179.5" cy="188.5" r="1.5"></circle>
            <circle id="Oval" fill="#FBC02D" fill-rule="nonzero" cx="179.5" cy="188.5" r="1.5"></circle>
            <circle id="Oval" fill="#FBC02D" fill-rule="nonzero" cx="180.5" cy="187.5" r="1.5"></circle>
            <path d="M178.349293,188.506878 C178.356667,188.045553 178.732368,187.6311 179.306768,187.450644 C179.881168,187.270188 180.545571,187.357878 181,187.674122 C180.734499,187.250244 180.151589,186.984987 179.520041,187.000658 C178.888492,187.016329 178.330958,187.309885 178.104509,187.74597 C177.87806,188.182055 178.026674,188.675979 178.481828,189 C178.389247,188.844803 178.343998,188.676448 178.349293,188.506878 Z"  fill="#FFFFFF" fill-rule="nonzero" opacity="0.2"></path>
            <circle id="Oval" fill="url(#linearGradient-1)" fill-rule="nonzero" cx="174.5" cy="188.5" r="1.5"></circle>
            <circle id="Oval" fill="#FBC02D" fill-rule="nonzero" cx="174.5" cy="189.5" r="1.5"></circle>
            <path d="M173.349293,189.506878 C173.356667,189.045553 173.732368,188.6311 174.306768,188.450644 C174.881168,188.270188 175.545571,188.357878 176,188.674122 C175.734499,188.250244 175.151589,187.984987 174.520041,188.000658 C173.888492,188.016329 173.330958,188.309885 173.104509,188.74597 C172.87806,189.182055 173.026674,189.675979 173.481828,190 C173.389247,189.844803 173.343998,189.676448 173.349293,189.506878 Z"  fill="#FFFFFF" fill-rule="nonzero" opacity="0.2"></path>
            <circle id="Oval" fill="url(#linearGradient-2)" fill-rule="nonzero" cx="174.5" cy="182.5" r="1.5"></circle>
            <circle id="Oval" fill="#FDD835" fill-rule="nonzero" cx="174.5" cy="182.5" r="1.5"></circle>
            <path d="M173.349293,182.506878 C173.356667,182.045553 173.732368,181.6311 174.306768,181.450644 C174.881168,181.270188 175.545571,181.357878 176,181.674122 C175.734499,181.250244 175.151589,180.984987 174.520041,181.000658 C173.888492,181.016329 173.330958,181.309885 173.104509,181.74597 C172.87806,182.182055 173.026674,182.675979 173.481828,183 C173.389247,182.844803 173.343998,182.676448 173.349293,182.506878 Z"  fill="#FFFFFF" fill-rule="nonzero" opacity="0.2"></path>
            <circle id="Oval" fill="url(#linearGradient-2)" fill-rule="nonzero" cx="175.5" cy="184.5" r="1.5"></circle>
            <circle id="Oval" fill="#FDD835" fill-rule="nonzero" cx="176.5" cy="184.5" r="1.5"></circle>
            <path d="M175.349293,184.506878 C175.356667,184.045553 175.732368,183.6311 176.306768,183.450644 C176.881168,183.270188 177.545571,183.357878 178,183.674122 C177.734499,183.250244 177.151589,182.984987 176.520041,183.000658 C175.888492,183.016329 175.330958,183.309885 175.104509,183.74597 C174.87806,184.182055 175.026674,184.675979 175.481828,185 C175.389247,184.844803 175.343998,184.676448 175.349293,184.506878 Z"  fill="#FFFFFF" fill-rule="nonzero" opacity="0.2"></path>
            <circle id="Oval" fill="url(#linearGradient-3)" fill-rule="nonzero" cx="173.5" cy="179.5" r="1.5"></circle>
            <circle id="Oval" fill="#FDD835" fill-rule="nonzero" cx="173.5" cy="179.5" r="1.5"></circle>
            <path d="M172.349293,179.506878 C172.356667,179.045553 172.732368,178.6311 173.306768,178.450644 C173.881168,178.270188 174.545571,178.357878 175,178.674122 C174.734499,178.250244 174.151589,177.984987 173.520041,178.000658 C172.888492,178.016329 172.330958,178.309885 172.104509,178.74597 C171.87806,179.182055 172.026674,179.675979 172.481828,180 C172.389247,179.844803 172.343998,179.676448 172.349293,179.506878 Z"  fill="#FFFFFF" fill-rule="nonzero" opacity="0.2"></path>
            <circle id="Oval" fill="url(#linearGradient-2)" fill-rule="nonzero" cx="174.5" cy="179.5" r="1.5"></circle>
            <circle id="Oval" fill="#FDD835" fill-rule="nonzero" cx="175.5" cy="179.5" r="1.5"></circle>
            <path d="M174.349293,179.506878 C174.356667,179.045553 174.732368,178.6311 175.306768,178.450644 C175.881168,178.270188 176.545571,178.357878 177,178.674122 C176.734499,178.250244 176.151589,177.984987 175.520041,178.000658 C174.888492,178.016329 174.330958,178.309885 174.104509,178.74597 C173.87806,179.182055 174.026674,179.675979 174.481828,180 C174.389247,179.844803 174.343998,179.676448 174.349293,179.506878 Z"  fill="#FFFFFF" fill-rule="nonzero" opacity="0.2"></path>
            <circle id="Oval" fill="url(#linearGradient-3)" fill-rule="nonzero" cx="177.5" cy="180.5" r="1.5"></circle>
            <circle id="Oval" fill="#FDD835" fill-rule="nonzero" cx="178.5" cy="180.5" r="1.5"></circle>
            <path d="M177.349293,180.506878 C177.356667,180.045553 177.732368,179.6311 178.306768,179.450644 C178.881168,179.270188 179.545571,179.357878 180,179.674122 C179.734499,179.250244 179.151589,178.984987 178.520041,179.000658 C177.888492,179.016329 177.330958,179.309885 177.104509,179.74597 C176.87806,180.182055 177.026674,180.675979 177.481828,181 C177.389247,180.844803 177.343998,180.676448 177.349293,180.506878 Z"  fill="#FFFFFF" fill-rule="nonzero" opacity="0.2"></path>
            <circle id="Oval" fill="url(#linearGradient-2)" fill-rule="nonzero" cx="169.5" cy="183.5" r="1.5"></circle>
            <circle id="Oval" fill="#FDD835" fill-rule="nonzero" cx="170.5" cy="183.5" r="1.5"></circle>
            <path d="M169.349293,183.506878 C169.356667,183.045553 169.732368,182.6311 170.306768,182.450644 C170.881168,182.270188 171.545571,182.357878 172,182.674122 C171.734499,182.250244 171.151589,181.984987 170.520041,182.000658 C169.888492,182.016329 169.330958,182.309885 169.104509,182.74597 C168.87806,183.182055 169.026674,183.675979 169.481828,184 C169.389247,183.844803 169.343998,183.676448 169.349293,183.506878 Z"  fill="#FFFFFF" fill-rule="nonzero" opacity="0.2"></path>
            <circle id="Oval" fill="url(#linearGradient-2)" fill-rule="nonzero" cx="171.5" cy="185.5" r="1.5"></circle>
            <circle id="Oval" fill="#FDD835" fill-rule="nonzero" cx="171.5" cy="185.5" r="1.5"></circle>
            <path d="M170.349293,185.506878 C170.356667,185.045553 170.732368,184.6311 171.306768,184.450644 C171.881168,184.270188 172.545571,184.357878 173,184.674122 C172.734499,184.250244 172.151589,183.984987 171.520041,184.000658 C170.888492,184.016329 170.330958,184.309885 170.104509,184.74597 C169.87806,185.182055 170.026674,185.675979 170.481828,186 C170.389247,185.844803 170.343998,185.676448 170.349293,185.506878 Z"  fill="#FFFFFF" fill-rule="nonzero" opacity="0.2"></path>
            <circle id="Oval" fill="url(#linearGradient-3)" fill-rule="nonzero" cx="171.5" cy="187.5" r="1.5"></circle>
            <circle id="Oval" fill="#FDD835" fill-rule="nonzero" cx="172.5" cy="187.5" r="1.5"></circle>
            <path d="M171.349293,187.506878 C171.356667,187.045553 171.732368,186.6311 172.306768,186.450644 C172.881168,186.270188 173.545571,186.357878 174,186.674122 C173.734499,186.250244 173.151589,185.984987 172.520041,186.000658 C171.888492,186.016329 171.330958,186.309885 171.104509,186.74597 C170.87806,187.182055 171.026674,187.675979 171.481828,188 C171.389247,187.844803 171.343998,187.676448 171.349293,187.506878 Z"  fill="#FFFFFF" fill-rule="nonzero" opacity="0.2"></path>
            <circle id="Oval" fill="url(#linearGradient-2)" fill-rule="nonzero" cx="176.5" cy="186.5" r="1.5"></circle>
            <circle id="Oval" fill="#FDD835" fill-rule="nonzero" cx="176.5" cy="187.5" r="1.5"></circle>
            <path d="M175.349293,187.506878 C175.356667,187.045553 175.732368,186.6311 176.306768,186.450644 C176.881168,186.270188 177.545571,186.357878 178,186.674122 C177.734499,186.250244 177.151589,185.984987 176.520041,186.000658 C175.888492,186.016329 175.330958,186.309885 175.104509,186.74597 C174.87806,187.182055 175.026674,187.675979 175.481828,188 C175.389247,187.844803 175.343998,187.676448 175.349293,187.506878 Z"  fill="#FFFFFF" fill-rule="nonzero" opacity="0.2"></path>
            <circle id="Oval" fill="url(#linearGradient-2)" fill-rule="nonzero" cx="180.5" cy="185.5" r="1.5"></circle>
            <circle id="Oval" fill="#FDD835" fill-rule="nonzero" cx="181.5" cy="185.5" r="1.5"></circle>
            <path d="M180.349293,185.506878 C180.356667,185.045553 180.732368,184.6311 181.306768,184.450644 C181.881168,184.270188 182.545571,184.357878 183,184.674122 C182.734499,184.250244 182.151589,183.984987 181.520041,184.000658 C180.888492,184.016329 180.330958,184.309885 180.104509,184.74597 C179.87806,185.182055 180.026674,185.675979 180.481828,186 C180.389247,185.844803 180.343998,185.676448 180.349293,185.506878 Z"  fill="#FFFFFF" fill-rule="nonzero" opacity="0.2"></path>
            <circle id="Oval" fill="url(#linearGradient-2)" fill-rule="nonzero" cx="182.5" cy="184.5" r="1.5"></circle>
            <circle id="Oval" fill="#FDD835" fill-rule="nonzero" cx="182.5" cy="184.5" r="1.5"></circle>
            <circle id="Oval" fill="#FDD835" fill-rule="nonzero" cx="179.5" cy="184.5" r="1.5"></circle>
            <path d="M181.349293,184.506878 C181.356667,184.045553 181.732368,183.6311 182.306768,183.450644 C182.881168,183.270188 183.545571,183.357878 184,183.674122 C183.734499,183.250244 183.151589,182.984987 182.520041,183.000658 C181.888492,183.016329 181.330958,183.309885 181.104509,183.74597 C180.87806,184.182055 181.026674,184.675979 181.481828,185 C181.389247,184.844803 181.343998,184.676448 181.349293,184.506878 Z"  fill="#FFFFFF" fill-rule="nonzero" opacity="0.2"></path>
            <circle id="Oval" fill="url(#linearGradient-1)" fill-rule="nonzero" cx="184.5" cy="187.5" r="1.5"></circle>
            <circle id="Oval" fill="#FDD835" fill-rule="nonzero" cx="184.5" cy="187.5" r="1.5"></circle>
            <path d="M183.349293,187.506878 C183.356667,187.045553 183.732368,186.6311 184.306768,186.450644 C184.881168,186.270188 185.545571,186.357878 186,186.674122 C185.734499,186.250244 185.151589,185.984987 184.520041,186.000658 C183.888492,186.016329 183.330958,186.309885 183.104509,186.74597 C182.87806,187.182055 183.026674,187.675979 183.481828,188 C183.389247,187.844803 183.343998,187.676448 183.349293,187.506878 Z"  fill="#FFFFFF" fill-rule="nonzero" opacity="0.2"></path>
            <circle id="Oval" fill="url(#linearGradient-3)" fill-rule="nonzero" cx="177.5" cy="189.5" r="1.5"></circle>
            <circle id="Oval" fill="#FDD835" fill-rule="nonzero" cx="177.5" cy="189.5" r="1.5"></circle>
            <path d="M176.349293,189.506878 C176.356667,189.045553 176.732368,188.6311 177.306768,188.450644 C177.881168,188.270188 178.545571,188.357878 179,188.674122 C178.734499,188.250244 178.151589,187.984987 177.520041,188.000658 C176.888492,188.016329 176.330958,188.309885 176.104509,188.74597 C175.87806,189.182055 176.026674,189.675979 176.481828,190 C176.389247,189.844803 176.343998,189.676448 176.349293,189.506878 Z"  fill="#FFFFFF" fill-rule="nonzero" opacity="0.2"></path>
            <circle id="Oval" fill="url(#linearGradient-2)" fill-rule="nonzero" cx="169.5" cy="188.5" r="1.5"></circle>
            <circle id="Oval" fill="#FDD835" fill-rule="nonzero" cx="169.5" cy="188.5" r="1.5"></circle>
            <path d="M168.349293,188.506878 C168.356667,188.045553 168.732368,187.6311 169.306768,187.450644 C169.881168,187.270188 170.545571,187.357878 171,187.674122 C170.734499,187.250244 170.151589,186.984987 169.520041,187.000658 C168.888492,187.016329 168.330958,187.309885 168.104509,187.74597 C167.87806,188.182055 168.026674,188.675979 168.481828,189 C168.389247,188.844803 168.343998,188.676448 168.349293,188.506878 Z"  fill="#FFFFFF" fill-rule="nonzero" opacity="0.2"></path>
            <circle id="Oval" fill="url(#linearGradient-2)" fill-rule="nonzero" cx="166.5" cy="186.5" r="1.5"></circle>
            <circle id="Oval" fill="#FDD835" fill-rule="nonzero" cx="166.5" cy="186.5" r="1.5"></circle>
            <path d="M165.349293,186.506878 C165.356667,186.045553 165.732368,185.6311 166.306768,185.450644 C166.881168,185.270188 167.545571,185.357878 168,185.674122 C167.734499,185.250244 167.151589,184.984987 166.520041,185.000658 C165.888492,185.016329 165.330958,185.309885 165.104509,185.74597 C164.87806,186.182055 165.026674,186.675979 165.481828,187 C165.389247,186.844803 165.343998,186.676448 165.349293,186.506878 Z"  fill="#FFFFFF" fill-rule="nonzero" opacity="0.2"></path>
            <circle id="Oval" fill="url(#linearGradient-2)" fill-rule="nonzero" cx="169.5" cy="185.5" r="1.5"></circle>
            <circle id="Oval" fill="#FDD835" fill-rule="nonzero" cx="169.5" cy="185.5" r="1.5"></circle>
            <path d="M168.373917,185.530559 C168.381223,185.076347 168.753434,184.668285 169.322498,184.490612 C169.891562,184.312939 170.549793,184.399277 171,184.710644 C170.756571,184.274223 170.17369,183.992165 169.531777,184.000166 C168.889864,184.008167 168.320343,184.304588 168.097206,184.746823 C167.874069,185.189059 168.043,185.686567 168.522729,186 C168.428076,185.853118 168.377335,185.693049 168.373917,185.530559 Z"  fill="#FFFFFF" fill-rule="nonzero" opacity="0.2"></path>
            <circle id="Oval" fill="url(#linearGradient-2)" fill-rule="nonzero" cx="168.5" cy="182.5" r="1.5"></circle>
            <circle id="Oval" fill="#FDD835" fill-rule="nonzero" cx="168.5" cy="183.5" r="1.5"></circle>
            <path d="M167.349293,183.506878 C167.356667,183.045553 167.732368,182.6311 168.306768,182.450644 C168.881168,182.270188 169.545571,182.357878 170,182.674122 C169.734499,182.250244 169.151589,181.984987 168.520041,182.000658 C167.888492,182.016329 167.330958,182.309885 167.104509,182.74597 C166.87806,183.182055 167.026674,183.675979 167.481828,184 C167.389247,183.844803 167.343998,183.676448 167.349293,183.506878 Z"  fill="#FFFFFF" fill-rule="nonzero" opacity="0.2"></path>
            <circle id="Oval" fill="url(#linearGradient-3)" fill-rule="nonzero" cx="169.5" cy="180.5" r="1.5"></circle>
            <circle id="Oval" fill="#FDD835" fill-rule="nonzero" cx="169.5" cy="180.5" r="1.5"></circle>
            <path d="M168.349293,180.506878 C168.356667,180.045553 168.732368,179.6311 169.306768,179.450644 C169.881168,179.270188 170.545571,179.357878 171,179.674122 C170.734499,179.250244 170.151589,178.984987 169.520041,179.000658 C168.888492,179.016329 168.330958,179.309885 168.104509,179.74597 C167.87806,180.182055 168.026674,180.675979 168.481828,181 C168.389247,180.844803 168.343998,180.676448 168.349293,180.506878 Z"  fill="#FFFFFF" fill-rule="nonzero" opacity="0.2"></path>
            <circle id="Oval" fill="url(#linearGradient-1)" fill-rule="nonzero" cx="181.5" cy="188.5" r="1.5"></circle>
            <circle id="Oval" fill="#FDD835" fill-rule="nonzero" cx="182.5" cy="189.5" r="1.5"></circle>
            <path d="M181.349293,189.506878 C181.356667,189.045553 181.732368,188.6311 182.306768,188.450644 C182.881168,188.270188 183.545571,188.357878 184,188.674122 C183.734499,188.250244 183.151589,187.984987 182.520041,188.000658 C181.888492,188.016329 181.330958,188.309885 181.104509,188.74597 C180.87806,189.182055 181.026674,189.675979 181.481828,190 C181.389247,189.844803 181.343998,189.676448 181.349293,189.506878 Z"  fill="#FFFFFF" fill-rule="nonzero" opacity="0.2"></path>
            <polygon  fill="url(#linearGradient-4)" fill-rule="nonzero" points="184.409152 215 166.530283 215 162 189 189 189"></polygon>
            <polygon  fill="#FFFFFF" fill-rule="nonzero" points="184.577299 215 167.362227 215 163 189 189 189"></polygon>
            <polygon  fill="#0055FF" fill-rule="nonzero" points="163 189 167.624356 189 172 215 167.497892 215"></polygon>
            <polygon  fill="#0055FF" fill-rule="nonzero" points="189 189 184.407067 189 180 215 184.469022 215"></polygon>
            <rect id="Rectangle-path" fill="#0055FF" fill-rule="nonzero" x="173" y="189" width="4" height="26"></rect>
            <circle id="Oval" fill="url(#linearGradient-2)" fill-rule="nonzero" cx="167.5" cy="184.5" r="1.5"></circle>
            <circle id="Oval" fill="#FBC02D" fill-rule="nonzero" cx="167.5" cy="184.5" r="1.5"></circle>
            <path d="M166.349293,184.506878 C166.356667,184.045553 166.732368,183.6311 167.306768,183.450644 C167.881168,183.270188 168.545571,183.357878 169,183.674122 C168.734499,183.250244 168.151589,182.984987 167.520041,183.000658 C166.888492,183.016329 166.330958,183.309885 166.104509,183.74597 C165.87806,184.182055 166.026674,184.675979 166.481828,185 C166.389247,184.844803 166.343998,184.676448 166.349293,184.506878 Z"  fill="#FFFFFF" fill-rule="nonzero" opacity="0.2"></path>
            <circle id="Oval" fill="url(#linearGradient-1)" fill-rule="nonzero" cx="171.5" cy="180.5" r="1.5"></circle>
            <circle id="Oval" fill="#FBC02D" fill-rule="nonzero" cx="171.5" cy="180.5" r="1.5"></circle>
            <path d="M170.349293,180.506878 C170.356667,180.045553 170.732368,179.6311 171.306768,179.450644 C171.881168,179.270188 172.545571,179.357878 173,179.674122 C172.734499,179.250244 172.151589,178.984987 171.520041,179.000658 C170.888492,179.016329 170.330958,179.309885 170.104509,179.74597 C169.87806,180.182055 170.026674,180.675979 170.481828,181 C170.389247,180.844803 170.343998,180.676448 170.349293,180.506878 Z"  fill="#FFFFFF" fill-rule="nonzero" opacity="0.2"></path>
            <circle id="Oval" fill="url(#linearGradient-2)" fill-rule="nonzero" cx="165.5" cy="186.5" r="1.5"></circle>
            <circle id="Oval" fill="#FBC02D" fill-rule="nonzero" cx="165.5" cy="187.5" r="1.5"></circle>
            <path d="M164.349293,187.506878 C164.356667,187.045553 164.732368,186.6311 165.306768,186.450644 C165.881168,186.270188 166.545571,186.357878 167,186.674122 C166.734499,186.250244 166.151589,185.984987 165.520041,186.000658 C164.888492,186.016329 164.330958,186.309885 164.104509,186.74597 C163.87806,187.182055 164.026674,187.675979 164.481828,188 C164.389247,187.844803 164.343998,187.676448 164.349293,187.506878 Z"  fill="#FFFFFF" fill-rule="nonzero" opacity="0.2"></path>
            <circle id="Oval" fill="url(#linearGradient-3)" fill-rule="nonzero" cx="163.5" cy="176.5" r="1.5"></circle>
            <circle id="Oval" fill="#FBC02D" fill-rule="nonzero" cx="163.5" cy="176.5" r="1.5"></circle>
            <path d="M162.367979,176.515483 C162.375302,176.062209 162.748355,175.654989 163.318705,175.477682 C163.889056,175.300376 164.548775,175.386535 165,175.69726 C164.74974,175.264534 164.162763,174.988035 163.520641,175.000398 C162.878519,175.012761 162.312242,175.311465 162.09345,175.753222 C161.874659,176.194979 162.047986,176.689673 162.530287,177 C162.42777,176.849287 162.372331,176.683791 162.367979,176.515483 Z"  fill="#FFFFFF" fill-rule="nonzero" opacity="0.2"></path>
            <circle id="Oval" fill="url(#linearGradient-3)" fill-rule="nonzero" cx="170.5" cy="166.5" r="1.5"></circle>
            <circle id="Oval" fill="#FBC02D" fill-rule="nonzero" cx="170.5" cy="167.5" r="1.5"></circle>
            <path d="M169.349293,167.506878 C169.356667,167.045553 169.732368,166.6311 170.306768,166.450644 C170.881168,166.270188 171.545571,166.357878 172,166.674122 C171.734499,166.250244 171.151589,165.984987 170.520041,166.000658 C169.888492,166.016329 169.330958,166.309885 169.104509,166.74597 C168.87806,167.182055 169.026674,167.675979 169.481828,168 C169.389247,167.844803 169.343998,167.676448 169.349293,167.506878 Z"  fill="#FFFFFF" fill-rule="nonzero" opacity="0.2"></path>
            <circle id="Oval" fill="url(#linearGradient-1)" fill-rule="nonzero" cx="176.5" cy="159.5" r="1.5"></circle>
            <circle id="Oval" fill="#FDD835" fill-rule="nonzero" cx="176.5" cy="160.5" r="1.5"></circle>
            <path d="M175.349293,160.506878 C175.356667,160.045553 175.732368,159.6311 176.306768,159.450644 C176.881168,159.270188 177.545571,159.357878 178,159.674122 C177.734499,159.250244 177.151589,158.984987 176.520041,159.000658 C175.888492,159.016329 175.330958,159.309885 175.104509,159.74597 C174.87806,160.182055 175.026674,160.675979 175.481828,161 C175.389247,160.844803 175.343998,160.676448 175.349293,160.506878 Z"  fill="#FFFFFF" fill-rule="nonzero" opacity="0.2"></path>
            <circle id="Oval" fill="url(#linearGradient-1)" fill-rule="nonzero" cx="187.5" cy="174.5" r="1.5"></circle>
            <circle id="Oval" fill="#FDD835" fill-rule="nonzero" cx="187.5" cy="175.5" r="1.5"></circle>
            <path d="M186.349293,175.506878 C186.356667,175.045553 186.732368,174.6311 187.306768,174.450644 C187.881168,174.270188 188.545571,174.357878 189,174.674122 C188.734499,174.250244 188.151589,173.984987 187.520041,174.000658 C186.888492,174.016329 186.330958,174.309885 186.104509,174.74597 C185.87806,175.182055 186.026674,175.675979 186.481828,176 C186.389247,175.844803 186.343998,175.676448 186.349293,175.506878 Z"  fill="#FFFFFF" fill-rule="nonzero" opacity="0.2"></path>
            <circle id="Oval" fill="url(#linearGradient-2)" fill-rule="nonzero" cx="196.5" cy="186.5" r="1.5"></circle>
            <circle id="Oval" fill="#FDD835" fill-rule="nonzero" cx="196.5" cy="186.5" r="1.5"></circle>
            <path d="M195.349293,186.506878 C195.356667,186.045553 195.732368,185.6311 196.306768,185.450644 C196.881168,185.270188 197.545571,185.357878 198,185.674122 C197.734499,185.250244 197.151589,184.984987 196.520041,185.000658 C195.888492,185.016329 195.330958,185.309885 195.104509,185.74597 C194.87806,186.182055 195.026674,186.675979 195.481828,187 C195.389247,186.844803 195.343998,186.676448 195.349293,186.506878 Z"  fill="#FFFFFF" fill-rule="nonzero" opacity="0.2"></path>
            <circle id="Oval" fill="url(#linearGradient-2)" fill-rule="nonzero" cx="163.5" cy="214.5" r="1.5"></circle>
            <circle id="Oval" fill="#FBC02D" fill-rule="nonzero" cx="163.5" cy="214.5" r="1.5"></circle>
            <path d="M162.349293,214.506878 C162.356667,214.045553 162.732368,213.6311 163.306768,213.450644 C163.881168,213.270188 164.545571,213.357878 165,213.674122 C164.734499,213.250244 164.151589,212.984987 163.520041,213.000658 C162.888492,213.016329 162.330958,213.309885 162.104509,213.74597 C161.87806,214.182055 162.026674,214.675979 162.481828,215 C162.389247,214.844803 162.343998,214.676448 162.349293,214.506878 Z"  fill="#FFFFFF" fill-rule="nonzero" opacity="0.2"></path>
            <circle id="Oval" fill="url(#linearGradient-2)" fill-rule="nonzero" cx="161.5" cy="211.5" r="1.5"></circle>
            <circle id="Oval" fill="#FDD835" fill-rule="nonzero" cx="161.5" cy="211.5" r="1.5"></circle>
            <path d="M160.349293,211.506878 C160.356667,211.045553 160.732368,210.6311 161.306768,210.450644 C161.881168,210.270188 162.545571,210.357878 163,210.674122 C162.734499,210.250244 162.151589,209.984987 161.520041,210.000658 C160.888492,210.016329 160.330958,210.309885 160.104509,210.74597 C159.87806,211.182055 160.026674,211.675979 160.481828,212 C160.389247,211.844803 160.343998,211.676448 160.349293,211.506878 Z"  fill="#FFFFFF" fill-rule="nonzero" opacity="0.2"></path>
            <circle id="Oval" fill="url(#linearGradient-2)" fill-rule="nonzero" cx="159.5" cy="195.5" r="1.5"></circle>
            <circle id="Oval" fill="#FBC02D" fill-rule="nonzero" cx="159.5" cy="195.5" r="1.5"></circle>
            <path d="M158.349293,195.506878 C158.356667,195.045553 158.732368,194.6311 159.306768,194.450644 C159.881168,194.270188 160.545571,194.357878 161,194.674122 C160.734499,194.250244 160.151589,193.984987 159.520041,194.000658 C158.888492,194.016329 158.330958,194.309885 158.104509,194.74597 C157.87806,195.182055 158.026674,195.675979 158.481828,196 C158.389247,195.844803 158.343998,195.676448 158.349293,195.506878 Z"  fill="#FFFFFF" fill-rule="nonzero" opacity="0.2"></path>
            <circle id="Oval" fill="url(#linearGradient-3)" fill-rule="nonzero" cx="189.5" cy="212.5" r="1.5"></circle>
            <circle id="Oval" fill="#FBC02D" fill-rule="nonzero" cx="190.5" cy="212.5" r="1.5"></circle>
            <path d="M189.349293,212.506878 C189.356667,212.045553 189.732368,211.6311 190.306768,211.450644 C190.881168,211.270188 191.545571,211.357878 192,211.674122 C191.734499,211.250244 191.151589,210.984987 190.520041,211.000658 C189.888492,211.016329 189.330958,211.309885 189.104509,211.74597 C188.87806,212.182055 189.026674,212.675979 189.481828,213 C189.389247,212.844803 189.343998,212.676448 189.349293,212.506878 Z"  fill="#FFFFFF" fill-rule="nonzero" opacity="0.2"></path>
            <circle id="Oval" fill="url(#linearGradient-2)" fill-rule="nonzero" cx="192.5" cy="210.5" r="1.5"></circle>
            <circle id="Oval" fill="#FBC02D" fill-rule="nonzero" cx="192.5" cy="211.5" r="1.5"></circle>
            <path d="M191.349293,211.506878 C191.356667,211.045553 191.732368,210.6311 192.306768,210.450644 C192.881168,210.270188 193.545571,210.357878 194,210.674122 C193.734499,210.250244 193.151589,209.984987 192.520041,210.000658 C191.888492,210.016329 191.330958,210.309885 191.104509,210.74597 C190.87806,211.182055 191.026674,211.675979 191.481828,212 C191.389247,211.844803 191.343998,211.676448 191.349293,211.506878 Z"  fill="#FFFFFF" fill-rule="nonzero" opacity="0.2"></path>
            <circle id="Oval" fill="url(#linearGradient-3)" fill-rule="nonzero" cx="193.5" cy="213.5" r="1.5"></circle>
            <circle id="Oval" fill="#FDD835" fill-rule="nonzero" cx="193.5" cy="213.5" r="1.5"></circle>
            <path d="M192.349293,213.506878 C192.356667,213.045553 192.732368,212.6311 193.306768,212.450644 C193.881168,212.270188 194.545571,212.357878 195,212.674122 C194.734499,212.250244 194.151589,211.984987 193.520041,212.000658 C192.888492,212.016329 192.330958,212.309885 192.104509,212.74597 C191.87806,213.182055 192.026674,213.675979 192.481828,214 C192.389247,213.844803 192.343998,213.676448 192.349293,213.506878 Z"  fill="#FFFFFF" fill-rule="nonzero" opacity="0.2"></path>
            <circle id="Oval" fill="url(#linearGradient-3)" fill-rule="nonzero" cx="187.5" cy="213.5" r="1.5"></circle>
            <circle id="Oval" fill="#FDD835" fill-rule="nonzero" cx="187.5" cy="213.5" r="1.5"></circle>
            <path d="M186.349293,213.506878 C186.356667,213.045553 186.732368,212.6311 187.306768,212.450644 C187.881168,212.270188 188.545571,212.357878 189,212.674122 C188.734499,212.250244 188.151589,211.984987 187.520041,212.000658 C186.888492,212.016329 186.330958,212.309885 186.104509,212.74597 C185.87806,213.182055 186.026674,213.675979 186.481828,214 C186.389247,213.844803 186.343998,213.676448 186.349293,213.506878 Z"  fill="#FFFFFF" fill-rule="nonzero" opacity="0.2"></path>
            <g id="9" opacity="0.7" transform="translate(298.000000, 172.000000)" fill="#000000" font-family="Lato-Regular, Lato" font-size="39.81" font-weight="normal">
                <text>
                    <tspan x="0.344" y="39.3245833">9</tspan>
                </text>
            </g>
            <rect id="Rectangle-path" fill="#FDB797" fill-rule="nonzero" x="287" y="285" width="7" height="10"></rect>
            <rect id="Rectangle-path" fill="#FDB797" fill-rule="nonzero" x="311" y="285" width="7" height="10"></rect>
            <rect id="Rectangle-path" fill="#ADADAD" fill-rule="nonzero" x="280" y="206" width="47" height="17"></rect>
            <g id="Group" opacity="0.05" transform="translate(279.000000, 222.000000)" fill="#5D5F63" fill-rule="nonzero">
                <path d="M46.6255932,0.640232558 L0.242966102,0.640232558 L46.6255932,0.640232558 Z" id="Rectangle-path"></path>
            </g>
            <path d="M280,209.713244 C280,209.713244 297.542737,214 303.489906,214 C309.437076,214 327,209.691981 327,209.691981 L327,207 L280,207 L280,209.713244 Z"  fill="#000000" fill-rule="nonzero" opacity="0.1"></path>
            <path d="M327,208.961804 C327,208.961804 309.470815,213 303.491931,213 C297.513047,213 280,208.961804 280,208.961804 L280,181.196713 C280.008908,168.382946 290.523996,158.000002 303.491931,158.000005 C309.722379,157.995775 315.699345,160.43733 320.107964,164.787557 C324.516582,169.137784 326.995722,175.040334 327,181.196713 L327,208.961804 Z"  fill="#0055FF" fill-rule="nonzero"></path>
            <path d="M297,146 L308,146 L308,159.655036 C308,162.054693 306.05481,164 303.655296,164 L301.344704,164 C298.94519,164 297,162.054693 297,159.655036 L297,146 Z"  fill="#FDB797" fill-rule="nonzero"></path>
            <path d="M296.351187,288.659347 L284.177829,290.966695 C283.076036,291.168682 282.019919,290.431262 281.81254,289.315162 L269.114876,220.430647 C268.786515,218.65148 269.168648,216.812873 270.177147,215.31961 C271.185646,213.826346 272.737828,212.800853 274.491968,212.468899 L282.064837,211.033305 C283.166631,210.831318 284.222748,211.568738 284.430127,212.684838 L297.967468,286.264025 C298.164735,287.376393 297.444832,288.443288 296.351187,288.659347 Z"  fill="#ADADAD" fill-rule="nonzero"></path>
            <path d="M308.713377,288.659113 L321.265859,290.966691 C322.401232,291.168698 323.489535,290.431205 323.703235,289.314993 L336.893497,219.755714 C337.523922,216.421864 335.290998,213.215736 331.905002,212.593023 L323.418874,211.033309 C322.283502,210.831302 321.195198,211.568795 320.981499,212.685007 L307.031588,286.27155 C306.83401,287.386407 307.583545,288.450491 308.713377,288.659113 Z"  fill="#ADADAD" fill-rule="nonzero"></path>
            <path d="M297,154.292435 C300.612748,155.235855 304.387252,155.235855 308,154.292435 L308,146 L297,146 L297,154.292435 Z"  fill="#000000" fill-rule="nonzero" opacity="0.1"></path>
            <circle id="Oval" fill="#FFCF51" fill-rule="nonzero" cx="303.5" cy="125.5" r="24.5"></circle>
            <circle id="Oval" fill="#FDB797" fill-rule="nonzero" cx="303.5" cy="131.5" r="23.5"></circle>
            <ellipse id="Oval" fill="#FDB797" fill-rule="nonzero" cx="326" cy="131" rx="2" ry="4"></ellipse>
            <ellipse id="Oval" fill="#FDB797" fill-rule="nonzero" cx="280" cy="131" rx="2" ry="4"></ellipse>
            <path d="M288.86532,291 L292.130621,291 C295.37219,291 298,293.53845 298,296.669788 L298,299 L283,299 L283.000023,296.681617 C282.995685,295.17621 283.611719,293.731025 284.712146,292.66506 C285.812573,291.599094 287.306913,290.999994 288.86532,291 Z"  fill="#333333" fill-rule="nonzero"></path>
            <path d="M313.86532,291 L317.130621,291 C320.37219,291 323,293.53845 323,296.669788 L323,299 L308,299 L308.000023,296.681617 C307.995685,295.17621 308.611719,293.731025 309.712146,292.66506 C310.812573,291.599094 312.306913,290.999994 313.86532,291 Z"  fill="#333333" fill-rule="nonzero"></path>
            <path d="M282.072435,117.523363 C282.072435,117.523363 281.053283,124.040865 286.660633,120.5287 C292.267983,117.016535 311.635899,118.525142 317.762896,123.534037 C323.889893,128.542931 325.92014,124.535815 326.939292,123.534037 C327.958444,122.532258 315.901836,105.791068 309.094062,104.488359 C290.741269,100.980153 282.072435,117.523363 282.072435,117.523363 Z"  fill="#FFCF51" fill-rule="nonzero"></path>
            <path d="M283.727549,106.564629 C285.240461,104.67468 284.918818,101.59298 286.773228,100.06818 C289.262981,98.0377894 293.349035,100.505557 296.057187,98.7841387 C297.538332,97.8411705 298.082345,95.9752974 299.134633,94.5508136 C301.243179,91.7419724 305.730294,91.1360652 308.486097,93.3189361 C308.9997,93.7911284 309.540701,94.231962 310.106223,94.6390915 C312.210799,95.9351711 314.871301,94.8958999 317.253839,94.2699295 C318.772158,93.871182 320.331375,93.6530217 321.89979,93.6198834 C322.634663,93.5569429 323.372724,93.6955708 324.036133,94.0211464 C325.124159,94.6511294 325.505365,96.0716005 325.465656,97.3355791 C325.425947,98.5995577 325.068566,99.8514984 325.124159,101.11949 C325.103158,101.492972 325.235293,101.858711 325.489482,102.130672 C325.715983,102.279998 325.967666,102.386081 326.232039,102.443658 C327.256531,102.796769 327.9157,103.811965 328.320732,104.82716 C329.471677,107.78487 329.146683,111.121213 327.447134,113.795389 C327.082473,114.27647 326.779597,114.802298 326.54574,115.360315 C326.392363,115.957564 326.320224,116.573144 326.331312,117.190074 C326.216156,119.352882 325.30682,121.688233 323.36108,122.595087 C320.855444,123.766775 318.032135,122.145673 315.558266,120.901757 C309.943417,118.092916 303.613805,117.105809 297.375525,116.443725 C294.580234,116.109663 291.768022,115.940846 288.953251,115.938133 C286.860588,115.962209 284.029337,116.869064 282.035947,116.010361 C280.447588,115.324201 279.899604,113.791376 280.01476,112.130147 C280.225217,109.317293 282.18287,108.498717 283.727549,106.564629 Z"  fill="#FFCF51" fill-rule="nonzero"></path>
            <path d="M288.362175,163.08871 L275.942592,159.056452 L301,141.717742 L293.321117,131 C293.321117,131 273.723799,141.665323 257,156 C259.558281,171.322581 280.036649,181 280.036649,181 L288.362175,163.08871 Z"  fill="#0055FF" fill-rule="nonzero"></path>
            <path d="M318.637825,163.08871 L331.057408,159.056452 L306,141.717742 L313.678883,131 C313.678883,131 333.276201,141.665323 350,156 C347.441719,171.322581 326.963351,181 326.963351,181 L318.637825,163.08871 Z"  fill="#0055FF" fill-rule="nonzero"></path>
            <path d="M293,131.353445 C293,131.353445 305.483004,122.228971 308.48145,127.804593 C311.479896,133.380216 300.496115,142 300.496115,142 L293,131.353445 Z"  fill="#000000" fill-rule="nonzero" opacity="0.1"></path>
            <path d="M293,131.353445 C293,131.353445 305.483127,122.228971 308.481602,127.804593 C311.480077,133.380216 300.492243,142 300.492243,142 L293,131.353445 Z"  fill="#FDB797" fill-rule="nonzero"></path>
            <path d="M293,131.353445 C293,131.353445 305.483127,122.228971 308.481602,127.804593 C311.480077,133.380216 300.492243,142 300.492243,142 L293,131.353445 Z"  fill="#000000" fill-rule="nonzero" opacity="0.02"></path>
            <path d="M312,131.353445 C312,131.353445 299.516873,122.228971 296.518398,127.804593 C293.519923,133.380216 304.507757,142 304.507757,142 L312,131.353445 Z"  fill="#000000" fill-rule="nonzero" opacity="0.1"></path>
            <path d="M313,131.353445 C313,131.353445 300.516873,122.228971 297.518398,127.804593 C294.519923,133.380216 305.507757,142 305.507757,142 L313,131.353445 Z"  fill="#FDB797" fill-rule="nonzero"></path>
            <path d="M313,131.353445 C313,131.353445 300.516873,122.228971 297.518398,127.804593 C294.519923,133.380216 305.507757,142 305.507757,142 L313,131.353445 Z"  fill="#000000" fill-rule="nonzero" opacity="0.02"></path>
            <g id="f6e51fcf-3a26-4c81-b90c-a65f1d2dd7ad" transform="translate(264.000000, 166.000000)" fill="url(#linearGradient-5)" fill-rule="nonzero">
                <path d="M12.9878125,2.688 L11.968125,0.288 L1.1578125,4.66 C0.66866527,4.86526052 0.349610688,5.3364796 0.3453125,5.86 L0.3453125,17.36 L3.469375,17.716 L3.469375,6.748 L12.9878125,2.688 Z" ></path>
            </g>
            <path d="M276,168.818728 L275.268454,167 L265.731546,171.098147 C265.289461,171.286851 265.000375,171.736439 265,172.235854 L265,183 L266.884401,183 L266.884401,172.728593 L276,168.818728 Z" id="02e372b1-3203-4da5-9392-331bbc0e0a34" fill="#F2F2F2" fill-rule="nonzero"></path>
            <g id="Clipped" transform="translate(329.000000, 188.000000)">
                <g id="Group-Clipped">
                    <mask id="mask-7" fill="white">
                        <use xlink:href="#path-6"></use>
                    </mask>
                    <g id="path-6"></g>
                    <g id="Group" mask="url(#mask-7)">
                        <g transform="translate(-69.103448, -23.600000)">
                            <g>
                                <rect id="Rectangle-path" fill="#0055FF" fill-rule="nonzero" x="10.8124138" y="0.044" width="2.21793103" height="6.796"></rect>
                                <rect id="Rectangle-path" fill="#0055FF" fill-rule="nonzero" x="7.29931034" y="1.476" width="2.21793103" height="6.796"></rect>
                                <polygon  fill="#0055FF" fill-rule="nonzero" points="6.09931034 7.284 4.52689655 7.732 3.87724138 0.492 6.09931034 0.492"></polygon>
                                <rect id="Rectangle-path" fill="#0055FF" fill-rule="nonzero" transform="translate(3.875172, 9.164000) rotate(-90.000000) translate(-3.875172, -9.164000) " x="2.7662069" y="5.766" width="2.21793103" height="6.796"></rect>
                                <rect id="Rectangle-path" fill="#0055FF" fill-rule="nonzero" transform="translate(3.879310, 12.116000) rotate(-90.000000) translate(-3.879310, -12.116000) " x="2.77034483" y="8.718" width="2.21793103" height="6.796"></rect>
                                <rect id="Rectangle-path" fill="#0055FF" fill-rule="nonzero" transform="translate(3.879310, 15.064000) rotate(-90.000000) translate(-3.879310, -15.064000) " x="2.77034483" y="11.666" width="2.21793103" height="6.796"></rect>
                            </g>
                        </g>
                    </g>
                </g>
            </g>
            <polygon  fill="url(#linearGradient-8)" fill-rule="nonzero" points="278 181 254 181 254 184.737617 255.637004 184.737617 258.975365 215 273.31825 215 276.282554 184.56285 278 184.56285"></polygon>
            <polygon  fill="#0055FF" fill-rule="nonzero" points="273.169372 214 260.18248 214 257 182 276 182"></polygon>
            <rect id="Rectangle-path" fill="#0055FF" fill-rule="nonzero" x="255" y="182" width="22" height="2"></rect>
            <circle id="Oval" fill="url(#linearGradient-9)" fill-rule="nonzero" cx="266.5" cy="196.5" r="5.5"></circle>
            <circle id="Oval" fill="#FFFFFF" fill-rule="nonzero" cx="266" cy="197" r="5"></circle>
            <path d="M289.508503,36.0000077 L316,36 L316,79 L273,79 L273,52.5048142 C272.999998,48.1247097 274.739789,43.9242349 277.836191,40.8285257 C280.932594,37.7328163 285.131638,35.9957859 289.508503,36.0000077 Z"  fill="#24D272" fill-rule="nonzero" transform="translate(294.500000, 57.500000) rotate(-151.510000) translate(-294.500000, -57.500000) "></path>
            <path d="M314,41 L324,41 L324,49.7290363 C324,52.0878245 322.178609,54 319.931809,54 L318.068191,54 C315.821391,54 314,52.0878245 314,49.7290363 L314,41 Z"  fill="#24D272" fill-rule="nonzero" transform="translate(319.000000, 47.500000) rotate(-151.510000) translate(-319.000000, -47.500000) "></path>
            <path d="M307,33 L317,33 L317,41.7276995 C317,44.087226 315.178609,46 312.931809,46 L311.068191,46 C308.821391,46 307,44.087226 307,41.7276995 L307,33 Z"  fill="#24D272" fill-rule="nonzero" transform="translate(312.000000, 39.500000) rotate(-151.510000) translate(-312.000000, -39.500000) "></path>
            <path d="M300,25 L310,25 L310,34.1357947 C310,36.2699364 308.352075,38 306.319256,38 L303.680744,38 C301.647925,38 300,36.2699364 300,34.1357947 L300,25 Z"  fill="#24D272" fill-rule="nonzero" transform="translate(305.000000, 31.500000) rotate(-151.510000) translate(-305.000000, -31.500000) "></path>
            <path d="M292.413523,1.18619074 L304.969103,1.87888864 L305.062166,30.0404621 C305.062166,32.3300848 303.270621,34.1861907 301.060637,34.1861907 L298.19478,34.1861907 C295.00188,34.1861907 292.413523,31.5045596 292.413523,28.1965999 L292.413523,1.18619074 Z"  fill="#24D272" fill-rule="nonzero" transform="translate(298.737845, 17.686191) rotate(-151.510000) translate(-298.737845, -17.686191) "></path>
        </g>
    </g>
</svg>