<?xml version="1.0" encoding="utf-8"?>
<!-- Generator: Adobe Illustrator 24.0.2, SVG Export Plug-In . SVG Version: 6.00 Build 0)  -->
<svg version="1.1" id="Layer_1" xmlns="http://www.w3.org/2000/svg" xmlns:xlink="http://www.w3.org/1999/xlink" x="0px" y="0px"
	 viewBox="0 0 20 20" style="enable-background:new 0 0 20 20;" xml:space="preserve">
<style type="text/css">
	.st0{fill:#29A9E1;}
	.st1{fill:#FFFFFF;}
	.st2{fill:#3E5C9A;}
	.st3{fill:url(#XMLID_2_);}
	.st4{fill:#DF4B38;}
	.st5{fill:#36465D;}
	.st6{fill:#00AEF7;}
	.st7{fill:#CD2129;}
	.st8{fill:#0057FF;}
	.st9{fill:#117BB8;}
	.st10{fill:#1EB8EB;}
	.st11{fill:#EB4C89;}
	.st12{fill:#C3271A;}
</style>
<g id="XMLID_383_">
	
		<radialGradient id="XMLID_2_" cx="110.0872" cy="83.106" r="40.6758" gradientTransform="matrix(0.9091 0 0 0.9091 -100.5797 -55.4845)" gradientUnits="userSpaceOnUse">
		<stop  offset="0" style="stop-color:#F5EC53"/>
		<stop  offset="0.2412" style="stop-color:#E48244"/>
		<stop  offset="0.3974" style="stop-color:#D15767"/>
		<stop  offset="0.4888" style="stop-color:#C84278"/>
		<stop  offset="1" style="stop-color:#192CFA"/>
	</radialGradient>
	<path id="XMLID_392_" class="st3" d="M16.43,20H3.57C1.6,20,0,18.4,0,16.43V3.57C0,1.6,1.6,0,3.57,0h12.86C18.4,0,20,1.6,20,3.57
		v12.86C20,18.4,18.4,20,16.43,20z"/>
	<g id="XMLID_384_">
		<path id="XMLID_389_" class="st1" d="M10,5.5c1.46,0,1.64,0.01,2.22,0.03c0.53,0.02,0.82,0.11,1.02,0.19
			c0.26,0.1,0.44,0.22,0.63,0.41c0.19,0.19,0.31,0.37,0.41,0.63c0.08,0.19,0.16,0.48,0.19,1.02C14.49,8.36,14.5,8.54,14.5,10
			c0,1.46-0.01,1.64-0.03,2.22c-0.02,0.53-0.11,0.82-0.19,1.02c-0.1,0.26-0.22,0.44-0.41,0.63c-0.19,0.19-0.37,0.31-0.63,0.41
			c-0.19,0.08-0.48,0.16-1.02,0.19c-0.58,0.03-0.75,0.03-2.22,0.03s-1.64-0.01-2.22-0.03c-0.53-0.02-0.82-0.11-1.02-0.19
			c-0.26-0.1-0.44-0.22-0.63-0.41c-0.19-0.19-0.31-0.37-0.41-0.63c-0.08-0.19-0.16-0.48-0.19-1.02C5.51,11.64,5.5,11.46,5.5,10
			c0-1.46,0.01-1.64,0.03-2.22c0.02-0.53,0.11-0.82,0.19-1.02c0.1-0.26,0.22-0.44,0.41-0.63c0.19-0.19,0.37-0.31,0.63-0.41
			c0.19-0.08,0.48-0.16,1.02-0.19C8.36,5.51,8.54,5.5,10,5.5 M10,4.52c-1.49,0-1.68,0.01-2.26,0.03C7.16,4.58,6.76,4.67,6.41,4.8
			C6.05,4.94,5.74,5.13,5.44,5.44c-0.3,0.3-0.49,0.61-0.63,0.97C4.67,6.76,4.58,7.16,4.55,7.74C4.52,8.32,4.52,8.51,4.52,10
			c0,1.49,0.01,1.68,0.03,2.26c0.03,0.58,0.12,0.98,0.25,1.33c0.14,0.36,0.33,0.67,0.63,0.97c0.3,0.3,0.61,0.49,0.97,0.63
			c0.35,0.14,0.75,0.23,1.33,0.25c0.58,0.03,0.77,0.03,2.26,0.03s1.68-0.01,2.26-0.03c0.58-0.03,0.98-0.12,1.33-0.25
			c0.36-0.14,0.67-0.33,0.97-0.63c0.3-0.3,0.49-0.61,0.63-0.97c0.14-0.35,0.23-0.75,0.25-1.33c0.03-0.58,0.03-0.77,0.03-2.26
			c0-1.49-0.01-1.68-0.03-2.26c-0.03-0.58-0.12-0.98-0.25-1.33c-0.14-0.36-0.33-0.67-0.63-0.97c-0.3-0.3-0.61-0.49-0.97-0.63
			c-0.35-0.14-0.75-0.23-1.33-0.25C11.68,4.52,11.49,4.52,10,4.52"/>
		<path id="XMLID_386_" class="st1" d="M10,7.18c-1.55,0-2.82,1.26-2.82,2.82s1.26,2.82,2.82,2.82c1.56,0,2.82-1.26,2.82-2.82
			S11.56,7.18,10,7.18 M10,11.83c-1.01,0-1.83-0.82-1.83-1.83c0-1.01,0.82-1.83,1.83-1.83s1.83,0.82,1.83,1.83
			C11.83,11.01,11.01,11.83,10,11.83"/>
		<path id="XMLID_385_" class="st1" d="M13.58,7.07c0,0.36-0.29,0.66-0.66,0.66c-0.36,0-0.66-0.29-0.66-0.66s0.29-0.66,0.66-0.66
			C13.29,6.42,13.58,6.71,13.58,7.07"/>
	</g>
</g>
</svg>
