<?xml version="1.0" encoding="utf-8"?>
<!-- Generator: Adobe Illustrator 24.0.2, SVG Export Plug-In . SVG Version: 6.00 Build 0)  -->
<svg version="1.1" id="Layer_1" xmlns="http://www.w3.org/2000/svg" xmlns:xlink="http://www.w3.org/1999/xlink" x="0px" y="0px"
	 viewBox="0 0 20 20" style="enable-background:new 0 0 20 20;" xml:space="preserve">
<style type="text/css">
	.st0{fill:#29A9E1;}
	.st1{fill:#FFFFFF;}
	.st2{fill:#3E5C9A;}
	.st3{fill:url(#XMLID_2_);}
	.st4{fill:#DF4B38;}
	.st5{fill:#36465D;}
	.st6{fill:#00AEF7;}
	.st7{fill:#CD2129;}
	.st8{fill:#0057FF;}
	.st9{fill:#117BB8;}
	.st10{fill:#1EB8EB;}
	.st11{fill:#EB4C89;}
	.st12{fill:#C3271A;}
</style>
<g id="XMLID_342_">
	<path id="XMLID_348_" class="st9" d="M16.43,20H3.57C1.6,20,0,18.4,0,16.43V3.57C0,1.6,1.6,0,3.57,0h12.86C18.4,0,20,1.6,20,3.57
		v12.86C20,18.4,18.4,20,16.43,20z"/>
	<g id="XMLID_343_">
		<g id="XMLID_345_">
			<rect id="XMLID_347_" x="5.47" y="7.77" class="st1" width="2.07" height="6.69"/>
			<path id="XMLID_346_" class="st1" d="M6.49,6.9c0.68,0,1.22-0.55,1.22-1.23S7.17,4.43,6.49,4.43c-0.68,0-1.22,0.55-1.22,1.23
				S5.81,6.9,6.49,6.9z"/>
		</g>
		<path id="XMLID_344_" class="st1" d="M10.84,10.95c0-0.94,0.43-1.5,1.26-1.5c0.76,0,1.13,0.54,1.13,1.5c0,0.96,0,3.51,0,3.51h2.06
			c0,0,0-2.44,0-4.23c0-1.79-1.02-2.66-2.43-2.66c-1.42,0-2.01,1.1-2.01,1.1v-0.9H8.86v6.69h1.99
			C10.84,14.46,10.84,11.98,10.84,10.95z"/>
	</g>
</g>
</svg>
