<?xml version="1.0" encoding="utf-8"?>
<!-- Generator: Adobe Illustrator 24.0.2, SVG Export Plug-In . SVG Version: 6.00 Build 0)  -->
<svg version="1.1" id="Layer_1" xmlns="http://www.w3.org/2000/svg" xmlns:xlink="http://www.w3.org/1999/xlink" x="0px" y="0px"
	 viewBox="0 0 20 20" style="enable-background:new 0 0 20 20;" xml:space="preserve">
<style type="text/css">
	.st0{fill:#29A9E1;}
	.st1{fill:#FFFFFF;}
	.st2{fill:#3E5C9A;}
	.st3{fill:url(#XMLID_2_);}
	.st4{fill:#DF4B38;}
	.st5{fill:#36465D;}
	.st6{fill:#00AEF7;}
	.st7{fill:#CD2129;}
	.st8{fill:#0057FF;}
	.st9{fill:#117BB8;}
	.st10{fill:#1EB8EB;}
	.st11{fill:#EB4C89;}
	.st12{fill:#C3271A;}
</style>
<g id="XMLID_397_">
	<path id="XMLID_399_" class="st0" d="M16.43,20H3.57C1.6,20,0,18.4,0,16.43V3.57C0,1.6,1.6,0,3.57,0h12.86C18.4,0,20,1.6,20,3.57
		v12.86C20,18.4,18.4,20,16.43,20z"/>
	<path id="XMLID_398_" class="st1" d="M4.67,13.35c0.97,0.62,2.12,0.98,3.35,0.98c4.06,0,6.35-3.43,6.21-6.5
		c0.43-0.31,0.8-0.69,1.09-1.13c-0.39,0.17-0.81,0.29-1.26,0.34c0.45-0.27,0.8-0.7,0.96-1.21c-0.42,0.25-0.89,0.43-1.39,0.53
		c-0.4-0.42-0.97-0.69-1.6-0.69c-1.41,0-2.45,1.32-2.13,2.68C8.1,8.26,6.49,7.39,5.41,6.07c-0.57,0.98-0.3,2.27,0.68,2.92
		C5.73,8.98,5.39,8.88,5.1,8.72c-0.02,1.01,0.7,1.96,1.75,2.17c-0.31,0.08-0.64,0.1-0.99,0.04c0.28,0.87,1.09,1.5,2.04,1.52
		C6.99,13.16,5.83,13.48,4.67,13.35z"/>
</g>
</svg>
