<?xml version="1.0" encoding="utf-8"?>
<!-- Generator: Adobe Illustrator 24.0.2, SVG Export Plug-In . SVG Version: 6.00 Build 0)  -->
<svg version="1.1" id="Layer_1" xmlns="http://www.w3.org/2000/svg" xmlns:xlink="http://www.w3.org/1999/xlink" x="0px" y="0px"
	 viewBox="0 0 20 20" style="enable-background:new 0 0 20 20;" xml:space="preserve">
<style type="text/css">
	.st0{fill:#29A9E1;}
	.st1{fill:#FFFFFF;}
	.st2{fill:#3E5C9A;}
	.st3{fill:url(#XMLID_2_);}
	.st4{fill:#DF4B38;}
	.st5{fill:#36465D;}
	.st6{fill:#00AEF7;}
	.st7{fill:#CD2129;}
	.st8{fill:#0057FF;}
	.st9{fill:#117BB8;}
	.st10{fill:#1EB8EB;}
	.st11{fill:#EB4C89;}
	.st12{fill:#C3271A;}
</style>
<g id="XMLID_257_">
	<path id="XMLID_326_" class="st12" d="M16.43,20H3.57C1.6,20,0,18.4,0,16.43V3.57C0,1.6,1.6,0,3.57,0h12.86C18.4,0,20,1.6,20,3.57
		v12.86C20,18.4,18.4,20,16.43,20z"/>
	<g id="XMLID_322_">
		<path id="XMLID_324_" class="st1" d="M17.67,6.12c-0.18-0.69-0.73-1.24-1.42-1.42C15.01,4.36,10,4.36,10,4.36s-5.01,0-6.25,0.34
			C3.06,4.88,2.52,5.43,2.33,6.12C2,7.38,2,10,2,10s0,2.62,0.33,3.88c0.18,0.69,0.73,1.24,1.42,1.42C4.99,15.64,10,15.64,10,15.64
			s5.01,0,6.25-0.34c0.69-0.19,1.23-0.73,1.42-1.42C18,12.62,18,10,18,10S18,7.38,17.67,6.12z"/>
		<polygon id="XMLID_323_" class="st12" points="8.36,12.38 8.36,7.62 12.55,10 		"/>
	</g>
</g>
</svg>
