<?xml version="1.0" encoding="utf-8"?>
<!-- Generator: Adobe Illustrator 24.0.2, SVG Export Plug-In . SVG Version: 6.00 Build 0)  -->
<svg version="1.1" id="Layer_1" xmlns="http://www.w3.org/2000/svg" xmlns:xlink="http://www.w3.org/1999/xlink" x="0px" y="0px"
	 viewBox="0 0 30 30" style="enable-background:new 0 0 30 30;" xml:space="preserve">
<style type="text/css">
	.st0{opacity:0;fill:#FFFFFF;}
	.st1{fill:#3099f1;}
	.st2{fill:#6D6E71;stroke:#FFFFFF;stroke-width:0.25;stroke-miterlimit:10;}
</style>
<path class="st0" d="M1.25,0h27.5C29.44,0,30,0.56,30,1.25v27.5c0,0.69-0.56,1.25-1.25,1.25H1.25C0.56,30,0,29.44,0,28.75V1.25
	C0,0.56,0.56,0,1.25,0z"/>
<g>
	<g>
		<path class="st1" d="M25.71,21.78V20.8c0-0.68-0.45-1.26-1.07-1.45v-2.2c0,0,0,0,0,0v-0.63c0-0.84-0.68-1.52-1.52-1.52H22.5v-2.05
			c0-0.81-0.64-1.48-1.45-1.52c-0.11-1.14-0.73-1.74-1.05-1.98V8.17c0.24-0.06,0.47-0.19,0.65-0.37c0.27-0.27,0.42-0.63,0.42-1.01
			c0-0.38-0.15-0.74-0.43-1.03l-0.76-0.67c-0.14-0.12-0.34-0.12-0.47,0l-0.77,0.69c-0.27,0.27-0.42,0.63-0.42,1.01
			c0,0.38,0.15,0.74,0.42,1.01c0.18,0.18,0.41,0.31,0.65,0.37v1.28c-0.32,0.24-0.94,0.84-1.05,1.98h-1.82
			c-0.11-1.14-0.73-1.74-1.05-1.98V8.17c0.24-0.06,0.47-0.19,0.65-0.37c0.27-0.27,0.42-0.63,0.42-1.01c0-0.38-0.15-0.74-0.43-1.03
			l-0.76-0.67c-0.14-0.12-0.34-0.12-0.47,0l-0.77,0.69c-0.27,0.27-0.42,0.63-0.42,1.01c0,0.38,0.15,0.74,0.42,1.01
			c0.18,0.18,0.41,0.31,0.65,0.37v1.28c-0.32,0.24-0.94,0.84-1.05,1.98h-1.82c-0.11-1.14-0.73-1.74-1.05-1.98V8.17
			c0.24-0.06,0.47-0.19,0.65-0.37c0.27-0.27,0.42-0.63,0.42-1.01c0-0.38-0.15-0.74-0.43-1.03l-0.76-0.67
			c-0.14-0.12-0.34-0.12-0.47,0L9.35,5.78C9.08,6.05,8.93,6.4,8.93,6.79c0,0.38,0.15,0.74,0.42,1.01C9.53,7.98,9.75,8.11,10,8.17
			v1.28c-0.32,0.24-0.94,0.84-1.05,1.98c-0.8,0.04-1.45,0.7-1.45,1.52V15H6.88c-0.84,0-1.52,0.68-1.52,1.52v0.62c0,0,0,0,0,0v2.21
			c-0.62,0.19-1.07,0.77-1.07,1.45v0.98c0,0,0,0,0,0v2.86c0,0.2,0.16,0.36,0.36,0.36h20.71c0.2,0,0.36-0.16,0.36-0.36L25.71,21.78
			C25.71,21.79,25.71,21.79,25.71,21.78z M6.07,17.85c0.8,0.43,1.75,0.35,2.5-0.23c0.87,0.68,1.99,0.68,2.86,0
			c0.44,0.33,1.01,0.51,1.6,0.51c0.6,0,1.16-0.18,1.61-0.51c0.91,0.68,2.29,0.69,3.21,0.01c0.95,0.76,2.27,0.76,3.22,0
			c0.48,0.38,1.04,0.59,1.61,0.59c0.43,0,0.86-0.12,1.25-0.34v1.41H6.07V17.85z M18.93,6.79c0-0.19,0.07-0.37,0.19-0.49l0.52-0.46
			l0.5,0.45c0.14,0.14,0.21,0.31,0.21,0.51c0,0.19-0.07,0.37-0.21,0.5c-0.27,0.27-0.74,0.27-1.01,0C19,7.16,18.93,6.98,18.93,6.79z
			 M19.64,10.08c0.22,0.18,0.6,0.59,0.69,1.35h-1.39C19.04,10.68,19.42,10.26,19.64,10.08z M14.29,6.79c0-0.19,0.07-0.37,0.19-0.49
			L15,5.83l0.5,0.45c0.14,0.14,0.21,0.31,0.21,0.51c0,0.19-0.07,0.37-0.21,0.5c-0.27,0.27-0.74,0.27-1.01,0
			C14.36,7.16,14.29,6.98,14.29,6.79z M15,10.08c0.22,0.18,0.6,0.59,0.69,1.35h-1.39C14.4,10.68,14.78,10.26,15,10.08z M9.64,6.79
			c0-0.19,0.07-0.37,0.19-0.49l0.52-0.46l0.5,0.45c0.14,0.14,0.21,0.31,0.21,0.51c0,0.19-0.07,0.37-0.21,0.5
			c-0.27,0.27-0.74,0.27-1.01,0C9.72,7.16,9.64,6.98,9.64,6.79z M10.36,10.08c0.22,0.18,0.6,0.59,0.69,1.35H9.66
			C9.76,10.68,10.14,10.26,10.36,10.08z M9.02,12.14h0.27h2.14h2.5h2.14h2.5h2.14h0.27c0.44,0,0.8,0.36,0.8,0.8v0.12
			c-0.77,0.7-1.48,0.67-2.25-0.09c-0.14-0.14-0.37-0.14-0.5,0c-0.7,0.7-1.65,0.7-2.35,0c-0.14-0.14-0.37-0.14-0.5,0
			c-0.7,0.7-1.65,0.7-2.35,0c-0.14-0.14-0.37-0.14-0.5,0c-0.7,0.7-1.65,0.7-2.35,0c-0.14-0.14-0.37-0.14-0.5,0
			c-0.67,0.67-1.56,0.7-2.25,0.1v-0.12C8.21,12.5,8.58,12.14,9.02,12.14z M8.21,13.93c0.8,0.43,1.75,0.35,2.5-0.23
			c0.87,0.68,1.99,0.68,2.86,0c0.87,0.68,1.99,0.68,2.86,0c0.87,0.68,1.99,0.68,2.85,0c0.46,0.39,0.95,0.58,1.43,0.58
			c0.36,0,0.72-0.11,1.08-0.33V15H8.21V13.93z M6.88,15.71h0.98h14.29h0.98c0.44,0,0.8,0.36,0.8,0.8V17
			c-0.78,0.69-1.85,0.66-2.6-0.1c-0.14-0.14-0.37-0.14-0.5,0c-0.8,0.8-1.91,0.8-2.71,0c-0.14-0.14-0.37-0.14-0.5,0
			c-0.69,0.69-2.01,0.69-2.71-0.01c-0.14-0.14-0.37-0.14-0.5,0c-0.33,0.33-0.83,0.52-1.35,0.52c-0.53,0-1.02-0.19-1.35-0.52
			c-0.14-0.14-0.37-0.14-0.5,0c-0.7,0.7-1.65,0.7-2.35,0c-0.14-0.14-0.37-0.14-0.5,0c-0.67,0.67-1.56,0.7-2.25,0.1v-0.47
			C6.07,16.08,6.43,15.71,6.88,15.71z M5.8,20H24.2c0.44,0,0.8,0.36,0.8,0.8v0.83c-0.69,0.6-1.58,0.57-2.25-0.1
			c-0.14-0.14-0.37-0.14-0.5,0c-0.8,0.8-1.91,0.8-2.71,0c-0.14-0.14-0.37-0.14-0.5,0c-0.8,0.8-1.91,0.8-2.71,0
			c-0.14-0.14-0.37-0.14-0.5,0c-0.7,0.7-1.65,0.7-2.35,0c-0.14-0.14-0.37-0.14-0.5,0c-0.7,0.7-1.65,0.7-2.35,0
			c-0.14-0.14-0.37-0.14-0.5,0c-0.7,0.7-1.65,0.7-2.35,0c-0.14-0.14-0.37-0.14-0.5,0c-0.67,0.67-1.56,0.7-2.25,0.1V20.8
			C5,20.36,5.36,20,5.8,20z M5,24.29v-1.79c0.8,0.43,1.75,0.35,2.5-0.23c0.85,0.66,2.01,0.66,2.86,0c0.87,0.68,1.99,0.68,2.86,0
			c0.85,0.66,2.01,0.66,2.86,0c0.97,0.78,2.24,0.78,3.22,0c0.48,0.38,1.04,0.59,1.61,0.59c0.57,0,1.13-0.21,1.61-0.59
			c0.75,0.59,1.7,0.66,2.5,0.23v1.79H5z"/>
	</g>
</g>
</svg>
