<?xml version="1.0" encoding="utf-8"?>
<!-- Generator: Adobe Illustrator 24.0.2, SVG Export Plug-In . SVG Version: 6.00 Build 0)  -->
<svg version="1.1" id="Layer_1" xmlns="http://www.w3.org/2000/svg" xmlns:xlink="http://www.w3.org/1999/xlink" x="0px" y="0px"
	 viewBox="0 0 30 30" style="enable-background:new 0 0 30 30;" xml:space="preserve">
<style type="text/css">
	.st0{opacity:0;fill:#FFFFFF;}
	.st1{fill:#808285;}
	.st2{fill:#6D6E71;stroke:#FFFFFF;stroke-width:0.25;stroke-miterlimit:10;}
</style>
<path class="st0" d="M1.25,0h27.5C29.44,0,30,0.56,30,1.25v27.5c0,0.69-0.56,1.25-1.25,1.25H1.25C0.56,30,0,29.44,0,28.75V1.25
	C0,0.56,0.56,0,1.25,0z"/>
<g>
	<path class="st1" d="M13.97,22.81c-0.16-0.51-0.32-1.02-0.48-1.53c-0.93-2.92-1.87-5.83-2.8-8.75c-0.02-0.07-0.04-0.14-0.07-0.22
		c-0.09-0.28-0.03-0.51,0.26-0.61c0.3-0.1,0.5,0.05,0.6,0.35c0.43,1.36,0.86,2.71,1.3,4.07c0.72,2.24,1.43,4.47,2.15,6.71
		c0.01,0.03,0.04,0.06,0.06,0.09c0.13-0.08,0.12-0.22,0.16-0.33c0.8-2.5,1.6-5,2.4-7.49c0.32-1.01,0.65-2.02,0.97-3.03
		c0.12-0.36,0.42-0.5,0.69-0.34c0.21,0.13,0.26,0.33,0.18,0.56c-0.4,1.26-0.81,2.52-1.21,3.78c-0.71,2.24-1.42,4.47-2.15,6.76
		c0.17-0.03,0.24-0.14,0.32-0.22c1.98-1.92,3.94-3.84,5.93-5.74c0.22-0.21,0.24-0.4,0.16-0.66c-0.26-0.81-0.53-1.61-0.78-2.42
		c-0.15-0.47-0.06-0.64,0.4-0.8c0.59-0.21,1.18-0.42,1.77-0.62c0.2-0.07,0.27-0.16,0.23-0.38c-0.24-1.23-0.78-2.24-1.98-2.78
		c-0.27-0.12-0.39-0.33-0.27-0.61c0.12-0.28,0.35-0.33,0.63-0.22c1.09,0.47,1.79,1.29,2.22,2.37c0.21,0.54,0.32,1.1,0.36,1.68
		c0.03,0.33-0.11,0.51-0.42,0.61c-0.55,0.18-1.08,0.41-1.63,0.56c-0.34,0.1-0.35,0.24-0.25,0.53c0.26,0.75,0.47,1.52,0.73,2.28
		c0.11,0.32,0.03,0.54-0.2,0.77c-2.59,2.5-5.17,5.02-7.76,7.52c-0.38,0.37-0.55,0.37-0.94-0.02c-2.55-2.47-5.1-4.95-7.65-7.42
		c-0.28-0.27-0.36-0.54-0.24-0.94c0.25-0.78,0.43-1.59,0.75-2.35c0.08-0.2,0.01-0.31-0.18-0.36C6.56,13.49,5.95,13.22,5.33,13
		c-0.21-0.08-0.3-0.2-0.32-0.41C4.89,11.02,6.02,9.1,7.45,8.45c0.1-0.05,0.21-0.1,0.32-0.11c0.22-0.02,0.4,0.08,0.46,0.3
		c0.08,0.25-0.01,0.45-0.25,0.56C7.56,9.37,7.2,9.63,6.89,9.97c-0.52,0.58-0.79,1.26-0.93,2.02c-0.04,0.22,0.02,0.31,0.22,0.38
		c0.61,0.22,1.23,0.4,1.83,0.67c0.36,0.16,0.42,0.38,0.31,0.72c-0.26,0.86-0.51,1.72-0.78,2.58c-0.06,0.19-0.04,0.32,0.11,0.46
		c2.03,1.96,4.06,3.94,6.09,5.9C13.8,22.75,13.84,22.83,13.97,22.81z"/>
	<path class="st1" d="M20.69,7.85c-0.01,0.81-0.16,1.59-0.46,2.34c-0.2,0.52-0.38,0.6-0.89,0.37c-0.9-0.4-1.8-0.81-2.7-1.22
		c-0.19-0.09-0.32-0.09-0.5,0.04c-0.72,0.53-1.58,0.52-2.3-0.01c-0.17-0.12-0.29-0.13-0.47-0.05c-0.92,0.43-1.84,0.84-2.77,1.25
		c-0.44,0.2-0.63,0.12-0.81-0.33c-0.64-1.61-0.64-3.22,0-4.83c0.18-0.44,0.38-0.52,0.82-0.32c0.91,0.41,1.82,0.82,2.73,1.24
		c0.19,0.09,0.32,0.09,0.5-0.05c0.72-0.53,1.57-0.52,2.3,0.01c0.17,0.12,0.29,0.13,0.47,0.05c0.91-0.42,1.82-0.83,2.73-1.24
		c0.47-0.21,0.67-0.13,0.86,0.36C20.53,6.23,20.68,7.03,20.69,7.85z M19.79,7.86c-0.01-0.48-0.08-0.97-0.2-1.46
		c-0.07-0.28-0.15-0.37-0.44-0.22c-0.6,0.3-1.21,0.58-1.84,0.83c-0.34,0.14-0.51,0.3-0.39,0.68c0.04,0.14,0.01,0.32-0.03,0.48
		c-0.04,0.19,0,0.29,0.19,0.38c0.72,0.31,1.44,0.64,2.15,0.97c0.21,0.1,0.29,0.04,0.34-0.16C19.7,8.88,19.77,8.39,19.79,7.86z
		 M10.22,7.85c0.01,0.49,0.08,0.97,0.2,1.44c0.07,0.26,0.15,0.35,0.43,0.22c0.66-0.32,1.33-0.62,2.01-0.91
		c0.24-0.1,0.32-0.23,0.25-0.48c-0.06-0.2-0.04-0.42,0.01-0.63c0.05-0.18-0.01-0.27-0.18-0.35c-0.73-0.32-1.46-0.65-2.18-0.99
		c-0.19-0.09-0.26-0.03-0.31,0.15C10.3,6.8,10.23,7.32,10.22,7.85z M15,8.87c0.57,0,1.03-0.45,1.04-1.01
		c0.01-0.57-0.47-1.05-1.05-1.04c-0.56,0.01-1.02,0.48-1.02,1.03C13.97,8.41,14.44,8.86,15,8.87z"/>
	<path class="st1" d="M15,13.04c-0.35,0-0.64-0.29-0.65-0.64c-0.01-0.37,0.3-0.66,0.67-0.65c0.35,0.01,0.64,0.3,0.63,0.65
		C15.65,12.76,15.36,13.04,15,13.04z"/>
	<path class="st1" d="M15.02,14.92c0.3-0.01,0.62,0.3,0.64,0.62c0.02,0.31-0.32,0.66-0.63,0.67c-0.35,0-0.66-0.28-0.67-0.62
		C14.34,15.23,14.63,14.93,15.02,14.92z"/>
</g>
</svg>
