<?xml version="1.0" encoding="utf-8"?>
<!-- Generator: Adobe Illustrator 24.0.2, SVG Export Plug-In . SVG Version: 6.00 Build 0)  -->
<svg version="1.1" id="Layer_1" xmlns="http://www.w3.org/2000/svg" xmlns:xlink="http://www.w3.org/1999/xlink" x="0px" y="0px"
	 viewBox="0 0 30 30" style="enable-background:new 0 0 30 30;" xml:space="preserve">
<style type="text/css">
	.st0{opacity:0;fill:#FFFFFF;}
	.st1{fill:#808285;}
	.st2{fill:#6D6E71;stroke:#FFFFFF;stroke-width:0.25;stroke-miterlimit:10;}
</style>
<path class="st0" d="M1.25,0h27.5C29.44,0,30,0.56,30,1.25v27.5c0,0.69-0.56,1.25-1.25,1.25H1.25C0.56,30,0,29.44,0,28.75V1.25
	C0,0.56,0.56,0,1.25,0z"/>
<g>
	<g>
		<path class="st1" d="M27.11,17.67h-2.09v-2.7c0-0.31-0.2-0.51-0.51-0.51h-9.01v-2.19h2.09c0.61,0,1.07-0.46,1.07-1.07V6.07
			C18.66,5.46,18.21,5,17.6,5H12.4c-0.61,0-1.07,0.46-1.07,1.07v5.19c0,0.61,0.46,1.07,1.07,1.07h2.09v2.14H5.48
			c-0.31,0-0.51,0.2-0.51,0.51v2.7H2.89c-0.61,0-1.07,0.46-1.07,1.07v5.19c0,0.61,0.46,1.07,1.07,1.07h5.19
			c0.61,0,1.07-0.46,1.07-1.07v-5.19c0-0.61-0.46-1.07-1.07-1.07H5.99v-2.19h8.5v2.19H12.4c-0.61,0-1.07,0.46-1.07,1.07v5.19
			c0,0.61,0.46,1.07,1.07,1.07h5.19c0.61,0,1.07-0.46,1.07-1.07v-5.19c0-0.61-0.46-1.07-1.07-1.07h-2.09v-2.19h8.5v2.19h-2.09
			c-0.61,0-1.07,0.46-1.07,1.07v5.19c0,0.61,0.46,1.07,1.07,1.07h5.19c0.61,0,1.07-0.46,1.07-1.07v-5.19
			C28.18,18.13,27.67,17.67,27.11,17.67z M8.13,18.74C8.08,18.69,8.13,18.69,8.13,18.74v5.19c0,0.05,0,0.05-0.05,0.05H2.89
			c-0.05,0-0.05,0-0.05-0.05v-5.19c0-0.05,0-0.05,0.05-0.05L8.13,18.74z M17.65,18.74C17.6,18.69,17.65,18.69,17.65,18.74v5.19
			c0,0.05,0,0.05-0.05,0.05H12.4c-0.05,0-0.05,0-0.05-0.05v-5.19c0-0.05,0-0.05,0.05-0.05L17.65,18.74z M12.35,11.21
			C12.4,11.26,12.35,11.26,12.35,11.21V6.07c0-0.05,0-0.05,0.05-0.05h5.19c0.05,0,0.05,0,0.05,0.05v5.19c0,0.05,0,0.05-0.05,0.05
			L12.35,11.21z M27.16,23.88C27.16,23.93,27.11,23.93,27.16,23.88l-5.24,0.05c-0.05,0-0.05,0-0.05-0.05v-5.14
			c0-0.05,0-0.05,0.05-0.05h5.19c0.05,0,0.05,0,0.05,0.05V23.88z"/>
	</g>
</g>
</svg>
