<?xml version="1.0" encoding="utf-8"?>
<!-- Generator: Adobe Illustrator 24.0.2, SVG Export Plug-In . SVG Version: 6.00 Build 0)  -->
<svg version="1.1" id="Layer_1" xmlns="http://www.w3.org/2000/svg" xmlns:xlink="http://www.w3.org/1999/xlink" x="0px" y="0px"
	 viewBox="0 0 20 20" style="enable-background:new 0 0 20 20;" xml:space="preserve">
<style type="text/css">
	.st0{fill:#29A9E1;}
	.st1{fill:#FFFFFF;}
	.st2{fill:#3E5C9A;}
	.st3{fill:url(#XMLID_2_);}
	.st4{fill:#DF4B38;}
	.st5{fill:#36465D;}
	.st6{fill:#00AEF7;}
	.st7{fill:#CD2129;}
	.st8{fill:#0057FF;}
	.st9{fill:#117BB8;}
	.st10{fill:#1EB8EB;}
	.st11{fill:#EB4C89;}
	.st12{fill:#C3271A;}
</style>
<g id="XMLID_327_">
	<path id="XMLID_336_" class="st11" d="M16.43,20H3.57C1.6,20,0,18.4,0,16.43V3.57C0,1.6,1.6,0,3.57,0h12.86C18.4,0,20,1.6,20,3.57
		v12.86C20,18.4,18.4,20,16.43,20z"/>
	<path id="XMLID_328_" class="st1" d="M10,3.63c-3.52,0-6.37,2.85-6.37,6.38c0,3.52,2.85,6.37,6.37,6.37c3.52,0,6.38-2.85,6.38-6.37
		C16.37,6.48,13.52,3.63,10,3.63z M10,4.73c1.21,0,2.32,0.41,3.21,1.1c-0.64,0.83-1.52,1.48-2.65,1.95C10.02,6.8,9.41,5.84,8.71,4.9
		C9.12,4.8,9.55,4.73,10,4.73z M7.62,5.31C8.33,6.23,8.96,7.19,9.5,8.17C8.21,8.55,6.67,8.74,4.89,8.75
		C5.26,7.25,6.27,5.99,7.62,5.31z M4.73,10c0-0.05,0.01-0.09,0.01-0.14c2.04,0,3.81-0.24,5.29-0.7c0.12,0.25,0.24,0.51,0.36,0.76
		c-1.8,0.56-3.27,1.71-4.43,3.44C5.19,12.45,4.73,11.28,4.73,10z M10,15.27c-1.22,0-2.34-0.42-3.23-1.12
		c1.05-1.64,2.38-2.71,4.04-3.2c0.49,1.29,0.86,2.61,1.09,3.96C11.3,15.14,10.67,15.27,10,15.27z M12.92,14.38
		c-0.23-1.25-0.57-2.47-1.02-3.66c1-0.14,2.09-0.1,3.29,0.1C14.96,12.3,14.12,13.58,12.92,14.38z M11.48,9.66
		c-0.13-0.3-0.26-0.6-0.41-0.89c1.23-0.53,2.21-1.25,2.95-2.17c0.72,0.85,1.17,1.92,1.23,3.1C13.88,9.48,12.63,9.47,11.48,9.66z"/>
</g>
</svg>
