<?xml version="1.0" encoding="utf-8"?>
<!-- Generator: Adobe Illustrator 24.0.2, SVG Export Plug-In . SVG Version: 6.00 Build 0)  -->
<svg version="1.1" id="Layer_1" xmlns="http://www.w3.org/2000/svg" xmlns:xlink="http://www.w3.org/1999/xlink" x="0px" y="0px"
	 viewBox="0 0 20 20" style="enable-background:new 0 0 20 20;" xml:space="preserve">
<style type="text/css">
	.st0{fill:#29A9E1;}
	.st1{fill:#FFFFFF;}
	.st2{fill:#3E5C9A;}
	.st3{fill:url(#XMLID_2_);}
	.st4{fill:#DF4B38;}
	.st5{fill:#36465D;}
	.st6{fill:#00AEF7;}
	.st7{fill:#CD2129;}
	.st8{fill:#0057FF;}
	.st9{fill:#117BB8;}
	.st10{fill:#1EB8EB;}
	.st11{fill:#EB4C89;}
	.st12{fill:#C3271A;}
</style>
<g id="XMLID_367_">
	<path id="XMLID_371_" class="st6" d="M16.43,20H3.57C1.6,20,0,18.4,0,16.43V3.57C0,1.6,1.6,0,3.57,0h12.86C18.4,0,20,1.6,20,3.57
		v12.86C20,18.4,18.4,20,16.43,20z"/>
	<path id="XMLID_368_" class="st1" d="M4.43,10c0,3.08,2.49,5.57,5.57,5.57c0.36,0,0.71-0.03,1.04-0.1c0.49,0.3,1.06,0.47,1.68,0.47
		c1.8,0,3.25-1.46,3.25-3.25c0-0.63-0.18-1.22-0.49-1.71c0.06-0.32,0.09-0.64,0.09-0.97c0-3.08-2.49-5.57-5.57-5.57
		c-0.35,0-0.69,0.03-1.03,0.1C8.48,4.23,7.9,4.06,7.28,4.06c-1.8,0-3.25,1.46-3.25,3.25c0,0.63,0.18,1.21,0.48,1.71
		C4.46,9.34,4.43,9.67,4.43,10z M10.06,6.05c1.8,0.11,2.85,0.9,2.95,1.63c0.05,0.48-0.27,0.86-0.83,0.86c-0.81,0-0.9-1.08-2.29-1.08
		c-0.63,0-1.16,0.26-1.16,0.83c0,1.19,4.48,0.5,4.48,3.12c0,1.51-1.21,2.5-3.01,2.5c-1.59,0-3.18-0.72-3.17-1.96
		c0-0.37,0.28-0.72,0.65-0.72c0.93,0,0.93,1.39,2.41,1.39c1.04,0,1.4-0.57,1.4-0.97c0-1.43-4.51-0.55-4.51-3.25
		C6.97,6.94,8.17,5.94,10.06,6.05z"/>
</g>
</svg>
