<?xml version="1.0" encoding="utf-8"?>
<!-- Generator: Adobe Illustrator 24.0.2, SVG Export Plug-In . SVG Version: 6.00 Build 0)  -->
<svg version="1.1" id="Layer_1" xmlns="http://www.w3.org/2000/svg" xmlns:xlink="http://www.w3.org/1999/xlink" x="0px" y="0px"
	 viewBox="0 0 20 20" style="enable-background:new 0 0 20 20;" xml:space="preserve">
<style type="text/css">
	.st0{fill:#29A9E1;}
	.st1{fill:#FFFFFF;}
	.st2{fill:#3E5C9A;}
	.st3{fill:url(#XMLID_2_);}
	.st4{fill:#DF4B38;}
	.st5{fill:#36465D;}
	.st6{fill:#00AEF7;}
	.st7{fill:#CD2129;}
	.st8{fill:#0057FF;}
	.st9{fill:#117BB8;}
	.st10{fill:#1EB8EB;}
	.st11{fill:#EB4C89;}
	.st12{fill:#C3271A;}
</style>
<g id="XMLID_338_">
	<path id="XMLID_340_" class="st10" d="M16.43,20H3.57C1.6,20,0,18.4,0,16.43V3.57C0,1.6,1.6,0,3.57,0h12.86C18.4,0,20,1.6,20,3.57
		v12.86C20,18.4,18.4,20,16.43,20z"/>
	<path id="XMLID_339_" class="st1" d="M14.02,5.09c-1.57-0.05-2.64,0.84-3.19,2.66c0.29-0.12,0.57-0.19,0.84-0.19
		c0.58,0,0.83,0.32,0.76,0.97c-0.03,0.39-0.29,0.96-0.76,1.71c-0.48,0.75-0.83,1.13-1.07,1.13c-0.31,0-0.59-0.58-0.84-1.73
		c-0.09-0.34-0.24-1.21-0.46-2.6c-0.2-1.29-0.75-1.9-1.63-1.81C7.29,5.27,6.73,5.61,5.98,6.26c-0.54,0.49-1.1,0.98-1.66,1.48
		l0.53,0.69c0.51-0.36,0.81-0.53,0.89-0.53c0.39,0,0.75,0.61,1.09,1.83c0.31,1.12,0.61,2.24,0.92,3.36
		c0.46,1.22,1.02,1.83,1.68,1.83c1.07,0,2.37-1,3.91-3.01c1.49-1.92,2.26-3.43,2.31-4.54C15.73,5.89,15.18,5.13,14.02,5.09z"/>
</g>
</svg>
